<svg version="1.1" xmlns="http://www.w3.org/2000/svg" xmlns:xlink="http://www.w3.org/1999/xlink" width="574.67126" height="278.54475" viewBox="0,0,574.67126,278.54475"><g transform="translate(76.77351,-135.87359)"><g data-paper-data="{&quot;isPaintingLayer&quot;:true}" fill="#344e5f" fill-rule="nonzero" stroke="none" stroke-width="0" stroke-linecap="butt" stroke-linejoin="miter" stroke-miterlimit="10" stroke-dasharray="" stroke-dashoffset="0" style="mix-blend-mode: normal"><path d="M269.92038,212.79412c0,0.0851 2.24121,-1.57319 4.58684,-2.64696c1.7258,-0.79003 3.68664,-1.07024 3.94306,-1.0926c2.82932,-0.24667 3.76015,4.40346 3.53723,5.35507c-0.16655,0.71101 -6.56699,-1.67723 -9.16736,-0.0315c-3.15061,1.99398 -3.10661,5.29832 -3.72187,5.8309c-1.03363,0.89471 -3.24101,0.63953 -4.20106,0.63953c-0.86003,0 -1.34698,-1.36077 -1.69896,-2.83446c-0.34281,-1.43532 -0.53923,-2.96941 -2.182,-4.07338c-1.92804,-1.29568 -3.45549,-1.07104 -5.41244,-2.05403c-0.76385,-0.38369 -1.80154,-0.5403 -2.56499,-1.94637c-0.68073,-1.25371 -1.08895,-3.70963 -1.74456,-4.93216c-0.49288,-0.91908 -2.04328,-2.5578 -2.04328,-2.58319c0,-0.45577 -1.07709,-1.61203 0.02501,-1.58778c0.67821,0.01492 0.5257,-0.24516 1.73161,0.21558c0.53126,0.20298 1.59899,1.23475 2.13668,2.51312c0.40475,0.96229 0.15884,3.01138 1.21899,3.36148c0.11491,0.03795 0.20873,-1.23949 0.30605,-2.13503c0.11161,-1.02699 0.48825,-2.28912 1.09909,-1.89498c0.5643,0.36411 0.73985,2.5454 1.02661,3.9646c0.32278,1.5975 1.22603,2.41513 2.73822,3.02299c0.81741,0.32858 2.16196,0.055 2.47207,0.08379c0.61576,0.05716 -0.29915,-5.77006 -2.37597,-8.65787c-2.07681,-2.88781 -7.36739,-4.55319 -7.41515,-4.95664c-0.24926,-2.10573 4.31326,-1.4139 6.60001,-1.992c1.55578,-0.3933 2.06208,6.72286 3.65789,6.55401c0.46481,-0.04918 1.13016,-1.33219 1.7758,-2.0214c1.23979,-1.32342 0.58175,-3.6546 1.50162,-5.31013c0.92927,-1.67245 4.26367,-2.0647 4.29879,-1.53142c0.10752,1.63246 -1.45382,4.90016 -1.33362,7.02876c0.11154,1.97521 2.06059,1.72923 1.95895,2.98043c-0.12721,1.56599 -5.47269,0.48834 -5.93101,1.33616c-0.82862,1.53281 1.81104,6.05164 2.2295,5.95308c1.75675,-0.41375 1.14044,-1.50573 2.24383,-2.72532c1.19473,-1.32055 4.53649,-2.95392 3.96662,-4.82321c-0.30626,-1.00459 -0.32107,-1.7031 -0.33807,-2.5942c-0.01753,-0.91895 -0.03122,-2.02416 0.04488,-2.63849c0.11461,-0.92518 2.49999,-2.47212 2.55739,-2.46667c1.29368,0.12285 -0.62727,5.58094 0.20081,5.47031c1.45967,-0.19502 3.11611,-8.13513 5.1538,-8.99585c1.14312,-0.48286 -0.0531,4.46806 0.97164,5.42918c1.67266,1.56883 5.30751,-0.17028 5.31424,0.86523c0.00453,0.69727 -4.92991,1.14544 -7.87695,3.31816c-3.00598,2.21617 -3.19684,6.92697 -3.29389,7.0157c-0.39495,0.36107 -2.60271,0.96575 -4.06711,2.45514c-1.20536,1.22593 -1.92892,2.69119 -1.92892,3.13241z" data-paper-data="{&quot;index&quot;:null}"/><path d="M204.95186,219.74419c-1.5824,-0.85079 -3.20459,-0.68113 -3.61246,-0.87464c-0.10023,-0.04755 -2.40818,-4.15634 -5.26499,-5.15824c-2.8008,-0.98227 -6.00612,0.19645 -6.32783,-0.42218c-0.47776,-0.91871 2.53899,-0.53986 2.82482,-2.46252c0.17511,-1.1779 -2.85515,-5.17824 -1.93623,-5.11581c1.63804,0.11129 6.33874,6.61056 7.31597,6.31715c0.55439,-0.16646 -3.15201,-4.38434 -2.42351,-4.90611c0.03233,-0.02315 2.20084,0.58453 2.70095,1.36685c0.33208,0.51947 0.83804,1.50211 1.255,2.32111c0.40432,0.79417 0.72037,1.41718 1.00183,2.40417c0.52372,1.83652 3.31328,2.21537 4.65334,3.0028c1.23761,0.72723 1.37144,1.89055 2.63087,1.6959c0.3,-0.04637 -0.1996,-4.88893 -1.41609,-5.98113c-0.67286,-0.60412 -3.41781,2.0564 -4.22375,0.7109c-0.64393,-1.07504 0.65422,-1.47958 -0.19715,-3.26353c-0.91749,-1.92248 -3.38625,-4.31637 -4.08057,-5.79566c-0.22682,-0.48324 1.98074,-1.20061 3.32334,-0.01695c1.32901,1.17169 2.01412,3.44521 3.38289,4.2208c0.71282,0.40391 1.7139,1.32712 2.01908,1.22226c1.04774,-0.36004 -1.95609,-6.82049 -0.82823,-6.96908c1.65778,-0.2184 4.10676,-2.28744 4.93522,-0.34399c0.15873,0.37236 -2.27939,3.53558 -2.19692,6.75476c0.08248,3.21918 2.23837,8.6692 2.58573,8.42201c0.17494,-0.12449 1.11881,-0.3116 1.46234,-0.86342c0.63553,-1.02084 0.80363,-2.03295 0.2563,-3.55001c-0.48623,-1.34775 -1.39462,-3.33453 -1.22134,-3.83699c0.18757,-0.54389 1.00361,0.45303 1.54928,1.32643c0.47582,0.76161 1.12721,1.86236 1.17934,1.79208c0.48094,-0.64836 -0.62189,-2.38358 -0.82386,-3.36457c-0.2683,-1.3032 -0.09995,-2.55736 0.12824,-2.90664c0.51798,-0.79283 0.54638,-0.51393 0.95132,-0.74366c0.65805,-0.37332 0.54194,0.99401 0.75402,1.39742c0.01181,0.02247 -0.16725,1.96797 -0.03891,2.93885c0.1707,1.29143 1.06558,3.59559 1.23555,4.92264c0.19061,1.48832 -0.36671,1.95824 -0.65207,2.54173c-0.73108,1.49489 -1.76327,1.78371 -2.33129,3.54614c-0.48398,1.50165 0.11059,2.92226 0.57028,4.30217c0.47198,1.4168 0.80944,2.77674 0.28713,3.05132c-0.58305,0.30651 -1.80489,1.23713 -2.84896,0.77519c-0.62148,-0.27497 -2.13235,-3.21383 -4.97361,-3.97288c-2.34504,-0.62649 -5.12083,3.5309 -5.55284,2.95474c-0.57819,-0.77114 -2.17669,-5.18435 -0.34361,-5.86933c0.16613,-0.06208 1.48738,-0.44009 2.9031,-0.29179c1.92419,0.20155 4.05695,0.95382 4.01735,0.87849c-0.2053,-0.39053 -1.32655,-1.45649 -2.62905,-2.15678z" data-paper-data="{&quot;index&quot;:null}"/><path d="M220.81091,214.07219c0.38795,-1.75423 -0.21685,-3.269 -0.14167,-3.71414c0.01848,-0.10939 3.34392,-3.44858 3.53039,-6.47024c0.18282,-2.96242 -1.82385,-5.72588 -1.31615,-6.20382c0.75399,-0.70979 1.21057,2.29618 3.13844,2.04788c1.18108,-0.15212 4.20557,-4.15682 4.39562,-3.25561c0.33877,1.60648 -4.6356,7.89875 -4.08728,8.75922c0.31107,0.48815 3.36083,-4.22638 4.06121,-3.66741c0.03108,0.0248 0.0366,2.27684 -0.58006,2.97101c-0.40947,0.46094 -1.21728,1.21526 -1.89186,1.8394c-0.65413,0.60522 -1.16759,1.07891 -2.0407,1.6184c-1.62463,1.00384 -1.22988,3.79118 -1.62283,5.29498c-0.3629,1.38883 -1.44588,1.83426 -0.91577,2.99315c0.12627,0.27606 4.65,-1.5228 5.36985,-2.99064c0.39816,-0.81189 -2.90906,-2.72903 -1.83373,-3.87077c0.85917,-0.91224 1.60179,0.22679 3.08665,-1.07802c1.60017,-1.40614 3.23168,-5.68329 4.46613,-6.75404c0.40326,-0.34978 1.69442,2.82916 0.9209,4.44324c-0.7657,1.59776 -2.76689,2.87583 -3.14063,4.40403c-0.19464,0.79584 -0.81051,2.01042 -0.62654,2.27553c0.63162,0.91018 6.03054,-3.73872 6.48051,-2.69389c0.66139,1.53574 3.31889,3.32908 1.67432,4.65525c-0.31509,0.25409 -4.02251,-1.23097 -7.0977,-0.27537c-3.07519,0.9556 -7.7326,4.51355 -7.4002,4.78052c0.16741,0.13445 0.60437,0.99175 1.22885,1.17211c1.15528,0.33366 2.17493,0.21993 3.48573,-0.71966c1.16451,-0.83472 2.82903,-2.2496 3.35968,-2.21963c0.57441,0.03244 -0.16275,1.08902 -0.85464,1.85182c-0.60334,0.66516 -1.48523,1.59158 -1.40341,1.62261c0.75478,0.2863 2.12432,-1.24721 3.01329,-1.70856c1.18097,-0.6129 2.43359,-0.79227 2.83179,-0.66777c0.90389,0.28261 0.64324,0.38586 0.97453,0.71299c0.53835,0.53159 -0.80896,0.79204 -1.13942,1.10592c-0.01841,0.01748 -1.93919,0.37473 -2.83848,0.76249c-1.19621,0.51577 -3.16979,2.00404 -4.40047,2.5288c-1.38024,0.58853 -1.98413,0.18015 -2.62326,0.06438c-1.63744,-0.29658 -2.19631,-1.21117 -4.04681,-1.27803c-1.57668,-0.05696 -2.78182,0.90183 -3.9845,1.71976c-1.23484,0.8398 -2.45158,1.53469 -2.85796,1.10684c-0.45364,-0.47761 -1.6817,-1.40001 -1.52139,-2.53039c0.09543,-0.67286 2.51208,-2.92661 2.4691,-5.86721c-0.03548,-2.42702 -4.79144,-3.96641 -4.35462,-4.53892c0.58465,-0.76627 4.39612,-3.50563 5.55419,-1.92822c0.10496,0.14296 0.82832,1.31143 1.07098,2.71406c0.32981,1.9064 0.18646,4.1634 0.24817,4.10479c0.31991,-0.30385 1.04041,-1.67291 1.35974,-3.11683z" data-paper-data="{&quot;index&quot;:null}"/><path d="M248.93361,218.44571c1.73403,0.47009 3.27558,-0.06273 3.71669,0.03333c0.1084,0.02361 3.28735,3.50255 6.29688,3.83106c2.95053,0.32207 5.80539,-1.55229 6.2589,-1.02265c0.67351,0.78656 -2.35063,1.10114 -2.19335,3.03855c0.09635,1.18694 3.95424,4.39659 3.04508,4.54401c-1.62065,0.26278 -7.67178,-5.00229 -8.5571,-4.49508c-0.50225,0.28775 4.06349,3.55606 3.47216,4.22934c-0.02624,0.02987 -2.27604,-0.07062 -2.94042,-0.71927c-0.44115,-0.43071 -1.15662,-1.27314 -1.74831,-1.97636c-0.57376,-0.68189 -1.02276,-1.21708 -1.52054,-2.11462c-0.92625,-1.67008 -3.72909,-1.40698 -5.21272,-1.87028c-1.37021,-0.42788 -1.76416,-1.53062 -2.94672,-1.05565c-0.28169,0.11314 1.30221,4.71653 2.73455,5.50468c0.79225,0.43594 2.86295,-2.77737 3.9528,-1.64948c0.87078,0.90117 -0.30194,1.58934 0.93152,3.13397c1.32925,1.66458 4.27624,3.43679 5.2877,4.72028c0.33041,0.41927 -1.65717,1.61821 -3.23306,0.76956c-1.55994,-0.84007 -2.74239,-2.8992 -4.2513,-3.34446c-0.7858,-0.23188 -1.97004,-0.90424 -2.24351,-0.73296c-0.9389,0.58808 3.45069,6.19985 2.38584,6.60013c-1.56517,0.58836 -3.48162,3.1585 -4.72891,1.45333c-0.23898,-0.32671 1.41896,-3.96011 0.60918,-7.07687c-0.80978,-3.11676 -4.14454,-7.9365 -4.42686,-7.61703c-0.14218,0.16089 -1.01911,0.55701 -1.22866,1.17232c-0.38768,1.13829 -0.32207,2.16216 0.55478,3.51574c0.77898,1.20251 2.11393,2.93179 2.05901,3.46044c-0.05945,0.57225 -1.08016,-0.21384 -1.80954,-0.94087c-0.63602,-0.63398 -1.5199,-1.5585 -1.55475,-1.47824c-0.32152,0.74047 1.14583,2.18067 1.56482,3.09037c0.55662,1.20851 0.67684,2.46819 0.53373,2.86009c-0.32485,0.88958 -0.41572,0.62436 -0.75807,0.93989c-0.55634,0.51272 -0.75308,-0.84535 -1.05106,-1.19022c-0.0166,-0.01921 -0.28303,-1.95468 -0.62803,-2.87122c-0.45889,-1.21916 -1.8526,-3.26061 -2.31885,-4.51463c-0.5229,-1.40641 -0.08655,-1.99041 0.05917,-2.62338c0.37334,-1.62166 1.31322,-2.13686 1.46711,-3.98216c0.13112,-1.57226 -0.76988,-2.82119 -1.53029,-4.06104c-0.78074,-1.273 -1.41758,-2.5211 -0.97107,-2.90689c0.49843,-0.43066 1.47762,-1.61394 2.59921,-1.40059c0.66762,0.12699 2.80512,2.64706 5.74448,2.74256c2.426,0.07881 4.18756,-4.59942 4.73888,-4.13613c0.73789,0.62007 3.29481,4.55627 1.66463,5.6388c-0.14774,0.09811 -1.34896,0.76567 -2.76147,0.94203c-1.91981,0.2397 -4.16756,-0.00973 -4.11192,0.05467c0.28846,0.33385 1.62208,1.11801 3.04937,1.50495z" data-paper-data="{&quot;index&quot;:null}"/><path d="M316.63634,206.92392c8.30952,1.43954 16.05807,2.12494 16.05807,8.35739c0,7.34288 -8.54729,13.29545 -19.09091,13.29545c-10.54362,0 -68.03818,1.21043 -68.03818,-6.13244c0,-4.48268 31.35553,-5.40253 36.23598,-7.81092c3.114,-1.53669 27.69525,-12.64755 31.8022,-12.64755c1.59446,0 1.55235,4.68158 3.03284,4.93806z" data-paper-data="{&quot;index&quot;:null}"/><path d="M394.04277,288.29314c-1.5824,-0.85078 -3.20459,-0.68114 -3.61246,-0.87464c-0.10023,-0.04755 -2.40818,-4.15634 -5.26499,-5.15825c-2.80081,-0.98226 -6.00612,0.19646 -6.32783,-0.42217c-0.47776,-0.91871 2.539,-0.53986 2.82482,-2.46252c0.17511,-1.1779 -2.85515,-5.17824 -1.93623,-5.11581c1.63804,0.11129 6.33874,6.61056 7.31597,6.31715c0.55439,-0.16645 -3.15201,-4.38433 -2.4235,-4.90611c0.03232,-0.02315 2.20084,0.58453 2.70095,1.36685c0.33207,0.51947 0.83804,1.50211 1.255,2.32111c0.40432,0.79417 0.72037,1.41717 1.00183,2.40416c0.52373,1.83653 3.31328,2.21537 4.65334,3.00281c1.23761,0.72723 1.37144,1.89056 2.63087,1.6959c0.3,-0.04636 -0.19961,-4.88893 -1.41609,-5.98113c-0.67286,-0.60411 -3.41782,2.05641 -4.22376,0.7109c-0.64393,-1.07504 0.65422,-1.47958 -0.19715,-3.26354c-0.91749,-1.92248 -3.38626,-4.31637 -4.08058,-5.79566c-0.22682,-0.48324 1.98074,-1.20061 3.32333,-0.01695c1.32902,1.17169 2.01412,3.4452 3.38289,4.22079c0.71281,0.40391 1.7139,1.32713 2.01907,1.22226c1.04773,-0.36003 -1.95609,-6.82049 -0.82823,-6.96907c1.65778,-0.2184 4.10676,-2.28744 4.93522,-0.34398c0.15873,0.37236 -2.27939,3.53558 -2.19691,6.75476c0.08247,3.21918 2.23837,8.6692 2.58573,8.42201c0.17494,-0.12449 1.11882,-0.3116 1.46235,-0.86342c0.63552,-1.02084 0.80363,-2.03295 0.2563,-3.55001c-0.48624,-1.34775 -1.39462,-3.33453 -1.22134,-3.83699c0.18757,-0.54389 1.00361,0.45303 1.54927,1.32643c0.47582,0.7616 1.12722,1.86237 1.17935,1.79208c0.48094,-0.64836 -0.62189,-2.38358 -0.82386,-3.36457c-0.2683,-1.30321 -0.09996,-2.55736 0.12824,-2.90664c0.51797,-0.79283 0.54638,-0.51392 0.95132,-0.74366c0.65805,-0.37333 0.54194,0.99401 0.75402,1.39742c0.01182,0.02247 -0.16724,1.96796 -0.03891,2.93885c0.1707,1.29143 1.06558,3.59559 1.23555,4.92264c0.19061,1.48832 -0.36671,1.95824 -0.65207,2.54174c-0.73109,1.49488 -1.76327,1.78371 -2.33128,3.54614c-0.48398,1.50165 0.11059,2.92226 0.57027,4.30217c0.47198,1.4168 0.80944,2.77674 0.28713,3.05132c-0.58305,0.30651 -1.80489,1.23713 -2.84897,0.77519c-0.62148,-0.27497 -2.13234,-3.21383 -4.97361,-3.97289c-2.34504,-0.62649 -5.12083,3.53091 -5.55284,2.95474c-0.57819,-0.77114 -2.17668,-5.18435 -0.34361,-5.86933c0.16613,-0.06208 1.48738,-0.44009 2.9031,-0.29179c1.92419,0.20155 4.05696,0.95383 4.01736,0.8785c-0.2053,-0.39053 -1.32655,-1.45649 -2.62905,-2.15678z" data-paper-data="{&quot;index&quot;:null}"/><path d="M435.09413,309.92884c0.38795,-1.75423 -0.21685,-3.26899 -0.14166,-3.71414c0.01848,-0.10939 3.34392,-3.44858 3.53039,-6.47024c0.18282,-2.96242 -1.82385,-5.72588 -1.31615,-6.20382c0.75398,-0.70979 1.21057,2.29618 3.13843,2.04789c1.18109,-0.15211 4.20558,-4.15683 4.39562,-3.25561c0.33877,1.60648 -4.6356,7.89875 -4.08728,8.75921c0.31107,0.48815 3.36083,-4.22638 4.0612,-3.66741c0.03107,0.02481 0.0366,2.27685 -0.58006,2.97102c-0.40947,0.46094 -1.21728,1.21526 -1.89187,1.8394c-0.65413,0.60522 -1.16758,1.07891 -2.0407,1.6184c-1.62463,1.00384 -1.22987,3.79118 -1.62282,5.29498c-0.3629,1.38883 -1.44588,1.83425 -0.91577,2.99315c0.12627,0.27606 4.65001,-1.52279 5.36985,-2.99064c0.39816,-0.81189 -2.90906,-2.72903 -1.83373,-3.87077c0.85917,-0.91224 1.60179,0.22679 3.08665,-1.07802c1.60017,-1.40614 3.23168,-4.43329 4.46613,-5.50404c0.40325,-0.34978 1.69442,1.57916 0.92089,3.19324c-0.76571,1.59776 -2.76689,2.87583 -3.14063,4.40403c-0.19464,0.79584 -0.8105,2.01042 -0.62653,2.27553c0.63162,0.91017 6.03053,-3.73872 6.4805,-2.69389c0.66139,1.53574 3.31889,3.32907 1.67432,4.65525c-0.31509,0.25409 -4.02251,-1.23097 -7.0977,-0.27537c-3.07518,0.9556 -7.7326,4.51355 -7.4002,4.78052c0.16741,0.13445 0.60437,0.99175 1.22885,1.17211c1.15528,0.33366 2.17493,0.21993 3.48573,-0.71966c1.16451,-0.83472 2.82903,-2.2496 3.35968,-2.21963c0.57441,0.03245 -0.16275,1.08902 -0.85465,1.85182c-0.60334,0.66516 -1.48522,1.59158 -1.40341,1.62261c0.75478,0.2863 2.12431,-1.24721 3.01328,-1.70857c1.18097,-0.6129 2.43359,-0.79228 2.83179,-0.66777c0.90389,0.28261 0.64324,0.38586 0.97453,0.71299c0.53835,0.53158 -0.80896,0.79204 -1.13942,1.10592c-0.01841,0.01748 -1.93918,0.37473 -2.83847,0.76249c-1.1962,0.51577 -3.16979,2.00404 -4.40047,2.5288c-1.38024,0.58853 -1.98413,0.18015 -2.62326,0.06439c-1.63744,-0.29659 -2.19631,-1.21118 -4.0468,-1.27803c-1.57668,-0.05696 -2.78183,0.90183 -3.98451,1.71977c-1.23483,0.8398 -2.45157,1.53468 -2.85796,1.10683c-0.45364,-0.47761 -1.6817,-1.40001 -1.52139,-2.53039c0.09542,-0.67286 2.51208,-2.92662 2.46911,-5.86721c-0.03548,-2.42702 -4.79145,-3.9664 -4.35462,-4.53892c0.58465,-0.76626 4.39612,-3.50563 5.55418,-1.92822c0.10496,0.14296 0.82833,1.31142 1.07098,2.71406c0.32981,1.9064 0.18646,4.1634 0.24817,4.10479c0.31991,-0.30385 1.04041,-1.67291 1.35974,-3.11684z" data-paper-data="{&quot;index&quot;:null}"/><path d="M351.76379,252.17102c-0.01092,0.06782 1.9878,-0.96606 3.99473,-1.52075c1.4766,-0.40812 3.07509,-0.37982 3.28229,-0.36474c2.28624,0.16646 2.43136,3.99143 2.13162,4.72114c-0.22395,0.54521 -5.01783,-2.17912 -7.30114,-1.20134c-2.76647,1.18469 -3.15537,3.82346 -3.71399,4.16891c-0.93846,0.58035 -2.66471,0.09378 -3.42974,-0.0294c-0.68533,-0.11035 -0.89878,-1.25718 -0.99017,-2.47668c-0.08901,-1.18774 -0.0487,-2.43542 -1.21611,-3.52591c-1.37015,-1.27987 -2.61615,-1.29684 -4.04946,-2.33125c-0.55945,-0.40375 -1.36626,-0.6617 -1.79423,-1.88011c-0.38159,-1.08639 -0.39178,-3.09581 -0.75736,-4.15412c-0.27484,-0.79563 -1.30005,-2.30039 -1.29679,-2.32062c0.05848,-0.36318 -0.65146,-1.42278 0.22366,-1.26205c0.53853,0.09891 0.45037,-0.12791 1.35221,0.39397c0.3973,0.22991 1.11576,1.18909 1.3802,2.27678c0.19906,0.81875 -0.2598,2.42005 0.54007,2.83506c0.0867,0.04499 0.32536,-0.96092 0.51782,-1.66206c0.22071,-0.80406 0.68278,-1.76149 1.11897,-1.36903c0.40296,0.36255 0.26297,2.12327 0.30938,3.29098c0.05224,1.31441 0.6671,2.08185 1.79412,2.76026c0.60921,0.36672 1.71574,0.32121 1.95916,0.38395c0.48334,0.12455 0.50195,-4.63637 -0.78247,-7.20404c-1.28442,-2.56767 -5.28663,-4.57358 -5.27292,-4.90121c0.07155,-1.70997 3.61851,-0.57327 5.51493,-0.74053c1.29021,-0.11379 0.78062,5.62181 2.07393,5.69201c0.3767,0.02045 1.07152,-0.91658 1.67444,-1.38294c1.15775,-0.89552 0.93248,-2.83759 1.87792,-4.0388c0.9551,-1.21349 3.66249,-1.09824 3.62206,-0.66878c-0.12378,1.31465 -1.78723,3.71825 -1.96456,5.42989c-0.16456,1.5883 1.42015,1.64236 1.17862,2.62636c-0.30229,1.23156 -4.42367,-0.31304 -4.89768,0.30375c-0.85697,1.11513 0.66669,5.05473 1.01279,5.02989c1.45299,-0.1043 1.10199,-1.05355 2.13772,-1.88382c1.12148,-0.89901 3.99399,-1.77182 3.77972,-3.33451c-0.11516,-0.83982 -0.03732,-1.39835 0.06346,-2.11061c0.10394,-0.73453 0.23484,-1.61699 0.3743,-2.09677c0.21003,-0.72254 2.30936,-1.64919 2.3544,-1.63748c1.01513,0.26389 -1.21593,4.36679 -0.54186,4.38488c1.18818,0.03189 3.52693,-6.08281 5.26113,-6.50724c0.97287,-0.2381 -0.6156,3.55365 0.07766,4.45102c1.1316,1.46476 4.25124,0.5453 4.12374,1.37133c-0.08586,0.55621 -4.07547,0.28022 -6.70265,1.63347c-2.67972,1.38031 -3.43624,5.10971 -3.52496,5.16796c-0.36105,0.23706 -2.19793,0.43563 -3.55596,1.43459c-1.11781,0.82225 -1.8824,1.89703 -1.93901,2.24862z" data-paper-data="{&quot;index&quot;:null}"/><path d="M337.79151,213.48027c-0.01092,0.06782 1.9878,-0.96606 3.99473,-1.52075c1.4766,-0.40812 3.07509,-0.37982 3.28229,-0.36474c2.28624,0.16646 2.43136,3.99143 2.13162,4.72114c-0.22395,0.54521 -5.01783,-2.17912 -7.30114,-1.20134c-2.76647,1.18469 -3.15537,3.82346 -3.71399,4.16891c-0.93846,0.58035 -2.66471,0.09378 -3.42974,-0.0294c-0.68533,-0.11035 -0.89878,-1.25718 -0.99017,-2.47668c-0.08901,-1.18774 -0.0487,-2.43542 -1.21611,-3.52591c-1.37015,-1.27987 -2.61615,-1.29684 -4.04946,-2.33125c-0.55945,-0.40375 -1.36626,-0.6617 -1.79423,-1.88011c-0.38159,-1.08639 -0.39178,-3.09581 -0.75736,-4.15412c-0.27484,-0.79563 -1.30005,-2.30039 -1.29679,-2.32062c0.05848,-0.36318 -0.65146,-1.42278 0.22366,-1.26205c0.53853,0.09891 0.45037,-0.12791 1.35221,0.39397c0.3973,0.22991 1.11576,1.18909 1.3802,2.27678c0.19906,0.81875 -0.2598,2.42005 0.54007,2.83506c0.0867,0.04499 0.32536,-0.96092 0.51782,-1.66206c0.22071,-0.80406 0.68278,-1.76149 1.11897,-1.36903c0.40296,0.36255 0.26297,2.12327 0.30938,3.29098c0.05224,1.31441 0.6671,2.08185 1.79412,2.76026c0.60921,0.36672 1.71574,0.32121 1.95916,0.38395c0.48334,0.12455 0.50195,-4.63637 -0.78247,-7.20404c-1.28442,-2.56767 -5.28663,-4.57358 -5.27292,-4.90121c0.07155,-1.70997 3.61851,-0.57327 5.51493,-0.74053c1.29021,-0.11379 0.78062,5.62181 2.07393,5.69201c0.3767,0.02045 1.07152,-0.91658 1.67444,-1.38294c1.15775,-0.89552 0.93248,-2.83759 1.87792,-4.0388c0.9551,-1.21349 3.66249,-1.09824 3.62206,-0.66878c-0.12378,1.31465 -1.78723,3.71825 -1.96456,5.42989c-0.16456,1.5883 1.42015,1.64236 1.17862,2.62636c-0.30229,1.23156 -4.42367,-0.31304 -4.89768,0.30375c-0.85697,1.11513 0.66669,5.05473 1.01279,5.02989c1.45299,-0.1043 1.10199,-1.05355 2.13772,-1.88382c1.12148,-0.89901 3.99399,-1.77182 3.77972,-3.33451c-0.11516,-0.83982 -0.03732,-1.39835 0.06346,-2.11061c0.10394,-0.73453 0.23484,-1.61699 0.3743,-2.09677c0.21003,-0.72254 2.30936,-1.64919 2.3544,-1.63748c1.01513,0.26389 -1.21593,4.36679 -0.54186,4.38488c1.18818,0.03189 3.52693,-6.08281 5.26113,-6.50724c0.97287,-0.2381 -0.6156,3.55365 0.07766,4.45102c1.1316,1.46476 4.25124,0.5453 4.12374,1.37133c-0.08586,0.55621 -4.07547,0.28022 -6.70265,1.63347c-2.67972,1.38031 -3.43624,5.10971 -3.52496,5.16796c-0.36105,0.23706 -2.19793,0.43563 -3.55596,1.43459c-1.11781,0.82225 -1.8824,1.89703 -1.93901,2.24862z" data-paper-data="{&quot;index&quot;:null}"/><path d="M376.67762,268.65503c0,0.87677 0.58592,7.04974 -2.15481,7.59516c-2.40529,0.47867 -7.90307,-4.61439 -11.40288,-4.61439c-7.48771,0 -13.55769,-1.33454 -13.55769,-2.98077c0,-1.64623 6.06999,-2.98077 13.55769,-2.98077c2.46838,0 4.59039,-7.16266 6.58397,-6.90925c4.05382,0.51531 6.97373,8.78648 6.97373,9.89001z" data-paper-data="{&quot;index&quot;:null}"/><path d="" data-paper-data="{&quot;index&quot;:null}"/><path d="" data-paper-data="{&quot;index&quot;:null}"/><path d="" data-paper-data="{&quot;index&quot;:null}"/><path d="M160.01215,201.3535c-0.08476,-0.00765 1.36543,2.37351 2.22407,4.80614c0.63175,1.78981 0.73462,3.76791 0.73385,4.02529c-0.00858,2.84003 -4.72354,3.34923 -5.65127,3.0417c-0.69316,-0.22977 2.26056,-6.38971 0.85516,-9.12744c-1.70279,-3.31705 -4.99772,-3.57016 -5.47285,-4.23079c-0.79821,-1.10984 -0.3457,-3.28537 -0.25943,-4.24153c0.07728,-0.85655 1.47631,-1.21925 2.97566,-1.43737c1.46031,-0.21244 3.00585,-0.27022 4.25298,-1.80713c1.4637,-1.80381 1.37722,-3.34526 2.5321,-5.20597c0.45077,-0.72627 0.70001,-1.7457 2.16899,-2.37971c1.30981,-0.56532 3.79247,-0.75119 5.06897,-1.29429c0.95966,-0.40829 2.73106,-1.80518 2.75635,-1.80289c0.45392,0.04096 1.7023,-0.92787 1.57911,0.16759c-0.0758,0.67412 0.19693,0.54561 -0.37031,1.70523c-0.2499,0.51087 -1.37344,1.48157 -2.69496,1.9022c-0.99477,0.31664 -3.01347,-0.11241 -3.45742,0.91199c-0.04812,0.11104 1.21571,0.31926 2.09888,0.49667c1.01281,0.20344 2.23599,0.69198 1.78855,1.26493c-0.41335,0.5293 -2.60158,0.50812 -4.04081,0.66618c-1.62004,0.17792 -2.51554,1.00405 -3.25683,2.45549c-0.40071,0.78458 -0.24905,2.14827 -0.30559,2.45453c-0.11226,0.60813 5.77361,0.22056 8.83635,-1.58834c3.06275,-1.80891 5.19682,-6.92843 5.60292,-6.93974c2.11961,-0.05903 1.02059,4.42287 1.39085,6.75231c0.2519,1.58482 -6.88097,1.44961 -6.85619,3.05414c0.00721,0.46734 1.22524,1.2453 1.85364,1.95026c1.20666,1.35369 3.58754,0.9078 5.15371,1.97272c1.58218,1.0758 1.6732,4.43195 1.13893,4.41902c-1.63552,-0.03961 -4.74969,-1.88827 -6.88048,-1.95984c-1.97725,-0.06641 -1.9074,1.89686 -3.14441,1.6832c-1.54822,-0.26741 0.00543,-5.49444 -0.79779,-6.02709c-1.45215,-0.963 -6.1899,1.2599 -6.12934,1.68552c0.25421,1.78682 1.39716,1.27114 2.51266,2.47966c1.20785,1.30856 2.53432,4.78358 4.44725,4.38399c1.02805,-0.21475 1.72507,-0.16672 2.61409,-0.10358c0.9168,0.06512 2.01877,0.1508 2.62377,0.2818c0.91114,0.19728 2.23746,2.71203 2.22688,2.76871c-0.23861,1.27741 -5.502,-1.12625 -5.46622,-0.29157c0.06306,1.47128 7.8222,3.83454 8.49632,5.94133c0.37818,1.18189 -4.44521,-0.45439 -5.49453,0.47983c-1.71279,1.52491 -0.30735,5.30133 -1.33927,5.21499c-0.69485,-0.05815 -0.6978,-5.0129 -2.59691,-8.14326c-1.93708,-3.19296 -6.61167,-3.80637 -6.69132,-3.911c-0.32412,-0.4258 -0.72796,-2.67896 -2.07974,-4.27128c-1.11266,-1.31065 -2.50697,-2.16295 -2.9464,-2.2026z" data-paper-data="{&quot;index&quot;:null}"/><path d="M456.14178,322.31275c-0.45375,-1.73838 -1.68216,-2.81134 -1.818,-3.24187c-0.03338,-0.1058 1.4059,-4.59325 0.19545,-7.36814c-1.18672,-2.7205 -4.23194,-4.26649 -3.99769,-4.92324c0.34788,-0.97533 2.12365,1.49266 3.72677,0.39342c0.98214,-0.67345 1.85034,-5.61626 2.43006,-4.90055c1.03338,1.2758 -0.5286,9.14328 0.35149,9.65951c0.49928,0.29286 1.06665,-5.29338 1.94476,-5.1148c0.03897,0.00793 1.06976,2.01024 0.83701,2.9091c-0.15454,0.59686 -0.53006,1.63635 -0.84628,2.49926c-0.30662,0.83676 -0.54794,1.49235 -1.07945,2.37034c-0.98901,1.63371 0.63213,3.93523 0.96734,5.45294c0.30958,1.40168 -0.45161,2.29153 0.54821,3.08172c0.23816,0.18824 3.44586,-3.47382 3.41804,-5.10845c-0.01538,-0.90414 -3.83284,-1.10429 -3.39567,-2.61054c0.34931,-1.20347 1.52926,-0.52776 2.25673,-2.36573c0.78397,-1.98069 0.85743,-5.41874 1.4686,-6.93427c0.19965,-0.49508 2.22776,0.63396 2.27441,2.42321c0.04618,1.77116 -1.15312,3.82052 -0.78969,5.3512c0.18926,0.79713 0.19427,2.15894 0.47881,2.31113c0.9769,0.52254 3.66542,-6.07536 4.54194,-5.35021c1.28836,1.06586 4.47105,1.45176 3.61113,3.38149c-0.16476,0.36972 -4.14168,0.73653 -6.44397,2.98806c-2.3023,2.25153 -4.82768,7.54049 -4.41016,7.62672c0.21027,0.04344 0.98979,0.60758 1.62788,0.48367c1.18044,-0.22922 2.03634,-0.79495 2.77524,-2.22851c0.65644,-1.27355 1.49371,-3.29135 1.97976,-3.50639c0.52613,-0.23278 0.35119,1.04362 0.08273,2.03785c-0.2341,0.86698 -0.59717,2.09343 -0.5102,2.08377c0.80235,-0.08895 1.32297,-2.07797 1.90419,-2.89364c0.77213,-1.08357 1.80553,-1.81386 2.21674,-1.88442c0.93339,-0.16015 0.74839,0.05049 1.19233,0.19078c0.7214,0.228 -0.35936,1.0736 -0.51055,1.50356c-0.00843,0.02396 -1.5556,1.21695 -2.17954,1.97179c-0.82993,1.00405 -1.90891,3.22797 -2.76545,4.25573c-0.96062,1.15266 -1.68425,1.06419 -2.30595,1.25228c-1.59278,0.48187 -2.50692,-0.07774 -4.18472,0.7057c-1.42955,0.66752 -2.06563,2.07003 -2.76369,3.34603c-0.71672,1.31011 -1.48335,2.48297 -2.04002,2.28721c-0.62141,-0.21852 -2.13484,-0.48025 -2.50704,-1.55957c-0.22156,-0.64246 0.90315,-3.74966 -0.47464,-6.34786c-1.13715,-2.14443 -6.07225,-1.34833 -5.94418,-2.05699c0.17141,-0.94847 2.3166,-5.12334 4.0661,-4.24663c0.15856,0.07945 1.33478,0.79012 2.18974,1.92825c1.16202,1.54688 2.06255,3.62142 2.09078,3.54113c0.14638,-0.41622 0.16415,-1.9632 -0.20934,-3.39407z" data-paper-data="{&quot;index&quot;:null}"/><path d="M126.34262,188.87103c-11.39796,-6.55282 -23.31666,-8.32047 -20.10399,-13.90858c1.14686,-1.99486 7.28701,1.74976 11.581,-0.69088c1.31896,-0.74967 -4.27719,-2.54358 -3.07148,-3.69c2.14091,-2.03564 0.58787,-4.68609 3.07195,-3.08712c0.81119,0.52215 4.3204,6.26362 3.61881,10.13814c-0.12158,0.67146 6.77261,-0.6379 7.51533,-3.36638c0.51052,-1.87545 -5.61736,-4.98878 -3.91584,-6.3079c4.04077,-3.13265 7.54481,3.91612 8.50533,4.48559c0.90739,0.53798 -0.16584,0.63916 -1.35464,3.4397c-2.31637,5.45682 -1.27018,9.20771 -0.82797,9.46194c0.72374,0.41608 4.7815,-11.90812 8.69714,-14.75014c1.22718,-0.89071 -1.54958,7.53967 -0.47964,8.68168c1.51522,1.6173 6.7044,-3.60651 7.00133,-3.45205c4.50543,2.34367 -8.79399,9.22969 -9.2393,13.54613c-0.11305,1.09579 5.43608,-1.11243 10.69169,-3.0082c1.04489,-0.37691 3.24997,-9.47013 4.22485,-9.79391c1.50058,-0.49839 1.21141,2.7901 1.95141,4.92121c0.63673,1.8337 2.37627,2.50715 2.71607,2.69625c1.58315,0.88104 -8.13176,5.46169 -10.74174,8.64861c-2.65886,3.24661 1.76726,5.09902 1.33139,5.85717c-3.21266,5.58811 -9.77374,-3.26844 -21.17171,-9.82125z" data-paper-data="{&quot;index&quot;:null}"/><path d="M180.18347,202.32234c-8.59352,-5.35357 -17.71812,-7.03862 -15.09341,-11.25178c0.93697,-1.50402 5.5605,1.54512 8.93168,-0.21627c1.0355,-0.54104 -3.22249,-2.07406 -2.26333,-2.92352c1.70312,-1.50833 0.58007,-3.59045 2.44829,-2.29221c0.61007,0.42394 3.15441,4.93823 2.50893,7.90099c-0.11186,0.51345 5.22965,-0.30647 5.87557,-2.38611c0.44398,-1.42946 -4.1873,-3.99242 -2.84186,-4.96129c3.19514,-2.30086 5.6999,3.21939 6.42361,3.68382c0.68369,0.43874 -0.14503,0.48739 -1.13623,2.61033c-1.93133,4.13654 -1.22835,7.05175 -0.89494,7.25946c0.54567,0.33994 4.00425,-9.03437 7.09518,-11.11497c0.96871,-0.65207 -1.39794,5.7604 -0.60561,6.66845c1.12208,1.28596 5.25802,-2.593 5.48233,-2.46604c3.40359,1.92643 -7.01935,6.86374 -7.47962,10.17359c-0.11685,0.84026 4.21396,-0.70807 8.31037,-2.02393c0.81443,-0.26161 2.75916,-7.19979 3.51826,-7.42243c1.16843,-0.34269 0.85632,2.18029 1.36778,3.84056c0.44009,1.42858 1.7605,1.99425 2.01687,2.14904c1.19442,0.72117 -6.40705,3.98188 -8.50252,6.36348c-2.13472,2.4262 1.2212,3.9724 0.86511,4.54401c-2.62471,4.21316 -7.43295,-2.78164 -16.02646,-8.1352z" data-paper-data="{&quot;index&quot;:null}"/><path d="" data-paper-data="{&quot;index&quot;:null}"/><path d="M332.29527,189.05978c0,1.26114 -4.93925,3.12806 -8.68307,6.46963c-2.29476,2.04819 -4.14039,5.95879 -4.1242,6.77512c0.12158,6.13035 3.15848,11.80911 -1.67252,11.80911c-2.50407,0 -2.83278,-8.72581 -4.64333,-10.57923c-2.4686,-2.52704 3.50019,-2.5589 3.50019,-6.09159c0,-7.83914 -6.33332,-15.52768 0.19052,-15.52768c3.54829,0 -0.48666,8.78652 5.17473,8.6779c4.74759,-0.09109 10.25768,-5.10873 10.25768,-1.53326z" data-paper-data="{&quot;index&quot;:null}"/><path d="M497.168,344.83296c-1.06652,0.67304 -5.28134,-2.50766 -10.10526,-3.89043c-2.9568,-0.84756 -7.24892,-0.32137 -7.93064,0.12798c-5.11946,3.37447 -8.30117,8.97339 -10.87938,4.88788c-1.33638,-2.11766 5.86749,-7.05245 6.46864,-9.57274c0.81963,-3.43629 4.032,1.59443 7.01955,-0.29091c6.62944,-4.1836 9.75154,-13.64283 13.2332,-8.12572c1.89366,3.00073 -7.69035,4.27765 -4.5771,9.00743c2.61073,3.96636 9.79471,5.94834 6.77099,7.8565z" data-paper-data="{&quot;index&quot;:null}"/><path d="M429.39513,299.44674c0,7.34288 -8.54729,13.29545 -19.09091,13.29545c-10.54362,0 -19.09091,-5.95258 -19.09091,-13.29545c0,-4.48268 0.91272,-14.3563 5.79317,-16.76469c3.114,-1.53669 9.19079,3.46924 13.29774,3.46924c1.59446,0 1.55235,4.68158 3.03284,4.93806c8.30952,1.43954 16.05807,2.12494 16.05807,8.35739z" data-paper-data="{&quot;index&quot;:null}"/><path d="M337.79151,213.48027c-0.01092,0.06782 1.9878,-0.96606 3.99473,-1.52075c1.4766,-0.40812 3.07509,-0.37982 3.28229,-0.36474c2.28624,0.16646 2.43136,3.99143 2.13162,4.72114c-0.22395,0.54521 -5.01783,-2.17912 -7.30114,-1.20134c-2.76647,1.18469 -3.15537,3.82346 -3.71399,4.16891c-0.93846,0.58035 -2.66471,0.09378 -3.42974,-0.0294c-0.68533,-0.11035 -0.89878,-1.25718 -0.99017,-2.47668c-0.08901,-1.18774 -0.0487,-2.43542 -1.21611,-3.52591c-1.37015,-1.27987 -2.61615,-1.29684 -4.04946,-2.33125c-0.55945,-0.40375 -1.36626,-0.6617 -1.79423,-1.88011c-0.38159,-1.08639 -0.39178,-3.09581 -0.75736,-4.15412c-0.27484,-0.79563 -1.30005,-2.30039 -1.29679,-2.32062c0.05848,-0.36318 -0.65146,-1.42278 0.22366,-1.26205c0.53853,0.09891 0.45037,-0.12791 1.35221,0.39397c0.3973,0.22991 1.11576,1.18909 1.3802,2.27678c0.19906,0.81875 -0.2598,2.42005 0.54007,2.83506c0.0867,0.04499 0.32536,-0.96092 0.51782,-1.66206c0.22071,-0.80406 0.68278,-1.76149 1.11897,-1.36903c0.40296,0.36255 0.26297,2.12327 0.30938,3.29098c0.05224,1.31441 0.6671,2.08185 1.79412,2.76026c0.60921,0.36672 1.71574,0.32121 1.95916,0.38395c0.48334,0.12455 0.50195,-4.63637 -0.78247,-7.20404c-1.28442,-2.56767 -5.28663,-4.57358 -5.27292,-4.90121c0.07155,-1.70997 3.61851,-0.57327 5.51493,-0.74053c1.29021,-0.11379 0.78062,5.62181 2.07393,5.69201c0.3767,0.02045 1.07152,-0.91658 1.67444,-1.38294c1.15775,-0.89552 0.93248,-2.83759 1.87792,-4.0388c0.9551,-1.21349 3.66249,-1.09824 3.62206,-0.66878c-0.12378,1.31465 -1.78723,3.71825 -1.96456,5.42989c-0.16456,1.5883 1.42015,1.64236 1.17862,2.62636c-0.30229,1.23156 -4.42367,-0.31304 -4.89768,0.30375c-0.85697,1.11513 0.66669,5.05473 1.01279,5.02989c1.45299,-0.1043 1.10199,-1.05355 2.13772,-1.88382c1.12148,-0.89901 3.99399,-1.77182 3.77972,-3.33451c-0.11516,-0.83982 -0.03732,-1.39835 0.06346,-2.11061c0.10394,-0.73453 0.23484,-1.61699 0.3743,-2.09677c0.21003,-0.72254 2.30936,-1.64919 2.3544,-1.63748c1.01513,0.26389 -1.21593,4.36679 -0.54186,4.38488c1.18818,0.03189 3.52693,-6.08281 5.26113,-6.50724c0.97287,-0.2381 -0.6156,3.55365 0.07766,4.45102c1.1316,1.46476 4.25124,0.5453 4.12374,1.37133c-0.08586,0.55621 -4.07547,0.28022 -6.70265,1.63347c-2.67972,1.38031 -3.43624,5.10971 -3.52496,5.16796c-0.36105,0.23706 -2.19793,0.43563 -3.55596,1.43459c-1.11781,0.82225 -1.8824,1.89703 -1.93901,2.24862z" data-paper-data="{&quot;index&quot;:null}"/><path d="M332.29527,189.05978c0,1.26114 -4.93925,3.12806 -8.68307,6.46963c-2.29476,2.04819 -4.14039,5.95879 -4.1242,6.77512c0.12158,6.13035 3.15848,11.80911 -1.67252,11.80911c-2.50407,0 -2.83278,-8.72581 -4.64333,-10.57923c-2.4686,-2.52704 3.50019,-2.5589 3.50019,-6.09159c0,-7.83914 -6.33332,-15.52768 0.19052,-15.52768c3.54829,0 -0.48666,8.78652 5.17473,8.6779c4.74759,-0.09109 10.25768,-5.10873 10.25768,-1.53326z" data-paper-data="{&quot;index&quot;:null}"/><path d="M-76.77351,414.41834c0,-12.70994 25.21314,-156.64583 22.50102,-212.17586c-0.84038,-17.20663 50.87153,-42.1961 60.65886,-42.1961c4.90247,0 0.26101,1.95071 28.24194,0.99803c12.16633,-0.41423 37.97094,10.95915 44.53005,10.78389c23.38764,-0.62492 72.37568,23.748 94.43843,26.03396c4.06594,0.42128 52.96765,21.09307 57.15582,21.4125c31.76592,2.42283 67.71806,-3.7993 98.1688,0.57162c0.69236,0.09938 21.17849,35.53233 49.9773,58.6093c26.46295,21.20522 61.43127,30.21235 62.07541,30.30223c8.79612,1.22745 3.55915,1.65263 10.19566,7.8966c1.28607,1.21 9.33755,11.83055 11.1152,12.66944c29.33541,13.8436 44.75892,52.92333 24.01709,57.47945c-33.99058,7.46632 -185.52379,15.2501 -234.87607,15.2501c-41.37342,0 -209.81668,-9.91458 -209.81668,-26.56285z" data-paper-data="{&quot;index&quot;:null}"/><path d="M-10.31658,171.20212c-0.01092,0.06782 1.9878,-0.96606 3.99473,-1.52075c1.4766,-0.40812 3.07509,-0.37982 3.28229,-0.36474c2.28624,0.16646 2.43136,3.99143 2.13162,4.72114c-0.22395,0.54521 -5.01783,-2.17912 -7.30114,-1.20134c-2.76647,1.18469 -3.15537,3.82346 -3.71399,4.16891c-0.93846,0.58035 -2.66471,0.09378 -3.42974,-0.0294c-0.68533,-0.11035 -0.89878,-1.25718 -0.99017,-2.47668c-0.08901,-1.18774 -0.0487,-2.43542 -1.21611,-3.52591c-1.37015,-1.27987 -2.61615,-1.29684 -4.04946,-2.33125c-0.55945,-0.40375 -1.36626,-0.6617 -1.79423,-1.88011c-0.38159,-1.08639 -0.39178,-3.09581 -0.75736,-4.15412c-0.27484,-0.79563 -1.30005,-2.30039 -1.29679,-2.32062c0.05848,-0.36318 -0.65146,-1.42278 0.22366,-1.26205c0.53853,0.09891 0.45037,-0.12791 1.35221,0.39397c0.3973,0.22991 1.11576,1.18909 1.3802,2.27678c0.19906,0.81875 -0.2598,2.42005 0.54007,2.83506c0.0867,0.04499 0.32536,-0.96092 0.51782,-1.66206c0.22071,-0.80406 0.68278,-1.76149 1.11897,-1.36903c0.40296,0.36255 0.26297,2.12327 0.30938,3.29098c0.05224,1.31441 0.6671,2.08185 1.79412,2.76026c0.60921,0.36672 1.71574,0.32121 1.95916,0.38395c0.48334,0.12455 0.50195,-4.63637 -0.78247,-7.20404c-1.28442,-2.56767 -5.28663,-4.57358 -5.27292,-4.90121c0.07155,-1.70997 3.61851,-0.57327 5.51493,-0.74053c1.29021,-0.11379 0.78062,5.62181 2.07393,5.69201c0.3767,0.02045 1.07152,-0.91658 1.67444,-1.38294c1.15775,-0.89552 0.93248,-2.83759 1.87792,-4.0388c0.9551,-1.21349 3.66249,-1.09824 3.62206,-0.66878c-0.12378,1.31465 -1.78723,3.71825 -1.96456,5.42989c-0.16456,1.5883 1.42015,1.64236 1.17862,2.62636c-0.30229,1.23156 -4.42367,-0.31304 -4.89768,0.30375c-0.85697,1.11513 0.66669,5.05473 1.01279,5.02989c1.45299,-0.1043 1.10199,-1.05355 2.13772,-1.88382c1.12148,-0.89901 3.99399,-1.77182 3.77972,-3.33451c-0.11516,-0.83982 -0.03732,-1.39835 0.06346,-2.11061c0.10394,-0.73453 0.23484,-1.61699 0.3743,-2.09677c0.21003,-0.72254 2.30936,-1.64919 2.3544,-1.63748c1.01513,0.26389 -1.21593,4.36679 -0.54186,4.38488c1.18818,0.03189 3.52693,-6.08281 5.26113,-6.50724c0.97287,-0.2381 -0.6156,3.55365 0.07766,4.45102c1.1316,1.46476 4.25124,0.5453 4.12374,1.37133c-0.08586,0.55621 -4.07547,0.28022 -6.70265,1.63347c-2.67972,1.38031 -3.43624,5.10971 -3.52496,5.16796c-0.36105,0.23706 -2.19793,0.43563 -3.55596,1.43459c-1.11781,0.82225 -1.8824,1.89703 -1.93901,2.24862z" data-paper-data="{&quot;index&quot;:null}"/><path d="M32.07215,143.01823c0,1.26114 -4.93925,3.12806 -8.68307,6.46963c-2.29476,2.04819 -4.14039,5.95879 -4.1242,6.77512c0.12158,6.13035 3.15848,11.80911 -1.67252,11.80911c-2.50407,0 -2.83278,-8.72581 -4.64333,-10.57923c-2.4686,-2.52704 3.50019,-2.5589 3.50019,-6.09159c0,-7.83914 -6.33332,-15.52768 0.19052,-15.52768c3.54829,0 -0.48666,8.78652 5.17473,8.6779c4.74759,-0.09109 10.25768,-5.10873 10.25768,-1.53326z" data-paper-data="{&quot;index&quot;:null}"/><path d="M46.88747,164.87451c-11.39796,-6.55282 -23.84992,2.34465 -20.63725,-3.24346c0.81113,-1.41088 -2.54561,-6.88541 0.99745,-9.89656c1.46651,-1.24634 9.85978,-0.74496 11.1168,-1.45944c1.31896,-0.74967 -4.27719,-2.54358 -3.07148,-3.69c2.14091,-2.03564 0.58787,-4.68609 3.07195,-3.08712c0.81119,0.52215 4.3204,6.26362 3.61881,10.13814c-0.12158,0.67146 6.77261,-0.6379 7.51533,-3.36638c0.51052,-1.87545 -5.61736,-4.98878 -3.91584,-6.3079c4.04077,-3.13265 7.54481,3.91612 8.50533,4.48559c0.90739,0.53798 -0.16584,0.63916 -1.35464,3.4397c-2.31637,5.45682 -1.27018,9.20771 -0.82797,9.46194c0.72374,0.41608 4.7815,-11.90812 8.69714,-14.75014c1.22718,-0.89071 -1.54958,7.53967 -0.47964,8.68168c1.51522,1.6173 6.7044,-3.60651 7.00133,-3.45205c4.50543,2.34367 -8.79399,9.22969 -9.2393,13.54613c-0.11305,1.09579 5.43608,-1.11243 10.69169,-3.0082c1.04489,-0.37691 3.24997,-9.47013 4.22485,-9.79391c1.50058,-0.49839 1.21141,2.7901 1.95141,4.92121c0.63673,1.8337 2.37627,2.50715 2.71607,2.69625c1.58315,0.88104 -8.13176,5.46169 -10.74174,8.64861c-2.65886,3.24661 1.76726,5.09902 1.33139,5.85717c-3.21266,5.58811 -9.77374,-3.26844 -21.17171,-9.82125z" data-paper-data="{&quot;index&quot;:null}"/><path d="M-26.27055,171.42058c0.60882,0.63092 5.31689,4.66614 3.72339,6.96176c-1.39846,2.01466 -8.89123,2.16728 -11.4097,4.59751c-5.38816,5.19938 -10.68281,8.45397 -11.82593,7.26934c-1.14312,-1.18463 2.29816,-6.35989 7.68631,-11.55927c1.77625,-1.71401 -1.67042,-8.34177 -0.05987,-9.54373c3.27496,-2.44411 11.11953,1.48028 11.88581,2.27438z" data-paper-data="{&quot;index&quot;:null}"/><path d="M-39.18061,165.47521c0.06821,0.0509 0.07937,-2.73709 0.62147,-5.25921c0.39885,-1.85565 1.34687,-3.59482 1.48228,-3.8137c1.49426,-2.41517 5.77793,-0.3804 6.40733,0.36734c0.47026,0.55868 -5.27141,4.26038 -5.50741,7.3287c-0.28595,3.7176 2.38876,5.65836 2.44768,6.46997c0.09899,1.36348 -1.42558,2.98008 -1.9997,3.74955c-0.5143,0.68931 -1.89615,0.26583 -3.28778,-0.33334c-1.35539,-0.58358 -2.70242,-1.34354 -4.56963,-0.68708c-2.19147,0.77047 -2.92484,2.12904 -4.88299,3.10968c-0.7643,0.38276 -1.51039,1.12081 -3.09388,0.89186c-1.41192,-0.20413 -3.62442,-1.34561 -4.99633,-1.55123c-1.03138,-0.15459 -3.27195,0.10809 -3.2923,0.0929c-0.36529,-0.27256 -1.93614,-0.10074 -1.25763,-0.96955c0.41753,-0.53465 0.11788,-0.56796 1.2083,-1.25895c0.48039,-0.30441 1.94585,-0.54319 3.29199,-0.20965c1.01331,0.25106 2.50857,1.67353 3.42316,1.03319c0.09913,-0.06941 -0.86861,-0.90851 -1.52817,-1.52206c-0.75638,-0.7036 -1.54273,-1.76025 -0.86154,-2.01413c0.62929,-0.23454 2.48254,0.92919 3.7915,1.54806c1.4734,0.69662 2.66889,0.46162 4.06038,-0.38687c0.75218,-0.45865 1.33695,-1.6999 1.54547,-1.93122c0.41404,-0.45934 -4.80355,-3.21079 -8.36003,-3.27319c-3.5565,-0.06239 -8.05511,3.18203 -8.40702,2.97904c-1.83678,-1.05947 1.44614,-4.30256 2.35031,-6.48107c0.61515,-1.48213 6.62145,2.36761 7.44041,0.9876c0.23854,-0.40194 -0.39189,-1.70247 -0.55818,-2.6321c-0.31931,-1.78509 -2.58123,-2.65175 -3.35803,-4.37904c-0.78474,-1.74494 0.89489,-4.65198 1.34331,-4.36124c1.3727,0.89005 3.05802,4.09556 4.83595,5.27215c1.64982,1.0918 2.61821,-0.61744 3.56026,0.21225c1.17905,1.03843 -2.88134,4.67833 -2.47588,5.55268c0.73301,1.58076 5.93334,2.16742 6.10458,1.77309c0.71894,-1.65544 -0.52483,-1.8145 -0.84248,-3.42818c-0.34395,-1.74726 0.34533,-5.40242 -1.49367,-6.06353c-0.98832,-0.35529 -1.55702,-0.76115 -2.28139,-1.2804c-0.747,-0.53549 -1.64101,-1.18544 -2.08787,-1.61381c-0.67299,-0.64512 -0.48635,-3.48207 -0.44766,-3.52482c0.8721,-0.9634 4.09795,3.84022 4.50448,3.11035c0.71659,-1.28652 -4.65675,-7.36242 -4.12804,-9.51032c0.2966,-1.20495 3.54934,2.7145 4.93248,2.46795c2.25766,-0.40244 3.03746,-4.35573 3.87144,-3.74189c0.56156,0.41334 -2.03008,4.63626 -2.05102,8.29759c-0.02137,3.73454 3.64015,6.70462 3.65323,6.83547c0.05321,0.53247 -0.78241,2.66357 -0.4644,4.72795c0.26175,1.69921 1.00345,3.15537 1.35708,3.41922z" data-paper-data="{&quot;index&quot;:null}"/></g></g></svg>