<svg version="1.1" xmlns="http://www.w3.org/2000/svg" xmlns:xlink="http://www.w3.org/1999/xlink" width="503" height="350.0953" viewBox="0,0,503,350.0953"><defs><linearGradient x1="247.75" y1="-0.78564" x2="247.75" y2="56.2144" gradientUnits="userSpaceOnUse" id="color-1"><stop offset="0" stop-color="#0a0d10"/><stop offset="1" stop-color="#0a0d10" stop-opacity="0"/></linearGradient></defs><g transform="translate(3.75,0.7856)"><g data-paper-data="{&quot;isPaintingLayer&quot;:true}" fill-rule="nonzero" stroke-linejoin="miter" stroke-miterlimit="10" stroke-dasharray="" stroke-dashoffset="0" style="mix-blend-mode: normal"><path d="M25.17857,336.45761c0,-10.82538 0,-26.43947 0,-38.55634c0,-6.65168 0,-9.67903 0,-12.85211c0,-8.08964 6.65171,-13.95373 14.30345,-13.95373c37.65105,0 323.32588,0 397.68882,0c11.23853,0 17.65059,9.26501 17.65059,16.52415c0,7.69349 0,25.50772 0,40.02514c0,11.94926 -6.41187,21.66499 -17.65059,21.66499c-74.45439,0 -360.74987,0 -398.03614,0c-7.86328,0 -13.95612,-5.24314 -13.95612,-12.85211z" fill="#0a0d10" stroke="none" stroke-width="0" stroke-linecap="butt"/><path d="M-3.75,56.2144v-57h503v57z" fill="url(#color-1)" stroke="none" stroke-width="0" stroke-linecap="butt"/><path d="M142.88218,24.30316c-0.40565,0 -0.74157,-0.12676 -1.00777,-0.38029c-0.25353,-0.2662 -0.38029,-0.59579 -0.38029,-0.98876c0,-0.39297 0.12676,-0.70988 0.38029,-0.95073c0.2662,-0.25353 0.60213,-0.38029 1.00777,-0.38029h3.93601c0.39297,0 0.72255,0.1331 0.98876,0.39931c0.2662,0.2662 0.39931,0.59579 0.39931,0.98876c0,0.38029 -0.1331,0.6972 -0.39931,0.95073c-0.2662,0.24085 -0.59579,0.36128 -0.98876,0.36128zM163.2305,17.59101l-4.88674,11.52282c-0.11409,0.29156 -0.27888,0.51973 -0.49438,0.68452c-0.2155,0.15212 -0.45635,0.22817 -0.72255,0.22817c-0.40565,0 -0.70988,-0.11409 -0.9127,-0.34226c-0.19015,-0.22817 -0.28522,-0.50705 -0.28522,-0.83664c0,-0.13944 0.02535,-0.28522 0.07606,-0.43733l5.64732,-13.57639c0.11409,-0.30423 0.29789,-0.53875 0.55142,-0.70354c0.25353,-0.16479 0.51973,-0.23451 0.79861,-0.20916c0.27888,0 0.53241,0.0824 0.76058,0.24719c0.24085,0.15212 0.41198,0.37395 0.51339,0.66551l5.59028,13.31019c0.07606,0.19015 0.11409,0.37395 0.11409,0.55142c0,0.40565 -0.1331,0.72889 -0.39931,0.96974c-0.2662,0.24085 -0.55776,0.36128 -0.87467,0.36128c-0.2662,0 -0.51339,-0.0824 -0.74157,-0.24719c-0.2155,-0.16479 -0.38663,-0.39297 -0.51339,-0.68452l-4.86772,-11.3707zM159.0473,26.35674l1.23595,-2.62401h6.1417l0.41832,2.62401zM182.92942,14.79589c0.39297,0.19015 0.62114,0.50072 0.68452,0.93171c0.06338,0.41832 -0.04437,0.80495 -0.32325,1.15989c-0.20282,0.2662 -0.46269,0.41832 -0.7796,0.45635c-0.30423,0.02535 -0.61481,-0.03803 -0.93171,-0.19015c-0.35494,-0.16479 -0.73523,-0.29156 -1.14087,-0.38029c-0.40565,-0.08873 -0.82397,-0.1331 -1.25496,-0.1331c-0.82397,0 -1.55919,0.12676 -2.20569,0.38029c-0.63382,0.25353 -1.1789,0.62114 -1.63525,1.10284c-0.45635,0.46902 -0.80495,1.03313 -1.0458,1.6923c-0.22817,0.64649 -0.34226,1.36271 -0.34226,2.14864c0,0.92537 0.1331,1.73032 0.39931,2.41485c0.2662,0.67185 0.63382,1.23595 1.10284,1.6923c0.46902,0.45635 1.02045,0.79861 1.65427,1.02679c0.63382,0.2155 1.32468,0.32325 2.07259,0.32325c0.40565,0 0.81129,-0.03803 1.21693,-0.11409c0.40565,-0.07606 0.79861,-0.2155 1.1789,-0.41832c0.31691,-0.15212 0.62748,-0.20282 0.93171,-0.15212c0.31691,0.03803 0.58311,0.19649 0.79861,0.47536c0.30423,0.38029 0.41198,0.77326 0.32325,1.1789c-0.07606,0.39297 -0.30423,0.67818 -0.68452,0.85565c-0.39297,0.20282 -0.79861,0.36762 -1.21693,0.49438c-0.41832,0.12676 -0.84298,0.22183 -1.27397,0.28522c-0.41832,0.07606 -0.84298,0.11409 -1.27397,0.11409c-1.09017,0 -2.12329,-0.17113 -3.09937,-0.51339c-0.97608,-0.35494 -1.85075,-0.86833 -2.62401,-1.54018c-0.76058,-0.68452 -1.36271,-1.54018 -1.80638,-2.56696c-0.43099,-1.02679 -0.64649,-2.21203 -0.64649,-3.55572c0,-1.16623 0.19649,-2.23738 0.58945,-3.21346c0.40565,-0.98876 0.97608,-1.83807 1.71131,-2.54795c0.73523,-0.72255 1.59722,-1.28665 2.58598,-1.6923c1.00143,-0.40565 2.09794,-0.60847 3.28952,-0.60847c0.65917,0 1.30566,0.07606 1.93948,0.22817c0.63382,0.15212 1.23595,0.37395 1.80638,0.66551zM187.48605,14.01629c0.36762,0 0.69086,0.1331 0.96974,0.39931c0.27888,0.2662 0.41832,0.59579 0.41832,0.98876v13.12004c0,0.39297 -0.14578,0.72255 -0.43733,0.98876c-0.29156,0.2662 -0.62114,0.39931 -0.98876,0.39931c-0.43099,0 -0.77326,-0.1331 -1.02679,-0.39931c-0.25353,-0.2662 -0.38029,-0.59579 -0.38029,-0.98876v-13.12004c0,-0.39297 0.1331,-0.72255 0.39931,-0.98876c0.27888,-0.2662 0.62748,-0.39931 1.0458,-0.39931zM197.54474,14.01629c0.41832,0 0.75424,0.1331 1.00777,0.39931c0.2662,0.2662 0.39931,0.59579 0.39931,0.98876v13.12004c0,0.39297 -0.1331,0.72255 -0.39931,0.98876c-0.2662,0.2662 -0.61481,0.39931 -1.0458,0.39931c-0.36762,0 -0.69086,-0.1331 -0.96974,-0.39931c-0.27888,-0.2662 -0.41832,-0.59579 -0.41832,-0.98876v-13.12004c0,-0.39297 0.13944,-0.72255 0.41832,-0.98876c0.29156,-0.2662 0.62748,-0.39931 1.00777,-0.39931zM187.40999,20.63334h10.13476v2.60499h-10.13476zM205.19784,28.52439c0,0.39297 -0.14578,0.72255 -0.43733,0.98876c-0.29156,0.2662 -0.62114,0.39931 -0.98876,0.39931c-0.43099,0 -0.77326,-0.1331 -1.02679,-0.39931c-0.25353,-0.2662 -0.38029,-0.59579 -0.38029,-0.98876v-13.12004c0,-0.39297 0.1331,-0.72255 0.39931,-0.98876c0.27888,-0.2662 0.62748,-0.39931 1.0458,-0.39931c0.36762,0 0.69086,0.1331 0.96974,0.39931c0.27888,0.2662 0.41832,0.59579 0.41832,0.98876zM209.97714,14.01629h7.60582c0.39297,0 0.72255,0.12676 0.98876,0.38029c0.2662,0.25353 0.39931,0.57678 0.39931,0.96974c0,0.36762 -0.1331,0.67185 -0.39931,0.9127c-0.2662,0.24085 -0.59579,0.36128 -0.98876,0.36128h-6.35086l0.20916,-0.39931v4.43039l-0.19015,-0.19015h5.32407c0.39297,0 0.71621,0.12676 0.96974,0.38029c0.2662,0.25353 0.39931,0.57678 0.39931,0.96974c0,0.38029 -0.1331,0.69086 -0.39931,0.93171c-0.25353,0.22817 -0.57678,0.34226 -0.96974,0.34226h-5.24802l0.11409,-0.19015v4.58251l-0.19015,-0.19015h6.33185c0.39297,0 0.72255,0.1331 0.98876,0.39931c0.2662,0.25353 0.39931,0.55776 0.39931,0.9127c0,0.38029 -0.1331,0.69086 -0.39931,0.93171c-0.2662,0.24085 -0.59579,0.36128 -0.98876,0.36128h-7.60582c-0.39297,0 -0.72255,-0.1331 -0.98876,-0.39931c-0.25353,-0.2662 -0.38029,-0.59579 -0.38029,-0.98876v-13.12004c0,-0.39297 0.12676,-0.72255 0.38029,-0.98876c0.2662,-0.2662 0.59579,-0.39931 0.98876,-0.39931zM233.19328,13.97826c0.38029,0 0.70988,0.12676 0.98876,0.38029c0.27888,0.24085 0.41832,0.55142 0.41832,0.93171c0,0.20282 -0.04437,0.40565 -0.1331,0.60847l-5.60929,13.12004c-0.13944,0.30423 -0.33592,0.53241 -0.58945,0.68452c-0.25353,0.13944 -0.50705,0.20916 -0.76058,0.20916c-0.24085,-0.01267 -0.47536,-0.08873 -0.70354,-0.22817c-0.22817,-0.15212 -0.39931,-0.36128 -0.51339,-0.62748l-5.60929,-13.17708c-0.0507,-0.08873 -0.0824,-0.18381 -0.09507,-0.28522c-0.01267,-0.10141 -0.01901,-0.19649 -0.01901,-0.28522c0,-0.43099 0.15846,-0.76058 0.47536,-0.98876c0.31691,-0.24085 0.62114,-0.36128 0.9127,-0.36128c0.57044,0 0.98242,0.29156 1.23595,0.87467l4.98181,11.69395l-0.79861,0.01901l4.56349,-11.71296c0.25353,-0.57044 0.67185,-0.85565 1.25496,-0.85565zM238.35636,14.01629h7.60582c0.39297,0 0.72255,0.12676 0.98876,0.38029c0.2662,0.25353 0.39931,0.57678 0.39931,0.96974c0,0.36762 -0.1331,0.67185 -0.39931,0.9127c-0.2662,0.24085 -0.59579,0.36128 -0.98876,0.36128h-6.35086l0.20916,-0.39931v4.43039l-0.19015,-0.19015h5.32407c0.39297,0 0.71621,0.12676 0.96974,0.38029c0.2662,0.25353 0.39931,0.57678 0.39931,0.96974c0,0.38029 -0.1331,0.69086 -0.39931,0.93171c-0.25353,0.22817 -0.57678,0.34226 -0.96974,0.34226h-5.24802l0.11409,-0.19015v4.58251l-0.19015,-0.19015h6.33185c0.39297,0 0.72255,0.1331 0.98876,0.39931c0.2662,0.25353 0.39931,0.55776 0.39931,0.9127c0,0.38029 -0.1331,0.69086 -0.39931,0.93171c-0.2662,0.24085 -0.59579,0.36128 -0.98876,0.36128h-7.60582c-0.39297,0 -0.72255,-0.1331 -0.98876,-0.39931c-0.25353,-0.2662 -0.38029,-0.59579 -0.38029,-0.98876v-13.12004c0,-0.39297 0.12676,-0.72255 0.38029,-0.98876c0.2662,-0.2662 0.59579,-0.39931 0.98876,-0.39931zM251.39971,13.99728c0.20282,0 0.42466,0.05704 0.66551,0.17113c0.24085,0.11409 0.41832,0.25986 0.53241,0.43733l5.51422,8.4995l-1.14087,-0.05704l5.66634,-8.44246c0.27888,-0.40565 0.64649,-0.60847 1.10284,-0.60847c0.36762,0 0.69086,0.1331 0.96974,0.39931c0.29156,0.25353 0.43733,0.58311 0.43733,0.98876v13.13905c0,0.39297 -0.12676,0.72255 -0.38029,0.98876c-0.25353,0.2662 -0.59579,0.39931 -1.02679,0.39931c-0.41832,0 -0.76058,-0.1331 -1.02679,-0.39931c-0.2662,-0.2662 -0.39931,-0.59579 -0.39931,-0.98876v-10.68618l0.89368,0.20916l-4.63955,7.0544c-0.13944,0.16479 -0.31057,0.31057 -0.51339,0.43733c-0.20282,0.11409 -0.41198,0.16479 -0.62748,0.15212c-0.19015,0.01267 -0.38663,-0.03803 -0.58945,-0.15212c-0.20282,-0.12676 -0.37395,-0.27254 -0.51339,-0.43733l-4.33532,-6.86425l0.58945,-1.19792v11.48479c0,0.39297 -0.12043,0.72255 -0.36128,0.98876c-0.24085,0.2662 -0.55776,0.39931 -0.95073,0.39931c-0.38029,0 -0.69086,-0.1331 -0.93171,-0.39931c-0.24085,-0.2662 -0.36128,-0.59579 -0.36128,-0.98876v-13.13905c0,-0.38029 0.13944,-0.70354 0.41832,-0.96974c0.27888,-0.27888 0.61481,-0.41832 1.00777,-0.41832zM269.93674,14.01629h7.60582c0.39297,0 0.72255,0.12676 0.98876,0.38029c0.2662,0.25353 0.39931,0.57678 0.39931,0.96974c0,0.36762 -0.1331,0.67185 -0.39931,0.9127c-0.2662,0.24085 -0.59579,0.36128 -0.98876,0.36128h-6.35086l0.20916,-0.39931v4.43039l-0.19015,-0.19015h5.32407c0.39297,0 0.71621,0.12676 0.96974,0.38029c0.2662,0.25353 0.39931,0.57678 0.39931,0.96974c0,0.38029 -0.1331,0.69086 -0.39931,0.93171c-0.25353,0.22817 -0.57678,0.34226 -0.96974,0.34226h-5.24802l0.11409,-0.19015v4.58251l-0.19015,-0.19015h6.33185c0.39297,0 0.72255,0.1331 0.98876,0.39931c0.2662,0.25353 0.39931,0.55776 0.39931,0.9127c0,0.38029 -0.1331,0.69086 -0.39931,0.93171c-0.2662,0.24085 -0.59579,0.36128 -0.98876,0.36128h-7.60582c-0.39297,0 -0.72255,-0.1331 -0.98876,-0.39931c-0.25353,-0.2662 -0.38029,-0.59579 -0.38029,-0.98876v-13.12004c0,-0.39297 0.12676,-0.72255 0.38029,-0.98876c0.2662,-0.2662 0.59579,-0.39931 0.98876,-0.39931zM293.60922,14.01629c0.35494,0 0.64649,0.12043 0.87467,0.36128c0.22817,0.24085 0.34226,0.54508 0.34226,0.9127v13.23413c0,0.39297 -0.1331,0.72255 -0.39931,0.98876c-0.2662,0.2662 -0.59579,0.39931 -0.98876,0.39931c-0.19015,0 -0.39297,-0.03169 -0.60847,-0.09507c-0.20282,-0.07606 -0.35494,-0.17113 -0.45635,-0.28522l-8.91782,-11.33267l0.58945,-0.36128v10.80026c0,0.36762 -0.12043,0.67185 -0.36128,0.9127c-0.22817,0.24085 -0.53241,0.36128 -0.9127,0.36128c-0.36762,0 -0.66551,-0.12043 -0.89368,-0.36128c-0.2155,-0.24085 -0.32325,-0.54508 -0.32325,-0.9127v-13.23413c0,-0.39297 0.12676,-0.72255 0.38029,-0.98876c0.2662,-0.2662 0.59579,-0.39931 0.98876,-0.39931c0.2155,0 0.43733,0.04437 0.66551,0.1331c0.22817,0.07606 0.39297,0.19649 0.49438,0.36128l8.65162,11.04745l-0.38029,0.2662v-10.53406c0,-0.36762 0.11409,-0.67185 0.34226,-0.9127c0.22817,-0.24085 0.53241,-0.36128 0.9127,-0.36128zM303.62209,29.91245c-0.43099,0 -0.78594,-0.1331 -1.06481,-0.39931c-0.2662,-0.2662 -0.39931,-0.59579 -0.39931,-0.98876v-13.15807h2.94726v13.15807c0,0.39297 -0.13944,0.72255 -0.41832,0.98876c-0.27888,0.2662 -0.63382,0.39931 -1.06481,0.39931zM298.60225,16.64028c-0.39297,0 -0.72255,-0.12043 -0.98876,-0.36128c-0.2662,-0.25353 -0.39931,-0.57678 -0.39931,-0.96974c0,-0.39297 0.1331,-0.70354 0.39931,-0.93171c0.2662,-0.24085 0.59579,-0.36128 0.98876,-0.36128h10.07771c0.39297,0 0.72255,0.12043 0.98876,0.36128c0.2662,0.24085 0.39931,0.55776 0.39931,0.95073c0,0.39297 -0.1331,0.70988 -0.39931,0.95073c-0.2662,0.24085 -0.59579,0.36128 -0.98876,0.36128zM317.54921,30.14063c-1.05214,0 -2.00287,-0.1331 -2.85218,-0.39931c-0.84931,-0.2662 -1.66061,-0.72889 -2.43386,-1.38806c-0.20282,-0.17747 -0.35494,-0.36762 -0.45635,-0.57044c-0.10141,-0.2155 -0.15212,-0.43099 -0.15212,-0.64649c0,-0.34226 0.12043,-0.64649 0.36128,-0.9127c0.25353,-0.2662 0.57044,-0.39931 0.95073,-0.39931c0.29156,0 0.55142,0.08873 0.7796,0.2662c0.57044,0.46902 1.14087,0.8303 1.71131,1.08383c0.57044,0.24085 1.26763,0.36128 2.0916,0.36128c0.55776,0 1.07116,-0.08873 1.54018,-0.2662c0.46902,-0.17747 0.84931,-0.41198 1.14087,-0.70354c0.29156,-0.29156 0.43733,-0.62748 0.43733,-1.00777c0,-0.45635 -0.13944,-0.84298 -0.41832,-1.15989c-0.2662,-0.31691 -0.68452,-0.58311 -1.25496,-0.79861c-0.55776,-0.22817 -1.26763,-0.39931 -2.12963,-0.51339c-0.81129,-0.12676 -1.5275,-0.31057 -2.14864,-0.55142c-0.62114,-0.25353 -1.14087,-0.57044 -1.55919,-0.95073c-0.41832,-0.39297 -0.73523,-0.84931 -0.95073,-1.36905c-0.20282,-0.53241 -0.30423,-1.12186 -0.30423,-1.76835c0,-0.98876 0.25353,-1.8254 0.76058,-2.50992c0.50705,-0.6972 1.19158,-1.22961 2.05357,-1.59722c0.86199,-0.36762 1.81272,-0.55142 2.85218,-0.55142c0.98876,0 1.90146,0.15212 2.7381,0.45635c0.84931,0.29156 1.53384,0.66551 2.05357,1.12186c0.44367,0.34226 0.66551,0.74157 0.66551,1.19792c0,0.32959 -0.1331,0.63382 -0.39931,0.9127c-0.25353,0.2662 -0.55142,0.39931 -0.89368,0.39931c-0.22817,0 -0.43099,-0.06972 -0.60847,-0.20916c-0.24085,-0.20282 -0.57044,-0.39931 -0.98876,-0.58945c-0.40565,-0.19015 -0.83664,-0.3486 -1.29299,-0.47536c-0.45635,-0.12676 -0.88101,-0.19015 -1.27397,-0.19015c-0.64649,0 -1.19158,0.0824 -1.63525,0.24719c-0.44367,0.16479 -0.7796,0.39297 -1.00777,0.68452c-0.22817,0.27888 -0.34226,0.60847 -0.34226,0.98876c0,0.45635 0.1331,0.8303 0.39931,1.12186c0.2662,0.29156 0.64649,0.52607 1.14087,0.70354c0.49438,0.17747 1.09017,0.33592 1.78737,0.47536c0.9127,0.16479 1.71131,0.36128 2.39583,0.58945c0.6972,0.22817 1.26763,0.51973 1.71131,0.87467c0.45635,0.35494 0.79861,0.79861 1.02679,1.33102c0.22817,0.53241 0.34226,1.18524 0.34226,1.9585c0,0.98876 -0.27254,1.83807 -0.81763,2.54795c-0.54508,0.70988 -1.2613,1.25496 -2.14864,1.63525c-0.88734,0.38029 -1.84441,0.57044 -2.8712,0.57044zM333.18181,24.30316c-0.40565,0 -0.74157,-0.12676 -1.00777,-0.38029c-0.25353,-0.2662 -0.38029,-0.59579 -0.38029,-0.98876c0,-0.39297 0.12676,-0.70988 0.38029,-0.95073c0.2662,-0.25353 0.60213,-0.38029 1.00777,-0.38029h3.93601c0.39297,0 0.72255,0.1331 0.98876,0.39931c0.2662,0.2662 0.39931,0.59579 0.39931,0.98876c0,0.38029 -0.1331,0.6972 -0.39931,0.95073c-0.2662,0.24085 -0.59579,0.36128 -0.98876,0.36128z" fill="#e4e4e4" stroke="none" stroke-width="1" stroke-linecap="square"/><path d="M396.75,39.21435h-313.5" fill="none" stroke="#e4e4e4" stroke-width="3" stroke-linecap="round"/><path d="M181.93284,317.26219c-0.38282,0 -0.69809,-0.11822 -0.94581,-0.35467c-0.23645,-0.23645 -0.35467,-0.52919 -0.35467,-0.87823v-11.68727h2.61783v11.68727c0,0.34905 -0.12385,0.64179 -0.37156,0.87823c-0.24771,0.23645 -0.56297,0.35468 -0.94579,0.35468zM177.47409,305.47359c-0.34905,0 -0.64179,-0.10697 -0.87823,-0.32089c-0.23645,-0.22518 -0.35467,-0.51231 -0.35467,-0.86134c0,-0.34905 0.11823,-0.62489 0.35468,-0.82756c0.23645,-0.21393 0.52919,-0.32089 0.87823,-0.32089h8.95124c0.34905,0 0.64179,0.10697 0.87823,0.3209c0.23645,0.21393 0.35468,0.49541 0.35468,0.84446c0,0.34905 -0.11822,0.63052 -0.35467,0.84446c-0.23645,0.21393 -0.52919,0.3209 -0.87823,0.3209zM191.22935,317.26219c-0.38282,0 -0.72061,-0.11822 -1.01335,-0.35467c-0.29274,-0.23645 -0.43912,-0.52919 -0.43912,-0.87823v-11.65349c0,-0.34905 0.1126,-0.64179 0.33778,-0.87823c0.23645,-0.23645 0.52919,-0.35467 0.87823,-0.35467h5.80986c0.69808,0 1.35113,0.18579 1.95914,0.55735c0.61927,0.37156 1.11468,0.88387 1.48624,1.53692c0.38282,0.65305 0.57423,1.4018 0.57423,2.24626c0,0.50667 -0.10697,1.00208 -0.32089,1.48624c-0.20267,0.48416 -0.48416,0.92328 -0.84446,1.31735c-0.34905,0.39408 -0.74875,0.69808 -1.19912,0.91201l0.01689,-0.4729c0.38282,0.20267 0.69808,0.44475 0.94579,0.72624c0.24771,0.27023 0.43912,0.56297 0.57423,0.87823c0.14638,0.31527 0.23082,0.65305 0.25334,1.01335c0.05629,0.33778 0.0957,0.63615 0.11823,0.89513c0.02252,0.25896 0.06192,0.47853 0.11823,0.65868c0.06756,0.16889 0.18579,0.29837 0.35468,0.38846c0.29274,0.18015 0.4729,0.43349 0.54045,0.76002c0.07882,0.32652 0.00563,0.61927 -0.21955,0.87823c-0.14638,0.16889 -0.33778,0.28149 -0.57423,0.33778c-0.22518,0.04504 -0.45038,0.04504 -0.67556,0c-0.22518,-0.05629 -0.41097,-0.12385 -0.55734,-0.20267c-0.23645,-0.13511 -0.46726,-0.33215 -0.69245,-0.59111c-0.22518,-0.25896 -0.41097,-0.60801 -0.55734,-1.04713c-0.13511,-0.45038 -0.20267,-1.02461 -0.20267,-1.72269c0,-0.23645 -0.04504,-0.45038 -0.13511,-0.64179c-0.07882,-0.19141 -0.19141,-0.35467 -0.33778,-0.48978c-0.14638,-0.14638 -0.33215,-0.25333 -0.55734,-0.32089c-0.22518,-0.07882 -0.49541,-0.11822 -0.81068,-0.11822h-4.07027l0.304,-0.4729v4.37429c0,0.34905 -0.0957,0.64179 -0.28711,0.87823c-0.19141,0.23645 -0.45038,0.35468 -0.7769,0.35468zM192.00625,310.05052h4.69517c0.24771,0 0.48416,-0.1126 0.70934,-0.33778c0.22518,-0.22518 0.41097,-0.52919 0.55735,-0.91201c0.15763,-0.38282 0.23645,-0.80505 0.23645,-1.26668c0,-0.58549 -0.15763,-1.07527 -0.4729,-1.46935c-0.31527,-0.39408 -0.65867,-0.59111 -1.03023,-0.59111h-4.6614l0.25334,-0.65867v5.70852zM208.79874,306.31803l-4.3405,10.23481c-0.10133,0.25896 -0.24771,0.46163 -0.43912,0.60801c-0.19141,0.13511 -0.40534,0.20267 -0.64179,0.20267c-0.3603,0 -0.63052,-0.10133 -0.81068,-0.304c-0.16889,-0.20267 -0.25333,-0.45038 -0.25333,-0.74312c0,-0.12385 0.02252,-0.25333 0.06756,-0.38844l5.01607,-12.05883c0.10133,-0.27023 0.26459,-0.47853 0.48979,-0.62489c0.22518,-0.14638 0.46163,-0.2083 0.70934,-0.18577c0.24771,0 0.4729,0.07319 0.67556,0.21956c0.21393,0.13511 0.36593,0.33215 0.45601,0.59112l4.9654,11.82238c0.06756,0.16889 0.10133,0.33215 0.10133,0.48979c0,0.3603 -0.11822,0.64742 -0.35467,0.86135c-0.23645,0.21393 -0.49541,0.3209 -0.7769,0.3209c-0.23645,0 -0.456,-0.07319 -0.65867,-0.21955c-0.19141,-0.14638 -0.34341,-0.34905 -0.456,-0.60801l-4.32361,-10.09969zM205.08314,314.10392l1.0978,-2.3307h5.45519l0.37156,2.3307zM224.96258,303.1091c0.33778,0 0.63052,0.1126 0.87823,0.33778c0.24771,0.21393 0.37156,0.48979 0.37156,0.82757c0,0.18015 -0.03941,0.3603 -0.11822,0.54045l-4.98228,11.65349c-0.12385,0.27023 -0.29837,0.4729 -0.52356,0.60801c-0.22518,0.12385 -0.45038,0.18579 -0.67556,0.18579c-0.21393,-0.01126 -0.42222,-0.07882 -0.62489,-0.20267c-0.20267,-0.13511 -0.35467,-0.32089 -0.456,-0.55734l-4.98228,-11.70415c-0.04504,-0.07882 -0.07319,-0.16326 -0.08444,-0.25333c-0.01126,-0.09007 -0.01688,-0.17452 -0.01688,-0.25333c0,-0.38282 0.14074,-0.67556 0.42223,-0.87823c0.28149,-0.21393 0.55171,-0.32089 0.81068,-0.32089c0.50667,0 0.8726,0.25896 1.0978,0.7769l4.42495,10.38681l-0.70934,0.01689l4.05339,-10.4037c0.22518,-0.50667 0.59675,-0.76 1.11468,-0.76zM229.54851,303.14287h6.75565c0.34905,0 0.64179,0.1126 0.87823,0.33778c0.23645,0.22518 0.35468,0.51231 0.35468,0.86135c0,0.32652 -0.11822,0.59675 -0.35467,0.81068c-0.23645,0.21393 -0.52919,0.3209 -0.87823,0.3209h-5.64097l0.18579,-0.35467v3.93517l-0.16889,-0.16889h4.72895c0.34905,0 0.63615,0.1126 0.86135,0.33778c0.23645,0.22518 0.35468,0.51231 0.35468,0.86135c0,0.33778 -0.11822,0.61364 -0.35467,0.82757c-0.22518,0.20267 -0.51231,0.304 -0.86134,0.304h-4.6614l0.10133,-0.16889v4.07028l-0.16889,-0.16889h5.62408c0.34905,0 0.64179,0.11823 0.87823,0.35468c0.23645,0.22518 0.35468,0.49541 0.35468,0.81068c0,0.33778 -0.11822,0.61364 -0.35467,0.82757c-0.23645,0.21393 -0.52919,0.3209 -0.87823,0.3209h-6.75565c-0.34905,0 -0.64179,-0.11822 -0.87823,-0.35467c-0.22518,-0.23645 -0.33778,-0.52919 -0.33778,-0.87823v-11.65349c0,-0.34905 0.1126,-0.64179 0.33778,-0.87823c0.23645,-0.23645 0.52919,-0.35467 0.87823,-0.35467zM247.63622,314.8977c0.34905,0 0.64179,0.1126 0.87823,0.33778c0.23645,0.22518 0.35468,0.51231 0.35468,0.86135c0,0.33778 -0.11822,0.61927 -0.35467,0.84446c-0.23645,0.21393 -0.52919,0.3209 -0.87823,0.3209h-6.55298c-0.34905,0 -0.64179,-0.11822 -0.87823,-0.35467c-0.22518,-0.23645 -0.33778,-0.52919 -0.33778,-0.87823v-11.65349c0,-0.34905 0.11823,-0.64179 0.35468,-0.87823c0.24771,-0.23645 0.55735,-0.35467 0.92891,-0.35467c0.32652,0 0.61364,0.11823 0.86135,0.35468c0.24771,0.23645 0.37156,0.52919 0.37156,0.87823v10.87659l-0.43912,-0.35467zM260.12316,317.26219c-0.37156,0 -0.6812,-0.11822 -0.9289,-0.35467c-0.23645,-0.23645 -0.35467,-0.52919 -0.35467,-0.87823v-10.16725l0.27023,0.45601l-1.46935,1.0809c-0.18015,0.14638 -0.41097,0.21956 -0.69245,0.21956c-0.32652,0 -0.61364,-0.11822 -0.86134,-0.35467c-0.23645,-0.24771 -0.35467,-0.54045 -0.35467,-0.87823c0,-0.42785 0.2083,-0.7769 0.6249,-1.04713l2.90493,-1.92536c0.13511,-0.10133 0.28712,-0.16889 0.45601,-0.20267c0.16889,-0.04504 0.32652,-0.06756 0.4729,-0.06756c0.38282,0 0.68683,0.11823 0.91201,0.35468c0.23645,0.23645 0.35468,0.52919 0.35468,0.87823v11.65349c0,0.34905 -0.12385,0.64179 -0.37156,0.87823c-0.24771,0.23645 -0.5686,0.35468 -0.96267,0.35468zM269.36939,317.46484c-1.15972,0 -2.13929,-0.304 -2.93871,-0.91201c-0.79941,-0.61927 -1.40742,-1.47498 -1.82402,-2.56715c-0.4166,-1.09217 -0.62489,-2.35321 -0.62489,-3.78316c0,-1.4412 0.2083,-2.70226 0.6249,-3.78316c0.4166,-1.09217 1.02461,-1.94224 1.82402,-2.55025c0.79941,-0.61927 1.77898,-0.9289 2.93871,-0.9289c1.14846,0 2.1224,0.30964 2.92182,0.92891c0.79941,0.60801 1.40742,1.4581 1.82402,2.55026c0.4166,1.0809 0.6249,2.34196 0.6249,3.78316c0,1.42995 -0.2083,2.691 -0.62489,3.78316c-0.4166,1.09217 -1.02461,1.94787 -1.82402,2.56715c-0.79941,0.60801 -1.77335,0.91201 -2.92181,0.91201zM269.36939,315.04971c0.56297,0 1.04713,-0.18015 1.45246,-0.54045c0.4166,-0.3603 0.73749,-0.89512 0.96269,-1.60446c0.22518,-0.72061 0.33778,-1.62136 0.33778,-2.70226c0,-1.09217 -0.1126,-1.99292 -0.33778,-2.70226c-0.22518,-0.70934 -0.54608,-1.23853 -0.96267,-1.58758c-0.40534,-0.3603 -0.8895,-0.54045 -1.45246,-0.54045c-0.55171,0 -1.03586,0.18015 -1.45246,0.54045c-0.4166,0.34905 -0.74312,0.87823 -0.97957,1.58758c-0.22518,0.70934 -0.33778,1.61009 -0.33778,2.70226c0,1.0809 0.1126,1.98165 0.33778,2.70226c0.23645,0.70934 0.56297,1.24416 0.97957,1.60447c0.4166,0.3603 0.90075,0.54045 1.45246,0.54045zM286.78402,317.26219c-0.37156,0 -0.67556,-0.152 -0.91201,-0.456l-4.6445,-6.13074l1.82402,-1.87469l4.83029,6.3672c0.18015,0.25896 0.27023,0.53482 0.27023,0.82757c0,0.37156 -0.14074,0.67556 -0.42222,0.91201c-0.28149,0.23645 -0.59675,0.35468 -0.94579,0.35468zM287.02047,303.04152c0.32652,0 0.59112,0.13511 0.79379,0.40534c0.21393,0.25896 0.3209,0.52357 0.3209,0.79379c0,0.28149 -0.11822,0.54045 -0.35467,0.7769l-8.46144,8.08989l-0.10133,-2.88803l6.8232,-6.70497c0.304,-0.31527 0.63052,-0.4729 0.97957,-0.4729zM278.32257,317.26219c-0.38282,0 -0.68683,-0.11822 -0.91201,-0.35467c-0.22518,-0.23645 -0.33778,-0.52919 -0.33778,-0.87823v-11.65349c0,-0.34905 0.11823,-0.64179 0.35468,-0.87823c0.24771,-0.23645 0.55735,-0.35467 0.92891,-0.35467c0.37156,0 0.66993,0.11823 0.89513,0.35468c0.22518,0.23645 0.33778,0.52919 0.33778,0.87823v11.65349c0,0.34905 -0.11822,0.64179 -0.35467,0.87823c-0.22518,0.23645 -0.52919,0.35468 -0.91201,0.35468zM291.54794,303.12599c0.18015,0 0.37719,0.05067 0.59112,0.15201c0.21393,0.10133 0.37156,0.23082 0.4729,0.38846l4.89784,7.54944l-1.01335,-0.05066l5.03296,-7.49877c0.24771,-0.3603 0.57423,-0.54045 0.97957,-0.54045c0.32652,0 0.61364,0.11823 0.86135,0.35468c0.25896,0.22518 0.38846,0.51794 0.38846,0.87823v11.67039c0,0.34905 -0.1126,0.64179 -0.33778,0.87823c-0.22518,0.23645 -0.52919,0.35468 -0.91201,0.35468c-0.37156,0 -0.67556,-0.11822 -0.91201,-0.35467c-0.23645,-0.23645 -0.35467,-0.52919 -0.35467,-0.87823v-9.49168l0.79379,0.18579l-4.12094,6.26587c-0.12385,0.14638 -0.27586,0.27586 -0.456,0.38846c-0.18015,0.10133 -0.36593,0.14638 -0.55734,0.13511c-0.16889,0.01126 -0.34341,-0.03378 -0.52356,-0.13511c-0.18015,-0.1126 -0.33215,-0.24208 -0.456,-0.38844l-3.85072,-6.09697l0.52357,-1.06401v10.20103c0,0.34905 -0.10697,0.64179 -0.32089,0.87823c-0.21393,0.23645 -0.49541,0.35468 -0.84446,0.35468c-0.33778,0 -0.61364,-0.11822 -0.82756,-0.35467c-0.21393,-0.23645 -0.32089,-0.52919 -0.32089,-0.87823v-11.67038c0,-0.33778 0.12385,-0.62489 0.37156,-0.86134c0.24771,-0.24771 0.54608,-0.37156 0.89513,-0.37156z" fill="#e4e4e4" stroke="none" stroke-width="1" stroke-linecap="square"/></g></g></svg>