<svg version="1.1" xmlns="http://www.w3.org/2000/svg" xmlns:xlink="http://www.w3.org/1999/xlink" width="760.14549" height="668.83748" viewBox="0,0,760.14549,668.83748"><defs><radialGradient cx="491.40059" cy="343.8716" r="82.72207" gradientUnits="userSpaceOnUse" id="color-1"><stop offset="0" stop-color="#66ff98" stop-opacity="0.3958"/><stop offset="1" stop-color="#66ff98" stop-opacity="0"/></radialGradient><radialGradient cx="402.4709" cy="363.12963" r="82.72208" gradientUnits="userSpaceOnUse" id="color-2"><stop offset="0" stop-color="#66ff98" stop-opacity="0.3958"/><stop offset="1" stop-color="#66ff98" stop-opacity="0"/></radialGradient><radialGradient cx="390.63518" cy="344.19732" r="82.72207" gradientUnits="userSpaceOnUse" id="color-3"><stop offset="0" stop-color="#66ff98" stop-opacity="0.3958"/><stop offset="1" stop-color="#66ff98" stop-opacity="0"/></radialGradient><radialGradient cx="341.27327" cy="390.38466" r="82.72208" gradientUnits="userSpaceOnUse" id="color-4"><stop offset="0" stop-color="#66ff98" stop-opacity="0.3958"/><stop offset="1" stop-color="#66ff98" stop-opacity="0"/></radialGradient><radialGradient cx="438.34768" cy="427.98959" r="82.72208" gradientUnits="userSpaceOnUse" id="color-5"><stop offset="0" stop-color="#66ff98" stop-opacity="0.3958"/><stop offset="1" stop-color="#66ff98" stop-opacity="0"/></radialGradient><radialGradient cx="289.08399" cy="433.31746" r="82.72208" gradientUnits="userSpaceOnUse" id="color-6"><stop offset="0" stop-color="#66ff98" stop-opacity="0.3958"/><stop offset="1" stop-color="#66ff98" stop-opacity="0"/></radialGradient><radialGradient cx="299.99351" cy="367.37263" r="82.72207" gradientUnits="userSpaceOnUse" id="color-7"><stop offset="0" stop-color="#66ff98" stop-opacity="0.3958"/><stop offset="1" stop-color="#66ff98" stop-opacity="0"/></radialGradient><radialGradient cx="528.02357" cy="361.73169" r="82.72208" gradientUnits="userSpaceOnUse" id="color-8"><stop offset="0" stop-color="#66ff98" stop-opacity="0.3958"/><stop offset="1" stop-color="#66ff98" stop-opacity="0"/></radialGradient><radialGradient cx="566.52814" cy="362.13595" r="82.72207" gradientUnits="userSpaceOnUse" id="color-9"><stop offset="0" stop-color="#66ff98" stop-opacity="0.3958"/><stop offset="1" stop-color="#66ff98" stop-opacity="0"/></radialGradient><radialGradient cx="520.63472" cy="403.14295" r="82.72207" gradientUnits="userSpaceOnUse" id="color-10"><stop offset="0" stop-color="#66ff98" stop-opacity="0.3958"/><stop offset="1" stop-color="#66ff98" stop-opacity="0"/></radialGradient><radialGradient cx="460.18826" cy="364.09687" r="82.72208" gradientUnits="userSpaceOnUse" id="color-11"><stop offset="0" stop-color="#66ff98" stop-opacity="0.3958"/><stop offset="1" stop-color="#66ff98" stop-opacity="0"/></radialGradient><radialGradient cx="476.17152" cy="352.82402" r="82.72207" gradientUnits="userSpaceOnUse" id="color-12"><stop offset="0" stop-color="#66ff98" stop-opacity="0.3958"/><stop offset="1" stop-color="#66ff98" stop-opacity="0"/></radialGradient><radialGradient cx="453.45779" cy="375.83668" r="82.72208" gradientUnits="userSpaceOnUse" id="color-13"><stop offset="0" stop-color="#66ff98" stop-opacity="0.3958"/><stop offset="1" stop-color="#66ff98" stop-opacity="0"/></radialGradient><radialGradient cx="356.46884" cy="359.57944" r="82.72208" gradientUnits="userSpaceOnUse" id="color-14"><stop offset="0" stop-color="#66ff98" stop-opacity="0.3958"/><stop offset="1" stop-color="#66ff98" stop-opacity="0"/></radialGradient><radialGradient cx="368.28002" cy="457.11464" r="82.72208" gradientUnits="userSpaceOnUse" id="color-15"><stop offset="0" stop-color="#66ff98" stop-opacity="0.20636"/><stop offset="1" stop-color="#66ff98" stop-opacity="0"/></radialGradient><radialGradient cx="363.72697" cy="435.25631" r="82.72207" gradientUnits="userSpaceOnUse" id="color-16"><stop offset="0" stop-color="#66ff98" stop-opacity="0.20636"/><stop offset="1" stop-color="#66ff98" stop-opacity="0"/></radialGradient><radialGradient cx="299.33679" cy="467.18889" r="82.72208" gradientUnits="userSpaceOnUse" id="color-17"><stop offset="0" stop-color="#66ff98" stop-opacity="0.20636"/><stop offset="1" stop-color="#66ff98" stop-opacity="0"/></radialGradient><radialGradient cx="235.51519" cy="489.40936" r="82.72208" gradientUnits="userSpaceOnUse" id="color-18"><stop offset="0" stop-color="#66ff98" stop-opacity="0.20636"/><stop offset="1" stop-color="#66ff98" stop-opacity="0"/></radialGradient><radialGradient cx="270.66563" cy="425.6337" r="82.72207" gradientUnits="userSpaceOnUse" id="color-19"><stop offset="0" stop-color="#66ff98" stop-opacity="0.20636"/><stop offset="1" stop-color="#66ff98" stop-opacity="0"/></radialGradient><radialGradient cx="331.57952" cy="424.59469" r="82.72208" gradientUnits="userSpaceOnUse" id="color-20"><stop offset="0" stop-color="#66ff98" stop-opacity="0.20636"/><stop offset="1" stop-color="#66ff98" stop-opacity="0"/></radialGradient></defs><g transform="translate(110.89528,86.93791)"><g data-paper-data="{&quot;isPaintingLayer&quot;:true}" fill-rule="nonzero" stroke="none" stroke-width="0" stroke-linecap="butt" stroke-linejoin="miter" stroke-miterlimit="10" stroke-dasharray="" stroke-dashoffset="0" style="mix-blend-mode: normal"><path d="M574.12266,343.8716c0,24.12728 -37.03593,43.6863 -82.72207,43.6863c-45.68614,0 -89.4601,2.12901 -89.4601,-21.99827c0,-13.21134 -16.68983,-54.95299 0.85892,-62.96376c14.49975,-6.61894 66.66796,-11.46481 87.3378,-11.46481c45.68614,0 83.98545,28.61325 83.98545,52.74053z" fill="url(#color-1)"/><path d="M-110.89528,435.59936v-522.53727h694.92685v522.53727z" fill="none"/><path d="M399.87104,280.44842c24.11536,-0.75829 44.82872,35.64463 46.26459,81.3082c1.43587,45.66357 4.93959,89.34899 -19.17577,90.10729c-13.20482,0.41522 -54.40129,18.4087 -62.95965,1.12039c-7.07138,-14.28456 -70.24019,-77.7185 -70.88982,-98.37813c-0.89632,-28.50486 6.47381,-59.2886 36.83626,-71.6203c18.27691,-7.42316 60.86271,-2.2525 69.92439,-2.53744z" fill="url(#color-2)"/><path d="M473.35726,344.19732c0,24.12728 -27.07705,91.87444 -72.76319,91.87444c-45.68614,0 -99.41898,-46.05913 -99.41898,-70.18641c0,-13.21134 -16.68984,-54.95299 0.85892,-62.96376c14.49975,-6.61894 60.56413,-48.08779 81.23397,-48.08779c45.68614,0 90.08929,65.23623 90.08929,89.36351z" fill="url(#color-3)"/><path d="M423.99534,390.38466c0,24.12728 -27.07705,91.87444 -72.76319,91.87444c-45.68614,0 -99.41899,-46.05913 -99.41899,-70.18641c0,-13.21134 -16.68983,-54.95299 0.85892,-62.96375c14.49975,-6.61894 60.56413,-48.0878 81.23397,-48.0878c45.68614,0 90.08929,65.23624 90.08929,89.36352z" fill="url(#color-4)"/><path d="M521.06975,427.98959c0,24.12728 -27.07705,91.87444 -72.76319,91.87444c-45.68614,0 -99.41899,-46.05912 -99.41899,-70.1864c0,-13.21134 -16.68984,-54.95299 0.85892,-62.96375c14.49975,-6.61894 60.56413,-48.08779 81.23397,-48.08779c45.68614,0 90.08929,65.23624 90.08929,89.36352z" fill="url(#color-5)"/><path d="M371.80606,433.31746c0,24.12728 -27.07705,91.87444 -72.76319,91.87444c-45.68614,0 -99.41899,-46.05912 -99.41899,-70.1864c0,-13.21134 -16.68984,-54.95299 0.85892,-62.96375c14.49975,-6.61894 60.56413,-48.0878 81.23397,-48.0878c45.68614,0 90.08929,65.23624 90.08929,89.36352z" fill="url(#color-6)"/><path d="M382.71559,367.37263c0,24.12728 -27.07705,91.87444 -72.76319,91.87444c-45.68614,0 -99.41898,-46.05912 -99.41898,-70.1864c0,-13.21134 -16.68984,-54.95299 0.85892,-62.96375c14.49975,-6.61894 60.56413,-48.0878 81.23397,-48.0878c45.68614,0 90.08928,65.23624 90.08928,89.36352z" fill="url(#color-7)"/><path d="M610.74564,361.73169c0,14.50808 -27.07705,55.24544 -72.76319,55.24544c-45.68614,0 -99.41899,-27.69602 -99.41899,-42.20411c0,-7.94417 -16.68983,-33.04403 0.85892,-37.86102c14.49974,-3.98006 60.56413,-28.91589 81.23397,-28.91589c45.68614,0 90.08929,39.2275 90.08929,53.73558z" fill="url(#color-8)"/><path d="M649.25021,362.13595c0,14.50808 -27.07705,55.24544 -72.76319,55.24544c-45.68614,0 -99.41899,-27.69602 -99.41899,-42.2041c0,-7.94417 -16.68984,-33.04404 0.85892,-37.86103c14.49975,-3.98006 60.56413,-28.91589 81.23397,-28.91589c45.68614,0 90.08929,39.2275 90.08929,53.73558z" fill="url(#color-9)"/><path d="M603.3568,403.14295c0,14.50808 -27.07705,55.24544 -72.76319,55.24544c-45.68614,0 -99.41898,-27.69602 -99.41898,-42.20411c0,-7.94417 -16.68984,-33.04404 0.85892,-37.86102c14.49975,-3.98006 60.56413,-28.91589 81.23397,-28.91589c45.68614,0 90.08928,39.22749 90.08928,53.73558z" fill="url(#color-10)"/><path d="M511.83102,299.47515c18.84801,15.06248 11.00608,56.20516 -17.51542,91.89475c-28.5215,35.68959 -54.18609,71.21453 -73.0341,56.15206c-10.32058,-8.24774 -53.3481,-21.26878 -48.65049,-39.97877c3.88143,-15.45922 -3.06247,-104.71137 9.84155,-120.85846c17.80416,-22.27874 43.37855,-40.93104 74.48751,-30.62659c18.72628,6.20284 47.78855,37.75709 54.87095,43.41702z" fill="url(#color-11)"/><path d="M539.13825,406.47226c-15.64741,18.3653 -80.19449,52.37292 -114.97005,22.74382c-34.77556,-29.6291 -45.80514,-99.53625 -30.15773,-117.90156c8.56803,-10.05626 22.93495,-52.6533 41.48806,-47.36997c15.3296,4.36538 77.28711,2.67435 93.02066,16.07949c34.77556,29.6291 26.26649,108.08292 10.61909,126.44822z" fill="url(#color-12)"/><path d="M516.42452,429.48492c-15.64741,18.3653 -80.19449,52.37292 -114.97005,22.74382c-34.77556,-29.6291 -45.80515,-99.53626 -30.15774,-117.90156c8.56803,-10.05626 22.93496,-52.65329 41.48805,-47.36996c15.3296,4.36538 77.28712,2.67435 93.02067,16.07948c34.77556,29.6291 26.26649,108.08293 10.61908,126.44823z" fill="url(#color-13)"/><path d="M419.43556,413.22767c-15.64741,18.3653 -80.19449,52.37292 -114.97005,22.74382c-34.77556,-29.6291 -45.80516,-99.53625 -30.15775,-117.90155c8.56803,-10.05626 22.93495,-52.6533 41.48805,-47.36996c15.3296,4.36538 77.28712,2.67435 93.02067,16.07948c34.77556,29.6291 26.26649,108.08293 10.61908,126.44823z" fill="url(#color-14)"/><path d="M394.45221,378.64198c22.88786,7.63356 29.72446,48.95519 15.26996,92.29444c-14.4545,43.33925 -26.28437,85.53814 -49.17224,77.90459c-12.53268,-4.1799 -57.4105,-1.55393 -59.45757,-20.73571c-1.69139,-15.84905 -39.0065,-97.22316 -32.46683,-116.8312c9.02302,-27.05394 26.59037,-53.38539 59.34429,-54.44844c19.71647,-0.63991 57.88195,18.94791 66.48238,21.81632z" fill="url(#color-15)"/><path d="M441.3383,463.88188c-8.34913,22.63665 -57.19687,76.82836 -100.06043,61.0189c-42.86355,-15.80946 -77.33813,-77.61695 -68.989,-100.2536c4.57172,-12.39512 3.35751,-57.33332 22.59415,-58.7765c15.89438,-1.19244 73.46289,-24.1589 92.85571,-17.00621c42.86355,15.80946 61.9487,92.38075 53.59958,115.0174z" fill="url(#color-16)"/><path d="M376.94812,495.81445c-8.34913,22.63665 -57.19687,76.82836 -100.06043,61.0189c-42.86355,-15.80946 -77.33814,-77.61695 -68.98901,-100.2536c4.57172,-12.39512 3.35752,-57.33331 22.59415,-58.77649c15.89438,-1.19244 73.4629,-24.15891 92.85571,-17.00622c42.86355,15.80946 61.9487,92.38076 53.59957,115.01741z" fill="url(#color-17)"/><path d="M313.12652,518.03493c-8.34913,22.63665 -57.19687,76.82836 -100.06043,61.0189c-42.86355,-15.80946 -77.33814,-77.61694 -68.98901,-100.25359c4.57172,-12.39512 3.35751,-57.33332 22.59415,-58.77649c15.89438,-1.19244 73.4629,-24.15891 92.85571,-17.00622c42.86355,15.80946 61.9487,92.38076 53.59957,115.01741z" fill="url(#color-18)"/><path d="M348.27696,454.25927c-8.34913,22.63665 -57.19687,76.82836 -100.06043,61.0189c-42.86355,-15.80946 -77.33813,-77.61694 -68.989,-100.25359c4.57172,-12.39512 3.35751,-57.33332 22.59415,-58.77649c15.89438,-1.19244 73.4629,-24.15891 92.85571,-17.00622c42.86355,15.80946 61.94869,92.38076 53.59957,115.01741z" fill="url(#color-19)"/><path d="M372.09131,496.71775c-21.0359,11.81594 -93.3633,21.3863 -115.73735,-18.44617c-22.37405,-39.83247 -8.53118,-109.23734 12.50472,-121.05329c11.5186,-6.47004 39.73839,-41.46374 55.31697,-30.08661c12.87189,9.40041 71.58671,29.25395 81.70943,47.2754c22.37405,39.83247 -12.75788,110.49472 -33.79378,122.31067z" fill="url(#color-20)"/></g></g></svg>