<svg version="1.1" xmlns="http://www.w3.org/2000/svg" xmlns:xlink="http://www.w3.org/1999/xlink" width="695.53558" height="529.55283" viewBox="0,0,695.53558,529.55283"><g transform="translate(110.89528,86.93791)"><g data-paper-data="{&quot;isPaintingLayer&quot;:true}" fill-rule="nonzero" stroke="none" stroke-width="0" stroke-linecap="butt" stroke-linejoin="miter" stroke-miterlimit="10" stroke-dasharray="" stroke-dashoffset="0" style="mix-blend-mode: normal"><path d="M416.98425,261.78714c-17.49538,-2.71032 -36.13602,-21.91994 -47.3246,-12.74357c-19.76289,16.20864 -6.71577,-2.46352 -3.92504,-26.68741c4.40161,-38.20653 10.94412,-86.11834 15.23471,-126.20256c5.2383,-48.93815 2.79894,-93.3252 5.48379,-93.22907c6.55911,0.23484 34.15323,-37.67202 46.31956,-37.11697c27.98093,1.27654 58.53319,-44.88208 63.43566,-44.88208c9.78733,0 23.323,84.51008 22.48262,107.56603c-2.71212,74.40724 11.90411,225.11802 11.90411,242.14865z" data-paper-data="{&quot;index&quot;:null}" fill="#344e5f"/><path d="M373.33908,233.05334c0.35649,0.25999 1.96669,0.53882 3.66745,0.28733c2.06627,-0.30552 3.85576,-1.73296 4.38021,-1.83929c0.12888,-0.02613 4.04742,2.59554 7.60925,1.47277c3.49201,-1.10075 6.76177,-4.82343 7.32245,-4.4089c0.83266,0.61564 -2.7143,2.52762 -2.4324,4.80347c0.1727,1.39429 4.87765,3.34516 3.81394,3.98422c-1.89613,1.13918 -9.28739,-2.20127 -10.30507,-1.13686c-0.57735,0.60385 4.96443,2.26804 4.30138,3.38566c-0.02942,0.04958 -2.68487,1.0653 -3.4999,0.61273c-0.54118,-0.30051 -1.42607,-0.96283 -2.15819,-1.51848c-0.70993,-0.53882 -1.26557,-0.96238 -1.89676,-1.80179c-1.17448,-1.56191 -4.46332,0.17558 -6.23425,0.3627c-1.63554,0.17282 -2.15465,-0.96858 -3.52411,0.20698c-0.32621,0.28001 1.76933,5.07546 3.49602,5.3092c0.95507,0.1293 3.23425,-4.82459 4.57444,-4.00459c1.07079,0.65517 -0.27644,2.08494 1.2537,3.33897c1.64896,1.35141 5.20912,2.01544 6.4647,3.06425c0.41015,0.34262 -1.87157,2.8055 -3.7704,2.5708c-1.87962,-0.23233 -3.37533,-2.13765 -5.17513,-1.91581c-0.93729,0.11552 -2.36596,-0.10293 -2.67958,0.24362c-1.07678,1.18982 4.37435,5.79214 3.13984,6.81737c-1.81455,1.50693 -3.94409,5.60086 -5.49853,4.15865c-0.29782,-0.27631 1.47415,-5.53215 0.36474,-8.91177c-1.10942,-3.3796 -5.27838,-7.55253 -5.59504,-7.02136c-0.15946,0.26751 -1.17279,1.19261 -1.38898,2.04666c-0.39994,1.57994 -0.27159,2.79152 0.82891,3.99365c0.97767,1.06796 2.63659,2.49513 2.59825,3.16561c-0.0415,0.72578 -1.28318,0.28636 -2.1787,-0.22863c-0.78091,-0.44906 -1.86828,-1.126 -1.90533,-1.0108c-0.34185,1.06285 1.45861,2.07161 1.99759,2.96566c0.71603,1.18771 0.92046,2.65835 0.77142,3.20719c-0.33834,1.24579 -0.45861,0.96933 -0.84619,1.52607c-0.62981,0.90473 -0.92933,-0.64684 -1.29757,-0.9154c-0.02052,-0.01496 -0.43091,-2.23324 -0.88305,-3.17303c-0.60141,-1.2501 -2.34511,-3.02706 -2.95691,-4.31582c-0.68616,-1.44535 -0.20123,-2.37606 -0.06113,-3.21928c0.35893,-2.16037 1.44049,-3.26208 1.52976,-5.58333c0.07604,-1.97779 -1.04766,-3.04047 -2.00532,-4.16321c-0.98325,-1.15277 -1.79576,-2.34803 -1.28897,-3.04289c0.56573,-0.77567 1.66027,-2.70948 2.99222,-3.01738c0.79283,-0.18327 3.43663,1.79939 6.90418,0.42883c2.86194,-1.13119 4.70389,-7.70969 5.37649,-7.42529c0.90021,0.38064 4.10876,3.87281 2.24228,6.0134c-0.16916,0.194 -1.55099,1.61313 -3.20623,2.54196c-2.24973,1.26242 -4.9102,2.09603 -4.84143,2.14618z" data-paper-data="{&quot;index&quot;:null}" fill="#344e5f"/><path d="M-102.94497,442.61492v-528.64939h687.58527v528.64939z" fill="none"/><path d="M-110.89528,435.59936v-522.53727h694.92685v522.53727z" fill="none"/><path d="M515.76943,315.82573c0,25.49161 -22.33131,14.91069 -45.6459,15.54233c-9.78381,0.26507 -4.33267,20.36334 -13.90969,20.36334c-7.24331,0 -23.29358,15.80577 -38.30701,20.32141c-12.49585,3.75842 -24.4381,-3.26821 -28.46124,-6.2865c-1.94165,-1.45669 24.18392,-9.91053 22.68375,-12.67808c-0.48858,-0.90134 -10.04648,-5.81287 -15.35558,-7.11757c-6.93335,-1.70386 -5.06843,-7.0648 -6.50157,-12.6473c-2.52273,-9.82678 -5.14299,-22.58936 -11.57795,-33.38476c-2.99401,-5.02281 13.90591,-11.26398 6.99639,-13.32129c-6.65516,-1.98158 -10.38535,-10.52866 -10.47382,-13.58462c-0.21218,-7.32869 -3.50995,-12.58585 -3.50995,-18.30022c0,-5.91037 3.10281,-8.28144 3.64669,-13.79291c0.9552,-9.67974 0.20908,-22.34347 5.21362,-32.90838c1.57756,-3.33034 9.84507,-9.85735 11.37493,-13.14027c2.90319,-6.22997 7.47319,-11.34136 8.70497,-17.62752c1.0197,-5.20387 -1.29989,-11.71875 0.67665,-15.80612c0.73839,-1.52696 1.84131,-5.23566 3.67653,-6.19917c1.71591,-0.90087 4.16543,0.93518 4.95002,-0.20409c1.82804,-2.65438 17.81305,-10.47109 37.12525,-11.90955c3.91675,-0.29174 32.86241,-19.04891 36.99926,-19.9393c15.18276,-3.26785 27.12601,3.55263 28.93124,3.94581c29.22501,6.36527 2.76339,158.86312 2.76339,188.67474z" fill="#344e5f"/><path d="M382.4766,187.15012c0.0179,0.06717 0.89453,-1.92204 1.9512,-3.48165c0.77745,-1.14749 1.79066,-1.96399 1.92617,-2.0595c1.49514,-1.05372 2.98233,2.33352 3.06062,3.15222c0.0585,0.6117 -3.94357,0.67024 -5.01922,2.75859c-1.30325,2.53025 -0.58408,5.12467 -0.80847,5.73179c-0.37696,1.01994 -1.6376,1.48877 -2.16254,1.78027c-0.47025,0.26113 -1.02277,-0.66494 -1.52524,-1.72111c-0.48938,-1.02866 -0.9195,-2.17973 -2.04997,-2.5522c-1.32679,-0.43715 -2.11473,0.20392 -3.39154,0.02232c-0.49837,-0.07088 -1.09871,0.12058 -1.81195,-0.75728c-0.63595,-0.78274 -1.37579,-2.59701 -1.99145,-3.36276c-0.46284,-0.57569 -1.65531,-1.39821 -1.66065,-1.41824c-0.09587,-0.35969 -0.92804,-0.94519 -0.32033,-1.26068c0.37397,-0.19415 0.23588,-0.35309 0.99218,-0.35562c0.33319,-0.00112 1.13405,0.48896 1.69697,1.3346c0.42374,0.63655 0.72034,2.32834 1.37365,2.28276c0.07081,-0.00494 -0.14661,-1.04157 -0.28178,-1.77788c-0.15502,-0.84439 -0.21458,-1.95482 0.20234,-1.82923c0.38515,0.11601 0.93999,1.78419 1.39533,2.81715c0.51254,1.16274 1.17843,1.53377 2.13314,1.55435c0.51607,0.01113 1.1937,-0.61302 1.36932,-0.68445c0.34871,-0.14185 -1.37738,-4.4629 -3.12044,-6.11138c-1.74306,-1.64848 -4.98621,-1.35645 -5.09719,-1.66035c-0.57926,-1.58616 2.061,-2.42546 3.18976,-3.57601c0.76794,-0.78276 2.54176,4.67957 3.3788,4.06179c0.24381,-0.17994 0.33771,-1.39452 0.54575,-2.13447c0.3995,-1.42088 -0.4507,-3.06084 -0.29599,-4.64668c0.1563,-1.60205 1.89697,-2.92402 2.02836,-2.51382c0.4022,1.25569 0.23588,4.30862 0.74939,5.95202c0.4765,1.52498 1.49047,0.73906 1.6981,1.75736c0.25987,1.2745 -2.88966,2.04705 -2.96192,2.8553c-0.13063,1.46128 2.26329,4.22607 2.47136,4.02124c0.87353,-0.85993 0.30684,-1.5346 0.65359,-2.8321c0.37547,-1.40492 1.85909,-3.70862 1.15427,-5.01083c-0.37879,-0.69983 -0.53382,-1.24661 -0.73058,-1.94469c-0.2029,-0.71991 -0.44288,-1.58799 -0.53051,-2.09592c-0.13196,-0.76494 0.84692,-2.71006 0.87945,-2.72318c0.73321,-0.29583 0.83104,4.59492 1.26055,4.25619c0.7571,-0.59709 -0.00748,-7.36637 0.92563,-8.66434c0.52347,-0.72815 0.91089,3.54232 1.67337,3.9897c1.24461,0.73025 2.86625,-1.74588 3.08777,-0.9307c0.14915,0.54891 -2.45466,2.40083 -3.60899,5.01034c-1.17743,2.66169 -0.2908,6.43741 -0.32521,6.53689c-0.13999,0.40488 -1.21997,1.55242 -1.70737,3.17248c-0.40118,1.33348 -0.48858,2.70955 -0.39577,3.05776z" data-paper-data="{&quot;index&quot;:null}" fill="#344e5f"/><path d="M423.31907,147.4931c0.01791,0.06717 0.89453,-1.92204 1.9512,-3.48166c0.77745,-1.14749 1.79066,-1.96399 1.92617,-2.0595c1.49514,-1.05372 2.98233,2.33351 3.06062,3.15222c0.0585,0.61169 -3.94357,0.67024 -5.01922,2.75859c-1.30325,2.53025 -0.58408,5.12467 -0.80847,5.73179c-0.37696,1.01994 -1.6376,1.48877 -2.16254,1.78027c-0.47026,0.26112 -1.02277,-0.66494 -1.52524,-1.7211c-0.48938,-1.02867 -0.9195,-2.17974 -2.04997,-2.5522c-1.32679,-0.43715 -2.11473,0.20392 -3.39154,0.02232c-0.49836,-0.07088 -1.09871,0.12059 -1.81195,-0.75728c-0.63595,-0.78274 -1.37579,-2.59701 -1.99145,-3.36277c-0.46284,-0.57569 -1.65531,-1.3982 -1.66065,-1.41824c-0.09587,-0.35969 -0.92805,-0.94519 -0.32033,-1.26068c0.37398,-0.19414 0.23587,-0.35309 0.99218,-0.35562c0.33319,-0.00112 1.13405,0.48896 1.69697,1.3346c0.42374,0.63655 0.72034,2.32834 1.37365,2.28276c0.07082,-0.00493 -0.14661,-1.04157 -0.28178,-1.77788c-0.15502,-0.8444 -0.21458,-1.95482 0.20234,-1.82923c0.38515,0.11602 0.93999,1.78419 1.39533,2.81715c0.51255,1.16274 1.17843,1.53377 2.13314,1.55435c0.51607,0.01114 1.1937,-0.61302 1.36932,-0.68445c0.34871,-0.14186 -1.37739,-4.46291 -3.12045,-6.11139c-1.74306,-1.64848 -4.98621,-1.35644 -5.09719,-1.66035c-0.57926,-1.58616 2.061,-2.42547 3.18976,-3.57602c0.76794,-0.78276 2.54176,4.67957 3.37881,4.06179c0.24381,-0.17994 0.33771,-1.39452 0.54575,-2.13447c0.3995,-1.42088 -0.4507,-3.06084 -0.29599,-4.64667c0.1563,-1.60205 1.89697,-2.92402 2.02836,-2.51382c0.4022,1.25569 0.23588,4.30861 0.74939,5.95201c0.4765,1.52497 1.49047,0.73906 1.6981,1.75737c0.25987,1.2745 -2.88966,2.04704 -2.96192,2.8553c-0.13063,1.46128 2.2633,4.22607 2.47137,4.02124c0.87354,-0.85993 0.30683,-1.5346 0.65359,-2.83211c0.37547,-1.40492 1.85909,-3.70862 1.15427,-5.01083c-0.37879,-0.69983 -0.53382,-1.2466 -0.73058,-1.94468c-0.2029,-0.71992 -0.44288,-1.58799 -0.5305,-2.09592c-0.13196,-0.76495 0.84692,-2.71006 0.87945,-2.72319c0.73321,-0.29583 0.83104,4.59492 1.26055,4.25619c0.7571,-0.59709 -0.00748,-7.36637 0.92563,-8.66434c0.52347,-0.72814 0.91088,3.54232 1.67338,3.9897c1.24461,0.73025 2.86625,-1.74588 3.08777,-0.9307c0.14915,0.5489 -2.45466,2.40083 -3.609,5.01034c-1.17743,2.66169 -0.29081,6.43741 -0.32521,6.5369c-0.13999,0.40488 -1.21997,1.55241 -1.70737,3.17247c-0.40119,1.33348 -0.48858,2.70956 -0.39577,3.05776z" data-paper-data="{&quot;index&quot;:null}" fill="#344e5f"/><path d="M391.08131,173.86305c-0.03507,-0.09092 -1.01063,3.01362 -2.30433,5.55581c-0.95184,1.87042 -2.28774,3.33599 -2.46831,3.51239c-1.99253,1.94625 -4.59766,-2.46793 -4.82479,-3.61715c-0.1697,-0.85864 5.55182,-2.11391 6.79839,-5.41863c1.51035,-4.00403 0.11618,-7.50794 0.35212,-8.44283c0.39638,-1.57058 2.13536,-2.61081 2.84596,-3.18179c0.63657,-0.5115 1.55773,0.65262 2.4255,2.01765c0.84518,1.32949 1.62271,2.85157 3.29353,3.05393c1.96098,0.2375 2.99899,-0.91095 4.85253,-1.02469c0.72347,-0.0444 1.55608,-0.49424 2.70056,0.55382c1.02047,0.9345 2.33462,3.31542 3.32364,4.23154c0.74354,0.68873 2.56636,1.51728 2.57681,1.54441c0.1878,0.4869 1.46148,1.08158 0.63575,1.71115c-0.50814,0.38742 -0.28808,0.57457 -1.37052,0.79956c-0.47687,0.09912 -1.69232,-0.3681 -2.61707,-1.41403c-0.69611,-0.78731 -1.35845,-3.12263 -2.2874,-2.86614c-0.1007,0.02779 0.35626,1.4483 0.65324,2.4629c0.34058,1.16354 0.58188,2.73591 -0.03266,2.67813c-0.56772,-0.05336 -1.59648,-2.27927 -2.39353,-3.62488c-0.89718,-1.51466 -1.90266,-1.85096 -3.27241,-1.60097c-0.74042,0.13512 -1.62287,1.22707 -1.86427,1.38074c-0.47931,0.30516 2.59907,5.98635 5.32622,7.83627c2.72716,1.84991 7.32933,0.4825 7.53092,0.88512c1.05219,2.10134 -2.60993,4.0758 -4.06431,6.05344c-0.98948,1.34547 -4.29655,-5.95573 -5.40813,-4.82624c-0.32378,0.32898 -0.28756,2.09538 -0.48145,3.21565c-0.37232,2.1512 1.07534,4.25027 1.07665,6.56599c0.00133,2.3394 -2.30503,4.74157 -2.55078,4.19275c-0.75226,-1.68004 -0.94311,-6.09958 -1.9092,-8.30213c-0.89647,-2.04383 -2.23775,-0.62184 -2.67809,-2.01896c-0.55113,-1.74862 3.8495,-3.77658 3.83938,-4.95491c-0.0183,-2.13035 -3.83414,-5.38796 -4.10326,-5.0338c-1.12981,1.48685 -0.22367,2.28689 -0.53782,4.24603c-0.34016,2.12133 -2.14057,5.85379 -0.94851,7.51185c0.64065,0.89107 0.93944,1.6285 1.3192,2.57035c0.39164,0.97131 0.85719,2.14389 1.05401,2.84545c0.29641,1.05654 -0.83174,4.12789 -0.87648,4.1562c-1.00817,0.63816 -1.83542,-6.33528 -2.40276,-5.7246c-1.00005,1.07646 1.04574,10.54422 -0.10782,12.67565c-0.64714,1.19571 -1.80183,-4.8049 -2.95635,-5.22223c-1.88451,-0.68119 -3.8583,3.33855 -4.28998,2.2363c-0.29067,-0.74221 3.17699,-4.15576 4.463,-8.22967c1.31173,-4.15537 -0.48815,-9.30153 -0.45288,-9.45404c0.14354,-0.62065 1.5285,-2.57968 1.99868,-5.04178c0.38701,-2.02657 0.31879,-4.02227 0.13699,-4.49363z" data-paper-data="{&quot;index&quot;:null}" fill="#344e5f"/><path d="M442.94665,123.42564c0.60744,-0.00575 4.88156,-0.63212 5.27188,2.10498c0.34256,2.4021 -3.16106,7.93314 -3.14517,11.43288c0.034,7.48755 -0.86303,13.56615 -2.00357,13.57694c-1.14054,0.01079 -2.09271,-6.05032 -2.12671,-13.53787c-0.0112,-2.46833 -4.9833,-4.54335 -4.81678,-6.53854c0.33861,-4.05711 6.0558,-7.03117 6.82035,-7.03841z" data-paper-data="{&quot;index&quot;:null}" fill="#344e5f"/></g></g></svg>