<svg version="1.1" xmlns="http://www.w3.org/2000/svg" xmlns:xlink="http://www.w3.org/1999/xlink" width="28.53449" height="18.27245" viewBox="0,0,28.53449,18.27245"><g transform="translate(-225.73276,-170.86377)"><g data-paper-data="{&quot;isPaintingLayer&quot;:true}" fill="#0e0e0f" fill-rule="nonzero" stroke="none" stroke-width="0" stroke-linecap="butt" stroke-linejoin="miter" stroke-miterlimit="10" stroke-dasharray="" stroke-dashoffset="0" style="mix-blend-mode: normal"><path d="M225.73553,172.87303c0.06346,-0.57726 1.58905,-1.16636 1.58905,-1.16636c0,-0.67523 3.24757,-1.3445 4.26632,-0.30315c0.91295,0.9332 -0.42086,3.81415 1.04747,3.50302c1.82026,-0.38571 4.28337,-1.05154 6.63119,-1.05154c4.61896,0 8.54436,3.74132 9.78439,5.03843c0.46609,0.48755 3.8626,4.08718 3.8626,4.64188c0,0.22582 1.03642,3.77085 1.34218,4.14115c0.27805,0.33674 -6.33361,1.32023 -7.90757,0.62917c-3.08583,-1.35487 -4.74939,-0.09002 -7.0538,-1.72045c-2.38768,-1.68935 -5.72189,-4.43906 -9.58753,-7.10939c-0.72792,-0.50283 -1.94855,-4.79718 -2.58797,-5.25167c0,0 -1.46106,-0.67127 -1.38633,-1.35109z" data-paper-data="{&quot;index&quot;:null}"/><path d="M238.63826,179.22487c1.11804,4.35904 2.82485,4.26416 2.28101,4.5636c-0.36454,0.20072 -1.73448,2.40102 -2.50999,0.13489c-0.3814,-1.11452 -4.21681,-3.99519 -4.58539,-5.43226c-1.11804,-4.35904 0.45215,-2.31484 0.99599,-2.61428c0.54383,-0.29944 2.70035,-1.01097 3.81839,3.34806z" data-paper-data="{&quot;index&quot;:null}"/><path d="M232.37288,184.19056c0,-2.97153 0.92641,-5.38043 2.06919,-5.38043c1.14279,0 1.53521,1.53934 1.53521,4.51087c0,2.97153 0.29404,5.81522 -0.84874,5.81522c-1.14278,0 -2.75567,-1.97412 -2.75567,-4.94565z" data-paper-data="{&quot;index&quot;:null}"/></g></g></svg>