<svg version="1.1" xmlns="http://www.w3.org/2000/svg" xmlns:xlink="http://www.w3.org/1999/xlink" width="625.5295" height="448.17669" viewBox="0,0,625.5295,448.17669"><g transform="translate(132.32101,-0.46763)"><g data-paper-data="{&quot;isPaintingLayer&quot;:true}" fill-rule="nonzero" stroke="none" stroke-width="0" stroke-linecap="butt" stroke-linejoin="miter" stroke-miterlimit="10" stroke-dasharray="" stroke-dashoffset="0" style="mix-blend-mode: normal"><path d="" data-paper-data="{&quot;index&quot;:null}" fill="#344e5f"/><path d="" data-paper-data="{&quot;index&quot;:null}" fill="#344e5f"/><path d="" data-paper-data="{&quot;index&quot;:null}" fill="#344e5f"/><path d="" data-paper-data="{&quot;index&quot;:null}" fill="#344e5f"/><path d="M483.2441,375.49067c0,16.64827 -168.44326,26.56285 -209.81668,26.56285c-49.35228,0 -200.88549,-7.78378 -234.87607,-15.2501c-20.74183,-4.55612 -5.31832,-43.63585 24.01709,-57.47945c1.77765,-0.83889 9.82913,-11.45944 11.1152,-12.66944c6.63651,-6.24397 1.39954,-6.66915 10.19566,-7.8966c0.64414,-0.08988 35.61246,-9.09701 62.07541,-30.30223c28.79881,-23.07697 49.28494,-58.50992 49.9773,-58.6093c30.45074,-4.37092 66.40288,1.85121 98.1688,-0.57162c4.18817,-0.31943 53.08988,-20.99122 57.15582,-21.4125c22.06275,-2.28596 69.45102,-13.32748 92.83866,-12.70256c21.64418,0.57833 19.87786,12.74785 26.91197,12.74785c41.37342,0 12.23683,160.93483 12.23683,177.5831z" fill="#344e5f"/><path d="M-132.32101,448.64432v-448.17668h612.32101v448.17669z" fill="none"/></g></g></svg>