<svg version="1.1" xmlns="http://www.w3.org/2000/svg" xmlns:xlink="http://www.w3.org/1999/xlink" width="627.68478" height="454.41877" viewBox="0,0,627.68478,454.41877"><g transform="translate(90.45679,69.87487)"><g data-paper-data="{&quot;isPaintingLayer&quot;:true}" fill-rule="nonzero" stroke="none" stroke-linecap="butt" stroke-linejoin="miter" stroke-miterlimit="10" stroke-dasharray="" stroke-dashoffset="0" style="mix-blend-mode: normal"><path d="M-90.45679,-69.62487c0,-0.13807 0.11193,-0.25 0.25,-0.25c0.13807,0 0.25,0.11193 0.25,0.25c0,0.13807 -0.11193,0.25 -0.25,0.25c-0.13807,0 -0.25,-0.11193 -0.25,-0.25z" fill-opacity="0.08695" fill="#344e5f" stroke-width="0.5"/><path d="M-9.67709,352.90015c-6.41894,-20.87279 -63.17171,-59.12222 -51.03781,-107.83091c1.45604,-5.84495 35.8304,-4.65917 46.86783,-12.65107c9.11326,-6.59866 33.4305,1.44645 39.98169,-6.66625c5.81169,-7.19693 41.41817,-8.17704 43.80201,-12.11404c9.91691,-16.37811 54.32612,-12.05683 54.8181,-11.84518c24.56098,10.5665 28.56033,-7.19593 53.06886,3.48104c2.79715,1.21856 21.06938,-8.42 22.79653,-8.42c4.27429,0 6.64732,-0.72702 10.79068,-1.72959c10.20406,-2.46918 22.84565,-8.84009 41.26332,-11.63558c2.60808,-0.39586 7.00004,3.70781 9.92359,3.47932c3.99937,-0.31256 6.63209,-4.88946 10.85884,-4.94062c15.8426,-0.19177 31.8091,1.24245 36.85634,2.72646c25.28745,7.43516 53.93256,17.80316 74.80961,21.57765c17.29998,3.12778 38.79201,9.01676 58.70927,8.39402c26.08357,-0.81554 41.16244,-6.58609 68.91804,0.4373c9.41071,2.38133 1.75392,16.65359 2.40837,34.06961c0.54688,14.55357 -12.7853,29.69296 -10.74297,43.53287c1.34753,9.13155 18.4283,18.60622 18.4283,23.73893c0,0 19.10687,48.06204 13.27859,62.27914c-5.4859,13.38193 -34.21651,-7.35116 -85.83217,2.32091c-46.41652,8.69783 -221.19742,-2.29121 -266.87132,1.36993c-107.57476,8.62301 -190.47928,-21.06603 -193.09568,-29.57395z" fill="#344e5f" stroke-width="0"/></g></g></svg>