<svg version="1.1" xmlns="http://www.w3.org/2000/svg" xmlns:xlink="http://www.w3.org/1999/xlink" width="419.71423" height="302.85627" viewBox="0,0,419.71423,302.85627"><g transform="translate(-176.57517,1.65998)"><g data-paper-data="{&quot;isPaintingLayer&quot;:true}" fill-rule="nonzero" stroke-linejoin="miter" stroke-miterlimit="10" stroke-dasharray="" stroke-dashoffset="0" style="mix-blend-mode: normal"><path d="M367.88203,28.24352c0,13.83152 -18.24757,7.47587 -34.76282,7.47587c-16.51525,0 -32.89385,7.47702 -32.89385,-6.35449c0,-13.83152 14.50964,-31.02488 31.02489,-31.02488c16.51525,0 36.63178,16.07198 36.63178,29.9035z" fill="#fff8e6" stroke="none" stroke-width="0" stroke-linecap="butt"/><path d="M280.29197,217.00892l25.07056,-182.6569h54.31953l30.44282,188.02917z" fill="#b24f45" stroke="none" stroke-width="0" stroke-linecap="butt"/><path d="M414.5996,292.41775c14.9378,-3.58227 -79.93525,8.77854 -101.81791,8.77854c-26.10273,0 -106.24958,-4.40803 -124.2274,-8.63627c-5.94142,-1.39738 -14.61939,-7.48592 -11.20953,-14.97642c2.88625,-6.34026 16.79966,-13.98082 23.91232,-17.5747c0.94021,-0.47508 5.19869,-6.48959 5.8789,-7.17482c3.51009,-3.53601 0.74023,-3.77679 5.39255,-4.47191c0.34069,-0.0509 18.83565,-5.15172 32.83207,-17.16042c15.23187,-13.06869 26.06711,-33.13468 26.43331,-33.19096c16.10559,-2.47529 35.12089,1.04836 51.92208,-0.32371c2.21515,-0.1809 30.74585,7.84295 32.89635,7.60438c11.66913,-1.29456 18.38198,-16.16367 30.75185,-15.80977c11.44774,0.32752 26.19833,-3.89505 29.91872,-3.89505c1.91597,0 15.64334,16.53711 32.34737,24.87985c15.64573,7.81417 34.19849,7.25693 39.62039,13.1188c2.68626,2.90425 6.7022,4.39901 28.80676,2.78074c16.2018,-1.18613 24.61035,8.1938 35.03765,10.7504c0.87229,0.21387 16.29798,5.08667 17.11107,5.44348c14.38585,6.31281 26.27944,16.62051 26.0808,19.3356c-2.346,32.06617 -135.91021,6.56207 -135.91021,38.71394z" data-paper-data="{&quot;index&quot;:null}" fill="#10181e" stroke="none" stroke-width="0" stroke-linecap="butt"/><path d="M298.79642,75.53936l6.5661,-41.78426l54.31953,0.59692l7.75993,43.57502z" fill="#ffffff" stroke="none" stroke-width="0" stroke-linecap="butt"/><path d="M285.68365,175.82158l5.69741,-41.78426l85.87853,1.19384l6.29918,39.99351z" fill="#ffffff" stroke="none" stroke-width="0" stroke-linecap="butt"/><path d="M293.95309,41.06885c0,0 -3.52891,-0.8378 -3.52891,-3.66143c0,-2.8064 3.52891,-3.0017 3.52891,-3.0017h81.24355c0,0 2.35663,0.54878 2.35663,3.44445c0,3.12012 -2.35663,3.21868 -2.35663,3.21868z" fill="#10181e" stroke="none" stroke-width="0" stroke-linecap="butt"/><path d="M230.22021,243.52587l-8.91514,-35.373l2.98326,-0.75188l8.91514,35.373z" fill="#10181e" stroke="none" stroke-width="0" stroke-linecap="butt"/><path d="M251.97599,234.90575l-14.46992,-33.48657l2.82416,-1.22036l14.46992,33.48657z" fill="#10181e" stroke="none" stroke-width="0" stroke-linecap="butt"/><path d="M274.35516,214.65161l-25.22404,-26.35292l2.22253,-2.12733l25.22404,26.35292z" fill="#10181e" stroke="none" stroke-width="0" stroke-linecap="butt"/><path d="M258.23957,194.47813c0,0 -0.70875,4.70835 -4.63442,8.56266c-2.21612,2.17584 -6.95465,3.18118 -9.48104,5.12679c-1.90142,1.46432 -4.93538,5.42242 -9.02526,7.34757c-4.64074,2.18445 -10.26187,2.2569 -10.26187,2.2569" fill="none" stroke="#10181e" stroke-width="2" stroke-linecap="round"/><path d="M542.11477,241.63013l3.40594,-34.53941l4.35388,0.42934l-3.40594,34.53941z" fill="#10181e" stroke="none" stroke-width="0" stroke-linecap="butt"/><path d="M536.05408,212.94013l0.65388,-6.63096l22.09958,2.17924l4.88757,3.82969l-5.54145,2.80128z" fill="#10181e" stroke="none" stroke-width="0" stroke-linecap="butt"/></g></g></svg>