<svg version="1.1" xmlns="http://www.w3.org/2000/svg" xmlns:xlink="http://www.w3.org/1999/xlink" width="695.53558" height="529.55283" viewBox="0,0,695.53558,529.55283"><g transform="translate(110.89528,86.93791)"><g data-paper-data="{&quot;isPaintingLayer&quot;:true}" fill-rule="nonzero" stroke="none" stroke-width="0" stroke-linecap="butt" stroke-linejoin="miter" stroke-miterlimit="10" stroke-dasharray="" stroke-dashoffset="0" style="mix-blend-mode: normal"><path d="M-36.94792,420.34611c0,-21.64941 14.61623,-213.23359 11.90411,-307.82038c-0.84038,-29.30882 -33.32773,-98.93898 -5.3468,-100.56172c11.58841,-5.69465 113.0632,5.48562 146.05148,11.34936c14.11941,2.50976 -14.16976,27.86461 -10.87644,32.1009c5.65938,7.27982 0.17975,24.7121 2.4096,24.61061c1.2213,-0.05559 1.38229,11.58968 1.68796,30.15778c0.05831,3.5419 3.7009,11.51123 3.7781,15.52376c0.11726,6.09467 -3.31307,8.51845 -3.10362,15.50618c0.51894,17.31321 1.4108,37.01088 3.12135,57.32547c1.37194,16.29321 2.97412,33.60379 4.66294,51.20309c0.79929,8.32947 4.004,16.12711 4.82687,24.50868c2.22545,22.66784 1.2632,45.00438 2.60232,66.12175c0.3914,6.17216 2.61603,12.78572 3.14258,18.5957c1.04049,11.48097 -9.35411,23.52421 -11.85447,34.54306c-1.02951,4.53696 2.40863,9.36597 1.70027,12.98173c-2.18555,11.156 -8.27032,15.84428 -17.63099,6.08499c-11.18858,-11.66504 -5.96907,-6.93031 -23.46445,-3.48494z" data-paper-data="{&quot;index&quot;:null}" fill="#344e5f"/><path d="M-102.94497,442.61492v-528.64939h687.58527v528.64939z" fill="none"/><path d="M-110.89528,435.59936v-522.53727h694.92685v522.53727z" fill="none"/></g></g></svg>