<svg version="1.1" xmlns="http://www.w3.org/2000/svg" xmlns:xlink="http://www.w3.org/1999/xlink" width="587.03073" height="435.88067" viewBox="0,0,587.03073,435.88067"><g transform="translate(13.5239,37.94033)"><g data-paper-data="{&quot;isPaintingLayer&quot;:true}" fill="#344e5f" fill-rule="nonzero" stroke="none" stroke-width="0" stroke-linecap="butt" stroke-linejoin="miter" stroke-miterlimit="10" stroke-dasharray="" stroke-dashoffset="0" style="mix-blend-mode: normal"><path d="M559.21547,332.51111c0,13.79887 13.24383,49.60642 -5.38738,58.40377c-34.16576,16.13252 -115.37686,-0.5688 -157.0179,-0.5688c-25.69588,0 -179.93602,3.10743 -289.39996,0.35654c-50.9689,-1.28088 -106.72232,-7.70051 -112.56958,-27.58308c-10.00462,-34.01888 -12.3905,-270.14851 0.39835,-379.56433c0.9873,-8.44691 2.24838,-26.47902 7.97387,-20.19064c4.06449,4.46408 10.62835,4.13939 14.34094,8.99051c9.17338,11.98655 15.86528,25.47198 16.7725,25.59529c4.4139,0.59993 16.13619,6.16172 24.49443,19.75991c13.5695,22.0765 29.85739,57.1744 39.74584,79.74805c5.62764,12.84693 7.6556,21.02661 9.75272,21.97005c5.12986,2.30777 1.44848,6.23801 14.24256,14.83903c2.47444,1.66349 21.72306,5.31136 24.11435,7.17848c5.92347,4.62505 8.70446,14.81543 14.29469,17.91118c2.08168,1.15279 10.74394,1.07906 12.51632,1.88646c2.60649,1.18738 7.07031,6.69422 8.67973,6.69422c2.00291,0 3.99735,-3.14711 6.29032,-3.70325c1.03959,-0.25215 2.65155,2.29961 3.76487,2.01791c9.50856,-2.406 21.28849,-8.6139 38.45081,-11.33787c2.43031,-0.38573 6.52292,3.61294 9.2472,3.3903c3.72678,-0.30456 6.18005,-4.76436 10.11869,-4.81421c14.76277,-0.18686 29.641,1.21066 34.34421,2.6567c15.69361,4.82514 21.03028,38.24236 53.36722,66.07929c3.95364,3.40345 25.11157,10.40623 35.31714,16.64569c9.47148,5.79065 12.53619,10.8612 27.14038,13.34983c5.26662,0.89746 7.55007,-3.35889 12.61653,-5.35205c6.9186,-2.7218 16.68321,-3.56691 24.75435,-2.87097c39.55877,3.41098 98.99181,9.19543 125.73965,16.27305c20.93226,5.53878 3.12422,31.6153 3.12422,53.26796z"/></g></g></svg>