<svg version="1.1" xmlns="http://www.w3.org/2000/svg" xmlns:xlink="http://www.w3.org/1999/xlink" width="718.22836" height="536.0106" viewBox="0,0,718.22836,536.0106"><g transform="translate(117.65903,87.44824)"><g data-paper-data="{&quot;isPaintingLayer&quot;:true}" fill-rule="nonzero" stroke="none" stroke-width="0" stroke-linecap="butt" stroke-linejoin="miter" stroke-miterlimit="10" stroke-dasharray="" stroke-dashoffset="0" style="mix-blend-mode: normal"><path d="M-38.76823,356.20718c0,0 28.83121,-59.36782 44.61666,-121.72141c6.42287,-25.37077 92.16527,12.55058 116.65164,12.67284c11.24823,0.05616 14.52808,-10.31575 21.10892,-19.43816c4.59581,-6.37076 5.70457,-17.13604 12.67757,-23.08733c7.29434,-6.22555 10.8314,-11.82882 20.22497,-13.75904c5.09107,-1.04614 13.47527,2.82166 17.82361,0.14001c18.3194,-11.2977 30.13083,-29.91907 27.53967,-29.66602c-9.19903,0.89838 -11.87513,-6.91845 -8.46792,-14.9221c2.71544,-6.37867 9.99484,-12.52595 15.83519,-17.015c33.76366,-25.9517 91.06397,-60.07529 101.44728,-61.78515c10.90641,-1.79601 15.87712,-31.43645 46.42555,-39.72537c5.41836,-1.4702 70.67312,-54.92258 85.12261,-55.8329c7.04959,-0.44412 29.88332,2.67022 32.27445,1.51351c39.72082,-19.21496 50.74902,20.58413 56.973,62.60619c16.6315,112.28989 -14.19072,344.36717 -14.19072,344.36717z" data-paper-data="{&quot;index&quot;:null}" fill="#344e5f"/><path d="" data-paper-data="{&quot;index&quot;:null}" fill="#ffffff"/><path d="" data-paper-data="{&quot;index&quot;:null}" fill="#ffffff"/><path d="" data-paper-data="{&quot;index&quot;:null}" fill="#ffffff"/><path d="" data-paper-data="{&quot;index&quot;:null}" fill="#ffffff"/><path d="M-117.65903,448.56236v-536.0106h718.22836v536.0106z" fill="none"/></g></g></svg>