<svg version="1.1" xmlns="http://www.w3.org/2000/svg" xmlns:xlink="http://www.w3.org/1999/xlink" width="51.81665" height="51.81832" viewBox="0,0,51.81665,51.81832"><defs><linearGradient x1="239.92199" y1="155.09001" x2="239.92199" y2="204.90833" gradientUnits="userSpaceOnUse" id="color-1"><stop offset="0" stop-color="#a9a9a9"/><stop offset="1" stop-color="#5e5e5e"/></linearGradient></defs><g transform="translate(-213.96661,-154.09001)"><g data-paper-data="{&quot;isPaintingLayer&quot;:true}" fill-rule="nonzero" stroke-linecap="butt" stroke-linejoin="miter" stroke-miterlimit="10" stroke-dasharray="" stroke-dashoffset="0" style="mix-blend-mode: normal"><path d="M214.96663,198.72527c0,-11.25908 0,-34.36061 0,-38.83371c0,-1.96596 2.20029,-4.88183 5.04715,-4.79986c6.01019,0.17305 28.98107,0 38.72378,0c3.13463,0 5.92554,1.84509 6.0457,4.68375c0.21175,5.00233 0,27.097 0,38.60767c0,3.94876 -2.69927,6.52521 -6.79115,6.52521c-11.1123,0 -32.49513,0 -37.97835,0c-2.51898,0 -5.04715,-2.43555 -5.04715,-6.18307z" fill="#0a0d10" stroke="url(#color-1)" stroke-width="2"/><g fill="#cacaca" stroke="none" stroke-width="1"><path d="M250.14661,176.78369c-0.93855,2.25413 -3.70023,3.36833 -5.35529,3.84995v1.9018c0,0.34267 -0.29094,0.62175 -0.65085,0.62175h-1.5872c-0.3588,0 -0.64975,-0.27908 -0.64975,-0.62175v-1.59258h-0.54196v1.59258c0,0.34267 -0.29095,0.62175 -0.64975,0.62175h-1.58824c-0.35881,0 -0.65086,-0.27908 -0.65086,-0.62175v-1.59258h-0.54093v1.59258c0,0.34267 -0.29094,0.62175 -0.65085,0.62175h-1.5872c-0.3588,0 -0.64975,-0.27908 -0.64975,-0.62175v-1.9018c-1.65395,-0.48059 -4.41563,-1.59583 -5.35522,-3.84995c-0.68209,-1.63892 -0.41487,-3.79609 0.60665,-7.95422c1.02379,-4.16026 3.99773,-6.48342 9.62342,-6.48342c5.62569,0 8.5986,2.32315 9.62115,6.48342c1.02255,4.15813 1.29088,6.3153 0.60665,7.95422zM238.15281,173.36799c0.30274,-1.69712 -0.66485,-3.27136 -2.1604,-3.517c-1.49562,-0.24461 -2.95456,0.93421 -3.2584,2.63127c-0.30281,1.69817 0.66375,3.2724 2.15827,3.51811c1.49776,0.2435 2.9578,-0.93311 3.26054,-2.63238zM237.81229,177.60798h2.10655h2.10441l-2.10441,-2.51707zM247.10263,172.48226c-0.30605,-1.69706 -1.76285,-2.87588 -3.2584,-2.63127c-1.49666,0.24571 -2.46536,1.81994 -2.16041,3.517c0.30281,1.69927 1.76064,2.87588 3.2573,2.63238c1.49776,-0.24571 2.46432,-1.81995 2.16151,-3.51811z"/><path d="M225.43811,192.81613c-0.55273,-1.14765 -0.03014,-2.50645 1.16916,-3.03545c1.13033,-0.49997 2.45886,-0.07972 3.06765,0.93207c0.44714,0.55603 1.1422,0.33832 1.46114,0.19826c0.23708,-0.10455 2.70885,-1.19716 5.64403,-2.49342c-2.52245,-1.15509 -4.60527,-2.10868 -5.02228,-2.29943c-1.15186,-0.52693 -1.97939,-0.81463 -2.73906,-0.19178c-0.66265,0.8836 -1.91043,1.21433 -2.9707,0.72947c-1.19068,-0.54417 -1.69389,-1.90939 -1.12386,-3.04828c0.3437,-0.68961 1.00317,-1.13572 1.73264,-1.26178c-0.35556,-0.62279 -0.40625,-1.39219 -0.06034,-2.08283c0.56893,-1.13896 1.99559,-1.61947 3.1862,-1.07537c1.03117,0.47197 1.54513,1.5581 1.29515,2.58065c-0.05923,0.76933 1.08614,1.38571 1.84581,1.73375c0.53017,0.24246 3.80581,1.77036 7.30771,3.39094c3.29288,-1.45466 6.33578,-2.7983 6.85188,-3.02566c1.16047,-0.51294 1.92014,-0.93849 1.90394,-1.89429c-0.2888,-1.05165 0.24026,-2.18199 1.30812,-2.65499c1.1971,-0.52797 2.61727,-0.02801 3.1711,1.11847c0.33508,0.69396 0.27371,1.46329 -0.09158,2.08283c0.72843,0.13468 1.38135,0.58831 1.7154,1.28226c0.55279,1.14758 0.03021,2.50521 -1.16806,3.03428c-1.03766,0.45797 -2.24013,0.1433 -2.90284,-0.69285c-0.58292,-0.53555 -1.80912,-0.08509 -2.57203,0.25433c-0.39866,0.17564 -2.34902,1.02152 -4.78306,2.08069c2.93084,1.34688 5.41343,2.47294 5.80347,2.59686c0.23164,0.07434 0.43963,0.08296 0.62279,0.05607c0.014,-0.03124 0.02586,-0.06468 0.042,-0.09482c0.56783,-1.13896 1.99559,-1.62059 3.1862,-1.07538c1.19068,0.54417 1.69389,1.91049 1.12386,3.04938c-0.3448,0.68748 -1.00317,1.13462 -1.73264,1.26068c0.35452,0.62278 0.40514,1.39321 0.06144,2.08282c-0.57106,1.13896 -1.99662,1.62058 -3.1873,1.07641c-1.12496,-0.51611 -1.63458,-1.76065 -1.20895,-2.8554c0.16164,-0.68312 -0.45576,-1.05813 -0.77257,-1.20357c-0.28336,-0.12819 -3.76272,-1.72188 -7.39716,-3.38556c-3.97062,1.73588 -7.96174,3.49762 -8.41212,3.76595c-0.20688,0.12282 -0.34694,0.27047 -0.44176,0.42239c0.01724,0.03021 0.03448,0.05924 0.04958,0.09055c0.55279,1.14648 0.03124,2.50307 -1.16806,3.03428c-1.1982,0.52796 -2.61727,0.028 -3.1711,-1.11848c-0.33405,-0.69285 -0.2726,-1.46328 0.09158,-2.08179c-0.72843,-0.13578 -1.38032,-0.59051 -1.7154,-1.28226z"/></g></g></g></svg>