<svg version="1.1" xmlns="http://www.w3.org/2000/svg" xmlns:xlink="http://www.w3.org/1999/xlink" width="718.22836" height="536.0106" viewBox="0,0,718.22836,536.0106"><g transform="translate(117.65903,87.44824)"><g data-paper-data="{&quot;isPaintingLayer&quot;:true}" fill-rule="nonzero" stroke="none" stroke-width="0" stroke-linecap="butt" stroke-linejoin="miter" stroke-miterlimit="10" stroke-dasharray="" stroke-dashoffset="0" style="mix-blend-mode: normal"><path d="" data-paper-data="{&quot;index&quot;:null}" fill="#ffffff"/><path d="" data-paper-data="{&quot;index&quot;:null}" fill="#ffffff"/><path d="" data-paper-data="{&quot;index&quot;:null}" fill="#ffffff"/><path d="" data-paper-data="{&quot;index&quot;:null}" fill="#ffffff"/><path d="M-117.65903,448.56236v-536.0106h718.22836v536.0106z" fill="none"/><path d="M-4.01572,396.76524v-433.53047h488.03144l14.26057,208.92795l-14.26057,224.60252z" fill="#98bbd6"/><path d="M198.61923,196.65596l-7.43195,-33.85667l26.42471,-62.7587l-10.32746,83.33028l-22.70344,106.59736z" fill="#375267"/><path d="M337.71425,205.22357l-28.29557,-49.13224l-19.72751,-137.56894l20.96212,84.94738l5.65018,9.85262c0,0 1.55148,31.91932 2.21006,34.74616c2.66539,11.4406 19.20073,57.15502 19.20073,57.15502z" data-paper-data="{&quot;index&quot;:null}" fill="#375267"/><path d="M282.83448,202.64528l-0.70676,56.69318l-53.1649,128.40514l25.27502,-83.76539l0.16238,-11.3566c0,0 14.93856,-28.25048 15.81318,-31.01812c3.53972,-11.20098 12.62107,-58.95822 12.62107,-58.95822z" data-paper-data="{&quot;index&quot;:null}" fill="#375267"/></g></g></svg>