<svg version="1.1" xmlns="http://www.w3.org/2000/svg" xmlns:xlink="http://www.w3.org/1999/xlink" width="715.74469" height="535.7899" viewBox="0,0,715.74469,535.7899"><g transform="translate(119.02394,90.63917)"><g data-paper-data="{&quot;isPaintingLayer&quot;:true}" fill-rule="nonzero" stroke="none" stroke-linecap="butt" stroke-linejoin="miter" stroke-miterlimit="10" stroke-dasharray="" stroke-dashoffset="0" style="mix-blend-mode: normal"><g data-paper-data="{&quot;index&quot;:null}"><path d="M417.44214,-3.80227l44.69039,-1.67472l1.07989,28.81742l-44.6904,1.67472z" fill="#e3e3e3" stroke-width="0"/><g fill="#0d131c" stroke-width="1"><path d="M421.5315,27.89851c0.02117,0.56507 -0.74368,1.05281 -1.49703,1.08105c-0.75335,0.02822 -1.55256,-0.40102 -1.57374,-0.96598l-0.03835,-1.02352l-1.22743,-32.75423l-0.03835,-1.02352c-0.02118,-0.56496 0.74368,-1.05282 1.49703,-1.08106c0.75335,-0.02822 1.55257,0.40102 1.57374,0.96598l0.03835,1.02352l38.89565,-1.45757l-0.03836,-1.02352c-0.02117,-0.56496 0.75493,-1.05325 1.49703,-1.08106c0.74211,-0.0278 1.55256,0.40103 1.57373,0.96599l0.03836,1.02352l1.22743,32.75423l0.03836,1.02352c0.02117,0.56507 -0.75492,1.05325 -1.49703,1.08106c-0.74211,0.0278 -1.55256,-0.40102 -1.57373,-0.96598l-0.03836,-1.02352l-38.89565,1.45757zM437.28388,13.70233c-0.79308,-0.86617 -1.31084,-1.99081 -1.35824,-3.2558c-0.04151,-1.10765 0.27957,-2.13938 0.845,-3.00009l-5.37162,-2.83166c-1.03853,1.77422 -1.61051,3.8508 -1.52778,6.05861c0.08875,2.36858 0.91199,4.53427 2.23674,6.29583l5.17589,-3.2669zM438.37545,10.44281c0.04734,1.26318 1.10942,2.24834 2.37228,2.20101c1.26318,-0.04734 2.24833,-1.10922 2.201,-2.37239c-0.04734,-1.26306 -1.10921,-2.24822 -2.37238,-2.20089c-1.26296,0.04732 -2.24823,1.10921 -2.20091,2.37227zM444.05083,7.08131l5.48387,-3.25185c-0.9853,-2.94382 -4.80223,-5.40015 -9.60621,-4.70047l0.22803,6.08521c2.05361,0.09316 3.03341,0.80162 3.89431,1.8671zM444.6798,13.08699c-0.77486,1.17897 -2.10283,2.00876 -4.14352,2.2606l0.22803,6.08512c4.74561,0.60304 8.10407,-2.73851 8.95557,-5.49638l-5.04011,-2.84935z"/><path d="M465.19974,17.03707l3.07077,-0.11507l0.19178,5.1178l-3.07076,0.11507z"/></g></g><g><path d="M145.57262,52.6543l-30.90828,-32.32205l20.84201,-19.93038l30.90828,32.32205z" fill="#e3e3e3" stroke-width="0"/><g fill="#0d131c" stroke-width="1"><path d="M142.14513,51.92015l-26.90058,-28.13103l-0.74025,0.70787c-0.40861,0.39073 -1.28889,0.13415 -1.80214,-0.40258c-0.51325,-0.53672 -0.73032,-1.42752 -0.32163,-1.81833l0.74025,-0.70787l23.68929,-22.65312l0.74025,-0.70787c0.40861,-0.39073 1.28889,-0.13415 1.80214,0.40258c0.51325,0.53672 0.73023,1.4276 0.32163,1.81833l-0.74025,0.70787l26.90058,28.13103l0.74025,-0.70788c0.40861,-0.39073 1.28111,-0.14227 1.80214,0.40258c0.52102,0.54486 0.73023,1.4276 0.32163,1.81833l-0.74025,0.70788l-23.68929,22.65311l-0.74025,0.70788c-0.40861,0.39073 -1.28111,0.14227 -1.80214,-0.40258c-0.52102,-0.54486 -0.73032,-1.42752 -0.32163,-1.81833zM139.98484,31.47024l1.43986,5.94889c2.17743,-0.34179 4.27635,-1.32285 5.9894,-2.96099c1.59678,-1.52694 2.63231,-3.41561 3.12242,-5.41215l-5.82705,-1.70823c-0.19353,1.01147 -0.68155,1.97553 -1.48265,2.74158c-0.9149,0.87488 -2.06963,1.32151 -3.24199,1.3909zM141.47116,28.37077c0.91351,-0.87355 0.94581,-2.32176 0.07233,-3.23519c-0.87363,-0.91359 -2.32175,-0.94596 -3.23525,-0.07241c-0.91359,0.87363 -0.94597,2.32175 -0.07235,3.23534c0.8734,0.91336 2.32167,0.94589 3.23526,0.07227zM143.8338,23.37793l4.4011,-4.20859c-2.96062,-3.84741 -7.41049,-4.74239 -10.16757,-3.31572l1.67137,6.15255c1.35981,-0.16521 2.55635,0.00859 4.09511,1.37177zM135.10526,25.87849l-5.60144,-1.46469c-1.30931,2.57227 -1.22582,7.30918 2.60006,10.18098l4.40102,-4.20852c-1.28924,-1.60177 -1.6645,-3.12204 -1.39965,-4.50777z"/><path d="M113.92595,17.96394l-2.12377,-2.2209l3.70142,-3.53951l2.12377,2.22092z"/></g></g><g><path d="M295.15972,58.31415l-11.02942,-43.34038l27.94689,-7.11203l11.02941,43.34037z" fill="#e3e3e3" stroke-width="0"/><g fill="#0d131c" stroke-width="1"><path d="M292.53571,55.9901l-9.5993,-37.72067l-0.9926,0.2526c-0.54789,0.13942 -1.18837,-0.51671 -1.37153,-1.2364c-0.18315,-0.71969 0.06568,-1.60214 0.61367,-1.7416l0.9926,-0.2526l31.76478,-8.08361l0.9926,-0.2526c0.54789,-0.13942 1.18837,0.51671 1.37153,1.2364c0.18315,0.71969 -0.06578,1.60218 -0.61367,1.74161l-0.9926,0.2526l9.5993,37.72067l0.9926,-0.25261c0.54789,-0.13942 1.18559,0.50582 1.37153,1.23641c0.18592,0.73059 -0.06578,1.60218 -0.61367,1.7416l-0.9926,0.25261l-31.76478,8.08361l-0.9926,0.25261c-0.54789,0.13942 -1.18559,-0.50582 -1.37153,-1.23641c-0.18592,-0.73059 0.06568,-1.60214 0.61367,-1.7416zM300.70621,37.11925l-1.67016,5.88838c2.06424,0.77263 4.37432,0.94995 6.67135,0.36538c2.14112,-0.54488 3.97125,-1.68065 5.37943,-3.17845l-4.23489,-4.35181c-0.66571,0.78572 -1.56457,1.38541 -2.63876,1.65877c-1.22678,0.3122 -2.45192,0.13356 -3.50699,-0.38227zM303.52408,35.15063c1.22491,-0.31172 1.96489,-1.55703 1.65319,-2.78184c-0.31175,-1.22502 -1.55694,-1.96501 -2.78186,-1.6533c-1.22502,0.31175 -1.96503,1.55694 -1.65327,2.78196c0.31167,1.22471 1.55691,1.96492 2.78194,1.65317zM308.03575,31.96388l5.90139,-1.50181c-0.68715,-4.80579 -4.12245,-7.77246 -7.22474,-7.88522l-1.56865,6.17954c1.26541,0.52452 2.222,1.26402 2.89199,3.2075zM299.20531,29.85115l-4.15812,-4.02883c-2.40458,1.59652 -4.66021,5.76274 -2.74,10.1442l5.90129,-1.50179c-0.33542,-2.02862 0.08504,-3.53702 0.99682,-4.61361z"/><path d="M284.65137,12.54837l-0.75785,-2.978l4.9632,-1.26305l0.75785,2.97801z"/></g></g><path d="M-102.94497,442.61492v-528.64939h687.58527v528.64939z" fill="none" stroke-width="0"/><path d="M-110.89528,435.59936v-522.53727h694.92685v522.53727z" fill="none" stroke-width="0"/><g><path d="M167.96573,55.89711l5.26142,-44.41119l28.63737,3.39268l-5.26142,44.41118z" fill="#e3e3e3" stroke-width="0"/><g fill="#0d131c" stroke-width="1"><path d="M166.35073,52.78609l4.5792,-38.65264l-1.01712,-0.1205c-0.56143,-0.06652 -0.92372,-0.90882 -0.83636,-1.64629c0.08737,-0.73747 0.63635,-1.47181 1.19789,-1.40529l1.01712,0.1205l32.54959,3.85617l1.01712,0.1205c0.56143,0.06652 0.92372,0.90882 0.83636,1.64629c-0.08737,0.73747 -0.63646,1.47181 -1.19789,1.4053l-1.01712,-0.1205l-4.5792,38.65264l1.01713,0.12049c0.56143,0.06652 0.92504,0.89765 0.83636,1.6463c-0.0887,0.74864 -0.63646,1.47181 -1.19789,1.40529l-1.01713,-0.12049l-32.54959,-3.85617l-1.01713,-0.12049c-0.56143,-0.06652 -0.92504,-0.89765 -0.83636,-1.6463c0.0887,-0.74864 0.63635,-1.47181 1.19789,-1.40529zM180.75,38.10526l-3.67235,4.89656c1.64937,1.46205 3.74189,2.4567 6.09567,2.73555c2.19402,0.25992 4.30986,-0.14329 6.16181,-1.03585l-2.39073,-5.58184c-0.90337,0.49442 -1.95757,0.73153 -3.0583,0.60113c-1.25709,-0.14893 -2.33648,-0.7554 -3.1361,-1.61554zM184.0867,37.27922c1.25517,0.1487 2.39282,-0.74803 2.5415,-2.00311c0.14871,-1.25528 -0.74791,-2.3929 -2.00308,-2.54161c-1.25528,-0.14871 -2.39291,0.7479 -2.54163,2.00319c-0.14868,1.25497 0.74791,2.3928 2.00321,2.54152zM189.44154,35.92416l6.0472,0.71641c1.08355,-4.7322 -1.05803,-8.7342 -3.91313,-9.95294l-3.68211,5.20475c0.99283,0.94375 1.62025,1.97732 1.54804,4.03178zM181.95781,30.78275l-2.43501,-5.25282c-2.81738,0.62708 -6.41807,3.70608 -6.19843,8.48481l6.0471,0.7164c0.41505,-2.01384 1.34889,-3.27081 2.58633,-3.94841z"/><path d="M174.58403,9.40915l0.36152,-3.05157l5.08583,0.60252l-0.36152,3.05158z"/></g></g><path d="M-16.81644,384.16136l0.97122,-399.17006c0,0 0.3033,-10.68338 15.53947,-10.68338c6.47868,0 53.70094,-1.641 80.82547,16.66098c32.32055,21.80794 46.29933,64.18434 69.72103,64.30075c23.20028,0.11531 81.68576,6.94197 135.98895,0.07972c33.2923,-4.20713 67.73344,-22.11069 83.50065,-24.69533c10.95628,-1.79601 19.57321,5.53527 50.26133,-2.75365c8.09873,-2.18748 47.61539,-1.11157 54.94095,-4.63918c17.58893,-8.46992 24.47938,-26.54778 28.81954,-28.11878c146.78516,-53.13148 29.14004,389.01893 29.14004,389.01893z" fill="#344e5f" stroke-width="0"/><path d="M-119.02394,445.15073v-535.7899h715.74469v535.7899z" fill="none" stroke-width="0"/></g></g></svg>