<svg version="1.1" xmlns="http://www.w3.org/2000/svg" xmlns:xlink="http://www.w3.org/1999/xlink" width="718.22836" height="536.0106" viewBox="0,0,718.22836,536.0106"><g transform="translate(117.65903,87.44826)"><g data-paper-data="{&quot;isPaintingLayer&quot;:true}" fill-rule="nonzero" stroke="none" stroke-width="0" stroke-linecap="butt" stroke-linejoin="miter" stroke-miterlimit="10" stroke-dasharray="" stroke-dashoffset="0" style="mix-blend-mode: normal"><path d="M-38.76823,356.20717c0,0 28.83121,-59.36782 44.61666,-121.72141c6.42287,-25.37077 92.16527,12.55058 116.65164,12.67284c1.09959,0.00549 2.83055,-7.47332 5.79605,-9.80847c4.11156,-3.23761 10.07116,-2.36359 15.31287,-9.62969c4.59581,-6.37076 5.70457,-17.13604 12.67757,-23.08733c3.2509,-2.77457 9.54765,-3.95055 12.57548,-6.38911c3.29279,-2.65195 3.34353,-6.48513 7.64949,-7.36993c5.09107,-1.04614 13.47527,2.82166 17.82361,0.14001c18.3194,-11.2977 30.13083,-29.91907 27.53967,-29.66602c-13.09615,1.27897 -14.71736,-14.59979 -12.17949,-14.92196c11.21651,-1.42391 2.27317,-3.73818 19.54676,-17.01514c33.76366,-25.9517 91.06397,-60.07529 101.44728,-61.78515c10.90641,-1.79601 15.87712,-31.43645 46.42555,-39.72537c5.41836,-1.4702 70.67312,-54.92258 85.12261,-55.8329c7.04959,-0.44412 29.88332,2.67022 32.27445,1.51351c39.72082,-19.21496 50.74902,20.58413 56.973,62.60619c16.6315,112.28989 -14.19072,344.36717 -14.19072,344.36717z" data-paper-data="{&quot;index&quot;:null}" fill="#344e5f"/><path d="M283.83141,96.40255c-0.32074,-0.15475 -1.63968,-0.14266 -2.95362,0.3036c-1.59632,0.54216 -2.81022,1.93501 -3.21122,2.09547c-0.09853,0.03943 -3.58998,-1.47404 -6.2553,-0.06614c-2.61307,1.38029 -4.66953,4.81018 -5.17482,4.56234c-0.75041,-0.36808 1.78869,-2.40046 1.23489,-4.16663c-0.33928,-1.08202 -4.35789,-1.94887 -3.60595,-2.61051c1.34037,-1.17941 7.69338,0.40129 8.34709,-0.59141c0.37086,-0.56317 -4.27061,-1.08105 -3.90618,-2.06458c0.01617,-0.04364 1.97734,-1.23513 2.69009,-0.99395c0.47327,0.16016 1.27189,0.55774 1.93377,0.89278c0.64181,0.32489 1.14441,0.58064 1.76727,1.15562c1.15899,1.06988 3.51842,-0.78652 4.89742,-1.19187c1.27355,-0.37435 1.85122,0.45666 2.76814,-0.67529c0.2184,-0.26963 -2.14073,-3.77341 -3.54562,-3.70865c-0.77706,0.03582 -1.8685,4.29966 -3.0515,3.84289c-0.9452,-0.36495 -0.08279,-1.69555 -1.47955,-2.46939c-1.50522,-0.83394 -4.42828,-0.84502 -5.57728,-1.49573c-0.37535,-0.21257 1.07927,-2.49891 2.62098,-2.58786c1.5261,-0.08806 2.98995,1.20791 4.38683,0.77082c0.72746,-0.22762 1.89351,-0.2613 2.09228,-0.58194c0.68245,-1.10084 -4.31304,-3.96475 -3.48147,-4.95777c1.22228,-1.4596 2.31958,-5.01895 3.7629,-4.0992c0.27655,0.17622 -0.36838,4.60629 1.0025,7.12886c1.37088,2.52257 5.28606,5.23144 5.46048,4.76378c0.08783,-0.23554 0.7583,-1.11698 0.80612,-1.82644c0.08849,-1.31248 -0.1891,-2.25586 -1.23718,-3.05079c-0.93111,-0.70621 -2.45522,-1.59886 -2.52199,-2.13679c-0.07228,-0.58229 0.97732,-0.41342 1.76304,-0.13435c0.68515,0.24335 1.64667,0.62319 1.65938,0.52634c0.11731,-0.89345 -1.4585,-1.43338 -2.01608,-2.06511c-0.74073,-0.83924 -1.11627,-1.97729 -1.0775,-2.43468c0.08801,-1.03823 0.22359,-0.83614 0.45061,-1.3344c0.36892,-0.80968 0.8317,0.37885 1.16301,0.5387c0.01845,0.0089 0.66593,1.71071 1.16118,2.39136c0.65876,0.90537 2.30091,2.06349 2.97354,2.99806c0.75437,1.04814 0.50427,1.85742 0.51528,2.54726c0.02822,1.76737 -0.67081,2.79896 -0.40514,4.65497c0.22636,1.58138 1.27268,2.26223 2.19584,3.01484c0.94784,0.77274 1.76625,1.60399 1.46461,2.22919c-0.33672,0.6979 -0.92541,2.39205 -1.93834,2.82963c-0.60295,0.26048 -2.98959,-0.93045 -5.54412,0.66053c-2.10838,1.31312 -2.61709,6.80351 -3.19237,6.67522c-0.76996,-0.17171 -3.82387,-2.47931 -2.65223,-4.44956c0.10619,-0.17856 0.99762,-1.50572 2.17722,-2.48319c1.60326,-1.32854 3.59481,-2.37616 3.53294,-2.40601z" data-paper-data="{&quot;index&quot;:null}" fill="#344e5f"/><path d="M221.73533,124.97525c0.24878,0.36439 1.67253,1.16655 3.35926,1.49937c2.04922,0.40435 4.2135,-0.34111 4.74327,-0.2656c0.13018,0.01856 2.944,3.80149 6.67615,3.93685c3.65898,0.13271 7.98694,-2.27944 8.37635,-1.70103c0.5783,0.859 -3.40422,1.47222 -3.90105,3.71101c-0.30437,1.37158 3.47514,4.78592 2.2588,5.0317c-2.16819,0.43812 -8.01327,-5.18546 -9.32872,-4.52348c-0.74629,0.37555 3.91773,3.80012 2.91859,4.63103c-0.04433,0.03686 -2.88662,0.1043 -3.50293,-0.59517c-0.40924,-0.46444 -1.0211,-1.38494 -1.52477,-2.15375c-0.4884,-0.74552 -0.87003,-1.33075 -1.18354,-2.33311c-0.58336,-1.86511 -4.26422,-1.32982 -5.99551,-1.74679c-1.59893,-0.38509 -1.70566,-1.63444 -3.38981,-0.9856c-0.40117,0.15454 -0.03325,5.37491 1.51536,6.17361c0.85656,0.4418 4.66364,-3.46228 5.65168,-2.24069c0.78943,0.97604 -0.95894,1.87185 0.06267,3.56603c1.10095,1.82574 4.23292,3.64409 5.06458,5.05293c0.27166,0.46022 -2.7033,2.01638 -4.41377,1.15911c-1.69317,-0.84859 -2.46415,-3.14489 -4.23427,-3.53882c-0.92183,-0.20515 -2.19477,-0.8896 -2.60636,-0.66814c-1.41316,0.76033 2.18115,6.92289 0.67451,7.4753c-2.21453,0.81196 -5.59253,3.9559 -6.57399,2.07628c-0.18804,-0.36012 3.24229,-4.71863 3.3292,-8.27461c0.0869,-3.55596 -2.44318,-8.88442 -2.91949,-8.49002c-0.23987,0.19863 -1.50457,0.7308 -1.99438,1.46307c-0.90614,1.35466 -1.19109,2.53923 -0.55691,4.04057c0.5634,1.33378 1.64833,3.23422 1.38759,3.85312c-0.28224,0.66994 -1.30496,-0.16005 -1.9762,-0.94529c-0.58533,-0.68473 -1.38308,-1.68683 -1.45659,-1.5907c-0.67815,0.88691 0.68032,2.44055 0.88864,3.4635c0.27676,1.35895 -0.02331,2.81309 -0.34761,3.28029c-0.73613,1.06047 -0.75684,0.75969 -1.30854,1.15441c-0.89651,0.64146 -0.65893,-0.9208 -0.91592,-1.29721c-0.01432,-0.02097 0.34215,-2.24854 0.23097,-3.2855c-0.14787,-1.37933 -1.1955,-3.63778 -1.3402,-5.05702c-0.1623,-1.59171 0.60641,-2.30617 1.0209,-3.05374c1.06194,-1.91527 2.45009,-2.59098 3.31184,-4.74819c0.73424,-1.83802 0.03147,-3.21575 -0.49472,-4.59444c-0.54024,-1.41554 -0.90536,-2.81395 -0.19508,-3.29887c0.79289,-0.54133 2.47204,-1.99672 3.83016,-1.8406c0.80842,0.09292 2.63524,2.84672 6.36156,2.71702c3.07552,-0.10704 7.0149,-5.68832 7.55335,-5.19503c0.72067,0.66023 2.5739,5.02551 0.09815,6.4171c-0.22437,0.1261 -2.00179,1.00031 -3.87254,1.32094c-2.54264,0.43579 -5.32865,0.32995 -5.28065,0.40023z" data-paper-data="{&quot;index&quot;:null}" fill="#344e5f"/><path d="M284.92431,104.65139c-2.9644,-7.47948 -2.2449,0.25882 3.20816,-7.02044c4.459,-5.9523 -3.71182,-13.02114 7.49314,-16.66604c1.08254,-0.35214 14.11985,-3.49154 15.13793,-4.04054c9.99827,-5.39154 4.90889,-16.63315 8.86026,-20.14775c19.07712,-16.96839 19.18156,-1.32178 22.46576,2.37057c3.2842,3.69234 6.67471,3.64295 -12.4024,20.61133c-8.68571,7.72562 -14.88723,7.8368 -25.52481,16.00446c-12.7266,9.77164 -12.3749,12.53179 -14.16383,10.52054z" data-paper-data="{&quot;index&quot;:null}" fill="#344e5f"/><path d="M337.44302,56.76159c-0.14816,-0.4156 -1.3217,-1.55283 -2.86874,-2.30284c-1.8795,-0.9112 -4.16212,-0.73944 -4.65538,-0.94693c-0.12121,-0.05099 -1.88281,-4.42419 -5.4584,-5.50232c-3.5055,-1.057 -8.30394,0.17776 -8.5338,-0.48054c-0.34135,-0.97766 3.66641,-0.56005 4.71516,-2.59944c0.64251,-1.24941 -2.1467,-5.51119 -0.90781,-5.44022c2.20841,0.1265 6.43486,7.0494 7.87525,6.74296c0.81716,-0.17384 -2.82501,-4.66999 -1.6477,-5.22012c0.05223,-0.0244 2.81857,0.63174 3.23718,1.46472c0.27797,0.5531 0.63618,1.59874 0.92824,2.47021c0.2832,0.84505 0.5038,1.50799 0.55265,2.55709c0.0909,1.9521 3.7871,2.36853 5.35587,3.21124c1.44884,0.77828 1.235,2.01381 3.02868,1.81364c0.42726,-0.04767 1.39629,-5.19049 0.10109,-6.35606c-0.71639,-0.64472 -5.38966,2.16531 -6.03531,0.73295c-0.51586,-1.14443 1.40261,-1.56719 0.84443,-3.46517c-0.60153,-2.04537 -3.16946,-4.59907 -3.61634,-6.17285c-0.14598,-0.5141 3.12653,-1.26428 4.56343,-0.00097c1.42237,1.25053 1.58531,3.66731 3.19749,4.49759c0.83958,0.43239 1.89711,1.41749 2.35144,1.30775c1.55986,-0.37679 -0.35273,-7.24979 1.24478,-7.40174c2.34809,-0.22333 6.4134,-2.40701 6.88568,-0.33984c0.09048,0.39605 -4.3337,3.74124 -5.32026,7.15874c-0.98654,3.4175 0.10836,9.2136 0.66917,8.953c0.28242,-0.13125 1.64077,-0.32502 2.3004,-0.909c1.22026,-1.08033 1.79652,-2.15379 1.56414,-3.76693c-0.20644,-1.4331 -0.77353,-3.54668 -0.36425,-4.07913c0.44303,-0.57637 1.22162,0.48601 1.67159,1.4159c0.3924,0.81087 0.90971,1.98263 1.0052,1.9083c0.88105,-0.68576 -0.03863,-2.53331 0.01949,-3.57563c0.0772,-1.3847 0.73649,-2.71509 1.16874,-3.08468c0.98118,-0.8389 0.92487,-0.54272 1.55868,-0.7845c1.02996,-0.39292 0.40367,1.05789 0.55671,1.48719c0.00853,0.02392 -0.90162,2.08809 -1.05726,3.11931c-0.20705,1.37171 0.23311,3.82209 0.01287,5.23159c-0.24698,1.58078 -1.17184,2.07676 -1.76249,2.69465c-1.51325,1.58306 -3.02744,1.88434 -4.40847,3.75221c-1.17667,1.5915 -0.84657,3.10248 -0.68752,4.56957c0.16329,1.50632 0.16155,2.95159 -0.64855,3.24037c-0.90432,0.32236 -2.89784,1.30394 -4.17189,0.80825c-0.75837,-0.29506 -1.82646,-3.42232 -5.4637,-4.2426c-3.002,-0.67701 -8.2289,3.72173 -8.62453,3.10793c-0.52952,-0.82151 -1.21417,-5.51419 1.53369,-6.2319c0.24905,-0.06505 2.19012,-0.45953 4.081,-0.29487c2.57,0.2238 5.23792,1.03326 5.20934,0.95309z" data-paper-data="{&quot;index&quot;:null}" fill="#344e5f"/><path d="M246.61632,122.92144c-11.73517,5.92778 -11.13642,21.22018 -14.04265,15.46675c-0.73376,-1.45262 -7.15231,-1.65327 -7.7234,-6.26782c-0.23636,-1.91001 4.7914,-8.64945 4.8845,-10.09233c0.09768,-1.51398 -4.47444,2.17802 -4.7705,0.54084c-0.52573,-2.90705 -3.59363,-3.06446 -0.89327,-4.26255c0.8818,-0.39124 7.60719,-0.17144 10.4601,2.54241c0.49442,0.47031 3.18571,-6.01053 1.31319,-8.12947c-1.28708,-1.45647 -7.25389,1.95542 -7.42205,-0.19097c-0.39935,-5.09725 7.41578,-4.15529 8.41914,-4.64536c0.94786,-0.46294 0.44311,0.48957 2.13091,3.02089c3.28867,4.93226 6.99796,6.11751 7.45325,5.88753c0.74516,-0.3764 -7.32677,-10.53492 -7.55193,-15.36799c-0.07056,-1.51471 5.45046,5.43511 6.99241,5.16797c2.18366,-0.3783 0.66721,-7.58358 0.95935,-7.74693c4.43267,-2.47855 2.88501,12.41767 6.24798,15.15998c0.85372,0.69617 2.05522,-5.15407 3.35667,-10.58746c0.25874,-1.08024 -6.13017,-7.91622 -5.86547,-8.90878c0.40744,-1.52778 2.99703,0.5196 5.18446,1.07133c1.88215,0.47474 3.40017,-0.60931 3.7448,-0.78946c1.60565,-0.83935 0.09951,9.79518 1.32986,13.72644c1.2534,4.00488 5.23194,1.32286 5.62623,2.10344c2.90623,5.75342 -8.09837,6.37377 -19.83355,12.30156z" data-paper-data="{&quot;index&quot;:null}" fill="#344e5f"/><path d="M370.8965,27.60632c-0.14306,-0.5008 -1.43942,-1.92933 -3.20505,-2.93c-2.14507,-1.21573 -4.84703,-1.18622 -5.41239,-1.46801c-0.13892,-0.06924 -1.88296,-5.35434 -6.01344,-6.89515c-4.04949,-1.51061 -9.79563,-0.41939 -10.01657,-1.21229c-0.32811,-1.17754 4.36149,-0.38211 5.75137,-2.70513c0.85149,-1.42317 -2.11154,-6.65484 -0.65749,-6.47742c2.59194,0.31627 7.04655,8.79158 8.76656,8.53966c0.97578,-0.14292 -2.97429,-5.71526 -1.54573,-6.27416c0.06338,-0.0248 3.27249,0.95764 3.70254,1.9706c0.28556,0.67262 0.62836,1.93152 0.90642,2.98025c0.26961,1.01693 0.47931,1.81459 0.4574,3.05414c-0.04074,2.30649 4.2819,3.07695 6.06614,4.18845c1.64782,1.02652 1.30235,2.46581 3.4305,2.36583c0.50692,-0.02382 2.03788,-6.00875 0.60038,-7.4799c-0.79512,-0.8137 -6.51308,2.14266 -7.1652,0.40644c-0.52104,-1.38721 1.77099,-1.73995 1.25715,-4.01808c-0.55373,-2.45503 -3.38542,-5.65779 -3.79268,-7.54557c-0.13304,-0.61669 3.77881,-1.25257 5.37585,0.34443c1.58089,1.58085 1.58983,4.44019 3.42613,5.54036c0.9563,0.57293 2.1275,1.81349 2.67102,1.7186c1.86606,-0.32576 0.13346,-8.56708 2.02685,-8.6251c2.78301,-0.08528 7.73736,-2.34986 8.13718,0.12106c0.07661,0.47342 -5.38847,4.0791 -6.80942,8.03026c-1.42095,3.95116 -0.57004,10.86196 0.11034,10.59744c0.34265,-0.13325 1.95747,-0.25863 2.77873,-0.89663c1.51932,-1.18025 2.27944,-2.40117 2.12784,-4.31905c-0.13468,-1.70383 -0.64267,-4.23661 -0.12021,-4.83285c0.56554,-0.64544 1.40227,0.66503 1.86194,1.79453c0.40083,0.98493 0.9215,2.40445 1.03962,2.32411c1.08979,-0.74112 0.14631,-2.98719 0.2937,-4.21066c0.19581,-1.62535 1.0732,-3.14265 1.61039,-3.54529c1.21939,-0.91397 1.13061,-0.56931 1.89557,-0.80614c1.24308,-0.38486 0.39543,1.2768 0.54321,1.7941c0.00824,0.02881 -1.22022,2.39151 -1.48167,3.59452c-0.34777,1.60019 -0.01483,4.52014 -0.38099,6.16388c-0.41067,1.84349 -1.53772,2.35771 -2.28031,3.04087c-1.90251,1.75025 -3.70908,1.99053 -5.47739,4.08632c-1.50665,1.78568 -1.2322,3.59065 -1.15592,5.33095c0.07831,1.78683 -0.03321,3.48925 -1.00938,3.7681c-1.08969,0.31127 -3.51242,1.31663 -4.97573,0.63622c-0.87103,-0.405 -1.89246,-4.16986 -6.11507,-5.41157c-3.48513,-1.02484 -9.97557,3.76114 -10.39515,3.00812c-0.56157,-1.00785 -1.01276,-6.58776 2.27862,-7.22514c0.2983,-0.05776 2.61481,-0.37547 4.82982,-0.03831c3.01055,0.45825 6.0921,1.61381 6.0645,1.51721z" data-paper-data="{&quot;index&quot;:null}" fill="#344e5f"/><path d="M294.26106,84.65543c-0.14817,-0.41561 -1.32171,-1.55284 -2.86875,-2.30284c-1.8795,-0.9112 -4.16213,-0.73944 -4.65538,-0.94693c-0.12121,-0.05099 -1.8828,-4.42419 -5.4584,-5.50232c-3.5055,-1.057 -8.30394,0.17776 -8.5338,-0.48054c-0.34134,-0.97766 3.66642,-0.56006 4.71517,-2.59944c0.64251,-1.24941 -2.14669,-5.51119 -0.90781,-5.44022c2.2084,0.1265 6.43485,7.04939 7.87525,6.74296c0.81716,-0.17384 -2.82501,-4.67 -1.64769,-5.22012c0.05224,-0.0244 2.81857,0.63174 3.23718,1.46472c0.27796,0.5531 0.63618,1.59874 0.92824,2.47021c0.2832,0.84506 0.50381,1.50799 0.55265,2.55709c0.09089,1.9521 3.7871,2.36853 5.35587,3.21124c1.44884,0.77828 1.235,2.01381 3.02868,1.81364c0.42726,-0.04767 1.39628,-5.19049 0.10109,-6.35606c-0.71639,-0.64471 -5.38966,2.16531 -6.03531,0.73296c-0.51587,-1.14443 1.40261,-1.56718 0.84443,-3.46517c-0.60153,-2.04537 -3.16947,-4.59907 -3.61634,-6.17285c-0.14597,-0.51411 3.12652,-1.26428 4.56343,-0.00097c1.42237,1.25053 1.58531,3.66731 3.19749,4.49759c0.83958,0.4324 1.89713,1.4175 2.35145,1.30775c1.55986,-0.37678 -0.35274,-7.24978 1.24477,-7.40173c2.3481,-0.22333 6.41341,-2.40701 6.88569,-0.33984c0.09049,0.39605 -4.33369,3.74123 -5.32025,7.15874c-0.98654,3.41749 0.10836,9.21359 0.66917,8.95299c0.28242,-0.13125 1.64076,-0.32502 2.30039,-0.909c1.22026,-1.08033 1.79652,-2.15379 1.56414,-3.76693c-0.20645,-1.4331 -0.77353,-3.54668 -0.36426,-4.07913c0.44303,-0.57637 1.22162,0.48601 1.67159,1.4159c0.3924,0.81086 0.90969,1.98262 1.00519,1.90829c0.88105,-0.68576 -0.03864,-2.5333 0.01949,-3.57563c0.0772,-1.3847 0.73649,-2.71508 1.16874,-3.08468c0.98118,-0.8389 0.92486,-0.54272 1.55868,-0.7845c1.02996,-0.39292 0.40366,1.05789 0.55671,1.48719c0.00853,0.02392 -0.90162,2.08809 -1.05726,3.11931c-0.20705,1.3717 0.2331,3.82208 0.01286,5.23158c-0.24698,1.58078 -1.17184,2.07676 -1.76249,2.69465c-1.51326,1.58306 -3.02745,1.88435 -4.40848,3.75221c-1.17667,1.59151 -0.84658,3.10248 -0.68752,4.56957c0.16329,1.50632 0.16156,2.95159 -0.64855,3.24037c-0.90432,0.32237 -2.89784,1.30393 -4.17189,0.80825c-0.75836,-0.29505 -1.82647,-3.42232 -5.4637,-4.2426c-3.00199,-0.67701 -8.2289,3.72173 -8.62453,3.10793c-0.52951,-0.82151 -1.21416,-5.51419 1.5337,-6.2319c0.24904,-0.06504 2.19012,-0.45952 4.081,-0.29487c2.57,0.2238 5.23792,1.03326 5.20933,0.95309z" data-paper-data="{&quot;index&quot;:null}" fill="#344e5f"/><path d="M41.91057,224.34407c0.16971,-0.40728 0.06543,-2.03812 -0.57567,-3.63337c-0.77886,-1.93808 -2.58419,-3.34544 -2.80987,-3.83064c-0.05546,-0.11924 1.58033,-4.54103 -0.34196,-7.74292c-1.88459,-3.13912 -6.26704,-5.45081 -5.99466,-6.09268c0.40454,-0.95326 3.09081,2.05016 5.23821,1.2454c1.3156,-0.49303 2.11572,-5.52316 2.98518,-4.63777c1.54987,1.57826 0.02481,9.54466 1.29716,10.28612c0.72182,0.42065 1.04804,-5.35642 2.28945,-4.97222c0.05508,0.01705 1.66194,2.3625 1.41187,3.26058c-0.16605,0.59633 -0.6038,1.61126 -0.97344,2.45275c-0.35845,0.81599 -0.64078,1.45508 -1.30989,2.26459c-1.24503,1.50627 1.21138,4.29937 1.80625,5.97786c0.54939,1.55017 -0.43951,2.32109 1.02294,3.37872c0.34835,0.25194 4.52305,-2.90394 4.34776,-4.63753c-0.09695,-0.95889 -5.44571,-2.02024 -4.96078,-3.51468c0.38745,-1.19404 2.09192,-0.2173 2.95463,-1.99765c0.9297,-1.9186 0.74536,-5.53546 1.47252,-7.00097c0.23755,-0.47873 3.16455,1.16587 3.37904,3.06709c0.21232,1.88199 -1.29176,3.78071 -0.6564,5.47918c0.33088,0.88452 0.45155,2.32475 0.86167,2.54893c1.40809,0.76969 4.6126,-5.60425 5.89741,-4.64281c1.88847,1.41319 6.36607,2.52953 5.32604,4.37738c-0.19925,0.35404 -5.72338,-0.14367 -8.75119,1.72315c-3.02778,1.86682 -6.1137,6.89382 -5.52333,7.0779c0.29731,0.09269 1.43318,0.8624 2.3141,0.87351c1.62964,0.02054 2.77789,-0.38676 3.69031,-1.73721c0.81058,-1.19973 1.81164,-3.14568 2.47257,-3.26472c0.71545,-0.12887 0.57766,1.18104 0.28565,2.17195c-0.25461,0.86409 -0.65936,2.07933 -0.5387,2.0885c1.11326,0.08463 1.67443,-1.90142 2.41817,-2.63399c0.98803,-0.97321 2.37047,-1.51489 2.93894,-1.49793c1.29034,0.03855 1.04954,0.21996 1.6813,0.46706c1.02664,0.40151 -0.41234,1.05454 -0.58764,1.47524c-0.00977,0.02345 -2.07122,0.93972 -2.87969,1.59852c-1.07542,0.8763 -2.39686,2.98626 -3.50745,3.88167c-1.24553,1.00424 -2.26366,0.74968 -3.1163,0.81004c-2.18451,0.15467 -3.50803,-0.64021 -5.78612,-0.18581c-1.94101,0.38719 -2.7124,1.72769 -3.58092,2.92073c-0.89175,1.22493 -1.86463,2.29372 -2.6585,1.96291c-0.88619,-0.36928 -3.02191,-0.98278 -3.63187,-2.20623c-0.36308,-0.72825 0.94852,-3.76146 -1.19274,-6.81388c-1.76729,-2.51932 -8.59394,-2.7767 -8.4742,-3.49707c0.16026,-0.96415 2.8081,-4.89849 5.32487,-3.58254c0.2281,0.11926 1.9303,1.13213 3.21946,2.52519c1.75216,1.89339 3.18309,4.28618 3.21583,4.20761z" data-paper-data="{&quot;index&quot;:null}" fill="#344e5f"/><path d="M105.26532,233.5758c-0.08677,-0.43262 -1.08432,-1.72698 -2.50723,-2.69195c-1.7287,-1.17236 -4.01226,-1.33109 -4.4705,-1.60745c-0.1126,-0.06792 -1.22608,-4.64921 -4.60916,-6.231c-3.31675,-1.55079 -8.24298,-1.01988 -8.37565,-1.70442c-0.197,-1.01663 3.70886,-0.02624 5.04035,-1.89335c0.81574,-1.14387 -1.3307,-5.76288 -0.11494,-5.51425c2.16717,0.44319 5.35265,7.90255 6.82216,7.80673c0.83367,-0.05436 -2.12308,-5.02814 -0.87882,-5.40299c0.0552,-0.01662 2.69822,1.03104 2.99252,1.91562c0.19542,0.58737 0.39932,1.6737 0.56284,2.57814c0.15855,0.87703 0.28141,1.56481 0.17867,2.61002c-0.19117,1.94485 3.40655,2.88921 4.83762,3.94904c1.32167,0.9788 0.93213,2.17066 2.73594,2.23087c0.42966,0.01435 2.12918,-4.93532 1.01533,-6.27525c-0.61609,-0.74115 -5.6453,1.36661 -6.07796,-0.14379c-0.34568,-1.2068 1.61367,-1.34888 1.33462,-3.30746c-0.30072,-2.11068 -2.47415,-5.00754 -2.68974,-6.62928c-0.07042,-0.52977 3.27601,-0.80087 4.51601,0.65619c1.22745,1.44232 1.04067,3.85738 2.51649,4.91116c0.76856,0.54879 1.67321,1.6759 2.13861,1.63273c1.59786,-0.14823 0.69494,-7.22502 2.29767,-7.14534c2.35578,0.11712 6.69317,-1.45837 6.86286,0.65526c0.03251,0.40495 -4.82729,3.07819 -6.29569,6.318c-1.46838,3.2398 -1.21955,9.13316 -0.62706,8.95604c0.29838,-0.08921 1.67048,-0.08535 2.40732,-0.56826c1.36311,-0.89336 2.08795,-1.87264 2.09029,-3.50243c0.00208,-1.44789 -0.25474,-3.62111 0.22695,-4.08907c0.52141,-0.50656 1.1389,0.65687 1.45027,1.64186c0.27155,0.85891 0.61472,2.09295 0.71992,2.03315c0.97061,-0.55173 0.32656,-2.51246 0.53418,-3.53555c0.27579,-1.35915 1.11979,-2.58072 1.60076,-2.88422c1.09175,-0.68886 0.99338,-0.40388 1.6554,-0.55187c1.07581,-0.24052 0.24712,1.10498 0.33675,1.55185c0.005,0.0249 -1.19291,1.93649 -1.49543,2.93455c-0.40242,1.3276 -0.31972,3.81582 -0.74063,5.17891c-0.47204,1.52873 -1.45869,1.88637 -2.13216,2.41276c-1.72545,1.34864 -3.26724,1.42873 -4.90285,3.07826c-1.39358,1.40547 -1.28452,2.94823 -1.33839,4.42293c-0.05533,1.51414 -0.26516,2.94409 -1.10841,3.11321c-0.94131,0.18878 -3.05542,0.87304 -4.2448,0.19906c-0.70797,-0.40118 -1.3146,-3.64967 -4.7958,-4.98517c-2.8732,-1.10225 -8.67907,2.49795 -8.98218,1.83358c-0.40571,-0.8892 -0.40747,-5.63156 2.41511,-5.94609c0.2558,-0.0285 2.23346,-0.13936 4.08092,0.29588c2.51098,0.59156 5.03454,1.77676 5.01779,1.69331z" data-paper-data="{&quot;index&quot;:null}" fill="#344e5f"/><path d="M51.45652,232.15751c5.07594,-6.24221 -1.32314,-1.83191 7.69274,-0.63298c7.37235,0.98038 9.54503,-9.60311 18.20199,-1.60976c0.83638,0.77227 9.94803,10.61123 10.92462,11.23103c9.59085,6.08687 16.91008,-3.84816 21.90767,-2.11904c24.12822,8.34814 10.5294,16.0876 8.91363,20.75758c-1.61577,4.66996 0.08467,7.60367 -24.04355,-0.74447c-10.98545,-3.80086 -14.11386,-9.15663 -26.43906,-14.44419c-14.74563,-6.32594 -16.98164,-4.66992 -16.10151,-7.21368z" data-paper-data="{&quot;index&quot;:null}" fill="#344e5f"/><path d="M430.29361,-18.90889c0.4337,0.28839 2.34695,0.53488 4.33986,0.15134c2.42121,-0.46595 4.45862,-2.24089 5.0717,-2.3931c0.15065,-0.0374 4.90598,2.85409 9.04919,1.34784c4.06197,-1.4767 7.7278,-6.03418 8.41023,-5.57398c1.01348,0.68346 -3.07184,3.11968 -2.62303,5.78928c0.27496,1.6355 5.92346,3.69569 4.70166,4.50374c-2.17795,1.4404 -11.06555,-2.1212 -12.21131,-0.81387c-0.65,0.74167 5.97072,2.42096 5.2459,3.77292c-0.03216,0.05998 -3.11192,1.39363 -4.09625,0.90156c-0.6536,-0.32674 -1.73104,-1.0626 -2.62288,-1.68047c-0.86479,-0.59915 -1.54176,-1.07027 -2.32905,-2.02794c-1.46497,-1.78197 -5.25479,0.43525 -7.33375,0.7465c-1.92001,0.28745 -2.59058,-1.0321 -4.14554,0.4243c-0.37038,0.34692 2.34615,5.89523 4.39446,6.08261c1.13296,0.10362 3.56761,-5.8552 5.19006,-4.95667c1.29632,0.71791 -0.21944,2.473 1.64925,3.87368c2.01378,1.50946 6.24638,2.11057 7.78076,3.28327c0.50124,0.38309 -2.06378,3.40429 -4.31514,3.22459c-2.2286,-0.17788 -4.08996,-2.34842 -6.2012,-1.99478c-1.09947,0.18417 -2.79554,-0.00043 -3.14768,0.42432c-1.20903,1.45826 5.45499,6.60725 4.0515,7.87946c-2.06293,1.86995 -4.36506,6.80697 -6.272,5.18559c-0.36537,-0.31065 1.45566,-6.59968 -0.02551,-10.52866c-1.48117,-3.92898 -6.61114,-8.63713 -6.95743,-7.9945c-0.17438,0.32366 -1.32215,1.46645 -1.53344,2.48472c-0.3909,1.88375 -0.17756,3.30604 1.18175,4.66748c1.20761,1.20948 3.237,2.80778 3.22606,3.60047c-0.01182,0.85807 -1.49865,0.40333 -2.58111,-0.15823c-0.9439,-0.48969 -2.26089,-1.23243 -2.29869,-1.09467c-0.34879,1.27093 1.82612,2.36855 2.50747,3.39537c0.90515,1.36411 1.22145,3.08805 1.07373,3.74293c-0.33532,1.48654 -0.49129,1.16663 -0.91992,1.84304c-0.69653,1.09919 -1.1291,-0.71533 -1.5771,-1.01322c-0.02496,-0.01659 -0.62237,-2.61169 -1.20364,-3.69692c-0.77318,-1.44352 -2.92046,-3.45004 -3.70788,-4.93864c-0.8831,-1.66951 -0.35878,-2.79189 -0.23667,-3.79351c0.31286,-2.56614 1.53206,-3.92076 1.51866,-6.66285c-0.01143,-2.33635 -1.39101,-3.53216 -2.57782,-4.80729c-1.21854,-1.30923 -2.23783,-2.67733 -1.6757,-3.52271c0.62751,-0.94368 1.81946,-3.28027 3.37454,-3.71148c0.92565,-0.25669 4.14496,1.94638 8.1643,0.15272c3.31736,-1.4804 5.15329,-9.33283 5.96105,-9.03182c1.08112,0.40288 5.04364,4.3573 2.95186,6.9772c-0.18959,0.23744 -1.74669,1.98173 -3.65129,3.16175c-2.58864,1.60384 -5.68361,2.72299 -5.59995,2.77861z" data-paper-data="{&quot;index&quot;:null}" fill="#344e5f"/><path d="M445.36881,-13.90227c1.34699,2.33046 -1.16271,1.12899 -14.4394,10.13901c-11.09739,7.53105 -13.15226,13.3833 -23.21647,19.20038c-22.10481,12.77649 -20.99219,9.57335 -23.46506,5.29501c-2.47287,-4.27835 -17.29359,-9.29569 4.81124,-22.0722c4.57849,-2.64635 13.65057,5.71864 21.91159,-2.07813c0.84118,-0.79392 7.91947,-12.1836 8.59403,-13.10059c6.9822,-9.49133 11.12442,0.48729 18.17662,-1.87472c8.62437,-2.88858 1.50444,-6.00399 7.67302,-0.83881z" data-paper-data="{&quot;index&quot;:null}" fill="#344e5f"/><path d="" data-paper-data="{&quot;index&quot;:null}" fill="#ffffff"/><path d="" data-paper-data="{&quot;index&quot;:null}" fill="#ffffff"/><path d="" data-paper-data="{&quot;index&quot;:null}" fill="#ffffff"/><path d="" data-paper-data="{&quot;index&quot;:null}" fill="#ffffff"/><path d="M-117.65903,448.56235v-536.0106h718.22836v536.0106z" fill="none"/><path d="M182.63051,187.57009c-0.10649,-0.42818 -1.16228,-1.67551 -2.62789,-2.57429c-1.78057,-1.09194 -4.06901,-1.14592 -4.53942,-1.401c-0.1156,-0.06269 -1.43774,-4.58817 -4.88972,-6.01335c-3.38429,-1.39725 -8.28106,-0.64128 -8.44493,-1.31902c-0.24336,-1.00654 3.70376,-0.19609 4.94834,-2.12222c0.76249,-1.18004 -1.59324,-5.69589 -0.36738,-5.5032c2.18518,0.34347 5.70898,7.6491 7.17256,7.48607c0.83031,-0.09248 -2.35115,-4.92562 -1.12536,-5.35706c0.05439,-0.01914 2.74261,0.90638 3.07712,1.77654c0.22211,0.5778 0.47556,1.65365 0.68033,2.54965c0.19855,0.86885 0.35278,1.55029 0.29802,2.59911c-0.10189,1.95156 3.5353,2.73014 5.01341,3.72331c1.36511,0.91725 1.03057,2.12569 2.83524,2.10322c0.42988,-0.00534 1.9009,-5.02767 0.72685,-6.31517c-0.64939,-0.71215 -5.57679,1.62374 -6.07817,0.13474c-0.4006,-1.18969 1.55019,-1.42136 1.18173,-3.36511c-0.39707,-2.09468 -2.7009,-4.88897 -2.99054,-6.49912c-0.0946,-0.52599 3.23589,-0.95008 4.54133,0.44865c1.29224,1.38459 1.21626,3.80567 2.73879,4.79075c0.7929,0.51301 1.74823,1.59751 2.21116,1.53307c1.5894,-0.22126 0.36329,-7.24926 1.96799,-7.24307c2.35867,0.0091 6.61935,-1.76339 6.88567,0.34025c0.05104,0.40304 -4.68122,3.29604 -5.99969,6.59972c-1.31844,3.30366 -0.79996,9.17944 -0.2162,8.97536c0.29397,-0.10279 1.6648,-0.16178 2.37876,-0.67793c1.32076,-0.95485 1.99998,-1.9663 1.92768,-3.59449c-0.06424,-1.44647 -0.42032,-3.60565 0.03942,-4.09517c0.49766,-0.52992 1.16779,0.604 1.52395,1.57371c0.3106,0.84558 0.70994,2.06261 0.81229,1.99805c0.94434,-0.5956 0.21115,-2.52478 0.37169,-3.5563c0.21326,-1.37035 1.00042,-2.62929 1.46699,-2.95451c1.05906,-0.73815 0.97383,-0.44896 1.62839,-0.62711c1.06366,-0.28953 0.29747,1.09252 0.40747,1.5348c0.00613,0.02465 -1.10297,1.98909 -1.35945,2.99996c-0.34119,1.34463 -0.14461,3.82646 -0.50265,5.20739c-0.40152,1.54875 -1.37076,1.9512 -2.01941,2.50788c-1.66186,1.42626 -3.19837,1.57689 -4.75672,3.2996c-1.32775,1.46783 -1.14814,3.00397 -1.13441,4.47959c0.01408,1.51508 -0.13004,2.95315 -0.96466,3.16071c-0.93167,0.2317 -3.01222,1.01208 -4.23123,0.39327c-0.72561,-0.36834 -1.48039,-3.58563 -5.0191,-4.76028c-2.92068,-0.9695 -8.55555,2.89284 -8.88877,2.24305c-0.446,-0.86969 -0.66496,-5.607 2.14024,-6.05047c0.25424,-0.0402 2.22474,-0.2415 4.0902,0.10865c2.53545,0.47593 5.11062,1.54432 5.09008,1.46172z" data-paper-data="{&quot;index&quot;:null}" fill="#344e5f"/><path d="M150.20072,198.59848c0.23178,0.22081 1.3636,0.57402 2.61084,0.55435c1.51527,-0.02389 2.93781,-0.88104 3.32514,-0.90782c0.09519,-0.00658 2.66534,2.25071 5.33389,1.78073c2.61623,-0.46076 5.32115,-2.82861 5.68515,-2.47728c0.54059,0.52178 -2.19206,1.56087 -2.20503,3.22466c-0.00795,1.01932 3.19149,2.86864 2.36576,3.22749c-1.47191,0.63969 -6.47195,-2.46383 -7.30489,-1.79465c-0.47255,0.37963 3.35603,2.10206 2.77313,2.84313c-0.02587,0.03288 -2.03228,0.51178 -2.57564,0.10898c-0.36079,-0.26747 -0.93453,-0.82777 -1.40849,-1.29687c-0.45959,-0.45489 -0.81913,-0.81224 -1.19358,-1.47588c-0.69676,-1.23485 -3.22721,-0.29682 -4.51881,-0.33009c-1.19286,-0.03073 -1.45806,-0.90097 -2.55458,-0.18519c-0.2612,0.17049 0.79158,3.81862 2.01146,4.15043c0.67475,0.18354 2.78383,-3.16384 3.67012,-2.44695c0.70814,0.57279 -0.39649,1.47353 0.58529,2.52064c1.05802,1.12842 3.55598,1.94356 4.35972,2.81702c0.26255,0.28533 -1.61222,1.84064 -2.95584,1.49181c-1.33003,-0.3453 -2.22531,-1.85763 -3.54097,-1.86867c-0.68516,-0.00575 -1.69213,-0.29832 -1.95058,-0.07877c-0.88734,0.75379 2.59748,4.58109 1.61229,5.20153c-1.4481,0.91196 -3.36802,3.65492 -4.34944,2.47016c-0.18804,-0.22699 1.58482,-3.83965 1.10716,-6.37586c-0.47766,-2.53619 -3.0809,-5.93308 -3.35903,-5.58101c-0.14006,0.17731 -0.95667,0.7467 -1.19314,1.34054c-0.43745,1.09857 -0.45998,1.98224 0.21767,2.95129c0.60202,0.86089 1.66003,2.04475 1.56889,2.5234c-0.09865,0.51814 -0.95016,0.08436 -1.54551,-0.37099c-0.51916,-0.39705 -1.23716,-0.98706 -1.27473,-0.90771c-0.34666,0.73212 0.85283,1.62843 1.15577,2.32263c0.40246,0.92222 0.4101,1.99946 0.25087,2.38013c-0.36147,0.86405 -0.42177,0.65378 -0.75335,1.01752c-0.5388,0.59109 -0.60717,-0.55339 -0.84659,-0.78148c-0.01335,-0.01272 -0.09825,-1.64726 -0.3344,-2.36614c-0.3141,-0.95623 -1.39994,-2.39974 -1.71784,-3.38477c-0.35656,-1.10472 0.08049,-1.72823 0.2612,-2.32149c0.46298,-1.51997 1.3454,-2.20993 1.62967,-3.8712c0.24218,-1.41546 -0.46538,-2.28639 -1.04781,-3.18479c-0.598,-0.92242 -1.06914,-1.85922 -0.63873,-2.31101c0.48047,-0.50432 1.45112,-1.7916 2.43841,-1.88681c0.58768,-0.05668 2.30147,1.62012 4.92568,0.96296c2.16589,-0.54239 4.11447,-5.09983 4.57133,-4.8315c0.61146,0.35914 2.58839,3.1753 1.04287,4.53814c-0.14007,0.12352 -1.26858,1.01334 -2.54728,1.52456c-1.73796,0.69481 -3.73072,1.04224 -3.686,1.08483z" data-paper-data="{&quot;index&quot;:null}" fill="#344e5f"/></g></g></svg>