<svg version="1.1" xmlns="http://www.w3.org/2000/svg" xmlns:xlink="http://www.w3.org/1999/xlink" width="51.81665" height="51.81832" viewBox="0,0,51.81665,51.81832"><g transform="translate(-214.04461,-154.09084)"><g data-paper-data="{&quot;isPaintingLayer&quot;:true}" fill-rule="nonzero" stroke-linecap="butt" stroke-linejoin="miter" stroke-miterlimit="10" stroke-dasharray="" stroke-dashoffset="0" style="mix-blend-mode: normal"><path d="M215.04463,198.7261c0,-11.25908 0,-34.36061 0,-38.83371c0,-1.96596 2.20029,-4.88183 5.04715,-4.79986c6.01019,0.17305 28.98107,0 38.72378,0c3.13463,0 5.92554,1.84509 6.0457,4.68375c0.21175,5.00233 0,27.097 0,38.60767c0,3.94876 -2.69927,6.52521 -6.79115,6.52521c-11.1123,0 -32.49513,0 -37.97835,0c-2.51898,0 -5.04715,-2.43555 -5.04715,-6.18307z" fill="#0a0d10" stroke="#bf1111" stroke-width="2"/><path d="M230.29835,171.78023v5.5149h2.78458v-5.77384l3.24172,-8.13913h-2.82945l-1.72338,5.56062h-0.17476l-1.80707,-5.56062h-2.8054zM236.6193,174.83846c0,0.89712 0.32749,1.6099 0.98118,2.13993c0.65455,0.52996 1.52646,0.795 2.6166,0.795c1.13128,0 2.02077,-0.25741 2.66653,-0.77065c0.64502,-0.5133 0.9686,-1.2215 0.9686,-2.12314v-5.44489c0,-0.80422 -0.32889,-1.46066 -0.98844,-1.97084c-0.6579,-0.51018 -1.50241,-0.76607 -2.53358,-0.76607c-1.13238,0 -2.03365,0.24215 -2.70413,0.72645c-0.67133,0.48436 -1.00675,1.13317 -1.00675,1.94954zM239.18377,169.29457c0,-0.23 0.0948,-0.41581 0.28518,-0.55743c0.18959,-0.14168 0.43712,-0.21328 0.74061,-0.21328c0.32975,0 0.59595,0.0716 0.79848,0.21328c0.20254,0.14162 0.3046,0.32743 0.3046,0.55743v5.74185c0,0.28329 -0.0998,0.50573 -0.29855,0.66865c-0.19838,0.16145 -0.46684,0.24063 -0.80452,0.24063c-0.32938,0 -0.58258,-0.07764 -0.76003,-0.23605c-0.17787,-0.15993 -0.26577,-0.3823 -0.26577,-0.67322zM250.47043,166.86689v8.00355c-0.23379,0.23 -0.49114,0.41887 -0.77217,0.56659c-0.27932,0.14772 -0.51165,0.22237 -0.69587,0.22237c-0.23379,0 -0.40281,-0.05634 -0.50799,-0.16756c-0.10432,-0.11268 -0.15688,-0.29239 -0.15688,-0.54369v-8.08126h-2.49628v8.81229c0,0.6275 0.14619,1.09807 0.43864,1.41189c0.29245,0.31375 0.7281,0.47063 1.30525,0.47063c0.46764,0 0.95121,-0.11268 1.44845,-0.33506c0.4981,-0.22549 0.97629,-0.55132 1.43697,-0.98087v1.16363h2.49555v-10.54251z" fill="#f1f1f1" stroke="none" stroke-width="1"/><g stroke="none"><path d="M227.12462,194.89375v-12.15773h25.75075v12.15773z" fill="#f1f1f1" stroke-width="0"/><path d="M250.29679,188.24999v0.65644h-1.55491v-0.65644c0,-0.3168 0.06092,-0.54376 0.18276,-0.68079c0.12184,-0.13557 0.32285,-0.20559 0.60303,-0.20559c0.26803,0 0.46306,0.07001 0.58563,0.20559c0.12257,0.13704 0.18349,0.36399 0.18349,0.68079zM242.32064,192.2449v-4.60263c0.11958,-0.10352 0.24062,-0.18123 0.3632,-0.23147c0.12269,-0.04877 0.24679,-0.07313 0.37248,-0.07313c0.23763,0 0.42106,0.0655 0.54675,0.19802c0.12483,0.13252 0.18727,0.32596 0.18727,0.58178v3.79543c0,0.24062 -0.0503,0.41575 -0.15224,0.52087c-0.10206,0.10658 -0.25894,0.1584 -0.47521,0.1584c-0.14925,0 -0.29092,-0.02588 -0.42491,-0.0807c-0.13484,-0.05335 -0.27414,-0.14168 -0.41734,-0.26657zM254.50644,188.81505c0.0061,1.44686 -0.05396,2.89372 -0.19252,4.34065c0,1.82611 -1.87727,3.30795 -4.19073,3.30795c-3.30038,0.10969 -6.67768,0.15846 -10.12321,0.15388c-3.44438,0.00458 -6.82173,-0.04419 -10.12327,-0.15388c-2.3123,0 -4.18945,-1.48184 -4.18945,-3.30795c-0.13899,-1.44692 -0.19912,-2.89378 -0.19381,-4.34065c-0.00537,-1.44692 0.05482,-2.89379 0.19381,-4.33912c0,-1.8277 1.87715,-3.3096 4.18945,-3.3096c3.30154,-0.11128 6.67889,-0.15999 10.12327,-0.15388c3.44554,-0.00604 6.82283,0.04266 10.12321,0.15388c2.31347,0 4.19073,1.48196 4.19073,3.3096c0.13856,1.44534 0.19863,2.8922 0.19252,4.33912zM231.77472,185.02878h2.05117v-0.1081v-1.37984v-0.1081h-6.08411v0.1081v1.37984v0.1081h2.05075v8.65694v0.10969h1.98219v-0.10969zM238.82603,186.12227h-1.75988v0.10816v5.63369c-0.16567,0.16451 -0.3469,0.30002 -0.54412,0.40666c-0.19802,0.10511 -0.36137,0.1584 -0.4912,0.1584c-0.16487,0 -0.28439,-0.03962 -0.35868,-0.12031c-0.07343,-0.07923 -0.10999,-0.21017 -0.10999,-0.38841v-5.69003v-0.10816h-1.76068v0.10816v6.21242v0.10969c0,0.45085 0.10322,0.78896 0.30997,1.01432c0.20638,0.2239 0.51293,0.33664 0.91959,0.33664c0.33048,0 0.67091,-0.08076 1.02232,-0.24062c0.35062,-0.16145 0.68763,-0.39451 1.0128,-0.70362v0.72645v0.10969h1.75988v-0.10969v-7.45528zM245.60204,187.92262c0,-0.61841 -0.14699,-1.08904 -0.44017,-1.41189c-0.29312,-0.32291 -0.71962,-0.48436 -1.27552,-0.48436c-0.27249,0 -0.5429,0.06092 -0.8102,0.18123c-0.26657,0.11879 -0.51781,0.29392 -0.75545,0.52545v-3.19228v-0.1081h-1.77661v0.1081v10.14488v0.10969h1.77661v-0.10969v-0.47216c0.23153,0.23001 0.48204,0.40062 0.75234,0.51177c0.26968,0.10969 0.57568,0.1645 0.91989,0.1645c0.52087,0 0.91989,-0.14314 1.19568,-0.42643c0.2756,-0.28634 0.41343,-0.69752 0.41343,-1.23517v-0.10969v-4.08629zM252.1085,188.26372v-0.1081c0,-0.71736 -0.21694,-1.26868 -0.64795,-1.65105c-0.43266,-0.38224 -1.05094,-0.57415 -1.85663,-0.57415c-0.78737,0 -1.43093,0.20711 -1.92818,0.61987c-0.49657,0.41429 -0.7455,0.94889 -0.7455,1.60533v0.1081v3.28671v0.10963c0,0.72657 0.22689,1.2992 0.67921,1.71502c0.45317,0.41575 1.07299,0.62439 1.86115,0.62439c0.87649,0 1.53519,-0.19491 1.97621,-0.58789c0.44163,-0.39292 0.66169,-0.9763 0.66169,-1.75152v-0.10963v-0.45842v-0.10963h-1.81171v0.10963v0.41575c0,0.44475 -0.05787,0.73262 -0.1736,0.86209c-0.11647,0.13099 -0.32132,0.19649 -0.61304,0.19649c-0.28018,0 -0.4782,-0.07764 -0.59467,-0.23153c-0.11579,-0.15383 -0.1736,-0.42949 -0.1736,-0.82705v-1.31733h3.36655v-0.10969v-1.81702z" fill="#bf1111" stroke-width="1"/></g></g></g></svg>