<svg version="1.1" xmlns="http://www.w3.org/2000/svg" xmlns:xlink="http://www.w3.org/1999/xlink" width="23.09682" height="23.09682" viewBox="0,0,23.09682,23.09682"><g transform="translate(-228.45159,-168.4516)"><g data-paper-data="{&quot;isPaintingLayer&quot;:true}" fill-rule="nonzero" stroke="none" stroke-linejoin="miter" stroke-miterlimit="10" stroke-dasharray="" stroke-dashoffset="0" style="mix-blend-mode: normal"><path d="M228.45159,187.24309c0,-4.96018 0,-12.75754 0,-15.3257c0,-1.62693 1.76534,-3.46579 3.34533,-3.46579c2.7163,0 11.47646,0 16.36827,0c2.02211,0 3.38322,1.90287 3.38322,3.57005c0,2.59849 0,10.40616 0,15.3257c0,2.46229 -1.50575,4.20107 -3.69599,4.20107c-4.81175,0 -12.92714,0 -15.63847,0c-1.74047,0 -3.76235,-1.78699 -3.76235,-4.30532z" fill-opacity="0.50315" fill="#f7f7f7" stroke-width="0" stroke-linecap="butt"/><path d="M237.50204,174.79228h4.98346c0.25748,0 0.47343,0.08306 0.64785,0.24917c0.17442,0.16612 0.26163,0.37791 0.26163,0.63539c0,0.24087 -0.08721,0.44021 -0.26163,0.59802c-0.17442,0.15781 -0.39037,0.23671 -0.64785,0.23671h-4.16119l0.13705,-0.26163v2.90287l-0.12459,-0.12459h3.48843c0.25748,0 0.46927,0.08306 0.63539,0.24917c0.17442,0.16612 0.26163,0.37791 0.26163,0.63539c0,0.24917 -0.08721,0.45267 -0.26163,0.61047c-0.16612,0.1495 -0.37791,0.22426 -0.63539,0.22426h-3.43859l0.07475,-0.12459v3.00254l-0.12459,-0.12459h4.14873c0.25748,0 0.47343,0.08721 0.64785,0.26163c0.17442,0.16612 0.26163,0.36546 0.26163,0.59802c0,0.24917 -0.08721,0.45267 -0.26163,0.61047c-0.17442,0.15781 -0.39037,0.23671 -0.64785,0.23671h-4.98346c-0.25748,0 -0.47343,-0.08721 -0.64785,-0.26163c-0.16612,-0.17442 -0.24917,-0.39037 -0.24917,-0.64785v-8.59648c0,-0.25748 0.08306,-0.47343 0.24917,-0.64785c0.17442,-0.17442 0.39037,-0.26163 0.64785,-0.26163z" fill="#2b353e" stroke-width="1" stroke-linecap="square"/></g></g></svg>