<svg version="1.1" xmlns="http://www.w3.org/2000/svg" xmlns:xlink="http://www.w3.org/1999/xlink" width="192" height="52" viewBox="0,0,192,52"><defs><linearGradient x1="169.96192" y1="165.16931" x2="169.96192" y2="194.83069" gradientUnits="userSpaceOnUse" id="color-1"><stop offset="0" stop-color="#f4abba"/><stop offset="1" stop-color="#dd2e44"/></linearGradient><linearGradient x1="261.32713" y1="173.30306" x2="261.32713" y2="186.69695" gradientUnits="userSpaceOnUse" id="color-2"><stop offset="0" stop-color="#f3a8b7"/><stop offset="1" stop-color="#de3147"/></linearGradient></defs><g transform="translate(-144,-154.14706)"><g data-paper-data="{&quot;isPaintingLayer&quot;:true}" fill-rule="nonzero" stroke-linejoin="miter" stroke-miterlimit="10" stroke-dasharray="" stroke-dashoffset="0" style="mix-blend-mode: normal"><path d="M144,200.43473c0,-10.92171 0,-34.22737 0,-40.37037c0,-3.53261 2.14349,-5.9173 5.67611,-5.9173c15.91527,0 142.90023,0 177.59259,0c5.5442,0 8.7313,4.46151 8.7313,8.3247c0,5.82275 0,22.89413 0,33.88889c0,5.71375 -3.3299,9.78641 -9.10167,9.78641c-34.95274,0 -159.45596,0 -176.2963,0c-3.70264,0 -6.60203,-2.22479 -6.60203,-5.71233z" fill-opacity="0.80154" fill="#181a1e" stroke="none" stroke-width="0" stroke-linecap="butt"/><g stroke-linecap="butt"><path d="M155.10372,191.14935c0,-6.70355 0,-20.458 0,-23.12124c0,-1.17051 1.31003,-2.9066 3.00503,-2.85779c3.57841,0.10303 17.25507,0 23.05579,0c1.86633,0 3.52801,1.09855 3.59956,2.78866c0.12607,2.97834 0,16.13331 0,22.98666c0,2.35106 -1.60712,3.88505 -4.04339,3.88505c-6.61616,0 -19.34731,0 -22.61197,0c-1.49978,0 -3.00503,-1.4501 -3.00503,-3.68134z" fill="#0a0d10" stroke="url(#color-1)" stroke-width="2"/><g stroke="none" stroke-width="1"><path d="M176.09848,184.47279c0.00154,0.14504 -0.03587,0.33467 -0.07483,0.49099c-0.27215,1.09934 -1.48065,2.33297 -3.18169,2.22072c-1.54164,-0.10148 -2.7973,-0.84155 -2.7973,-1.87939c0,-1.03784 1.25258,-1.87939 2.7973,-1.87939c1.54472,0 3.24678,0.00923 3.25651,1.04707z" fill="#ea596e"/><path d="M176.02365,184.96481c0,0 -0.01692,0.12249 -0.09891,0.2988c-1.9086,-0.01076 -2.99462,-0.45921 -3.57427,-0.39515c-1.16392,0.12813 -1.82506,0.93482 -2.23148,1.04348c-0.92868,0.24806 -1.44426,-0.26907 -1.44426,-0.26907c-0.23473,-0.1927 -0.38131,-0.45101 -0.38131,-0.737c0,-0.59452 0.6227,-1.07628 1.39045,-1.07628c0.43461,0 2.32835,-0.22961 3.15811,-0.22961c1.54472,0 3.18169,0.32596 3.18169,1.36483z" fill="#dd2e44"/><path d="M172.05167,184.19501c-0.59811,0 -1.62313,0.72623 -4.05758,1.15316c-1.97523,0.55505 -3.07509,-0.93995 -3.37388,-1.75126c-1.28129,-0.2988 -3.2888,-0.81131 -3.54455,-3.67267c-0.04612,-0.512 0.20347,-3.66089 3.50201,-5.6802c1.04655,-0.64064 2.47749,-0.93944 2.90442,-1.06757c2.58205,-0.77492 4.46297,-0.08559 4.46297,-0.08559c0,0 2.00752,-0.04254 3.13915,1.28129c0,0 1.44119,0.41616 2.0926,1.96447c0,0 1.0035,0.67242 1.11062,2.29555c0,0 1.07833,1.4417 0.25626,2.97925c0,0 0.1066,1.14239 -0.7047,2.20996c-0.69599,0.91535 -1.81533,1.14239 -1.81533,1.14239c-1.70821,-0.12813 -3.37388,-0.76877 -3.97199,-0.76877z" fill="#f4abba"/><g fill="#ea596e"><path d="M168.0433,180.75604c-0.7001,0.06509 -1.42325,0.13223 -1.91731,0.4505c-0.52687,0.34082 -1.11985,0.99018 -1.17519,1.61186c-0.01168,0.13226 -0.12245,0.23369 -0.25523,0.2337l-0.02307,-0.00102c-0.14095,-0.01247 -0.24512,-0.13683 -0.23268,-0.27779c0.02177,-0.21173 0.07912,-0.41827 0.16964,-0.61092c-0.69138,-0.16452 -1.66874,-0.70778 -1.91271,-1.94448c-0.01896,0.00102 -0.0369,0.00974 -0.05587,0.00974c-0.15478,0 -0.31059,-0.041 -0.45614,-0.12198c-0.12369,-0.06878 -0.16821,-0.22481 -0.09942,-0.34851c0.06878,-0.12369 0.22481,-0.16821 0.34851,-0.09942c0.09941,0.05928 0.21971,0.07238 0.32955,0.03587c0.10841,-0.04089 0.19346,-0.12724 0.23268,-0.23627c0.05208,-0.13162 0.201,-0.1961 0.33262,-0.14402c0.13162,0.05208 0.1961,0.201 0.14402,0.33262c-0.06406,0.16195 -0.16759,0.29316 -0.29572,0.39259c0.20603,1.30999 1.38635,1.60058 1.70872,1.65594c0.26244,-0.36188 0.58859,-0.67292 0.9625,-0.91791c0.53199,-0.34287 1.21158,-0.43871 1.89015,-0.50534c-0.96455,-1.59443 -0.45768,-3.02025 -0.19066,-3.56249c-0.19322,-0.09584 -0.3644,-0.23884 -0.48586,-0.42897c-0.06836,-0.11856 -0.0315,-0.26991 0.08372,-0.34375c0.11522,-0.07385 0.26814,-0.04412 0.3473,0.06751c0.20939,0.31917 0.62913,0.42343 0.96353,0.23934c0.12253,-0.06418 0.27387,-0.01953 0.34196,0.10086c0.06809,0.1204 0.02834,0.2731 -0.0898,0.34503c-0.18655,0.10557 -0.39259,0.15581 -0.59759,0.15581c-0.01948,0 -0.03793,-0.00615 -0.05689,-0.00717c-0.19373,0.33724 -0.87128,1.7528 0.25472,3.37798c0.50636,-0.05125 0.97378,-0.11942 1.3146,-0.30341c1.32844,-0.71701 2.08901,-0.6473 2.70146,-0.59042c0.1599,0.01486 0.31417,0.03024 0.46792,0.02563c0.85795,-0.01948 1.55036,-0.3726 1.83121,-0.6924c0.09504,-0.09985 0.25196,-0.10683 0.3555,-0.01583c0.10354,0.09101 0.11674,0.24753 0.02991,0.3546c-0.3644,0.41462 -1.18801,0.84309 -2.20484,0.86615c-0.17374,0.00102 -0.34543,-0.01179 -0.52687,-0.02819c-0.57094,-0.05176 -1.21774,-0.11173 -2.41087,0.53148c-0.50278,0.27164 -1.14444,0.33108 -1.82353,0.3931zM175.81967,177.31963c-0.11747,-0.07897 -0.14868,-0.23822 -0.0697,-0.35569c0.07897,-0.11747 0.23822,-0.14868 0.35569,-0.0697c1.74921,1.17622 0.8149,2.92646 0.80516,2.94388c-0.06793,0.12426 -0.22374,0.16992 -0.34799,0.10199c-0.12426,-0.06793 -0.16992,-0.22374 -0.10199,-0.34799c0.02973,-0.05535 0.71393,-1.36124 -0.64115,-2.27249zM165.61027,175.31483c-0.04383,-0.08539 -0.03627,-0.18811 0.01959,-0.26616c0.78056,-1.0855 1.9168,-1.0281 2.40882,-0.84565c0.128,0.05203 0.1917,0.19618 0.14401,0.32585c-0.0477,0.12968 -0.18961,0.19819 -0.32083,0.15488c-0.04356,-0.0164 -1.07269,-0.37004 -1.81584,0.66371c-0.04799,0.06715 -0.12554,0.10688 -0.20808,0.1066c-0.09598,-0.00011 -0.18384,-0.05385 -0.22768,-0.13924zM172.26206,174.25095c-0.01104,-0.1411 0.0944,-0.26444 0.2355,-0.27548c1.47809,-0.11276 2.13719,0.97736 2.16486,1.024c0.07176,0.12214 0.03091,0.27932 -0.09123,0.35107c-0.12214,0.07176 -0.27932,0.03091 -0.35107,-0.09123c-0.02358,-0.03895 -0.54224,-0.86564 -1.68259,-0.77287c-0.1411,0.01104 -0.26444,-0.0944 -0.27548,-0.2355zM177.46177,182.25156c-0.0041,0.04972 -0.11378,1.22132 -1.32946,1.62006c-0.0258,0.00849 -0.05279,0.01281 -0.07996,0.01281c-0.12698,0.00189 -0.23611,-0.08968 -0.2563,-0.21506c-0.02019,-0.12538 0.05468,-0.24658 0.17584,-0.28464c0.89639,-0.29469 0.97788,-1.16648 0.9789,-1.17571c0.01128,-0.14145 0.15017,-0.2414 0.27624,-0.23422c0.14106,0.01196 0.24596,0.13564 0.23473,0.27676z"/><path d="M164.90568,178.89561c-0.68831,-1.17776 -0.55146,-2.31503 -0.5448,-2.36474c0.02012,-0.13937 0.14837,-0.2368 0.28803,-0.21884c0.13994,0.01936 0.23808,0.14794 0.21987,0.28803c-0.00154,0.01076 -0.11788,1.01836 0.47971,2.04032c0.20533,-0.07211 0.42634,-0.08734 0.63962,-0.04408c0.13855,0.02901 0.22736,0.16485 0.19834,0.30341c-0.02901,0.13855 -0.16485,0.22736 -0.30341,0.19834c-0.37482,-0.07549 -0.7443,0.15131 -0.84668,0.51969c-0.02125,0.0912 -0.09056,0.16355 -0.18077,0.1887c-0.09021,0.02514 -0.18695,-0.00092 -0.25231,-0.06798c-0.06536,-0.06706 -0.08895,-0.16444 -0.0615,-0.25398c0.06177,-0.22736 0.18818,-0.43192 0.36389,-0.58888zM169.91331,178.2021c-0.095,-0.10182 -0.09129,-0.26088 0.00835,-0.35817c0.14453,-0.13349 0.32407,-0.22309 0.51764,-0.25831c0.15478,-0.47151 0.11634,-0.60221 -0.01025,-0.99222c-0.02563,-0.07841 -0.0533,-0.16554 -0.08354,-0.26497l-0.01538,-0.05125c-0.20244,-0.66986 -0.37721,-1.24849 0.09841,-2.02136c0.07416,-0.12058 0.23203,-0.15821 0.35261,-0.08405c0.12058,0.07416 0.15821,0.23203 0.08405,0.35261c-0.35466,0.57658 -0.23114,0.98505 -0.04459,1.60417l0.01538,0.05125c0.02574,0.08541 0.05257,0.1705 0.08047,0.25523c0.14094,0.43308 0.20091,0.66422 0.0492,1.18494c0.15284,0.04658 0.29271,0.12819 0.40847,0.23832c0.10147,0.09865 0.10376,0.26087 0.00513,0.36235c-0.09875,0.10105 -0.26051,0.10357 -0.36235,0.00564c-0.20821,-0.19744 -0.53348,-0.20079 -0.74571,-0.00769c-0.10396,0.09267 -0.26289,0.08535 -0.35789,-0.01648zM173.47697,176.68104c-0.25216,0.54839 -0.08508,1.19313 0.00102,1.44837c0.03331,0.08775 0.01597,0.1867 -0.04519,0.25791c-0.06116,0.0712 -0.15636,0.10327 -0.24814,0.08358c-0.09178,-0.01968 -0.16545,-0.08797 -0.19203,-0.178c-0.12762,-0.3767 -0.28394,-1.08704 -0.00871,-1.75587c-0.1599,-0.0943 -0.29726,-0.23012 -0.38951,-0.40232c-0.04683,-0.08097 -0.04582,-0.18102 0.00264,-0.26103c0.04845,-0.08001 0.13665,-0.12726 0.23011,-0.12328c0.09345,0.00398 0.17731,0.05857 0.21878,0.14241c0.13883,0.25152 0.44801,0.35361 0.70932,0.23422c0.12808,-0.06029 0.28079,-0.00533 0.34108,0.12275c0.06029,0.12808 0.00533,0.28079 -0.12275,0.34108c-0.13766,0.06491 -0.28805,0.09835 -0.44025,0.09789c-0.01896,0 -0.0369,-0.00666 -0.05638,-0.00769zM175.92909,181.70667c-0.0447,0.05104 -0.10784,0.08223 -0.17554,0.0867c-0.29802,0.01925 -0.59464,-0.05473 -0.84872,-0.21167c-0.31522,0.36699 -0.73425,0.62985 -1.20184,0.75391c0.03878,0.16463 0.04901,0.33469 0.03024,0.50278c-0.01671,0.12741 -0.12519,0.22275 -0.2537,0.22294c-0.07351,-0.00035 -0.14338,-0.03207 -0.19203,-0.08718c-0.04865,-0.05512 -0.07146,-0.12837 -0.06269,-0.20136c0.00717,-0.05791 0.01076,-0.23114 -0.03587,-0.36081c-0.26343,0.01538 -0.50227,-0.00308 -0.7452,-0.03126c-0.2414,-0.02819 -0.4915,-0.0574 -0.79491,-0.04664c-0.36235,0.01179 -0.63962,0.1927 -0.93278,0.38387c-0.19322,0.12557 -0.39874,0.25933 -0.635,0.34492c0.03571,0.11423 0.05807,0.23221 0.06663,0.35158c0.00668,0.14082 -0.10164,0.26059 -0.24242,0.26805l-0.01384,0.00051c-0.13581,-0.00032 -0.24789,-0.10632 -0.25574,-0.24191c-0.00256,-0.0492 -0.02101,-0.18194 -0.06868,-0.29367c-0.10097,-0.00154 -0.20501,-0.01025 -0.31725,-0.03587c-0.4013,-0.09123 -0.81285,-0.09789 -1.09985,-0.01896c-0.55505,0.15222 -0.83642,0.52892 -0.83898,0.53302c-0.04861,0.06624 -0.12593,0.10528 -0.20808,0.10506c-0.0957,0.00004 -0.18342,-0.05335 -0.22733,-0.13838c-0.04392,-0.08503 -0.03669,-0.18746 0.01874,-0.26548c0.01332,-0.01896 0.29674,-0.40796 0.86205,-0.64064c-0.02819,-0.06048 -0.06304,-0.12095 -0.10712,-0.16246c-0.10289,-0.09723 -0.10748,-0.25946 -0.01025,-0.36235c0.09723,-0.10289 0.25946,-0.10748 0.36235,-0.01025c0.12505,0.11839 0.20603,0.27215 0.25728,0.40079c0.32904,-0.04612 0.71701,-0.02819 1.10447,0.06048c0.42795,0.09635 0.7124,-0.08918 1.0732,-0.32391c0.20193,-0.13172 0.42539,-0.26805 0.68369,-0.36081c0,-0.08559 -0.01281,-0.26138 -0.08149,-0.37157c-0.06379,-0.11902 -0.02449,-0.26712 0.08993,-0.33884c0.11442,-0.07173 0.26484,-0.04258 0.34417,0.0667c0.11121,0.17784 0.14607,0.39156 0.15631,0.53814l0.00256,-0.00051c0.34492,-0.01025 0.62373,0.02204 0.87025,0.05023c0.26907,0.03178 0.50175,0.05894 0.76774,0.02716c0.30085,-0.03537 0.84053,-0.17323 1.25258,-0.65807c-0.17528,-0.22192 -0.29059,-0.49457 -0.31161,-0.79696c-0.00909,-0.14107 0.09732,-0.26304 0.23832,-0.27317c0.14039,-0.00714 0.2612,0.09825 0.27317,0.23832c0.01604,0.24827 0.13033,0.47993 0.3176,0.64372c0.18726,0.1638 0.43207,0.24624 0.68027,0.22909c0.06793,-0.00478 0.13494,0.01785 0.18607,0.06283c0.05113,0.04497 0.08213,0.10854 0.08608,0.17652c0.0045,0.0677 -0.01809,0.1344 -0.06278,0.18544z"/></g></g></g><path d="M203.78051,176.34561l-4.03072,9.50435c-0.0941,0.24049 -0.23003,0.4287 -0.40778,0.56461c-0.17776,0.12547 -0.37641,0.1882 -0.59598,0.1882c-0.33459,0 -0.58553,-0.0941 -0.75282,-0.28231c-0.15684,-0.1882 -0.23525,-0.41823 -0.23525,-0.69008c0,-0.11502 0.02091,-0.23525 0.06273,-0.36072l4.65808,-11.19819c0.0941,-0.25094 0.24571,-0.44437 0.45483,-0.58029c0.20911,-0.13592 0.42869,-0.19343 0.65872,-0.17252c0.23002,0 0.43914,0.06796 0.62735,0.20389c0.19865,0.12547 0.33981,0.30845 0.42347,0.54894l4.61102,10.97862c0.06273,0.15684 0.0941,0.30845 0.0941,0.45483c0,0.33459 -0.10978,0.60121 -0.32935,0.79988c-0.21957,0.19865 -0.46006,0.298 -0.72145,0.298c-0.21957,0 -0.42346,-0.06796 -0.61166,-0.20388c-0.17776,-0.13592 -0.3189,-0.32412 -0.42346,-0.56461l-4.01504,-9.37888zM200.33008,183.57582l1.01945,-2.16436h5.06585l0.34504,2.16436zM220.02874,174.04011c0.32412,0.15684 0.51233,0.41301 0.56461,0.76851c0.05228,0.34504 -0.0366,0.66395 -0.26662,0.95671c-0.1673,0.21957 -0.38164,0.34504 -0.64303,0.37641c-0.25094,0.02091 -0.50711,-0.03137 -0.7685,-0.15684c-0.29277,-0.13593 -0.60644,-0.24048 -0.94102,-0.31367c-0.33459,-0.07319 -0.67964,-0.10978 -1.03513,-0.10978c-0.67964,0 -1.28607,0.10456 -1.81931,0.31367c-0.5228,0.20911 -0.97239,0.51234 -1.3488,0.90966c-0.37641,0.38687 -0.66395,0.85215 -0.8626,1.39586c-0.1882,0.53325 -0.28231,1.124 -0.28231,1.77227c0,0.76328 0.10979,1.42723 0.32936,1.99184c0.21957,0.55416 0.5228,1.01945 0.90966,1.39586c0.38686,0.37641 0.84169,0.65872 1.36449,0.84692c0.52279,0.17775 1.09263,0.26663 1.70953,0.26663c0.33458,0 0.66917,-0.03137 1.00376,-0.0941c0.33458,-0.06273 0.65872,-0.17775 0.97239,-0.34504c0.26139,-0.12547 0.51757,-0.1673 0.76851,-0.12547c0.26139,0.03137 0.48096,0.16207 0.65872,0.3921c0.25094,0.31367 0.33981,0.63781 0.26663,0.97239c-0.06273,0.32412 -0.25094,0.55939 -0.56461,0.70577c-0.32413,0.16729 -0.65872,0.30323 -1.00376,0.40778c-0.34504,0.10455 -0.69531,0.18298 -1.05081,0.23526c-0.34504,0.06273 -0.69531,0.0941 -1.05081,0.0941c-0.89921,0 -1.75135,-0.14115 -2.55645,-0.42346c-0.80511,-0.29276 -1.52656,-0.71622 -2.16436,-1.27038c-0.62735,-0.56461 -1.124,-1.27038 -1.48995,-2.1173c-0.35549,-0.84692 -0.53325,-1.82454 -0.53325,-2.93285c0,-0.96193 0.16207,-1.84545 0.4862,-2.65055c0.33459,-0.81555 0.80511,-1.5161 1.41154,-2.10162c0.60643,-0.59598 1.31743,-1.06126 2.13299,-1.39585c0.826,-0.33459 1.73044,-0.50188 2.71329,-0.50188c0.5437,0 1.07694,0.06273 1.59974,0.1882c0.52279,0.12547 1.01945,0.30845 1.48996,0.54894zM223.78714,173.39707c0.30322,0 0.56984,0.10979 0.79988,0.32936c0.23002,0.21957 0.34504,0.49142 0.34504,0.81555v10.82178c0,0.32412 -0.12024,0.59598 -0.36072,0.81555c-0.24049,0.21957 -0.51234,0.32936 -0.81555,0.32936c-0.3555,0 -0.63781,-0.10978 -0.84692,-0.32935c-0.20912,-0.21957 -0.31367,-0.49143 -0.31367,-0.81555v-10.82178c0,-0.32413 0.10979,-0.59598 0.32936,-0.81555c0.23002,-0.21957 0.51757,-0.32935 0.86261,-0.32935zM232.08385,173.39707c0.34504,0 0.62212,0.10979 0.83124,0.32936c0.21957,0.21957 0.32936,0.49142 0.32936,0.81555v10.82178c0,0.32412 -0.10978,0.59598 -0.32935,0.81555c-0.21957,0.21957 -0.50711,0.32936 -0.8626,0.32936c-0.30322,0 -0.56984,-0.10978 -0.79987,-0.32935c-0.23002,-0.21957 -0.34504,-0.49143 -0.34504,-0.81555v-10.82178c0,-0.32413 0.11502,-0.59598 0.34504,-0.81555c0.24049,-0.21957 0.51757,-0.32935 0.83124,-0.32935zM223.72441,178.85501h8.35943v2.14868h-8.35943zM238.39634,185.36377c0,0.32412 -0.12024,0.59598 -0.36072,0.81555c-0.24049,0.21957 -0.51234,0.32936 -0.81555,0.32936c-0.3555,0 -0.63781,-0.10978 -0.84692,-0.32935c-0.20912,-0.21957 -0.31367,-0.49143 -0.31367,-0.81555v-10.82178c0,-0.32413 0.10979,-0.59598 0.32936,-0.81555c0.23002,-0.21957 0.51757,-0.32935 0.86261,-0.32935c0.30322,0 0.56984,0.10979 0.79988,0.32936c0.23002,0.21957 0.34504,0.49142 0.34504,0.81555zM242.33843,173.39707h6.2735c0.32413,0 0.59598,0.10455 0.81555,0.31367c0.21957,0.20911 0.32936,0.47574 0.32936,0.79988c0,0.30322 -0.10978,0.55416 -0.32935,0.75282c-0.21957,0.19866 -0.49142,0.298 -0.81555,0.298h-5.23837l0.17253,-0.32935v3.65432l-0.15684,-0.15684h4.39145c0.32413,0 0.59075,0.10456 0.79988,0.31367c0.21957,0.20911 0.32936,0.47574 0.32936,0.79988c0,0.31367 -0.10978,0.56984 -0.32935,0.76851c-0.20911,0.1882 -0.47574,0.28231 -0.79987,0.28231h-4.32871l0.0941,-0.15684v3.77979l-0.15684,-0.15684h5.22269c0.32413,0 0.59598,0.10979 0.81555,0.32936c0.21957,0.20911 0.32936,0.46006 0.32936,0.75282c0,0.31367 -0.10978,0.56984 -0.32935,0.76851c-0.21957,0.19865 -0.49142,0.298 -0.81555,0.298h-6.2735c-0.32412,0 -0.59598,-0.10978 -0.81555,-0.32935c-0.20911,-0.21957 -0.31367,-0.49143 -0.31367,-0.81555v-10.82178c0,-0.32413 0.10456,-0.59598 0.31367,-0.81555c0.21957,-0.21957 0.49143,-0.32935 0.81555,-0.32935zM261.4878,173.3657c0.31367,0 0.58552,0.10455 0.81555,0.31367c0.23002,0.19866 0.34504,0.45483 0.34504,0.76851c0,0.1673 -0.0366,0.33458 -0.10978,0.50188l-4.6267,10.82178c-0.11502,0.25094 -0.27708,0.43914 -0.48619,0.56461c-0.20912,0.11502 -0.41824,0.17253 -0.62735,0.17253c-0.19866,-0.01045 -0.39209,-0.07318 -0.58029,-0.1882c-0.1882,-0.12547 -0.32935,-0.29799 -0.42346,-0.51756l-4.6267,-10.86883c-0.04183,-0.07319 -0.06796,-0.15161 -0.07841,-0.23525c-0.01046,-0.08364 -0.01568,-0.16207 -0.01568,-0.23525c0,-0.3555 0.1307,-0.62735 0.3921,-0.81555c0.26139,-0.19865 0.51233,-0.29799 0.75282,-0.29799c0.47051,0 0.81033,0.24048 1.01945,0.72145l4.10914,9.64551l-0.65872,0.01569l3.7641,-9.66119c0.20911,-0.47051 0.55416,-0.70576 1.03513,-0.70576zM265.74643,173.39707h6.2735c0.32412,0 0.59598,0.10455 0.81555,0.31367c0.21957,0.20911 0.32936,0.47574 0.32936,0.79988c0,0.30322 -0.10978,0.55416 -0.32935,0.75282c-0.21957,0.19866 -0.49143,0.298 -0.81555,0.298h-5.23837l0.17253,-0.32935v3.65432l-0.15684,-0.15684h4.39145c0.32412,0 0.59075,0.10456 0.79988,0.31367c0.21957,0.20911 0.32935,0.47574 0.32935,0.79988c0,0.31367 -0.10978,0.56984 -0.32935,0.76851c-0.20912,0.1882 -0.47574,0.28231 -0.79988,0.28231h-4.32871l0.0941,-0.15684v3.77979l-0.15684,-0.15684h5.22269c0.32412,0 0.59598,0.10979 0.81555,0.32936c0.21957,0.20911 0.32936,0.46006 0.32936,0.75282c0,0.31367 -0.10978,0.56984 -0.32935,0.76851c-0.21957,0.19865 -0.49143,0.298 -0.81555,0.298h-6.2735c-0.32413,0 -0.59598,-0.10978 -0.81555,-0.32935c-0.20912,-0.21957 -0.31367,-0.49143 -0.31367,-0.81555v-10.82178c0,-0.32413 0.10455,-0.59598 0.31367,-0.81555c0.21957,-0.21957 0.49142,-0.32935 0.81555,-0.32935zM276.50497,173.38139c0.16729,0 0.35027,0.04706 0.54894,0.14116c0.19865,0.0941 0.34504,0.21434 0.43914,0.36073l4.54829,7.01064l-0.94102,-0.04705l4.67376,-6.96358c0.23002,-0.33459 0.53325,-0.50188 0.90966,-0.50188c0.30322,0 0.56984,0.10979 0.79988,0.32936c0.24048,0.20911 0.36073,0.48097 0.36073,0.81555v10.83747c0,0.32412 -0.10456,0.59598 -0.31367,0.81555c-0.20912,0.21957 -0.49143,0.32936 -0.84692,0.32936c-0.34504,0 -0.62735,-0.10978 -0.84692,-0.32935c-0.21957,-0.21957 -0.32935,-0.49143 -0.32935,-0.81555v-8.81426l0.73714,0.17253l-3.82683,5.81867c-0.11502,0.13593 -0.25617,0.25617 -0.42346,0.36073c-0.1673,0.0941 -0.33981,0.13593 -0.51756,0.12547c-0.15684,0.01046 -0.3189,-0.03137 -0.48619,-0.12547c-0.1673,-0.10456 -0.30845,-0.2248 -0.42347,-0.36072l-3.57589,-5.66183l0.4862,-0.98807v9.47298c0,0.32412 -0.09933,0.59598 -0.298,0.81555c-0.19865,0.21957 -0.46006,0.32936 -0.78419,0.32936c-0.31367,0 -0.56984,-0.10978 -0.7685,-0.32935c-0.19865,-0.21957 -0.29799,-0.49143 -0.29799,-0.81555v-10.83746c0,-0.31367 0.11502,-0.58029 0.34504,-0.79987c0.23002,-0.23002 0.50711,-0.34504 0.83123,-0.34504zM291.79482,173.39707h6.2735c0.32412,0 0.59598,0.10455 0.81555,0.31367c0.21957,0.20911 0.32936,0.47574 0.32936,0.79988c0,0.30322 -0.10978,0.55416 -0.32935,0.75282c-0.21957,0.19866 -0.49143,0.298 -0.81555,0.298h-5.23837l0.17253,-0.32935v3.65432l-0.15684,-0.15684h4.39145c0.32412,0 0.59075,0.10456 0.79988,0.31367c0.21957,0.20911 0.32936,0.47574 0.32936,0.79988c0,0.31367 -0.10978,0.56984 -0.32935,0.76851c-0.20912,0.1882 -0.47574,0.28231 -0.79987,0.28231h-4.32871l0.0941,-0.15684v3.77979l-0.15684,-0.15684h5.22269c0.32412,0 0.59598,0.10979 0.81555,0.32936c0.21957,0.20911 0.32936,0.46006 0.32936,0.75282c0,0.31367 -0.10978,0.56984 -0.32935,0.76851c-0.21957,0.19865 -0.49143,0.298 -0.81555,0.298h-6.2735c-0.32413,0 -0.59598,-0.10978 -0.81555,-0.32935c-0.20912,-0.21957 -0.31367,-0.49143 -0.31367,-0.81555v-10.82178c0,-0.32413 0.10455,-0.59598 0.31367,-0.81555c0.21957,-0.21957 0.49142,-0.32935 0.81555,-0.32935zM311.32059,173.39707c0.29276,0 0.53325,0.09933 0.72145,0.298c0.1882,0.19866 0.28231,0.4496 0.28231,0.75282v10.91588c0,0.32412 -0.10978,0.59598 -0.32935,0.81555c-0.21957,0.21957 -0.49143,0.32936 -0.81555,0.32936c-0.15684,0 -0.32412,-0.02614 -0.50188,-0.07841c-0.16729,-0.06273 -0.29276,-0.14115 -0.37641,-0.23525l-7.35567,-9.34751l0.4862,-0.29799v8.90837c0,0.30323 -0.09933,0.55417 -0.29799,0.75282c-0.1882,0.19865 -0.43914,0.298 -0.75282,0.298c-0.30323,0 -0.54893,-0.09933 -0.73713,-0.29799c-0.17776,-0.19865 -0.26662,-0.44959 -0.26662,-0.75282v-10.91588c0,-0.32413 0.10455,-0.59598 0.31367,-0.81555c0.21957,-0.21957 0.49142,-0.32935 0.81555,-0.32935c0.17775,0 0.36073,0.0366 0.54894,0.10979c0.1882,0.06273 0.32412,0.16207 0.40778,0.298l7.13611,9.11226l-0.31367,0.21957v-8.68879c0,-0.30322 0.0941,-0.55416 0.28231,-0.75282c0.1882,-0.19865 0.43914,-0.29799 0.75282,-0.29799zM319.57949,186.50868c-0.35549,0 -0.64826,-0.10978 -0.87829,-0.32935c-0.21957,-0.21957 -0.32935,-0.49143 -0.32935,-0.81555v-10.85315h2.43098v10.85315c0,0.32412 -0.11501,0.59598 -0.34504,0.81555c-0.23002,0.21957 -0.52279,0.32936 -0.87829,0.32936zM315.43899,175.56143c-0.32413,0 -0.59598,-0.09933 -0.81555,-0.29799c-0.21957,-0.20911 -0.32935,-0.47574 -0.32935,-0.79987c0,-0.32413 0.10979,-0.58029 0.32936,-0.7685c0.21957,-0.19865 0.49142,-0.29799 0.81555,-0.29799h8.31238c0.32413,0 0.59598,0.09933 0.81555,0.298c0.21957,0.19866 0.32936,0.46005 0.32936,0.78419c0,0.32413 -0.10978,0.58552 -0.32935,0.78419c-0.21957,0.19866 -0.49142,0.298 -0.81555,0.298z" fill="url(#color-2)" stroke="none" stroke-width="1" stroke-linecap="square"/></g></g></svg>