<svg version="1.1" xmlns="http://www.w3.org/2000/svg" xmlns:xlink="http://www.w3.org/1999/xlink" width="503" height="350.09529" viewBox="0,0,503,350.09529"><defs><linearGradient x1="247.75" y1="-0.78565" x2="247.75" y2="56.21438" gradientUnits="userSpaceOnUse" id="color-1"><stop offset="0" stop-color="#0a0d10"/><stop offset="1" stop-color="#0a0d10" stop-opacity="0"/></linearGradient></defs><g transform="translate(3.75,0.78562)"><g data-paper-data="{&quot;isPaintingLayer&quot;:true}" fill-rule="nonzero" stroke-linejoin="miter" stroke-miterlimit="10" stroke-dasharray="" stroke-dashoffset="0" style="mix-blend-mode: normal"><path d="M25.17857,336.45758c0,-10.82538 0,-26.43947 0,-38.55634c0,-6.65168 0,-9.67903 0,-12.85211c0,-8.08964 6.65171,-13.95373 14.30345,-13.95373c37.65105,0 323.32588,0 397.68882,0c11.23853,0 17.65059,9.26501 17.65059,16.52415c0,7.69349 0,25.50772 0,40.02514c0,11.94926 -6.41187,21.66499 -17.65059,21.66499c-74.45439,0 -360.74987,0 -398.03614,0c-7.86328,0 -13.95612,-5.24314 -13.95612,-12.85211z" fill="#0a0d10" stroke="none" stroke-width="0" stroke-linecap="butt"/><path d="M-3.75,56.21438v-57h503v57z" fill="url(#color-1)" stroke="none" stroke-width="0" stroke-linecap="butt"/><path d="M142.88218,24.30315c-0.40565,0 -0.74157,-0.12676 -1.00777,-0.38029c-0.25353,-0.2662 -0.38029,-0.59579 -0.38029,-0.98876c0,-0.39297 0.12676,-0.70988 0.38029,-0.95073c0.2662,-0.25353 0.60213,-0.38029 1.00777,-0.38029h3.93601c0.39297,0 0.72255,0.1331 0.98876,0.39931c0.2662,0.2662 0.39931,0.59579 0.39931,0.98876c0,0.38029 -0.1331,0.6972 -0.39931,0.95073c-0.2662,0.24085 -0.59579,0.36128 -0.98876,0.36128zM163.2305,17.59101l-4.88674,11.52282c-0.11409,0.29156 -0.27888,0.51973 -0.49438,0.68452c-0.2155,0.15212 -0.45635,0.22817 -0.72255,0.22817c-0.40565,0 -0.70988,-0.11409 -0.9127,-0.34226c-0.19015,-0.22817 -0.28522,-0.50705 -0.28522,-0.83664c0,-0.13944 0.02535,-0.28522 0.07606,-0.43733l5.64732,-13.57639c0.11409,-0.30423 0.29789,-0.53875 0.55142,-0.70354c0.25353,-0.16479 0.51973,-0.23451 0.79861,-0.20916c0.27888,0 0.53241,0.0824 0.76058,0.24719c0.24085,0.15212 0.41198,0.37395 0.51339,0.66551l5.59028,13.31019c0.07606,0.19015 0.11409,0.37395 0.11409,0.55142c0,0.40565 -0.1331,0.72889 -0.39931,0.96974c-0.2662,0.24085 -0.55776,0.36128 -0.87467,0.36128c-0.2662,0 -0.51339,-0.0824 -0.74157,-0.24719c-0.2155,-0.16479 -0.38663,-0.39297 -0.51339,-0.68452l-4.86772,-11.3707zM159.0473,26.35673l1.23595,-2.62401h6.1417l0.41832,2.62401zM182.92942,14.79588c0.39297,0.19015 0.62114,0.50072 0.68452,0.93171c0.06338,0.41832 -0.04437,0.80495 -0.32325,1.15989c-0.20282,0.2662 -0.46269,0.41832 -0.7796,0.45635c-0.30423,0.02535 -0.61481,-0.03803 -0.93171,-0.19015c-0.35494,-0.16479 -0.73523,-0.29156 -1.14087,-0.38029c-0.40565,-0.08873 -0.82397,-0.1331 -1.25496,-0.1331c-0.82397,0 -1.55919,0.12676 -2.20569,0.38029c-0.63382,0.25353 -1.1789,0.62114 -1.63525,1.10284c-0.45635,0.46902 -0.80495,1.03313 -1.0458,1.6923c-0.22817,0.64649 -0.34226,1.36271 -0.34226,2.14864c0,0.92537 0.1331,1.73032 0.39931,2.41485c0.2662,0.67185 0.63382,1.23595 1.10284,1.6923c0.46902,0.45635 1.02045,0.79861 1.65427,1.02679c0.63382,0.2155 1.32468,0.32325 2.07259,0.32325c0.40565,0 0.81129,-0.03803 1.21693,-0.11409c0.40565,-0.07606 0.79861,-0.2155 1.1789,-0.41832c0.31691,-0.15212 0.62748,-0.20282 0.93171,-0.15212c0.31691,0.03803 0.58311,0.19649 0.79861,0.47536c0.30423,0.38029 0.41198,0.77326 0.32325,1.1789c-0.07606,0.39297 -0.30423,0.67818 -0.68452,0.85565c-0.39297,0.20282 -0.79861,0.36762 -1.21693,0.49438c-0.41832,0.12676 -0.84298,0.22183 -1.27397,0.28522c-0.41832,0.07606 -0.84298,0.11409 -1.27397,0.11409c-1.09017,0 -2.12329,-0.17113 -3.09937,-0.51339c-0.97608,-0.35494 -1.85075,-0.86833 -2.62401,-1.54018c-0.76058,-0.68452 -1.36271,-1.54018 -1.80638,-2.56696c-0.43099,-1.02679 -0.64649,-2.21203 -0.64649,-3.55572c0,-1.16623 0.19649,-2.23738 0.58945,-3.21346c0.40565,-0.98876 0.97608,-1.83807 1.71131,-2.54795c0.73523,-0.72255 1.59722,-1.28665 2.58598,-1.6923c1.00143,-0.40565 2.09794,-0.60847 3.28952,-0.60847c0.65917,0 1.30566,0.07606 1.93948,0.22817c0.63382,0.15212 1.23595,0.37395 1.80638,0.66551zM187.48605,14.01628c0.36762,0 0.69086,0.1331 0.96974,0.39931c0.27888,0.2662 0.41832,0.59579 0.41832,0.98876v13.12004c0,0.39297 -0.14578,0.72255 -0.43733,0.98876c-0.29156,0.2662 -0.62114,0.39931 -0.98876,0.39931c-0.43099,0 -0.77326,-0.1331 -1.02679,-0.39931c-0.25353,-0.2662 -0.38029,-0.59579 -0.38029,-0.98876v-13.12004c0,-0.39297 0.1331,-0.72255 0.39931,-0.98876c0.27888,-0.2662 0.62748,-0.39931 1.0458,-0.39931zM197.54474,14.01628c0.41832,0 0.75424,0.1331 1.00777,0.39931c0.2662,0.2662 0.39931,0.59579 0.39931,0.98876v13.12004c0,0.39297 -0.1331,0.72255 -0.39931,0.98876c-0.2662,0.2662 -0.61481,0.39931 -1.0458,0.39931c-0.36762,0 -0.69086,-0.1331 -0.96974,-0.39931c-0.27888,-0.2662 -0.41832,-0.59579 -0.41832,-0.98876v-13.12004c0,-0.39297 0.13944,-0.72255 0.41832,-0.98876c0.29156,-0.2662 0.62748,-0.39931 1.00777,-0.39931zM187.40999,20.63334h10.13476v2.60499h-10.13476zM205.19784,28.52438c0,0.39297 -0.14578,0.72255 -0.43733,0.98876c-0.29156,0.2662 -0.62114,0.39931 -0.98876,0.39931c-0.43099,0 -0.77326,-0.1331 -1.02679,-0.39931c-0.25353,-0.2662 -0.38029,-0.59579 -0.38029,-0.98876v-13.12004c0,-0.39297 0.1331,-0.72255 0.39931,-0.98876c0.27888,-0.2662 0.62748,-0.39931 1.0458,-0.39931c0.36762,0 0.69086,0.1331 0.96974,0.39931c0.27888,0.2662 0.41832,0.59579 0.41832,0.98876zM209.97714,14.01628h7.60582c0.39297,0 0.72255,0.12676 0.98876,0.38029c0.2662,0.25353 0.39931,0.57678 0.39931,0.96974c0,0.36762 -0.1331,0.67185 -0.39931,0.9127c-0.2662,0.24085 -0.59579,0.36128 -0.98876,0.36128h-6.35086l0.20916,-0.39931v4.43039l-0.19015,-0.19015h5.32407c0.39297,0 0.71621,0.12676 0.96974,0.38029c0.2662,0.25353 0.39931,0.57678 0.39931,0.96974c0,0.38029 -0.1331,0.69086 -0.39931,0.93171c-0.25353,0.22817 -0.57678,0.34226 -0.96974,0.34226h-5.24802l0.11409,-0.19015v4.58251l-0.19015,-0.19015h6.33185c0.39297,0 0.72255,0.1331 0.98876,0.39931c0.2662,0.25353 0.39931,0.55776 0.39931,0.9127c0,0.38029 -0.1331,0.69086 -0.39931,0.93171c-0.2662,0.24085 -0.59579,0.36128 -0.98876,0.36128h-7.60582c-0.39297,0 -0.72255,-0.1331 -0.98876,-0.39931c-0.25353,-0.2662 -0.38029,-0.59579 -0.38029,-0.98876v-13.12004c0,-0.39297 0.12676,-0.72255 0.38029,-0.98876c0.2662,-0.2662 0.59579,-0.39931 0.98876,-0.39931zM233.19328,13.97825c0.38029,0 0.70988,0.12676 0.98876,0.38029c0.27888,0.24085 0.41832,0.55142 0.41832,0.93171c0,0.20282 -0.04437,0.40565 -0.1331,0.60847l-5.60929,13.12004c-0.13944,0.30423 -0.33592,0.53241 -0.58945,0.68452c-0.25353,0.13944 -0.50705,0.20916 -0.76058,0.20916c-0.24085,-0.01267 -0.47536,-0.08873 -0.70354,-0.22817c-0.22817,-0.15212 -0.39931,-0.36128 -0.51339,-0.62748l-5.60929,-13.17708c-0.0507,-0.08873 -0.0824,-0.18381 -0.09507,-0.28522c-0.01267,-0.10141 -0.01901,-0.19649 -0.01901,-0.28522c0,-0.43099 0.15846,-0.76058 0.47536,-0.98876c0.31691,-0.24085 0.62114,-0.36128 0.9127,-0.36128c0.57044,0 0.98242,0.29156 1.23595,0.87467l4.98181,11.69395l-0.79861,0.01901l4.56349,-11.71296c0.25353,-0.57044 0.67185,-0.85565 1.25496,-0.85565zM238.35636,14.01628h7.60582c0.39297,0 0.72255,0.12676 0.98876,0.38029c0.2662,0.25353 0.39931,0.57678 0.39931,0.96974c0,0.36762 -0.1331,0.67185 -0.39931,0.9127c-0.2662,0.24085 -0.59579,0.36128 -0.98876,0.36128h-6.35086l0.20916,-0.39931v4.43039l-0.19015,-0.19015h5.32407c0.39297,0 0.71621,0.12676 0.96974,0.38029c0.2662,0.25353 0.39931,0.57678 0.39931,0.96974c0,0.38029 -0.1331,0.69086 -0.39931,0.93171c-0.25353,0.22817 -0.57678,0.34226 -0.96974,0.34226h-5.24802l0.11409,-0.19015v4.58251l-0.19015,-0.19015h6.33185c0.39297,0 0.72255,0.1331 0.98876,0.39931c0.2662,0.25353 0.39931,0.55776 0.39931,0.9127c0,0.38029 -0.1331,0.69086 -0.39931,0.93171c-0.2662,0.24085 -0.59579,0.36128 -0.98876,0.36128h-7.60582c-0.39297,0 -0.72255,-0.1331 -0.98876,-0.39931c-0.25353,-0.2662 -0.38029,-0.59579 -0.38029,-0.98876v-13.12004c0,-0.39297 0.12676,-0.72255 0.38029,-0.98876c0.2662,-0.2662 0.59579,-0.39931 0.98876,-0.39931zM251.39971,13.99727c0.20282,0 0.42466,0.05704 0.66551,0.17113c0.24085,0.11409 0.41832,0.25986 0.53241,0.43733l5.51422,8.4995l-1.14087,-0.05704l5.66634,-8.44246c0.27888,-0.40565 0.64649,-0.60847 1.10284,-0.60847c0.36762,0 0.69086,0.1331 0.96974,0.39931c0.29156,0.25353 0.43733,0.58311 0.43733,0.98876v13.13905c0,0.39297 -0.12676,0.72255 -0.38029,0.98876c-0.25353,0.2662 -0.59579,0.39931 -1.02679,0.39931c-0.41832,0 -0.76058,-0.1331 -1.02679,-0.39931c-0.2662,-0.2662 -0.39931,-0.59579 -0.39931,-0.98876v-10.68618l0.89368,0.20916l-4.63955,7.0544c-0.13944,0.16479 -0.31057,0.31057 -0.51339,0.43733c-0.20282,0.11409 -0.41198,0.16479 -0.62748,0.15212c-0.19015,0.01267 -0.38663,-0.03803 -0.58945,-0.15212c-0.20282,-0.12676 -0.37395,-0.27254 -0.51339,-0.43733l-4.33532,-6.86425l0.58945,-1.19792v11.48479c0,0.39297 -0.12043,0.72255 -0.36128,0.98876c-0.24085,0.2662 -0.55776,0.39931 -0.95073,0.39931c-0.38029,0 -0.69086,-0.1331 -0.93171,-0.39931c-0.24085,-0.2662 -0.36128,-0.59579 -0.36128,-0.98876v-13.13905c0,-0.38029 0.13944,-0.70354 0.41832,-0.96974c0.27888,-0.27888 0.61481,-0.41832 1.00777,-0.41832zM269.93674,14.01628h7.60582c0.39297,0 0.72255,0.12676 0.98876,0.38029c0.2662,0.25353 0.39931,0.57678 0.39931,0.96974c0,0.36762 -0.1331,0.67185 -0.39931,0.9127c-0.2662,0.24085 -0.59579,0.36128 -0.98876,0.36128h-6.35086l0.20916,-0.39931v4.43039l-0.19015,-0.19015h5.32407c0.39297,0 0.71621,0.12676 0.96974,0.38029c0.2662,0.25353 0.39931,0.57678 0.39931,0.96974c0,0.38029 -0.1331,0.69086 -0.39931,0.93171c-0.25353,0.22817 -0.57678,0.34226 -0.96974,0.34226h-5.24802l0.11409,-0.19015v4.58251l-0.19015,-0.19015h6.33185c0.39297,0 0.72255,0.1331 0.98876,0.39931c0.2662,0.25353 0.39931,0.55776 0.39931,0.9127c0,0.38029 -0.1331,0.69086 -0.39931,0.93171c-0.2662,0.24085 -0.59579,0.36128 -0.98876,0.36128h-7.60582c-0.39297,0 -0.72255,-0.1331 -0.98876,-0.39931c-0.25353,-0.2662 -0.38029,-0.59579 -0.38029,-0.98876v-13.12004c0,-0.39297 0.12676,-0.72255 0.38029,-0.98876c0.2662,-0.2662 0.59579,-0.39931 0.98876,-0.39931zM293.60922,14.01628c0.35494,0 0.64649,0.12043 0.87467,0.36128c0.22817,0.24085 0.34226,0.54508 0.34226,0.9127v13.23413c0,0.39297 -0.1331,0.72255 -0.39931,0.98876c-0.2662,0.2662 -0.59579,0.39931 -0.98876,0.39931c-0.19015,0 -0.39297,-0.03169 -0.60847,-0.09507c-0.20282,-0.07606 -0.35494,-0.17113 -0.45635,-0.28522l-8.91782,-11.33267l0.58945,-0.36128v10.80026c0,0.36762 -0.12043,0.67185 -0.36128,0.9127c-0.22817,0.24085 -0.53241,0.36128 -0.9127,0.36128c-0.36762,0 -0.66551,-0.12043 -0.89368,-0.36128c-0.2155,-0.24085 -0.32325,-0.54508 -0.32325,-0.9127v-13.23413c0,-0.39297 0.12676,-0.72255 0.38029,-0.98876c0.2662,-0.2662 0.59579,-0.39931 0.98876,-0.39931c0.2155,0 0.43733,0.04437 0.66551,0.1331c0.22817,0.07606 0.39297,0.19649 0.49438,0.36128l8.65162,11.04745l-0.38029,0.2662v-10.53406c0,-0.36762 0.11409,-0.67185 0.34226,-0.9127c0.22817,-0.24085 0.53241,-0.36128 0.9127,-0.36128zM303.62209,29.91244c-0.43099,0 -0.78594,-0.1331 -1.06481,-0.39931c-0.2662,-0.2662 -0.39931,-0.59579 -0.39931,-0.98876v-13.15807h2.94726v13.15807c0,0.39297 -0.13944,0.72255 -0.41832,0.98876c-0.27888,0.2662 -0.63382,0.39931 -1.06481,0.39931zM298.60225,16.64028c-0.39297,0 -0.72255,-0.12043 -0.98876,-0.36128c-0.2662,-0.25353 -0.39931,-0.57678 -0.39931,-0.96974c0,-0.39297 0.1331,-0.70354 0.39931,-0.93171c0.2662,-0.24085 0.59579,-0.36128 0.98876,-0.36128h10.07771c0.39297,0 0.72255,0.12043 0.98876,0.36128c0.2662,0.24085 0.39931,0.55776 0.39931,0.95073c0,0.39297 -0.1331,0.70988 -0.39931,0.95073c-0.2662,0.24085 -0.59579,0.36128 -0.98876,0.36128zM317.54921,30.14062c-1.05214,0 -2.00287,-0.1331 -2.85218,-0.39931c-0.84931,-0.2662 -1.66061,-0.72889 -2.43386,-1.38806c-0.20282,-0.17747 -0.35494,-0.36762 -0.45635,-0.57044c-0.10141,-0.2155 -0.15212,-0.43099 -0.15212,-0.64649c0,-0.34226 0.12043,-0.64649 0.36128,-0.9127c0.25353,-0.2662 0.57044,-0.39931 0.95073,-0.39931c0.29156,0 0.55142,0.08873 0.7796,0.2662c0.57044,0.46902 1.14087,0.8303 1.71131,1.08383c0.57044,0.24085 1.26763,0.36128 2.0916,0.36128c0.55776,0 1.07116,-0.08873 1.54018,-0.2662c0.46902,-0.17747 0.84931,-0.41198 1.14087,-0.70354c0.29156,-0.29156 0.43733,-0.62748 0.43733,-1.00777c0,-0.45635 -0.13944,-0.84298 -0.41832,-1.15989c-0.2662,-0.31691 -0.68452,-0.58311 -1.25496,-0.79861c-0.55776,-0.22817 -1.26763,-0.39931 -2.12963,-0.51339c-0.81129,-0.12676 -1.5275,-0.31057 -2.14864,-0.55142c-0.62114,-0.25353 -1.14087,-0.57044 -1.55919,-0.95073c-0.41832,-0.39297 -0.73523,-0.84931 -0.95073,-1.36905c-0.20282,-0.53241 -0.30423,-1.12186 -0.30423,-1.76835c0,-0.98876 0.25353,-1.8254 0.76058,-2.50992c0.50705,-0.6972 1.19158,-1.22961 2.05357,-1.59722c0.86199,-0.36762 1.81272,-0.55142 2.85218,-0.55142c0.98876,0 1.90146,0.15212 2.7381,0.45635c0.84931,0.29156 1.53384,0.66551 2.05357,1.12186c0.44367,0.34226 0.66551,0.74157 0.66551,1.19792c0,0.32959 -0.1331,0.63382 -0.39931,0.9127c-0.25353,0.2662 -0.55142,0.39931 -0.89368,0.39931c-0.22817,0 -0.43099,-0.06972 -0.60847,-0.20916c-0.24085,-0.20282 -0.57044,-0.39931 -0.98876,-0.58945c-0.40565,-0.19015 -0.83664,-0.3486 -1.29299,-0.47536c-0.45635,-0.12676 -0.88101,-0.19015 -1.27397,-0.19015c-0.64649,0 -1.19158,0.0824 -1.63525,0.24719c-0.44367,0.16479 -0.7796,0.39297 -1.00777,0.68452c-0.22817,0.27888 -0.34226,0.60847 -0.34226,0.98876c0,0.45635 0.1331,0.8303 0.39931,1.12186c0.2662,0.29156 0.64649,0.52607 1.14087,0.70354c0.49438,0.17747 1.09017,0.33592 1.78737,0.47536c0.9127,0.16479 1.71131,0.36128 2.39583,0.58945c0.6972,0.22817 1.26763,0.51973 1.71131,0.87467c0.45635,0.35494 0.79861,0.79861 1.02679,1.33102c0.22817,0.53241 0.34226,1.18524 0.34226,1.9585c0,0.98876 -0.27254,1.83807 -0.81763,2.54795c-0.54508,0.70988 -1.2613,1.25496 -2.14864,1.63525c-0.88734,0.38029 -1.84441,0.57044 -2.8712,0.57044zM333.18181,24.30315c-0.40565,0 -0.74157,-0.12676 -1.00777,-0.38029c-0.25353,-0.2662 -0.38029,-0.59579 -0.38029,-0.98876c0,-0.39297 0.12676,-0.70988 0.38029,-0.95073c0.2662,-0.25353 0.60213,-0.38029 1.00777,-0.38029h3.93601c0.39297,0 0.72255,0.1331 0.98876,0.39931c0.2662,0.2662 0.39931,0.59579 0.39931,0.98876c0,0.38029 -0.1331,0.6972 -0.39931,0.95073c-0.2662,0.24085 -0.59579,0.36128 -0.98876,0.36128z" fill="#e4e4e4" stroke="none" stroke-width="1" stroke-linecap="square"/><path d="M396.75,39.21435h-313.5" fill="none" stroke="#e4e4e4" stroke-width="3" stroke-linecap="round"/><path d="M139.37835,302.90224c0.75435,0 1.46004,0.21901 2.11706,0.65702c0.65702,0.43801 1.18629,1.02812 1.5878,1.77031c0.41368,0.74219 0.62051,1.56954 0.62051,2.48207c0,0.90035 -0.20683,1.72163 -0.62051,2.46382c-0.40151,0.74219 -0.93077,1.33229 -1.58779,1.77031c-0.65702,0.43801 -1.36271,0.65702 -2.11705,0.65702h-4.01514l0.21901,-0.38326v4.50788c0,0.37718 -0.11559,0.69352 -0.34676,0.94903c-0.23118,0.25551 -0.53534,0.38326 -0.91252,0.38326c-0.36501,0 -0.6631,-0.12775 -0.89427,-0.38325c-0.23118,-0.25551 -0.34676,-0.57184 -0.34676,-0.94903v-12.59285c0,-0.37718 0.12168,-0.69352 0.36501,-0.94903c0.2555,-0.25551 0.57184,-0.38326 0.94903,-0.38326zM139.37835,310.22068c0.26768,0 0.52927,-0.11559 0.78478,-0.34675c0.26768,-0.23118 0.48668,-0.52926 0.65702,-0.89427c0.1825,-0.37718 0.27376,-0.76653 0.27376,-1.16803c0,-0.42584 -0.09125,-0.81519 -0.27375,-1.16803c-0.17033,-0.36501 -0.38934,-0.65702 -0.65702,-0.87602c-0.2555,-0.23118 -0.5171,-0.34676 -0.78476,-0.34676h-4.05164l0.25551,-0.40151v5.54815l-0.23725,-0.34675zM147.536,302.90224h7.3002c0.37718,0 0.69352,0.12168 0.94903,0.36501c0.2555,0.24334 0.38326,0.5536 0.38326,0.93078c0,0.35284 -0.12775,0.64485 -0.38326,0.87603c-0.2555,0.23118 -0.57184,0.34676 -0.94902,0.34676h-6.09566l0.20076,-0.38325v4.25237l-0.1825,-0.1825h5.11014c0.37718,0 0.68743,0.12167 0.93078,0.36501c0.2555,0.24334 0.38327,0.5536 0.38327,0.93078c0,0.36501 -0.12775,0.6631 -0.38325,0.89428c-0.24334,0.219 -0.5536,0.32851 -0.93077,0.32851h-5.03714l0.10951,-0.1825v4.39837l-0.18251,-0.1825h6.07742c0.37718,0 0.69352,0.12777 0.94903,0.38327c0.2555,0.24334 0.38327,0.53534 0.38327,0.87602c0,0.36501 -0.12775,0.6631 -0.38325,0.89428c-0.2555,0.23118 -0.57184,0.34677 -0.94903,0.34677h-7.3002c-0.37718,0 -0.69353,-0.12774 -0.94903,-0.38325c-0.24334,-0.25551 -0.36501,-0.57185 -0.36501,-0.94903v-12.59285c0,-0.37718 0.12167,-0.69352 0.36501,-0.94903c0.2555,-0.25551 0.57185,-0.38326 0.94903,-0.38326zM170.25728,302.90224c0.34068,0 0.62052,0.11559 0.83953,0.34677c0.21901,0.23118 0.32851,0.52319 0.32851,0.87603v12.70235c0,0.37718 -0.12775,0.69352 -0.38325,0.94903c-0.2555,0.25551 -0.57185,0.38326 -0.94903,0.38326c-0.1825,0 -0.37718,-0.03042 -0.58402,-0.09125c-0.19467,-0.073 -0.34068,-0.16425 -0.43801,-0.27375l-8.55948,-10.8773l0.56577,-0.34675v10.36629c0,0.35284 -0.11559,0.64485 -0.34675,0.87602c-0.21901,0.23118 -0.51101,0.34677 -0.87602,0.34677c-0.35284,0 -0.63876,-0.11559 -0.85777,-0.34675c-0.20684,-0.23118 -0.31025,-0.52319 -0.31025,-0.87603v-12.70234c0,-0.37718 0.12167,-0.69352 0.36501,-0.94903c0.2555,-0.25551 0.57184,-0.38326 0.94903,-0.38326c0.20684,0 0.41977,0.04259 0.63878,0.12776c0.21901,0.073 0.37718,0.18859 0.47451,0.34677l8.30399,10.60355l-0.36501,0.25551v-10.11078c0,-0.35284 0.10951,-0.64485 0.32851,-0.87602c0.21901,-0.23118 0.51101,-0.34676 0.87602,-0.34676zM181.89361,318.37865c-1.1072,0 -2.14139,-0.20075 -3.10259,-0.60226c-0.9612,-0.41368 -1.80679,-0.97944 -2.53681,-1.69729c-0.71785,-0.71785 -1.28362,-1.54521 -1.69729,-2.48207c-0.41368,-0.94903 -0.62052,-1.97106 -0.62052,-3.06609c0,-1.08286 0.20684,-2.0988 0.62052,-3.04782c0.41368,-0.94903 0.97944,-1.78247 1.6973,-2.50032c0.73002,-0.71785 1.57563,-1.27754 2.53682,-1.67904c0.9612,-0.41368 1.99538,-0.62052 3.10259,-0.62052c0.68135,0 1.33837,0.073 1.97106,0.219c0.64485,0.14601 1.23495,0.365 1.7703,0.65702c0.21901,0.12167 0.38326,0.27984 0.49277,0.47451c0.10951,0.19468 0.16426,0.39543 0.16426,0.60227c0,0.34068 -0.11559,0.65094 -0.34676,0.93079c-0.23118,0.27983 -0.52926,0.41976 -0.89427,0.41976c-0.12168,0 -0.24334,-0.01217 -0.36501,-0.0365c-0.12168,-0.0365 -0.24333,-0.08517 -0.36501,-0.14601c-0.36501,-0.15818 -0.74827,-0.27984 -1.14978,-0.36501c-0.40151,-0.08517 -0.82735,-0.12775 -1.27754,-0.12775c-0.94903,0 -1.81288,0.23726 -2.59157,0.71178c-0.77869,0.46234 -1.39921,1.08894 -1.86155,1.8798c-0.45019,0.79085 -0.67526,1.66688 -0.67526,2.62808c0,0.94903 0.22509,1.82505 0.67527,2.62807c0.46234,0.79085 1.08286,1.42354 1.86155,1.89805c0.77869,0.47451 1.64255,0.71178 2.59157,0.71178c0.42584,0 0.90035,-0.04259 1.42354,-0.12775c0.52319,-0.09733 0.95512,-0.219 1.29579,-0.36501l-0.20075,0.65702v-3.7231l0.36501,0.32851h-2.40907c-0.37718,0 -0.69352,-0.12168 -0.94903,-0.36501c-0.2555,-0.25551 -0.38325,-0.57184 -0.38325,-0.94902c0,-0.37718 0.12776,-0.68744 0.38327,-0.93077c0.2555,-0.24334 0.57184,-0.36501 0.94903,-0.36501h3.5771c0.37718,0 0.68743,0.12776 0.93078,0.38326c0.24334,0.24334 0.36501,0.55969 0.36501,0.94903v4.61739c0,0.29201 -0.06691,0.53534 -0.20075,0.73002c-0.13384,0.1825 -0.29201,0.32851 -0.47451,0.43801c-0.66919,0.41368 -1.39921,0.74219 -2.19006,0.98553c-0.79085,0.23118 -1.61821,0.34677 -2.48207,0.34677zM200.69208,302.88397c0.37718,0 0.68135,0.12776 0.91252,0.38327c0.23118,0.25551 0.34677,0.57184 0.34677,0.94902v7.88422c0,1.20454 -0.26159,2.27523 -0.78476,3.21209c-0.51101,0.92469 -1.21671,1.64863 -2.11706,2.17181c-0.90035,0.52319 -1.94672,0.78478 -3.13908,0.78478c-1.18021,0 -2.22656,-0.26159 -3.13908,-0.78476c-0.91252,-0.52319 -1.62429,-1.24712 -2.13531,-2.17181c-0.51101,-0.93685 -0.76652,-2.00755 -0.76652,-3.21209v-7.88421c0,-0.37718 0.12776,-0.69352 0.38326,-0.94903c0.26768,-0.25551 0.60227,-0.38326 1.00378,-0.38326c0.32851,0 0.6266,0.12776 0.89428,0.38326c0.27983,0.25551 0.41977,0.57184 0.41977,0.94903v7.88422c0,0.73002 0.15209,1.36271 0.45627,1.89805c0.31634,0.52319 0.73002,0.93078 1.24104,1.22279c0.52319,0.29201 1.0707,0.43801 1.64254,0.43801c0.63269,0 1.2167,-0.146 1.75205,-0.43801c0.53535,-0.29201 0.96729,-0.69961 1.29579,-1.22278c0.34068,-0.53535 0.51101,-1.16803 0.51101,-1.89805v-7.88421c0,-0.37718 0.1095,-0.69352 0.32851,-0.94903c0.21901,-0.25551 0.5171,-0.38325 0.89428,-0.38325zM207.95158,316.82736c0,0.37718 -0.13993,0.69352 -0.41976,0.94902c-0.27983,0.25551 -0.59619,0.38327 -0.94903,0.38327c-0.41368,0 -0.74219,-0.12775 -0.98552,-0.38326c-0.24334,-0.25551 -0.36501,-0.57184 -0.36501,-0.94903v-12.59285c0,-0.37718 0.12776,-0.69352 0.38326,-0.94903c0.26768,-0.25551 0.60227,-0.38325 1.00378,-0.38325c0.35284,0 0.6631,0.12776 0.93078,0.38327c0.26768,0.25551 0.40151,0.57184 0.40151,0.94903zM222.79562,302.90224c0.34068,0 0.62051,0.11559 0.83952,0.34677c0.21901,0.23118 0.32851,0.52319 0.32851,0.87603v12.70235c0,0.37718 -0.12775,0.69352 -0.38326,0.94903c-0.2555,0.25551 -0.57184,0.38326 -0.94903,0.38326c-0.1825,0 -0.37718,-0.03042 -0.58401,-0.09125c-0.19467,-0.073 -0.34069,-0.16425 -0.43802,-0.27375l-8.55948,-10.8773l0.56578,-0.34675v10.36629c0,0.35284 -0.11559,0.64485 -0.34676,0.87602c-0.21901,0.23118 -0.51101,0.34677 -0.87602,0.34677c-0.35284,0 -0.63876,-0.11559 -0.85777,-0.34675c-0.20684,-0.23118 -0.31026,-0.52319 -0.31026,-0.87603v-12.70234c0,-0.37718 0.12168,-0.69352 0.36501,-0.94903c0.2555,-0.25551 0.57184,-0.38326 0.94902,-0.38326c0.20684,0 0.41977,0.04259 0.63878,0.12776c0.21901,0.073 0.37718,0.18859 0.47451,0.34677l8.30398,10.60355l-0.36501,0.25551v-10.11078c0,-0.35284 0.1095,-0.64485 0.32851,-0.87602c0.21901,-0.23118 0.51101,-0.34676 0.87602,-0.34676zM232.13238,318.37865c-1.00985,0 -1.92238,-0.12775 -2.73758,-0.38326c-0.81519,-0.25551 -1.59387,-0.6996 -2.33606,-1.33228c-0.19467,-0.17034 -0.34068,-0.35284 -0.43801,-0.54752c-0.09733,-0.20684 -0.14601,-0.41368 -0.14601,-0.62052c0,-0.32851 0.11559,-0.62051 0.34677,-0.87602c0.24334,-0.25551 0.54751,-0.38325 0.91252,-0.38325c0.27983,0 0.52927,0.08517 0.74828,0.2555c0.54752,0.45018 1.09503,0.79693 1.64255,1.04028c0.54752,0.23118 1.2167,0.34677 2.00755,0.34677c0.53535,0 1.02811,-0.08517 1.4783,-0.2555c0.45019,-0.17034 0.8152,-0.39543 1.09503,-0.67527c0.27983,-0.27983 0.41976,-0.60226 0.41976,-0.96727c0,-0.43801 -0.13383,-0.80911 -0.40151,-1.11327c-0.2555,-0.30418 -0.65702,-0.55969 -1.20453,-0.76652c-0.53535,-0.219 -1.21671,-0.38326 -2.04406,-0.49276c-0.77869,-0.12167 -1.46613,-0.29809 -2.0623,-0.52925c-0.59618,-0.24334 -1.09503,-0.54752 -1.49654,-0.91253c-0.40151,-0.37718 -0.70569,-0.81519 -0.91253,-1.31404c-0.19467,-0.51101 -0.29201,-1.07677 -0.29201,-1.69729c0,-0.94903 0.24334,-1.75205 0.73002,-2.40906c0.48668,-0.66919 1.14371,-1.1802 1.97106,-1.53304c0.82735,-0.35284 1.73987,-0.52926 2.73757,-0.52926c0.94903,0 1.82506,0.146 2.62808,0.43801c0.81519,0.27983 1.47221,0.63877 1.97105,1.07678c0.42584,0.32851 0.63878,0.71178 0.63878,1.14979c0,0.31634 -0.12775,0.60835 -0.38326,0.87603c-0.24334,0.25551 -0.52926,0.38326 -0.85777,0.38326c-0.21901,0 -0.41368,-0.06692 -0.58402,-0.20075c-0.23118,-0.19468 -0.54752,-0.38325 -0.94903,-0.56576c-0.38934,-0.1825 -0.80303,-0.33459 -1.24104,-0.45625c-0.43801,-0.12167 -0.8456,-0.18251 -1.22277,-0.18251c-0.62052,0 -1.14371,0.07909 -1.56955,0.23726c-0.42584,0.15818 -0.74827,0.37718 -0.96727,0.65702c-0.21901,0.26768 -0.32851,0.58402 -0.32851,0.94903c0,0.43801 0.12777,0.79693 0.38327,1.07678c0.2555,0.27983 0.62051,0.50493 1.09503,0.67527c0.47451,0.17034 1.04636,0.32243 1.71555,0.45627c0.87602,0.15818 1.64255,0.34677 2.29957,0.56577c0.66919,0.219 1.2167,0.49884 1.64254,0.83952c0.43801,0.34068 0.76652,0.76652 0.98552,1.27754c0.21901,0.51101 0.32851,1.13762 0.32851,1.87981c0,0.94903 -0.26159,1.76421 -0.78477,2.44556c-0.52319,0.68135 -1.21062,1.20454 -2.0623,1.56955c-0.8517,0.36501 -1.7703,0.54751 -2.75582,0.54751zM257.0286,303.65049c0.37718,0.1825 0.59618,0.4806 0.65702,0.89428c0.06083,0.40151 -0.04258,0.7726 -0.31025,1.11328c-0.19468,0.25551 -0.4441,0.40152 -0.74827,0.43802c-0.29201,0.02433 -0.5901,-0.0365 -0.89427,-0.1825c-0.34068,-0.15818 -0.70569,-0.27983 -1.09503,-0.36501c-0.38934,-0.08517 -0.79085,-0.12775 -1.20453,-0.12775c-0.79085,0 -1.49654,0.12168 -2.11706,0.36501c-0.60835,0.24334 -1.13154,0.59619 -1.56955,1.05853c-0.43801,0.45018 -0.7726,0.99161 -1.00377,1.6243c-0.21901,0.62052 -0.32851,1.30795 -0.32851,2.06232c0,0.88819 0.12776,1.6608 0.38326,2.31781c0.2555,0.64484 0.60834,1.18629 1.05853,1.6243c0.45019,0.43801 0.97944,0.76652 1.5878,0.98552c0.60835,0.20684 1.27145,0.31027 1.98931,0.31027c0.38934,0 0.77869,-0.03651 1.16804,-0.10951c0.38934,-0.073 0.76652,-0.20683 1.13153,-0.40151c0.30418,-0.14601 0.60227,-0.19468 0.89428,-0.14601c0.30418,0.0365 0.55969,0.18859 0.76652,0.45627c0.29201,0.36501 0.39542,0.74219 0.31026,1.13153c-0.073,0.37718 -0.29201,0.65094 -0.65702,0.82128c-0.37718,0.19468 -0.76652,0.35283 -1.16803,0.47451c-0.40151,0.12167 -0.80911,0.21292 -1.22278,0.27377c-0.40151,0.073 -0.80911,0.10951 -1.22278,0.10951c-1.04636,0 -2.03797,-0.16425 -2.97482,-0.49276c-0.93686,-0.34068 -1.77638,-0.83344 -2.51857,-1.47828c-0.73002,-0.65702 -1.30795,-1.47829 -1.73379,-2.46381c-0.41368,-0.98552 -0.62052,-2.12314 -0.62052,-3.41284c0,-1.11936 0.18859,-2.14747 0.56577,-3.08433c0.38934,-0.94903 0.93686,-1.76422 1.64255,-2.44557c0.70569,-0.69352 1.53304,-1.23495 2.48207,-1.62429c0.9612,-0.38934 2.01364,-0.58401 3.15734,-0.58401c0.63269,0 1.25321,0.073 1.86155,0.219c0.60835,0.14601 1.18628,0.35892 1.7338,0.63878zM265.59974,306.33333l-4.69038,11.0598c-0.10951,0.27983 -0.26767,0.49884 -0.47451,0.65702c-0.20684,0.14601 -0.43801,0.219 -0.69352,0.219c-0.38934,0 -0.68135,-0.1095 -0.87603,-0.32851c-0.1825,-0.219 -0.27375,-0.48668 -0.27375,-0.80302c0,-0.13383 0.02433,-0.27375 0.073,-0.41976l5.42041,-13.03085c0.10951,-0.29201 0.28592,-0.5171 0.52927,-0.67527c0.24334,-0.15818 0.49884,-0.22509 0.76652,-0.20075c0.26768,0 0.51102,0.07909 0.73002,0.23726c0.23118,0.14601 0.39542,0.35892 0.49277,0.63877l5.36565,12.77535c0.073,0.1825 0.1095,0.35892 0.1095,0.52927c0,0.38934 -0.12775,0.69961 -0.38326,0.93079c-0.25551,0.23118 -0.53534,0.34677 -0.83952,0.34677c-0.25551,0 -0.49276,-0.07909 -0.71176,-0.23725c-0.20684,-0.15818 -0.3711,-0.37718 -0.49276,-0.65702l-4.67212,-10.9138zM261.58463,314.74681l1.18629,-2.51857h5.89492l0.40151,2.51857zM285.5104,302.90224c0.34068,0 0.62052,0.11559 0.83952,0.34677c0.219,0.23118 0.32851,0.52319 0.32851,0.87603v12.70235c0,0.37718 -0.12775,0.69352 -0.38326,0.94903c-0.25551,0.25551 -0.57184,0.38326 -0.94903,0.38326c-0.1825,0 -0.37718,-0.03042 -0.58401,-0.09125c-0.19468,-0.073 -0.34069,-0.16425 -0.43802,-0.27375l-8.55948,-10.8773l0.56577,-0.34675v10.36629c0,0.35284 -0.11559,0.64485 -0.34675,0.87602c-0.219,0.23118 -0.51102,0.34677 -0.87603,0.34677c-0.35284,0 -0.63876,-0.11559 -0.85776,-0.34675c-0.20684,-0.23118 -0.31025,-0.52319 -0.31025,-0.87603v-12.70234c0,-0.37718 0.12167,-0.69352 0.36501,-0.94903c0.25551,-0.25551 0.57184,-0.38326 0.94903,-0.38326c0.20684,0 0.41977,0.04259 0.63878,0.12776c0.219,0.073 0.37718,0.18859 0.47451,0.34677l8.30398,10.60355l-0.36501,0.25551v-10.11078c0,-0.35284 0.10951,-0.64485 0.32851,-0.87602c0.219,-0.23118 0.51102,-0.34676 0.87603,-0.34676zM297.42633,318.15966c-0.41368,0 -0.74827,-0.12775 -1.00378,-0.38326c-0.24334,-0.25551 -0.36501,-0.57184 -0.36501,-0.94903v-12.59285c0,-0.37718 0.12167,-0.69352 0.36501,-0.94903c0.25551,-0.25551 0.57185,-0.38325 0.94903,-0.38325h7.0812c0.37718,0 0.69352,0.12167 0.94903,0.36501c0.25551,0.24334 0.38326,0.55361 0.38326,0.93079c0,0.31634 -0.12775,0.60227 -0.38326,0.85778c-0.25551,0.24334 -0.57184,0.36501 -0.94903,0.36501h-5.87666l0.20076,-0.27375v4.38012l-0.16425,-0.27375h4.87289c0.37718,0 0.69352,0.12167 0.94903,0.36501c0.25551,0.23118 0.38327,0.53535 0.38327,0.91253c0,0.31634 -0.12775,0.60227 -0.38326,0.85778c-0.25551,0.24334 -0.57185,0.36501 -0.94903,0.36501h-4.90938l0.20076,-0.20075v5.2744c0,0.37718 -0.13383,0.69352 -0.40151,0.94903c-0.26768,0.25551 -0.58401,0.38326 -0.94902,0.38326zM316.69939,315.60459c0.37718,0 0.69352,0.12167 0.94903,0.36501c0.25551,0.24334 0.38326,0.5536 0.38326,0.93078c0,0.36501 -0.12775,0.66919 -0.38325,0.91252c-0.25551,0.23118 -0.57184,0.34677 -0.94903,0.34677h-7.0812c-0.37718,0 -0.69352,-0.12775 -0.94902,-0.38325c-0.24334,-0.25551 -0.36501,-0.57184 -0.36501,-0.94903v-12.59285c0,-0.37718 0.12777,-0.69352 0.38327,-0.94903c0.26768,-0.25551 0.60227,-0.38326 1.00378,-0.38326c0.35284,0 0.6631,0.12776 0.93078,0.38326c0.26768,0.25551 0.40152,0.57184 0.40152,0.94903v11.75333l-0.47451,-0.38326zM328.95183,302.84748c0.34068,0 0.64485,0.12776 0.91253,0.38326c0.26768,0.24334 0.40151,0.56577 0.40151,0.96728c0,0.12167 -0.01825,0.25551 -0.05475,0.40152c-0.0365,0.13383 -0.09733,0.26767 -0.1825,0.40151l-4.94588,7.0812l0.38326,-1.51479v6.25993c0,0.37718 -0.12775,0.69352 -0.38326,0.94903c-0.25551,0.25551 -0.54751,0.38326 -0.87602,0.38326c-0.36501,0 -0.67526,-0.12775 -0.93077,-0.38325c-0.25551,-0.25551 -0.38325,-0.57185 -0.38325,-0.94903v-6.07741l0.1825,0.69352l-4.70863,-6.24167c-0.14601,-0.19468 -0.24942,-0.37718 -0.31025,-0.54751c-0.06083,-0.1825 -0.09125,-0.34676 -0.09125,-0.49276c0,-0.38934 0.15209,-0.70569 0.45627,-0.94902c0.30418,-0.24334 0.62052,-0.36501 0.94903,-0.36501c0.40151,0 0.75435,0.20076 1.05853,0.60227l4.17937,5.76716l-0.60226,-0.073l3.85086,-5.65765c0.30418,-0.42584 0.66919,-0.63876 1.09503,-0.63876zM333.50761,313.34152c-0.49885,0 -0.76653,-0.27375 -0.80302,-0.82127l-0.63876,-8.03022c-0.02433,-0.45018 0.09733,-0.82735 0.36501,-1.13153c0.26768,-0.30418 0.62052,-0.45626 1.05853,-0.45626c0.43801,0 0.79085,0.15209 1.05853,0.45627c0.27983,0.30418 0.39542,0.68135 0.34677,1.13153l-0.60226,8.03022c-0.04867,0.54751 -0.31025,0.82128 -0.78477,0.82128zM333.36161,318.15966c-0.42584,0 -0.75435,-0.10951 -0.98552,-0.32851c-0.219,-0.23118 -0.32851,-0.55969 -0.32851,-0.98552v-0.36501c0,-0.42584 0.10951,-0.74827 0.32851,-0.96727c0.23118,-0.23118 0.55969,-0.34675 0.98552,-0.34675h0.27377c0.42584,0 0.74827,0.11559 0.96728,0.34677c0.23118,0.219 0.34677,0.54142 0.34677,0.96728v0.36501c0,0.42584 -0.11559,0.75435 -0.34675,0.98553c-0.219,0.219 -0.54143,0.32851 -0.96727,0.32851zM339.80033,311.27921c0,-0.37718 0.12168,-0.69352 0.36501,-0.94903c0.25551,-0.25551 0.57184,-0.38326 0.94902,-0.38326c0.59618,0 1.13153,-0.09125 1.60605,-0.27375c0.48669,-0.1825 0.86993,-0.47451 1.14978,-0.87602c0.27983,-0.41368 0.41977,-0.95511 0.41977,-1.62429c0,-0.48669 -0.12167,-0.91861 -0.36501,-1.29578c-0.23118,-0.37718 -0.55361,-0.67527 -0.96728,-0.89427c-0.41368,-0.219 -0.88211,-0.32851 -1.40528,-0.32851c-0.41368,0 -0.79693,0.07301 -1.14977,0.21901c-0.35284,0.14601 -0.67526,0.34068 -0.96727,0.58401c-0.23118,0.20684 -0.51102,0.35892 -0.83953,0.45627c-0.32851,0.08517 -0.65702,0.00608 -0.98552,-0.23725c-0.35284,-0.26768 -0.54752,-0.57793 -0.58402,-0.93077c-0.02433,-0.36501 0.11559,-0.6996 0.41977,-1.00377c0.52319,-0.54751 1.13761,-0.96727 1.8433,-1.25928c0.70569,-0.30418 1.46004,-0.45625 2.26306,-0.45625c0.9977,0 1.89805,0.23118 2.70107,0.69352c0.8152,0.46234 1.46004,1.07678 1.93455,1.8433c0.48669,0.76652 0.73002,1.63646 0.73002,2.60983c0,0.73002 -0.10951,1.37486 -0.32851,1.93455c-0.219,0.55969 -0.52926,1.04029 -0.93077,1.4418c-0.40151,0.40151 -0.86993,0.72393 -1.40528,0.96729c-0.52319,0.23118 -1.09503,0.39542 -1.71555,0.49277c-0.0365,0.01217 -0.06691,0.03042 -0.09125,0.05476c-0.01217,0.01217 -0.01824,0.03042 -0.01824,0.05476v0.80302c0,0.37718 -0.12775,0.69352 -0.38326,0.94903c-0.24334,0.25551 -0.5536,0.38326 -0.93077,0.38326c-0.37718,0 -0.69352,-0.12775 -0.94903,-0.38326c-0.24334,-0.25551 -0.36501,-0.57184 -0.36501,-0.94903zM341.00486,318.15966c-0.42584,0 -0.75435,-0.10951 -0.98552,-0.32851c-0.219,-0.23118 -0.32851,-0.55969 -0.32851,-0.98552v-0.36501c0,-0.42584 0.10951,-0.74827 0.32851,-0.96727c0.23118,-0.23118 0.55969,-0.34675 0.98552,-0.34675h0.27376c0.42584,0 0.74828,0.11559 0.96728,0.34677c0.23118,0.219 0.34677,0.54142 0.34677,0.96728v0.36501c0,0.42584 -0.11559,0.75435 -0.34675,0.98553c-0.219,0.219 -0.54143,0.32851 -0.96727,0.32851z" fill="#e4e4e4" stroke="none" stroke-width="1" stroke-linecap="square"/></g></g></svg>