<svg version="1.1" xmlns="http://www.w3.org/2000/svg" xmlns:xlink="http://www.w3.org/1999/xlink" width="51.81665" height="51.81832" viewBox="0,0,51.81665,51.81832"><defs><linearGradient x1="239.92199" y1="155.09001" x2="239.92199" y2="204.90833" gradientUnits="userSpaceOnUse" id="color-1"><stop offset="0" stop-color="#ed3939"/><stop offset="1" stop-color="#a31919"/></linearGradient></defs><g transform="translate(-213.96661,-154.09001)"><g data-paper-data="{&quot;isPaintingLayer&quot;:true}" fill-rule="nonzero" stroke-linecap="butt" stroke-linejoin="miter" stroke-miterlimit="10" stroke-dasharray="" stroke-dashoffset="0" style="mix-blend-mode: normal"><path d="M214.96663,198.72527c0,-11.25908 0,-34.36061 0,-38.83371c0,-1.96596 2.20029,-4.88183 5.04715,-4.79986c6.01019,0.17305 28.98107,0 38.72378,0c3.13463,0 5.92554,1.84509 6.0457,4.68375c0.21175,5.00233 0,27.097 0,38.60767c0,3.94876 -2.69927,6.52521 -6.79115,6.52521c-11.1123,0 -32.49513,0 -37.97835,0c-2.51898,0 -5.04715,-2.43555 -5.04715,-6.18307z" fill="#0a0d10" stroke="url(#color-1)" stroke-width="2"/><path d="M254.81935,171.86628c0,4.87336 -12.67167,14.77507 -12.67167,14.77507c0,0 -12.36386,-9.90171 -12.36386,-14.77507c0,-2.93098 3.78388,-6.58905 7.29672,-5.76782c2.51151,0.58714 4.21745,2.80742 5.27235,2.68968c1.56208,-0.17435 2.87704,-2.16326 5.79916,-2.55004c2.66348,-0.35255 6.6673,3.30433 6.6673,5.62818z" fill="#ec3838" stroke="none" stroke-width="NaN"/><path d="M235.14857,185.73937c0.96629,1.90214 -2.01633,8.27946 -2.01633,8.27946c0,0 -6.7891,-1.41327 -7.7554,-3.31541c-0.58116,-1.144 0.17042,-3.32207 1.70437,-3.69806c1.0967,-0.26881 2.20279,0.25954 2.59118,0.00442c0.57513,-0.37778 0.69402,-1.41481 1.75787,-2.14518c0.96969,-0.66572 3.25753,-0.03227 3.7183,0.87476z" fill="#ec3838" stroke="none" stroke-width="NaN"/></g></g></svg>