<svg version="1.1" xmlns="http://www.w3.org/2000/svg" xmlns:xlink="http://www.w3.org/1999/xlink" width="701.78269" height="532.74216" viewBox="0,0,701.78269,532.74216"><g transform="translate(108.95686,84.81644)"><g data-paper-data="{&quot;isPaintingLayer&quot;:true}" fill-rule="nonzero" stroke="none" stroke-width="0" stroke-linecap="butt" stroke-linejoin="miter" stroke-miterlimit="10" stroke-dasharray="" stroke-dashoffset="0" style="mix-blend-mode: normal"><path d="" data-paper-data="{&quot;index&quot;:null}" fill="#344e5f"/><path d="" data-paper-data="{&quot;index&quot;:null}" fill="#344e5f"/><path d="" data-paper-data="{&quot;index&quot;:null}" fill="#344e5f"/><path d="" data-paper-data="{&quot;index&quot;:null}" fill="#344e5f"/><path d="" data-paper-data="{&quot;index&quot;:null}" fill="#344e5f"/><path d="" data-paper-data="{&quot;index&quot;:null}" fill="#344e5f"/><path d="" data-paper-data="{&quot;index&quot;:null}" fill="#344e5f"/><path d="" data-paper-data="{&quot;index&quot;:null}" fill="#344e5f"/><path d="" data-paper-data="{&quot;index&quot;:null}" fill="#344e5f"/><path d="" data-paper-data="{&quot;index&quot;:null}" fill="#344e5f"/><path d="" data-paper-data="{&quot;index&quot;:null}" fill="#344e5f"/><path d="" data-paper-data="{&quot;index&quot;:null}" fill="#344e5f"/><path d="" data-paper-data="{&quot;index&quot;:null}" fill="#344e5f"/><path d="" data-paper-data="{&quot;index&quot;:null}" fill="#344e5f"/><path d="" data-paper-data="{&quot;index&quot;:null}" fill="#344e5f"/><path d="" data-paper-data="{&quot;index&quot;:null}" fill="#344e5f"/><path d="" data-paper-data="{&quot;index&quot;:null}" fill="#344e5f"/><path d="" data-paper-data="{&quot;index&quot;:null}" fill="#344e5f"/><path d="" data-paper-data="{&quot;index&quot;:null}" fill="#344e5f"/><path d="" data-paper-data="{&quot;index&quot;:null}" fill="#344e5f"/><path d="" data-paper-data="{&quot;index&quot;:null}" fill="#344e5f"/><path d="M362.98886,271.04149c-0.67356,0.83048 -5.84644,0.00511 -10.79627,0.64812c-3.03397,0.39412 -6.68292,2.2015 -7.10522,2.7458c-3.17136,4.08748 -3.63682,9.09037 -7.7211,7.08066c-2.11701,-1.04171 2.26543,-6.92449 1.72462,-8.89819c-0.73736,-2.69103 4.32585,-0.22897 6.2126,-2.55528c4.18679,-5.16215 2.93877,-12.85984 8.45422,-10.14589c2.99983,1.47611 -5.10421,5.58357 -0.25989,7.8672c4.0624,1.91504 11.40066,0.90309 9.49103,3.25758z" data-paper-data="{&quot;index&quot;:null}" fill="#344e5f"/><path d="M413.22336,325.63505c0.38087,0.93644 -3.76392,3.48459 -6.32374,6.84651c-1.56903,2.06067 -2.14745,5.39859 -1.88547,6.00094c1.96732,4.52341 6.57744,8.0257 1.97203,9.16213c-2.38714,0.58905 -5.33577,-5.81285 -7.62153,-6.76318c-3.11652,-1.29571 2.56394,-2.72345 1.49704,-5.34661c-2.36749,-5.82084 -10.72708,-10.04004 -4.50787,-11.57469c3.3826,-0.83468 2.18967,6.63879 7.5539,5.22637c4.49839,-1.18445 8.23582,-6.2064 9.31564,-3.55148z" data-paper-data="{&quot;index&quot;:null}" fill="#344e5f"/><path d="M570.30543,192.0978c0,13.26529 -26.40615,175.31904 -23.69403,233.27538c0.84038,17.95845 -130.45363,-9.60014 -137.01274,-9.41721c-2.68485,0.07487 4.52942,-5.16701 -0.70889,-43.2853c-8.15416,-59.33646 -23.87658,-133.87483 -21.44674,-150.63786c1.24353,-8.57888 11.15421,-27.20423 13.83673,-34.03036c2.50247,-6.36796 -6.57362,-42.18808 -4.08895,-46.97048c3.1442,-6.05182 0.05041,-17.37295 -10.38445,-23.98905c-6.30108,-3.99513 -4.38326,-8.73364 -5.56051,-13.38265c-1.09137,-4.3099 -5.70569,-8.54289 -0.79629,-12.03538c3.73907,-2.65992 -15.36733,-32.67809 -5.30398,-38.65652c7.16982,-4.25945 48.02807,5.48197 53.81535,3.91996c38.35099,-10.35109 126.64228,6.15964 126.64228,9.93575z" data-paper-data="{&quot;index&quot;:null}" fill="#344e5f"/><path d="M386.62443,243.53982c0.066,0.01484 -0.71839,-1.62799 -1.02612,-3.23201c-0.22642,-1.18015 -0.00487,-2.41341 0.03517,-2.57219c0.44192,-1.75199 4.25634,-1.50363 4.94441,-1.20309c0.5141,0.22455 -2.77038,3.67428 -2.07612,5.53186c0.84118,2.25066 3.41348,2.80009 3.68879,3.26458c0.46251,0.78031 -0.2294,2.06914 -0.44426,2.64904c-0.19248,0.51948 -1.35671,0.57641 -2.57831,0.53212c-1.18978,-0.04314 -2.42341,-0.19192 -3.64717,0.6079c-1.43628,0.93873 -1.60392,1.90051 -2.80419,2.91121c-0.46849,0.39449 -0.82219,0.99399 -2.08343,1.21004c-1.12459,0.19263 -3.12047,0.01109 -4.21524,0.19399c-0.82304,0.1375 -2.44082,0.78832 -2.4605,0.7839c-0.35343,-0.07945 -1.49116,0.36958 -1.22571,-0.2919c0.16336,-0.40706 -0.07246,-0.36028 0.55472,-1.00837c0.2763,-0.28552 1.31538,-0.75059 2.42708,-0.85252c0.83682,-0.07673 2.37082,0.429 2.87958,-0.15032c0.05515,-0.0628 -0.91448,-0.34214 -1.58718,-0.55704c-0.77144,-0.24645 -1.66591,-0.69396 -1.22355,-0.99422c0.40865,-0.27738 2.13949,-0.00317 3.30423,0.07102c1.31107,0.08351 2.14728,-0.31954 2.9571,-1.12699c0.43775,-0.43646 0.52649,-1.2963 0.61823,-1.47859c0.18213,-0.36197 -4.54154,-0.82515 -7.24579,-0.07411c-2.70424,0.75105 -5.17977,3.65639 -5.50333,3.61491c-1.68874,-0.21651 -0.13113,-2.85181 -0.06765,-4.33385c0.04319,-1.0083 5.67496,-0.07361 5.90117,-1.06696c0.06589,-0.28933 -0.78016,-0.91488 -1.17013,-1.42501c-0.74882,-0.97957 -2.70388,-0.98846 -3.78184,-1.83269c-1.08898,-0.85286 -0.64692,-2.9353 -0.22551,-2.86355c1.29001,0.21963 3.47462,1.73236 5.15222,2.03081c1.55671,0.27696 1.80216,-0.94322 2.7497,-0.66371c1.18592,0.34982 -0.8461,3.39079 -0.29121,3.81543c1.00322,0.76771 5.09826,-0.03898 5.11549,-0.30892c0.07231,-1.13326 -0.91244,-0.95135 -1.61126,-1.83042c-0.75668,-0.95186 -1.27543,-3.2551 -2.85257,-3.23674c-0.84758,0.00988 -1.39259,-0.10296 -2.08742,-0.24803c-0.71655,-0.1496 -1.57668,-0.334 -2.03606,-0.48706c-0.69181,-0.2305 -1.35758,-1.94102 -1.34051,-1.97474c0.3848,-0.76 4.18754,1.35177 4.28707,0.8323c0.17545,-0.91568 -5.61126,-3.30036 -5.82269,-4.68122c-0.11861,-0.77465 3.45303,0.81096 4.4277,0.35954c1.59094,-0.73685 1.05579,-3.23558 1.86032,-3.05913c0.54173,0.11881 -0.21507,3.1775 0.81029,5.33635c1.04586,2.20203 4.65629,3.13851 4.70337,3.2126c0.19162,0.30151 0.16643,1.74047 0.99369,2.88464c0.68093,0.94178 1.65527,1.63426 1.99743,1.71117z" data-paper-data="{&quot;index&quot;:null}" fill="#344e5f"/><path d="M398.3364,398.42993c-1.20727,-0.28404 -1.56624,-4.38739 -3.68253,-7.93151c-1.29716,-2.17235 -4.50704,-4.42927 -5.29318,-4.60106c-5.90363,-1.29004 -12.21794,-0.30462 -10.82104,-3.90677c0.72406,-1.86712 9.17217,-0.14696 11.46995,-1.07954c3.1329,-1.27153 1.43751,3.18619 4.81929,3.98184c7.50427,1.76556 16.69568,-1.22515 14.80929,3.63926c-1.026,2.64573 -8.27047,-2.3418 -9.80349,1.90399c-1.28558,3.56049 1.92446,8.79908 -1.49827,7.99381z" data-paper-data="{&quot;index&quot;:null}" fill="#344e5f"/><path d="M380.08511,276.60917c9.98794,2.73174 17.22631,-9.56041 16.112,-3.25635c-0.28133,1.59164 3.47106,5.76871 1.52116,9.7225c-0.80709,1.6365 -7.17284,3.73891 -7.94557,4.80502c-0.81082,1.11861 3.76741,1.10558 3.1317,2.56686c-1.12879,2.59473 0.63421,4.63919 -1.58166,3.88128c-0.7236,-0.24749 -4.65062,-4.63168 -5.01447,-8.53365c-0.06306,-0.67622 -4.8981,2.6883 -4.82707,5.51253c0.04883,1.94127 5.32493,3.02016 4.35946,4.79814c-2.29279,4.22235 -6.51504,-1.40724 -7.36068,-1.65388c-0.79887,-0.23299 -0.02271,-0.65908 0.222,-3.68897c0.47681,-5.90369 -1.16046,-9.15091 -1.54796,-9.25689c-0.6342,-0.17346 -0.8369,12.79928 -3.10298,16.70665c-0.71019,1.22459 -0.57077,-7.64974 -1.62888,-8.40747c-1.49848,-1.07309 -4.16818,5.49179 -4.42466,5.43608c-3.89166,-0.84523 4.43803,-11.48406 3.78221,-15.72773c-0.16649,-1.07732 -3.79414,2.72903 -7.27467,6.14792c-0.69197,0.67973 -0.254,10.00903 -0.90599,10.61668c-1.00357,0.93535 -1.54051,-2.28231 -2.57917,-4.08251c-0.89372,-1.54897 -2.34333,-1.65512 -2.63966,-1.7306c-1.38064,-0.35171 4.80682,-7.69553 6.02158,-11.52979c1.23751,-3.90607 -2.48271,-4.30827 -2.33153,-5.16356c1.1143,-6.30405 8.0269,0.10602 18.01485,2.83774z" data-paper-data="{&quot;index&quot;:null}" fill="#344e5f"/><path d="M399.9605,362.64846c-0.06821,-0.03965 -0.07937,2.13194 -0.62147,4.09644c-0.39885,1.44538 -1.34687,2.80003 -1.48228,2.97052c-1.49426,1.88119 -5.77793,0.2963 -6.40733,-0.28612c-0.47026,-0.43516 5.27141,-3.31844 5.50741,-5.70838c0.28595,-2.89567 -2.38876,-4.40734 -2.44768,-5.03951c-0.09899,-1.06202 1.42558,-2.32121 1.9997,-2.92055c0.5143,-0.53691 1.89615,-0.20706 3.28778,0.25964c1.35539,0.45455 2.70242,1.04649 4.56963,0.53517c2.19147,-0.60012 2.92484,-1.65832 4.88299,-2.42215c0.7643,-0.29813 1.51039,-0.87301 3.09388,-0.69468c1.41192,0.159 3.62442,1.04811 4.99633,1.20826c1.03138,0.12041 3.27195,-0.08419 3.2923,-0.07236c0.36529,0.2123 1.93614,0.07847 1.25763,0.75519c-0.41753,0.41644 -0.11788,0.44239 -1.2083,0.98061c-0.48039,0.23711 -1.94585,0.42309 -3.29199,0.1633c-1.01331,-0.19555 -2.50857,-1.30352 -3.42316,-0.80476c-0.09913,0.05406 0.86861,0.70765 1.52817,1.18554c0.75638,0.54804 1.54273,1.37107 0.86154,1.56882c-0.62929,0.18268 -2.48254,-0.72375 -3.7915,-1.2058c-1.4734,-0.5426 -2.66889,-0.35956 -4.06038,0.30134c-0.75218,0.35725 -1.33695,1.32406 -1.54547,1.50424c-0.41404,0.35778 4.80355,2.50091 8.36003,2.54951c3.5565,0.0486 8.05511,-2.47851 8.40702,-2.3204c1.83678,0.82523 -1.44614,3.3513 -2.35031,5.04815c-0.61515,1.15444 -6.62145,-1.84415 -7.44041,-0.76925c-0.23854,0.31307 0.39189,1.32607 0.55818,2.05016c0.31931,1.39042 2.58123,2.06547 3.35803,3.41087c0.78474,1.35915 -0.89489,3.62346 -1.34331,3.397c-1.3727,-0.69327 -3.05802,-3.19006 -4.83595,-4.10652c-1.64982,-0.85041 -2.61821,0.48093 -3.56026,-0.16532c-1.17905,-0.80884 2.88134,-3.64399 2.47588,-4.32502c-0.73301,-1.23127 -5.93334,-1.68822 -6.10458,-1.38107c-0.71894,1.28943 0.52483,1.41333 0.84248,2.67023c0.34395,1.36095 -0.34533,4.20798 1.49367,4.72293c0.98832,0.27674 1.55702,0.59287 2.28139,0.99731c0.747,0.4171 1.64101,0.92335 2.08787,1.25701c0.67299,0.50249 0.48635,2.71221 0.44766,2.74551c-0.8721,0.7504 -4.09795,-2.99118 -4.50448,-2.42267c-0.71659,1.00208 4.65675,5.73464 4.12804,7.40766c-0.2966,0.93854 -3.54934,-2.11434 -4.93248,-1.9223c-2.25766,0.31346 -3.03746,3.39271 -3.87144,2.91459c-0.56156,-0.32195 2.03008,-3.61122 2.05102,-6.46305c0.02137,-2.90886 -3.64015,-5.22228 -3.65323,-5.3242c-0.05321,-0.41474 0.78241,-2.07467 0.4644,-3.68263c-0.26175,-1.32353 -1.00345,-2.45774 -1.35708,-2.66326z" data-paper-data="{&quot;index&quot;:null}" fill="#344e5f"/><path d="M448.55653,281.95983c-0.50547,2.61159 -19.01396,-0.39831 -31.90114,-0.19423c-10.77181,0.17059 -15.25721,3.81873 -24.46022,3.15172c-6.15006,-0.44574 -10.50483,-7.1436 -17.35799,-7.84032c-15.67101,-1.59317 -32.86724,2.23119 -32.22161,-1.10455c0.33719,-1.74214 5.15892,-6.90428 13.18912,-8.03052c3.7559,-0.52677 10.3453,3.55969 13.62226,2.49534c8.99849,-2.92271 11.67636,-9.79854 21.10963,-9.11485c4.1867,0.30344 4.87845,11.94535 14.12113,10.04115c0.94114,-0.19389 11.49186,-5.64602 12.40322,-6.02893c9.43315,-3.9634 7.54732,-0.05694 13.03825,1.80112c6.71505,2.27229 7.59544,-1.46082 8.35782,6.03112c0.81818,8.04035 10.36541,7.41925 10.09954,8.79293z" data-paper-data="{&quot;index&quot;:null}" fill="#344e5f"/><path d="M400.45273,401.11223c0.01092,-0.05283 -1.9878,0.75247 -3.99473,1.18452c-1.4766,0.31789 -3.07509,0.29584 -3.28229,0.2841c-2.28624,-0.12966 -2.43136,-3.10895 -2.13162,-3.67733c0.22395,-0.42467 5.01783,1.69733 7.30114,0.93573c2.76647,-0.92276 3.15537,-2.97812 3.71399,-3.24719c0.93846,-0.45204 2.66471,-0.07305 3.42974,0.0229c0.68533,0.08595 0.89878,0.97923 0.99017,1.9291c0.08901,0.92514 0.0487,1.89697 1.21611,2.74636c1.37015,0.9969 2.61615,1.01012 4.04946,1.81583c0.55945,0.31448 1.36626,0.5154 1.79423,1.46443c0.38159,0.8462 0.39178,2.41135 0.75736,3.23567c0.27484,0.61972 1.30005,1.79179 1.29679,1.80755c-0.05848,0.28288 0.65146,1.10821 -0.22366,0.98302c-0.53853,-0.07704 -0.45037,0.09963 -1.35221,-0.30687c-0.3973,-0.17908 -1.11576,-0.92619 -1.3802,-1.7734c-0.19906,-0.63773 0.2598,-1.88499 -0.54007,-2.20825c-0.0867,-0.03504 -0.32536,0.74847 -0.51782,1.29459c-0.22071,0.62629 -0.68278,1.37204 -1.11897,1.06635c-0.40296,-0.28239 -0.26297,-1.65383 -0.30938,-2.56337c-0.05224,-1.0238 -0.6671,-1.62157 -1.79412,-2.14999c-0.60921,-0.28564 -1.71574,-0.25019 -1.95916,-0.29906c-0.48334,-0.09701 -0.50195,3.6113 0.78247,5.61128c1.28442,1.99998 5.28663,3.56239 5.27292,3.81759c-0.07155,1.33191 -3.61851,0.44652 -5.51493,0.5768c-1.29021,0.08863 -0.78062,-4.37887 -2.07393,-4.43355c-0.3767,-0.01593 -1.07152,0.71393 -1.67444,1.07718c-1.15775,0.69753 -0.93248,2.21022 -1.87792,3.14585c-0.9551,0.9452 -3.66249,0.85543 -3.62206,0.52092c0.12378,-1.02399 1.78723,-2.89617 1.96456,-4.22938c0.16456,-1.23714 -1.42015,-1.27925 -1.17862,-2.04569c0.30229,-0.95927 4.42367,0.24383 4.89768,-0.23659c0.85697,-0.86858 -0.66669,-3.93717 -1.01279,-3.91782c-1.45299,0.08124 -1.10199,0.82062 -2.13772,1.46732c-1.12148,0.70025 -3.99399,1.38008 -3.77972,2.59727c0.11516,0.65414 0.03732,1.08918 -0.06346,1.64397c-0.10394,0.57213 -0.23484,1.25949 -0.3743,1.63319c-0.21003,0.56279 -2.30936,1.28457 -2.3544,1.27545c-1.01513,-0.20555 1.21593,-3.40132 0.54186,-3.41541c-1.18818,-0.02484 -3.52693,4.73794 -5.26113,5.06854c-0.97287,0.18546 0.6156,-2.76796 -0.07766,-3.46693c-1.1316,-1.14091 -4.25124,-0.42474 -4.12374,-1.06814c0.08586,-0.43324 4.07547,-0.21827 6.70265,-1.27232c2.67972,-1.07513 3.43624,-3.97999 3.52496,-4.02536c0.36105,-0.18465 2.19793,-0.33932 3.55596,-1.11741c1.11781,-0.64046 1.8824,-1.47761 1.93901,-1.75147z" data-paper-data="{&quot;index&quot;:null}" fill="#344e5f"/><path d="M358.56801,384.9928c1.19117,-0.32265 4.57686,2.83348 8.96274,4.73286c2.6883,1.16422 6.98814,1.52154 7.75386,1.30078c5.75028,-1.65784 10.11646,-5.34493 11.70326,-1.7908c0.8225,1.84222 -7.31121,4.31648 -8.4671,6.12266c-1.57599,2.46266 -3.56661,-1.92039 -6.90329,-1.01658c-7.4042,2.00558 -12.5859,8.632 -14.72874,3.83247c-1.16548,-2.61045 8.45887,-1.88993 6.49672,-6.02717c-1.64544,-3.46946 -8.19455,-6.23946 -4.81746,-7.15421z" data-paper-data="{&quot;index&quot;:null}" fill="#344e5f"/><path d="M454.63952,368.96618c-2.44545,10.06187 10.04836,16.94631 3.71506,16.01246c-1.59903,-0.23578 -5.66725,3.63436 -9.67509,1.79814c-1.65888,-0.76003 -3.94219,-7.06316 -5.02992,-7.80514c-1.1413,-0.77855 -0.99755,3.79745 -2.4764,3.20372c-2.6259,-1.05424 -4.61918,0.76641 -3.92486,-1.47019c0.22674,-0.73037 4.49701,-4.78098 8.38701,-5.25608c0.67414,-0.08235 -2.82706,-4.81935 -5.64811,-4.6677c-1.93908,0.10423 -2.8669,5.40899 -4.67171,4.49468c-4.28608,-2.1713 1.22066,-6.55256 1.44304,-7.4049c0.21009,-0.8052 0.65817,-0.04152 3.6938,0.11658c5.9149,0.30805 9.11405,-1.42126 9.20892,-1.81164c0.15527,-0.6389 -12.81797,-0.47111 -16.78844,-2.6247c-1.24437,-0.67495 7.63032,-0.78895 8.35753,-1.86827c1.02988,-1.5285 -5.60855,-4.00967 -5.56019,-4.26763c0.73377,-3.91421 11.6061,4.10832 15.82932,3.3316c1.07213,-0.19718 -2.83625,-3.71467 -6.35312,-7.09616c-0.69921,-0.67228 -10.0122,0.03188 -10.63822,-0.60249c-0.96362,-0.97645 2.2374,-1.60505 4.0072,-2.69468c1.52282,-0.93757 1.58754,-2.38963 1.65453,-2.688c0.31215,-1.39012 7.82963,4.58514 11.69701,5.68993c3.93982,1.12548 4.23563,-2.6047 5.09489,-2.478c6.33331,0.93386 0.12322,8.02666 -2.32222,18.08853z" data-paper-data="{&quot;index&quot;:null}" fill="#344e5f"/><path d="M418.52442,398.66628c-0.60882,-0.49143 -5.31689,-3.63449 -3.72339,-5.42257c1.39846,-1.56923 8.89123,-1.68811 11.4097,-3.58103c5.38816,-4.04983 10.68281,-6.58486 11.82593,-5.66214c1.14312,0.92272 -2.29816,4.95376 -7.68631,9.0036c-1.77625,1.33505 1.67042,6.49747 0.05987,7.43368c-3.27496,1.90374 -11.11953,-1.153 -11.88581,-1.77153z" data-paper-data="{&quot;index&quot;:null}" fill="#344e5f"/><path d="M394.111,213.24412c0.05204,0.05245 0.81115,-2.03711 2.01035,-3.81617c0.88231,-1.30895 2.26237,-2.41568 2.45156,-2.5516c2.08771,-1.49974 5.668,0.9226 6.07359,1.61524c0.30304,0.51751 -6.22154,2.09454 -7.27248,4.34742c-1.27334,2.72961 0.78227,4.74503 0.62117,5.36631c-0.27063,1.04374 -2.17318,1.93797 -2.93277,2.39528c-0.68045,0.40967 -1.89792,-0.19698 -3.07765,-0.93751c-1.149,-0.72125 -2.24261,-1.5731 -4.2175,-1.47093c-2.31786,0.11992 -3.38898,0.98596 -5.5385,1.31235c-0.83899,0.1274 -1.75581,0.52519 -3.21973,0.02233c-1.30531,-0.44836 -3.13022,-1.76742 -4.39659,-2.20854c-0.95203,-0.33163 -3.18089,-0.60298 -3.19641,-0.61863c-0.27872,-0.28088 -1.83805,-0.48039 -0.95123,-0.99041c0.54572,-0.31386 0.26601,-0.40151 1.50189,-0.69199c0.54447,-0.12797 2.02024,-0.00074 3.22745,0.53097c0.90873,0.40023 1.9673,1.78017 3.0202,1.49092c0.11412,-0.03135 -0.59287,-0.86328 -1.06353,-1.46154c-0.53976,-0.68607 -1.01362,-1.6433 -0.28929,-1.69137c0.66915,-0.04441 2.14202,1.21623 3.23682,1.95425c1.23234,0.83074 2.44704,0.90437 4.01521,0.55865c0.84769,-0.18688 1.74418,-0.99595 2.00714,-1.12592c0.52214,-0.25809 -3.76542,-3.41344 -7.17463,-4.20382c-3.40923,-0.79039 -8.61363,0.70342 -8.89813,0.47754c-1.48499,-1.17897 2.54797,-2.92596 4.00372,-4.3715c0.99041,-0.98346 5.74293,3.16085 6.90226,2.29662c0.33768,-0.25171 0.07947,-1.35933 0.16882,-2.09162c0.17157,-1.40615 -1.77472,-2.52934 -2.05937,-3.98777c-0.28756,-1.47333 2.11074,-3.30338 2.46466,-2.99149c1.08342,0.95482 1.84646,3.71235 3.24332,4.96689c1.29621,1.16414 2.68786,0.08412 3.37263,0.90362c0.85704,1.02567 -4.03136,2.90784 -3.87548,3.64865c0.2818,1.33933 5.13381,2.86678 5.40461,2.60671c1.13691,-1.0918 -0.01852,-1.47119 0.10864,-2.74838c0.13768,-1.38292 1.78278,-3.98136 0.18873,-4.86189c-0.85668,-0.47322 -1.29557,-0.89665 -1.85398,-1.4377c-0.57585,-0.55797 -1.26259,-1.23256 -1.57807,-1.6474c-0.47513,-0.62475 0.46616,-2.71436 0.51491,-2.73835c1.09869,-0.54052 2.91676,3.73819 3.50429,3.27555c1.03562,-0.81548 -2.50962,-6.4978 -1.42377,-7.99888c0.60915,-0.84209 2.69045,2.77883 4.08901,2.88302c2.28283,0.17006 4.09516,-2.63314 4.73377,-1.9982c0.43,0.42755 -3.20005,3.05425 -4.203,5.79705c-1.02302,2.79764 1.7069,5.7917 1.68437,5.8926c-0.09167,0.41065 -1.46866,1.83496 -1.71644,3.4504c-0.20396,1.32968 0.11965,2.57734 0.38948,2.84925z" data-paper-data="{&quot;index&quot;:null}" fill="#344e5f"/><path d="M371.91832,388.68404c0,-2.0966 23.78049,-0.77567 39.78402,-1.67671c13.37662,-0.75314 18.08427,-3.89873 29.70866,-3.89873c25.53159,0 22.9654,1.7264 22.9654,5.57546c0,3.84905 10.32075,13.00939 -15.21085,13.00939c-5.28826,0 -8.9567,-9.17717 -20.01063,-7.13928c-1.12557,0.20751 -12.95346,5.12934 -13.99637,5.48478c-10.79472,3.67908 -9.38748,0.47814 -16.67514,-0.67781c-8.91233,-1.41365 -9.10896,1.59236 -11.86485,-4.29525c-2.95763,-6.31858 -14.70025,-5.27904 -14.70025,-6.38183z" data-paper-data="{&quot;index&quot;:null}" fill="#344e5f"/><path d="M402.29486,135.35027c-2.44545,10.06186 10.04836,16.94632 3.71506,16.01246c-1.59902,-0.23578 -5.66725,3.63436 -9.6751,1.79814c-1.65888,-0.76003 -3.94219,-7.06316 -5.02992,-7.80514c-1.1413,-0.77855 -0.99756,3.79745 -2.4764,3.20372c-2.6259,-1.05424 -4.61919,0.76641 -3.92486,-1.4702c0.22673,-0.73037 4.49701,-4.78097 8.387,-5.25608c0.67414,-0.08235 -2.82706,-4.81935 -5.64811,-4.6677c-1.93908,0.10423 -2.86689,5.40899 -4.67171,4.49468c-4.28609,-2.1713 1.22065,-6.55257 1.44304,-7.4049c0.21009,-0.8052 0.65816,-0.04152 3.6938,0.11658c5.9149,0.30805 9.11405,-1.42126 9.20892,-1.81164c0.15528,-0.6389 -12.81796,-0.47111 -16.78844,-2.6247c-1.24437,-0.67494 7.63032,-0.78896 8.35753,-1.86827c1.02987,-1.52851 -5.60856,-4.00967 -5.5602,-4.26764c0.73377,-3.91421 11.60609,4.10832 15.82931,3.3316c1.07213,-0.19718 -2.83625,-3.71467 -6.35312,-7.09616c-0.69921,-0.67228 -10.0122,0.03188 -10.63822,-0.60249c-0.96362,-0.97645 2.23739,-1.60505 4.0072,-2.69468c1.52282,-0.93758 1.58754,-2.38963 1.65453,-2.688c0.31215,-1.39012 7.82964,4.58514 11.69702,5.68993c3.93981,1.12548 4.23563,-2.6047 5.09488,-2.47801c6.3333,0.93386 0.12321,8.02665 -2.32222,18.08852z" data-paper-data="{&quot;index&quot;:null}" fill="#344e5f"/><path d="M-108.95685,434.25525v-515.00682h688.26739v515.00682z" fill="none"/><path d="M379.10288,72.04357c0.05204,0.05245 0.81115,-2.03711 2.01035,-3.81617c0.88231,-1.30895 2.26237,-2.41568 2.45156,-2.5516c2.08771,-1.49974 5.668,0.9226 6.07359,1.61524c0.30304,0.51751 -6.22154,2.09454 -7.27248,4.34742c-1.27334,2.72961 0.78227,4.74503 0.62117,5.36631c-0.27063,1.04374 -2.17318,1.93797 -2.93277,2.39528c-0.68045,0.40967 -1.89792,-0.19698 -3.07765,-0.93751c-1.149,-0.72125 -2.24261,-1.5731 -4.2175,-1.47093c-2.31786,0.11992 -3.38898,0.98596 -5.5385,1.31235c-0.83899,0.1274 -1.75581,0.52519 -3.21973,0.02233c-1.30531,-0.44836 -3.13022,-1.76742 -4.39659,-2.20854c-0.95203,-0.33163 -3.18089,-0.60298 -3.19641,-0.61863c-0.27872,-0.28088 -1.83805,-0.48039 -0.95123,-0.99041c0.54572,-0.31386 0.26601,-0.40151 1.50189,-0.69199c0.54447,-0.12797 2.02024,-0.00074 3.22745,0.53097c0.90873,0.40023 1.9673,1.78017 3.0202,1.49092c0.11412,-0.03135 -0.59287,-0.86328 -1.06353,-1.46154c-0.53976,-0.68607 -1.01362,-1.6433 -0.28929,-1.69137c0.66915,-0.04441 2.14202,1.21623 3.23682,1.95425c1.23234,0.83074 2.44704,0.90437 4.01521,0.55865c0.84769,-0.18688 1.74418,-0.99595 2.00714,-1.12592c0.52214,-0.25809 -3.76542,-3.41344 -7.17463,-4.20382c-3.40923,-0.79039 -8.61363,0.70342 -8.89813,0.47754c-1.48499,-1.17897 2.54797,-2.92596 4.00372,-4.3715c0.99041,-0.98346 5.74293,3.16085 6.90226,2.29662c0.33768,-0.25171 0.07947,-1.35933 0.16882,-2.09162c0.17157,-1.40615 -1.77472,-2.52934 -2.05937,-3.98777c-0.28756,-1.47333 2.11074,-3.30338 2.46466,-2.99149c1.08342,0.95482 1.84646,3.71235 3.24332,4.96689c1.29621,1.16414 2.68786,0.08412 3.37263,0.90362c0.85704,1.02567 -4.03136,2.90784 -3.87548,3.64865c0.2818,1.33933 5.13381,2.86678 5.40461,2.60671c1.13691,-1.0918 -0.01852,-1.47119 0.10864,-2.74838c0.13768,-1.38292 1.78278,-3.98136 0.18873,-4.86189c-0.85668,-0.47322 -1.29557,-0.89665 -1.85398,-1.4377c-0.57585,-0.55797 -1.26259,-1.23256 -1.57807,-1.6474c-0.47513,-0.62475 0.46616,-2.71436 0.51491,-2.73835c1.09869,-0.54052 2.91676,3.73819 3.50429,3.27555c1.03562,-0.81548 -2.50962,-6.4978 -1.42377,-7.99888c0.60915,-0.84209 2.69045,2.77883 4.08901,2.88302c2.28283,0.17006 4.09516,-2.63314 4.73377,-1.9982c0.43,0.42755 -3.20005,3.05425 -4.203,5.79705c-1.02302,2.79764 1.7069,5.7917 1.68437,5.8926c-0.09167,0.41065 -1.46866,1.83496 -1.71644,3.4504c-0.20396,1.32968 0.11965,2.57734 0.38948,2.84925z" data-paper-data="{&quot;index&quot;:null}" fill="#344e5f"/><path d="M-102.94497,447.92572v-529.33151h695.77081v529.33152z" fill="none"/><path d="M-102.26284,444.51508v-529.33151h688.26739v529.33151z" fill="none"/></g></g></svg>