<svg version="1.1" xmlns="http://www.w3.org/2000/svg" xmlns:xlink="http://www.w3.org/1999/xlink" width="498.60552" height="155.69954" viewBox="0,0,498.60552,155.69954"><g transform="translate(-16.0889,-214.356)"><g data-paper-data="{&quot;isPaintingLayer&quot;:true}" fill-rule="nonzero" stroke="none" stroke-width="0" stroke-linecap="butt" stroke-linejoin="miter" stroke-miterlimit="10" stroke-dasharray="" stroke-dashoffset="0" style="mix-blend-mode: normal"><g data-paper-data="{&quot;index&quot;:null}" fill="#0e0e0f"><path d="M79.84007,244.68696c0.4199,1.18043 1.05368,2.76458 1.36849,4.33265c0.43136,2.14861 1.05115,3.73909 -0.19136,5.5443c-0.66189,0.96165 -1.20086,0.22768 -1.51963,0.17385c-0.07053,-0.01191 -0.92539,0.88576 -0.97659,0.70659c-0.44229,-1.54779 -1.93045,-3.72224 -2.32304,-5.67774c-0.42415,-2.11265 -1.02136,-3.05991 -0.32244,-5.88609c0.00894,-0.03612 -0.46303,-0.94462 -1.04078,-1.04308c-0.84179,-0.14346 -1.92399,0.46846 -2.20181,0.01005c-0.11759,-0.19403 1.75389,-1.03411 1.70099,-1.20987c-0.21371,-0.71004 0.87325,-1.43916 1.16283,-1.62713c0.23129,-0.15014 1.63523,-0.17917 2.29103,0.24464c0.81935,0.5295 0.90526,1.57072 1.08095,1.71812c0.33155,0.27819 0.86349,2.41047 0.97136,2.71371z" data-paper-data="{&quot;index&quot;:null}"/><path d="M78.33301,250.54278c-0.82092,2.00339 -1.25625,4.84922 -1.62247,4.69916c-0.24548,-0.10059 -1.35034,-0.2822 -1.02055,-1.41376c0.16219,-0.55652 0.20121,-5.10653 0.47185,-5.76699c0.82092,-2.00339 0.95804,-0.5791 1.32425,-0.42904c0.36622,0.15006 1.66784,0.90724 0.84693,2.91064z" data-paper-data="{&quot;index&quot;:null}"/></g><g data-paper-data="{&quot;index&quot;:null}" fill="#0e0e0f"><path d="M121.92181,245.40642c0.31926,0.89752 0.80115,2.102 1.04051,3.29425c0.32798,1.63366 0.79922,2.84295 -0.14549,4.21551c-0.50325,0.73117 -0.91305,0.17311 -1.15542,0.13219c-0.05363,-0.00906 -0.7036,0.67347 -0.74253,0.53724c-0.33629,-1.17683 -1.46778,-2.83013 -1.76628,-4.31697c-0.32249,-1.60632 -0.77657,-2.32654 -0.24516,-4.47539c0.00679,-0.02746 -0.35206,-0.71822 -0.79134,-0.79309c-0.64004,-0.10907 -1.46287,0.35618 -1.67411,0.00764c-0.08941,-0.14752 1.33354,-0.78627 1.29332,-0.9199c-0.16249,-0.53986 0.66396,-1.09424 0.88414,-1.23716c0.17586,-0.11416 1.24332,-0.13622 1.74194,0.18601c0.62297,0.40259 0.6883,1.19427 0.82188,1.30634c0.25209,0.21151 0.65654,1.83275 0.73856,2.06332z" data-paper-data="{&quot;index&quot;:null}"/><path d="M120.22377,248.40271c-0.62417,1.52325 -0.95518,3.68702 -1.23362,3.57292c-0.18665,-0.07648 -1.02671,-0.21457 -0.77596,-1.07493c0.12332,-0.42314 0.15299,-3.88265 0.35877,-4.38483c0.62417,-1.52325 0.72843,-0.44031 1.00687,-0.32622c0.27844,0.11409 1.26811,0.6898 0.64394,2.21305z" data-paper-data="{&quot;index&quot;:null}"/></g><path d="M126.4188,243.2111c0.11183,-0.12555 0.04909,-0.8128 0.58975,-1.29631c0.43274,-0.387 1.47261,-0.61082 1.66154,-0.55383c0.23654,0.07136 1.12725,0.35442 1.05553,0.84988c-0.01775,0.12264 1.46551,0.34181 1.40222,0.48743c-0.14954,0.34403 -1.02253,0.13584 -1.62654,0.37393c-0.41455,0.16341 -0.65287,0.83165 -0.6419,0.85344c0.85836,1.70437 0.53229,2.41928 0.47518,3.8569c-0.05286,1.33068 -0.88792,2.99204 -1.02686,4.06801c-0.01609,0.12456 -0.75589,-0.30744 -0.80651,-0.28757c-0.22879,0.08984 -0.5377,0.65695 -1.14281,0.15028c-1.13592,-0.95112 -0.87112,-2.08531 -0.81304,-3.5474c0.04239,-1.06704 0.31829,-2.19958 0.48522,-3.03444c0.04288,-0.21447 0.17718,-1.68339 0.38822,-1.92032z" data-paper-data="{&quot;index&quot;:null}" fill="#0e0e0f"/><g data-paper-data="{&quot;index&quot;:null}" fill="#0e0e0f"><path d="M158.4189,236.03684c0.46997,1.3212 1.17934,3.09427 1.53169,4.84934c0.48281,2.40485 1.17651,4.185 -0.21417,6.2055c-0.74082,1.07633 -1.34406,0.25484 -1.70085,0.19459c-0.07894,-0.01333 -1.03575,0.99139 -1.09306,0.79084c-0.49504,-1.73238 -2.16066,-4.16613 -2.60008,-6.35485c-0.47473,-2.3646 -1.14317,-3.42482 -0.3609,-6.58805c0.01,-0.04043 -0.51825,-1.05727 -1.1649,-1.16747c-0.94218,-0.16057 -2.15344,0.52432 -2.46439,0.01125c-0.13161,-0.21716 1.96305,-1.15744 1.90385,-1.35415c-0.23919,-0.79471 0.97739,-1.61079 1.30151,-1.82118c0.25887,-0.16804 1.83024,-0.20053 2.56424,0.27382c0.91705,0.59264 1.01322,1.75803 1.20986,1.92302c0.37109,0.31136 0.96647,2.69793 1.0872,3.03734z" data-paper-data="{&quot;index&quot;:null}"/><path d="M155.91927,240.44756c-0.91882,2.24232 -1.40607,5.42752 -1.81596,5.25957c-0.27476,-0.11259 -1.51138,-0.31585 -1.14226,-1.58236c0.18154,-0.62289 0.22521,-5.71551 0.52812,-6.45475c0.91882,-2.24232 1.07229,-0.64817 1.48218,-0.48021c0.40989,0.16795 1.86674,1.01544 0.94792,3.25775z" data-paper-data="{&quot;index&quot;:null}"/></g><path d="M162.49125,232.80519c0.16462,-0.18482 0.07227,-1.1965 0.86815,-1.90825c0.63702,-0.56969 2.16778,-0.89917 2.44589,-0.81527c0.34819,0.10505 1.65939,0.52172 1.55381,1.25107c-0.02613,0.18054 2.15733,0.50317 2.06416,0.71752c-0.22013,0.50644 -1.50523,0.19997 -2.39437,0.55045c-0.61025,0.24055 -0.96106,1.22425 -0.94491,1.25631c1.26357,2.50894 0.78356,3.56134 0.69949,5.67761c-0.07781,1.95885 -1.30707,4.40447 -1.51161,5.98836c-0.02368,0.18336 -1.11272,-0.45257 -1.18723,-0.42331c-0.33679,0.13225 -0.79153,0.96707 -1.68229,0.22122c-1.67214,-1.4001 -1.28234,-3.06972 -1.19684,-5.222c0.0624,-1.57075 0.46854,-3.23791 0.71427,-4.46688c0.06312,-0.31571 0.26082,-2.47805 0.57149,-2.82683z" data-paper-data="{&quot;index&quot;:null}" fill="#0e0e0f"/><g data-paper-data="{&quot;index&quot;:null}" fill="#0e0e0f"><path d="M237.91602,227.02835c0.66748,1.87643 1.67495,4.39462 2.17538,6.88726c0.6857,3.41548 1.67092,5.94373 -0.30418,8.81334c-1.05215,1.52865 -1.90889,0.36193 -2.41562,0.27636c-0.11212,-0.01893 -1.47102,1.40802 -1.55241,1.12319c-0.70307,-2.4604 -3.06868,-5.91693 -3.69275,-9.02544c-0.67423,-3.35832 -1.62358,-4.86409 -0.51256,-9.35665c0.0142,-0.05742 -0.73605,-1.50158 -1.65445,-1.6581c-1.33813,-0.22805 -3.0584,0.74466 -3.50003,0.01598c-0.18692,-0.30842 2.78801,-1.64384 2.70393,-1.92322c-0.33971,-1.12869 1.38814,-2.28772 1.84846,-2.58652c0.36767,-0.23866 2.59939,-0.2848 3.64185,0.3889c1.30244,0.8417 1.43902,2.49684 1.7183,2.73116c0.52705,0.44221 1.37262,3.83173 1.54409,4.31377z" data-paper-data="{&quot;index&quot;:null}"/><path d="M234.36594,233.29267c-1.30495,3.18464 -1.99697,7.70842 -2.57911,7.46987c-0.39022,-0.1599 -2.14652,-0.44858 -1.62228,-2.24733c0.25783,-0.88465 0.31985,-8.11743 0.75006,-9.16733c1.30495,-3.18464 1.52292,-0.92056 2.10506,-0.68201c0.58214,0.23854 2.65123,1.44217 1.34628,4.6268z" data-paper-data="{&quot;index&quot;:null}"/></g><path d="M243.69977,222.43862c0.2338,-0.26249 0.10263,-1.69932 1.23299,-2.71019c0.90473,-0.80909 3.07877,-1.27704 3.47376,-1.15788c0.49452,0.14919 2.35674,0.74098 2.20679,1.77683c-0.03712,0.2564 3.06395,0.71462 2.93162,1.01906c-0.31264,0.71927 -2.1378,0.284 -3.40059,0.78177c-0.8667,0.34164 -1.36495,1.73873 -1.34201,1.78427c1.79457,3.56331 1.11285,5.05798 0.99345,8.0636c-0.11052,2.78205 -1.85635,6.25543 -2.14685,8.50495c-0.03363,0.26042 -1.58033,-0.64277 -1.68617,-0.60121c-0.47833,0.18783 -1.12417,1.37347 -2.38927,0.31419c-2.37486,-1.98849 -1.82124,-4.35975 -1.69981,-7.41653c0.08862,-2.23086 0.66544,-4.59863 1.01444,-6.34407c0.08965,-0.44838 0.37044,-3.51944 0.81166,-4.01479z" data-paper-data="{&quot;index&quot;:null}" fill="#0e0e0f"/><path d="M242.13059,230.2583c1.19785,-2.92204 3.49428,-2.65988 4.07321,-2.51615c0.57894,0.14372 2.25493,-1.32264 1.05709,1.5994c-0.3949,0.96333 -5.20331,6.05216 -5.61138,6.80804c-0.82971,1.53692 -2.28716,0.80204 -2.67523,0.7057c-0.57894,-0.14372 1.95848,-3.67494 3.15633,-6.59698z" data-paper-data="{&quot;index&quot;:null}" fill="#0e0e0f"/><path d="M209.7519,236.1859c0,6.39302 -5.47454,7.35465 -13.17442,7.35465c-7.69988,0 -14.7093,-0.96163 -14.7093,-7.35465c0,-6.39302 6.24198,-10.68023 13.94186,-10.68023c7.69988,0 13.94186,4.28722 13.94186,10.68023z" fill="#e0e0e0"/><path d="M165.0826,241.0913c0,-1.26406 0,-2.94018 0,-3.71204c0,-0.79141 1.71367,-1.89656 3.22414,-1.89656c2.60577,0 11.00372,0 15.35214,0c1.61017,0 2.6651,1.39129 2.6651,2.30204c0,0.58386 0,1.60097 0,2.55814c0,1.22222 -1.33102,2.34672 -3.30463,2.34672c-4.95115,0 -13.94639,0 -16.11628,0c-0.92917,0 -1.82047,-0.69362 -1.82047,-1.5983z" fill="#f5f5f5"/><path d="M205.88492,241.0913c0,-1.26406 0,-2.94018 0,-3.71204c0,-0.79141 1.71367,-1.89656 3.22414,-1.89656c2.60577,0 11.00372,0 15.35214,0c1.61017,0 2.6651,1.39129 2.6651,2.30204c0,0.58387 0,1.60097 0,2.55814c0,1.22222 -1.33103,2.34672 -3.30463,2.34672c-4.95115,0 -13.94638,0 -16.11628,0c-0.92917,0 -1.82047,-0.69362 -1.82047,-1.5983z" fill="#f5f5f5"/><g fill="#0e0e0f"><path d="M138.18101,225.1216c0.24223,-0.42969 -0.37237,-2.59109 0.87679,-4.27695c0.99982,-1.34936 3.84849,-2.35289 4.42775,-2.22555c0.72523,0.15942 3.46527,0.80526 3.57207,2.39652c0.02644,0.39388 4.42997,0.66971 4.33998,1.14931c-0.21263,1.13311 -2.85441,0.71965 -4.44077,1.64524c-1.08878,0.63527 -1.35184,2.82146 -1.30654,2.88743c3.545,5.16164 3.05906,7.52061 3.80312,12.09511c0.68873,4.23424 -0.66279,9.73797 -0.38253,13.18889c0.03244,0.3995 -2.36776,-0.76125 -2.50076,-0.68392c-0.6011,0.34951 -1.13108,2.23496 -3.19115,0.79942c-3.86718,-2.69481 -3.82235,-6.36594 -4.57908,-11.01829c-0.55227,-3.39533 -0.47447,-7.06429 -0.52193,-9.75861c-0.01219,-0.69214 -0.55408,-5.38771 -0.09694,-6.1986z" data-paper-data="{&quot;index&quot;:null}"/><path d="M145.75536,237.56534c-3.16825,-3.41273 -1.12028,-5.92183 -0.49644,-6.50097c0.62384,-0.57915 -0.17745,-3.55058 2.99082,-0.13784c1.0445,1.12509 4.56477,10.25667 5.31229,11.25449c1.51994,2.02885 -0.56723,3.23024 -0.98541,3.61845c-0.62384,0.57915 -3.65298,-4.8214 -6.82125,-8.23414z" data-paper-data="{&quot;index&quot;:null}"/></g><g fill="#0e0e0f"><path d="M101.86606,230.82292c0.25359,2.68278 0.74047,6.32013 0.57066,9.75589c-0.23268,4.70775 0.22167,8.35093 -3.32053,11.46058c-1.88695,1.65652 -2.62408,-0.15798 -3.26045,-0.43821c-0.1408,-0.062 -2.39643,1.35942 -2.40878,0.9588c-0.10671,-3.46063 -2.06414,-8.7791 -1.85237,-13.06375c0.22878,-4.62897 -0.51744,-6.91895 2.42922,-12.44405c0.03766,-0.07062 -0.4678,-2.21378 -1.62069,-2.72354c-1.67977,-0.74273 -4.25889,-0.03696 -4.59667,-1.13925c-0.14297,-0.46655 4.20225,-1.23221 4.18456,-1.62659c-0.07149,-1.59323 2.57933,-2.5409 3.28223,-2.78029c0.56142,-0.1912 3.50431,0.48806 4.64851,1.71738c1.42954,1.53589 1.06005,3.75239 1.34873,4.15235c0.5448,0.7548 0.53046,5.4815 0.5956,6.17068z" data-paper-data="{&quot;index&quot;:null}"/><path d="M95.1325,237.8637c-2.76751,3.74507 -5.17488,9.45001 -5.85946,8.94411c-0.45889,-0.33911 -2.66713,-1.3 -1.38317,-3.48584c0.63147,-1.07504 3.11041,-10.5425 4.02279,-11.77715c2.76751,-3.74507 2.30293,-0.70276 2.98752,-0.19687c0.68458,0.50589 2.99984,2.77069 0.23234,6.51576z" data-paper-data="{&quot;index&quot;:null}"/></g><path d="M131.70667,232.95794c1.2726,2.04471 3.12992,4.76928 4.30371,7.55273c1.60836,3.81395 3.43794,6.55397 1.37614,10.20268c-1.09833,1.94368 -2.48055,0.74927 -3.17578,0.73897c-0.15383,-0.00227 -1.68311,1.8777 -1.84963,1.56386c-1.43838,-2.71102 -5.30247,-6.27968 -6.76628,-9.75086c-1.58145,-3.75012 -3.15616,-5.31888 -2.57874,-10.68614c0.00738,-0.0686 -1.28851,-1.60108 -2.54884,-1.62138c-1.83633,-0.02958 -3.94097,1.39023 -4.67922,0.62797c-0.31247,-0.32263 3.39732,-2.37866 3.2283,-2.68576c-0.68283,-1.24067 1.39427,-2.87636 1.94964,-3.30065c0.44359,-0.33889 3.41992,-0.78069 4.95086,-0.1864c1.91273,0.74249 2.43032,2.62482 2.85135,2.84604c0.79457,0.41747 2.61156,4.17368 2.93848,4.69894z" data-paper-data="{&quot;index&quot;:null}" fill="#0e0e0f"/><path d="M134.47671,237.41678c2.90765,3.13109 7.80188,6.39633 7.13698,6.85386c-0.44569,0.30669 -1.94202,1.93103 -3.72427,0.37916c-0.87654,-0.76323 -9.38843,-4.92072 -10.34701,-5.95296c-2.90765,-3.13109 -0.08706,-2.0713 0.57784,-2.52883c0.66488,-0.45753 3.4488,-1.88233 6.35646,1.24875z" data-paper-data="{&quot;index&quot;:null}" fill="#0e0e0f"/><g fill="#0e0e0f"><path d="M106.35895,224.27399c0.32393,-0.37199 0.15794,-2.61294 1.7215,-4.01218c1.25145,-1.11995 4.244,-1.52821 4.78566,-1.28664c0.67816,0.30244 3.23161,1.48771 3.01523,3.0678c-0.05356,0.39112 4.20381,1.54954 4.01892,2.00113c-0.43682,1.06692 -2.9409,0.12908 -4.68136,0.71565c-1.19455,0.40259 -1.8932,2.49077 -1.86213,2.56453c2.43094,5.77062 1.47915,7.98307 1.28517,12.61363c-0.17955,4.28612 -2.61347,9.4041 -3.03508,12.84061c-0.04881,0.39783 -2.16553,-1.22322 -2.3114,-1.17431c-0.65926,0.22107 -1.55866,1.96087 -3.28681,0.13929c-3.2441,-3.41949 -2.45967,-7.00611 -2.26239,-11.71548c0.14397,-3.43694 0.96027,-7.01479 1.45727,-9.6633c0.12767,-0.68037 0.54409,-5.38872 1.15541,-6.09073z" data-paper-data="{&quot;index&quot;:null}"/><path d="M104.86462,234.91975c1.67531,-4.34487 4.82878,-3.60637 5.62301,-3.30012c0.79423,0.30624 3.11221,-1.71822 1.4369,2.62665c-0.55231,1.4324 -7.21131,8.60426 -7.77966,9.71396c-1.15559,2.25635 -3.15131,0.9085 -3.6837,0.70323c-0.79423,-0.30624 2.72816,-5.39883 4.40347,-9.74371z" data-paper-data="{&quot;index&quot;:null}"/></g><path d="M44.13891,363.94444l-28.05,-1.8209l9.26945,-72.2893l18.08563,-34.72379l105.56157,-7.3258l9.03303,-4.62467l144.41695,-10.35999l56.2121,0.4403c0,0 21.68636,-7.44114 30.23994,-7.02988c38.94823,1.87263 124.85811,16.7494 124.85811,16.7494l-12.37645,72.39522l13.30519,54.70051z" fill="#e1eef6"/><path d="M246.62323,283.19529l19.82805,69.83583l-18.56126,-44.90189l-20.72696,-23.6303l-56.67769,-9.16591l55.26425,-4.88803l83.76501,-6.90881z" fill="#bcccd6"/><path d="M139.54016,358.52485l-46.76531,-56.8649l-28.99281,-19.60209l38.63567,11.41611l8.93775,22.06016z" fill="#bcccd6"/><path d="M405.92934,252.5431l-36.8445,63.74241l-8.18498,34.02692l-2.86364,-40.18511l17.52253,-16.10884z" fill="#bcccd6"/><path d="M168.28027,235.20758c0,-1.26406 0,-2.94018 0,-3.71204c0,-0.79141 1.71367,-1.89656 3.22414,-1.89656c2.60577,0 11.00373,0 15.35215,0c1.61017,0 2.66509,1.39129 2.66509,2.30204c0,0.58387 0,1.60097 0,2.55814c0,1.22222 -1.33103,2.34672 -3.30463,2.34672c-4.95115,0 -13.94638,0 -16.11628,0c-0.92917,0 -1.82047,-0.69362 -1.82047,-1.5983z" fill="#f5f5f5"/><path d="M173.14074,229.70758c0,-1.26406 0,-2.94018 0,-3.71205c0,-0.79141 1.71367,-1.89655 3.22414,-1.89655c2.60577,0 11.00372,0 15.35214,0c1.61017,0 2.6651,1.39128 2.6651,2.30204c0,0.58387 0,1.60097 0,2.55814c0,1.22222 -1.33103,2.34672 -3.30463,2.34672c-4.95115,0 -13.94638,0 -16.11628,0c-0.92917,0 -1.82047,-0.69362 -1.82047,-1.5983z" fill="#f5f5f5"/><path d="M177.74539,223.56805c0,-1.26406 0,-2.94018 0,-3.71205c0,-0.79141 1.71367,-1.89655 3.22414,-1.89655c2.60577,0 11.00372,0 15.35214,0c1.61017,0 2.6651,1.39128 2.6651,2.30204c0,0.58387 0,1.60097 0,2.55814c0,1.22222 -1.33103,2.34672 -3.30463,2.34672c-4.95115,0 -13.94638,0 -16.11628,0c-0.92917,0 -1.82047,-0.69362 -1.82047,-1.5983z" fill="#f5f5f5"/><path d="M186.18725,219.9646c0,-1.26406 0,-2.94018 0,-3.71205c0,-0.79141 1.71367,-1.89656 3.22414,-1.89656c2.60577,0 11.00373,0 15.35215,0c1.61017,0 2.66509,1.39129 2.66509,2.30204c0,0.58387 0,1.60097 0,2.55814c0,1.22222 -1.33103,2.34672 -3.30463,2.34672c-4.95115,0 -13.94638,0 -16.11628,0c-0.92917,0 -1.82047,-0.69362 -1.82047,-1.5983z" fill="#f5f5f5"/><path d="M190.02445,223.56805c0,-1.26406 0,-2.94018 0,-3.71204c0,-0.79141 1.71367,-1.89656 3.22414,-1.89656c2.60577,0 11.00373,0 15.35215,0c1.61017,0 2.6651,1.39129 2.6651,2.30204c0,0.58387 0,1.60097 0,2.55814c0,1.22222 -1.33103,2.34672 -3.30463,2.34672c-4.95115,0 -13.94639,0 -16.11628,0c-0.92917,0 -1.82047,-0.69362 -1.82047,-1.5983z" fill="#f5f5f5"/><path d="M193.86166,228.19911c0,-1.26406 0,-2.94018 0,-3.71205c0,-0.79141 1.71367,-1.89656 3.22414,-1.89656c2.60577,0 11.00373,0 15.35215,0c1.61017,0 2.6651,1.39129 2.6651,2.30204c0,0.58387 0,1.60097 0,2.55814c0,1.22222 -1.33103,2.34672 -3.30463,2.34672c-4.95115,0 -13.94639,0 -16.11628,0c-0.92917,0 -1.82047,-0.69362 -1.82047,-1.5983z" fill="#f5f5f5"/><path d="M199.61748,231.80256c0,-1.26406 0,-2.94018 0,-3.71205c0,-0.79141 1.71367,-1.89655 3.22414,-1.89655c2.60577,0 11.00373,0 15.35215,0c1.61017,0 2.6651,1.39128 2.6651,2.30204c0,0.58387 0,1.60097 0,2.55814c0,1.22222 -1.33103,2.34672 -3.30463,2.34672c-4.95115,0 -13.94639,0 -16.11628,0c-0.92917,0 -1.82047,-0.69362 -1.82047,-1.5983z" fill="#f5f5f5"/><path d="M202.94306,235.40601c0,-1.26406 0,-2.94018 0,-3.71204c0,-0.79141 1.71367,-1.89656 3.22414,-1.89656c2.60577,0 11.00373,0 15.35215,0c1.61017,0 2.66509,1.39129 2.66509,2.30204c0,0.58387 0,1.60097 0,2.55814c0,1.22222 -1.33103,2.34672 -3.30463,2.34672c-4.95115,0 -13.94638,0 -16.11628,0c-0.92917,0 -1.82047,-0.69362 -1.82047,-1.5983z" fill="#f5f5f5"/></g></g></svg>