<svg version="1.1" xmlns="http://www.w3.org/2000/svg" xmlns:xlink="http://www.w3.org/1999/xlink" width="695.53558" height="529.55283" viewBox="0,0,695.53558,529.55283"><g transform="translate(110.89528,86.93791)"><g data-paper-data="{&quot;isPaintingLayer&quot;:true}" fill-rule="nonzero" stroke="none" stroke-width="0" stroke-linecap="butt" stroke-linejoin="miter" stroke-miterlimit="10" stroke-dasharray="" stroke-dashoffset="0" style="mix-blend-mode: normal"><path d="M-36.94792,325.50202c0,-17.03063 14.61623,-167.74141 11.90411,-242.14865c-0.84038,-23.05595 12.69529,-107.56603 22.48262,-107.56603c4.90247,0 35.45473,46.15862 63.43566,44.88208c12.16633,-0.55505 39.76045,37.35181 46.31956,37.11697c2.68485,-0.09613 0.24549,44.29092 5.48379,93.22907c4.29059,40.08422 10.8331,87.99603 15.23471,126.20256c2.79073,24.22389 15.83785,42.89605 -3.92504,26.68741c-11.18858,-9.17637 -29.82922,10.03325 -47.3246,12.74357z" data-paper-data="{&quot;index&quot;:null}" fill="#344e5f"/><path d="M-102.94497,442.61492v-528.64939h687.58527v528.64939z" fill="none"/><path d="M-110.89528,435.59936v-522.53727h694.92685v522.53727z" fill="none"/><path d="M515.76943,315.82573c0,25.49161 -22.33131,14.91069 -45.6459,15.54233c-9.78381,0.26507 -4.33267,20.36334 -13.90969,20.36334c-7.24331,0 -23.29358,15.80577 -38.30701,20.32141c-12.49585,3.75842 -24.4381,-3.26821 -28.46124,-6.2865c-1.94165,-1.45669 24.18392,-9.91053 22.68375,-12.67808c-0.48858,-0.90134 -10.04648,-5.81287 -15.35558,-7.11757c-6.93335,-1.70386 -5.06843,-7.0648 -6.50157,-12.6473c-2.52273,-9.82678 -5.14299,-22.58936 -11.57795,-33.38476c-2.99401,-5.02281 13.90591,-11.26398 6.99639,-13.32129c-6.65516,-1.98158 -10.38535,-10.52866 -10.47382,-13.58462c-0.21218,-7.32869 -3.50995,-12.58585 -3.50995,-18.30022c0,-5.91037 3.10281,-8.28144 3.64669,-13.79291c0.9552,-9.67974 0.20908,-22.34347 5.21362,-32.90838c1.57756,-3.33034 9.84507,-9.85735 11.37493,-13.14027c2.90319,-6.22997 7.47319,-11.34136 8.70497,-17.62752c1.0197,-5.20387 -1.29989,-11.71875 0.67665,-15.80612c0.73839,-1.52696 1.84131,-5.23566 3.67653,-6.19917c1.71591,-0.90087 4.16543,0.93518 4.95002,-0.20409c1.82804,-2.65438 17.81305,-10.47109 37.12525,-11.90955c3.91675,-0.29174 32.86241,-19.04891 36.99926,-19.9393c15.18276,-3.26785 27.12601,3.55263 28.93124,3.94581c29.22501,6.36527 2.76339,158.86312 2.76339,188.67474z" fill="#344e5f"/></g></g></svg>