<svg version="1.1" xmlns="http://www.w3.org/2000/svg" xmlns:xlink="http://www.w3.org/1999/xlink" width="65.71952" height="156.04732" viewBox="0,0,65.71952,156.04732"><g transform="translate(-207.14024,-23.92079)"><g data-paper-data="{&quot;isPaintingLayer&quot;:true}" fill-rule="nonzero" stroke-linejoin="miter" stroke-miterlimit="10" stroke-dasharray="" stroke-dashoffset="0" style="mix-blend-mode: normal"><g><path d="M228.1829,107.57027c0,0 0,-4.50736 0,-7.70633c0,-0.52828 0.48387,-1.02089 0.48387,-1.45161c0,-0.54845 -0.48387,-0.99658 -0.48387,-1.29032c0,-0.73183 0,-1.51588 0,-1.51588c0,0 0.57568,0 1.25043,0c1.24613,0 5.67337,0 10.27959,0c0.38395,0 0.76915,0.32051 1.15385,0.32051c0.776,0 1.54999,-0.32051 2.30769,-0.32051c4.72368,0 8.81441,0 8.81441,0c0,0 0,0.59643 0,1.1933c0,0.34134 -0.40323,0.86238 -0.40323,1.6129c0,0.94132 0.40323,2.38973 0.40323,3.5794c0,0.45909 -0.75476,0.53567 -0.75476,0.98635c0,1.23671 0.77466,2.05713 0.83833,2.8742c0.05691,0.73026 -0.08358,1.71798 -0.08358,1.71798c0,0 -12.29379,0 -18.76522,0c-0.61351,0 -0.86009,-0.48387 -1.37097,-0.48387c-0.91015,0 -1.0708,0.48387 -1.53226,0.48387c-1.08442,0 -2.13752,0 -2.13752,0z" fill="#9b3d02" stroke="none" stroke-width="0" stroke-linecap="butt"/><g fill="none" stroke="#ffffff" stroke-linecap="round"><path d="M233.93002,101.58819h9.1791" stroke-width="3"/><path d="M242.84392,99.47999c0,0 3.46677,2.23125 3.39679,2.46269c-0.18961,0.6272 -3.43009,1.75373 -3.43009,1.75373" stroke-width="2.5"/></g><path d="M229.31078,89.61843l2.29166,5.99265" fill="none" stroke="#9b3d02" stroke-width="2" stroke-linecap="round"/><path d="M247.77891,95.9052l2.02128,-6.18482" fill="none" stroke="#9b3d02" stroke-width="2" stroke-linecap="round"/></g><path d="M207.2722,174.01806v-10.82129h65.58756v10.82129l-27.01077,5.95005l-11.52357,-0.01154z" fill="#c8c9cb" stroke="none" stroke-width="0" stroke-linecap="butt"/><path d="M207.14024,163.19678v-6.07048h65.45559v6.07048z" fill="#e0e3e8" stroke="none" stroke-width="0" stroke-linecap="butt"/><path d="M207.2722,157.1263v-12.93276h65.58756v12.93276z" fill="#d16624" stroke="none" stroke-width="0" stroke-linecap="butt"/><path d="M207.14024,141.02633v-4.88278h65.71952v4.88278z" fill="#dc6c25" stroke="none" stroke-width="0" stroke-linecap="butt"/><path d="M207.2722,144.58944v-3.29917h65.58756v3.29917z" fill="#e0e3e8" stroke="none" stroke-width="0" stroke-linecap="butt"/><path d="M213.32069,114.35645l0.09531,-2.34608l6.48164,-45.91095l3.40386,0.41109l-5.80481,45.60838l45.08147,0.06706l-6.10017,-45.64676l3.75706,-0.01534l6.55424,45.67713l0.57186,4.06165l-4.11457,1.43969l-43.83583,18.44356l-9.93608,0.08526l3.7359,-22.06165l3.48205,0.56658l-2.4716,18.97964l41.68689,-17.4251l-31.73272,0.0618l41.62031,17.40934l-2.36522,-17.04531l3.80162,-0.48837l2.72438,18.75069l0.18556,1.33078l-7.56831,0.31967l-45.84167,-18.92371z" fill="#dc6c25" stroke="none" stroke-width="0" stroke-linecap="butt"/><path d="M218.76432,90.77837v-3.29917h42.60332v3.29917z" fill="#dc6c25" stroke="none" stroke-width="0" stroke-linecap="butt"/><path d="M217.87878,66.70173v-18.96658h44.4142v18.96658z" fill="#d16624" stroke="none" stroke-width="0" stroke-linecap="butt"/><path d="M217.87878,60.98316v-6.67166h44.4142v6.67166z" fill="#cfd0d2" stroke="none" stroke-width="0" stroke-linecap="butt"/><path d="M230.93618,47.92577v-11.81837h18.2041v11.81837z" fill="#a2460d" stroke="none" stroke-width="0" stroke-linecap="butt"/><path d="M243.3264,34.62068c0,1.86865 -1.45083,3.38349 -3.24052,3.38349c-1.78969,0 -3.24052,-1.51484 -3.24052,-3.38349c0,-1.86865 1.45083,-3.38349 3.24052,-3.38349c1.78969,0 3.24052,1.51484 3.24052,3.38349z" fill="#cfd0d2" stroke="none" stroke-width="0" stroke-linecap="butt"/><path d="M245.81519,29.90286c0,3.30381 -2.5651,5.98207 -5.72931,5.98207c-3.16421,0 -5.7293,-2.67826 -5.7293,-5.98207c0,-3.30381 2.56509,-5.98207 5.7293,-5.98207c3.16421,0 5.72931,2.67826 5.72931,5.98207z" fill="#d74933" stroke="none" stroke-width="0" stroke-linecap="butt"/><path d="M239.89526,27.90136c0,-0.94748 0.76809,-1.71557 1.71557,-1.71557c0.94748,0 1.71557,0.76809 1.71557,1.71557c0,0.94748 -0.76809,1.71557 -1.71557,1.71557c-0.94748,0 -1.71557,-0.76809 -1.71557,-1.71557z" fill="#fbf7f6" stroke="none" stroke-width="0" stroke-linecap="butt"/></g></g></svg>