<svg version="1.1" xmlns="http://www.w3.org/2000/svg" xmlns:xlink="http://www.w3.org/1999/xlink" width="51.81665" height="51.81832" viewBox="0,0,51.81665,51.81832"><defs><linearGradient x1="240" y1="155.09085" x2="240" y2="204.90917" gradientUnits="userSpaceOnUse" id="color-1"><stop offset="0" stop-color="#abf5b2"/><stop offset="1" stop-color="#2fde69"/></linearGradient></defs><g transform="translate(-214.04462,-154.09085)"><g data-paper-data="{&quot;isPaintingLayer&quot;:true}" fill-rule="nonzero" stroke-miterlimit="10" stroke-dasharray="" stroke-dashoffset="0" style="mix-blend-mode: normal"><path d="M215.04464,198.72611c0,-11.25908 0,-34.36061 0,-38.83371c0,-1.96596 2.20029,-4.88183 5.04715,-4.79986c6.01019,0.17305 28.98107,0 38.72378,0c3.13463,0 5.92554,1.84509 6.0457,4.68375c0.21175,5.00233 0,27.097 0,38.60767c0,3.94876 -2.69927,6.52521 -6.79115,6.52521c-11.1123,0 -32.49513,0 -37.97835,0c-2.51898,0 -5.04715,-2.43555 -5.04715,-6.18307z" fill="#0a0d10" stroke="url(#color-1)" stroke-width="2" stroke-linecap="butt" stroke-linejoin="miter"/><g stroke="none" stroke-width="1" stroke-linecap="butt" stroke-linejoin="miter"><path d="M247.56266,187.19591c0,1.78881 3.57763,2.38508 6.55898,2.98135c2.98135,0.59627 3.57763,1.78881 0,2.38508c-3.57763,0.59627 -2.82501,2.13984 -5.88454,1.96436c-3.05953,-0.17548 -12.59986,-0.17554 -11.40732,-1.96436c1.19254,-1.78881 7.75152,-1.19254 5.96271,-2.38508c-1.78881,-1.19254 -6.61723,-1.72686 -3.90492,-2.95035l4.79933,-1.52168z" fill="#aaf5b1"/><path d="M253.16701,178.96558c0,4.74006 -2.81774,8.58266 -6.294,8.58266c-1.15681,-0.01687 -2.27287,-0.42986 -3.16202,-1.17006c-0.88915,0.74021 -2.00521,1.15319 -3.16203,1.17006c-0.9668,-0.01003 -1.90933,-0.30406 -2.71035,-0.84551c-1.63104,1.12735 -3.7896,1.12735 -5.42064,0c-0.80099,0.54147 -1.7435,0.8355 -2.71029,0.84551c-3.47608,0 -6.294,-3.84255 -6.294,-8.58266c0,-4.74012 2.81792,-8.58272 6.294,-8.58272c0.96679,0.01003 1.9093,0.30408 2.71029,0.84557c1.63101,-1.12743 3.78963,-1.12743 5.42064,0c0.80102,-0.54147 1.74354,-0.83552 2.71035,-0.84557c1.15681,0.0169 2.27286,0.42988 3.16203,1.17006c0.88917,-0.74018 2.00521,-1.15316 3.16202,-1.17006c3.47608,0 6.294,3.84267 6.294,8.58272z" fill="#d0cfce"/><path d="M242.3859,178.96558c0,-3.74216 2.02243,-6.77578 4.51723,-6.77578c2.4948,0 4.51723,3.03362 4.51723,6.77578c0,3.74216 -2.02243,6.77578 -4.51723,6.77578c-2.4948,0 -4.51723,-3.03362 -4.51723,-6.77578z" fill="#9b9b9a"/><path d="M245.99971,181.67587c0,-1.2474 0.60672,-2.25862 1.35515,-2.25862c0.74843,0 1.35514,1.01122 1.35514,2.25862c0,1.2474 -0.60672,2.25862 -1.35514,2.25862c-0.74843,0 -1.35515,-1.01122 -1.35515,-2.25862z" fill="#5a5a59"/></g><g fill="none" stroke="#000000"><path d="M236.25668,181.60278c-0.28321,-1.0435 -0.42519,-2.12026 -0.42216,-3.2015c-0.04038,-2.14865 0.55827,-4.26089 1.72,-6.06884c0.29345,-0.43323 0.63456,-0.83219 1.01694,-1.18938" stroke-width="1.5" stroke-linecap="round" stroke-linejoin="round"/><path d="M230.49519,181.26187c-0.28324,-1.04349 -0.42522,-2.12026 -0.42216,-3.2015c-0.04038,-2.14865 0.55826,-4.26089 1.72,-6.06884c0.29345,-0.43323 0.63456,-0.83219 1.01694,-1.18938" stroke-width="1.5" stroke-linecap="round" stroke-linejoin="round"/><path d="M253.28065,178.62294c0,4.74006 -2.81774,8.58266 -6.294,8.58266c-1.15681,-0.01687 -2.27287,-0.42986 -3.16202,-1.17006c-0.88915,0.74021 -2.00521,1.15319 -3.16203,1.17006c-0.9668,-0.01003 -1.90933,-0.30406 -2.71035,-0.84551c-1.63104,1.12735 -3.7896,1.12735 -5.42064,0c-0.80099,0.54147 -1.7435,0.8355 -2.71029,0.84551c-3.47608,0 -6.294,-3.84255 -6.294,-8.58266c0,-4.74012 2.81792,-8.58272 6.294,-8.58272c0.96679,0.01003 1.9093,0.30408 2.71029,0.84557c1.63101,-1.12743 3.78963,-1.12743 5.42064,0c0.80102,-0.54147 1.74354,-0.83552 2.71035,-0.84557c1.15681,0.0169 2.27286,0.42988 3.16203,1.17006c0.88917,-0.74018 2.00521,-1.15316 3.16202,-1.17006c3.47608,0 6.294,3.84267 6.294,8.58272z" stroke-width="2" stroke-linecap="round" stroke-linejoin="round"/><path d="M242.95409,178.62294c0,-3.74216 2.02243,-6.77578 4.51723,-6.77578c2.4948,0 4.51723,3.03362 4.51723,6.77578c0,3.74216 -2.02243,6.77578 -4.51723,6.77578c-2.4948,0 -4.51723,-3.03362 -4.51723,-6.77578z" stroke-width="1.5" stroke-linecap="butt" stroke-linejoin="miter"/><path d="M247.78994,183.46014l-0.11364,3.05221c0,1.78881 3.57763,2.38508 6.55898,2.98135c2.98135,0.59627 3.57763,1.78881 0,2.38508c-3.57763,0.59627 -2.82501,2.1399 -5.88454,1.96436c-3.05953,-0.17554 -12.59986,-0.17554 -11.40732,-1.96436c1.19254,-1.78881 7.75152,-1.19254 5.96271,-2.38508c-1.78881,-1.19254 -6.61723,-1.72686 -3.90492,-2.95035" stroke-width="1.5" stroke-linecap="round" stroke-linejoin="round"/></g></g></g></svg>