<svg version="1.1" xmlns="http://www.w3.org/2000/svg" xmlns:xlink="http://www.w3.org/1999/xlink" width="714.30012" height="533.01354" viewBox="0,0,714.30012,533.01354"><g transform="translate(116.63096,87.63867)"><g data-paper-data="{&quot;isPaintingLayer&quot;:true}" fill-rule="nonzero" stroke="none" stroke-width="0" stroke-linecap="butt" stroke-linejoin="miter" stroke-miterlimit="10" stroke-dasharray="" stroke-dashoffset="0" style="mix-blend-mode: normal"><path d="M-20.19691,380.55439c0,0 -111.69912,-421.41018 34.4179,-368.2787c4.32041,1.571 53.5617,2.51563 71.07057,10.98555c19.30468,9.33864 33.99438,-0.97653 54.69087,4.63918c30.54843,8.28892 35.51914,37.92936 46.42555,39.72537c15.69544,2.58464 75.22879,46.63893 108.36955,50.84606c54.05601,6.86225 188.0222,21.67757 211.11688,21.56226c24.48637,-0.12226 22.14921,16.84246 28.57208,42.21323c4.9871,19.69938 -33.39023,69.11607 -27.57788,112.64153c7.75841,58.09837 16.43832,99.28001 16.43832,99.28001z" data-paper-data="{&quot;index&quot;:null}" fill="#344e5f"/><path d="M233.81053,96.40257c-0.06187,0.02985 1.92968,1.07747 3.53294,2.40601c1.1796,0.97747 2.07103,2.30463 2.17722,2.48319c1.17164,1.97025 -1.88227,4.27785 -2.65223,4.44956c-0.57528,0.12829 -1.08399,-5.3621 -3.19237,-6.67522c-2.55453,-1.59098 -4.94117,-0.40005 -5.54412,-0.66053c-1.01293,-0.43758 -1.60162,-2.13173 -1.93834,-2.82963c-0.30164,-0.6252 0.51677,-1.45645 1.46461,-2.22919c0.92316,-0.75261 1.96948,-1.43346 2.19584,-3.01484c0.26567,-1.85601 -0.43336,-2.8876 -0.40514,-4.65497c0.01101,-0.68984 -0.23909,-1.49912 0.51528,-2.54726c0.67263,-0.93457 2.31478,-2.09269 2.97354,-2.99806c0.49525,-0.68065 1.14273,-2.38246 1.16118,-2.39136c0.33131,-0.15985 0.79409,-1.34838 1.16301,-0.5387c0.22702,0.49826 0.3626,0.29617 0.45061,1.3344c0.03877,0.45739 -0.33677,1.59544 -1.0775,2.43468c-0.55758,0.63173 -2.13339,1.17166 -2.01608,2.06511c0.01271,0.09685 0.97423,-0.28299 1.65938,-0.52634c0.78572,-0.27907 1.83532,-0.44794 1.76304,0.13435c-0.06677,0.53793 -1.59088,1.43058 -2.52199,2.13679c-1.04808,0.79493 -1.32567,1.73831 -1.23718,3.05079c0.04782,0.70946 0.71829,1.5909 0.80612,1.82644c0.17442,0.46766 4.0896,-2.24121 5.46048,-4.76378c1.37088,-2.52257 0.72595,-6.95264 1.0025,-7.12886c1.44332,-0.91975 2.54062,2.6396 3.7629,4.0992c0.83157,0.99302 -4.16392,3.85693 -3.48147,4.95777c0.19877,0.32064 1.36482,0.35432 2.09228,0.58194c1.39688,0.43709 2.86073,-0.85888 4.38683,-0.77082c1.54171,0.08895 2.99633,2.37529 2.62098,2.58786c-1.149,0.65071 -4.07206,0.66179 -5.57728,1.49573c-1.39676,0.77384 -0.53435,2.10444 -1.47955,2.46939c-1.183,0.45677 -2.27444,-3.80707 -3.0515,-3.84289c-1.40489,-0.06476 -3.76402,3.43902 -3.54562,3.70865c0.91692,1.13195 1.49459,0.30094 2.76814,0.67529c1.379,0.40535 3.73843,2.26175 4.89742,1.19187c0.62286,-0.57498 1.12546,-0.83073 1.76727,-1.15562c0.66188,-0.33504 1.4605,-0.73262 1.93377,-0.89278c0.71275,-0.24118 2.67392,0.95031 2.69009,0.99395c0.36443,0.98353 -4.27704,1.50141 -3.90618,2.06458c0.65371,0.9927 7.00672,-0.588 8.34709,0.59141c0.75194,0.66164 -3.26667,1.52849 -3.60595,2.61051c-0.5538,1.76617 1.9853,3.79855 1.23489,4.16663c-0.50529,0.24784 -2.56175,-3.18205 -5.17482,-4.56234c-2.66532,-1.4079 -6.15677,0.10557 -6.2553,0.06614c-0.401,-0.16046 -1.6149,-1.55331 -3.21122,-2.09547c-1.31394,-0.44626 -2.63288,-0.45835 -2.95362,-0.3036z" data-paper-data="{&quot;index&quot;:null}" fill="#344e5f"/><path d="M339.21351,125.63584c-13.00916,-1.90122 -21.3157,10.95248 -20.38359,4.57444c0.23534,-1.61032 -4.89967,-5.46646 -2.71249,-9.56969c0.9053,-1.69836 8.89463,-4.31925 9.80075,-5.44598c0.95076,-1.18225 -4.91292,-0.7921 -4.21339,-2.30162c1.24211,-2.6804 -1.17691,-4.57382 1.72115,-4.00061c0.94638,0.18718 6.32136,4.23548 7.09402,8.09645c0.13392,0.66911 6.06324,-3.0842 5.75034,-5.8946c-0.21507,-1.93175 -7.0585,-2.57297 -5.96144,-4.42545c2.60531,-4.39928 8.45631,0.86657 9.55896,1.04283c1.04165,0.16652 0.08087,0.65535 0.00546,3.69683c-0.14693,5.92629 2.20552,9.02945 2.71024,9.10321c0.82605,0.12072 0.06643,-12.83206 2.66228,-16.91506c0.81355,-1.27963 1.33218,7.58111 2.74717,8.24953c2.00385,0.94661 4.90794,-5.81963 5.24086,-5.78521c5.05163,0.52225 -4.7828,11.81721 -3.60927,15.99486c0.29791,1.06055 4.64587,-3.03388 8.83578,-6.72982c0.83302,-0.73481 -0.46104,-10.00165 0.32642,-10.66131c1.21208,-1.01538 2.15271,2.14895 3.62468,3.8585c1.26654,1.47097 3.13184,1.4574 3.51738,1.50826c1.79622,0.23699 -5.55289,8.06976 -6.80774,11.99325c-1.27835,3.99698 3.51883,4.09157 3.39237,4.95689c-0.93211,6.37803 -10.29077,0.55553 -23.29994,-1.34568z" data-paper-data="{&quot;index&quot;:null}" fill="#344e5f"/><path d="M295.90654,124.97531c0.048,-0.07028 -2.73801,0.03556 -5.28065,-0.40023c-1.87075,-0.32063 -3.64817,-1.19484 -3.87254,-1.32094c-2.47575,-1.39159 -0.62252,-5.75687 0.09815,-6.4171c0.53845,-0.49329 4.47783,5.08799 7.55335,5.19503c3.72632,0.1297 5.55314,-2.6241 6.36156,-2.71702c1.35812,-0.15612 3.03727,1.29927 3.83016,1.8406c0.71028,0.48492 0.34516,1.88333 -0.19508,3.29887c-0.52619,1.37869 -1.22896,2.75642 -0.49472,4.59444c0.86175,2.15721 2.2499,2.83292 3.31184,4.74819c0.41449,0.74757 1.1832,1.46203 1.0209,3.05374c-0.1447,1.41924 -1.19233,3.67769 -1.3402,5.05702c-0.11118,1.03696 0.24529,3.26453 0.23097,3.2855c-0.25699,0.37641 -0.01941,1.93867 -0.91592,1.29721c-0.5517,-0.39472 -0.57241,-0.09394 -1.30854,-1.15441c-0.3243,-0.4672 -0.62437,-1.92134 -0.34761,-3.28029c0.20832,-1.02295 1.56679,-2.57659 0.88864,-3.4635c-0.07351,-0.09613 -0.87126,0.90597 -1.45659,1.5907c-0.67124,0.78524 -1.69396,1.61523 -1.9762,0.94529c-0.26074,-0.6189 0.82419,-2.51934 1.38759,-3.85312c0.63418,-1.50134 0.34923,-2.68591 -0.55691,-4.04057c-0.48981,-0.73227 -1.75451,-1.26444 -1.99438,-1.46307c-0.47631,-0.3944 -3.00639,4.93406 -2.91949,8.49002c0.08691,3.55598 3.51724,7.91449 3.3292,8.27461c-0.98146,1.87962 -4.35946,-1.26432 -6.57399,-2.07628c-1.50664,-0.55241 2.08767,-6.71497 0.67451,-7.4753c-0.41159,-0.22146 -1.68453,0.46299 -2.60636,0.66814c-1.77012,0.39393 -2.5411,2.69023 -4.23427,3.53882c-1.71047,0.85727 -4.68543,-0.69889 -4.41377,-1.15911c0.83166,-1.40884 3.96363,-3.22719 5.06458,-5.05293c1.02161,-1.69418 -0.72676,-2.58999 0.06267,-3.56603c0.98804,-1.22159 4.79512,2.68249 5.65168,2.24069c1.54861,-0.7987 1.91653,-6.01907 1.51536,-6.17361c-1.68415,-0.64884 -1.79088,0.60051 -3.38981,0.9856c-1.73129,0.41697 -5.41215,-0.11832 -5.99551,1.74679c-0.31351,1.00236 -0.69514,1.58759 -1.18354,2.33311c-0.50367,0.76881 -1.11553,1.68931 -1.52477,2.15375c-0.61631,0.69947 -3.4586,0.63203 -3.50293,0.59517c-0.99914,-0.83091 3.66488,-4.25548 2.91859,-4.63103c-1.31545,-0.66198 -7.16053,4.9616 -9.32872,4.52348c-1.21634,-0.24578 2.56317,-3.66012 2.2588,-5.0317c-0.49683,-2.23879 -4.47935,-2.85201 -3.90105,-3.71101c0.38941,-0.57841 4.71737,1.83374 8.37635,1.70103c3.73215,-0.13536 6.54597,-3.91829 6.67615,-3.93685c0.52977,-0.07551 2.69405,0.66995 4.74327,0.2656c1.68673,-0.33282 3.11048,-1.13498 3.35926,-1.49937z" data-paper-data="{&quot;index&quot;:null}" fill="#344e5f"/><path d="M227.64337,106.28352c-1.78893,2.01125 -1.43723,-0.7489 -14.16383,-10.52054c-10.63758,-8.16766 -16.8391,-8.27884 -25.52481,-16.00446c-19.07711,-16.96838 -15.6866,-16.91899 -12.4024,-20.61133c3.2842,-3.69235 3.38864,-19.33896 22.46576,-2.37057c3.95137,3.5146 -1.13801,14.75621 8.86026,20.14775c1.01808,0.549 14.05539,3.6884 15.13793,4.04054c11.20496,3.6449 3.03414,10.71374 7.49314,16.66604c5.45306,7.27926 6.17256,-0.45904 3.20816,7.02044z" fill="#344e5f"/><path d="M180.19888,56.76156c-0.02858,0.08017 2.63934,-0.72929 5.20934,-0.95309c1.89088,-0.16466 3.83195,0.22982 4.081,0.29487c2.74786,0.71771 2.06321,5.41039 1.53369,6.2319c-0.39563,0.6138 -5.62253,-3.78494 -8.62453,-3.10793c-3.63724,0.82028 -4.70533,3.94754 -5.4637,4.2426c-1.27405,0.49569 -3.26757,-0.48589 -4.17189,-0.80825c-0.8101,-0.28878 -0.81184,-1.73405 -0.64855,-3.24037c0.15905,-1.46709 0.48915,-2.97807 -0.68752,-4.56957c-1.38103,-1.86787 -2.89522,-2.16915 -4.40847,-3.75221c-0.59065,-0.61789 -1.51551,-1.11387 -1.76249,-2.69465c-0.22024,-1.4095 0.21992,-3.85988 0.01287,-5.23159c-0.15564,-1.03122 -1.06579,-3.09539 -1.05726,-3.11931c0.15304,-0.4293 -0.47325,-1.88011 0.55671,-1.48719c0.63381,0.24178 0.5775,-0.0544 1.55868,0.7845c0.43225,0.36959 1.09154,1.69998 1.16874,3.08468c0.05812,1.04232 -0.86156,2.88987 0.01949,3.57563c0.09549,0.07433 0.6128,-1.09743 1.0052,-1.9083c0.44997,-0.92989 1.22856,-1.99227 1.67159,-1.4159c0.40928,0.53245 -0.15781,2.64603 -0.36425,4.07913c-0.23238,1.61314 0.34388,2.6866 1.56414,3.76693c0.65963,0.58398 2.01798,0.77775 2.3004,0.909c0.56081,0.2606 1.65571,-5.5355 0.66917,-8.953c-0.98656,-3.4175 -5.41074,-6.76269 -5.32026,-7.15874c0.47228,-2.06717 4.53759,0.11651 6.88568,0.33984c1.59751,0.15195 -0.31508,7.02495 1.24478,7.40174c0.45433,0.10974 1.51186,-0.87536 2.35144,-1.30775c1.61218,-0.83028 1.77512,-3.24706 3.19749,-4.49759c1.4369,-1.26331 4.70941,-0.51313 4.56343,0.00097c-0.44688,1.57378 -3.01481,4.12748 -3.61634,6.17285c-0.55818,1.89798 1.36029,2.32074 0.84443,3.46517c-0.64565,1.43236 -5.31892,-1.37767 -6.03531,-0.73295c-1.2952,1.16557 -0.32617,6.30839 0.10109,6.35606c1.79368,0.20017 1.57984,-1.03536 3.02868,-1.81364c1.56877,-0.84271 5.26497,-1.25914 5.35587,-3.21124c0.04885,-1.0491 0.26945,-1.71204 0.55265,-2.55709c0.29206,-0.87147 0.65027,-1.91711 0.92824,-2.47021c0.41861,-0.83298 3.18495,-1.48912 3.23718,-1.46472c1.17731,0.55013 -2.46486,5.04628 -1.6477,5.22012c1.44039,0.30644 5.66684,-6.61646 7.87525,-6.74296c1.23889,-0.07097 -1.55032,4.19081 -0.90781,5.44022c1.04875,2.03939 5.05651,1.62178 4.71516,2.59944c-0.22986,0.6583 -5.0283,-0.57646 -8.5338,0.48054c-3.57559,1.07813 -5.33719,5.45133 -5.4584,5.50232c-0.49326,0.20749 -2.77588,0.03573 -4.65538,0.94693c-1.54704,0.75001 -2.72058,1.88724 -2.86874,2.30284z" data-paper-data="{&quot;index&quot;:null}" fill="#344e5f"/><path d="M300.29498,124.70616c-13.00917,1.90121 -22.36783,7.72371 -23.29994,1.34568c-0.12646,-0.86532 4.67073,-0.95991 3.39237,-4.95689c-1.25486,-3.9235 -8.60397,-11.75627 -6.80774,-11.99326c0.38554,-0.05087 2.25084,-0.03729 3.51738,-1.50826c1.47197,-1.70955 2.4126,-4.87388 3.62468,-3.8585c0.78746,0.65966 -0.5066,9.9265 0.32642,10.66131c4.18992,3.69594 8.53787,7.79037 8.83578,6.72982c1.17353,-4.17764 -8.6609,-15.47261 -3.60927,-15.99485c0.33293,-0.03442 3.23701,6.73182 5.24086,5.78521c1.41499,-0.66842 1.93362,-9.52916 2.74717,-8.24953c2.59584,4.08299 1.83623,17.03577 2.66228,16.91505c0.50472,-0.07376 2.85717,-3.17692 2.71024,-9.10321c-0.07541,-3.04148 -1.03619,-3.5303 0.00546,-3.69683c1.10265,-0.17627 6.95365,-5.44212 9.55896,-1.04283c1.09706,1.85249 -5.74637,2.4937 -5.96144,4.42545c-0.3129,2.8104 5.61643,6.56371 5.75034,5.8946c0.77267,-3.86097 6.14765,-7.90927 7.09402,-8.09645c2.89806,-0.57322 0.47904,1.32022 1.72115,4.00061c0.69954,1.50952 -5.16415,1.11937 -4.21339,2.30162c0.90611,1.12673 8.89544,3.74762 9.80075,5.44598c2.18718,4.10323 -2.94783,7.95937 -2.71249,9.56969c0.93211,6.37804 -7.37443,-6.47566 -20.38359,-4.57444z" data-paper-data="{&quot;index&quot;:null}" fill="#344e5f"/><path d="M271.18682,105.15675c-0.0276,0.0966 3.05395,-1.05896 6.0645,-1.51721c2.21501,-0.33716 4.53152,-0.01945 4.82982,0.03831c3.29138,0.63738 2.84019,6.21729 2.27862,7.22514c-0.41958,0.75302 -6.91002,-4.03296 -10.39515,-3.00812c-4.22261,1.24171 -5.24404,5.00657 -6.11507,5.41157c-1.46331,0.68041 -3.88604,-0.32495 -4.97573,-0.63622c-0.97617,-0.27885 -1.08769,-1.98127 -1.00938,-3.7681c0.07628,-1.7403 0.35073,-3.54527 -1.15592,-5.33095c-1.76831,-2.09579 -3.57488,-2.33607 -5.47739,-4.08632c-0.74259,-0.68316 -1.86964,-1.19738 -2.28031,-3.04087c-0.36616,-1.64374 -0.03322,-4.56369 -0.38099,-6.16388c-0.26145,-1.20301 -1.48991,-3.56571 -1.48167,-3.59452c0.14778,-0.5173 -0.69987,-2.17896 0.54321,-1.7941c0.76496,0.23683 0.67618,-0.10783 1.89557,0.80614c0.53719,0.40264 1.41458,1.91994 1.61039,3.54529c0.14739,1.22347 -0.79609,3.46954 0.2937,4.21066c0.11812,0.08034 0.63879,-1.33918 1.03962,-2.32411c0.45967,-1.1295 1.2964,-2.43997 1.86194,-1.79453c0.52246,0.59624 0.01447,3.12902 -0.12021,4.83285c-0.1516,1.91788 0.60852,3.1388 2.12784,4.31905c0.82126,0.638 2.43608,0.76338 2.77873,0.89663c0.68038,0.26452 1.53129,-6.64628 0.11034,-10.59744c-1.42095,-3.95116 -6.88603,-7.55684 -6.80942,-8.03026c0.39982,-2.47092 5.35417,-0.20634 8.13718,-0.12106c1.89339,0.05802 0.16079,8.29934 2.02685,8.6251c0.54352,0.09489 1.71472,-1.14567 2.67102,-1.7186c1.8363,-1.10017 1.84524,-3.95951 3.42613,-5.54036c1.59704,-1.597 5.50889,-0.96112 5.37585,-0.34443c-0.40726,1.88778 -3.23895,5.09054 -3.79268,7.54557c-0.51384,2.27813 1.77819,2.63087 1.25715,4.01808c-0.65212,1.73622 -6.37008,-1.22014 -7.1652,-0.40644c-1.4375,1.47115 0.09346,7.45608 0.60038,7.4799c2.12815,0.09998 1.78268,-1.33931 3.4305,-2.36583c1.78424,-1.1115 6.10688,-1.88196 6.06614,-4.18845c-0.02191,-1.23955 0.18779,-2.03721 0.4574,-3.05414c0.27806,-1.04873 0.62086,-2.30763 0.90642,-2.98025c0.43005,-1.01296 3.63916,-1.9954 3.70254,-1.9706c1.42856,0.5589 -2.52151,6.13124 -1.54573,6.27416c1.72001,0.25192 6.17462,-8.22339 8.76656,-8.53966c1.45405,-0.17742 -1.50898,5.05425 -0.65749,6.47742c1.38988,2.32302 6.07948,1.52759 5.75137,2.70513c-0.22094,0.7929 -5.96708,-0.29832 -10.01657,1.21229c-4.13048,1.54081 -5.87452,6.82591 -6.01344,6.89515c-0.56536,0.28179 -3.26732,0.25228 -5.41239,1.46801c-1.76563,1.00067 -3.06199,2.4292 -3.20505,2.93z" data-paper-data="{&quot;index&quot;:null}" fill="#344e5f"/><path d="M477.25085,137.19144c-0.02859,0.08017 2.63933,-0.72929 5.20933,-0.95309c1.89088,-0.16465 3.83196,0.22983 4.081,0.29487c2.74786,0.71771 2.06321,5.41039 1.5337,6.2319c-0.39563,0.6138 -5.62254,-3.78494 -8.62453,-3.10793c-3.63723,0.82028 -4.70534,3.94755 -5.4637,4.2426c-1.27405,0.49568 -3.26757,-0.48588 -4.17189,-0.80825c-0.81011,-0.28878 -0.81184,-1.73405 -0.64855,-3.24037c0.15906,-1.46709 0.48915,-2.97806 -0.68752,-4.56957c-1.38103,-1.86786 -2.89522,-2.16915 -4.40848,-3.75221c-0.59065,-0.61789 -1.51551,-1.11387 -1.76249,-2.69465c-0.22024,-1.4095 0.21991,-3.85988 0.01286,-5.23158c-0.15564,-1.03122 -1.06579,-3.09539 -1.05726,-3.11931c0.15305,-0.4293 -0.47325,-1.88011 0.55671,-1.48719c0.63382,0.24178 0.5775,-0.0544 1.55868,0.7845c0.43225,0.3696 1.09154,1.69998 1.16874,3.08468c0.05813,1.04233 -0.86156,2.88987 0.01949,3.57563c0.0955,0.07433 0.61279,-1.09743 1.00519,-1.90829c0.44997,-0.92989 1.22856,-1.99227 1.67159,-1.4159c0.40927,0.53245 -0.15781,2.64603 -0.36426,4.07913c-0.23238,1.61314 0.34388,2.6866 1.56414,3.76693c0.65963,0.58398 2.01797,0.77775 2.30039,0.909c0.56081,0.2606 1.65571,-5.5355 0.66917,-8.95299c-0.98656,-3.41751 -5.41074,-6.76269 -5.32025,-7.15874c0.47228,-2.06717 4.53759,0.11651 6.88569,0.33984c1.59751,0.15195 -0.31509,7.02495 1.24477,7.40173c0.45432,0.10975 1.51187,-0.87535 2.35145,-1.30775c1.61218,-0.83028 1.77512,-3.24706 3.19749,-4.49759c1.43691,-1.26331 4.7094,-0.51314 4.56343,0.00097c-0.44687,1.57378 -3.01481,4.12748 -3.61634,6.17285c-0.55818,1.89799 1.3603,2.32074 0.84443,3.46517c-0.64565,1.43235 -5.31892,-1.37767 -6.03531,-0.73296c-1.29519,1.16557 -0.32617,6.30839 0.10109,6.35606c1.79368,0.20017 1.57984,-1.03536 3.02868,-1.81364c1.56877,-0.84271 5.26498,-1.25914 5.35587,-3.21124c0.04884,-1.0491 0.26945,-1.71203 0.55265,-2.55709c0.29206,-0.87147 0.65028,-1.91711 0.92824,-2.47021c0.41861,-0.83298 3.18494,-1.48912 3.23718,-1.46472c1.17732,0.55012 -2.46485,5.04628 -1.64769,5.22012c1.4404,0.30643 5.66685,-6.61646 7.87525,-6.74296c1.23888,-0.07097 -1.55032,4.19081 -0.90781,5.44022c1.04875,2.03938 5.05651,1.62178 4.71517,2.59944c-0.22986,0.6583 -5.0283,-0.57646 -8.5338,0.48054c-3.5756,1.07813 -5.33719,5.45133 -5.4584,5.50232c-0.49325,0.20749 -2.77588,0.03573 -4.65538,0.94693c-1.54704,0.75 -2.72058,1.88723 -2.86875,2.30284z" data-paper-data="{&quot;index&quot;:null}" fill="#344e5f"/><path d="M383.39671,124.49037c0.03274,0.07857 1.46367,-2.31422 3.21583,-4.20761c1.28916,-1.39306 2.99136,-2.40593 3.21946,-2.52519c2.51677,-1.31595 5.16461,2.61839 5.32487,3.58254c0.11974,0.72037 -6.70691,0.97775 -8.4742,3.49707c-2.14126,3.05242 -0.82966,6.08563 -1.19274,6.81388c-0.60996,1.22345 -2.74568,1.83695 -3.63187,2.20623c-0.79387,0.33081 -1.76675,-0.73798 -2.6585,-1.96291c-0.86852,-1.19304 -1.63991,-2.53354 -3.58092,-2.92073c-2.27809,-0.4544 -3.60161,0.34048 -5.78612,0.18581c-0.85264,-0.06036 -1.87077,0.1942 -3.1163,-0.81004c-1.11059,-0.89541 -2.43203,-3.00537 -3.50745,-3.88167c-0.80847,-0.6588 -2.86992,-1.57507 -2.87969,-1.59852c-0.1753,-0.4207 -1.61428,-1.07373 -0.58764,-1.47524c0.63176,-0.2471 0.39096,-0.42851 1.6813,-0.46706c0.56847,-0.01696 1.95091,0.52472 2.93894,1.49793c0.74374,0.73257 1.30491,2.71862 2.41817,2.63399c0.12066,-0.00917 -0.28409,-1.22441 -0.5387,-2.0885c-0.29201,-0.99091 -0.4298,-2.30082 0.28565,-2.17195c0.66093,0.11904 1.66199,2.06499 2.47257,3.26472c0.91242,1.35045 2.06067,1.75775 3.69031,1.73721c0.88092,-0.01111 2.01679,-0.78082 2.3141,-0.87351c0.59037,-0.18408 -2.49555,-5.21108 -5.52333,-7.0779c-3.02781,-1.86682 -8.55194,-1.36911 -8.75119,-1.72315c-1.04003,-1.84785 3.43757,-2.96419 5.32604,-4.37738c1.28481,-0.96144 4.48932,5.4125 5.89741,4.64281c0.41012,-0.22418 0.53079,-1.66441 0.86167,-2.54893c0.63536,-1.69847 -0.86872,-3.59719 -0.6564,-5.47918c0.21449,-1.90122 3.14149,-3.54582 3.37904,-3.06709c0.72716,1.46551 0.54282,5.08237 1.47252,7.00097c0.86271,1.78035 2.56718,0.80361 2.95463,1.99765c0.48493,1.49444 -4.86383,2.55579 -4.96078,3.51468c-0.17529,1.73359 3.99941,4.88947 4.34776,4.63753c1.46245,-1.05763 0.47355,-1.82855 1.02294,-3.37872c0.59487,-1.67849 3.05128,-4.47159 1.80625,-5.97786c-0.66911,-0.80951 -0.95144,-1.4486 -1.30989,-2.26459c-0.36964,-0.84149 -0.80739,-1.85642 -0.97344,-2.45275c-0.25007,-0.89808 1.35679,-3.24353 1.41187,-3.26058c1.24141,-0.3842 1.56763,5.39287 2.28945,4.97222c1.27235,-0.74146 -0.25271,-8.70786 1.29716,-10.28612c0.86946,-0.88539 1.66958,4.14474 2.98518,4.63777c2.1474,0.80476 4.83367,-2.19866 5.23821,-1.2454c0.27238,0.64187 -4.11007,2.95356 -5.99466,6.09268c-1.92229,3.20189 -0.2865,7.62368 -0.34196,7.74292c-0.22568,0.4852 -2.03101,1.89256 -2.80987,3.83064c-0.6411,1.59525 -0.74538,3.22609 -0.57567,3.63337z" data-paper-data="{&quot;index&quot;:null}" fill="#344e5f"/><path d="M428.64891,122.65034c0.00563,-0.08493 -2.34022,1.42173 -4.75165,2.33824c-1.77422,0.67432 -3.74928,0.8244 -4.00661,0.82978c-2.83943,0.05925 -3.4611,-4.64219 -3.17581,-5.57701c0.21315,-0.69845 6.4419,2.10729 9.14527,0.6369c3.27543,-1.78153 3.44976,-5.08158 4.09885,-5.57235c1.09046,-0.82449 3.27617,-0.42407 4.23413,-0.36067c0.85816,0.0568 1.25415,1.44676 1.50804,2.94048c0.24726,1.45482 0.34195,2.99853 1.9082,4.20861c1.83826,1.4202 3.3772,1.29692 5.26496,2.40704c0.73682,0.43329 1.76192,0.65812 2.43083,2.11153c0.59645,1.29593 0.84155,3.77343 1.41501,5.03661c0.43109,0.94963 1.8699,2.68716 1.86822,2.7125c-0.03011,0.45477 0.96826,1.67966 -0.12982,1.58265c-0.67573,-0.05968 -0.54075,0.2099 -1.71358,-0.32947c-0.51669,-0.23764 -1.51395,-1.33766 -1.96602,-2.64876c-0.34031,-0.98692 0.0404,-3.0153 -0.99432,-3.43465c-0.11215,-0.04545 -0.29012,1.22299 -0.4464,2.11015c-0.17919,1.01738 -0.63838,2.25188 -1.22185,1.81826c-0.53902,-0.40058 -0.57012,-2.5887 -0.76251,-4.02375c-0.21657,-1.61534 -1.06385,-2.49084 -2.53257,-3.19725c-0.79393,-0.38186 -2.15361,-0.19766 -2.46113,-0.24687c-0.61063,-0.0977 -0.08258,5.77723 1.79895,8.79589c1.88155,3.01867 7.05059,5.02985 7.07159,5.43556c0.10964,2.1176 -4.39722,1.12595 -6.71716,1.55174c-1.57835,0.28968 -1.61355,-6.84439 -3.21703,-6.78129c-0.46703,0.01838 -1.21567,1.25464 -1.90542,1.8997c-1.32448,1.23864 -0.82185,3.60819 -1.84905,5.19935c-1.0377,1.60742 -4.39072,1.77858 -4.39056,1.24415c0.00053,-1.636 1.77429,-4.79344 1.79494,-6.92533c0.01916,-1.97827 -1.94187,-1.86155 -1.75783,-3.10331c0.23035,-1.55417 5.493,-0.12582 6.00631,-0.94153c0.92804,-1.47473 -1.40739,-6.15803 -1.83144,-6.08732c-1.78024,0.29681 -1.23741,1.42712 -2.41894,2.57117c-1.27933,1.23876 -4.72168,2.64786 -4.27651,4.5507c0.23925,1.02263 0.20787,1.7206 0.16599,2.61086c-0.04321,0.91808 -0.10254,2.02179 -0.21905,2.62975c-0.17546,0.91559 -2.65782,2.3016 -2.71473,2.29238c-1.28274,-0.20803 0.99451,-5.52733 0.16093,-5.47162c-1.46935,0.09819 -3.64661,7.91157 -5.73671,8.6358c-1.17252,0.40629 0.34809,-4.4548 -0.61094,-5.48151c-1.56538,-1.67587 -5.30715,-0.18063 -5.2455,-1.21433c0.04153,-0.69604 4.99481,-0.81733 8.07891,-2.79067c3.14578,-2.01279 3.64736,-6.7007 3.75006,-6.78283c0.41793,-0.3342 2.66081,-0.79174 4.22039,-2.18117c1.28371,-1.14364 2.10245,-2.55791 2.1316,-2.99818z" data-paper-data="{&quot;index&quot;:null}" fill="#344e5f"/><path d="M452.89624,146.80468c-0.52581,2.63986 -1.61862,0.08098 -17.53981,-1.91072c-13.30779,-1.66477 -18.71364,1.37629 -30.11409,-0.89449c-25.03971,-4.98748 -22.08997,-6.65994 -21.12466,-11.50632c0.96532,-4.8464 -6.85924,-18.39644 18.18048,-13.40895c5.18638,1.03304 6.48256,13.30478 17.83461,12.89817c1.15593,-0.0414 13.99031,-3.92803 15.10228,-4.17185c11.50945,-2.52369 8.03674,7.70719 14.89411,10.58628c8.38609,3.52094 5.09243,-3.51829 6.31865,4.43323z" fill="#344e5f"/><path d="M-116.63095,445.37488v-533.01354h714.30012v533.01354z" fill="none"/></g></g></svg>