<svg version="1.1" xmlns="http://www.w3.org/2000/svg" xmlns:xlink="http://www.w3.org/1999/xlink" width="49.91076" height="49.81663" viewBox="0,0,49.91076,49.81663"><g transform="translate(-214.96661,-155.09168)"><g data-paper-data="{&quot;isPaintingLayer&quot;:true}" fill-rule="nonzero" stroke="none" stroke-linejoin="miter" stroke-miterlimit="10" stroke-dasharray="" stroke-dashoffset="0" style="mix-blend-mode: normal"><path d="M214.96663,198.72525c0,-11.25908 0,-34.36061 0,-38.83371c0,-1.39219 2.52816,-4.79986 5.04715,-4.79986c6.01268,0 28.98107,0 38.72378,0c3.13463,0 5.92554,1.84509 6.0457,4.68375c0.21175,5.00233 0,27.097 0,38.60767c0,3.94876 -2.69927,6.52521 -6.79115,6.52521c-11.1123,0 -32.49513,0 -37.97835,0c-2.51898,0 -5.04715,-2.43555 -5.04715,-6.18307z" fill="#0a0d10" stroke-width="0" stroke-linecap="butt"/><path d="M244.19461,182.87335l-8.92391,1.21564c-0.42364,0.05526 -0.72755,0.00921 -0.91173,-0.13815c-0.18418,-0.16577 -0.31312,-0.46046 -0.3868,-0.8841l-0.69071,-4.33763c-0.12892,-0.792 0.23944,-1.24327 1.10513,-1.35378l6.54788,-0.93936c0.58941,-0.0921 0.8841,-0.43283 0.8841,-1.02225c0,-0.60782 -0.2947,-0.91173 -0.8841,-0.91173h-9.08968c-0.792,0 -1.18802,-0.39601 -1.18802,-1.18802v-4.00609c0,-0.792 0.39601,-1.18802 1.18802,-1.18802h10.63686c2.15501,0 3.83111,0.49731 5.02833,1.49193c1.21564,0.99462 1.82347,2.43129 1.82347,4.31v3.48116c0,1.84187 -0.46968,3.15882 -1.40904,3.95083c-0.92095,0.792 -2.16422,1.29853 -3.72981,1.51956zM240.52006,191.88014h-6.05057c-0.792,0 -1.18802,-0.39601 -1.18802,-1.18802v-4.31c0,-0.44206 0.0921,-0.74597 0.27628,-0.91173c0.20261,-0.18418 0.50652,-0.27628 0.91173,-0.27628h6.05057c0.792,0 1.18802,0.39601 1.18802,1.18802v4.31c0,0.792 -0.39601,1.18802 -1.18802,1.18802z" fill="#e0e4e9" stroke-width="1" stroke-linecap="square"/></g></g></svg>