<svg version="1.1" xmlns="http://www.w3.org/2000/svg" xmlns:xlink="http://www.w3.org/1999/xlink" width="226.16499" height="14.32891" viewBox="0,0,226.16499,14.32891"><g transform="translate(-126.9175,-172.83555)"><g data-paper-data="{&quot;isPaintingLayer&quot;:true}" fill="#ffffff" fill-rule="nonzero" stroke="none" stroke-width="1" stroke-linecap="square" stroke-linejoin="miter" stroke-miterlimit="10" stroke-dasharray="" stroke-dashoffset="0" style="mix-blend-mode: normal"><path d="M128.13379,182.04931c-0.35544,0 -0.64979,-0.11108 -0.88305,-0.33323c-0.22215,-0.23326 -0.33323,-0.52206 -0.33323,-0.8664c0,-0.34434 0.11108,-0.62202 0.33323,-0.83307c0.23326,-0.22215 0.52761,-0.33323 0.88306,-0.33323h3.44892c0.34434,0 0.63313,0.11664 0.8664,0.3499c0.23326,0.23326 0.3499,0.52206 0.3499,0.8664c0,0.33323 -0.11662,0.61092 -0.34988,0.83307c-0.23326,0.21105 -0.52206,0.31657 -0.8664,0.31657zM143.34809,185.74815c0,0.34434 -0.12774,0.63313 -0.38321,0.8664c-0.25547,0.23326 -0.54428,0.3499 -0.8664,0.3499c-0.37766,0 -0.67757,-0.11662 -0.89972,-0.34988c-0.22215,-0.23326 -0.33323,-0.52206 -0.33323,-0.8664v-11.4964c0,-0.34434 0.11664,-0.63313 0.3499,-0.8664c0.24437,-0.23326 0.54983,-0.34988 0.91638,-0.34988c0.32212,0 0.60537,0.11664 0.84974,0.3499c0.24437,0.23326 0.36655,0.52206 0.36655,0.8664zM162.46993,173.03546c0.31102,0 0.56649,0.10552 0.76643,0.31657c0.19994,0.21105 0.29991,0.47763 0.29991,0.79975v11.59636c0,0.34434 -0.11662,0.63313 -0.34988,0.8664c-0.23326,0.23326 -0.52206,0.3499 -0.8664,0.3499c-0.16661,0 -0.34434,-0.02777 -0.53317,-0.0833c-0.17773,-0.06665 -0.31102,-0.14995 -0.39987,-0.24992l-7.81421,-9.93022l0.51651,-0.31656v9.4637c0,0.32212 -0.10552,0.5887 -0.31656,0.79975c-0.19994,0.21105 -0.46652,0.31657 -0.79975,0.31657c-0.32212,0 -0.58315,-0.10552 -0.78308,-0.31656c-0.18883,-0.21105 -0.28324,-0.47763 -0.28324,-0.79975v-11.59636c0,-0.34434 0.11108,-0.63313 0.33323,-0.8664c0.23326,-0.23326 0.52206,-0.34988 0.8664,-0.34988c0.18883,0 0.38322,0.03888 0.58316,0.11664c0.19994,0.06665 0.34434,0.17217 0.4332,0.31657l7.58096,9.6803l-0.33323,0.23326v-9.23044c0,-0.32212 0.09997,-0.5887 0.29991,-0.79975c0.19994,-0.21105 0.46652,-0.31656 0.79975,-0.31656zM167.72811,173.03546h6.66458c0.34434,0 0.63313,0.11108 0.8664,0.33323c0.23326,0.22215 0.3499,0.5054 0.3499,0.84974c0,0.32212 -0.11662,0.5887 -0.34988,0.79975c-0.23326,0.21105 -0.52206,0.31657 -0.8664,0.31657h-5.56492l0.18328,-0.34988v3.88212l-0.16661,-0.16661h4.6652c0.34434,0 0.62758,0.11108 0.84974,0.33323c0.23326,0.22215 0.3499,0.5054 0.3499,0.84974c0,0.33323 -0.11662,0.60537 -0.34988,0.81642c-0.22215,0.19994 -0.5054,0.29991 -0.84973,0.29991h-4.59856l0.09997,-0.16661v4.01541l-0.16661,-0.16661h5.54827c0.34434,0 0.63313,0.11664 0.8664,0.3499c0.23326,0.22215 0.3499,0.48873 0.3499,0.79975c0,0.33323 -0.11662,0.60537 -0.34988,0.81642c-0.23326,0.21105 -0.52206,0.31657 -0.8664,0.31657h-6.66458c-0.34434,0 -0.63313,-0.11662 -0.8664,-0.34988c-0.22215,-0.23326 -0.33323,-0.52206 -0.33323,-0.8664v-11.4964c0,-0.34434 0.11108,-0.63313 0.33323,-0.8664c0.23326,-0.23326 0.52206,-0.34988 0.8664,-0.34988zM179.10735,173.03546h6.66458c0.34434,0 0.63313,0.11108 0.8664,0.33323c0.23326,0.22215 0.3499,0.5054 0.3499,0.84974c0,0.32212 -0.11662,0.5887 -0.34988,0.79975c-0.23326,0.21105 -0.52206,0.31657 -0.8664,0.31657h-5.56492l0.18328,-0.34988v3.88212l-0.16661,-0.16661h4.6652c0.34434,0 0.62758,0.11108 0.84974,0.33323c0.23326,0.22215 0.3499,0.5054 0.3499,0.84974c0,0.33323 -0.11662,0.60537 -0.34988,0.81642c-0.22215,0.19994 -0.5054,0.29991 -0.84973,0.29991h-4.59856l0.09997,-0.16661v4.01541l-0.16661,-0.16661h5.54827c0.34434,0 0.63313,0.11664 0.8664,0.3499c0.23326,0.22215 0.3499,0.48873 0.3499,0.79975c0,0.33323 -0.11662,0.60537 -0.34988,0.81642c-0.23326,0.21105 -0.52206,0.31657 -0.8664,0.31657h-6.66458c-0.34434,0 -0.63313,-0.11662 -0.8664,-0.34988c-0.22215,-0.23326 -0.33323,-0.52206 -0.33323,-0.8664v-11.4964c0,-0.34434 0.11108,-0.63313 0.33323,-0.8664c0.23326,-0.23326 0.52206,-0.34988 0.8664,-0.34988zM195.25174,173.03546c0.95525,0 1.79944,0.18328 2.53254,0.54983c0.74421,0.35544 1.37179,0.85528 1.88275,1.49953c0.51095,0.63313 0.89416,1.37179 1.14964,2.21598c0.26658,0.84418 0.39987,1.7439 0.39987,2.69915c0,1.28848 -0.23326,2.46034 -0.69978,3.51557c-0.46652,1.05522 -1.13853,1.89385 -2.01603,2.51588c-0.87751,0.62202 -1.96049,0.93304 -3.24898,0.93304h-4.76517c-0.34434,0 -0.63313,-0.11662 -0.8664,-0.34988c-0.22215,-0.23326 -0.33323,-0.52206 -0.33323,-0.8664v-11.4964c0,-0.34434 0.11108,-0.63313 0.33323,-0.8664c0.23326,-0.23326 0.52206,-0.34988 0.8664,-0.34988zM195.0518,184.68182c0.83307,0 1.5162,-0.21659 2.04936,-0.64979c0.53317,-0.4332 0.92193,-1.00524 1.1663,-1.71612c0.24437,-0.71089 0.36655,-1.48286 0.36655,-2.31594c0,-0.62202 -0.0722,-1.21628 -0.21659,-1.78277c-0.13329,-0.56649 -0.34988,-1.06078 -0.64979,-1.48286c-0.28879,-0.4332 -0.6609,-0.77198 -1.11631,-1.01634c-0.44431,-0.25547 -0.97747,-0.38321 -1.5995,-0.38321h-3.48224l0.19994,-0.18327v9.74695l-0.11662,-0.21659zM213.79644,186.96443c-0.37766,0 -0.68867,-0.11662 -0.93304,-0.34988c-0.23326,-0.23326 -0.34988,-0.52206 -0.34988,-0.8664v-11.52972h2.58253v11.52972c0,0.34434 -0.12218,0.63313 -0.36655,0.8664c-0.24437,0.23326 -0.55538,0.3499 -0.93304,0.3499zM209.39782,175.33474c-0.34434,0 -0.63313,-0.10552 -0.8664,-0.31656c-0.23326,-0.22215 -0.34988,-0.5054 -0.34988,-0.84973c0,-0.34434 0.11664,-0.61647 0.3499,-0.81641c0.23326,-0.21105 0.52206,-0.31656 0.8664,-0.31656h8.83056c0.34434,0 0.63313,0.10552 0.8664,0.31657c0.23326,0.21105 0.3499,0.48873 0.3499,0.83307c0,0.34434 -0.11662,0.62202 -0.34988,0.83307c-0.23326,0.21105 -0.52206,0.31657 -0.8664,0.31657zM233.93265,179.99995c0,0.99969 -0.16661,1.93273 -0.49984,2.79912c-0.32212,0.85528 -0.78864,1.61061 -1.39956,2.26596c-0.59981,0.65535 -1.31625,1.17186 -2.14932,1.54952c-0.82196,0.36655 -1.72168,0.54983 -2.69915,0.54983c-0.98858,0 -1.89385,-0.18327 -2.71581,-0.54982c-0.82196,-0.37766 -1.53841,-0.89416 -2.14932,-1.54951c-0.59981,-0.65535 -1.06633,-1.41067 -1.39956,-2.26596c-0.32212,-0.8664 -0.48318,-1.79944 -0.48318,-2.79912c0,-0.98858 0.16106,-1.91606 0.48319,-2.78246c0.33323,-0.8664 0.79975,-1.62727 1.39956,-2.28261c0.61092,-0.65535 1.32736,-1.1663 2.14933,-1.53285c0.82196,-0.37766 1.72723,-0.56649 2.71582,-0.56649c0.97747,0 1.87719,0.18883 2.69915,0.56649c0.83307,0.36655 1.54952,0.87751 2.14933,1.53285c0.61092,0.65535 1.07744,1.41623 1.39956,2.28262c0.33323,0.8664 0.49984,1.79388 0.49984,2.78247zM231.35012,179.99995c0,-0.88861 -0.17773,-1.69391 -0.53317,-2.4159c-0.35544,-0.72199 -0.84418,-1.29404 -1.46621,-1.71612c-0.62202,-0.42209 -1.34403,-0.63313 -2.16599,-0.63313c-0.83307,0 -1.56062,0.21105 -2.18264,0.63313c-0.62202,0.42209 -1.11077,0.99413 -1.46621,1.71613c-0.34434,0.71089 -0.5165,1.5162 -0.5165,2.41591c0,0.88861 0.17217,1.69391 0.51651,2.41591c0.35544,0.72199 0.84418,1.29959 1.46621,1.73279c0.62202,0.42209 1.34958,0.63313 2.18265,0.63313c0.82196,0 1.54396,-0.21105 2.16599,-0.63313c0.62202,-0.4332 1.11077,-1.0108 1.46621,-1.73279c0.35544,-0.72199 0.53317,-1.5273 0.53317,-2.4159zM248.3709,187.16437c-1.0108,0 -1.95494,-0.18327 -2.83245,-0.54982c-0.87751,-0.37766 -1.64948,-0.89416 -2.31594,-1.54951c-0.65535,-0.65535 -1.17186,-1.41067 -1.54951,-2.26596c-0.37766,-0.8664 -0.56649,-1.79944 -0.56649,-2.79912c0,-0.98858 0.18883,-1.91606 0.56649,-2.78246c0.37766,-0.8664 0.89416,-1.62727 1.54952,-2.28261c0.66646,-0.65535 1.43844,-1.1663 2.31595,-1.53285c0.87751,-0.37766 1.82165,-0.56649 2.83245,-0.56649c0.62202,0 1.22184,0.06665 1.79944,0.19994c0.5887,0.13329 1.12742,0.33323 1.61617,0.59981c0.19994,0.11108 0.3499,0.25547 0.44986,0.4332c0.09997,0.17773 0.14996,0.361 0.14996,0.54983c0,0.31102 -0.10552,0.59426 -0.31656,0.84974c-0.21105,0.25547 -0.48318,0.38322 -0.81641,0.38322c-0.11108,0 -0.22215,-0.01111 -0.33323,-0.03332c-0.11108,-0.03332 -0.22215,-0.07776 -0.33323,-0.13329c-0.33323,-0.1444 -0.68311,-0.25547 -1.04967,-0.33323c-0.36655,-0.07776 -0.75532,-0.11662 -1.1663,-0.11662c-0.8664,0 -1.65503,0.2166 -2.36592,0.6498c-0.71089,0.42209 -1.27738,0.99413 -1.69947,1.71613c-0.41099,0.72199 -0.61647,1.52174 -0.61647,2.39925c0,0.8664 0.20549,1.66614 0.61648,2.39925c0.42209,0.72199 0.98858,1.29959 1.69947,1.73279c0.71089,0.4332 1.49953,0.6498 2.36592,0.6498c0.38876,0 0.82196,-0.03888 1.29959,-0.11662c0.47763,-0.08886 0.87195,-0.19994 1.18297,-0.33323l-0.18327,0.59981v-3.39893l0.33323,0.29991h-2.19931c-0.34434,0 -0.63313,-0.11108 -0.8664,-0.33323c-0.23326,-0.23326 -0.34988,-0.52206 -0.34988,-0.8664c0,-0.34434 0.11664,-0.62758 0.3499,-0.84973c0.23326,-0.22215 0.52206,-0.33323 0.8664,-0.33323h3.26564c0.34434,0 0.62758,0.11664 0.84974,0.3499c0.22215,0.22215 0.33323,0.51095 0.33323,0.8664v4.21535c0,0.26658 -0.06109,0.48873 -0.18327,0.66646c-0.12218,0.16661 -0.26658,0.29991 -0.4332,0.39987c-0.61092,0.37766 -1.27738,0.67757 -1.99937,0.89972c-0.72199,0.21105 -1.47732,0.31657 -2.26596,0.31657zM256.85196,173.03546h6.66458c0.34434,0 0.63313,0.11108 0.8664,0.33323c0.23326,0.22215 0.3499,0.5054 0.3499,0.84974c0,0.32212 -0.11662,0.5887 -0.34988,0.79975c-0.23326,0.21105 -0.52206,0.31657 -0.8664,0.31657h-5.56492l0.18328,-0.34988v3.88212l-0.16661,-0.16661h4.6652c0.34434,0 0.62758,0.11108 0.84974,0.33323c0.23326,0.22215 0.3499,0.5054 0.3499,0.84974c0,0.33323 -0.11662,0.60537 -0.34988,0.81642c-0.22215,0.19994 -0.5054,0.29991 -0.84973,0.29991h-4.59856l0.09997,-0.16661v4.01541l-0.16661,-0.16661h5.54827c0.34434,0 0.63313,0.11664 0.8664,0.3499c0.23326,0.22215 0.3499,0.48873 0.3499,0.79975c0,0.33323 -0.11662,0.60537 -0.34988,0.81642c-0.23326,0.21105 -0.52206,0.31657 -0.8664,0.31657h-6.66458c-0.34434,0 -0.63313,-0.11662 -0.8664,-0.34988c-0.22215,-0.23326 -0.33323,-0.52206 -0.33323,-0.8664v-11.4964c0,-0.34434 0.11108,-0.63313 0.33323,-0.8664c0.23326,-0.23326 0.52206,-0.34988 0.8664,-0.34988zM271.74677,186.96443c-0.37766,0 -0.68867,-0.11662 -0.93304,-0.34988c-0.23326,-0.23326 -0.34988,-0.52206 -0.34988,-0.8664v-11.52972h2.58253v11.52972c0,0.34434 -0.12218,0.63313 -0.36655,0.8664c-0.24437,0.23326 -0.55538,0.3499 -0.93304,0.3499zM267.34815,175.33474c-0.34434,0 -0.63313,-0.10552 -0.8664,-0.31656c-0.23326,-0.22215 -0.34988,-0.5054 -0.34988,-0.84973c0,-0.34434 0.11664,-0.61647 0.3499,-0.81641c0.23326,-0.21105 0.52206,-0.31656 0.8664,-0.31656h8.83056c0.34434,0 0.63313,0.10552 0.8664,0.31657c0.23326,0.21105 0.3499,0.48873 0.3499,0.83307c0,0.34434 -0.11662,0.62202 -0.34988,0.83307c-0.23326,0.21105 -0.52206,0.31657 -0.8664,0.31657zM286.32159,173.03546c0.32212,0 0.60537,0.11664 0.84974,0.3499c0.24437,0.23326 0.36655,0.52206 0.36655,0.8664v11.4964c0,0.34434 -0.12774,0.63313 -0.38321,0.8664c-0.25547,0.23326 -0.54428,0.3499 -0.8664,0.3499c-0.37766,0 -0.67757,-0.11662 -0.89972,-0.34988c-0.22215,-0.23326 -0.33323,-0.52206 -0.33323,-0.8664v-11.4964c0,-0.34434 0.11664,-0.63313 0.3499,-0.8664c0.24437,-0.23326 0.54983,-0.34988 0.91638,-0.34988zM295.1355,173.03546c0.36655,0 0.6609,0.11664 0.88306,0.3499c0.23326,0.23326 0.3499,0.52206 0.3499,0.8664v11.4964c0,0.34434 -0.11662,0.63313 -0.34988,0.8664c-0.23326,0.23326 -0.53872,0.3499 -0.91637,0.3499c-0.32212,0 -0.60537,-0.11662 -0.84973,-0.34988c-0.24437,-0.23326 -0.36655,-0.52206 -0.36655,-0.8664v-11.4964c0,-0.34434 0.12218,-0.63313 0.36655,-0.8664c0.25547,-0.23326 0.54983,-0.34988 0.88306,-0.34988zM286.25494,178.83365h8.88055v2.28262h-8.88054zM312.15493,179.99995c0,0.99969 -0.16661,1.93273 -0.49984,2.79912c-0.32212,0.85528 -0.78864,1.61061 -1.39956,2.26596c-0.59981,0.65535 -1.31625,1.17186 -2.14932,1.54952c-0.82196,0.36655 -1.72168,0.54983 -2.69915,0.54983c-0.98858,0 -1.89385,-0.18327 -2.71581,-0.54982c-0.82196,-0.37766 -1.53841,-0.89416 -2.14932,-1.54951c-0.59981,-0.65535 -1.06633,-1.41067 -1.39956,-2.26596c-0.32212,-0.8664 -0.48318,-1.79944 -0.48318,-2.79912c0,-0.98858 0.16106,-1.91606 0.48319,-2.78246c0.33323,-0.8664 0.79975,-1.62727 1.39956,-2.28261c0.61092,-0.65535 1.32736,-1.1663 2.14933,-1.53285c0.82196,-0.37766 1.72723,-0.56649 2.71582,-0.56649c0.97747,0 1.87719,0.18883 2.69915,0.56649c0.83307,0.36655 1.54952,0.87751 2.14933,1.53285c0.61092,0.65535 1.07744,1.41623 1.39956,2.28262c0.33323,0.8664 0.49984,1.79388 0.49984,2.78247zM309.5724,179.99995c0,-0.88861 -0.17773,-1.69391 -0.53317,-2.4159c-0.35544,-0.72199 -0.84418,-1.29404 -1.46621,-1.71612c-0.62202,-0.42209 -1.34403,-0.63313 -2.16599,-0.63313c-0.83307,0 -1.56062,0.21105 -2.18264,0.63313c-0.62202,0.42209 -1.11077,0.99413 -1.46621,1.71613c-0.34434,0.71089 -0.5165,1.5162 -0.5165,2.41591c0,0.88861 0.17217,1.69391 0.51651,2.41591c0.35544,0.72199 0.84418,1.29959 1.46621,1.73279c0.62202,0.42209 1.34958,0.63313 2.18265,0.63313c0.82196,0 1.54396,-0.21105 2.16599,-0.63313c0.62202,-0.4332 1.11077,-1.0108 1.46621,-1.73279c0.35544,-0.72199 0.53317,-1.5273 0.53317,-2.4159zM315.70792,173.01881c0.17773,0 0.37211,0.04999 0.58316,0.14996c0.21105,0.09997 0.36655,0.2277 0.46652,0.38322l4.83182,7.44767l-0.99969,-0.04998l4.96511,-7.39768c0.24437,-0.35544 0.56649,-0.53317 0.96636,-0.53317c0.32212,0 0.60537,0.11664 0.84974,0.3499c0.25547,0.22215 0.38322,0.51095 0.38322,0.8664v11.51306c0,0.34434 -0.11108,0.63313 -0.33323,0.8664c-0.22215,0.23326 -0.52206,0.3499 -0.89972,0.3499c-0.36655,0 -0.66646,-0.11662 -0.89972,-0.34988c-0.23326,-0.23326 -0.34988,-0.52206 -0.34988,-0.8664v-9.36373l0.78309,0.18328l-4.06539,6.1814c-0.12218,0.1444 -0.27214,0.27214 -0.44985,0.38322c-0.17773,0.09997 -0.361,0.1444 -0.54982,0.13329c-0.16661,0.01111 -0.33878,-0.03332 -0.5165,-0.13329c-0.17773,-0.11108 -0.32767,-0.23882 -0.44985,-0.38321l-3.79881,-6.01478l0.51651,-1.04967v10.06351c0,0.34434 -0.10552,0.63313 -0.31656,0.8664c-0.21105,0.23326 -0.48873,0.3499 -0.83307,0.3499c-0.33323,0 -0.60537,-0.11662 -0.81641,-0.34988c-0.21105,-0.23326 -0.31656,-0.52206 -0.31656,-0.8664v-11.51305c0,-0.33323 0.12218,-0.61647 0.36655,-0.84973c0.24437,-0.24437 0.53872,-0.36655 0.88306,-0.36655zM331.95094,173.03546h6.66458c0.34434,0 0.63313,0.11108 0.8664,0.33323c0.23326,0.22215 0.3499,0.5054 0.3499,0.84974c0,0.32212 -0.11662,0.5887 -0.34988,0.79975c-0.23326,0.21105 -0.52206,0.31657 -0.8664,0.31657h-5.56492l0.18328,-0.34988v3.88212l-0.16661,-0.16661h4.6652c0.34434,0 0.62758,0.11108 0.84974,0.33323c0.23326,0.22215 0.3499,0.5054 0.3499,0.84974c0,0.33323 -0.11662,0.60537 -0.34988,0.81642c-0.22215,0.19994 -0.5054,0.29991 -0.84973,0.29991h-4.59856l0.09997,-0.16661v4.01541l-0.16661,-0.16661h5.54827c0.34434,0 0.63313,0.11664 0.8664,0.3499c0.23326,0.22215 0.3499,0.48873 0.3499,0.79975c0,0.33323 -0.11662,0.60537 -0.34988,0.81642c-0.23326,0.21105 -0.52206,0.31657 -0.8664,0.31657h-6.66458c-0.34434,0 -0.63313,-0.11662 -0.8664,-0.34988c-0.22215,-0.23326 -0.33323,-0.52206 -0.33323,-0.8664v-11.4964c0,-0.34434 0.11108,-0.63313 0.33323,-0.8664c0.23326,-0.23326 0.52206,-0.34988 0.8664,-0.34988zM348.41727,182.04931c-0.35544,0 -0.64979,-0.11108 -0.88305,-0.33323c-0.22215,-0.23326 -0.33323,-0.52206 -0.33323,-0.8664c0,-0.34434 0.11108,-0.62202 0.33323,-0.83307c0.23326,-0.22215 0.52761,-0.33323 0.88306,-0.33323h3.44892c0.34434,0 0.63313,0.11664 0.8664,0.3499c0.23326,0.23326 0.3499,0.52206 0.3499,0.8664c0,0.33323 -0.11662,0.61092 -0.34988,0.83307c-0.23326,0.21105 -0.52206,0.31657 -0.8664,0.31657z"/></g></g></svg>