<svg version="1.1" xmlns="http://www.w3.org/2000/svg" xmlns:xlink="http://www.w3.org/1999/xlink" width="51.81665" height="51.81832" viewBox="0,0,51.81665,51.81832"><defs><linearGradient x1="240" y1="155.09084" x2="240" y2="204.90916" gradientUnits="userSpaceOnUse" id="color-1"><stop offset="0" stop-color="#a10000"/><stop offset="1" stop-color="#000000"/></linearGradient><linearGradient x1="241.65748" y1="162.8984" x2="241.65748" y2="197.1016" gradientUnits="userSpaceOnUse" id="color-2"><stop offset="0" stop-color="#bf0000"/><stop offset="1" stop-color="#bf0000" stop-opacity="0"/></linearGradient></defs><g transform="translate(-214.04462,-154.09084)"><g data-paper-data="{&quot;isPaintingLayer&quot;:true}" fill-rule="nonzero" stroke-linecap="butt" stroke-linejoin="miter" stroke-miterlimit="10" stroke-dasharray="" stroke-dashoffset="0" style="mix-blend-mode: normal"><path d="M215.04464,198.7261c0,-11.25908 0,-34.36061 0,-38.83371c0,-1.96596 2.20029,-4.88183 5.04715,-4.79986c6.01019,0.17305 28.98107,0 38.72378,0c3.13463,0 5.92554,1.84509 6.0457,4.68375c0.21175,5.00233 0,27.097 0,38.60767c0,3.94876 -2.69927,6.52521 -6.79115,6.52521c-11.1123,0 -32.49513,0 -37.97835,0c-2.51898,0 -5.04715,-2.43555 -5.04715,-6.18307z" fill="#0a0d10" stroke="url(#color-1)" stroke-width="2"/><path d="M246.71612,176.15501c0.0035,0.0035 0.00817,0.007 0.01167,0.0105c-0.00117,0 -0.0035,0 -0.00584,0c0.21594,0.328 -0.13307,0.76572 -1.0482,0.7774c-0.44823,0.00584 -0.76105,-0.09455 -0.93731,-0.23812c-0.28014,0.20544 -0.50076,0.4599 -0.63266,0.74355c0.94315,-0.00817 1.01318,1.34585 0.20894,1.5828c0.25096,0.36419 0.53344,0.60931 0.83809,0.76339c-0.01517,-0.41671 0.24396,-0.85327 0.78207,-0.86727c0.62448,-0.01751 0.87428,0.55445 0.75288,1.02369c0.29648,-0.05603 0.59647,-0.14591 0.89296,-0.25563c0.25913,-0.09571 0.50776,-0.21127 0.74471,-0.34201c-0.68868,-0.52877 -0.47041,-1.94349 0.65717,-1.97384c0.51126,-0.01401 0.83459,0.2673 0.97233,0.63032c0.18443,-0.21711 0.35485,-0.44472 0.50776,-0.68168c0.03735,-0.37236 0.21011,-0.73187 0.5171,-0.96299c0.0607,-0.14007 0.11673,-0.28014 0.16692,-0.42255c-1.49176,-0.24045 -1.40188,-2.6952 0.2673,-2.76174c-0.03385,-0.17275 -0.07704,-0.34084 -0.13307,-0.50309c-0.01401,-0.03969 -0.02801,-0.07937 -0.04436,-0.11906c-0.35718,-0.18793 -0.56612,-0.54394 -0.62565,-0.93031c-0.14941,-0.15291 -0.31749,-0.29882 -0.50076,-0.43656c-0.23112,0.51009 -0.70736,0.90462 -1.43106,0.9233c-1.29449,0.03502 -1.79992,-1.17426 -1.51744,-2.13842c-0.70386,-0.1354 -1.44974,-0.1961 -2.20028,-0.16809c0.21828,1.08322 -0.38987,2.38472 -1.82676,2.42207c-1.06571,0.02918 -1.67502,-0.66067 -1.83026,-1.46491c-0.12256,0.0677 -0.24162,0.13774 -0.35952,0.21244c-0.34201,0.21711 -0.66534,0.44122 -0.97116,0.67117c0.76922,1.10656 0.26264,3.10258 -1.52211,3.14927c-0.49025,0.01284 -0.88362,-0.12607 -1.18127,-0.35835c-0.06186,0.09105 -0.1214,0.18209 -0.17976,0.27314c0.03502,0.52994 -0.20193,1.08905 -0.71086,1.34118c-0.02101,0.05019 -0.04202,0.10038 -0.06303,0.15058c2.4209,0.17626 2.34036,4.06207 -0.24162,4.12977c-0.14474,0.00467 -0.28131,-0.00467 -0.41088,-0.02451c0.79724,0.5241 0.88478,1.78474 0.26497,2.50611c0.25096,-0.12256 0.54511,-0.1961 0.88245,-0.20544c2.48043,-0.06653 2.65318,3.50995 0.51826,4.0644c1.13341,0.15174 1.55362,1.32251 1.25831,2.25281c0.33034,-0.3315 0.79374,-0.55328 1.39254,-0.56962c2.1676,-0.05836 2.57264,2.66719 1.21512,3.72473c0.03152,-0.00233 0.06303,-0.0035 0.09571,-0.00467c1.26998,-0.03385 1.93532,0.88712 1.99485,1.86878c0.31516,-0.55211 0.88362,-0.96066 1.70537,-0.98283c1.85828,-0.05019 2.4209,1.94699 1.68669,3.18429c0.74355,0.37586 1.5011,0.69452 2.26449,0.95015h-3.91966c-0.01051,0 -0.02101,0.00117 -0.03152,0.00117c-0.05603,0.00233 -0.10972,0.00117 -0.16341,-0.00117h-13.87873c-4.63753,-8.34825 -6.77711,-16.2646 -2.55163,-24.50079c2.97885,-5.80712 10.62207,-9.77931 17.35483,-9.69877v-0.00117c5.23633,0.06303 9.1093,2.56797 11.0166,8.37976c3.10374,9.45948 -11.76015,16.85524 -14.54756,8.12413c-1.12874,-3.5333 2.09523,-4.90016 4.20797,-3.46326c0.13307,0.0607 0.22995,0.13657 0.28831,0.22061z" fill="url(#color-2)" stroke="none" stroke-width="1"/></g></g></svg>