<svg version="1.1" xmlns="http://www.w3.org/2000/svg" xmlns:xlink="http://www.w3.org/1999/xlink" width="408.32532" height="379.37637" viewBox="0,0,408.32532,379.37637"><g transform="translate(-22.60323,22.57609)"><g data-paper-data="{&quot;isPaintingLayer&quot;:true}" fill="#344e5f" fill-rule="nonzero" stroke="none" stroke-width="0" stroke-linecap="butt" stroke-linejoin="miter" stroke-miterlimit="10" stroke-dasharray="" stroke-dashoffset="0" style="mix-blend-mode: normal"><path d="M211.56479,356.80028c0,0 -169.38227,-30.51079 -172.22676,-158.44889c-1.90656,-85.75199 -20.37049,-120.84046 8.91181,-172.5578c9.28578,-16.40021 7.62954,-59.91746 43.99692,-45.48001c42.33416,16.8062 22.37542,65.9726 34.68425,59.04475c33.42841,-18.81469 81.81756,98.9378 125.08057,147.31055c13.14067,14.69269 66.59663,3.90515 73.21369,3.37083c45.18881,-3.64897 39.4804,-14.19977 37.75052,-34.93868c-0.41669,-4.99561 11.26607,-4.10858 10.26369,-11.32207c-0.38672,-2.78298 -6.92905,1.08014 -7.22623,-2.17597c-0.25133,-2.75373 -0.63545,-5.76581 -1.20112,-8.96816c-0.24787,-1.40328 11.31517,0.53493 11.5124,-4.04923c0.05332,-1.23929 -4.7002,-1.83816 -6.66442,-4.16135c-3.25583,-3.85085 -4.45263,-9.637 -4.62282,-10.31451c-0.26703,-1.06301 -4.24333,7.19844 -5.21727,6.62405c-8.26237,-4.87283 0.45651,-5.49431 -0.91413,-8.91198c-1.25292,-3.12413 -5.13337,-10.00634 -6.57889,-12.12876c-2.89554,-4.25143 -5.57943,3.6315 -9.36377,-0.06171c-7.26428,-7.08936 -16.05106,-12.93958 -25.91886,-16.74182c-2.96242,-1.14147 -4.16148,13.54662 -6.94843,12.31315c-0.90698,-0.40142 -6.4978,-1.44903 -8.36668,-1.20813c-4.99133,0.64339 5.84135,-4.96879 6.41611,-8.41945c0.39176,-2.35196 -5.77578,-1.17707 -10.12261,-2.85936c-3.25011,-1.25784 -4.67424,-5.62822 -5.96699,-6.03435c-3.05644,-0.96022 -6.69217,8.92073 -9.75582,8.11504c-2.12309,-0.55834 -1.28352,-4.04626 -3.30617,-7.39885c-1.85089,-3.06789 -6.55919,-6.02246 -8.58219,-6.51513c-136.63931,-33.27651 -298.61097,-30.78598 -232.58949,-40.54583c22.08886,-3.26536 34.13174,-49.98088 99.38491,-51.88747c27.12734,-0.79261 49.96626,10.57075 72.48379,13.81439c9.99786,1.44019 25.02597,0.81577 32.61483,3.17656c12.88692,4.00894 53.31644,-0.91261 57.0921,-1.07334c18.94023,-0.80631 10.99092,4.62506 32.77405,3.89416c13.29206,-0.446 17.4984,-7.27742 24.89342,-5.54953c5.47363,1.27895 19.17138,25.57955 22.7227,34.02593c2.42164,5.75956 12.64664,4.1124 19.66084,6.44533c5.68309,1.8902 8.62376,8.29714 8.62376,8.29714c0,0 14.90148,35.31422 20.83115,91.65308c9.18898,87.30621 -15.8764,212.05573 -15.8764,212.05573z"/></g></g></svg>