<svg version="1.1" xmlns="http://www.w3.org/2000/svg" xmlns:xlink="http://www.w3.org/1999/xlink" width="694.92685" height="522.53727" viewBox="0,0,694.92685,522.53727"><g transform="translate(110.89528,86.93791)"><g data-paper-data="{&quot;isPaintingLayer&quot;:true}" fill-rule="nonzero" stroke="none" stroke-width="0" stroke-linecap="butt" stroke-linejoin="miter" stroke-miterlimit="10" stroke-dasharray="" stroke-dashoffset="0" style="mix-blend-mode: normal"><path d="M395.25524,45.94774c2.44543,12.91793 8.65552,22.02402 2.32222,23.22295c-0.85925,0.16266 -1.15507,-4.62633 -5.09488,-3.18138c-3.86738,1.41839 -11.38487,9.08971 -11.69702,7.30501c-0.067,-0.38306 -0.13171,-2.24729 -1.65453,-3.45099c-1.76981,-1.39893 -4.97082,-2.20595 -4.0072,-3.45957c0.62603,-0.81444 9.93901,0.08961 10.63822,-0.77351c3.51686,-4.34132 7.42524,-8.85725 6.35312,-9.1104c-4.22321,-0.99719 -15.09554,9.30254 -15.82931,4.27728c-0.04836,-0.33119 6.59006,-3.51664 5.56019,-5.47901c-0.72721,-1.38569 -9.60191,-1.53205 -8.35754,-2.39858c3.97047,-2.76489 16.94371,-2.54948 16.78844,-3.36973c-0.09487,-0.50118 -3.29402,-2.72135 -9.20892,-2.32586c-3.03563,0.20297 -3.48371,1.18342 -3.6938,0.14967c-0.22238,-1.09428 -5.72911,-6.71916 -1.44303,-9.50678c1.80482,-1.17383 2.73263,5.63667 4.67171,5.77049c2.82105,0.19469 6.32225,-5.88691 5.64811,-5.99263c-3.88999,-0.60997 -8.16027,-5.81034 -8.387,-6.74803c-0.69432,-2.87146 1.29895,-0.53402 3.92486,-1.88751c1.47884,-0.76226 1.33509,5.11263 2.4764,4.11309c3.71564,-3.25408 2.19559,-10.28353 4.45647,-10.71152c6.3333,-1.19893 4.08803,10.63909 6.53348,23.55701z" data-paper-data="{&quot;index&quot;:null}" fill="#344e5f"/><path d="M423.91016,373.72258c-17.49538,-3.44537 -12.27587,-8.1801 -23.46445,3.48494c-9.36067,9.75929 -15.44544,5.07101 -17.63099,-6.08499c-0.70836,-3.61576 2.72978,-8.44477 1.70027,-12.98173c-2.50036,-11.01885 -12.89496,-23.06209 -11.85447,-34.54306c0.52655,-5.80998 2.75118,-12.42354 3.14258,-18.5957c1.33912,-21.11737 0.37687,-43.45391 2.60232,-66.12175c0.82287,-8.38157 4.02758,-16.17921 4.82687,-24.50868c1.68882,-17.5993 3.291,-34.90988 4.66294,-51.20309c1.71055,-20.31459 2.60241,-40.01226 3.12135,-57.32547c0.20945,-6.98773 -3.22088,-9.41151 -3.10362,-15.50618c0.0772,-4.01253 3.71979,-11.98186 3.7781,-15.52376c0.30567,-18.5681 0.46666,-30.21337 1.68796,-30.15778c2.22985,0.10149 -3.24978,-17.33079 2.4096,-24.61061c3.29332,-4.23629 -24.99585,-29.59114 -10.87644,-32.1009c32.98828,-5.86374 134.46307,-17.04401 146.05148,-11.34936c27.98093,1.62274 -4.50642,71.2529 -5.3468,100.56172c-2.71212,94.58679 11.90411,286.17097 11.90411,307.82038z" data-paper-data="{&quot;index&quot;:null}" fill="#344e5f"/><path d="M331.61032,128.13866c-0.05661,-0.35159 -0.8212,-1.42637 -1.93901,-2.24862c-1.35803,-0.99896 -3.19491,-1.19753 -3.55596,-1.43459c-0.08872,-0.05825 -0.84524,-3.78765 -3.52496,-5.16796c-2.62718,-1.35325 -6.61679,-1.07726 -6.70265,-1.63347c-0.1275,-0.82603 2.99214,0.09343 4.12374,-1.37133c0.69326,-0.89737 -0.89521,-4.68912 0.07766,-4.45102c1.7342,0.42443 4.07295,6.53913 5.26113,6.50724c0.67407,-0.01809 -1.55699,-4.12099 -0.54186,-4.38488c0.04504,-0.01171 2.14437,0.91494 2.3544,1.63748c0.13946,0.47978 0.27036,1.36224 0.3743,2.09677c0.10078,0.71226 0.17862,1.27079 0.06346,2.11061c-0.21427,1.56269 2.65824,2.4355 3.77972,3.33451c1.03573,0.83027 0.68473,1.77952 2.13772,1.88382c0.3461,0.02484 1.86976,-3.91476 1.01279,-5.02989c-0.47401,-0.61679 -4.59539,0.92781 -4.89768,-0.30375c-0.24153,-0.984 1.34318,-1.03806 1.17862,-2.62636c-0.17733,-1.71164 -1.84078,-4.11524 -1.96456,-5.42989c-0.04043,-0.42946 2.66696,-0.54471 3.62206,0.66878c0.94544,1.20121 0.72017,3.14328 1.87792,4.0388c0.60292,0.46636 1.29774,1.40339 1.67444,1.38294c1.29331,-0.0702 0.78372,-5.8058 2.07393,-5.69201c1.89642,0.16726 5.44338,-0.96944 5.51493,0.74053c0.01371,0.32763 -3.9885,2.33354 -5.27292,4.90121c-1.28442,2.56767 -1.26581,7.32859 -0.78247,7.20404c0.24342,-0.06274 1.34995,-0.01723 1.95916,-0.38395c1.12702,-0.67841 1.74188,-1.44585 1.79412,-2.76026c0.04641,-1.16771 -0.09358,-2.92843 0.30938,-3.29098c0.43619,-0.39246 0.89826,0.56497 1.11897,1.36903c0.19246,0.70114 0.43112,1.70705 0.51782,1.66206c0.79987,-0.41501 0.34101,-2.01631 0.54007,-2.83506c0.26444,-1.08769 0.9829,-2.04687 1.3802,-2.27678c0.90184,-0.52188 0.81368,-0.29506 1.35221,-0.39397c0.87512,-0.16073 0.16518,0.89887 0.22366,1.26205c0.00326,0.02023 -1.02195,1.52499 -1.29679,2.32062c-0.36558,1.05831 -0.37577,3.06773 -0.75736,4.15412c-0.42797,1.21841 -1.23478,1.47636 -1.79423,1.88011c-1.43331,1.03441 -2.67931,1.05138 -4.04946,2.33125c-1.16741,1.09049 -1.1271,2.33817 -1.21611,3.52591c-0.09139,1.2195 -0.30484,2.36633 -0.99017,2.47668c-0.76503,0.12318 -2.49128,0.60975 -3.42974,0.0294c-0.55862,-0.34545 -0.94752,-2.98422 -3.71399,-4.16891c-2.28331,-0.97778 -7.07719,1.74655 -7.30114,1.20134c-0.29974,-0.72971 -0.15462,-4.55468 2.13162,-4.72114c0.2072,-0.01508 1.80569,-0.04338 3.28229,0.36474c2.00693,0.55469 4.00565,1.58857 3.99473,1.52075z" data-paper-data="{&quot;index&quot;:null}" fill="#344e5f"/><path d="M395.0332,172.98836c2.44543,12.91793 8.65552,22.02402 2.32222,23.22295c-0.85925,0.16266 -1.15507,-4.62633 -5.09488,-3.18138c-3.86738,1.41839 -11.38487,9.08971 -11.69702,7.30501c-0.067,-0.38306 -0.13171,-2.24729 -1.65453,-3.45099c-1.76981,-1.39893 -4.97082,-2.20595 -4.0072,-3.45957c0.62603,-0.81444 9.93901,0.08961 10.63822,-0.77351c3.51686,-4.34132 7.42524,-8.85725 6.35312,-9.1104c-4.22321,-0.99719 -15.09554,9.30254 -15.82931,4.27728c-0.04836,-0.33119 6.59006,-3.51664 5.56019,-5.47901c-0.72721,-1.38569 -9.60191,-1.53205 -8.35754,-2.39858c3.97047,-2.76489 16.94371,-2.54948 16.78844,-3.36973c-0.09487,-0.50118 -3.29402,-2.72135 -9.20892,-2.32586c-3.03563,0.20297 -3.48371,1.18342 -3.6938,0.14967c-0.22238,-1.09428 -5.72911,-6.71916 -1.44303,-9.50678c1.80482,-1.17383 2.73263,5.63667 4.67171,5.77049c2.82105,0.19469 6.32225,-5.88691 5.64811,-5.99263c-3.88999,-0.60997 -8.16027,-5.81034 -8.387,-6.74803c-0.69432,-2.87146 1.29895,-0.53402 3.92486,-1.88751c1.47884,-0.76226 1.33509,5.11263 2.4764,4.11309c1.08772,-0.9526 3.37104,-9.04487 5.02992,-10.02064c4.00784,-2.35743 8.07606,2.61124 9.67509,2.30854c6.33331,-1.19893 -6.16051,7.63967 -3.71506,20.55759z" data-paper-data="{&quot;index&quot;:null}" fill="#344e5f"/><path d="M349.68199,131.27885c0.76628,-0.7941 8.61085,-4.71849 11.88581,-2.27438c1.61055,1.20196 -1.83612,7.82972 -0.05987,9.54373c5.38815,5.19938 8.82943,10.37464 7.68631,11.55927c-1.14312,1.18463 -6.43777,-2.06996 -11.82593,-7.26934c-2.51847,-2.43023 -10.01124,-2.58285 -11.4097,-4.59751c-1.5935,-2.29562 3.11457,-6.33084 3.72339,-6.96176z" data-paper-data="{&quot;index&quot;:null}" fill="#344e5f"/><path d="M378.9659,128.51295c0.35363,-0.26385 1.09533,-1.72001 1.35708,-3.41922c0.31801,-2.06438 -0.51761,-4.19548 -0.4644,-4.72795c0.01308,-0.13085 3.6746,-3.10093 3.65323,-6.83547c-0.02094,-3.66133 -2.61258,-7.88425 -2.05102,-8.29759c0.83398,-0.61384 1.61378,3.33945 3.87144,3.74189c1.38314,0.24655 4.63588,-3.6729 4.93248,-2.46795c0.52871,2.1479 -4.84463,8.2238 -4.12804,9.51032c0.40653,0.72987 3.63238,-4.07375 4.50448,-3.11035c0.03869,0.04275 0.22533,2.8797 -0.44766,3.52482c-0.44686,0.42837 -1.34087,1.07832 -2.08787,1.61381c-0.72437,0.51925 -1.29307,0.92511 -2.28139,1.2804c-1.839,0.66111 -1.14972,4.31627 -1.49367,6.06353c-0.31765,1.61368 -1.56142,1.77274 -0.84248,3.42818c0.17124,0.39433 5.37157,-0.19233 6.10458,-1.77309c0.40546,-0.87435 -3.65493,-4.51425 -2.47588,-5.55268c0.94205,-0.82969 1.91044,0.87955 3.56026,-0.21225c1.77793,-1.17659 3.46325,-4.3821 4.83595,-5.27215c0.44842,-0.29074 2.12805,2.6163 1.34331,4.36124c-0.7768,1.72729 -3.03872,2.59395 -3.35803,4.37904c-0.16629,0.92963 -0.79672,2.23016 -0.55818,2.6321c0.81896,1.38001 6.82526,-2.46973 7.44041,-0.9876c0.90417,2.17851 4.18709,5.4216 2.35031,6.48107c-0.35191,0.20299 -4.85052,-3.04143 -8.40702,-2.97904c-3.55648,0.0624 -8.77407,2.81385 -8.36003,3.27319c0.20852,0.23132 0.79329,1.47257 1.54547,1.93122c1.39149,0.84849 2.58698,1.08349 4.06038,0.38687c1.30896,-0.61887 3.16221,-1.7826 3.7915,-1.54806c0.68119,0.25388 -0.10516,1.31053 -0.86154,2.01413c-0.65956,0.61355 -1.6273,1.45265 -1.52817,1.52206c0.91459,0.64034 2.40985,-0.78213 3.42316,-1.03319c1.34614,-0.33354 2.8116,-0.09476 3.29199,0.20965c1.09042,0.69099 0.79077,0.7243 1.2083,1.25895c0.67851,0.86881 -0.89234,0.69699 -1.25763,0.96955c-0.02035,0.01519 -2.26092,-0.24749 -3.2923,-0.0929c-1.37191,0.20562 -3.58441,1.3471 -4.99633,1.55123c-1.58349,0.22895 -2.32958,-0.5091 -3.09388,-0.89186c-1.95815,-0.98064 -2.69152,-2.33921 -4.88299,-3.10968c-1.86721,-0.65646 -3.21424,0.1035 -4.56963,0.68708c-1.39163,0.59917 -2.77348,1.02265 -3.28778,0.33334c-0.57412,-0.76947 -2.09869,-2.38607 -1.9997,-3.74955c0.05892,-0.81161 2.73363,-2.75237 2.44768,-6.46997c-0.236,-3.06832 -5.97767,-6.77002 -5.50741,-7.3287c0.6294,-0.74774 4.91307,-2.78251 6.40733,-0.36734c0.13541,0.21888 1.08343,1.95805 1.48228,3.8137c0.5421,2.52212 0.55326,5.31011 0.62147,5.25921z" data-paper-data="{&quot;index&quot;:null}" fill="#344e5f"/><path d="M323.1783,140.10293c2.75589,-7.5588 -1.8494,-1.29858 7.06293,-3.1135c7.28767,-1.48407 5.88043,-12.19623 16.67515,-7.47284c1.04291,0.45634 12.8708,6.77523 13.99637,7.04164c11.05392,2.61634 14.72236,-9.16577 20.01062,-9.16577c25.5316,0 15.21085,11.7605 15.21085,16.7021c0,4.94159 2.5662,7.15804 -22.96539,7.15804c-11.6244,0 -16.33204,-4.03848 -29.70866,-5.0054c-16.00353,-1.1568 -17.57515,1.13931 -17.57515,-1.55241z" data-paper-data="{&quot;index&quot;:null}" fill="#344e5f"/><path d="M372.39871,322.29576c-0.30488,0.18403 -1.01556,1.2952 -1.35991,2.63945c-0.41835,1.63314 0.08471,3.41092 -0.00006,3.83444c-0.02083,0.10407 -3.19637,2.20089 -3.47391,5.20241c-0.2721,2.94267 1.47644,6.53931 0.99274,6.82702c-0.71834,0.42727 -1.03277,-2.80981 -2.81451,-3.31124c-1.09156,-0.30719 -4.01368,2.58449 -4.15684,1.59319c-0.25519,-1.76705 4.54049,-6.22359 4.0664,-7.31355c-0.26896,-0.61835 -3.23922,2.98567 -3.86373,2.14298c-0.02771,-0.03739 0.04625,-2.33095 0.63774,-2.79604c0.39276,-0.30883 1.16217,-0.76037 1.80447,-1.13156c0.62283,-0.35993 1.11168,-0.64107 1.9336,-0.84847c1.52937,-0.38592 1.26414,-3.37636 1.6783,-4.75274c0.38249,-1.27113 1.39413,-1.30075 0.94726,-2.68725c-0.10645,-0.33026 -4.32999,-0.2694 -5.04353,0.94253c-0.39467,0.67034 2.57965,3.91456 1.55062,4.65565c-0.82218,0.59212 -1.46519,-0.85728 -2.87658,-0.11046c-1.521,0.80481 -3.12773,3.24669 -4.3006,3.85332c-0.38315,0.19817 -1.50292,-2.2695 -0.73487,-3.60923c0.76027,-1.32618 2.64559,-1.84383 3.04294,-3.25254c0.20693,-0.73361 0.81597,-1.72854 0.65607,-2.07023c-0.54896,-1.17312 -5.67739,1.44526 -6.05456,0.20617c-0.55438,-1.82128 -2.93552,-4.6854 -1.37649,-5.39149c0.29871,-0.13529 3.65626,2.82584 6.51799,3.05637c2.86174,0.23053 7.26996,-1.56788 6.97363,-1.96952c-0.14926,-0.20227 -0.52102,-1.24547 -1.08903,-1.67324c-1.05079,-0.79137 -1.99253,-1.07447 -3.23103,-0.63117c-1.10028,0.39382 -2.68076,1.18236 -3.16774,0.9443c-0.52715,-0.25769 0.18788,-1.04439 0.85098,-1.54989c0.57822,-0.44079 1.4218,-1.03845 1.34764,-1.10202c-0.68412,-0.58652 -1.99746,0.43809 -2.83123,0.5598c-1.10763,0.16169 -2.26595,-0.14575 -2.6278,-0.42818c-0.82138,-0.6411 -0.57805,-0.6442 -0.87125,-1.10662c-0.47645,-0.75143 0.7718,-0.48946 1.08673,-0.67957c0.01754,-0.01059 1.79658,0.37721 2.63725,0.33443c1.11822,-0.0569 2.98553,-0.79921 4.13579,-0.85177c1.29004,-0.05894 1.8311,0.59278 2.41483,0.96055c1.49552,0.94223 1.97741,2.0914 3.67694,2.88323c1.44805,0.67466 2.59004,0.1705 3.72483,-0.19131c1.16513,-0.37149 2.30854,-0.60259 2.66727,-0.00831c0.40045,0.66339 1.49751,2.08225 1.3104,3.16968c-0.11137,0.64729 -2.41302,1.99516 -2.47669,5.00395c-0.05255,2.4833 4.26742,5.90983 3.84559,6.32149c-0.56458,0.55097 -4.16607,1.84738 -5.17577,-0.21056c-0.0915,-0.18651 -0.71577,-1.65833 -0.88971,-3.18039c-0.23642,-2.06871 -0.02538,-4.30908 -0.08419,-4.27358z" data-paper-data="{&quot;index&quot;:null}" fill="#344e5f"/><path d="M364.09861,226.4955c0.01237,-1.10346 3.02481,-9.34137 7.08416,-9.81121c1.9963,-0.23105 4.03789,6.95495 6.50611,6.98262c7.48724,0.08395 13.54188,1.48644 13.52343,3.13257c-0.01845,1.64613 -6.10301,2.91254 -13.59025,2.8286c-3.49959,-0.03924 -9.05412,4.99188 -11.45389,4.48627c-2.73444,-0.57611 -2.07936,-6.74213 -2.06953,-7.61884z" data-paper-data="{&quot;index&quot;:null}" fill="#344e5f"/><path d="M380.26499,252.54565c0.35649,0.25999 1.96669,0.53882 3.66745,0.28733c2.06627,-0.30552 3.85576,-1.73296 4.38021,-1.83929c0.12888,-0.02613 4.04742,2.59554 7.60925,1.47277c3.49201,-1.10075 6.76177,-4.82343 7.32245,-4.4089c0.83266,0.61564 -2.7143,2.52762 -2.4324,4.80347c0.1727,1.39429 4.87765,3.34516 3.81394,3.98422c-1.89613,1.13918 -9.28739,-2.20127 -10.30507,-1.13686c-0.57735,0.60385 4.96443,2.26804 4.30138,3.38566c-0.02942,0.04958 -2.68487,1.0653 -3.4999,0.61273c-0.54118,-0.30051 -1.42607,-0.96283 -2.15819,-1.51848c-0.70993,-0.53882 -1.26557,-0.96238 -1.89676,-1.80179c-1.17448,-1.56191 -4.46332,0.17558 -6.23425,0.3627c-1.63554,0.17282 -2.15465,-0.96858 -3.52411,0.20698c-0.32621,0.28001 1.76933,5.07546 3.49602,5.3092c0.95507,0.1293 3.23425,-4.82459 4.57444,-4.00459c1.07079,0.65517 -0.27644,2.08494 1.2537,3.33897c1.64896,1.35141 5.20912,2.01544 6.4647,3.06425c0.41015,0.34262 -1.87157,2.8055 -3.7704,2.5708c-1.87962,-0.23233 -3.37533,-2.13765 -5.17513,-1.91581c-0.93729,0.11552 -2.36596,-0.10293 -2.67958,0.24362c-1.07678,1.18982 4.37435,5.79214 3.13984,6.81737c-1.81455,1.50693 -3.94409,5.60086 -5.49853,4.15865c-0.29782,-0.27631 1.47415,-5.53215 0.36474,-8.91177c-1.10942,-3.3796 -5.27838,-7.55253 -5.59504,-7.02136c-0.15946,0.26751 -1.17279,1.19261 -1.38898,2.04666c-0.39994,1.57994 -0.27159,2.79152 0.82891,3.99365c0.97767,1.06796 2.63659,2.49513 2.59825,3.16561c-0.0415,0.72578 -1.28318,0.28636 -2.1787,-0.22863c-0.78091,-0.44906 -1.86828,-1.126 -1.90533,-1.0108c-0.34185,1.06285 1.45861,2.07161 1.99759,2.96566c0.71603,1.18771 0.92046,2.65835 0.77142,3.20719c-0.33834,1.24579 -0.45861,0.96933 -0.84619,1.52607c-0.62981,0.90473 -0.92933,-0.64684 -1.29757,-0.9154c-0.02052,-0.01496 -0.43091,-2.23324 -0.88305,-3.17303c-0.60141,-1.2501 -2.34511,-3.02706 -2.95691,-4.31582c-0.68616,-1.44535 -0.20123,-2.37606 -0.06113,-3.21928c0.35893,-2.16037 1.44049,-3.26208 1.52976,-5.58333c0.07604,-1.97779 -1.04766,-3.04047 -2.00532,-4.16321c-0.98325,-1.15277 -1.79576,-2.34803 -1.28897,-3.04289c0.56573,-0.77567 1.66027,-2.70948 2.99222,-3.01738c0.79283,-0.18327 3.43663,1.79939 6.90418,0.42883c2.86194,-1.13119 4.70389,-7.70969 5.37649,-7.42529c0.90021,0.38064 4.10876,3.87281 2.24228,6.0134c-0.16916,0.194 -1.55099,1.61313 -3.20623,2.54196c-2.24973,1.26242 -4.9102,2.09603 -4.84143,2.14618z" data-paper-data="{&quot;index&quot;:null}" fill="#344e5f"/><path d="M362.34135,300.82657c-0.63831,-0.90019 -3.04078,-9.3362 -0.03203,-12.10142c1.47964,-1.35987 7.35375,3.25548 9.36728,1.82769c6.10795,-4.33113 11.83136,-6.7536 12.7836,-5.41072c0.95224,1.34288 -3.22728,5.94258 -9.33523,10.27372c-2.8549,2.0244 -4.3936,9.35907 -6.63255,10.3599c-2.55119,1.14043 -5.64389,-4.23398 -6.15104,-4.94918z" data-paper-data="{&quot;index&quot;:null}" fill="#344e5f"/><path d="M-110.89528,435.59936v-522.53727h694.92685v522.53727z" fill="none"/></g></g></svg>