<svg version="1.1" xmlns="http://www.w3.org/2000/svg" xmlns:xlink="http://www.w3.org/1999/xlink" width="51.81665" height="51.81832" viewBox="0,0,51.81665,51.81832"><g transform="translate(-213.96661,-154.09)"><g data-paper-data="{&quot;isPaintingLayer&quot;:true}" fill-rule="nonzero" stroke-linecap="butt" stroke-linejoin="miter" stroke-miterlimit="10" stroke-dasharray="" stroke-dashoffset="0" style="mix-blend-mode: normal"><path d="M214.96663,198.72527c0,-11.25908 0,-34.36061 0,-38.83371c0,-1.96596 2.20029,-4.88183 5.04715,-4.79986c6.01019,0.17305 28.98107,0 38.72378,0c3.13463,0 5.92554,1.84509 6.0457,4.68375c0.21175,5.00233 0,27.097 0,38.60767c0,3.94876 -2.69927,6.52521 -6.79115,6.52521c-11.1123,0 -32.49513,0 -37.97835,0c-2.51898,0 -5.04715,-2.43555 -5.04715,-6.18307z" fill="#0a0d10" stroke="#ecc038" stroke-width="2"/><path d="M252.07345,167.67438c0.24788,0.3966 4.41557,-2.45309 4.12141,-1.10419c-0.22756,1.04354 -1.76792,1.4548 -2.82034,3.13155c-0.55356,0.88194 -0.75554,4.53414 -1.39345,5.5258c-3.3876,5.26628 -4.69571,9.13957 -8.62583,11.59595c-5.89515,3.68454 -13.88059,6.9965 -16.02016,6.8379c-0.40743,-0.0302 -3.76782,0.45322 -3.53307,-0.25172c0.18363,-0.55145 1.4504,-1.42193 1.33071,-1.61343c-0.29399,-0.47038 2.1848,-1.26552 2.50549,-2.0409c0.85321,-2.06288 3.74743,-8.28377 9.48628,-11.87061c2.91706,-1.82319 6.33026,-3.17129 8.79628,-4.25773c1.98924,-0.87639 0.572,-3.51615 1.21169,-5.01645c0.71383,-1.67416 4.58313,-1.50876 4.941,-0.93617z" data-paper-data="{&quot;index&quot;:null}" fill="#ecc038" stroke="none" stroke-width="0"/><path d="M241.15078,173.43088c4.29975,1.78795 3.47933,4.9211 3.1525,5.70708c-0.32683,0.78599 1.63656,3.15591 -2.6632,1.36797c-0.71088,-0.2956 -6.19499,-0.8769 -8.26389,-2.74167c-2.05657,-1.85365 -0.69846,-4.9908 -1.24408,-5.28843c-2.22546,-1.21399 -5.49397,-6.38888 -5.2749,-6.91573c0.15837,-0.38085 2.90153,0.10709 5.77264,1.87189c3.05415,1.87731 6.30464,5.07731 8.52093,5.9989z" data-paper-data="{&quot;index&quot;:null}" fill="#ecc038" stroke="none" stroke-width="0"/></g></g></svg>