<svg version="1.1" xmlns="http://www.w3.org/2000/svg" xmlns:xlink="http://www.w3.org/1999/xlink" width="51.81665" height="51.81832" viewBox="0,0,51.81665,51.81832"><defs><linearGradient x1="239.99999" y1="155.09084" x2="239.99999" y2="204.90916" gradientUnits="userSpaceOnUse" id="color-1"><stop offset="0" stop-color="#ff9e16"/><stop offset="1" stop-color="#ba521a"/></linearGradient></defs><g transform="translate(-214.04461,-154.09084)"><g data-paper-data="{&quot;isPaintingLayer&quot;:true}" fill-rule="nonzero" stroke-linecap="butt" stroke-linejoin="miter" stroke-miterlimit="10" stroke-dasharray="" stroke-dashoffset="0" style="mix-blend-mode: normal"><path d="M215.04463,198.7261c0,-11.25908 0,-34.36061 0,-38.83371c0,-1.96596 2.20029,-4.88183 5.04715,-4.79986c6.01019,0.17305 28.98107,0 38.72378,0c3.13463,0 5.92554,1.84509 6.0457,4.68375c0.21175,5.00233 0,27.097 0,38.60767c0,3.94876 -2.69927,6.52521 -6.79115,6.52521c-11.1123,0 -32.49513,0 -37.97835,0c-2.51898,0 -5.04715,-2.43555 -5.04715,-6.18307z" fill="#0a0d10" stroke="url(#color-1)" stroke-width="2"/><g stroke="none" stroke-width="1"><g fill="#d68512"><path d="M234.78442,186.38558c-0.39126,-1.47644 0.48844,-2.9905 1.96488,-3.38177c1.47644,-0.39126 2.9905,0.48844 3.38177,1.96488c0.39126,1.47644 -0.48844,2.9905 -1.96488,3.38177c-1.47644,0.39126 -2.9905,-0.48844 -3.38177,-1.96488z"/></g><g fill="#d68512"><path d="M232.58155,178.073c-0.39126,-1.47644 0.48844,-2.9905 1.96488,-3.38177c1.47644,-0.39126 2.9905,0.48844 3.38177,1.96488c0.39126,1.47644 -0.48844,2.9905 -1.96488,3.38177c-1.47644,0.39126 -2.9905,-0.48844 -3.38177,-1.96488z"/></g><g><path d="M233.63633,179.59522l1.31055,4.94541c-0.6665,-0.38725 -1.48082,-0.52026 -2.28488,-0.30718c-1.27038,0.33666 -2.13446,1.4366 -2.23153,2.67658l-0.16397,0.04345c-1.97067,0.52224 -3.99163,-0.65199 -4.51386,-2.62266c-0.52225,-1.97074 0.65199,-3.99163 2.62266,-4.51386l0.16397,-0.04345c0.69839,1.02917 1.99376,1.55693 3.26421,1.22026c0.80407,-0.21308 1.44565,-0.73191 1.83285,-1.39855z" fill="#d68512"/><path d="M233.63633,179.59522l1.31055,4.94541c-0.6665,-0.38725 -1.48082,-0.52026 -2.28488,-0.30718c-0.70165,0.18594 -1.27908,0.60509 -1.67207,1.15177c0.1573,-0.77827 0.14378,-1.60346 -0.07336,-2.42286c-0.21714,-0.8194 -0.61397,-1.54294 -1.13604,-2.14117c0.61208,0.28033 1.3213,0.35852 2.02295,0.17258c0.80407,-0.21308 1.44565,-0.73191 1.83285,-1.39855z" fill="#853b13"/></g><g fill="#d68512"><path d="M242.1456,178.5406l-1.48668,-5.61002c-0.13277,-0.501 0.1656,-1.01463 0.6666,-1.1474c3.59922,-0.95381 7.2902,1.19074 8.24403,4.79004z"/></g><g fill="#d68512"><path d="M250.15172,178.77006c0.95382,3.59928 -1.19074,7.2902 -4.78996,8.24401c-0.501,0.13277 -1.01457,-0.16569 -1.14734,-0.6667l-1.48668,-5.61002l7.42397,-1.96731z"/></g><path d="M254.16249,176.80218c0.87927,3.3174 -1.09742,6.7194 -4.41471,7.5985l-10.92012,2.89387c-3.31736,0.87911 -6.71935,-1.09751 -7.59848,-4.41495c-0.87911,-3.31736 1.09768,-6.71932 4.4149,-7.5984l10.92012,-2.89387c3.31729,-0.8791 6.71933,1.09744 7.5983,4.41485z" fill="#ff9e16"/><path d="M233.83432,186.4875c-1.23958,-0.81044 -2.19591,-2.06363 -2.60513,-3.60783c-0.40926,-1.54435 -0.19845,-3.12002 0.47712,-4.43791z" fill="#e8e8e8"/><path d="M240.99554,186.72005l-3.18358,-12.01335l4.54519,-1.20449l2.48512,12.19844z" fill="#e8e8e8"/><path d="M248.58473,176.61907c-0.09744,-0.36769 0.12165,-0.74474 0.48932,-0.84217c0.36769,-0.09744 0.74474,0.12165 0.84217,0.48932c0.09744,0.36769 -0.12165,0.74474 -0.48932,0.84217c-0.36769,0.09744 -0.74474,-0.12165 -0.84217,-0.48932z" fill="#853b13"/><g><path d="M243.87156,179.0031l-2.11051,3.6325c-2.00611,-1.16565 -2.68749,-3.73686 -1.5219,-5.74295z" fill="#853b13"/><path d="M243.87163,179.00309l-1.74443,3.00245c-0.76846,-0.44643 -1.3665,-1.18606 -1.61213,-2.11295c-0.24563,-0.92689 -0.09234,-1.86555 0.35411,-2.63394z" fill="#d68512"/></g></g></g></g></svg>