<svg version="1.1" xmlns="http://www.w3.org/2000/svg" xmlns:xlink="http://www.w3.org/1999/xlink" width="441.63706" height="144.26273" viewBox="0,0,441.63706,144.26273"><defs><linearGradient x1="336.54145" y1="199.00794" x2="336.54145" y2="314.6176" gradientUnits="userSpaceOnUse" id="color-1"><stop offset="0" stop-color="#10181e" stop-opacity="0"/><stop offset="1" stop-color="#10181e"/></linearGradient></defs><g transform="translate(-164.57389,-199.00789)"><g data-paper-data="{&quot;isPaintingLayer&quot;:true}" fill-rule="nonzero" stroke="none" stroke-width="0" stroke-linecap="butt" stroke-linejoin="miter" stroke-miterlimit="10" stroke-dasharray="" stroke-dashoffset="0" style="mix-blend-mode: normal"><path d="M403.40862,330.31264c8.92191,-2.13958 -34.42295,8.19758 -61.98275,4.37014c-18.58312,-2.58078 -30.42544,-4.54537 -39.23824,-4.54537c-6.84822,0 -21.67929,-1.24607 -32.23214,-4.92198c-14.89644,-5.18893 -84.2057,13.45324 -99.49621,10.32104c-15.16485,-3.10646 4.55351,-20.83915 -2.04974,-22.39218c-5.94142,-1.39738 4.48199,-14.64894 7.89185,-22.13944c2.88625,-6.34026 16.79966,-13.98082 23.91232,-17.5747c0.94021,-0.47508 5.19869,-6.48959 5.8789,-7.17482c3.51009,-3.53601 0.74023,-3.77679 5.39255,-4.47191c0.34069,-0.0509 18.83565,-5.15172 32.83207,-17.16042c15.23187,-13.06869 26.06711,-33.13468 26.43331,-33.19096c16.10559,-2.47529 35.12089,1.04836 51.92208,-0.32371c2.21515,-0.1809 30.74585,7.84295 32.89635,7.60438c11.66913,-1.29456 18.38198,-16.16367 30.75185,-15.80977c11.44774,0.32752 26.19833,-3.89505 29.91872,-3.89505c1.91597,0 15.64334,16.53711 32.34737,24.87985c15.64573,7.81417 30.13144,10.64614 35.55334,16.50801c20.02965,21.65504 65.41418,14.62769 91.87834,19.83377c15.37206,3.02402 24.38516,8.13382 24.82032,25.26255c0.26086,10.26774 10.28512,20.66804 2.2734,23.54024c-9.3907,3.36656 6.85115,15.74896 -17.35017,19.22519c-21.18671,3.04322 -58.75413,1.51718 -84.92614,0.27034c-6.60852,-0.31483 -9.41393,5.10174 -14.12218,4.90056c-3.21321,-0.1373 -16.86745,-1.54847 -18.84518,-1.57167c-2.5105,-0.02944 -18.85439,-0.82599 -18.85439,-0.58085z" data-paper-data="{&quot;index&quot;:null}" fill="url(#color-1)"/><path d="M212.49353,338.05112c-8.30952,-1.43954 -16.05807,-2.12494 -16.05807,-8.35739c0,-7.34288 8.54729,-13.29545 19.09091,-13.29545c10.54362,0 68.03818,-1.21043 68.03818,6.13244c0,4.48268 -31.35553,5.40253 -36.23598,7.81092c-3.114,1.53669 -27.69525,12.64755 -31.8022,12.64755c-1.59446,0 -1.55235,-4.68158 -3.03284,-4.93806z" data-paper-data="{&quot;index&quot;:null}" fill="#10181e"/><path d="" data-paper-data="{&quot;index&quot;:null}" fill="#344e5f"/><path d="" data-paper-data="{&quot;index&quot;:null}" fill="#344e5f"/><path d="" data-paper-data="{&quot;index&quot;:null}" fill="#344e5f"/><path d="" data-paper-data="{&quot;index&quot;:null}" fill="#344e5f"/><path d="M348.33869,331.49857c0,1.30893 -4.75115,9.47904 -9.87845,11.59041c-3.43017,1.41251 -9.86245,-5.87681 -12.97596,-5.87681c-7.76747,0 -15.38278,-4.40802 -15.38278,-6.59262c0,-2.1846 17.72399,1.31852 25.49146,1.31852c7.76747,0 12.74573,-2.62411 12.74573,-0.43951z" fill="#10181e"/><path d="M259.28684,325.15052c0.60812,0.50659 -3.27225,2.26266 -5.67085,4.47857c-1.60467,1.48245 -1.2292,3.46959 -3.28139,4.31897c-5.11974,2.119 -11.84011,-3.00011 -12.85506,-3.84562c-1.01495,-0.84551 5.57972,-0.52706 10.69946,-2.64606c5.11974,-2.119 10.0929,-3.15136 11.10785,-2.30585z" fill="#10181e"/></g></g></svg>