<svg version="1.1" xmlns="http://www.w3.org/2000/svg" xmlns:xlink="http://www.w3.org/1999/xlink" width="47.36356" height="13.99997" viewBox="0,0,47.36356,13.99997"><g transform="translate(-196.94925,-172.7688)"><g data-paper-data="{&quot;isPaintingLayer&quot;:true}" fill="#f0f0f0" fill-rule="nonzero" stroke="none" stroke-linejoin="miter" stroke-miterlimit="10" stroke-dasharray="" stroke-dashoffset="0" style="mix-blend-mode: normal"><path d="M228.01473,183.03033v-6.0606h16.29808v6.0606z" stroke-width="0" stroke-linecap="butt"/><path d="M220.45948,182.95626c0,0.57292 -0.08333,1.09375 -0.25,1.5625c-0.16667,0.46875 -0.45833,0.86979 -0.875,1.20313c-0.41667,0.33333 -1,0.58854 -1.75,0.76563c-0.73958,0.1875 -1.67708,0.28125 -2.8125,0.28125c-1.14583,0 -2.09375,-0.09375 -2.84375,-0.28125c-0.75,-0.17708 -1.33333,-0.43229 -1.75,-0.76562c-0.41667,-0.33333 -0.70833,-0.73437 -0.875,-1.20312c-0.16667,-0.46875 -0.25,-0.98958 -0.25,-1.5625v-6.35937c0,-0.57292 0.08333,-1.08854 0.25,-1.54687c0.16667,-0.46875 0.45833,-0.86979 0.875,-1.20312c0.41667,-0.34375 1,-0.60937 1.75,-0.79687c0.75,-0.1875 1.69792,-0.28125 2.84375,-0.28125c1.13542,0 2.07292,0.09375 2.8125,0.28125c0.75,0.1875 1.33333,0.45313 1.75,0.79688c0.41667,0.33333 0.70833,0.73438 0.875,1.20313c0.16667,0.45833 0.25,0.97396 0.25,1.54688zM213.27198,182.28439c0,0.25 0.08854,0.45833 0.26563,0.625c0.1875,0.16667 0.59896,0.25 1.23438,0.25c0.64583,0 1.05208,-0.08333 1.21875,-0.25c0.17708,-0.16667 0.26563,-0.375 0.26563,-0.625v-5.01562c0,-0.25 -0.08854,-0.45312 -0.26562,-0.60937c-0.16667,-0.16667 -0.57292,-0.25 -1.21875,-0.25c-0.63542,0 -1.04687,0.08333 -1.23437,0.25c-0.17708,0.15625 -0.26562,0.35938 -0.26562,0.60938z" stroke-width="1" stroke-linecap="square"/><path d="M197.60545,182.95621h4.6875c0.30208,0 0.49479,-0.05208 0.57813,-0.15625c0.09375,-0.11458 0.14063,-0.24479 0.14063,-0.39062v-0.51562c0,-0.14583 -0.04687,-0.27083 -0.14062,-0.375c-0.08333,-0.10417 -0.27604,-0.15625 -0.57812,-0.15625h-3.17187c-0.44792,0 -0.67187,-0.22396 -0.67187,-0.67187v-2c0,-0.44792 0.22396,-0.67187 0.67188,-0.67187h1.96875c0.29167,0 0.47917,-0.05729 0.5625,-0.17187c0.09375,-0.11458 0.14063,-0.24479 0.14063,-0.39062v-0.28125c0,-0.14583 -0.04687,-0.27604 -0.14062,-0.39062c-0.08333,-0.11458 -0.27083,-0.17187 -0.5625,-0.17187h-3.48437c-0.4375,0 -0.65625,-0.22396 -0.65625,-0.67187v-2.21875c0,-0.44792 0.21875,-0.67187 0.65625,-0.67187h5.21875c1.03125,0 1.79688,0.23958 2.29688,0.71875c0.5,0.47917 0.75,1.13021 0.75,1.95313v1.07813c0,0.47917 -0.08333,0.89583 -0.25,1.25c-0.15625,0.34375 -0.4375,0.59896 -0.84375,0.76563c0.88542,0.10417 1.49479,0.38021 1.82813,0.82813c0.34375,0.4375 0.51563,1.0625 0.51563,1.875v1.875c0,0.95833 -0.30729,1.71354 -0.92187,2.26563c-0.60417,0.55208 -1.5,0.82813 -2.6875,0.82813h-5.90625c-0.4375,0 -0.65625,-0.22396 -0.65625,-0.67187v-2.1875c0,-0.44792 0.21875,-0.67187 0.65625,-0.67187z" stroke-width="1" stroke-linecap="square"/></g></g></svg>