<svg version="1.1" xmlns="http://www.w3.org/2000/svg" xmlns:xlink="http://www.w3.org/1999/xlink" width="791.78428" height="538.25597" viewBox="0,0,791.78428,538.25597"><defs><linearGradient x1="463.9484" y1="192.53266" x2="463.9484" y2="42.38682" gradientUnits="userSpaceOnUse" id="color-1"><stop offset="0" stop-color="#000000"/><stop offset="1" stop-color="#070b0d"/></linearGradient><linearGradient x1="6.13919" y1="194.58441" x2="6.13919" y2="44.43858" gradientUnits="userSpaceOnUse" id="color-2"><stop offset="0" stop-color="#000000"/><stop offset="1" stop-color="#070b0d"/></linearGradient></defs><g transform="translate(116.00375,86.26441)"><g data-paper-data="{&quot;isPaintingLayer&quot;:true}" fill-rule="nonzero" stroke="none" stroke-linecap="butt" stroke-linejoin="miter" stroke-miterlimit="10" stroke-dasharray="" stroke-dashoffset="0" style="mix-blend-mode: normal"><path d="M-104.40519,373.87757l-3.0012,-213.08523l228.09124,2.40096c0,0 6.42185,4.99713 6.0495,25.23147c-0.24855,13.5065 -3.21127,44.49345 4.4847,60.17718c3.86458,7.87569 19.84341,-1.12509 21.22752,8.06864c3.15231,20.93877 -13.85601,49.74729 -1.25138,63.50847c1.95504,2.13442 3.67329,-3.44923 8.03647,-3.16697c1.97263,0.12761 3.04298,2.89575 5.61641,4.22307c3.12089,1.60969 7.77334,1.77939 10.21641,1.26082c3.59524,-0.76314 3.94476,-4.48155 7.81932,-4.22734c1.9549,0.12826 4.77314,6.1089 6.69862,6.4406c3.62423,0.62435 4.32139,13.56752 8.00839,13.54045c8.70953,-0.06395 17.30933,-2.49003 25.19011,-4.69661c8.02909,-2.2481 18.31306,-27.07747 24.20517,-26.13972c2.29805,0.36574 1.72427,5.15755 4.95159,7.19294c2.16845,1.3676 8.4269,-0.40837 9.51842,1.51822c1.9133,3.37706 -4.37184,-14.62482 -2.97773,-19.09809c1.08817,-3.49163 0.49097,-8.7879 2.64136,-5.82962c2.14787,2.95481 5.8753,18.36513 6.00978,17.88337c1.58566,-5.68051 9.45275,-6.49174 11.37755,-5.64297c0.94786,0.41797 5.28904,-2.09764 6.32218,-5.8689c0.4762,-1.73825 -3.84039,-4.87938 -2.20229,-6.09138c1.6587,-1.22725 -5.2561,-21.40471 -3.42997,-22.46978c1.44624,-0.8435 3.47973,7.78271 7.46177,12.35587c2.96749,3.408 8.04343,3.15395 9.26444,2.61563c2.05999,-0.90822 5.1044,3.61702 7.27931,2.9693c1.95865,-0.58331 3.04856,-6.39796 4.91112,-6.21937c6.32931,0.60686 11.49933,13.19261 17.13837,26.60138c0.58904,1.40064 4.78658,6.2116 8.90337,5.1435c6.22007,-1.61378 15.85935,3.99458 16.80584,6.05784c2.72064,5.93074 -15.52026,10.74654 -12.27874,14.77007c3.08189,3.82538 6.46791,6.318 10.28872,6.5827c3.09313,0.21429 9.12619,-7.6565 12.80281,-9.72943c2.40429,-1.35558 4.24433,3.54537 6.30996,3.92571c1.94615,0.35835 4.09255,-3.83247 7.09975,-4.04907c13.62212,-0.98116 30.81082,6.34051 44.76494,1.94538c4.99825,-1.5743 9.17809,-1.07187 12.96704,0.80572c2.47642,1.22717 6.15011,-10.7762 8.41193,-9.3974c3.22397,1.96533 4.98694,17.04419 8.36309,16.00421c2.51776,-0.77557 5.51472,-4.70549 8.51469,-9.01313c4.23085,-6.07505 8.46771,-12.90134 11.37491,-12.69043c3.13343,0.22732 6.21506,7.27471 16.99618,7.59229c3.01439,0.0888 14.03079,1.26235 17.32666,1.36747c14.5976,0.4656 26.53865,7.43033 39.29553,8.43197c10.84989,0.85191 33.07964,-0.4083 34.55793,1.06699c11.80456,11.78066 22.74962,30.3995 22.80214,32.2796c0.30088,10.77136 -53.17156,55.48717 -53.17156,55.48717l-645.18973,5.78875z" fill="#000000" stroke-width="0"/><path d="M530.04254,-26.83638c0,2.86192 0.59356,115.69001 3.30568,128.19384c0.84038,3.87446 4.7122,78.71653 -5.07513,78.71653c-1.64962,0 -5.18766,15.19264 -11.02607,29.1965c-2.52956,6.06734 2.82029,18.00643 -6.11213,18.25764c-0.51165,0.01439 -0.93003,-10.96164 -4.26968,-12.51158c-2.80423,-1.30145 -8.47288,7.06087 -10.10289,4.59507c-1.5011,-2.27078 0.9301,-7.59886 0.21855,-10.13415c-1.65678,-5.90322 -5.27179,-8.72948 -7.22711,-8.97411c-5.81383,-0.72737 -16.74282,0.22319 -22.55773,-3.97051c-12.53411,-9.03957 -23.30763,-14.05425 -30.81009,-13.51587c-26.45539,1.89847 -40.80524,-19.36897 -50.31317,-19.29607c-3.90729,0.02996 -23.00686,8.75729 -25.96525,4.4625c-6.25331,-9.07814 -11.83079,-6.32274 -16.2834,-6.29595c-2.68485,0.01616 3.33353,-28.79957 -1.90477,-37.02342c-8.15416,-12.80158 -9.56049,-30.57787 -7.13065,-34.19441c1.75045,-2.60535 2.31035,-7.81634 2.05545,-14.58086c-0.04883,-1.29584 -2.00274,-2.95573 -1.21211,-4.68581c1.42261,-3.11298 5.50767,-6.45318 1.37501,-8.30867c-2.19815,-0.98692 -8.30926,-1.4845 -9.49064,-3.00484c-1.20117,-1.54582 0.93664,-3.42106 1.65556,-5.51503c0.51901,-1.5117 -0.36733,-3.21516 -0.62155,-4.62175c-0.34956,-1.93409 4.14966,-5.02213 3.76719,-6.98009c-0.29498,-1.51007 -0.59861,-3.02406 -0.90914,-4.53706c-0.5757,-2.80499 -4.65167,-5.93136 -5.26366,-8.69833c-0.54542,-2.46602 0.32699,-6.68725 -0.16379,-9.06989c-2.86495,-13.90896 -0.8922,-33.84488 8.34664,-41.8904c4.30428,-3.74833 13.12358,3.89786 18.43988,-0.04036c3.21151,-2.37903 11.17397,-6.21402 14.67013,-11.26441c6.08676,-8.79266 2.53393,-27.80676 10.8428,-27.11066c9.6106,0.80515 23.01223,26.65529 31.06034,26.71155z" data-paper-data="{&quot;index&quot;:null}" fill="url(#color-1)" stroke-width="0"/><path d="" data-paper-data="{&quot;index&quot;:null}" fill="#344e5f" stroke-width="0"/><path d="" data-paper-data="{&quot;index&quot;:null}" fill="#344e5f" stroke-width="0"/><path d="" data-paper-data="{&quot;index&quot;:null}" fill="#344e5f" stroke-width="0"/><path d="" data-paper-data="{&quot;index&quot;:null}" fill="#344e5f" stroke-width="0"/><path d="" data-paper-data="{&quot;index&quot;:null}" fill="#344e5f" stroke-width="0"/><path d="" data-paper-data="{&quot;index&quot;:null}" fill="#344e5f" stroke-width="0"/><path d="" data-paper-data="{&quot;index&quot;:null}" fill="#344e5f" stroke-width="0"/><path d="" data-paper-data="{&quot;index&quot;:null}" fill="#344e5f" stroke-width="0"/><path d="" data-paper-data="{&quot;index&quot;:null}" fill="#344e5f" stroke-width="0"/><path d="" data-paper-data="{&quot;index&quot;:null}" fill="#344e5f" stroke-width="0"/><path d="" data-paper-data="{&quot;index&quot;:null}" fill="#344e5f" stroke-width="0"/><path d="" data-paper-data="{&quot;index&quot;:null}" fill="#344e5f" stroke-width="0"/><path d="" data-paper-data="{&quot;index&quot;:null}" fill="#344e5f" stroke-width="0"/><path d="" data-paper-data="{&quot;index&quot;:null}" fill="#344e5f" stroke-width="0"/><path d="" data-paper-data="{&quot;index&quot;:null}" fill="#344e5f" stroke-width="0"/><path d="" data-paper-data="{&quot;index&quot;:null}" fill="#344e5f" stroke-width="0"/><path d="" data-paper-data="{&quot;index&quot;:null}" fill="#344e5f" stroke-width="0"/><path d="" data-paper-data="{&quot;index&quot;:null}" fill="#344e5f" stroke-width="0"/><path d="" data-paper-data="{&quot;index&quot;:null}" fill="#344e5f" stroke-width="0"/><path d="" data-paper-data="{&quot;index&quot;:null}" fill="#344e5f" stroke-width="0"/><path d="" data-paper-data="{&quot;index&quot;:null}" fill="#344e5f" stroke-width="0"/><path d="M82.6178,-46.66321c0,-0.32914 16.77798,-18.35469 33.33054,-6.57275c11.26463,8.01805 15.7267,19.60958 19.08493,23.71651c9.01488,11.02468 11.28877,41.48275 9.07331,52.23851c-0.49078,2.38264 0.38163,6.60387 -0.16379,9.06989c-0.61199,2.76696 -4.68796,5.89334 -5.26366,8.69833c-0.31053,1.513 -0.61416,3.02699 -0.90914,4.53706c-0.38247,1.95796 4.11675,5.046 3.76719,6.98009c-0.25422,1.40659 -1.14056,3.11005 -0.62155,4.62175c0.71892,2.09397 2.85673,3.96922 1.65556,5.51503c-1.18138,1.52034 -7.29249,2.01791 -9.49064,3.00484c-4.13266,1.85548 -0.0476,5.19569 1.37501,8.30867c0.79063,1.73008 -1.16328,3.38997 -1.21211,4.68581c-0.2549,6.76452 0.305,11.97551 2.05545,14.58086c2.42984,3.61655 1.02351,21.39284 -7.13065,34.19441c-5.2383,8.22385 0.78008,37.03957 -1.90477,37.02342c-4.45261,-0.02679 3.77543,16.42549 -2.47788,25.50363c-2.95839,4.29479 -19.05676,5.1713 -22.96405,5.14134c-9.50793,-0.07289 -49.04084,7.22524 -75.49623,5.32677c-51.40033,-3.68854 -99.23154,-17.78523 -102.46815,-17.78523c-3.46167,0 -38.89822,-154.32416 -12.928,-191.31975c47.45645,-67.60357 172.68863,-37.46919 172.68863,-37.46919z" data-paper-data="{&quot;index&quot;:null}" fill="url(#color-2)" stroke-width="0"/><path d="M317.9518,113.71347c-0.43998,-1.01202 -1.05999,-9.76152 2.45223,-11.85039c1.72723,-1.02726 6.52909,4.6954 8.79279,3.71124c6.86681,-2.9854 12.96555,-4.18168 13.62192,-2.67196c0.65637,1.50972 -4.37819,5.15375 -11.245,8.13915c-3.2096,1.39541 -6.22085,8.25815 -8.61754,8.77818c-2.73093,0.59256 -4.65481,-5.30215 -5.00438,-6.10622z" data-paper-data="{&quot;index&quot;:null}" fill="#040607" stroke-width="0"/><path d="M155.69954,48.94421c0.12682,0.8795 -1.24972,7.80705 -4.42132,8.68363c-1.55972,0.43108 -4.07411,-5.03355 -6.04136,-4.74987c-5.96756,0.86053 -10.9586,0.49453 -11.1478,-0.81748c-0.1892,-1.31201 4.49509,-3.07322 10.46266,-3.93376c2.78929,-0.40222 6.58559,-5.09315 8.55757,-4.98808c2.247,0.11971 2.48947,5.1068 2.59023,5.80557z" data-paper-data="{&quot;index&quot;:null}" fill="#070b0d" stroke-width="0"/><path d="M-35.93118,451.99156v-496.997h711.71171v496.997z" fill="none" stroke-width="0"/><path d="M146.01403,250.83606c0,2.48183 5.4786,5.23044 -3.75707,5.23044c-9.23567,0 -1.98904,-2.45393 -1.98904,-4.93576c0,-2.48183 -6.36262,-13.18659 2.87306,-13.18659c9.23567,0 2.87306,10.41009 2.87306,12.89192z" fill="#000000" stroke-width="0"/><path d="M176.83495,320.08014c0,2.48183 3.38813,5.23044 -2.32349,5.23044c-5.71162,0 -1.23008,-2.45393 -1.23008,-4.93576c0,-2.48183 -3.93483,-13.1866 1.77679,-13.1866c5.71162,0 1.77678,10.41009 1.77678,12.89192z" fill="#000000" stroke-width="0"/><path d="M190.50972,320.68411c0.68525,-2.38536 -1.81227,-5.96259 3.67732,-4.38559c5.48959,1.57701 0.50472,2.69817 -0.18053,5.08353c-0.68525,2.38536 0.14099,13.76043 -5.34861,12.18342c-5.48959,-1.57701 1.16656,-10.496 1.85181,-12.88136z" fill="#000000" stroke-width="0"/><path d="M152.34731,297.80624c1.44833,-5.04166 -3.83039,-12.60246 7.77234,-9.26931c11.60273,3.33315 1.06677,5.70281 -0.38157,10.74448c-1.44833,5.04166 0.29799,29.08385 -11.30474,25.75071c-11.60273,-3.33315 2.46563,-22.18421 3.91396,-27.22587z" fill="#000000" stroke-width="0"/><path d="M303.3977,265.20381c0.68525,-5.04167 -1.81227,-12.60246 3.67732,-9.26931c5.48959,3.33315 0.50472,5.70281 -0.18053,10.74448c-0.68525,5.04167 0.14099,29.08385 -5.3486,25.75071c-5.48959,-3.33315 1.16656,-22.18421 1.85181,-27.22587z" fill="#000000" stroke-width="0"/><path d="" fill="#000000" stroke-width="0.5"/><path d="M-116.00375,448.44478v-534.70919h700.75047v534.70919z" fill="none" stroke-width="0"/><path d="M354.85577,-37.60391c0.88312,0.09849 7.24165,3.17337 7.29224,6.46349c0.02488,1.618 -5.89653,2.67693 -6.11682,4.65229c-0.66826,5.99214 -2.27797,10.73063 -3.59539,10.58371c-1.31742,-0.14692 -1.84368,-5.12361 -1.17542,-11.11576c0.31235,-2.80078 -3.2728,-7.655 -2.67506,-9.53714c0.68109,-2.14464 5.56881,-1.12482 6.27046,-1.04657z" data-paper-data="{&quot;index&quot;:null}" fill="#070b0d" stroke-width="0"/><path d="M336.51782,-44.33838c1.148,-0.5766 11.27811,-1.8608 13.93233,2.08711c1.30528,1.94149 -5.03719,7.89156 -3.74745,10.45939c3.91238,7.78939 5.69569,14.80125 3.98314,15.66142c-1.71255,0.86017 -6.27248,-4.75707 -10.18487,-12.54647c-1.82868,-3.64083 -9.9996,-6.69895 -10.75841,-9.45126c-0.86466,-3.13615 5.86319,-5.75206 6.77529,-6.21017z" data-paper-data="{&quot;index&quot;:null}" fill="#070b0d" stroke-width="0"/><path d="M224.7151,303.70297c1.02849,-0.39997 9.79557,-0.6765 11.74515,2.9149c0.95876,1.76617 -4.94774,6.34 -4.05308,8.64054c2.71391,6.97857 3.67019,13.11951 2.1359,13.7162c-1.53429,0.59668 -4.97815,-4.57686 -7.69207,-11.55543c-1.26851,-3.26184 -8.00793,-6.5398 -8.43361,-8.95504c-0.48505,-2.75206 5.48055,-4.44338 6.29771,-4.76116z" data-paper-data="{&quot;index&quot;:null}" fill="#000000" stroke-width="0"/><path d="M218.81773,322.0224c0.56958,0.2215 4.72776,1.40039 4.38967,3.31865c-0.29671,1.68348 -4.99426,3.96832 -5.87845,6.2419c-1.89167,4.86425 -4.29214,8.47035 -5.36158,8.05444c-1.06944,-0.4159 -0.40289,-4.69631 1.48878,-9.56056c0.6236,-1.60354 -3.49339,-4.79162 -2.82511,-6.02269c1.35891,-2.50331 7.4698,-2.31055 8.18669,-2.03176z" data-paper-data="{&quot;index&quot;:null}" fill="#000000" stroke-width="0"/><path d="M136.13404,172.43529c0.51364,0.33115 4.35122,2.31943 3.63556,4.13103c-0.62806,1.58987 -5.68821,2.88696 -7.01009,4.93723c-2.8281,4.38648 -5.90253,7.43836 -6.86693,6.81658c-0.9644,-0.62178 0.54643,-4.68178 3.37452,-9.06826c0.9323,-1.44604 -2.46227,-5.3945 -1.56084,-6.46667c1.83301,-2.1802 7.7813,-0.76673 8.42778,-0.34993z" data-paper-data="{&quot;index&quot;:null}" fill="#000000" stroke-width="0"/><path d="M385.59127,174.98691c0,2.48183 3.38813,5.23044 -2.32349,5.23044c-5.71162,0 -1.23008,-2.45393 -1.23008,-4.93576c0,-2.48183 -3.93483,-13.1866 1.77679,-13.1866c5.71162,0 1.77678,10.41009 1.77678,12.89192z" fill="#000000" stroke-width="0"/><path d="M399.43695,163.58398c0.68525,-2.38536 -1.81227,-5.96259 3.67732,-4.38559c5.48959,1.57701 0.50472,2.69817 -0.18053,5.08353c-0.68525,2.38536 0.14099,13.76043 -5.34861,12.18342c-5.48959,-1.57701 1.16656,-10.496 1.85181,-12.88136z" fill="#000000" stroke-width="0"/><path d="M402.49922,332.40597c0,2.48183 3.38813,5.23044 -2.32349,5.23044c-5.71162,0 -1.23008,-2.45393 -1.23008,-4.93576c0,-2.48183 -3.93483,-13.1866 1.77679,-13.1866c5.71162,0 1.77678,10.41009 1.77678,12.89192z" fill="#000000" stroke-width="0"/><path d="M476.05486,303.70297c1.02849,-0.39997 9.79557,-0.67651 11.74515,2.9149c0.95876,1.76617 -4.94774,6.34001 -4.05308,8.64055c2.71392,6.97857 3.67019,13.11951 2.1359,13.71619c-1.53429,0.59668 -4.97815,-4.57686 -7.69207,-11.55542c-1.26851,-3.26184 -8.00793,-6.53981 -8.43361,-8.95504c-0.48505,-2.75206 5.48055,-4.44337 6.29771,-4.76115z" data-paper-data="{&quot;index&quot;:null}" fill="#000000" stroke-width="0"/></g></g></svg>