<svg version="1.1" xmlns="http://www.w3.org/2000/svg" xmlns:xlink="http://www.w3.org/1999/xlink" width="76.53264" height="16.00115" viewBox="0,0,76.53264,16.00115"><g transform="translate(-201.79017,-171.99943)"><g data-paper-data="{&quot;isPaintingLayer&quot;:true}" fill-rule="nonzero" stroke="none" stroke-width="0" stroke-linecap="butt" stroke-linejoin="miter" stroke-miterlimit="10" stroke-dasharray="" stroke-dashoffset="0" style="mix-blend-mode: normal"><path d="M277.51192,180.22816l0.81089,1.10776l-3.16828,1.68886l3.02047,2.3669l-0.77142,1.05475l-8.5136,-3.9034z" data-paper-data="{&quot;index&quot;:null}" fill="#a5dee6"/><path d="M201.7902,174.89023c0,0 9.82148,-0.78505 15.32074,-1.22461c0.38077,-0.03043 7.42151,1.18381 7.85406,1.14923c0.69522,-0.05557 -5.18045,-1.36293 -4.38305,-1.42667c7.06453,-0.56468 17.374,-1.38874 17.374,-1.38874l19.68431,1.97423l-0.47204,1.87759l-2.91505,-0.35798c0,0 3.86214,1.66804 3.77842,1.95119c-0.53074,1.79494 -2.53285,3.76052 -2.50187,4.94569c0.00431,0.16484 1.83532,0.4764 1.88155,0.66149c0.41937,1.67894 0.53348,4.94894 0.53348,4.94894c0,0 -4.99739,-0.51945 -7.85051,-0.81603c-1.222,-0.12702 -2.07314,-0.69249 -2.07314,-0.69249c0,0 -3.31053,-2.07643 -3.45031,-1.92518c-0.22303,0.24135 2.29874,1.84957 2.29874,1.84957c0,0 -2.5735,0.1654 -3.21947,0.09825c-2.60169,-0.27044 -4.83262,-0.50233 -4.83262,-0.50233l-36.93235,-10.04387l-0.09491,-1.0783z" data-paper-data="{&quot;index&quot;:null}" fill="#a5dee6"/><path d="M271.467,181.99358l-1.28016,0.33137l1.52721,0.8181c0,0 -5.46812,-0.33753 -10.46138,-0.80822c-0.42244,-0.03982 -2.18059,-1.17318 -2.18059,-1.17318c0,0 -1.85495,0.5074 -3.40415,0.36136c-16.84315,-1.58771 -53.84598,-5.48635 -53.84598,-5.48635l0.00108,-0.95821c0,0 45.1895,4.35041 57.393,5.46976c5.70072,0.52289 12.25097,1.44538 12.25097,1.44538z" data-paper-data="{&quot;index&quot;:null}" fill="#506b6f"/></g></g></svg>