<svg version="1.1" xmlns="http://www.w3.org/2000/svg" xmlns:xlink="http://www.w3.org/1999/xlink" width="426.46955" height="405.38438" viewBox="0,0,426.46955,405.38438"><g transform="translate(4.78449,22.64158)"><g data-paper-data="{&quot;isPaintingLayer&quot;:true}" fill="#344e5f" fill-rule="nonzero" stroke="none" stroke-width="0" stroke-linecap="butt" stroke-linejoin="miter" stroke-miterlimit="10" stroke-dasharray="" stroke-dashoffset="0" style="mix-blend-mode: normal"><path d="M407.21392,89.81918c0.1909,1.10196 3.67549,1.07061 3.67549,2.2574c0,3.05688 -8.27002,21.35317 -9.41381,23.67098c-1.79261,3.63261 -2.47728,26.97113 -5.81382,26.97113c-5.46544,0 -4.56449,-42.79429 -4.56449,-50.64211c0,-7.84782 4.43062,-14.20973 9.89606,-14.20973c4.63893,0 5.14908,5.7674 6.22056,11.95233z" data-paper-data="{&quot;index&quot;:null}"/><path d="M12.38937,378.95556c-6.65716,0 -13.08392,-60.45189 -14.47415,-152.0862c-0.94654,-62.38939 -2.69971,-121.40476 -2.69971,-135.65576c0,-36.73384 232.55339,-18.09431 238.11071,-43.39414c3.3912,-15.43853 72.47899,-88.24423 82.78304,-66.40933c0.6244,1.32313 8.52947,7.316 9.4301,8.27325c4.64751,4.93968 4.96398,1.0417 5.87759,7.58882c0.0669,0.47944 6.77107,25.07845 22.55452,44.77533c17.17662,21.4355 43.55004,38.11228 43.62401,38.62762c3.25336,22.66506 7.19354,35.85349 8.9969,59.49747c0.48834,6.40284 -2.18019,15.4672 3.44059,18.57231c6.37148,3.51982 9.57393,9.04656 9.63999,9.68414c2.602,25.11298 -16.38787,28.15212 -8.25755,52.05463c5.88184,17.29214 10.57446,52.28247 10.25417,64.26943c-0.13045,4.88207 -4.60154,19.64449 -4.90986,28.70012c-2.55105,74.92624 -89.01818,69.18834 -163.98784,69.18834z" data-paper-data="{&quot;index&quot;:null}"/></g></g></svg>