<svg version="1.1" xmlns="http://www.w3.org/2000/svg" xmlns:xlink="http://www.w3.org/1999/xlink" width="684.22724" height="534.70919" viewBox="0,0,684.22724,534.70919"><defs><linearGradient x1="324.31362" y1="193.06857" x2="324.31362" y2="42.92273" gradientUnits="userSpaceOnUse" id="color-1"><stop offset="0" stop-color="#000000"/><stop offset="1" stop-color="#070b0d"/></linearGradient><linearGradient x1="456.17787" y1="208.77164" x2="435.2262" y2="29.39086" gradientUnits="userSpaceOnUse" id="color-2"><stop offset="0" stop-color="#000000"/><stop offset="1" stop-color="#070b0d"/></linearGradient></defs><g transform="translate(116.00375,86.26441)"><g data-paper-data="{&quot;isPaintingLayer&quot;:true}" fill-rule="nonzero" stroke="none" stroke-linecap="butt" stroke-linejoin="miter" stroke-miterlimit="10" stroke-dasharray="" stroke-dashoffset="0" style="mix-blend-mode: normal"><path d="M555.41894,115.29813c5.04043,-1.4526 8.6396,-9.94239 11.98257,1.65752c3.34297,11.59991 -4.2638,3.93447 -9.30424,5.38707c-5.04043,1.4526 -24.47803,15.7094 -27.821,4.1095c-3.34297,-11.59991 20.10223,-9.70149 25.14266,-11.15409z" data-paper-data="{&quot;index&quot;:null}" fill="#030505" stroke-width="0"/><path d="M544.64804,107.12643c2.13627,-2.8607 0.5968,-8.94527 7.18035,-4.02892c6.58354,4.91635 -0.69439,3.88735 -2.83066,6.74805c-2.13627,2.8607 -6.81499,18.58658 -13.39854,13.67024c-6.58354,-4.91635 6.91258,-13.52867 9.04885,-16.38937z" data-paper-data="{&quot;index&quot;:null}" fill="#030505" stroke-width="0"/><path d="" data-paper-data="{&quot;index&quot;:null}" fill="#06090b" stroke-width="0"/><path d="" data-paper-data="{&quot;index&quot;:null}" fill="#06090b" stroke-width="0"/><path d="" data-paper-data="{&quot;index&quot;:null}" fill="#000000" stroke-width="0"/><path d="" data-paper-data="{&quot;index&quot;:null}" fill="url(#color-1)" stroke-width="0"/><path d="" data-paper-data="{&quot;index&quot;:null}" fill="#344e5f" stroke-width="0"/><path d="" data-paper-data="{&quot;index&quot;:null}" fill="#344e5f" stroke-width="0"/><path d="" data-paper-data="{&quot;index&quot;:null}" fill="#344e5f" stroke-width="0"/><path d="" data-paper-data="{&quot;index&quot;:null}" fill="#344e5f" stroke-width="0"/><path d="" data-paper-data="{&quot;index&quot;:null}" fill="#344e5f" stroke-width="0"/><path d="" data-paper-data="{&quot;index&quot;:null}" fill="#344e5f" stroke-width="0"/><path d="" data-paper-data="{&quot;index&quot;:null}" fill="#344e5f" stroke-width="0"/><path d="" data-paper-data="{&quot;index&quot;:null}" fill="#344e5f" stroke-width="0"/><path d="" data-paper-data="{&quot;index&quot;:null}" fill="#344e5f" stroke-width="0"/><path d="" data-paper-data="{&quot;index&quot;:null}" fill="#344e5f" stroke-width="0"/><path d="" data-paper-data="{&quot;index&quot;:null}" fill="#344e5f" stroke-width="0"/><path d="" data-paper-data="{&quot;index&quot;:null}" fill="#344e5f" stroke-width="0"/><path d="" data-paper-data="{&quot;index&quot;:null}" fill="#344e5f" stroke-width="0"/><path d="" data-paper-data="{&quot;index&quot;:null}" fill="#344e5f" stroke-width="0"/><path d="" data-paper-data="{&quot;index&quot;:null}" fill="#344e5f" stroke-width="0"/><path d="" data-paper-data="{&quot;index&quot;:null}" fill="#344e5f" stroke-width="0"/><path d="" data-paper-data="{&quot;index&quot;:null}" fill="#344e5f" stroke-width="0"/><path d="" data-paper-data="{&quot;index&quot;:null}" fill="#344e5f" stroke-width="0"/><path d="" data-paper-data="{&quot;index&quot;:null}" fill="#344e5f" stroke-width="0"/><path d="" data-paper-data="{&quot;index&quot;:null}" fill="#344e5f" stroke-width="0"/><path d="" data-paper-data="{&quot;index&quot;:null}" fill="#344e5f" stroke-width="0"/><path d="" fill="#000000" stroke-width="0.5"/><path d="M-116.00375,448.44478v-534.70919z" fill="none" stroke-width="0"/><path d="" data-paper-data="{&quot;index&quot;:null}" fill="#000000" stroke-width="0"/><path d="" data-paper-data="{&quot;index&quot;:null}" fill="#000000" stroke-width="0"/><path d="M-54.14349,411.50067l-40.92769,-55.93452c0,0 4.01146,-25.94912 23.59843,-38.77581c18.99257,-12.43743 16.91114,-30.76827 34.39623,-40.52575c1.49115,-17.35164 30.22279,-9.51768 32.58254,-9.51768c28.35658,0 71.81034,13.96211 71.23997,-14.38874c-0.02898,-1.44061 9.03688,-6.21933 14.22362,-12.37228c4.05647,-4.81212 -2.32432,-11.7135 5.96833,-10.2575c2.95829,0.51941 0.84781,13.60731 3.42905,15.25752c8.25934,5.28025 25.35527,2.37685 34.66452,0.90261c21.66092,-3.4303 32.88907,-29.39953 41.12914,-29.06745c7.74309,0.31205 16.8624,7.00764 26.60118,16.44648c4.36046,4.22616 6.70148,14.89723 11.24239,19.89653c6.05755,6.66905 14.35885,7.84031 20.45541,14.52804c16.34019,17.92468 32.24129,33.13035 44.59868,30.68213c5.20253,-1.03071 11.45389,10.764 19.56798,10.56178c5.71397,-0.1424 -0.02735,-21.97967 5.83134,-24.80629c3.16433,-1.52668 5.94928,17.03099 11.58985,20.38014c6.16746,3.66199 15.16215,-7.77789 17.36613,-7.75963c11.03299,0.09143 45.55917,10.66399 56.32458,11.02824c0.06777,0.00229 13.10452,4.91667 17.28419,-1.56961c4.9964,-7.75374 1.47429,-28.12057 4.39857,-42.52303c0.51825,-2.55245 4.20812,-31.96155 4.64297,-34.61848c0.80544,-4.92125 -2.15259,-12.46063 -1.3775,-17.19891c5.04188,-30.82232 2.88152,-38.81557 4.70047,-42.78651c19.29893,-42.13133 51.04034,-44.52388 53.30393,-44.58152c24.56055,-0.62534 44.45114,8.52597 56.51192,32.22793c8.621,16.94208 21.13771,25.30493 24.95614,46.67239c0.17308,0.96856 3.45259,7.99138 7.30187,9.2903c4.04231,1.36406 2.54758,7.87935 1.84621,10.54231c-0.74258,2.81944 0.80082,4.5994 -4.41605,7.81747c-4.42134,2.72735 -9.70161,-3.77681 -9.5677,-2.86812c2.42944,16.48596 10.58221,28.52555 11.35529,42.31347c1.3368,23.84215 -5.91339,44.82441 -5.91339,44.82441c0,0 9.4823,34.78534 9.4823,43.90131c0,6.47371 -10.13043,18.80083 -11.79022,27.45879c-2.77967,14.49958 2.30792,24.81998 2.30792,24.81998z" data-paper-data="{&quot;index&quot;:null}" fill="#000000" stroke-width="0"/><path d="M202.55349,282.74158c0.63428,0.90303 2.99902,9.34969 -0.02208,12.10143c-1.4857,1.35324 -7.33912,-3.28833 -9.35901,-1.86956c-6.12725,4.30378 -11.86143,6.70063 -12.80766,5.35351c-0.94623,-1.34712 3.25383,-5.9281 9.38107,-10.23187c2.86392,-2.01163 4.43541,-9.33933 6.67881,-10.33015c2.55626,-1.129 5.6249,4.25917 6.12885,4.97664z" data-paper-data="{&quot;index&quot;:null}" fill="#000000" stroke-width="0"/><path d="M363.91518,288.78233c1.44833,-5.04166 -3.83039,-12.60246 7.77234,-9.26931c11.60273,3.33315 1.06677,5.70281 -0.38157,10.74448c-1.44833,5.04166 0.29799,29.08385 -11.30474,25.75071c-11.60273,-3.33315 2.46563,-22.18421 3.91396,-27.22587z" data-paper-data="{&quot;index&quot;:null}" fill="#000000" stroke-width="0"/><path d="M255.05777,287.66825c-1.2879,-3.32995 -7.2602,-5.25962 0.40326,-8.22356c7.66345,-2.96394 2.92386,2.65418 4.21176,5.98414c1.2879,3.32995 12.12244,15.65093 4.45899,18.61488c-7.66345,2.96394 -7.78611,-13.0455 -9.07401,-16.37545z" data-paper-data="{&quot;index&quot;:null}" fill="#000000" stroke-width="0"/><path d="" data-paper-data="{&quot;index&quot;:null}" fill="#000000" stroke-width="0"/><path d="M174.71466,229.43032c-4.4774,2.73293 -5.70516,11.87203 -11.99463,1.56787c-6.28947,-10.30416 3.07252,-4.92134 7.54994,-7.65427c4.4774,-2.73293 19.4566,-21.61943 25.74608,-11.31528c6.28947,10.30416 -16.82397,14.66876 -21.30137,17.40168z" data-paper-data="{&quot;index&quot;:null}" fill="#000000" stroke-width="0"/><path d="M351.26875,293.56321c-1.2879,-3.32995 -7.2602,-5.25962 0.40326,-8.22356c7.66345,-2.96394 2.92386,2.65418 4.21176,5.98414c1.2879,3.32995 12.12244,15.65093 4.45899,18.61488c-7.66345,2.96394 -7.78611,-13.0455 -9.07401,-16.37545z" data-paper-data="{&quot;index&quot;:null}" fill="#000000" stroke-width="0"/><path d="M116.70077,236.18571c0.61995,-3.51609 -3.49354,-8.25646 4.5983,-6.82972c8.09184,1.42674 1.12972,3.78383 0.50976,7.29993c-0.61995,3.5161 2.28068,19.66479 -5.81117,18.23806c-8.09184,-1.42674 0.08314,-15.19216 0.70309,-18.70825z" data-paper-data="{&quot;index&quot;:null}" fill="#000000" stroke-width="0"/><path d="M111.55476,236.89348c5.76999,-1.76687 2.00177,2.09848 2.76952,4.60569c0.76775,2.5072 8.05429,12.10412 2.2843,13.87101c-5.76999,1.76687 -5.01529,-9.96684 -5.78304,-12.47404c-0.76775,-2.5072 -5.04078,-4.23578 0.72922,-6.00266z" data-paper-data="{&quot;index&quot;:null}" fill="#000000" stroke-width="0"/><path d="M534.5703,42.15568c0.67788,5.80376 -1.03232,18.87187 -0.15999,35.20008c0.30474,5.70409 8.5758,11.12872 9.42263,17.45781c1.06526,7.96157 -5.27848,16.95987 -5.10541,25.30049c0.10443,5.03291 -3.137,11.39781 -2.9375,16.30199c0.16957,4.16849 5.73163,11.60607 5.84339,15.47945c0.065,2.25271 0.75246,9.57575 4.38316,13.56864c4.20745,4.62717 11.43839,5.94352 11.45353,8.18942c0.04455,6.6071 -15.64329,4.09085 -15.95338,8.23723c-0.09673,1.29346 4.88984,-0.70108 7.21627,1.93536c2.46654,2.79522 2.27903,10.20775 2.08503,10.89216c-6.87571,24.25709 -76.68712,11.95643 -94.64015,14.05334c-16.15002,1.88633 -36.86466,10.09079 -48.83363,-8.07708c-4.02781,-6.11387 -2.49406,-20.0697 -4.52236,-31.50254c-2.86083,-16.12552 -8.5662,-30.94333 -10.08243,-43.92474c-1.50993,-12.92749 -4.54565,-89.1776 -2.93544,-100.61997c1.06504,-7.56829 -41.52923,-45.27928 -38.16711,-52.66914c11.03195,-24.24795 77.20397,-15.14312 93.7715,-17.07821c16.83056,-1.96581 59.04585,-1.50652 78.4002,19.14158c14.28224,15.23695 8.30507,47.0815 10.76168,68.11412z" fill="url(#color-2)" stroke-width="0"/><path d="M558.74317,296.10749c3.3814,-1.14603 5.56173,-7.03144 8.19916,0.75042c2.63744,7.78186 -2.77537,2.80909 -6.15678,3.95511c-3.38141,1.14603 -16.14924,11.45022 -18.78669,3.66836c-2.63744,-7.78186 13.36288,-7.22787 16.74428,-8.3739z" data-paper-data="{&quot;index&quot;:null}" fill="#000000" stroke-width="0"/><path d="M555.64951,291.93477c4.32232,4.21096 -0.87831,2.76392 -2.70808,4.64208c-1.82976,1.87815 -6.74425,12.88008 -11.06658,8.66913c-4.32232,-4.21096 6.33037,-9.1879 8.16013,-11.06605c1.82976,-1.87815 1.2922,-6.45612 5.61453,-2.24516z" data-paper-data="{&quot;index&quot;:null}" fill="#000000" stroke-width="0"/></g></g></svg>