<svg version="1.1" xmlns="http://www.w3.org/2000/svg" xmlns:xlink="http://www.w3.org/1999/xlink" width="628.15486" height="448.17668" viewBox="0,0,628.15486,448.17668"><g transform="translate(132.32101,-0.46766)"><g data-paper-data="{&quot;isPaintingLayer&quot;:true}" fill-rule="nonzero" stroke="none" stroke-width="0" stroke-linecap="butt" stroke-linejoin="miter" stroke-miterlimit="10" stroke-dasharray="" stroke-dashoffset="0" style="mix-blend-mode: normal"><path d="" data-paper-data="{&quot;index&quot;:null}" fill="#344e5f"/><path d="" data-paper-data="{&quot;index&quot;:null}" fill="#344e5f"/><path d="" data-paper-data="{&quot;index&quot;:null}" fill="#344e5f"/><path d="" data-paper-data="{&quot;index&quot;:null}" fill="#344e5f"/><path d="M-76.7735,414.41835c0,-12.70994 25.21314,-156.64583 22.50102,-212.17586c-0.84038,-17.20663 50.87153,-42.1961 60.65886,-42.1961c4.90247,0 0.26101,1.95071 28.24194,0.99803c12.16633,-0.41423 37.97094,10.95915 44.53005,10.78389c23.38764,-0.62492 72.37568,23.748 94.43843,26.03396c4.06594,0.42128 52.96765,21.09307 57.15582,21.4125c31.76592,2.42283 67.71806,-3.7993 98.1688,0.57162c0.69236,0.09938 21.17849,35.53233 49.9773,58.6093c26.46295,21.20522 61.43127,30.21235 62.07541,30.30223c8.79612,1.22745 3.55915,1.65263 10.19566,7.8966c1.28607,1.21 9.33755,11.83055 11.1152,12.66944c29.33541,13.8436 44.75892,52.92333 24.01709,57.47945c-33.99058,7.46632 -185.52379,15.2501 -234.87607,15.2501c-41.37342,0 -209.81668,-9.91458 -209.81668,-26.56285z" data-paper-data="{&quot;index&quot;:null}" fill="#344e5f"/><path d="M-132.32101,448.64434v-448.17668h612.32101v448.17668z" fill="none"/></g></g></svg>