<svg version="1.1" xmlns="http://www.w3.org/2000/svg" xmlns:xlink="http://www.w3.org/1999/xlink" width="945.13128" height="361.48424" viewBox="0,0,945.13128,361.48424"><defs><radialGradient cx="122.35871" cy="483.77416" r="83.14426" gradientUnits="userSpaceOnUse" id="color-1"><stop offset="0" stop-color="#66ff98" stop-opacity="0.3958"/><stop offset="1" stop-color="#66ff98" stop-opacity="0"/></radialGradient><radialGradient cx="236.28558" cy="429.68722" r="83.14426" gradientUnits="userSpaceOnUse" id="color-2"><stop offset="0" stop-color="#66ff98" stop-opacity="0.3958"/><stop offset="1" stop-color="#66ff98" stop-opacity="0"/></radialGradient><radialGradient cx="265.26033" cy="464.35782" r="83.14425" gradientUnits="userSpaceOnUse" id="color-3"><stop offset="0" stop-color="#66ff98" stop-opacity="0.3958"/><stop offset="1" stop-color="#66ff98" stop-opacity="0"/></radialGradient><radialGradient cx="208.19943" cy="488.42811" r="83.14425" gradientUnits="userSpaceOnUse" id="color-4"><stop offset="0" stop-color="#66ff98" stop-opacity="0.3958"/><stop offset="1" stop-color="#66ff98" stop-opacity="0"/></radialGradient><radialGradient cx="46.56923" cy="487.63746" r="83.14426" gradientUnits="userSpaceOnUse" id="color-5"><stop offset="0" stop-color="#66ff98" stop-opacity="0.20636"/><stop offset="1" stop-color="#66ff98" stop-opacity="0"/></radialGradient><radialGradient cx="49.68004" cy="464.5606" r="83.14425" gradientUnits="userSpaceOnUse" id="color-6"><stop offset="0" stop-color="#66ff98" stop-opacity="0.20636"/><stop offset="1" stop-color="#66ff98" stop-opacity="0"/></radialGradient><radialGradient cx="-21.71666" cy="473.18632" r="83.14426" gradientUnits="userSpaceOnUse" id="color-7"><stop offset="0" stop-color="#66ff98" stop-opacity="0.20636"/><stop offset="1" stop-color="#66ff98" stop-opacity="0"/></radialGradient><radialGradient cx="-89.29239" cy="472.47368" r="83.14426" gradientUnits="userSpaceOnUse" id="color-8"><stop offset="0" stop-color="#66ff98" stop-opacity="0.20636"/><stop offset="1" stop-color="#66ff98" stop-opacity="0"/></radialGradient><radialGradient cx="361.66047" cy="483.46179" r="82.88314" gradientUnits="userSpaceOnUse" id="color-9"><stop offset="0" stop-color="#66ff98" stop-opacity="0.3958"/><stop offset="1" stop-color="#66ff98" stop-opacity="0"/></radialGradient><radialGradient cx="214.57457" cy="456.36924" r="82.88314" gradientUnits="userSpaceOnUse" id="color-10"><stop offset="0" stop-color="#66ff98" stop-opacity="0.3958"/><stop offset="1" stop-color="#66ff98" stop-opacity="0"/></radialGradient><radialGradient cx="467.59051" cy="413.88641" r="82.88314" gradientUnits="userSpaceOnUse" id="color-11"><stop offset="0" stop-color="#66ff98" stop-opacity="0.3958"/><stop offset="1" stop-color="#66ff98" stop-opacity="0"/></radialGradient><radialGradient cx="500.7662" cy="444.17864" r="82.88314" gradientUnits="userSpaceOnUse" id="color-12"><stop offset="0" stop-color="#66ff98" stop-opacity="0.3958"/><stop offset="1" stop-color="#66ff98" stop-opacity="0"/></radialGradient><radialGradient cx="447.32182" cy="476.03379" r="82.88313" gradientUnits="userSpaceOnUse" id="color-13"><stop offset="0" stop-color="#66ff98" stop-opacity="0.3958"/><stop offset="1" stop-color="#66ff98" stop-opacity="0"/></radialGradient><radialGradient cx="287.05579" cy="497.92003" r="82.88314" gradientUnits="userSpaceOnUse" id="color-14"><stop offset="0" stop-color="#66ff98" stop-opacity="0.20636"/><stop offset="1" stop-color="#66ff98" stop-opacity="0"/></radialGradient><radialGradient cx="287.16731" cy="474.61616" r="82.88313" gradientUnits="userSpaceOnUse" id="color-15"><stop offset="0" stop-color="#66ff98" stop-opacity="0.20636"/><stop offset="1" stop-color="#66ff98" stop-opacity="0"/></radialGradient><radialGradient cx="217.52872" cy="493.17751" r="82.88314" gradientUnits="userSpaceOnUse" id="color-16"><stop offset="0" stop-color="#66ff98" stop-opacity="0.20636"/><stop offset="1" stop-color="#66ff98" stop-opacity="0"/></radialGradient><radialGradient cx="198.16665" cy="444.51201" r="82.88313" gradientUnits="userSpaceOnUse" id="color-17"><stop offset="0" stop-color="#66ff98" stop-opacity="0.20636"/><stop offset="1" stop-color="#66ff98" stop-opacity="0"/></radialGradient><radialGradient cx="615.88167" cy="411.24048" r="82.88314" gradientUnits="userSpaceOnUse" id="color-18"><stop offset="0" stop-color="#66ff98" stop-opacity="0.3958"/><stop offset="1" stop-color="#66ff98" stop-opacity="0"/></radialGradient><radialGradient cx="546.43367" cy="485.54017" r="82.88315" gradientUnits="userSpaceOnUse" id="color-19"><stop offset="0" stop-color="#66ff98" stop-opacity="0.3958"/><stop offset="1" stop-color="#66ff98" stop-opacity="0"/></radialGradient><radialGradient cx="652.3637" cy="415.96479" r="82.88315" gradientUnits="userSpaceOnUse" id="color-20"><stop offset="0" stop-color="#66ff98" stop-opacity="0.3958"/><stop offset="1" stop-color="#66ff98" stop-opacity="0"/></radialGradient><radialGradient cx="685.53939" cy="446.25702" r="82.88314" gradientUnits="userSpaceOnUse" id="color-21"><stop offset="0" stop-color="#66ff98" stop-opacity="0.3958"/><stop offset="1" stop-color="#66ff98" stop-opacity="0"/></radialGradient><radialGradient cx="632.09501" cy="478.11217" r="82.88314" gradientUnits="userSpaceOnUse" id="color-22"><stop offset="0" stop-color="#66ff98" stop-opacity="0.3958"/><stop offset="1" stop-color="#66ff98" stop-opacity="0"/></radialGradient><radialGradient cx="599.11896" cy="417.05946" r="82.88314" gradientUnits="userSpaceOnUse" id="color-23"><stop offset="0" stop-color="#66ff98" stop-opacity="0.3958"/><stop offset="1" stop-color="#66ff98" stop-opacity="0"/></radialGradient><radialGradient cx="200.74267" cy="403.12025" r="84.76452" gradientUnits="userSpaceOnUse" id="color-24"><stop offset="0" stop-color="#66ff98" stop-opacity="0.3958"/><stop offset="1" stop-color="#66ff98" stop-opacity="0"/></radialGradient><radialGradient cx="110.54183" cy="388.77818" r="84.76453" gradientUnits="userSpaceOnUse" id="color-25"><stop offset="0" stop-color="#66ff98" stop-opacity="0.3958"/><stop offset="1" stop-color="#66ff98" stop-opacity="0"/></radialGradient><radialGradient cx="105.80949" cy="362.62376" r="84.76452" gradientUnits="userSpaceOnUse" id="color-26"><stop offset="0" stop-color="#66ff98" stop-opacity="0.3958"/><stop offset="1" stop-color="#66ff98" stop-opacity="0"/></radialGradient><radialGradient cx="43.73197" cy="394.70261" r="84.76453" gradientUnits="userSpaceOnUse" id="color-27"><stop offset="0" stop-color="#66ff98" stop-opacity="0.3958"/><stop offset="1" stop-color="#66ff98" stop-opacity="0"/></radialGradient><radialGradient cx="-19.90506" cy="421.96393" r="84.76453" gradientUnits="userSpaceOnUse" id="color-28"><stop offset="0" stop-color="#66ff98" stop-opacity="0.3958"/><stop offset="1" stop-color="#66ff98" stop-opacity="0"/></radialGradient><radialGradient cx="12.67229" cy="352.0059" r="84.76452" gradientUnits="userSpaceOnUse" id="color-29"><stop offset="0" stop-color="#66ff98" stop-opacity="0.3958"/><stop offset="1" stop-color="#66ff98" stop-opacity="0"/></radialGradient><radialGradient cx="164.52818" cy="413.27558" r="84.76453" gradientUnits="userSpaceOnUse" id="color-30"><stop offset="0" stop-color="#66ff98" stop-opacity="0.3958"/><stop offset="1" stop-color="#66ff98" stop-opacity="0"/></radialGradient><radialGradient cx="183.38282" cy="407.04218" r="84.76452" gradientUnits="userSpaceOnUse" id="color-31"><stop offset="0" stop-color="#66ff98" stop-opacity="0.3958"/><stop offset="1" stop-color="#66ff98" stop-opacity="0"/></radialGradient><radialGradient cx="162.03427" cy="397.74539" r="84.76453" gradientUnits="userSpaceOnUse" id="color-32"><stop offset="0" stop-color="#66ff98" stop-opacity="0.3958"/><stop offset="1" stop-color="#66ff98" stop-opacity="0"/></radialGradient><radialGradient cx="73.57559" cy="350.16116" r="84.76453" gradientUnits="userSpaceOnUse" id="color-33"><stop offset="0" stop-color="#66ff98" stop-opacity="0.3958"/><stop offset="1" stop-color="#66ff98" stop-opacity="0"/></radialGradient><radialGradient cx="-34.63758" cy="405.82777" r="84.76452" gradientUnits="userSpaceOnUse" id="color-34"><stop offset="0" stop-color="#66ff98" stop-opacity="0.20636"/><stop offset="1" stop-color="#66ff98" stop-opacity="0"/></radialGradient><radialGradient cx="23.03557" cy="429.35853" r="84.76453" gradientUnits="userSpaceOnUse" id="color-35"><stop offset="0" stop-color="#66ff98" stop-opacity="0.20636"/><stop offset="1" stop-color="#66ff98" stop-opacity="0"/></radialGradient><radialGradient cx="431.10847" cy="390.80159" r="83.50593" gradientUnits="userSpaceOnUse" id="color-36"><stop offset="0" stop-color="#66ff98" stop-opacity="0.3958"/><stop offset="1" stop-color="#66ff98" stop-opacity="0"/></radialGradient><radialGradient cx="340.11786" cy="391.11831" r="83.50594" gradientUnits="userSpaceOnUse" id="color-37"><stop offset="0" stop-color="#66ff98" stop-opacity="0.3958"/><stop offset="1" stop-color="#66ff98" stop-opacity="0"/></radialGradient><radialGradient cx="332.49627" cy="365.96335" r="83.50593" gradientUnits="userSpaceOnUse" id="color-38"><stop offset="0" stop-color="#66ff98" stop-opacity="0.3958"/><stop offset="1" stop-color="#66ff98" stop-opacity="0"/></radialGradient><radialGradient cx="274.57816" cy="407.75011" r="83.50594" gradientUnits="userSpaceOnUse" id="color-39"><stop offset="0" stop-color="#66ff98" stop-opacity="0.3958"/><stop offset="1" stop-color="#66ff98" stop-opacity="0"/></radialGradient><radialGradient cx="239.01346" cy="370.44346" r="83.50593" gradientUnits="userSpaceOnUse" id="color-40"><stop offset="0" stop-color="#66ff98" stop-opacity="0.3958"/><stop offset="1" stop-color="#66ff98" stop-opacity="0"/></radialGradient><radialGradient cx="396.36096" cy="406.6979" r="83.50594" gradientUnits="userSpaceOnUse" id="color-41"><stop offset="0" stop-color="#66ff98" stop-opacity="0.3958"/><stop offset="1" stop-color="#66ff98" stop-opacity="0"/></radialGradient><radialGradient cx="414.34576" cy="397.48411" r="83.50593" gradientUnits="userSpaceOnUse" id="color-42"><stop offset="0" stop-color="#66ff98" stop-opacity="0.3958"/><stop offset="1" stop-color="#66ff98" stop-opacity="0"/></radialGradient><radialGradient cx="392.14858" cy="391.71027" r="83.50594" gradientUnits="userSpaceOnUse" id="color-43"><stop offset="0" stop-color="#66ff98" stop-opacity="0.3958"/><stop offset="1" stop-color="#66ff98" stop-opacity="0"/></radialGradient><radialGradient cx="299.15756" cy="358.80572" r="83.50594" gradientUnits="userSpaceOnUse" id="color-44"><stop offset="0" stop-color="#66ff98" stop-opacity="0.3958"/><stop offset="1" stop-color="#66ff98" stop-opacity="0"/></radialGradient><radialGradient cx="192.53675" cy="338.6691" r="83.50594" gradientUnits="userSpaceOnUse" id="color-45"><stop offset="0" stop-color="#66ff98" stop-opacity="0.20636"/><stop offset="1" stop-color="#66ff98" stop-opacity="0"/></radialGradient><radialGradient cx="186.88691" cy="353.63808" r="83.50594" gradientUnits="userSpaceOnUse" id="color-46"><stop offset="0" stop-color="#66ff98" stop-opacity="0.20636"/><stop offset="1" stop-color="#66ff98" stop-opacity="0"/></radialGradient><radialGradient cx="524.89106" cy="393.50513" r="83.50594" gradientUnits="userSpaceOnUse" id="color-47"><stop offset="0" stop-color="#66ff98" stop-opacity="0.3958"/><stop offset="1" stop-color="#66ff98" stop-opacity="0"/></radialGradient><radialGradient cx="517.26946" cy="368.35016" r="83.50593" gradientUnits="userSpaceOnUse" id="color-48"><stop offset="0" stop-color="#66ff98" stop-opacity="0.3958"/><stop offset="1" stop-color="#66ff98" stop-opacity="0"/></radialGradient><radialGradient cx="581.13415" cy="409.08471" r="83.50594" gradientUnits="userSpaceOnUse" id="color-49"><stop offset="0" stop-color="#66ff98" stop-opacity="0.3958"/><stop offset="1" stop-color="#66ff98" stop-opacity="0"/></radialGradient><radialGradient cx="602.7147" cy="359.30744" r="83.50594" gradientUnits="userSpaceOnUse" id="color-50"><stop offset="0" stop-color="#66ff98" stop-opacity="0.3958"/><stop offset="1" stop-color="#66ff98" stop-opacity="0"/></radialGradient><radialGradient cx="483.93075" cy="361.19253" r="83.50594" gradientUnits="userSpaceOnUse" id="color-51"><stop offset="0" stop-color="#66ff98" stop-opacity="0.3958"/><stop offset="1" stop-color="#66ff98" stop-opacity="0"/></radialGradient></defs><g transform="translate(178.51159,-230.7788)"><g data-paper-data="{&quot;isPaintingLayer&quot;:true}" fill-rule="nonzero" stroke="none" stroke-width="0" stroke-linecap="butt" stroke-linejoin="miter" stroke-miterlimit="10" stroke-dasharray="" stroke-dashoffset="0" style="mix-blend-mode: normal"><path d="M200.20242,512.98586c-8.16301,23.69758 -56.56422,80.67644 -99.55612,64.54326c-42.9919,-16.13318 -77.97273,-80.34671 -69.80972,-104.04429c4.46981,-12.97605 2.88672,-59.86798 22.11087,-61.53907c15.88405,-1.38075 73.26209,-25.8443 92.71297,-18.54515c42.9919,16.13318 62.70501,95.88769 54.542,119.58527z" fill="url(#color-1)"/><path d="M314.12929,458.89892c-4.90854,14.24969 -44.17149,44.69979 -87.16339,28.56661c-42.9919,-16.13318 -84.18554,-62.31066 -79.277,-76.56036c2.68776,-7.80269 -4.52576,-38.34921 13.61783,-36.88341c14.99123,1.21113 66.77564,-7.01385 86.22651,0.2853c42.9919,16.13318 71.50458,70.34216 66.59604,84.59185z" fill="url(#color-2)"/><path d="M343.10404,493.56952c-4.90854,14.24969 -44.17149,44.69979 -87.16339,28.56661c-42.9919,-16.13318 -84.18554,-62.31066 -79.277,-76.56035c2.68776,-7.80269 -4.52576,-38.34923 13.61783,-36.88342c14.99124,1.21113 66.77564,-7.01385 86.22651,0.2853c42.9919,16.13318 71.50458,70.34216 66.59604,84.59185z" fill="url(#color-3)"/><path d="M286.04315,517.63982c-4.90854,14.24969 -44.17149,44.69979 -87.16339,28.56661c-42.9919,-16.13318 -84.18553,-62.31065 -79.27699,-76.56036c2.68776,-7.80269 -4.52576,-38.34923 13.61783,-36.88341c14.99124,1.21113 66.77564,-7.01385 86.22651,0.2853c42.9919,16.13318 71.50457,70.34215 66.59603,84.59185z" fill="url(#color-4)"/><path d="M97.74771,419.80458c18.95543,15.58001 11.40846,58.57993 -16.85664,96.04299c-28.2651,37.46306 -53.67452,74.7329 -72.62996,59.1529c-10.3794,-8.53113 -53.49909,-21.79966 -48.93565,-41.3627c3.77058,-16.16406 -3.81255,-109.26603 8.97547,-126.21549c17.6441,-23.38581 43.0842,-43.04473 74.26619,-32.52243c18.77023,6.33398 48.05782,39.05034 55.18058,44.90474z" fill="url(#color-5)"/><path d="M113.02948,520.0833c-15.51544,19.28516 -79.81723,55.26209 -114.80417,24.59776c-34.98693,-30.66433 -46.51704,-103.54507 -31.0016,-122.83024c8.49577,-10.55995 22.55716,-55.12658 41.14763,-49.75101c15.36048,4.44159 77.30428,2.21337 93.13347,16.08687c34.98693,30.66433 27.04012,112.61145 11.52469,131.89662z" fill="url(#color-6)"/><path d="M41.63279,528.709c-15.51544,19.28516 -79.81723,55.26209 -114.80417,24.59776c-34.98693,-30.66433 -46.51705,-103.54508 -31.00161,-122.83024c8.49577,-10.55995 22.55716,-55.12657 41.14763,-49.751c15.36048,4.44159 77.30429,2.21336 93.13347,16.08686c34.98693,30.66433 27.04012,112.61146 11.52467,131.89663z" fill="url(#color-7)"/><path d="M-25.94295,527.99638c-15.51544,19.28516 -79.81723,55.26209 -114.80417,24.59776c-34.98693,-30.66433 -46.51706,-103.54507 -31.00161,-122.83023c8.49577,-10.55995 22.55716,-55.12658 41.14763,-49.751c15.36048,4.44159 77.30429,2.21336 93.13347,16.08686c34.98693,30.66433 27.04012,112.61146 11.52467,131.89663z" fill="url(#color-8)"/><path d="M442.55906,501.49044c-5.03798,24.62756 -45.66435,87.87822 -90.34341,77.92127c-44.67906,-9.95695 -87.60991,-68.68177 -82.57193,-93.30933c2.75864,-13.48528 -4.84728,-59.72987 13.98736,-64.08211c15.56222,-3.59607 69.27023,-35.88539 89.48443,-31.38056c44.67906,9.95695 74.48152,86.22319 69.44354,110.85075z" fill="url(#color-9)"/><path d="M295.47316,474.39789c-5.03798,24.62756 -45.66436,87.87822 -90.34341,77.92127c-44.67906,-9.95695 -87.60991,-68.68177 -82.57192,-93.30933c2.75864,-13.48528 -4.84728,-59.72986 13.98736,-64.08211c15.56222,-3.59607 69.27023,-35.88541 89.48444,-31.38057c44.67906,9.95695 74.48152,86.22319 69.44354,110.85075z" fill="url(#color-10)"/><path d="M548.4891,431.91505c-3.02941,14.8089 -38.0159,50.48972 -82.69496,40.53277c-44.67906,-9.95695 -91.44429,-49.93792 -88.41487,-64.74683c1.65881,-8.10889 -9.42205,-37.36662 8.74569,-38.45888c15.01118,-0.90248 65.26697,-16.31596 85.48118,-11.81113c44.67906,9.95695 79.91237,59.67516 76.88296,74.48407z" fill="url(#color-11)"/><path d="M581.66479,462.20729c-3.02941,14.8089 -38.0159,50.48972 -82.69496,40.53277c-44.67906,-9.95695 -91.44429,-49.93792 -88.41487,-64.74682c1.65881,-8.10889 -9.42206,-37.36664 8.7457,-38.45889c15.0112,-0.90247 65.26697,-16.31596 85.48118,-11.81113c44.67906,9.95695 79.91237,59.67516 76.88296,74.48407z" fill="url(#color-12)"/><path d="M528.22041,494.06245c-3.02941,14.8089 -38.0159,50.48971 -82.69496,40.53276c-44.67906,-9.95695 -91.44427,-49.93791 -88.41486,-64.74683c1.65881,-8.10889 -9.42206,-37.36663 8.74569,-38.45887c15.0112,-0.90247 65.26697,-16.31597 85.48118,-11.81113c44.67906,9.95695 79.91237,59.67515 76.88295,74.48407z" fill="url(#color-13)"/><path d="M329.03682,423.52427c20.78938,12.78008 18.84696,56.4485 -4.33852,97.53613c-23.18548,41.08764 -43.56607,81.58329 -64.35546,68.80322c-11.38362,-6.99797 -55.8205,-14.09833 -53.81712,-34.12399c1.65531,-16.54631 -17.84564,-107.74025 -7.35579,-126.32959c14.47322,-25.6484 37.15155,-48.69717 69.40544,-42.64379c19.41547,3.64388 52.64955,31.95573 60.46145,36.75801z" fill="url(#color-14)"/><path d="M357.09055,520.75009c-12.89181,21.28639 -71.97848,65.95577 -110.59602,40.47671c-38.61754,-25.47906 -59.42624,-96.0816 -46.53443,-117.36799c7.05915,-11.65576 15.25519,-57.79038 34.36914,-55.07101c15.793,2.24689 76.8881,-8.64915 94.35989,2.87837c38.61754,25.47906 41.29324,107.79752 28.40144,129.08391z" fill="url(#color-15)"/><path d="M287.45196,539.31143c-12.89181,21.28639 -71.97847,65.95577 -110.59602,40.47671c-38.61754,-25.47906 -59.42625,-96.0816 -46.53444,-117.36799c7.05915,-11.65576 15.2552,-57.79037 34.36914,-55.071c15.793,2.24689 76.88811,-8.64916 94.35989,2.87836c38.61754,25.47906 41.29323,107.79753 28.40142,129.08392z" fill="url(#color-16)"/><path d="M268.08989,490.64594c-12.89181,21.28639 -71.97847,65.95578 -110.59602,40.47672c-38.61754,-25.47906 -59.42624,-96.08159 -46.53443,-117.36798c7.05915,-11.65576 15.25519,-57.79039 34.36914,-55.071c15.793,2.24689 76.88811,-8.64916 94.35989,2.87836c38.61754,25.47906 41.29323,107.79752 28.40143,129.08392z" fill="url(#color-17)"/><path d="M696.78026,429.26913c-5.03798,24.62756 -45.34161,36.52043 -90.02066,26.56348c-44.67906,-9.95695 -87.93264,-17.324 -82.89466,-41.95156c2.75865,-13.48528 -4.84727,-59.72986 13.98736,-64.08212c15.56221,-3.59607 67.59232,2.82725 87.80652,7.33208c44.67906,9.95695 76.15942,47.51054 71.12144,72.1381z" fill="url(#color-18)"/><path d="M627.33226,503.56882c-5.03798,24.62756 -45.66435,87.87822 -90.34341,77.92127c-44.67906,-9.95695 -87.60991,-68.68177 -82.57193,-93.30933c2.75865,-13.48528 -4.84727,-59.72987 13.98737,-64.08211c15.56221,-3.59607 69.27023,-35.88539 89.48443,-31.38056c44.67906,9.95695 74.48152,86.22319 69.44354,110.85075z" fill="url(#color-19)"/><path d="M733.26229,433.99344c-3.02941,14.8089 -38.01589,50.48972 -82.69495,40.53277c-44.67906,-9.95695 -91.44428,-49.93792 -88.41487,-64.74683c1.65881,-8.10889 -9.42205,-37.36662 8.74569,-38.45888c15.01118,-0.90248 65.26698,-16.31596 85.48118,-11.81112c44.67906,9.95695 79.91237,59.67516 76.88295,74.48406z" fill="url(#color-20)"/><path d="M766.43798,464.28567c-3.02941,14.8089 -38.0159,50.48972 -82.69496,40.53277c-44.67906,-9.95695 -91.44429,-49.93792 -88.41488,-64.74682c1.65881,-8.10889 -9.42205,-37.36664 8.74569,-38.45889c15.01119,-0.90247 65.26698,-16.31596 85.48118,-11.81113c44.67906,9.95695 79.91237,59.67516 76.88296,74.48406z" fill="url(#color-21)"/><path d="M712.99361,496.14083c-3.02941,14.8089 -38.0159,50.48971 -82.69496,40.53276c-44.67906,-9.95695 -91.44428,-49.93791 -88.41486,-64.74683c1.65881,-8.10889 -9.42206,-37.36663 8.7457,-38.45887c15.0112,-0.90247 65.26697,-16.31597 85.48118,-11.81113c44.67906,9.95695 79.91236,59.67516 76.88295,74.48407z" fill="url(#color-22)"/><path d="M649.49547,485.54323c-19.13732,15.33587 -89.36264,35.98108 -117.18482,-1.84144c-27.82217,-37.82253 -24.01141,-111.58301 -4.87409,-126.9189c10.479,-8.39744 33.42385,-48.74657 50.46478,-39.31018c14.08015,7.79686 75.025,19.57395 87.61262,36.68605c27.82218,37.82253 3.11884,116.04861 -16.01847,131.38448z" fill="url(#color-23)"/><path d="M278.58638,436.66694c-8.16301,27.21427 -49.63225,34.25643 -92.62415,15.72911c-42.9919,-18.52732 -84.90469,-33.87778 -76.74168,-61.09206c4.46981,-14.90168 2.88673,-68.75232 22.11087,-70.67141c15.88405,-1.58565 66.61526,14.1045 86.06614,22.48684c42.9919,18.52732 69.35183,66.33324 61.18882,93.54751z" fill="url(#color-24)"/><path d="M136.06892,294.46389c22.94976,8.92431 30.12535,58.38483 16.02714,110.47318c-14.09822,52.08834 -25.58126,102.78403 -48.53102,93.85973c-12.56658,-4.88667 -57.42133,-1.2976 -59.6258,-24.2686c-1.82145,-18.97991 -39.80333,-116.14713 -33.42485,-139.71353c8.80062,-32.51544 26.15121,-64.24899 58.8953,-65.84545c19.71055,-0.961 58.03555,22.14125 66.65924,25.49469z" fill="url(#color-25)"/><path d="M183.65321,396.17045c-8.16301,27.21427 -56.56422,92.64873 -99.55612,74.12141c-42.9919,-18.52732 -77.97272,-92.27009 -69.80971,-119.48436c4.46981,-14.90168 2.88672,-68.75233 22.11087,-70.67141c15.88405,-1.58565 73.26209,-29.67957 92.71297,-21.29723c42.9919,18.52732 62.70501,110.11731 54.542,137.33158z" fill="url(#color-26)"/><path d="M121.57568,428.2493c-8.16301,27.21427 -56.56422,92.64873 -99.55612,74.12141c-42.9919,-18.52732 -77.97273,-92.27009 -69.80971,-119.48436c4.46981,-14.90168 2.88673,-68.75232 22.11087,-70.6714c15.88405,-1.58565 73.26209,-29.67958 92.71297,-21.29724c42.9919,18.52732 62.70501,110.11732 54.542,137.33159z" fill="url(#color-27)"/><path d="M57.93865,455.51061c-8.16301,27.21427 -56.56422,92.64873 -99.55612,74.12141c-42.9919,-18.52732 -77.97273,-92.27008 -69.80972,-119.48435c4.46981,-14.90168 2.88672,-68.75233 22.11087,-70.6714c15.88405,-1.58565 73.26209,-29.67958 92.71297,-21.29724c42.9919,18.52732 62.70501,110.11732 54.542,137.33159z" fill="url(#color-28)"/><path d="M90.51601,385.55259c-8.16301,27.21427 -56.56422,92.64873 -99.55612,74.12141c-42.9919,-18.52732 -77.97272,-92.27007 -69.80971,-119.48435c4.46981,-14.90168 2.88672,-68.75233 22.11087,-70.6714c15.88405,-1.58565 73.26209,-29.67958 92.71297,-21.29724c42.9919,18.52732 62.705,110.11731 54.54199,137.33159z" fill="url(#color-29)"/><path d="M234.98896,361.3287c12.64038,24.63319 -8.65894,67.85974 -47.57334,96.54922c-38.91441,28.68947 -75.08467,58.3518 -87.72506,33.71862c-6.92148,-13.48836 -43.00612,-45.62456 -32.25537,-64.82337c8.88287,-15.86311 32.54525,-119.35073 50.15135,-132.33074c24.29179,-17.90901 54.66864,-28.57649 80.4567,-4.33786c15.52332,14.59063 32.19592,61.96789 36.94572,71.22415z" fill="url(#color-30)"/><path d="M224.48535,493.08972c-20.93819,14.3695 -93.18458,26.55217 -115.88488,-20.97056c-22.7003,-47.52273 -9.42766,-130.84711 11.51053,-145.21662c11.46509,-7.86828 39.39666,-50.08916 55.06813,-36.60592c12.94863,11.1406 71.82445,34.35914 82.09477,55.85992c22.7003,47.52273 -11.85034,132.56369 -32.78852,146.9332z" fill="url(#color-31)"/><path d="M203.13679,483.79292c-20.93819,14.3695 -93.18458,26.55217 -115.88488,-20.97056c-22.7003,-47.52273 -9.42767,-130.84713 11.51052,-145.21663c11.46509,-7.86828 39.39667,-50.08915 55.06811,-36.60591c12.94863,11.1406 71.82446,34.35915 82.09478,55.85992c22.7003,47.52273 -11.85034,132.5637 -32.78854,146.9332z" fill="url(#color-32)"/><path d="M114.67812,436.20868c-20.93819,14.3695 -93.18458,26.55217 -115.88488,-20.97056c-22.7003,-47.52273 -9.42768,-130.84712 11.51051,-145.21662c11.46509,-7.86828 39.39666,-50.08916 55.06811,-36.60591c12.94863,11.1406 71.82446,34.35915 82.09478,55.85992c22.7003,47.52273 -11.85034,132.5637 -32.78854,146.9332z" fill="url(#color-33)"/><path d="M28.71186,469.58998c-15.51544,22.14706 -79.81723,63.46293 -114.80417,28.24804c-34.98693,-35.21489 -46.51705,-118.91104 -31.00161,-141.0581c8.49577,-12.12704 22.55716,-63.30731 41.14763,-57.134c15.36048,5.10072 77.30429,2.54182 93.13347,18.47413c34.98693,35.21489 27.04011,129.32288 11.52467,151.46994z" fill="url(#color-34)"/><path d="M36.75679,527.1384c-23.79305,4.79695 -95.09305,-13.73948 -102.67107,-67.74182c-7.57802,-54.00234 28.93033,-126.67353 52.72338,-131.47049c13.02833,-2.62666 51.42338,-30.65356 62.23401,-11.50311c8.93235,15.82316 57.46751,62.02779 60.89605,86.46013c7.57802,54.00234 -49.38932,119.45833 -73.18237,124.25529z" fill="url(#color-35)"/><path d="M512.00706,411.50567c-5.03798,28.28226 -45.3416,41.94003 -90.02066,30.50548c-44.67906,-11.43455 -87.93264,-19.89486 -82.89466,-48.17713c2.75864,-15.48648 -4.84727,-68.59371 13.98736,-73.59184c15.56222,-4.12973 67.59232,3.24681 87.80652,8.42016c44.67906,11.43455 76.15942,54.56105 71.12144,82.84331z" fill="url(#color-36)"/><path d="M354.83986,293.54778c23.74211,5.14683 36.39763,53.00298 28.26691,106.88969c-8.13073,53.88671 -13.82613,105.97217 -37.56825,100.82535c-13.00044,-2.81824 -57.04599,7.96306 -61.80575,-14.44452c-3.93276,-18.51438 -52.46356,-108.68254 -48.78496,-133.06257c5.0755,-33.63805 18.71108,-67.87845 50.9792,-74.73454c19.42404,-4.12707 59.99142,12.59261 68.91285,14.5266z" fill="url(#color-37)"/><path d="M413.39487,386.66743c-5.03798,28.28226 -45.66435,100.91925 -90.34341,89.4847c-44.67906,-11.43455 -87.6099,-78.87409 -82.57191,-107.15635c2.75864,-15.48648 -4.84728,-68.59371 13.98736,-73.59184c15.56222,-4.12973 69.27023,-41.21075 89.48443,-36.0374c44.67906,11.43455 74.48152,99.01861 69.44354,127.30087z" fill="url(#color-38)"/><path d="M355.47674,428.4542c-5.03798,28.28226 -45.66435,100.91925 -90.34341,89.4847c-44.67906,-11.43455 -87.60991,-78.87409 -82.57193,-107.15635c2.75864,-15.48648 -4.84727,-68.59371 13.98736,-73.59182c15.56222,-4.12973 69.27023,-41.21076 89.48444,-36.03741c44.67906,11.43455 74.48152,99.01862 69.44354,127.30089z" fill="url(#color-39)"/><path d="M319.91205,391.14755c-5.03798,28.28226 -45.66435,100.91925 -90.34341,89.4847c-44.67906,-11.43455 -87.6099,-78.87407 -82.57191,-107.15634c2.75864,-15.48648 -4.84728,-68.59371 13.98736,-73.59182c15.56222,-4.12973 69.27023,-41.21076 89.48444,-36.03741c44.67906,11.43455 74.48151,99.01862 69.44353,127.30088z" fill="url(#color-40)"/><path d="M460.35891,343.87301c15.28736,22.37378 -0.97265,68.63896 -36.31773,103.33619c-35.34508,34.69723 -67.86185,69.91649 -83.14921,47.54273c-8.37088,-12.25118 -47.73102,-38.28372 -39.23016,-59.04003c7.02389,-17.15 18.86967,-123.51031 34.86089,-139.20842c22.06369,-21.65927 50.96909,-37.12282 79.24064,-17.25773c17.01828,11.95794 38.85112,56.22002 44.59556,64.62728z" fill="url(#color-41)"/><path d="M464.72228,476.13079c-19.13732,17.6117 -89.36265,41.32064 -117.18482,-2.11471c-27.82217,-43.43535 -24.01141,-128.14182 -4.87409,-145.75353c10.47899,-9.64361 33.42385,-55.98051 50.46478,-45.14377c14.08015,8.95391 75.02501,22.4787 87.61263,42.13022c27.82217,43.43535 3.11884,133.2701 -16.01847,150.88179z" fill="url(#color-42)"/><path d="M442.52509,470.35694c-19.13732,17.6117 -89.36265,41.32064 -117.18482,-2.11471c-27.82217,-43.43535 -24.01142,-128.14184 -4.8741,-145.75353c10.47899,-9.64361 33.42385,-55.98049 50.46476,-45.14375c14.08015,8.95391 75.02502,22.4787 87.61264,42.13021c27.82217,43.43535 3.11884,133.2701 -16.01848,150.8818z" fill="url(#color-43)"/><path d="M349.53406,437.45238c-19.13732,17.6117 -89.36264,41.32064 -117.18481,-2.11471c-27.82217,-43.43535 -24.01143,-128.14182 -4.87411,-145.75352c10.47899,-9.64361 33.42385,-55.98051 50.46477,-45.14375c14.08015,8.95391 75.02501,22.4787 87.61263,42.13021c27.82217,43.43535 3.11884,133.2701 -16.01848,150.8818z" fill="url(#color-44)"/><path d="M262.45999,391.64925c-12.89181,24.44527 -71.97847,75.74354 -110.59602,46.48342c-38.61754,-29.26012 -59.42625,-110.34 -46.53444,-134.78527c7.05915,-13.38547 15.25519,-66.36642 34.36914,-63.24347c15.793,2.58033 76.88811,-9.93269 94.35989,3.3055c38.61754,29.26012 41.29323,123.79457 28.40142,148.23984z" fill="url(#color-45)"/><path d="M211.44577,448.32101c-23.03947,8.58581 -95.77089,1.70184 -109.33438,-50.59011c-13.56348,-52.29195 14.46658,-130.18443 37.50604,-138.77025c12.61569,-4.70132 47.5204,-38.65833 60.37993,-21.42285c10.62526,14.2409 63.90021,52.20887 70.03676,75.86738c13.56348,52.29195 -35.5489,126.33002 -58.58837,134.91584z" fill="url(#color-46)"/><path d="M539.61305,295.93459c23.74211,5.14683 36.39763,53.00298 28.2669,106.88969c-8.13072,53.88671 -13.82613,105.97217 -37.56824,100.82535c-13.00044,-2.81824 -57.04599,7.96306 -61.80575,-14.44452c-3.93277,-18.51437 -52.46355,-108.68254 -48.78496,-133.06257c5.0755,-33.63805 18.71108,-67.87845 50.9792,-74.73454c19.42404,-4.12707 59.99142,12.5926 68.91285,14.5266z" fill="url(#color-47)"/><path d="M598.16806,389.05424c-5.03799,28.28226 -45.66435,100.91925 -90.34341,89.4847c-44.67906,-11.43455 -87.6099,-78.87409 -82.57191,-107.15635c2.75865,-15.48648 -4.84728,-68.59371 13.98736,-73.59184c15.56221,-4.12973 69.27023,-41.21075 89.48443,-36.03741c44.67906,11.43455 74.48153,99.01862 69.44355,127.30088z" fill="url(#color-48)"/><path d="M645.1321,346.25982c15.28736,22.37377 -0.97265,68.63896 -36.31773,103.33619c-35.34508,34.69723 -67.86185,69.91649 -83.14921,47.54273c-8.37088,-12.25117 -47.73102,-38.28372 -39.23016,-59.04003c7.02389,-17.15001 18.86967,-123.51031 34.86089,-139.20842c22.06369,-21.65927 50.96909,-37.12282 79.24064,-17.25773c17.01828,11.95794 38.85112,56.22002 44.59557,64.62727z" fill="url(#color-49)"/><path d="M653.09121,437.95411c-19.13732,17.6117 -89.36264,41.32064 -117.18482,-2.11471c-27.82218,-43.43535 -24.01142,-128.14183 -4.8741,-145.75354c10.47899,-9.64361 33.42385,-55.98049 50.46476,-45.14376c14.08015,8.95391 75.02501,22.4787 87.61264,42.13021c27.82217,43.43535 3.11884,133.2701 -16.01848,150.8818z" fill="url(#color-50)"/><path d="M534.30725,439.83919c-19.13732,17.6117 -89.36264,41.32064 -117.18482,-2.11471c-27.82218,-43.43535 -24.01143,-128.14182 -4.87411,-145.75352c10.47899,-9.64361 33.42385,-55.98051 50.46476,-45.14376c14.08015,8.95391 75.02501,22.4787 87.61264,42.13021c27.82217,43.43535 3.11885,133.2701 -16.01848,150.8818z" fill="url(#color-51)"/></g></g></svg>