<svg version="1.1" xmlns="http://www.w3.org/2000/svg" xmlns:xlink="http://www.w3.org/1999/xlink" width="51.81665" height="51.81832" viewBox="0,0,51.81665,51.81832"><defs><linearGradient x1="239.92199" y1="155.09001" x2="239.92199" y2="204.90833" gradientUnits="userSpaceOnUse" id="color-1"><stop offset="0" stop-color="#4fb020"/><stop offset="1" stop-color="#256607"/></linearGradient></defs><g transform="translate(-213.96661,-154.09001)"><g data-paper-data="{&quot;isPaintingLayer&quot;:true}" fill-rule="nonzero" stroke-linecap="butt" stroke-linejoin="miter" stroke-miterlimit="10" stroke-dasharray="" stroke-dashoffset="0" style="mix-blend-mode: normal"><path d="M214.96663,198.72527c0,-11.25908 0,-34.36061 0,-38.83371c0,-1.96596 2.20029,-4.88183 5.04715,-4.79986c6.01019,0.17305 28.98107,0 38.72378,0c3.13463,0 5.92554,1.84509 6.0457,4.68375c0.21175,5.00233 0,27.097 0,38.60767c0,3.94876 -2.69927,6.52521 -6.79115,6.52521c-11.1123,0 -32.49513,0 -37.97835,0c-2.51898,0 -5.04715,-2.43555 -5.04715,-6.18307z" fill="#0a0d10" stroke="url(#color-1)" stroke-width="2"/><g stroke="none" stroke-width="1"><path d="M246.4382,167.30519v-0.0001h0.07818c2.28585,0 4.13894,1.85309 4.13894,4.13894v0c0,2.28585 -1.85309,4.13895 -4.13894,4.13895h-0.07812h-4.31611c-0.60764,0 -1.10015,0.49251 -1.10015,1.10015v0c0,0.60764 0.49251,1.10015 1.10015,1.10015h4.31611h0.0778c2.28591,-0.00016 4.13916,1.85293 4.13916,4.13895v0c0,2.28585 -1.85309,4.13895 -4.13894,4.13895h-0.07812v0.07812c0,2.28585 -1.85309,4.13895 -4.13894,4.13895v0c-2.28602,0 -4.13911,-1.85315 -4.13895,-4.13916v-0.0778v-4.31611c0,-0.60764 -0.49251,-1.10015 -1.10015,-1.10015v0c-0.60764,0 -1.10015,0.49251 -1.10015,1.10015v4.31611v0.07812c0,2.28585 -1.85309,4.13895 -4.13894,4.13895v0c-2.28585,0 -4.13895,-1.85309 -4.13895,-4.13895v-0.07812h-0.07812c-2.28585,0 -4.13895,-1.85309 -4.13895,-4.13894v0c0,-2.28585 1.85309,-4.13895 4.13895,-4.13895h0.07812h4.31622c0.60764,0 1.10015,-0.49251 1.10015,-1.10015v0c0,-0.60764 -0.49251,-1.10015 -1.10015,-1.10015h-4.31611h-0.07812c-2.28585,0 -4.13894,-1.85309 -4.13894,-4.13895v0c0,-2.28585 1.85309,-4.13894 4.13894,-4.13894h0.07812v-0.07812c0,-2.28585 1.85309,-4.13895 4.13894,-4.13895v0c2.28585,0 4.13895,1.85309 4.13895,4.13895v0.07812v4.31611c0,0.60764 0.49251,1.10015 1.10015,1.10015v0c0.60764,0 1.10015,-0.49251 1.10015,-1.10015v-4.31611v-0.07812c0,-2.28585 1.85309,-4.13895 4.13894,-4.13895v0c2.28585,0 4.13895,1.85309 4.13895,4.13895v0.07812z" fill="#8cc63f"/><g fill="#7eaf31"><path d="M230.31922,165.72603c-0.74869,0.7488 -1.21141,1.78357 -1.21194,2.92632v0.07839h-0.07839c-2.28543,0 -4.13873,1.8533 -4.13873,4.13873c0,0.7778 0.21428,1.50514 0.58741,2.12664c-0.29219,-0.17515 -0.56038,-0.38534 -0.8002,-0.62506c-0.74917,-0.74927 -1.21242,-1.78358 -1.21242,-2.9268c0,-2.28543 1.8533,-4.13873 4.13873,-4.13873h0.07838v-0.07839c0.00048,-1.14274 0.46325,-2.17752 1.21194,-2.92626c0.74928,-0.74927 1.78458,-1.21252 2.9268,-1.21252c1.50875,0 2.82855,0.80679 3.55186,2.01262c-0.6215,-0.37307 -1.34885,-0.58741 -2.12664,-0.58741c-1.14221,0.00005 -2.17746,0.46324 -2.9268,1.21247z"/><path d="M240.87426,164.51356c-0.7778,0 -1.50514,0.21433 -2.12664,0.58741c0.72331,-1.20583 2.04316,-2.01262 3.55186,-2.01262c1.14216,0 2.17746,0.46319 2.92674,1.21241c0.74869,0.74875 1.21146,1.78352 1.21194,2.92626v0.07839h0.07839c2.28543,0 4.13873,1.8533 4.13873,4.13873c0,1.14322 -0.46314,2.17752 -1.21242,2.9268c-0.23983,0.23972 -0.50802,0.44991 -0.80021,0.62506c0.37312,-0.6215 0.58741,-1.34885 0.58741,-2.12664c0,-2.28543 -1.8533,-4.13873 -4.13873,-4.13873h-0.07839v-0.07839c-0.00053,-1.14269 -0.46314,-2.17746 -1.21194,-2.92626c-0.74928,-0.74922 -1.78459,-1.21247 -2.92674,-1.21241z"/><path d="M243.8011,187.64051c0.7488,-0.74869 1.21141,-1.78357 1.21194,-2.92626v-0.07839h0.07838c2.28543,0 4.13874,-1.8533 4.13874,-4.13873c0,-0.7778 -0.21428,-1.50514 -0.58741,-2.12664c0.29219,0.17515 0.56038,0.38534 0.8002,0.62506c0.74928,0.74928 1.21241,1.78358 1.21241,2.9268c0,2.28543 -1.8533,4.13873 -4.13873,4.13873h-0.07838v0.07839c-0.00048,1.14274 -0.46325,2.17752 -1.21194,2.92626c-0.74928,0.74928 -1.78458,1.21241 -2.9268,1.21241c-1.50875,0 -2.82855,-0.80679 -3.55186,-2.01262c0.6215,0.37307 1.34885,0.58741 2.12664,0.58741c1.14221,0.00005 2.17746,-0.46314 2.92679,-1.21241z"/><path d="M233.24612,188.85298c0.7778,0 1.50514,-0.21434 2.12664,-0.58741c-0.72331,1.20583 -2.04311,2.01263 -3.55186,2.01263c-1.14221,0 -2.17752,-0.46314 -2.9268,-1.21242c-0.74869,-0.74875 -1.21146,-1.78352 -1.21194,-2.92626v-0.07839h-0.07839c-2.28543,0 -4.13873,-1.8533 -4.13873,-4.13873c0,-1.14322 0.4632,-2.17752 1.21242,-2.9268c0.23983,-0.23972 0.50801,-0.44991 0.8002,-0.62506c-0.37312,0.6215 -0.58741,1.34885 -0.58741,2.12664c0,2.28543 1.8533,4.13873 4.13873,4.13873h0.07839v0.07839c0.00053,1.14269 0.46314,2.17757 1.21194,2.92626c0.74928,0.74927 1.78453,1.21253 2.9268,1.21242z"/><path d="M244.32553,183.25292c0.21035,0.21126 0.20961,0.5531 -0.00165,0.76346c-0.10536,0.10488 -0.24317,0.1573 -0.38093,0.1573c-0.1385,0 -0.27706,-0.053 -0.38258,-0.15895l-5.79342,-5.81912l-0.7078,-0.71035l-6.52958,6.5025c-0.10531,0.10488 -0.24312,0.1573 -0.38088,0.1573c-0.1385,0 -0.27706,-0.05305 -0.38258,-0.159c-0.2103,-0.21126 -0.20961,-0.5531 0.00175,-0.76346l3.69769,-3.6808l2.832,-2.82069l-0.889,-0.89219l-5.61376,-5.63713c-0.21041,-0.21126 -0.20972,-0.5531 0.00165,-0.76346c0.2111,-0.21041 0.55299,-0.20966 0.76346,0.00159l5.6136,5.63692l0.88911,0.89219l6.52815,-6.50212c0.2111,-0.21041 0.55299,-0.20966 0.76346,0.0016c0.21041,0.21126 0.20977,0.55305 -0.00159,0.76346l-6.52841,6.50138l0.7078,0.7103z"/></g></g><text transform="translate(241.1677,199.61341) scale(0.22124,0.18694)" font-size="40" xml:space="preserve" fill="#ccd7b9" fill-rule="nonzero" stroke="none" stroke-width="1" stroke-linecap="butt" stroke-linejoin="miter" stroke-miterlimit="10" stroke-dasharray="" stroke-dashoffset="0" font-family="Sans Serif" font-weight="normal" text-anchor="start" style="mix-blend-mode: normal"><tspan x="0" dy="0">0.1%</tspan></text></g></g></svg>