<svg version="1.1" xmlns="http://www.w3.org/2000/svg" xmlns:xlink="http://www.w3.org/1999/xlink" width="689.77176" height="498.15173" viewBox="0,0,689.77176,498.15173"><defs><linearGradient x1="9.14039" y1="-33.90255" x2="9.14039" y2="287.55176" gradientUnits="userSpaceOnUse" id="color-1"><stop offset="0" stop-color="#344e5f"/><stop offset="1" stop-color="#070b0d"/></linearGradient><linearGradient x1="509.29545" y1="11.36431" x2="509.29545" y2="290.14856" gradientUnits="userSpaceOnUse" id="color-2"><stop offset="0" stop-color="#344e5f"/><stop offset="1" stop-color="#070b0d"/></linearGradient></defs><g transform="translate(116.60661,86.28126)"><g data-paper-data="{&quot;isPaintingLayer&quot;:true}" fill-rule="nonzero" stroke="none" stroke-width="0" stroke-linecap="butt" stroke-linejoin="miter" stroke-miterlimit="10" stroke-dasharray="" stroke-dashoffset="0" style="mix-blend-mode: normal"><path d="M548.32548,291.38343c-0.068,0.00969 1.51221,1.61178 2.63724,3.36386c0.82775,1.28909 1.27486,2.82403 1.32192,3.02638c0.51918,2.23272 -3.0906,3.50589 -3.87638,3.43608c-0.5871,-0.05215 0.59266,-5.43838 -1.0184,-7.3289c-1.95197,-2.29056 -4.58734,-1.87924 -5.08294,-2.31025c-0.8326,-0.72408 -0.87997,-2.51697 -0.98926,-3.28411c-0.0979,-0.68722 0.934,-1.23124 2.07151,-1.68024c1.10789,-0.43732 2.31136,-0.76891 3.0065,-2.20724c0.81586,-1.68813 0.46247,-2.88308 1.02518,-4.55872c0.21964,-0.65403 0.22666,-1.50104 1.26328,-2.27116c0.92431,-0.68667 2.84028,-1.29243 3.74252,-1.95548c0.6783,-0.49847 1.81124,-1.92389 1.83152,-1.92677c0.36418,-0.05188 1.16551,-1.04417 1.2716,-0.16076c0.06528,0.54363 0.25575,0.39216 0.02486,1.40821c-0.10172,0.44761 -0.80462,1.41826 -1.76491,1.99343c-0.72285,0.43296 -2.3882,0.46972 -2.54728,1.3567c-0.01725,0.09615 1.01418,0.02569 1.74086,0.00151c0.83334,-0.02772 1.88474,0.12955 1.63932,0.66253c-0.22671,0.49237 -1.94971,0.88094 -3.0511,1.27164c-1.23976,0.43977 -1.79028,1.25459 -2.10386,2.53213c-0.16951,0.69057 0.20217,1.73381 0.21445,1.98488c0.02442,0.49853 4.5766,-0.89589 6.64773,-2.88413c2.07113,-1.98824 2.79962,-6.40533 3.11657,-6.48942c1.65423,-0.43889 1.6208,3.28561 2.34305,5.04707c0.49137,1.19839 -5.13725,2.41304 -4.82067,3.66897c0.09221,0.36581 1.19317,0.75141 1.81737,1.18887c1.19863,0.84001 2.98648,0.04883 4.41407,0.59541c1.44218,0.55217 2.13518,3.1719 1.71306,3.26067c-1.2922,0.27175 -4.08104,-0.60388 -5.76825,-0.26553c-1.56563,0.31397 -1.1472,1.8434 -2.15855,1.90462c-1.2658,0.07662 -1.0132,-4.31744 -1.74284,-4.58717c-1.31914,-0.48763 -4.62949,2.13603 -4.50311,2.45919c0.53059,1.35666 1.333,0.73989 2.43313,1.48273c1.1912,0.80434 2.87679,3.28868 4.30559,2.62053c0.76787,-0.35908 1.32434,-0.45042 2.03444,-0.56545c0.7323,-0.11862 1.61388,-0.25536 2.11343,-0.26449c0.75232,-0.01375 2.25997,1.71624 2.26215,1.76273c0.04909,1.04772 -4.53093,0.13407 -4.34826,0.78317c0.32199,1.14416 6.85522,1.56391 7.77495,3.09417c0.51596,0.85846 -3.57632,0.46619 -4.22767,1.39443c-1.06318,1.51515 0.74025,4.22167 -0.08642,4.34492c-0.55665,0.08299 -1.47648,-3.80894 -3.54811,-5.91648c-2.11305,-2.14969 -5.89901,-1.76594 -5.98095,-1.83339c-0.33348,-0.27448 -1.06798,-1.96979 -2.4248,-2.97039c-1.11681,-0.8236 -2.37001,-1.23498 -2.72258,-1.18475z" data-paper-data="{&quot;index&quot;:null}" fill="#080c0e"/><path d="M543.60583,200.57836c-0.06801,0.00969 1.51221,1.61179 2.63723,3.36386c0.82774,1.28909 1.27486,2.82403 1.32192,3.02638c0.51918,2.23272 -3.0906,3.50588 -3.87638,3.43608c-0.5871,-0.05215 0.59265,-5.43838 -1.0184,-7.3289c-1.95197,-2.29056 -4.58734,-1.87924 -5.08294,-2.31025c-0.8326,-0.72408 -0.87997,-2.51697 -0.98926,-3.28411c-0.0979,-0.68722 0.934,-1.23124 2.07151,-1.68024c1.10788,-0.43731 2.31137,-0.76891 3.0065,-2.20724c0.81585,-1.68812 0.46247,-2.88308 1.02518,-4.55871c0.21963,-0.65403 0.22666,-1.50105 1.26329,-2.27116c0.92431,-0.68666 2.84027,-1.29243 3.74252,-1.95548c0.6783,-0.49847 1.81124,-1.92389 1.83153,-1.92677c0.36418,-0.05188 1.16551,-1.04417 1.27159,-0.16076c0.06528,0.54363 0.25574,0.39216 0.02486,1.40821c-0.10172,0.44762 -0.80462,1.41825 -1.76492,1.99343c-0.72286,0.43296 -2.3882,0.46973 -2.54727,1.3567c-0.01725,0.09614 1.01418,0.02569 1.74086,0.00151c0.83334,-0.02772 1.88474,0.12956 1.63933,0.66253c-0.22671,0.49236 -1.94971,0.88094 -3.0511,1.27163c-1.23976,0.43977 -1.79028,1.2546 -2.10386,2.53213c-0.16951,0.69057 0.20217,1.7338 0.21446,1.98488c0.02442,0.49853 4.5766,-0.89589 6.64773,-2.88413c2.07113,-1.98824 2.79962,-6.40533 3.11657,-6.48942c1.65424,-0.43888 1.6208,3.28562 2.34305,5.04707c0.49137,1.19839 -5.13725,2.41304 -4.82067,3.66897c0.09221,0.36581 1.19317,0.75142 1.81738,1.18887c1.19863,0.84002 2.98648,0.04882 4.41407,0.59541c1.44218,0.55217 2.13519,3.1719 1.71306,3.26068c-1.2922,0.27174 -4.08104,-0.60388 -5.76825,-0.26552c-1.56563,0.31397 -1.1472,1.8434 -2.15856,1.90461c-1.2658,0.07662 -1.0132,-4.31744 -1.74284,-4.58716c-1.31914,-0.48763 -4.62949,2.13603 -4.50311,2.45918c0.53059,1.35666 1.33301,0.73989 2.43313,1.48273c1.19121,0.80434 2.87678,3.28868 4.30559,2.62053c0.76787,-0.35909 1.32435,-0.45042 2.03445,-0.56545c0.7323,-0.11862 1.61388,-0.25536 2.11343,-0.26449c0.75232,-0.01374 2.25997,1.71624 2.26215,1.76273c0.0491,1.04772 -4.53093,0.13408 -4.34827,0.78318c0.32198,1.14417 6.85522,1.56391 7.77495,3.09417c0.51596,0.85846 -3.57632,0.46619 -4.22767,1.39443c-1.06318,1.51515 0.74025,4.22166 -0.08642,4.34492c-0.55665,0.08299 -1.47648,-3.80893 -3.54811,-5.91648c-2.11305,-2.14969 -5.89901,-1.76594 -5.98096,-1.83339c-0.33349,-0.27448 -1.06798,-1.9698 -2.4248,-2.97039c-1.11681,-0.82361 -2.37001,-1.23498 -2.72257,-1.18476z" data-paper-data="{&quot;index&quot;:null}" fill="#152128"/><path d="M525.24134,6.14817c2.44545,-12.91792 -10.04837,-21.75652 -3.71506,-20.55759c1.59903,0.3027 5.66725,-4.66597 9.67509,-2.30854c1.65888,0.97577 3.9422,9.06804 5.02992,10.02064c1.14131,0.99954 0.99756,-4.87535 2.4764,-4.11309c2.62591,1.35349 4.61918,-0.98395 3.92486,1.88751c-0.22673,0.93769 -4.49701,6.13806 -8.387,6.74803c-0.67414,0.10572 2.82706,6.18732 5.64811,5.99263c1.93908,-0.13382 2.86689,-6.94432 4.67171,-5.77049c4.28608,2.78762 -1.22065,8.4125 -1.44303,9.50678c-0.21009,1.03375 -0.65817,0.0533 -3.6938,-0.14967c-5.9149,-0.39549 -9.11405,1.82468 -9.20892,2.32586c-0.15527,0.82025 12.81797,0.60484 16.78844,3.36973c1.24437,0.86653 -7.63033,1.01289 -8.35754,2.39858c-1.02987,1.96237 5.60855,5.14782 5.56019,5.47901c-0.73377,5.02526 -11.6061,-5.27447 -15.82931,-4.27728c-1.07212,0.25315 2.83626,4.76908 6.35312,9.1104c0.69921,0.86312 10.01219,-0.04093 10.63822,0.77351c0.96362,1.25362 -2.23739,2.06064 -4.0072,3.45957c-1.52282,1.2037 -1.58753,3.06793 -1.65453,3.45099c-0.31215,1.7847 -7.82964,-5.88662 -11.69702,-7.30501c-3.93981,-1.44495 -4.23563,3.34404 -5.09488,3.18138c-6.3333,-1.19893 -0.12321,-10.30502 2.32222,-23.22295z" data-paper-data="{&quot;index&quot;:null}" fill="#344e5f"/><path d="M542.60916,88.00492c0.17598,-0.4046 0.09691,-2.03686 -0.51945,-3.64183c-0.74881,-1.94989 -2.53217,-3.38498 -2.75033,-3.87361c-0.05361,-0.12007 1.65032,-4.51607 -0.22225,-7.74727c-1.83585,-3.16787 -6.18203,-5.54701 -5.89977,-6.1846c0.41921,-0.94688 3.05874,2.09769 5.21833,1.32621c1.32305,-0.47264 2.20082,-5.4898 3.05649,-4.59107c1.52528,1.60204 -0.12272,9.54391 1.13802,10.30494c0.71524,0.43175 1.13072,-5.33958 2.36604,-4.93625c0.05481,0.0179 1.62524,2.3879 1.36131,3.28201c-0.17524,0.5937 -0.62863,1.60173 -1.01123,2.43742c-0.37102,0.81036 -0.6632,1.44501 -1.34473,2.24407c-1.26816,1.48685 1.14479,4.31758 1.71365,6.00507c0.52538,1.55847 -0.47533,2.31402 0.97061,3.39413c0.34441,0.2573 4.56738,-2.83368 4.41891,-4.56979c-0.08211,-0.96028 -5.41382,-2.10416 -4.90586,-3.59092c0.40586,-1.18791 2.09504,-0.18494 2.98516,-1.95174c0.95924,-1.90401 0.83082,-5.52328 1.58054,-6.97738c0.24492,-0.47499 3.14615,1.21465 3.33122,3.11895c0.18321,1.88504 -1.35004,3.76029 -0.741,5.46839c0.31717,0.88953 0.41556,2.33145 0.82218,2.56194c1.39602,0.79136 4.69866,-5.5323 5.96845,-4.5511c1.86641,1.4422 6.32623,2.6276 5.25777,4.45916c-0.2047,0.35091 -5.72049,-0.2321 -8.77678,1.58768c-3.05627,1.81978 -6.21951,6.7985 -5.63205,6.99169c0.29585,0.09728 1.41969,0.88445 2.30033,0.90917c1.62913,0.04574 2.78356,-0.34377 3.71673,-1.67996c0.82902,-1.18705 1.86002,-3.1173 2.52272,-3.22611c0.71735,-0.11779 0.55933,1.18983 0.25204,2.17611c-0.26794,0.86005 -0.69142,2.06888 -0.57091,2.07991c1.11182,0.10181 1.70361,-1.87531 2.45859,-2.59631c1.00295,-0.95784 2.3936,-1.47809 2.96173,-1.45233c1.2896,0.05847 1.04602,0.23616 1.67389,0.49298c1.02031,0.41733 -0.42859,1.04803 -0.61037,1.46598c-0.01012,0.02328 -2.08549,0.9076 -2.90404,1.55382c-1.08882,0.85958 -2.44273,2.94886 -3.56702,3.82701c-1.2609,0.98487 -2.27497,0.71459 -3.12845,0.76177c-2.18665,0.12087 -3.49772,-0.69437 -5.78256,-0.27523c-1.94675,0.35713 -2.73878,1.68556 -3.62562,2.86503c-0.91056,1.211 -1.89987,2.26463 -2.68852,1.92159c-0.88037,-0.38292 -3.00636,-1.02936 -3.59734,-2.26209c-0.35178,-0.73378 1.00654,-3.74635 -1.08729,-6.8315c-1.72814,-2.54634 -8.54999,-2.90918 -8.41914,-3.62761c0.17514,-0.96156 2.88347,-4.8545 5.37961,-3.49981c0.22621,0.12278 1.91256,1.16185 3.18003,2.57466c1.72269,1.92023 3.11649,4.33485 3.15042,4.2568z" data-paper-data="{&quot;index&quot;:null}" fill="#293e4c"/><path d="M546.7513,122.20687c0.32646,-0.14229 1.17724,-1.15023 1.69557,-2.43744c0.62972,-1.56384 0.3651,-3.39237 0.50488,-3.80105c0.03435,-0.10041 3.4583,-1.76092 4.12859,-4.69977c0.65716,-2.88123 -0.60264,-6.67677 -0.08528,-6.89829c0.76835,-0.32898 0.65386,2.92133 2.35407,3.65296c1.04162,0.44824 4.31902,-2.03357 4.33042,-1.03205c0.02033,1.78525 -5.32035,5.57163 -4.99387,6.71452c0.18521,0.64837 3.60412,-2.53321 4.11224,-1.61565c0.02254,0.04071 -0.35274,2.30457 -1.00031,2.68774c-0.43001,0.25443 -1.25216,0.60075 -1.93774,0.88414c-0.66479,0.2748 -1.18642,0.48915 -2.02848,0.58653c-1.56688,0.18121 -1.69765,3.18054 -2.28941,4.49041c-0.54651,1.20971 -1.55324,1.1059 -1.2928,2.53915c0.06203,0.3414 4.25682,0.8371 5.12371,-0.27034c0.47948,-0.61254 -2.04182,-4.22011 -0.92418,-4.81927c0.89299,-0.47872 1.33957,1.04273 2.83701,0.48822c1.61372,-0.59755 3.52795,-2.80665 4.77048,-3.25358c0.4059,-0.146 1.19104,2.4476 0.2533,3.67455c-0.92825,1.21454 -2.86531,1.47947 -3.44466,2.82361c-0.30171,0.69998 -1.03644,1.60605 -0.92292,1.96582c0.38973,1.23519 5.81825,-0.68522 6.029,0.59275c0.30976,1.8784 2.29311,5.03108 0.65469,5.52577c-0.31392,0.09478 -3.25241,-3.28259 -6.05887,-3.88788c-2.80649,-0.60528 -7.4131,0.59711 -7.17222,1.03427c0.12132,0.22017 0.3525,1.30323 0.85925,1.80205c0.93745,0.92282 1.83372,1.32744 3.1198,1.05106c1.14255,-0.24554 2.81308,-0.81914 3.26448,-0.51904c0.48862,0.32485 -0.32375,1.01057 -1.04763,1.42436c-0.63123,0.36083 -1.54614,0.84222 -1.481,0.915c0.60095,0.67147 2.03776,-0.17131 2.88029,-0.18218c1.11928,-0.01446 2.22703,0.4428 2.54855,0.77042c0.72981,0.74366 0.48819,0.71469 0.71796,1.21169c0.37337,0.80762 -0.82952,0.3836 -1.16673,0.53059c-0.01878,0.00819 -1.73129,-0.61045 -2.57027,-0.67872c-1.11598,-0.09082 -3.06476,0.39919 -4.21193,0.29986c-1.28657,-0.11142 -1.73712,-0.82871 -2.26736,-1.27012c-1.35845,-1.13092 -1.68485,-2.33352 -3.26534,-3.34221c-1.34662,-0.85942 -2.54506,-0.51 -3.71759,-0.30074c-1.2039,0.21485 -2.36777,0.29341 -2.64514,-0.34293c-0.30962,-0.71033 -1.21034,-2.26128 -0.88169,-3.31461c0.19562,-0.627 2.65469,-1.66012 3.11393,-4.63434c0.37903,-2.45477 -3.45223,-6.42021 -2.97986,-6.77275c0.6322,-0.47183 4.37303,-1.28281 5.103,0.89015c0.06615,0.19694 0.49122,1.73813 0.46326,3.26984c-0.038,2.08182 -0.54216,4.27491 -0.47919,4.24746z" data-paper-data="{&quot;index&quot;:null}" fill="#22333d"/><path d="M184.97629,134.63054c-0.01092,0.06782 1.9878,-0.96606 3.99473,-1.52075c1.4766,-0.40812 3.07509,-0.37982 3.28229,-0.36474c2.28624,0.16646 2.43136,3.99143 2.13162,4.72114c-0.22395,0.54521 -5.01783,-2.17912 -7.30114,-1.20134c-2.76647,1.18469 -3.15537,3.82346 -3.71399,4.16891c-0.93846,0.58035 -2.66471,0.09378 -3.42974,-0.0294c-0.68533,-0.11035 -0.89878,-1.25718 -0.99017,-2.47668c-0.08901,-1.18774 -0.0487,-2.43542 -1.21611,-3.52591c-1.37015,-1.27987 -2.61615,-1.29684 -4.04946,-2.33125c-0.55945,-0.40375 -1.36626,-0.6617 -1.79423,-1.88011c-0.38159,-1.08639 -0.39178,-3.09581 -0.75736,-4.15412c-0.27484,-0.79563 -1.30005,-2.30039 -1.29679,-2.32062c0.05848,-0.36318 -0.65146,-1.42278 0.22366,-1.26205c0.53853,0.09891 0.45037,-0.12791 1.35221,0.39397c0.3973,0.22991 1.11576,1.18909 1.3802,2.27678c0.19906,0.81875 -0.2598,2.42005 0.54007,2.83506c0.0867,0.04499 0.32536,-0.96092 0.51782,-1.66206c0.22071,-0.80406 0.68278,-1.76149 1.11897,-1.36903c0.40296,0.36255 0.26297,2.12327 0.30938,3.29098c0.05224,1.31441 0.6671,2.08185 1.79412,2.76026c0.60921,0.36672 1.71574,0.32121 1.95916,0.38395c0.48334,0.12455 0.50195,-4.63637 -0.78247,-7.20404c-1.28442,-2.56767 -5.28663,-4.57358 -5.27292,-4.90121c0.07155,-1.70997 3.61851,-0.57327 5.51493,-0.74053c1.29021,-0.11379 0.78062,5.62181 2.07393,5.69201c0.3767,0.02045 1.07152,-0.91658 1.67444,-1.38294c1.15775,-0.89552 0.93248,-2.83759 1.87792,-4.0388c0.9551,-1.21349 3.66249,-1.09824 3.62206,-0.66878c-0.12378,1.31465 -1.78723,3.71825 -1.96456,5.42989c-0.16456,1.5883 1.42015,1.64236 1.17862,2.62636c-0.30229,1.23156 -4.42367,-0.31304 -4.89768,0.30375c-0.85697,1.11513 0.66669,5.05473 1.01279,5.02989c1.45299,-0.1043 1.10199,-1.05355 2.13772,-1.88382c1.12148,-0.89901 3.99399,-1.77182 3.77972,-3.33451c-0.11516,-0.83982 -0.03732,-1.39835 0.06346,-2.11061c0.10394,-0.73453 0.23484,-1.61699 0.3743,-2.09677c0.21003,-0.72254 2.30936,-1.64919 2.3544,-1.63748c1.01513,0.26389 -1.21593,4.36679 -0.54186,4.38488c1.18818,0.03189 3.52693,-6.08281 5.26113,-6.50724c0.97287,-0.2381 -0.6156,3.55365 0.07766,4.45102c1.1316,1.46476 4.25124,0.5453 4.12374,1.37133c-0.08586,0.55621 -4.07547,0.28022 -6.70265,1.63347c-2.67972,1.38031 -3.43624,5.10971 -3.52496,5.16796c-0.36105,0.23706 -2.19793,0.43563 -3.55596,1.43459c-1.11781,0.82225 -1.8824,1.89703 -1.93901,2.24862z" data-paper-data="{&quot;index&quot;:null}" fill="#1b2831"/><path d="M362.77593,146.10061c-0.98908,-3.43595 5.69401,-0.13835 10.28153,-1.36412c5.47052,-1.46172 -0.83757,-8.78919 2.57226,-9.77074c6.26927,-1.80467 2.30994,7.33581 4.47847,14.86905c0.97723,3.39483 6.72192,1.77432 5.0487,4.88563c-1.2272,2.28195 0.87072,10.75817 -1.53564,11.45087c-4.64248,1.33638 -3.29498,-4.96087 -4.87397,-10.88563c-0.21026,-0.78896 -3.06564,-4.03641 -5.83744,-5.36987c-4.52211,-2.17553 -9.78505,-2.60326 -10.13391,-3.81519z" data-paper-data="{&quot;index&quot;:null}" fill="#1b2831"/><path d="M134.82757,157.72995c2.44545,-12.91792 -10.04837,-21.75652 -3.71506,-20.55759c1.59903,0.3027 5.66725,-4.66597 9.67509,-2.30854c1.65888,0.97577 3.9422,9.06804 5.02992,10.02064c1.14131,0.99954 0.99756,-4.87535 2.4764,-4.11309c2.62591,1.35349 4.61918,-0.98395 3.92486,1.88751c-0.22673,0.93769 -4.49701,6.13806 -8.387,6.74803c-0.67414,0.10572 2.82706,6.18732 5.64811,5.99263c1.93908,-0.13382 2.86689,-6.94432 4.67171,-5.77049c4.28608,2.78762 -1.22065,8.4125 -1.44303,9.50678c-0.21009,1.03375 -0.65817,0.0533 -3.6938,-0.14967c-5.9149,-0.39549 -9.11405,1.82468 -9.20892,2.32586c-0.15527,0.82025 12.81797,0.60484 16.78844,3.36973c1.24437,0.86653 -7.63033,1.01289 -8.35754,2.39858c-1.02987,1.96237 5.60855,5.14782 5.56019,5.47901c-0.73377,5.02526 -11.6061,-5.27447 -15.82931,-4.27728c-1.07212,0.25315 2.83626,4.76908 6.35312,9.1104c0.69921,0.86312 10.01219,-0.04093 10.63822,0.77351c0.96362,1.25362 -2.23739,2.06064 -4.0072,3.45957c-1.52282,1.2037 -1.58753,3.06793 -1.65453,3.45099c-0.31215,1.7847 -7.82964,-5.88662 -11.69702,-7.30501c-3.93981,-1.44495 -4.23563,3.34404 -5.09488,3.18138c-6.3333,-1.19893 -0.12321,-10.30502 2.32222,-23.22295z" data-paper-data="{&quot;index&quot;:null}" fill="#1b2831"/><path d="M167.50484,132.3686c0.60882,0.63092 5.31689,4.66614 3.72339,6.96176c-1.39846,2.01466 -8.89123,2.16728 -11.4097,4.59751c-5.38816,5.19938 -10.68281,8.45397 -11.82593,7.26934c-1.14312,-1.18463 2.29816,-6.35989 7.68631,-11.55927c1.77625,-1.71401 -1.67042,-8.34177 -0.05987,-9.54373c3.27496,-2.44411 11.11953,1.48028 11.88581,2.27438z" data-paper-data="{&quot;index&quot;:null}" fill="#1b2831"/><path d="M137.62064,94.22042c0.06821,0.0509 0.07937,-2.73709 0.62147,-5.25921c0.39885,-1.85565 1.34687,-3.59482 1.48228,-3.8137c1.49426,-2.41517 5.77793,-0.3804 6.40733,0.36734c0.47026,0.55868 -5.27141,4.26038 -5.50741,7.3287c-0.28595,3.7176 2.38876,5.65836 2.44768,6.46997c0.09899,1.36348 -1.42558,2.98008 -1.9997,3.74955c-0.5143,0.68931 -1.89615,0.26583 -3.28778,-0.33334c-1.35539,-0.58358 -2.70242,-1.34354 -4.56963,-0.68708c-2.19147,0.77047 -2.92484,2.12904 -4.88299,3.10968c-0.7643,0.38276 -1.51039,1.12081 -3.09388,0.89186c-1.41192,-0.20413 -3.62442,-1.34561 -4.99633,-1.55123c-1.03138,-0.15459 -3.27195,0.10809 -3.2923,0.0929c-0.36529,-0.27256 -1.93614,-0.10074 -1.25763,-0.96955c0.41753,-0.53465 0.11788,-0.56796 1.2083,-1.25895c0.48039,-0.30441 1.94585,-0.54319 3.29199,-0.20965c1.01331,0.25106 2.50857,1.67353 3.42316,1.03319c0.09913,-0.06941 -0.86861,-0.90851 -1.52817,-1.52206c-0.75638,-0.7036 -1.54273,-1.76025 -0.86154,-2.01413c0.62929,-0.23454 2.48254,0.92919 3.7915,1.54806c1.4734,0.69662 2.66889,0.46162 4.06038,-0.38687c0.75218,-0.45865 1.33695,-1.6999 1.54547,-1.93122c0.41404,-0.45934 -4.80355,-3.21079 -8.36003,-3.27319c-3.5565,-0.06239 -8.05511,3.18203 -8.40702,2.97904c-1.83678,-1.05947 1.44614,-4.30256 2.35031,-6.48107c0.61515,-1.48213 6.62145,2.36761 7.44041,0.9876c0.23854,-0.40194 -0.39189,-1.70247 -0.55818,-2.6321c-0.31931,-1.78509 -2.58123,-2.65175 -3.35803,-4.37904c-0.78474,-1.74494 0.89489,-4.65198 1.34331,-4.36124c1.3727,0.89005 3.05802,4.09556 4.83595,5.27215c1.64982,1.0918 2.61821,-0.61744 3.56026,0.21225c1.17905,1.03843 -2.88134,4.67833 -2.47588,5.55268c0.73301,1.58076 5.93334,2.16742 6.10458,1.77309c0.71894,-1.65544 -0.52483,-1.8145 -0.84248,-3.42818c-0.34395,-1.74726 0.34533,-5.40242 -1.49367,-6.06353c-0.98832,-0.35529 -1.55702,-0.76115 -2.28139,-1.2804c-0.747,-0.53549 -1.64101,-1.18544 -2.08787,-1.61381c-0.67299,-0.64512 -0.48635,-3.48207 -0.44766,-3.52482c0.8721,-0.9634 4.09795,3.84022 4.50448,3.11035c0.71659,-1.28652 -4.65675,-7.36242 -4.12804,-9.51032c0.2966,-1.20495 3.54934,2.7145 4.93248,2.46795c2.25766,-0.40244 3.03746,-4.35573 3.87144,-3.74189c0.56156,0.41334 -2.03008,4.63626 -2.05102,8.29759c-0.02137,3.73454 3.64015,6.70462 3.65323,6.83547c0.05321,0.53247 -0.78241,2.66357 -0.4644,4.72795c0.26175,1.69921 1.00345,3.15537 1.35708,3.41922z" data-paper-data="{&quot;index&quot;:null}" fill="#263a46"/><path d="M200.90566,154.78814c0,2.69172 -11.17546,6.99825 -27.17899,8.15505c-13.37662,0.96692 -18.08426,-5.19868 -29.70866,-5.19868c-25.53159,0 -22.96539,-2.21645 -22.96539,-7.15804c0,-4.9416 -10.32075,-16.7021 15.21085,-16.7021c5.28826,0 8.9567,11.78211 20.01062,9.16577c1.12557,-0.26641 12.95346,6.01974 13.99637,5.5634c10.79472,-4.72339 9.38748,-13.21891 16.67515,-11.73484c8.91233,1.81492 11.50992,-2.04434 14.26581,5.51446c2.95762,8.11211 5.69665,4.97676 5.69665,6.39259z" fill="#1b2831"/><path d="" data-paper-data="{&quot;index&quot;:null}" fill="#344e5f"/><path d="" data-paper-data="{&quot;index&quot;:null}" fill="#344e5f"/><path d="" data-paper-data="{&quot;index&quot;:null}" fill="#344e5f"/><path d="" data-paper-data="{&quot;index&quot;:null}" fill="#344e5f"/><path d="" data-paper-data="{&quot;index&quot;:null}" fill="#344e5f"/><path d="" data-paper-data="{&quot;index&quot;:null}" fill="#344e5f"/><path d="" data-paper-data="{&quot;index&quot;:null}" fill="#344e5f"/><path d="" data-paper-data="{&quot;index&quot;:null}" fill="#344e5f"/><path d="" data-paper-data="{&quot;index&quot;:null}" fill="#344e5f"/><path d="" data-paper-data="{&quot;index&quot;:null}" fill="#344e5f"/><path d="" data-paper-data="{&quot;index&quot;:null}" fill="#344e5f"/><path d="" data-paper-data="{&quot;index&quot;:null}" fill="#344e5f"/><path d="" data-paper-data="{&quot;index&quot;:null}" fill="#344e5f"/><path d="" data-paper-data="{&quot;index&quot;:null}" fill="#344e5f"/><path d="M121.23704,25.62124c-2.91725,-12.81961 -9.70358,-22.7758 -3.41848,-24.20605c2.24367,-0.51058 3.65756,6.54099 8.36362,8.04032c1.44554,0.46054 -1.03259,-4.86805 0.62762,-4.75985c2.94795,0.19212 3.84182,-2.74689 4.35209,0.16292c0.16664,0.95021 -1.67135,7.42331 -4.99402,9.53611c-0.57582,0.36617 5.06291,4.54336 7.57146,3.23819c1.72427,-0.89712 -0.14513,-7.51143 1.97831,-7.15609c5.04274,0.84386 2.24074,8.19995 2.4739,9.29198c0.22026,1.03163 -0.58211,0.31173 -3.44619,1.33803c-5.58064,1.99973 -7.62687,5.31284 -7.51368,5.8102c0.18524,0.81401 11.99287,-4.56477 16.73719,-3.6157c1.4869,0.29744 -6.59083,3.97602 -6.70411,5.53684c-0.16043,2.21038 7.19779,2.47948 7.28572,2.80242c1.33429,4.90013 -12.74683,-0.20027 -16.22034,2.40062c-0.8818,0.66027 4.50493,3.23947 9.46298,5.81495c0.98574,0.51204 9.16267,-4.03623 10.06188,-3.53959c1.38411,0.76445 -1.22822,2.78274 -2.29204,4.77209c-0.91536,1.71172 -0.23015,3.44666 -0.13858,3.8246c0.4266,1.76085 -9.52911,-2.26974 -13.64114,-2.02553c-4.18904,0.24878 -2.5476,4.7574 -3.40031,4.95145c-6.2851,1.43026 -4.22861,-9.39827 -7.14588,-22.21789z" data-paper-data="{&quot;index&quot;:null}" fill="#2c4250"/><path d="" data-paper-data="{&quot;index&quot;:null}" fill="#344e5f"/><path d="" data-paper-data="{&quot;index&quot;:null}" fill="#344e5f"/><path d="" data-paper-data="{&quot;index&quot;:null}" fill="#344e5f"/><path d="" data-paper-data="{&quot;index&quot;:null}" fill="#344e5f"/><path d="" data-paper-data="{&quot;index&quot;:null}" fill="#344e5f"/><path d="" data-paper-data="{&quot;index&quot;:null}" fill="#344e5f"/><path d="" data-paper-data="{&quot;index&quot;:null}" fill="#344e5f"/><path d="M-110.21667,363.43095c0,-6.12723 -2.79306,-265.18111 -5.50518,-291.95113c-0.84038,-8.29501 26.96973,-103.36068 36.75706,-103.36068c3.23661,0 -36.82071,-38.75474 14.57962,-46.65172c10.13542,-1.55717 119.72514,0.3115 131.27575,2.53963c18.59871,3.58772 51.96717,-6.04438 57.83248,-6.14065c3.90729,-0.06413 -0.89466,50.04393 2.06373,59.23886c6.25331,19.43582 -1.97473,54.65928 2.47788,54.60192c2.68485,-0.03459 -3.33353,61.65836 1.90477,79.26519c8.15416,27.4075 9.56049,65.46559 7.13065,73.20843c-1.75045,5.57793 -2.31035,16.73438 -2.05545,31.21686c0.04883,2.77433 2.00274,6.32807 1.21211,10.03207c-1.42261,6.66473 -5.50767,13.81592 -1.37501,17.78841c2.19815,2.11295 8.30926,3.17823 9.49064,6.4332c1.20117,3.30951 -0.93664,7.32431 -1.65556,11.8074c-0.51901,3.23648 0.36733,6.88349 0.62155,9.89493c0.34956,4.14078 -4.14966,10.75212 -3.76719,14.94401c0.29498,3.23298 0.59861,6.47435 0.90914,9.71361c0.5757,6.00534 4.65167,12.69874 5.26366,18.62266c0.54542,5.27961 -0.32699,14.31705 0.16379,19.41815c2.98227,30.99771 5.7895,10.2365 -5.21477,32.96473c-4.69069,9.68816 -18.17025,31.57164 -18.17025,30.83297c0,0 -45.05135,2.61487 -61.95265,-0.49125c0,0 -53.92638,-10.09288 -67.80245,-16.64923c-23.7623,-11.22752 -104.18432,-17.27838 -104.18432,-17.27838z" data-paper-data="{&quot;index&quot;:null}" fill="url(#color-1)"/><path d="M337.75941,275.79595c-0.01092,0.06782 1.9878,-0.96606 3.99473,-1.52075c1.4766,-0.40812 3.07509,-0.37982 3.28229,-0.36474c2.28624,0.16646 2.43136,3.99143 2.13162,4.72114c-0.22395,0.54521 -5.01783,-2.17912 -7.30114,-1.20134c-2.76647,1.18469 -3.15537,3.82346 -3.71399,4.16891c-0.93846,0.58035 -2.66471,0.09378 -3.42974,-0.0294c-0.68533,-0.11035 -0.89878,-1.25718 -0.99017,-2.47668c-0.08901,-1.18774 -0.0487,-2.43542 -1.21611,-3.52591c-1.37015,-1.27987 -2.61615,-1.29684 -4.04946,-2.33125c-0.55945,-0.40375 -1.36626,-0.6617 -1.79423,-1.88011c-0.38159,-1.08639 -0.39178,-3.09581 -0.75736,-4.15412c-0.27484,-0.79563 -1.30005,-2.30039 -1.29679,-2.32062c0.05848,-0.36318 -0.65146,-1.42278 0.22366,-1.26205c0.53853,0.09891 0.45037,-0.12791 1.35221,0.39397c0.3973,0.22991 1.11576,1.18909 1.3802,2.27678c0.19906,0.81875 -0.2598,2.42005 0.54007,2.83506c0.0867,0.04499 0.32536,-0.96092 0.51782,-1.66206c0.22071,-0.80406 0.68278,-1.76149 1.11897,-1.36903c0.40296,0.36255 0.26297,2.12327 0.30938,3.29098c0.05224,1.31441 0.6671,2.08185 1.79412,2.76026c0.60921,0.36672 1.71574,0.32121 1.95916,0.38395c0.48334,0.12455 0.50195,-4.63637 -0.78247,-7.20404c-1.28442,-2.56767 -5.28663,-4.57358 -5.27292,-4.90121c0.07155,-1.70997 3.61851,-0.57327 5.51493,-0.74053c1.29021,-0.11379 0.78062,5.62181 2.07393,5.69201c0.3767,0.02045 1.07152,-0.91658 1.67444,-1.38294c1.15775,-0.89552 0.93248,-2.83759 1.87792,-4.0388c0.9551,-1.21349 3.66249,-1.09824 3.62206,-0.66878c-0.12378,1.31465 -1.78723,3.71825 -1.96456,5.42989c-0.16456,1.5883 1.42015,1.64236 1.17862,2.62636c-0.30229,1.23156 -4.42367,-0.31304 -4.89768,0.30375c-0.85697,1.11513 0.66669,5.05473 1.01279,5.02989c1.45299,-0.1043 1.10199,-1.05355 2.13772,-1.88382c1.12148,-0.89901 3.99399,-1.77182 3.77972,-3.33451c-0.11516,-0.83982 -0.03732,-1.39835 0.06346,-2.11061c0.10394,-0.73453 0.23484,-1.61699 0.3743,-2.09677c0.21003,-0.72254 2.30936,-1.64919 2.3544,-1.63748c1.01513,0.26389 -1.21593,4.36679 -0.54186,4.38488c1.18818,0.03189 3.52693,-6.08281 5.26113,-6.50724c0.97287,-0.2381 -0.6156,3.55365 0.07766,4.45102c1.1316,1.46476 4.25124,0.5453 4.12374,1.37133c-0.08586,0.55621 -4.07547,0.28022 -6.70265,1.63347c-2.67972,1.38031 -3.43624,5.10971 -3.52496,5.16796c-0.36105,0.23706 -2.19793,0.43563 -3.55596,1.43459c-1.11781,0.82225 -1.8824,1.89703 -1.93901,2.24862z" data-paper-data="{&quot;index&quot;:null}" fill="#070b0d"/><path d="M428.23018,234.29317c0.38087,1.20225 -3.76392,4.47369 -6.32374,8.78989c-1.56903,2.64559 -2.14745,6.93098 -1.88547,7.7043c1.96732,5.80738 6.57744,10.3038 1.97203,11.7628c-2.38714,0.75625 -5.33577,-7.46283 -7.62153,-8.68291c-3.11652,-1.6635 2.56394,-3.4965 1.49704,-6.86424c-2.36749,-7.47309 -10.72708,-12.8899 -4.50787,-14.86016c3.3826,-1.07161 2.18967,8.52321 7.5539,6.70988c4.49839,-1.52065 8.23582,-7.96809 9.31564,-4.55957z" data-paper-data="{&quot;index&quot;:null}" fill="#10171d"/><path d="M374.20648,334.87994c2.44545,-12.91793 -10.04836,-21.75653 -3.71506,-20.55759c1.59902,0.30271 5.66725,-4.66597 9.67509,-2.30854c1.65888,0.97577 3.94219,9.06804 5.02992,10.02064c1.14131,0.99954 0.99756,-4.87535 2.4764,-4.11309c2.6259,1.35349 4.61918,-0.98396 3.92486,1.8875c-0.22673,0.93769 -4.49701,6.13805 -8.387,6.74802c-0.67414,0.10571 2.82706,6.18732 5.64811,5.99263c1.93908,-0.13382 2.86689,-6.94433 4.67171,-5.77049c4.28609,2.78762 -1.22066,8.41251 -1.44304,9.50678c-0.21009,1.03375 -0.65816,0.0533 -3.6938,-0.14967c-5.9149,-0.39549 -9.11405,1.82468 -9.20892,2.32587c-0.15527,0.82025 12.81797,0.60483 16.78844,3.36972c1.24437,0.86653 -7.63032,1.0129 -8.35753,2.39858c-1.02987,1.96238 5.60856,5.14782 5.5602,5.47901c-0.73377,5.02526 -11.6061,-5.27447 -15.82932,-4.27728c-1.07212,0.25315 2.83626,4.76908 6.35312,9.11041c0.69921,0.86311 10.0122,-0.04093 10.63822,0.77351c0.96362,1.25362 -2.23739,2.06064 -4.0072,3.45957c-1.52282,1.20371 -1.58754,3.06793 -1.65453,3.45099c-0.31215,1.7847 -7.82964,-5.88662 -11.69702,-7.30501c-3.93982,-1.44495 -4.23563,3.34405 -5.09488,3.18138c-6.3333,-1.19892 -0.12322,-10.30502 2.32222,-23.22295z" data-paper-data="{&quot;index&quot;:null}" fill="#070b0d"/><path d="M157.45263,305.58952c0.60882,0.63092 5.31689,4.66614 3.72339,6.96176c-1.39846,2.01466 -8.89123,2.16728 -11.4097,4.59751c-5.38816,5.19938 -10.68281,8.45397 -11.82593,7.26934c-1.14312,-1.18463 2.29816,-6.35989 7.68631,-11.55927c1.77625,-1.71401 -1.67042,-8.34177 -0.05987,-9.54373c3.27496,-2.44411 11.11953,1.48028 11.88581,2.27438z" data-paper-data="{&quot;index&quot;:null}" fill="#070b0d"/><path d="M345.03153,310.24899c0.0156,-0.08367 -2.49155,1.13583 -4.99424,1.76156c-1.84135,0.46038 -3.82034,0.37651 -4.07651,0.3515c-2.8266,-0.27601 -2.8895,-5.01796 -2.49597,-5.91261c0.29403,-0.66844 6.14843,2.85227 9.00634,1.71094c3.46267,-1.38284 4.02495,-4.63929 4.72739,-5.05009c1.18008,-0.69014 3.30332,-0.03476 4.24712,0.14117c0.84547,0.1576 1.07479,1.58457 1.15075,3.0978c0.07397,1.47383 -0.01405,3.01794 1.39857,4.40427c1.65795,1.62707 3.20069,1.68614 4.94437,3.01113c0.68059,0.51716 1.67202,0.8613 2.16486,2.38346c0.43946,1.35723 0.39069,3.84635 0.81117,5.16833c0.3161,0.99384 1.53996,2.88892 1.5353,2.91389c-0.08353,0.44805 0.76343,1.78212 -0.31556,1.5563c-0.66398,-0.13895 -0.56173,0.14467 -1.66278,-0.52925c-0.48506,-0.29691 -1.34564,-1.50686 -1.63994,-2.86212c-0.22155,-1.02017 0.39571,-2.98949 -0.58234,-3.52794c-0.10601,-0.05836 -0.43233,1.18024 -0.69213,2.04278c-0.29792,0.98915 -0.89948,2.16089 -1.42775,1.66148c-0.48802,-0.46136 -0.26086,-2.63787 -0.28268,-4.08559c-0.02456,-1.6296 -0.76269,-2.59892 -2.13786,-3.4736c-0.74336,-0.47282 -2.11527,-0.45026 -2.41484,-0.53539c-0.59485,-0.16903 -0.76331,5.72718 0.74911,8.94666c1.51244,3.21949 6.40823,5.82621 6.38124,6.23157c-0.14085,2.11575 -4.49932,0.59953 -6.85329,0.74877c-1.6015,0.10153 -0.79515,-6.98691 -2.39488,-7.11334c-0.46594,-0.03683 -1.35515,1.10252 -2.11616,1.66174c-1.46131,1.07381 -1.24162,3.4861 -2.4493,4.94502c-1.22002,1.47383 -4.56983,1.24838 -4.50664,0.7177c0.19346,-1.62452 2.32719,-4.55075 2.59911,-6.66533c0.25232,-1.96221 -1.7088,-2.07756 -1.37959,-3.28895c0.41203,-1.51616 5.46951,0.52285 6.07543,-0.22664c1.09548,-1.355 -0.67136,-6.28104 -1.10079,-6.26083c-1.80282,0.0848 -1.39707,1.27124 -2.70527,2.26797c-1.41649,1.07925 -5.00099,2.07256 -4.78333,4.01462c0.11698,1.04371 0.00352,1.7331 -0.14306,2.61222c-0.15117,0.90659 -0.34025,1.9956 -0.52764,2.58557c-0.28221,0.88851 -2.91069,1.97211 -2.96612,1.95624c-1.24926,-0.35785 1.6394,-5.37148 0.80506,-5.41447c-1.47068,-0.07578 -4.55416,7.42632 -6.71508,7.89903c-1.21225,0.26519 0.871,-4.38266 0.03975,-5.5153c-1.35683,-1.84878 -5.24882,-0.80524 -5.06569,-1.82445c0.12332,-0.68629 5.05634,-0.2226 8.35164,-1.81847c3.36119,-1.62777 4.41211,-6.22382 4.52378,-6.29326c0.45443,-0.28258 2.73561,-0.47243 4.44816,-1.66825c1.40962,-0.98428 2.38943,-2.29213 2.47029,-2.72588z" data-paper-data="{&quot;index&quot;:null}" fill="#070b0d"/><path d="M381.38851,355.05744c-2.23704,1.49699 -14.05308,-19.20975 -23.9148,-31.86668c-8.24296,-10.57935 -14.21741,-12.24581 -20.68228,-21.90666c-14.19932,-21.2189 -18.68464,-14.95031 -14.57775,-17.69857c4.10688,-2.74826 15.89555,-23.23476 30.09487,-2.01586c2.94105,4.39499 -4.81068,13.99636 3.51132,21.72802c0.84739,0.78728 12.67696,7.10302 13.63623,7.71597c9.92898,6.34442 5.73099,7.46039 8.55062,14.34241c3.44821,8.41626 6.76494,6.43335 2.01562,12.92754c-5.09697,6.96956 2.54284,15.98642 1.36617,16.77383z" fill="#070b0d"/><path d="M380.4778,102.84035c0.066,0.01905 -0.71839,-2.0901 -1.02612,-4.14941c-0.22642,-1.51514 -0.00487,-3.09845 0.03517,-3.30231c0.44192,-2.24929 4.25634,-1.93043 4.94441,-1.54459c0.5141,0.28829 -2.77038,4.71722 -2.07612,7.10208c0.84118,2.88951 3.41348,3.5949 3.68879,4.19123c0.46251,1.0018 -0.2294,2.65647 -0.44426,3.40097c-0.19248,0.66694 -1.35671,0.74003 -2.57831,0.68316c-1.18978,-0.05539 -2.42341,-0.2464 -3.64717,0.78045c-1.43628,1.20519 -1.60392,2.43997 -2.80419,3.73756c-0.46849,0.50647 -0.82219,1.27614 -2.08343,1.55351c-1.12459,0.24731 -3.12047,0.01424 -4.21524,0.24905c-0.82304,0.17653 -2.44082,1.01209 -2.4605,1.00641c-0.35343,-0.102 -1.49116,0.47448 -1.22571,-0.37475c0.16336,-0.5226 -0.07246,-0.46254 0.55472,-1.29459c0.2763,-0.36656 1.31538,-0.96365 2.42708,-1.09451c0.83682,-0.09851 2.37082,0.55077 2.87958,-0.19299c0.05515,-0.08062 -0.91448,-0.43926 -1.58718,-0.71516c-0.77144,-0.3164 -1.66591,-0.89094 -1.22355,-1.27643c0.40865,-0.35612 2.13949,-0.00407 3.30423,0.09118c1.31107,0.10722 2.14728,-0.41024 2.9571,-1.44688c0.43775,-0.56035 0.52649,-1.66425 0.61823,-1.89829c0.18213,-0.46471 -4.54154,-1.05937 -7.24579,-0.09514c-2.70424,0.96423 -5.17977,4.69426 -5.50333,4.641c-1.68874,-0.27797 -0.13113,-3.66129 -0.06765,-5.56401c0.04319,-1.2945 5.67496,-0.09451 5.90117,-1.36982c0.06589,-0.37146 -0.78016,-1.17457 -1.17013,-1.8295c-0.74882,-1.25762 -2.70388,-1.26904 -3.78184,-2.3529c-1.08898,-1.09494 -0.64692,-3.76848 -0.22551,-3.67637c1.29001,0.28197 3.47462,2.22409 5.15222,2.60726c1.55671,0.35557 1.80216,-1.21095 2.7497,-0.85211c1.18592,0.44912 -0.8461,4.35327 -0.29121,4.89844c1.00322,0.98563 5.09826,-0.05005 5.11549,-0.39661c0.07231,-1.45493 -0.91244,-1.22139 -1.61126,-2.34999c-0.75668,-1.22204 -1.27543,-4.17906 -2.85257,-4.15549c-0.84758,0.01268 -1.39259,-0.13219 -2.08742,-0.31843c-0.71655,-0.19207 -1.57668,-0.42881 -2.03606,-0.62531c-0.69181,-0.29593 -1.35758,-2.49198 -1.34051,-2.53527c0.3848,-0.97573 4.18754,1.73547 4.28707,1.06855c0.17545,-1.17559 -5.61126,-4.23717 -5.82269,-6.00998c-0.11861,-0.99453 3.45303,1.04115 4.4277,0.46159c1.59094,-0.94601 1.05579,-4.154 1.86032,-3.92747c0.54173,0.15254 -0.21507,4.07943 0.81029,6.85107c1.04586,2.82707 4.65629,4.02938 4.70337,4.12449c0.19162,0.38709 0.16643,2.2345 0.99369,3.70344c0.68093,1.2091 1.65527,2.09815 1.99743,2.19689z" data-paper-data="{&quot;index&quot;:null}" fill="#253844"/><path d="M406.89874,252.51293c-1.20727,-0.36467 -1.56624,-5.63275 -3.68253,-10.18287c-1.29716,-2.78897 -4.50704,-5.68652 -5.29318,-5.90707c-5.90363,-1.65622 -12.21794,-0.39108 -10.82104,-5.01571c0.72406,-2.3971 9.17217,-0.18868 11.46995,-1.38597c3.1329,-1.63245 1.43751,4.09059 4.81929,5.11208c7.50427,2.26671 16.69568,-1.57291 14.80929,4.67226c-1.026,3.39672 -8.27047,-3.00652 -9.80349,2.44444c-1.28558,4.57113 1.92446,11.2967 -1.49827,10.26285z" data-paper-data="{&quot;index&quot;:null}" fill="#10171d"/><path d="M415.4582,219.36509c-2.44545,12.91792 10.04836,21.75653 3.71506,20.55759c-1.59902,-0.3027 -5.66725,4.66597 -9.6751,2.30854c-1.65888,-0.97577 -3.94219,-9.06804 -5.02992,-10.02063c-1.1413,-0.99954 -0.99756,4.87535 -2.4764,4.11309c-2.6259,-1.35349 -4.61919,0.98396 -3.92486,-1.88751c0.22673,-0.93769 4.49701,-6.13805 8.387,-6.74802c0.67414,-0.10572 -2.82706,-6.18732 -5.64811,-5.99263c-1.93908,0.13382 -2.86689,6.94433 -4.67171,5.77049c-4.28609,-2.78762 1.22065,-8.41251 1.44304,-9.50678c0.21009,-1.03375 0.65816,-0.0533 3.6938,0.14967c5.9149,0.39549 9.11405,-1.82469 9.20892,-2.32587c0.15528,-0.82025 -12.81796,-0.60483 -16.78844,-3.36972c-1.24437,-0.86652 7.63032,-1.0129 8.35753,-2.39858c1.02987,-1.96238 -5.60856,-5.14782 -5.5602,-5.47901c0.73377,-5.02526 11.60609,5.27447 15.82931,4.27728c1.07213,-0.25315 -2.83625,-4.76908 -6.35312,-9.11041c-0.69921,-0.86311 -10.0122,0.04093 -10.63822,-0.77351c-0.96362,-1.25362 2.23739,-2.06064 4.0072,-3.45957c1.52282,-1.20371 1.58754,-3.06793 1.65453,-3.45099c0.31215,-1.7847 7.82964,5.88663 11.69702,7.30501c3.93981,1.44495 4.23563,-3.34405 5.09488,-3.18139c6.3333,1.19893 0.12321,10.30502 -2.32222,23.22295z" data-paper-data="{&quot;index&quot;:null}" fill="#111a1f"/><path d="M370.93826,293.87331c0.12196,0.86824 1.56085,6.89971 -1.07738,7.82106c-2.31532,0.8086 -8.4681,-3.47022 -11.93389,-2.98339c-7.41492,1.04154 -13.61152,0.56431 -13.84051,-1.06592c-0.22899,-1.63023 5.59636,-3.79612 13.01127,-4.83767c2.44438,-0.34335 3.54944,-7.73155 5.55889,-7.75791c4.08609,-0.05358 8.12813,7.73102 8.28164,8.82382z" data-paper-data="{&quot;index&quot;:null}" fill="#070b0d"/><path d="M414.96732,281.81282c-0.06821,-0.0509 -0.07937,2.73709 -0.62147,5.25921c-0.39885,1.85565 -1.34687,3.59482 -1.48228,3.8137c-1.49426,2.41517 -5.77793,0.3804 -6.40733,-0.36734c-0.47026,-0.55868 5.27141,-4.26038 5.50741,-7.3287c0.28595,-3.7176 -2.38876,-5.65836 -2.44768,-6.46997c-0.09899,-1.36348 1.42558,-2.98008 1.9997,-3.74955c0.5143,-0.68931 1.89615,-0.26583 3.28778,0.33334c1.35539,0.58358 2.70242,1.34354 4.56963,0.68708c2.19147,-0.77047 2.92484,-2.12904 4.88299,-3.10968c0.7643,-0.38276 1.51039,-1.12081 3.09388,-0.89186c1.41192,0.20413 3.62442,1.34561 4.99633,1.55123c1.03138,0.15459 3.27195,-0.10809 3.2923,-0.0929c0.36529,0.27256 1.93614,0.10074 1.25763,0.96955c-0.41753,0.53465 -0.11788,0.56796 -1.2083,1.25895c-0.48039,0.30441 -1.94585,0.54319 -3.29199,0.20965c-1.01331,-0.25106 -2.50857,-1.67353 -3.42316,-1.03319c-0.09913,0.06941 0.86861,0.90851 1.52817,1.52206c0.75638,0.7036 1.54273,1.76025 0.86154,2.01413c-0.62929,0.23454 -2.48254,-0.92919 -3.7915,-1.54806c-1.4734,-0.69662 -2.66889,-0.46162 -4.06038,0.38687c-0.75218,0.45865 -1.33695,1.6999 -1.54547,1.93122c-0.41404,0.45934 4.80355,3.21079 8.36003,3.27319c3.5565,0.06239 8.05511,-3.18203 8.40702,-2.97904c1.83678,1.05947 -1.44614,4.30256 -2.35031,6.48107c-0.61515,1.48213 -6.62145,-2.36761 -7.44041,-0.9876c-0.23854,0.40194 0.39189,1.70247 0.55818,2.6321c0.31931,1.78509 2.58123,2.65175 3.35803,4.37904c0.78474,1.74494 -0.89489,4.65198 -1.34331,4.36124c-1.3727,-0.89005 -3.05802,-4.09556 -4.83595,-5.27215c-1.64982,-1.0918 -2.61821,0.61744 -3.56026,-0.21225c-1.17905,-1.03843 2.88134,-4.67833 2.47588,-5.55268c-0.73301,-1.58076 -5.93334,-2.16742 -6.10458,-1.77309c-0.71894,1.65544 0.52483,1.8145 0.84248,3.42818c0.34395,1.74726 -0.34533,5.40242 1.49367,6.06353c0.98832,0.35529 1.55702,0.76115 2.28139,1.2804c0.747,0.53549 1.64101,1.18544 2.08787,1.61381c0.67299,0.64512 0.48635,3.48207 0.44766,3.52482c-0.8721,0.9634 -4.09795,-3.84022 -4.50448,-3.11035c-0.71659,1.28652 4.65675,7.36242 4.12804,9.51032c-0.2966,1.20495 -3.54934,-2.7145 -4.93248,-2.46795c-2.25766,0.40244 -3.03746,4.35573 -3.87144,3.74189c-0.56156,-0.41334 2.03008,-4.63626 2.05102,-8.29759c0.02137,-3.73454 -3.64015,-6.70462 -3.65323,-6.83547c-0.05321,-0.53247 0.78241,-2.66357 0.4644,-4.72795c-0.26175,-1.69921 -1.00345,-3.15537 -1.35708,-3.41922z" data-paper-data="{&quot;index&quot;:null}" fill="#10171d"/><path d="M415.45955,331.19453c0.01092,-0.06782 -1.9878,0.96606 -3.99473,1.52075c-1.4766,0.40812 -3.07509,0.37982 -3.28229,0.36474c-2.28624,-0.16646 -2.43136,-3.99143 -2.13162,-4.72114c0.22395,-0.54521 5.01783,2.17912 7.30114,1.20134c2.76647,-1.18469 3.15537,-3.82346 3.71399,-4.16891c0.93846,-0.58035 2.66471,-0.09378 3.42974,0.0294c0.68533,0.11035 0.89878,1.25718 0.99017,2.47668c0.08901,1.18774 0.0487,2.43542 1.21611,3.52591c1.37015,1.27987 2.61615,1.29684 4.04946,2.33125c0.55945,0.40375 1.36626,0.6617 1.79423,1.88011c0.38159,1.08639 0.39178,3.09581 0.75736,4.15412c0.27484,0.79563 1.30005,2.30039 1.29679,2.32062c-0.05848,0.36318 0.65146,1.42278 -0.22366,1.26205c-0.53853,-0.09891 -0.45037,0.12791 -1.35221,-0.39397c-0.3973,-0.22991 -1.11576,-1.18909 -1.3802,-2.27678c-0.19906,-0.81875 0.2598,-2.42005 -0.54007,-2.83506c-0.0867,-0.04499 -0.32536,0.96092 -0.51782,1.66206c-0.22071,0.80406 -0.68278,1.76149 -1.11897,1.36903c-0.40296,-0.36255 -0.26297,-2.12327 -0.30938,-3.29098c-0.05224,-1.31441 -0.6671,-2.08185 -1.79412,-2.76026c-0.60921,-0.36672 -1.71574,-0.32121 -1.95916,-0.38395c-0.48334,-0.12455 -0.50195,4.63637 0.78247,7.20404c1.28442,2.56767 5.28663,4.57358 5.27292,4.90121c-0.07155,1.70997 -3.61851,0.57327 -5.51493,0.74053c-1.29021,0.11379 -0.78062,-5.62181 -2.07393,-5.69201c-0.3767,-0.02045 -1.07152,0.91658 -1.67444,1.38294c-1.15775,0.89552 -0.93248,2.83759 -1.87792,4.0388c-0.9551,1.21349 -3.66249,1.09824 -3.62206,0.66878c0.12378,-1.31465 1.78723,-3.71825 1.96456,-5.42989c0.16456,-1.5883 -1.42015,-1.64236 -1.17862,-2.62636c0.30229,-1.23156 4.42367,0.31304 4.89768,-0.30375c0.85697,-1.11513 -0.66669,-5.05473 -1.01279,-5.02989c-1.45299,0.1043 -1.10199,1.05355 -2.13772,1.88382c-1.12148,0.89901 -3.99399,1.77182 -3.77972,3.33451c0.11516,0.83982 0.03732,1.39835 -0.06346,2.11061c-0.10394,0.73453 -0.23484,1.61699 -0.3743,2.09677c-0.21003,0.72254 -2.30936,1.64919 -2.3544,1.63748c-1.01513,-0.26389 1.21593,-4.36679 0.54186,-4.38488c-1.18818,-0.03189 -3.52693,6.08281 -5.26113,6.50724c-0.97287,0.2381 0.6156,-3.55365 -0.07766,-4.45102c-1.1316,-1.46476 -4.25124,-0.5453 -4.12374,-1.37133c0.08586,-0.55621 4.07547,-0.28022 6.70265,-1.63347c2.67972,-1.38031 3.43624,-5.10971 3.52496,-5.16796c0.36105,-0.23706 2.19793,-0.43563 3.55596,-1.43459c1.11781,-0.82225 1.8824,-1.89703 1.93901,-2.24862z" data-paper-data="{&quot;index&quot;:null}" fill="#10171d"/><path d="M469.64634,289.92383c-2.44545,12.91793 10.04836,21.75652 3.71506,20.55759c-1.59903,-0.3027 -5.66725,4.66597 -9.67509,2.30854c-1.65888,-0.97577 -3.94219,-9.06804 -5.02992,-10.02063c-1.1413,-0.99954 -0.99755,4.87535 -2.4764,4.11309c-2.6259,-1.35349 -4.61918,0.98396 -3.92486,-1.8875c0.22674,-0.93769 4.49701,-6.13806 8.38701,-6.74802c0.67414,-0.10572 -2.82706,-6.18732 -5.64811,-5.99263c-1.93908,0.13382 -2.8669,6.94433 -4.67171,5.77049c-4.28608,-2.78762 1.22066,-8.4125 1.44304,-9.50678c0.21009,-1.03375 0.65817,-0.0533 3.6938,0.14967c5.9149,0.39549 9.11405,-1.82469 9.20892,-2.32587c0.15527,-0.82025 -12.81797,-0.60483 -16.78844,-3.36972c-1.24437,-0.86653 7.63032,-1.01289 8.35753,-2.39858c1.02988,-1.96237 -5.60855,-5.14781 -5.56019,-5.479c0.73377,-5.02526 11.6061,5.27446 15.82932,4.27728c1.07213,-0.25315 -2.83625,-4.76908 -6.35312,-9.1104c-0.69921,-0.86311 -10.0122,0.04093 -10.63822,-0.77351c-0.96362,-1.25362 2.2374,-2.06064 4.0072,-3.45957c1.52282,-1.2037 1.58754,-3.06793 1.65453,-3.45099c0.31215,-1.7847 7.82963,5.88663 11.69701,7.30501c3.93982,1.44495 4.23563,-3.34405 5.09489,-3.18138c6.33331,1.19893 0.12322,10.30503 -2.32222,23.22296z" data-paper-data="{&quot;index&quot;:null}" fill="#10171d"/><path d="M433.53124,328.0543c-0.60882,-0.63092 -5.31689,-4.66614 -3.72339,-6.96176c1.39846,-2.01466 8.89123,-2.16728 11.4097,-4.59751c5.38816,-5.19938 10.68281,-8.45397 11.82593,-7.26934c1.14312,1.18463 -2.29816,6.35989 -7.68631,11.55927c-1.77625,1.71401 1.67042,8.34177 0.05987,9.54373c-3.27496,2.44411 -11.11953,-1.48028 -11.88581,-2.27438z" data-paper-data="{&quot;index&quot;:null}" fill="#10171d"/><path d="M402.6651,39.94677c0.05204,0.06734 0.81115,-2.61534 2.01035,-4.89939c0.88231,-1.68049 2.26237,-3.10137 2.45156,-3.27587c2.08771,-1.92544 5.668,1.18448 6.07359,2.07373c0.30304,0.66441 -6.22154,2.68907 -7.27248,5.58144c-1.27334,3.50441 0.78227,6.0919 0.62117,6.88954c-0.27063,1.34001 -2.17318,2.48806 -2.93277,3.07518c-0.68045,0.52596 -1.89792,-0.25289 -3.07765,-1.20362c-1.149,-0.92598 -2.24261,-2.01962 -4.2175,-1.88845c-2.31786,0.15396 -3.38898,1.26582 -5.5385,1.68486c-0.83899,0.16356 -1.75581,0.67426 -3.21973,0.02867c-1.30531,-0.57563 -3.13022,-2.2691 -4.39659,-2.83543c-0.95203,-0.42576 -3.18089,-0.77414 -3.19641,-0.79423c-0.27872,-0.36061 -1.83805,-0.61675 -0.95123,-1.27154c0.54572,-0.40295 0.26601,-0.51548 1.50189,-0.88841c0.54447,-0.16429 2.02024,-0.00095 3.22745,0.68169c0.90873,0.51384 1.9673,2.28547 3.0202,1.91412c0.11412,-0.04025 -0.59287,-1.10832 -1.06353,-1.8764c-0.53976,-0.88081 -1.01362,-2.10975 -0.28929,-2.17147c0.66915,-0.05702 2.14202,1.56146 3.23682,2.50897c1.23234,1.06655 2.44704,1.16107 4.01521,0.71722c0.84769,-0.23992 1.74418,-1.27865 2.00714,-1.44551c0.52214,-0.33135 -3.76542,-4.38234 -7.17463,-5.39708c-3.40923,-1.01474 -8.61363,0.90309 -8.89813,0.61309c-1.48499,-1.51362 2.54797,-3.75649 4.00372,-5.61235c0.99041,-1.26262 5.74293,4.05806 6.90226,2.94852c0.33768,-0.32316 0.07947,-1.74518 0.16882,-2.68533c0.17157,-1.80529 -1.77472,-3.24729 -2.05937,-5.1197c-0.28756,-1.89154 2.11074,-4.24105 2.46466,-3.84062c1.08342,1.22585 1.84646,4.7661 3.24332,6.37674c1.29621,1.49458 2.68786,0.108 3.37263,1.16011c0.85704,1.3168 -4.03136,3.73323 -3.87548,4.68432c0.2818,1.7195 5.13381,3.68052 5.40461,3.34662c1.13691,-1.40171 -0.01852,-1.88879 0.10864,-3.52851c0.13768,-1.77546 1.78278,-5.11147 0.18873,-6.24194c-0.85668,-0.60754 -1.29557,-1.15116 -1.85398,-1.84579c-0.57585,-0.71635 -1.26259,-1.58242 -1.57807,-2.11502c-0.47513,-0.80209 0.46616,-3.48483 0.51491,-3.51563c1.09869,-0.69395 2.91676,4.79927 3.50429,4.20531c1.03562,-1.04696 -2.50962,-8.3422 -1.42377,-10.26936c0.60915,-1.08112 2.69045,3.5676 4.08901,3.70136c2.28283,0.21833 4.09516,-3.38056 4.73377,-2.56539c0.43,0.54891 -3.20005,3.9212 -4.203,7.44254c-1.02302,3.59175 1.7069,7.43567 1.68437,7.56522c-0.09167,0.52721 -1.46866,2.35581 -1.71644,4.42979c-0.20396,1.70711 0.11965,3.30892 0.38948,3.65801z" data-paper-data="{&quot;index&quot;:null}" fill="#324a5a"/><path d="M386.92514,315.23859c0,-2.69172 23.78049,-0.99585 39.78402,-2.15265c13.37662,-0.96692 18.08427,-5.00539 29.70866,-5.00539c25.53159,0 22.9654,2.21644 22.9654,7.15805c0,4.9416 10.32075,16.7021 -15.21085,16.7021c-5.28826,0 -8.9567,-11.78211 -20.01063,-9.16577c-1.12557,0.26641 -12.95346,6.5853 -13.99637,7.04164c-10.79472,4.72339 -9.38748,0.61386 -16.67514,-0.87021c-8.91233,-1.81492 -9.10896,2.04435 -11.86485,-5.51446c-2.95763,-8.11211 -14.70025,-6.77749 -14.70025,-8.19331z" data-paper-data="{&quot;index&quot;:null}" fill="#10171d"/><path d="M373.13712,363.84713c0,3.92001 7.03477,-74.20006 8.9366,-131.89721c0.34209,-10.37821 21.4128,-2.41999 20.61545,-8.54815c-0.05662,-0.4352 9.94173,-7.79171 10.68648,-11.01009c0.46696,-2.01793 -11.9393,-11.98275 -12.83391,-12.02355c-1.44117,-0.06572 -2.03271,-12.48565 -3.56721,-13.29961c-2.43743,-1.29291 -4.83972,5.77111 -8.40566,9.56638c-3.5547,3.78331 -12.44849,-0.57058 -12.60494,-1.00294c-1.12762,-3.11626 2.26081,-9.85849 3.67784,-19.31101c0.27954,-1.86471 -3.31135,-5.21873 -3.09489,-7.25621c1.0507,-9.89011 5.52911,-20.13478 9.15266,-30.69746c2.80052,-8.16354 -8.22129,-12.19517 -12.11349,-18.60174c-3.38806,-5.57673 0.33443,-14.10531 1.58389,-14.09135c0.71343,0.00797 7.96799,-1.31038 13.16906,-5.85649c3.66259,-3.20136 4.3322,-9.37338 9.57765,-11.8464c10.52386,-4.96158 4.0163,-36.32797 5.88074,-43.92194c8.01923,-32.66278 9.57907,-94.20894 17.62058,-94.09447c15.54452,0.22127 64.30122,-21.32176 97.52302,-1.08426c9.81697,5.98014 5.07145,67.45427 14.19125,69.51853c1.80148,0.40776 1.49783,10.36127 3.91862,18.88304c1.67192,5.88556 6.39732,8.38982 6.85045,17.61453c0.06608,1.34527 -7.08487,2.98079 -7.00545,4.38985c0.83575,14.82877 4.14919,33.64941 5.0362,53.68184c0.25682,5.80013 4.40986,8.88091 5.24997,14.93394c0.59454,4.28366 7.60824,10.84036 7.13069,16.05568c-0.36308,3.96514 -8.21314,6.61066 -8.12574,10.06149c0.06712,2.65034 4.39388,5.3184 4.45342,8.0021c0.02518,1.13479 1.09419,5.52336 0.01728,9.17951c-0.60183,2.04324 -3.64789,4.03514 -3.63501,4.67398c0.08751,4.34265 1.87302,9.71344 1.79915,13.65718c-0.04166,2.22393 -3.29304,5.36679 -3.50817,7.41928c-0.71285,6.80103 1.01794,11.92802 0.99169,19.4263c-0.01167,3.33344 -0.00332,6.71329 0.01657,10.13185c0.01666,2.86279 1.20946,-3.069 2.71733,-1.34042c1.16113,1.33109 2.726,10.24138 2.7489,12.50898c0.02683,2.65673 -5.27618,9.59246 -5.25416,12.27706c0.08392,10.23092 0.1064,20.64007 -0.13475,31.04383c-0.98232,42.37935 5.82358,40.44687 0.00366,70.77105c-3.26436,17.0087 -2.51873,7.56661 -17.22954,10.76565c-24.97527,5.43115 -72.30867,13.00051 -98.2914,-0.76412z" data-paper-data="{&quot;index&quot;:null}" fill="url(#color-2)"/><path d="M404.67306,85.81871c0.00242,0.06865 1.76304,-1.33279 3.62452,-2.2657c1.36959,-0.6864 2.94329,-0.96824 3.14949,-0.99358c2.27519,-0.27952 3.15841,3.44491 3.0057,4.21885c-0.11411,0.57827 -5.34488,-1.16595 -7.39556,0.23557c-2.48462,1.6981 -2.35505,4.36222 -2.83619,4.80933c-0.80828,0.75113 -2.59609,0.60813 -3.37049,0.63546c-0.69373,0.02448 -1.12526,-1.05929 -1.45113,-2.23799c-0.31738,-1.148 -0.5195,-2.37986 -1.87601,-3.22359c-1.59211,-0.99025 -2.81779,-0.76556 -4.42431,-1.50276c-0.62705,-0.28775 -1.46856,-0.38454 -2.12442,-1.49698c-0.58479,-0.99191 -0.98399,-2.9613 -1.54763,-3.92875c-0.42374,-0.72732 -1.72099,-2.00503 -1.72171,-2.0255c-0.01297,-0.36763 -0.91469,-1.26965 -0.02502,-1.28147c0.54749,-0.00727 0.41706,-0.21272 1.4029,0.12459c0.43431,0.1486 1.32495,0.95046 1.79505,1.96633c0.35388,0.76469 0.21387,2.42454 1.07897,2.67677c0.09377,0.02734 0.13308,-1.00574 0.18608,-1.73089c0.06079,-0.83159 0.32867,-1.86037 0.83261,-1.55984c0.46555,0.27764 0.66924,2.03212 0.94095,3.16873c0.30584,1.2794 1.0577,1.91321 2.29478,2.36048c0.6687,0.24178 1.74545,-0.0172 1.99642,-0.0028c0.49831,0.02858 -0.40557,-4.64578 -2.163,-6.91606c-1.75743,-2.27026 -6.07237,-3.46301 -6.12238,-3.78709c-0.26101,-1.69145 3.43895,-1.26328 5.26705,-1.79469c1.24374,-0.36154 1.85473,5.36415 3.13715,5.18252c0.37353,-0.0529 0.87369,-1.10676 1.37486,-1.68107c0.96238,-1.10281 0.36521,-2.96447 1.06008,-4.32605c0.70197,-1.3755 3.38041,-1.78683 3.42392,-1.35767c0.1332,1.31373 -1.03319,3.99401 -0.87563,5.70758c0.14619,1.5901 1.71137,1.33619 1.66501,2.34834c-0.05803,1.26678 -4.40053,0.54971 -4.74609,1.24663c-0.62475,1.26 1.63311,4.82988 1.96784,4.73847c1.40527,-0.38375 0.87706,-1.24704 1.73236,-2.2622c0.92611,-1.09921 3.57517,-2.51186 3.06227,-4.00346c-0.27564,-0.8016 -0.30746,-1.36465 -0.34654,-2.08294c-0.0403,-0.74075 -0.0828,-1.63185 -0.03891,-2.12956c0.0661,-0.74953 1.9462,-2.06526 1.99265,-2.0625c1.04701,0.06227 -0.34709,4.51961 0.31771,4.4068c1.17186,-0.19885 2.28196,-6.65076 3.9011,-7.40304c0.90832,-0.42203 0.08436,3.6056 0.93831,4.35169c1.39387,1.21784 4.27635,-0.28846 4.31126,0.54663c0.0235,0.5623 -3.94402,1.06429 -6.25933,2.90078c-2.36161,1.87321 -2.38147,5.67851 -2.45722,5.75284c-0.3083,0.3025 -2.07193,0.8531 -3.21075,2.09618c-0.93737,1.02319 -1.47932,2.22571 -1.46675,2.58161z" data-paper-data="{&quot;index&quot;:null}" fill="#2a3f4d"/><path d="M161.59062,335.55798c-0.10076,0.69877 -0.34323,5.68586 -2.59023,5.80557c-1.97198,0.10507 -5.76828,-4.58586 -8.55757,-4.98808c-5.96757,-0.86054 -10.65186,-2.62175 -10.46266,-3.93376c0.1892,-1.31201 5.18024,-1.67801 11.1478,-0.81748c1.96725,0.28368 4.48164,-5.18095 6.04136,-4.74987c3.1716,0.87658 4.54814,7.80413 4.42132,8.68363z" data-paper-data="{&quot;index&quot;:null}" fill="#070b0d"/><path d="M-116.60661,410.71575v-496.997l689.77176,1.15473l-5.77367,496.997z" fill="none"/><path d="M542.1723,106.75204c0.32646,-0.14229 1.17724,-1.15023 1.69557,-2.43744c0.62973,-1.56385 0.3651,-3.39238 0.50488,-3.80105c0.03435,-0.10041 3.4583,-1.76092 4.1286,-4.69976c0.65716,-2.88123 -0.60264,-6.67677 -0.08528,-6.89829c0.76835,-0.32899 0.65386,2.92133 2.35407,3.65296c1.04161,0.44824 4.31902,-2.03356 4.33042,-1.03205c0.02033,1.78525 -5.32034,5.57163 -4.99387,6.71452c0.18521,0.64837 3.60412,-2.5332 4.11224,-1.61565c0.02254,0.04071 -0.35274,2.30457 -1.00031,2.68774c-0.43001,0.25443 -1.25216,0.60075 -1.93774,0.88415c-0.6648,0.27481 -1.18642,0.48914 -2.02848,0.58652c-1.56687,0.18121 -1.69764,3.18054 -2.28941,4.49041c-0.54651,1.20972 -1.55324,1.10589 -1.2928,2.53915c0.06204,0.3414 4.25682,0.8371 5.12371,-0.27034c0.47948,-0.61254 -2.04182,-4.22011 -0.92418,-4.81927c0.89298,-0.47872 1.33957,1.04273 2.837,0.48822c1.61371,-0.59755 3.52795,-2.80665 4.77048,-3.25357c0.4059,-0.14601 1.19103,2.4476 0.25329,3.67455c-0.92825,1.21453 -2.86531,1.47947 -3.44466,2.82361c-0.30171,0.69998 -1.03643,1.60605 -0.92291,1.96582c0.38973,1.2352 5.81825,-0.68521 6.029,0.59274c0.30976,1.8784 2.29312,5.03108 0.6547,5.52576c-0.31392,0.09478 -3.25241,-3.28259 -6.05888,-3.88788c-2.80648,-0.60528 -7.4131,0.59711 -7.17222,1.03427c0.12132,0.22017 0.3525,1.30323 0.85925,1.80206c0.93745,0.92282 1.83372,1.32744 3.1198,1.05105c1.14255,-0.24553 2.81308,-0.81914 3.26448,-0.51904c0.48862,0.32485 -0.32375,1.01056 -1.04763,1.42436c-0.63123,0.36083 -1.54615,0.84223 -1.481,0.91501c0.60095,0.67147 2.03775,-0.17131 2.88029,-0.18218c1.11928,-0.01446 2.22704,0.4428 2.54856,0.77042c0.72981,0.74366 0.48818,0.7147 0.71795,1.21169c0.37337,0.80762 -0.82952,0.3836 -1.16673,0.53058c-0.01878,0.00819 -1.73129,-0.61044 -2.57027,-0.67872c-1.11598,-0.09081 -3.06476,0.3992 -4.21193,0.29986c-1.28657,-0.11141 -1.73712,-0.8287 -2.26735,-1.27012c-1.35845,-1.13092 -1.68484,-2.33352 -3.26534,-3.34221c-1.34663,-0.85942 -2.54505,-0.51 -3.71759,-0.30074c-1.20389,0.21485 -2.36777,0.29341 -2.64515,-0.34292c-0.30962,-0.71034 -1.21033,-2.26128 -0.88169,-3.31461c0.19562,-0.627 2.65469,-1.66011 3.11393,-4.63433c0.37903,-2.45477 -3.45223,-6.42021 -2.97987,-6.77276c0.6322,-0.47183 4.37303,-1.28281 5.103,0.89015c0.06615,0.19694 0.49122,1.73813 0.46325,3.26984c-0.038,2.08182 -0.54216,4.27491 -0.47919,4.24746z" data-paper-data="{&quot;index&quot;:null}" fill="#243743"/><path d="M562.17631,306.79182c0.60882,0.63092 5.31689,4.66614 3.72339,6.96176c-1.39846,2.01466 -8.89123,2.16728 -11.4097,4.59751c-5.38816,5.19938 -10.68281,8.45397 -11.82593,7.26934c-1.14312,-1.18463 2.29816,-6.35989 7.68631,-11.55927c1.77625,-1.71401 -1.67042,-8.34177 -0.05987,-9.54373c3.27496,-2.44411 11.11953,1.48028 11.88581,2.27438z" data-paper-data="{&quot;index&quot;:null}" fill="#070b0d"/><path d="M563.33738,335.67088c-0.36345,0.60526 -2.51792,5.10949 -4.63601,4.34987c-1.85885,-0.66664 -3.54281,-6.46155 -5.95882,-7.91236c-5.16894,-3.10395 -8.80596,-6.54147 -8.12353,-7.67789c0.68243,-1.13642 5.42589,0.45856 10.59482,3.5625c1.70398,1.02324 6.13806,-3.04165 7.40922,-2.04029c2.58483,2.03619 1.17179,8.95639 0.71433,9.71819z" data-paper-data="{&quot;index&quot;:null}" fill="#070b0d"/><path d="M554.46902,255.09925c-0.2192,0.33758 -1.53692,2.86084 -2.72855,2.38563c-1.04578,-0.41705 -1.88926,-3.75253 -3.23678,-4.62753c-2.88298,-1.87202 -4.88645,-3.90342 -4.47487,-4.53726c0.41158,-0.63384 3.08235,0.36989 5.96533,2.2419c0.9504,0.61713 3.55818,-1.61018 4.26241,-1.01419c1.432,1.21191 0.48836,5.12656 0.21247,5.55145z" data-paper-data="{&quot;index&quot;:null}" fill="#0e1519"/></g></g></svg>