<svg version="1.1" xmlns="http://www.w3.org/2000/svg" xmlns:xlink="http://www.w3.org/1999/xlink" width="587.03073" height="435.88067" viewBox="0,0,587.03073,435.88067"><defs><radialGradient cx="193.91387" cy="123.93704" r="34.37554" gradientUnits="userSpaceOnUse" id="color-1"><stop offset="0" stop-color="#ffffff" stop-opacity="0.31516"/><stop offset="1" stop-color="#ffffff" stop-opacity="0"/></radialGradient></defs><g transform="translate(13.52389,37.94033)"><g data-paper-data="{&quot;isPaintingLayer&quot;:true}" fill-rule="nonzero" stroke="none" stroke-linecap="butt" stroke-linejoin="miter" stroke-miterlimit="10" stroke-dasharray="" stroke-dashoffset="0" style="mix-blend-mode: normal"><path d="M559.21547,332.51111c0,13.79887 13.24383,49.60642 -5.38738,58.40377c-34.16576,16.13252 -115.37686,-0.5688 -157.0179,-0.5688c-25.69588,0 -179.93602,3.10743 -289.39996,0.35654c-50.9689,-1.28088 -106.72232,-7.70051 -112.56958,-27.58308c-10.00462,-34.01888 -12.3905,-270.14851 0.39835,-379.56433c0.9873,-8.44691 2.24838,-26.47902 7.97387,-20.19064c4.06449,4.46408 10.62835,4.13939 14.34094,8.99051c9.17338,11.98655 15.86528,25.47198 16.7725,25.59529c4.4139,0.59993 16.13619,6.16172 24.49443,19.75991c13.5695,22.0765 29.85739,57.1744 39.74584,79.74805c5.62764,12.84693 7.6556,21.02661 9.75272,21.97005c5.12986,2.30777 1.44848,6.23801 14.24256,14.83903c2.47444,1.66349 21.72306,5.31136 24.11435,7.17848c5.92347,4.62505 8.70446,14.81543 14.29469,17.91118c2.08168,1.15279 10.74394,1.07906 12.51632,1.88646c2.60649,1.18738 7.07031,6.69422 8.67973,6.69422c2.00291,0 3.99735,-3.14711 6.29032,-3.70325c1.03959,-0.25215 2.65155,2.29961 3.76487,2.01791c9.50856,-2.406 21.28849,-8.6139 38.45081,-11.33787c2.43031,-0.38573 6.52292,3.61294 9.2472,3.3903c3.72678,-0.30456 6.18005,-4.76436 10.11869,-4.81421c14.76277,-0.18686 29.641,1.21066 34.34421,2.6567c15.69361,4.82514 21.03028,38.24236 53.36722,66.07929c3.95364,3.40345 25.11157,10.40623 35.31714,16.64569c9.47148,5.79065 12.53619,10.8612 27.14038,13.34983c5.26662,0.89746 7.55007,-3.35889 12.61653,-5.35205c6.9186,-2.7218 16.68321,-3.56691 24.75435,-2.87097c39.55877,3.41098 98.99181,9.19543 125.73965,16.27305c20.93226,5.53878 3.12422,31.6153 3.12422,53.26796z" fill="#344e5f" stroke-width="0"/><path d="M225.12763,150.95945c0,0.0851 2.24121,-1.57319 4.58684,-2.64696c1.7258,-0.79003 3.68664,-1.07024 3.94306,-1.0926c2.82932,-0.24667 3.76015,4.40346 3.53723,5.35507c-0.16655,0.71101 -6.56699,-1.67723 -9.16736,-0.0315c-3.15061,1.99398 -3.10661,5.29832 -3.72187,5.8309c-1.03363,0.89471 -3.24101,0.63953 -4.20106,0.63953c-0.86003,0 -1.34698,-1.36077 -1.69896,-2.83446c-0.34281,-1.43532 -0.53923,-2.96941 -2.182,-4.07338c-1.92804,-1.29568 -3.45549,-1.07104 -5.41244,-2.05403c-0.76385,-0.38369 -1.80154,-0.5403 -2.56499,-1.94637c-0.68073,-1.25371 -1.08895,-3.70963 -1.74456,-4.93216c-0.49288,-0.91908 -2.04328,-2.5578 -2.04328,-2.58319c0,-0.45577 -1.07709,-1.61203 0.02501,-1.58778c0.67821,0.01492 0.5257,-0.24516 1.73161,0.21558c0.53126,0.20298 1.59899,1.23475 2.13668,2.51312c0.40475,0.96229 0.15884,3.01138 1.21899,3.36148c0.11491,0.03795 0.20873,-1.23949 0.30605,-2.13503c0.11161,-1.02699 0.48825,-2.28912 1.09909,-1.89498c0.5643,0.36411 0.73985,2.5454 1.02661,3.9646c0.32278,1.5975 1.22603,2.41513 2.73822,3.02299c0.81741,0.32858 2.16196,0.055 2.47207,0.08379c0.61576,0.05716 -0.29915,-5.77006 -2.37597,-8.65787c-2.07681,-2.88781 -7.36739,-4.55319 -7.41515,-4.95664c-0.24926,-2.10573 4.31326,-1.4139 6.60001,-1.992c1.55578,-0.3933 2.06208,6.72286 3.65789,6.55401c0.46481,-0.04918 1.13016,-1.33219 1.7758,-2.0214c1.23979,-1.32342 0.58175,-3.6546 1.50162,-5.31013c0.92927,-1.67245 4.26367,-2.0647 4.29879,-1.53142c0.10752,1.63246 -1.45382,4.90016 -1.33362,7.02876c0.11154,1.97521 2.06059,1.72923 1.95895,2.98043c-0.12721,1.56599 -5.47269,0.48834 -5.93101,1.33616c-0.82862,1.53281 1.81104,6.05164 2.2295,5.95308c1.75675,-0.41375 1.14044,-1.50573 2.24383,-2.72532c1.19473,-1.32055 4.53649,-2.95392 3.96662,-4.82321c-0.30626,-1.00459 -0.32107,-1.7031 -0.33807,-2.5942c-0.01753,-0.91895 -0.03122,-2.02416 0.04488,-2.63849c0.11461,-0.92518 2.49999,-2.47212 2.55739,-2.46667c1.29368,0.12285 -0.62727,5.58094 0.20081,5.47031c1.45967,-0.19502 3.11611,-8.13513 5.1538,-8.99585c1.14312,-0.48286 -0.0531,4.46806 0.97164,5.42918c1.67266,1.56883 5.30751,-0.17028 5.31424,0.86523c0.00453,0.69727 -4.92991,1.14544 -7.87695,3.31816c-3.00598,2.21617 -3.19684,6.92697 -3.29389,7.0157c-0.39495,0.36107 -2.60271,0.96575 -4.06711,2.45514c-1.20536,1.22593 -1.92892,2.69119 -1.92892,3.13241z" fill="#344e5f" stroke-width="0"/><path d="M160.15911,157.90952c-1.5824,-0.85079 -3.20459,-0.68113 -3.61246,-0.87464c-0.10023,-0.04755 -2.40818,-4.15634 -5.26499,-5.15824c-2.8008,-0.98227 -6.00612,0.19645 -6.32783,-0.42218c-0.47776,-0.91871 2.53899,-0.53986 2.82482,-2.46252c0.17511,-1.1779 -2.85515,-5.17824 -1.93623,-5.11581c1.63804,0.11129 6.33874,6.61056 7.31597,6.31715c0.55439,-0.16646 -3.15201,-4.38434 -2.42351,-4.90611c0.03233,-0.02315 2.20084,0.58453 2.70095,1.36685c0.33208,0.51947 0.83804,1.50211 1.255,2.32111c0.40432,0.79417 0.72037,1.41718 1.00183,2.40417c0.52372,1.83652 3.31328,2.21537 4.65334,3.0028c1.23761,0.72723 1.37144,1.89055 2.63087,1.6959c0.3,-0.04637 -0.1996,-4.88893 -1.41609,-5.98113c-0.67286,-0.60412 -3.41781,2.0564 -4.22375,0.7109c-0.64393,-1.07504 0.65422,-1.47958 -0.19715,-3.26353c-0.91749,-1.92248 -3.38625,-4.31637 -4.08057,-5.79566c-0.22682,-0.48324 1.98074,-1.20061 3.32334,-0.01695c1.32901,1.17169 2.01412,3.44521 3.38289,4.2208c0.71282,0.40391 1.7139,1.32712 2.01908,1.22226c1.04774,-0.36004 -1.95609,-6.82049 -0.82823,-6.96908c1.65778,-0.2184 4.10676,-2.28744 4.93522,-0.34399c0.15873,0.37236 -2.27939,3.53558 -2.19692,6.75476c0.08248,3.21918 2.23837,8.6692 2.58573,8.42201c0.17494,-0.12449 1.11881,-0.3116 1.46234,-0.86342c0.63553,-1.02084 0.80363,-2.03295 0.2563,-3.55001c-0.48623,-1.34775 -1.39462,-3.33453 -1.22134,-3.83699c0.18757,-0.54389 1.00361,0.45303 1.54928,1.32643c0.47582,0.76161 1.12721,1.86236 1.17934,1.79208c0.48094,-0.64836 -0.62189,-2.38358 -0.82386,-3.36457c-0.2683,-1.3032 -0.09995,-2.55736 0.12824,-2.90664c0.51798,-0.79283 0.54638,-0.51393 0.95132,-0.74366c0.65805,-0.37332 0.54194,0.99401 0.75402,1.39742c0.01181,0.02247 -0.16725,1.96797 -0.03891,2.93885c0.1707,1.29143 1.06558,3.59559 1.23555,4.92264c0.19061,1.48832 -0.36671,1.95824 -0.65207,2.54173c-0.73108,1.49489 -1.76327,1.78371 -2.33129,3.54614c-0.48398,1.50165 0.11059,2.92226 0.57028,4.30217c0.47198,1.4168 0.80944,2.77674 0.28713,3.05132c-0.58305,0.30651 -1.80489,1.23713 -2.84896,0.77519c-0.62148,-0.27497 -2.13235,-3.21383 -4.97361,-3.97288c-2.34504,-0.62649 -5.12083,3.5309 -5.55284,2.95474c-0.57819,-0.77114 -2.17669,-5.18435 -0.34361,-5.86933c0.16613,-0.06208 1.48738,-0.44009 2.9031,-0.29179c1.92419,0.20155 4.05695,0.95382 4.01735,0.87849c-0.2053,-0.39053 -1.32655,-1.45649 -2.62905,-2.15678z" data-paper-data="{&quot;index&quot;:null}" fill="#344e5f" stroke-width="0"/><path d="M176.01816,152.23752c0.38795,-1.75423 -0.21685,-3.269 -0.14167,-3.71414c0.01848,-0.10939 3.34392,-3.44858 3.53039,-6.47024c0.18282,-2.96242 -1.82385,-5.72588 -1.31615,-6.20382c0.75399,-0.70979 1.21057,2.29618 3.13844,2.04788c1.18108,-0.15212 4.20557,-4.15682 4.39562,-3.25561c0.33877,1.60648 -4.6356,7.89875 -4.08728,8.75922c0.31107,0.48815 3.36083,-4.22638 4.06121,-3.66741c0.03108,0.0248 0.0366,2.27684 -0.58006,2.97101c-0.40947,0.46094 -1.21728,1.21526 -1.89186,1.8394c-0.65413,0.60522 -1.16759,1.07891 -2.0407,1.6184c-1.62463,1.00384 -1.22988,3.79118 -1.62283,5.29498c-0.3629,1.38883 -1.44588,1.83426 -0.91577,2.99315c0.12627,0.27606 4.65,-1.5228 5.36985,-2.99064c0.39816,-0.81189 -2.90906,-2.72903 -1.83373,-3.87077c0.85917,-0.91224 1.60179,0.22679 3.08665,-1.07802c1.60017,-1.40614 3.23168,-5.68329 4.46613,-6.75404c0.40326,-0.34978 1.69442,2.82916 0.9209,4.44324c-0.7657,1.59776 -2.76689,2.87583 -3.14063,4.40403c-0.19464,0.79584 -0.81051,2.01042 -0.62654,2.27553c0.63162,0.91018 6.03054,-3.73872 6.48051,-2.69389c0.66139,1.53574 3.31889,3.32908 1.67432,4.65525c-0.31509,0.25409 -4.02251,-1.23097 -7.0977,-0.27537c-3.07519,0.9556 -7.7326,4.51355 -7.4002,4.78052c0.16741,0.13445 0.60437,0.99175 1.22885,1.17211c1.15528,0.33366 2.17493,0.21993 3.48573,-0.71966c1.16451,-0.83472 2.82903,-2.2496 3.35968,-2.21963c0.57441,0.03244 -0.16275,1.08902 -0.85464,1.85182c-0.60334,0.66516 -1.48523,1.59158 -1.40341,1.62261c0.75478,0.2863 2.12432,-1.24721 3.01329,-1.70856c1.18097,-0.6129 2.43359,-0.79227 2.83179,-0.66777c0.90389,0.28261 0.64324,0.38586 0.97453,0.71299c0.53835,0.53159 -0.80896,0.79204 -1.13942,1.10592c-0.01841,0.01748 -1.93919,0.37473 -2.83848,0.76249c-1.19621,0.51577 -3.16979,2.00404 -4.40047,2.5288c-1.38024,0.58853 -1.98413,0.18015 -2.62326,0.06438c-1.63744,-0.29658 -2.19631,-1.21117 -4.04681,-1.27803c-1.57668,-0.05696 -2.78182,0.90183 -3.9845,1.71976c-1.23484,0.8398 -2.45158,1.53469 -2.85796,1.10684c-0.45364,-0.47761 -1.6817,-1.40001 -1.52139,-2.53039c0.09543,-0.67286 2.51208,-2.92661 2.4691,-5.86721c-0.03548,-2.42702 -4.79144,-3.96641 -4.35462,-4.53892c0.58465,-0.76627 4.39612,-3.50563 5.55419,-1.92822c0.10496,0.14296 0.82832,1.31143 1.07098,2.71406c0.32981,1.9064 0.18646,4.1634 0.24817,4.10479c0.31991,-0.30385 1.04041,-1.67291 1.35974,-3.11683z" data-paper-data="{&quot;index&quot;:null}" fill="#344e5f" stroke-width="0"/><path d="M204.14086,156.61104c1.73403,0.47009 3.27558,-0.06273 3.71669,0.03333c0.1084,0.02361 3.28735,3.50255 6.29688,3.83106c2.95053,0.32207 5.80539,-1.55229 6.2589,-1.02265c0.67351,0.78656 -2.35063,1.10114 -2.19335,3.03855c0.09635,1.18694 3.95424,4.39659 3.04508,4.54401c-1.62065,0.26278 -7.67178,-5.00229 -8.5571,-4.49508c-0.50225,0.28775 4.06349,3.55606 3.47216,4.22934c-0.02624,0.02987 -2.27604,-0.07062 -2.94042,-0.71927c-0.44115,-0.43071 -1.15662,-1.27314 -1.74831,-1.97636c-0.57376,-0.68189 -1.02276,-1.21708 -1.52054,-2.11462c-0.92625,-1.67008 -3.72909,-1.40698 -5.21272,-1.87028c-1.37021,-0.42788 -1.76416,-1.53062 -2.94672,-1.05565c-0.28169,0.11314 1.30221,4.71653 2.73455,5.50468c0.79225,0.43594 2.86295,-2.77737 3.9528,-1.64948c0.87078,0.90117 -0.30194,1.58934 0.93152,3.13397c1.32925,1.66458 4.27624,3.43679 5.2877,4.72028c0.33041,0.41927 -1.65717,1.61821 -3.23306,0.76956c-1.55994,-0.84007 -2.74239,-2.8992 -4.2513,-3.34446c-0.7858,-0.23188 -1.97004,-0.90424 -2.24351,-0.73296c-0.9389,0.58808 3.45069,6.19985 2.38584,6.60013c-1.56517,0.58836 -3.48162,3.1585 -4.72891,1.45333c-0.23898,-0.32671 1.41896,-3.96011 0.60918,-7.07687c-0.80978,-3.11676 -4.14454,-7.9365 -4.42686,-7.61703c-0.14218,0.16089 -1.01911,0.55701 -1.22866,1.17232c-0.38768,1.13829 -0.32207,2.16216 0.55478,3.51574c0.77898,1.20251 2.11393,2.93179 2.05901,3.46044c-0.05945,0.57225 -1.08016,-0.21384 -1.80954,-0.94087c-0.63602,-0.63398 -1.5199,-1.5585 -1.55475,-1.47824c-0.32152,0.74047 1.14583,2.18067 1.56482,3.09037c0.55662,1.20851 0.67684,2.46819 0.53373,2.86009c-0.32485,0.88958 -0.41572,0.62436 -0.75807,0.93989c-0.55634,0.51272 -0.75308,-0.84535 -1.05106,-1.19022c-0.0166,-0.01921 -0.28303,-1.95468 -0.62803,-2.87122c-0.45889,-1.21916 -1.8526,-3.26061 -2.31885,-4.51463c-0.5229,-1.40641 -0.08655,-1.99041 0.05917,-2.62338c0.37334,-1.62166 1.31322,-2.13686 1.46711,-3.98216c0.13112,-1.57226 -0.76988,-2.82119 -1.53029,-4.06104c-0.78074,-1.273 -1.41758,-2.5211 -0.97107,-2.90689c0.49843,-0.43066 1.47762,-1.61394 2.59921,-1.40059c0.66762,0.12699 2.80512,2.64706 5.74448,2.74256c2.426,0.07881 4.18756,-4.59942 4.73888,-4.13613c0.73789,0.62007 3.29481,4.55627 1.66463,5.6388c-0.14774,0.09811 -1.34896,0.76567 -2.76147,0.94203c-1.91981,0.2397 -4.16756,-0.00973 -4.11192,0.05467c0.28846,0.33385 1.62208,1.11801 3.04937,1.50495z" data-paper-data="{&quot;index&quot;:null}" fill="#344e5f" stroke-width="0"/><path d="M287.90166,153.44663c0,7.34288 -8.54729,13.29545 -19.09091,13.29545c-10.54362,0 -19.09091,-5.95258 -19.09091,-13.29545c0,-4.48268 0.91272,-14.3563 5.79317,-16.76469c3.114,-1.53669 9.19079,3.46924 13.29774,3.46924c1.59446,0 1.55235,4.68158 3.03284,4.93806c8.30952,1.43954 16.05807,2.12494 16.05807,8.35739z" fill="#344e5f" stroke-width="0"/><path d="M349.25002,226.45847c-1.5824,-0.85078 -3.20459,-0.68114 -3.61246,-0.87464c-0.10023,-0.04755 -2.40818,-4.15634 -5.26499,-5.15825c-2.80081,-0.98226 -6.00612,0.19646 -6.32783,-0.42217c-0.47776,-0.91871 2.539,-0.53986 2.82482,-2.46252c0.17511,-1.1779 -2.85515,-5.17824 -1.93623,-5.11581c1.63804,0.11129 6.33874,6.61056 7.31597,6.31715c0.55439,-0.16645 -3.15201,-4.38433 -2.4235,-4.90611c0.03232,-0.02315 2.20084,0.58453 2.70095,1.36685c0.33207,0.51947 0.83804,1.50211 1.255,2.32111c0.40432,0.79417 0.72037,1.41717 1.00183,2.40416c0.52373,1.83653 3.31328,2.21537 4.65334,3.00281c1.23761,0.72723 1.37144,1.89056 2.63087,1.6959c0.3,-0.04636 -0.19961,-4.88893 -1.41609,-5.98113c-0.67286,-0.60411 -3.41782,2.05641 -4.22376,0.7109c-0.64393,-1.07504 0.65422,-1.47958 -0.19715,-3.26354c-0.91749,-1.92248 -3.38626,-4.31637 -4.08058,-5.79566c-0.22682,-0.48324 1.98074,-1.20061 3.32333,-0.01695c1.32902,1.17169 2.01412,3.4452 3.38289,4.22079c0.71281,0.40391 1.7139,1.32713 2.01907,1.22226c1.04773,-0.36003 -1.95609,-6.82049 -0.82823,-6.96907c1.65778,-0.2184 4.10676,-2.28744 4.93522,-0.34398c0.15873,0.37236 -2.27939,3.53558 -2.19691,6.75476c0.08247,3.21918 2.23837,8.6692 2.58573,8.42201c0.17494,-0.12449 1.11882,-0.3116 1.46235,-0.86342c0.63552,-1.02084 0.80363,-2.03295 0.2563,-3.55001c-0.48624,-1.34775 -1.39462,-3.33453 -1.22134,-3.83699c0.18757,-0.54389 1.00361,0.45303 1.54927,1.32643c0.47582,0.7616 1.12722,1.86237 1.17935,1.79208c0.48094,-0.64836 -0.62189,-2.38358 -0.82386,-3.36457c-0.2683,-1.30321 -0.09996,-2.55736 0.12824,-2.90664c0.51797,-0.79283 0.54638,-0.51392 0.95132,-0.74366c0.65805,-0.37333 0.54194,0.99401 0.75402,1.39742c0.01182,0.02247 -0.16724,1.96796 -0.03891,2.93885c0.1707,1.29143 1.06558,3.59559 1.23555,4.92264c0.19061,1.48832 -0.36671,1.95824 -0.65207,2.54174c-0.73109,1.49488 -1.76327,1.78371 -2.33128,3.54614c-0.48398,1.50165 0.11059,2.92226 0.57027,4.30217c0.47198,1.4168 0.80944,2.77674 0.28713,3.05132c-0.58305,0.30651 -1.80489,1.23713 -2.84897,0.77519c-0.62148,-0.27497 -2.13234,-3.21383 -4.97361,-3.97289c-2.34504,-0.62649 -5.12083,3.53091 -5.55284,2.95474c-0.57819,-0.77114 -2.17668,-5.18435 -0.34361,-5.86933c0.16613,-0.06208 1.48738,-0.44009 2.9031,-0.29179c1.92419,0.20155 4.05696,0.95383 4.01736,0.8785c-0.2053,-0.39053 -1.32655,-1.45649 -2.62905,-2.15678z" data-paper-data="{&quot;index&quot;:null}" fill="#344e5f" stroke-width="0"/><path d="M390.30138,248.09417c0.38795,-1.75423 -0.21685,-3.26899 -0.14166,-3.71414c0.01848,-0.10939 3.34392,-3.44858 3.53039,-6.47024c0.18282,-2.96242 -1.82385,-5.72588 -1.31615,-6.20382c0.75398,-0.70979 1.21057,2.29618 3.13843,2.04789c1.18109,-0.15211 4.20558,-4.15683 4.39562,-3.25561c0.33877,1.60648 -4.6356,7.89875 -4.08728,8.75921c0.31107,0.48815 3.36083,-4.22638 4.0612,-3.66741c0.03107,0.02481 0.0366,2.27685 -0.58006,2.97102c-0.40947,0.46094 -1.21728,1.21526 -1.89187,1.8394c-0.65413,0.60522 -1.16758,1.07891 -2.0407,1.6184c-1.62463,1.00384 -1.22987,3.79118 -1.62282,5.29498c-0.3629,1.38883 -1.44588,1.83425 -0.91577,2.99315c0.12627,0.27606 4.65001,-1.52279 5.36985,-2.99064c0.39816,-0.81189 -2.90906,-2.72903 -1.83373,-3.87077c0.85917,-0.91224 1.60179,0.22679 3.08665,-1.07802c1.60017,-1.40614 3.23168,-4.43329 4.46613,-5.50404c0.40325,-0.34978 1.69442,1.57916 0.92089,3.19324c-0.76571,1.59776 -2.76689,2.87583 -3.14063,4.40403c-0.19464,0.79584 -0.8105,2.01042 -0.62653,2.27553c0.63162,0.91017 6.03053,-3.73872 6.4805,-2.69389c0.66139,1.53574 3.31889,3.32907 1.67432,4.65525c-0.31509,0.25409 -4.02251,-1.23097 -7.0977,-0.27537c-3.07518,0.9556 -7.7326,4.51355 -7.4002,4.78052c0.16741,0.13445 0.60437,0.99175 1.22885,1.17211c1.15528,0.33366 2.17493,0.21993 3.48573,-0.71966c1.16451,-0.83472 2.82903,-2.2496 3.35968,-2.21963c0.57441,0.03245 -0.16275,1.08902 -0.85465,1.85182c-0.60334,0.66516 -1.48522,1.59158 -1.40341,1.62261c0.75478,0.2863 2.12431,-1.24721 3.01328,-1.70857c1.18097,-0.6129 2.43359,-0.79228 2.83179,-0.66777c0.90389,0.28261 0.64324,0.38586 0.97453,0.71299c0.53835,0.53158 -0.80896,0.79204 -1.13942,1.10592c-0.01841,0.01748 -1.93918,0.37473 -2.83847,0.76249c-1.1962,0.51577 -3.16979,2.00404 -4.40047,2.5288c-1.38024,0.58853 -1.98413,0.18015 -2.62326,0.06439c-1.63744,-0.29659 -2.19631,-1.21118 -4.0468,-1.27803c-1.57668,-0.05696 -2.78183,0.90183 -3.98451,1.71977c-1.23483,0.8398 -2.45157,1.53468 -2.85796,1.10683c-0.45364,-0.47761 -1.6817,-1.40001 -1.52139,-2.53039c0.09542,-0.67286 2.51208,-2.92662 2.46911,-5.86721c-0.03548,-2.42702 -4.79145,-3.9664 -4.35462,-4.53892c0.58465,-0.76626 4.39612,-3.50563 5.55418,-1.92822c0.10496,0.14296 0.82833,1.31142 1.07098,2.71406c0.32981,1.9064 0.18646,4.1634 0.24817,4.10479c0.31991,-0.30385 1.04041,-1.67291 1.35974,-3.11684z" data-paper-data="{&quot;index&quot;:null}" fill="#344e5f" stroke-width="0"/><path d="M306.97104,190.33635c-0.01092,0.06782 1.9878,-0.96606 3.99473,-1.52075c1.4766,-0.40812 3.07509,-0.37982 3.28229,-0.36474c2.28624,0.16646 2.43136,3.99143 2.13162,4.72114c-0.22395,0.54521 -5.01783,-2.17912 -7.30114,-1.20134c-2.76647,1.18469 -3.15537,3.82346 -3.71399,4.16891c-0.93846,0.58035 -2.66471,0.09378 -3.42974,-0.0294c-0.68533,-0.11035 -0.89878,-1.25718 -0.99017,-2.47668c-0.08901,-1.18774 -0.0487,-2.43542 -1.21611,-3.52591c-1.37015,-1.27987 -2.61615,-1.29684 -4.04946,-2.33125c-0.55945,-0.40375 -1.36626,-0.6617 -1.79423,-1.88011c-0.38159,-1.08639 -0.39178,-3.09581 -0.75736,-4.15412c-0.27484,-0.79563 -1.30005,-2.30039 -1.29679,-2.32062c0.05848,-0.36318 -0.65146,-1.42278 0.22366,-1.26205c0.53853,0.09891 0.45037,-0.12791 1.35221,0.39397c0.3973,0.22991 1.11576,1.18909 1.3802,2.27678c0.19906,0.81875 -0.2598,2.42005 0.54007,2.83506c0.0867,0.04499 0.32536,-0.96092 0.51782,-1.66206c0.22071,-0.80406 0.68278,-1.76149 1.11897,-1.36903c0.40296,0.36255 0.26297,2.12327 0.30938,3.29098c0.05224,1.31441 0.6671,2.08185 1.79412,2.76026c0.60921,0.36672 1.71574,0.32121 1.95916,0.38395c0.48334,0.12455 0.50195,-4.63637 -0.78247,-7.20404c-1.28442,-2.56767 -5.28663,-4.57358 -5.27292,-4.90121c0.07155,-1.70997 3.61851,-0.57327 5.51493,-0.74053c1.29021,-0.11379 0.78062,5.62181 2.07393,5.69201c0.3767,0.02045 1.07152,-0.91658 1.67444,-1.38294c1.15775,-0.89552 0.93248,-2.83759 1.87792,-4.0388c0.9551,-1.21349 3.66249,-1.09824 3.62206,-0.66878c-0.12378,1.31465 -1.78723,3.71825 -1.96456,5.42989c-0.16456,1.5883 1.42015,1.64236 1.17862,2.62636c-0.30229,1.23156 -4.42367,-0.31304 -4.89768,0.30375c-0.85697,1.11513 0.66669,5.05473 1.01279,5.02989c1.45299,-0.1043 1.10199,-1.05355 2.13772,-1.88382c1.12148,-0.89901 3.99399,-1.77182 3.77972,-3.33451c-0.11516,-0.83982 -0.03732,-1.39835 0.06346,-2.11061c0.10394,-0.73453 0.23484,-1.61699 0.3743,-2.09677c0.21003,-0.72254 2.30936,-1.64919 2.3544,-1.63748c1.01513,0.26389 -1.21593,4.36679 -0.54186,4.38488c1.18818,0.03189 3.52693,-6.08281 5.26113,-6.50724c0.97287,-0.2381 -0.6156,3.55365 0.07766,4.45102c1.1316,1.46476 4.25124,0.5453 4.12374,1.37133c-0.08586,0.55621 -4.07547,0.28022 -6.70265,1.63347c-2.67972,1.38031 -3.43624,5.10971 -3.52496,5.16796c-0.36105,0.23706 -2.19793,0.43563 -3.55596,1.43459c-1.11781,0.82225 -1.8824,1.89703 -1.93901,2.24862z" fill="#344e5f" stroke-width="0"/><path d="M292.99876,151.6456c-0.01092,0.06782 1.9878,-0.96606 3.99473,-1.52075c1.4766,-0.40812 3.07509,-0.37982 3.28229,-0.36474c2.28624,0.16646 2.43136,3.99143 2.13162,4.72114c-0.22395,0.54521 -5.01783,-2.17912 -7.30114,-1.20134c-2.76647,1.18469 -3.15537,3.82346 -3.71399,4.16891c-0.93846,0.58035 -2.66471,0.09378 -3.42974,-0.0294c-0.68533,-0.11035 -0.89878,-1.25718 -0.99017,-2.47668c-0.08901,-1.18774 -0.0487,-2.43542 -1.21611,-3.52591c-1.37015,-1.27987 -2.61615,-1.29684 -4.04946,-2.33125c-0.55945,-0.40375 -1.36626,-0.6617 -1.79423,-1.88011c-0.38159,-1.08639 -0.39178,-3.09581 -0.75736,-4.15412c-0.27484,-0.79563 -1.30005,-2.30039 -1.29679,-2.32062c0.05848,-0.36318 -0.65146,-1.42278 0.22366,-1.26205c0.53853,0.09891 0.45037,-0.12791 1.35221,0.39397c0.3973,0.22991 1.11576,1.18909 1.3802,2.27678c0.19906,0.81875 -0.2598,2.42005 0.54007,2.83506c0.0867,0.04499 0.32536,-0.96092 0.51782,-1.66206c0.22071,-0.80406 0.68278,-1.76149 1.11897,-1.36903c0.40296,0.36255 0.26297,2.12327 0.30938,3.29098c0.05224,1.31441 0.6671,2.08185 1.79412,2.76026c0.60921,0.36672 1.71574,0.32121 1.95916,0.38395c0.48334,0.12455 0.50195,-4.63637 -0.78247,-7.20404c-1.28442,-2.56767 -5.28663,-4.57358 -5.27292,-4.90121c0.07155,-1.70997 3.61851,-0.57327 5.51493,-0.74053c1.29021,-0.11379 0.78062,5.62181 2.07393,5.69201c0.3767,0.02045 1.07152,-0.91658 1.67444,-1.38294c1.15775,-0.89552 0.93248,-2.83759 1.87792,-4.0388c0.9551,-1.21349 3.66249,-1.09824 3.62206,-0.66878c-0.12378,1.31465 -1.78723,3.71825 -1.96456,5.42989c-0.16456,1.5883 1.42015,1.64236 1.17862,2.62636c-0.30229,1.23156 -4.42367,-0.31304 -4.89768,0.30375c-0.85697,1.11513 0.66669,5.05473 1.01279,5.02989c1.45299,-0.1043 1.10199,-1.05355 2.13772,-1.88382c1.12148,-0.89901 3.99399,-1.77182 3.77972,-3.33451c-0.11516,-0.83982 -0.03732,-1.39835 0.06346,-2.11061c0.10394,-0.73453 0.23484,-1.61699 0.3743,-2.09677c0.21003,-0.72254 2.30936,-1.64919 2.3544,-1.63748c1.01513,0.26389 -1.21593,4.36679 -0.54186,4.38488c1.18818,0.03189 3.52693,-6.08281 5.26113,-6.50724c0.97287,-0.2381 -0.6156,3.55365 0.07766,4.45102c1.1316,1.46476 4.25124,0.5453 4.12374,1.37133c-0.08586,0.55621 -4.07547,0.28022 -6.70265,1.63347c-2.67972,1.38031 -3.43624,5.10971 -3.52496,5.16796c-0.36105,0.23706 -2.19793,0.43563 -3.55596,1.43459c-1.11781,0.82225 -1.8824,1.89703 -1.93901,2.24862z" fill="#344e5f" stroke-width="0"/><path d="M331.88487,206.82036c0,0.87677 0.58592,7.04974 -2.15481,7.59516c-2.40529,0.47867 -7.90307,-4.61439 -11.40288,-4.61439c-7.48771,0 -13.55769,-1.33454 -13.55769,-2.98077c0,-1.64623 6.06999,-2.98077 13.55769,-2.98077c2.46838,0 4.59039,-7.16266 6.58397,-6.90925c4.05382,0.51531 6.97373,8.78648 6.97373,9.89001z" fill="#344e5f" stroke-width="0"/><path d="M99.49307,86.58166c0.06698,-0.0525 -2.62073,-0.79354 -4.9128,-1.97734c-1.68639,-0.87098 -3.11652,-2.24145 -3.29229,-2.42948c-1.93945,-2.07471 1.14632,-5.67583 2.03282,-6.0874c0.66235,-0.3075 2.73085,6.2033 5.63022,7.23478c3.5129,1.24974 6.0865,-0.82323 6.88521,-0.6675c1.34181,0.26162 2.50262,2.15639 3.09484,2.91202c0.53052,0.6769 -0.24011,1.89958 -1.18289,3.08568c-0.91823,1.15521 -2.0045,2.25614 -1.86004,4.23011c0.16955,2.31676 1.28859,3.3804 1.72208,5.52703c0.1692,0.83788 0.68605,1.75122 0.05032,3.21947c-0.56684,1.30915 -2.248,3.14542 -2.80579,4.41556c-0.41934,0.95488 -0.75273,3.18602 -0.77272,3.20168c-0.35872,0.28115 -0.60436,1.84215 -1.26512,0.95976c-0.40662,-0.543 -0.51725,-0.26253 -0.8985,-1.49588c-0.16796,-0.54335 -0.01453,-2.02019 0.65996,-3.23197c0.50772,-0.91216 2.27218,-1.98264 1.89377,-3.03301c-0.04102,-0.11386 -1.10432,0.60031 -1.8692,1.07614c-0.87716,0.54567 -2.10288,1.02779 -2.16947,0.30389c-0.06152,-0.66875 1.54702,-2.15248 2.48713,-3.25363c1.05823,-1.23949 1.14458,-2.45479 0.6902,-4.01995c-0.24562,-0.84605 -1.29035,-1.73553 -1.45898,-1.99737c-0.33485,-0.51991 -4.3569,3.7948 -5.34869,7.21079c-0.99179,3.41598 0.96101,8.60735 0.67292,8.89381c-1.5036,1.49514 -3.77354,-2.52265 -5.63915,-3.96587c-1.26926,-0.98189 4.01933,-5.77009 2.90203,-6.92195c-0.32543,-0.3355 -1.74568,-0.06773 -2.68641,-0.15075c-1.80641,-0.15942 -3.23528,1.79652 -5.10574,2.09375c-1.88957,0.30027 -4.25516,-2.08217 -3.85711,-2.43877c1.21853,-1.09163 4.75358,-1.87848 6.35479,-3.28614c1.48583,-1.30623 0.08992,-2.68853 1.1374,-3.38035c1.31101,-0.86588 3.76026,4.00615 4.71028,3.84389c1.71757,-0.29336 3.64589,-5.15846 3.31019,-5.42702c-1.40933,-1.12746 -1.88861,0.03122 -3.52915,-0.0849c-1.77635,-0.12573 -5.12334,-1.74836 -6.24306,-0.14673c-0.60176,0.86075 -1.14241,1.30329 -1.83327,1.86635c-0.71246,0.58066 -1.5739,1.2732 -2.10436,1.59226c-0.79888,0.48051 -3.48789,-0.44271 -3.51901,-0.49125c-0.70133,-1.094 4.77953,-2.94898 4.18164,-3.53249c-1.05391,-1.02856 -8.32513,2.56568 -10.25955,1.49283c-1.08519,-0.60186 3.54943,-2.7144 3.67378,-4.11382c0.20297,-2.28425 -3.40804,-4.07234 -2.59717,-4.7164c0.54601,-0.43369 3.94263,3.1736 7.47064,4.15285c3.59856,0.99883 7.42402,-1.75687 7.55372,-1.73522c0.52782,0.08811 2.36563,1.45278 4.44123,1.68661c1.70844,0.19247 3.30804,-0.14191 3.6553,-0.41408z" data-paper-data="{&quot;index&quot;:null}" fill="#344e5f" stroke-width="0"/><path d="M65.68509,67.64116c-0.3065,-1.77028 -1.4407,-2.9424 -1.54,-3.3828c-0.0244,-0.10822 1.78581,-4.4593 0.81211,-7.32585c-0.95461,-2.81035 -3.85959,-4.60605 -3.57113,-5.24087c0.42838,-0.94275 1.99112,1.66534 3.68071,0.70429c1.0351,-0.58878 2.31439,-5.44147 2.83211,-4.67971c0.92285,1.3579 -1.29283,9.06685 -0.45908,9.655c0.473,0.33366 1.50641,-5.18539 2.36647,-4.93387c0.03816,0.01116 0.89756,2.09279 0.59031,2.969c-0.20401,0.58181 -0.66531,1.58619 -1.05271,2.41958c-0.37566,0.80812 -0.67104,1.44119 -1.27425,2.27155c-1.12241,1.5451 0.3002,3.97436 0.50706,5.51483c0.19106,1.42269 -0.64201,2.24563 0.2881,3.11682c0.22155,0.20752 3.7248,-3.17291 3.83403,-4.80411c0.06042,-0.90224 -3.72686,-1.42153 -3.16501,-2.88586c0.44891,-1.16998 1.5681,-0.39778 2.44701,-2.16833c0.94716,-1.90804 1.30843,-5.32784 2.04442,-6.78683c0.24043,-0.47661 2.16682,0.81836 2.06339,2.60524c-0.10238,1.7688 -1.46918,3.71048 -1.23528,5.26622c0.12181,0.81019 0.01271,2.16762 0.28349,2.34312c0.92968,0.60255 4.16156,-5.74689 4.97424,-4.95085c1.19452,1.17006 4.33368,1.82126 3.3151,3.67217c-0.19516,0.35463 -4.18882,0.38694 -6.67166,2.43765c-2.48284,2.05071 -5.44249,7.10947 -5.03366,7.23039c0.2059,0.0609 0.93541,0.68837 1.58164,0.61836c1.1955,-0.12951 2.0958,-0.62154 2.95221,-1.98815c0.76083,-1.21408 1.76422,-3.15462 2.26658,-3.32818c0.54378,-0.18788 0.26253,1.06937 -0.0883,2.03761c-0.30592,0.84431 -0.77047,2.03602 -0.683,2.0337c0.80698,-0.02141 1.49242,-1.95982 2.13994,-2.72392c0.8602,-1.01508 1.95116,-1.65622 2.36683,-1.69207c0.94353,-0.08139 0.74154,0.11302 1.17215,0.29002c0.69976,0.28764 -0.44805,1.03971 -0.63474,1.45549c-0.0104,0.02316 -1.65209,1.08233 -2.33708,1.78224c-0.91114,0.93099 -2.17266,3.05668 -3.1123,4.00906c-1.05383,1.06812 -1.76749,0.91934 -2.40276,1.05468c-1.62756,0.34673 -2.4916,-0.2875 -4.22915,0.35261c-1.48045,0.54539 -2.23181,1.88968 -3.03432,3.1027c-0.82397,1.24545 -1.68617,2.34996 -2.22448,2.10824c-0.60091,-0.26982 -2.08709,-0.65743 -2.36755,-1.76415c-0.16695,-0.65877 1.21414,-3.6608 0.05889,-6.36531c-0.95349,-2.23217 -5.93793,-1.85236 -5.75093,-2.54779c0.25028,-0.93077 2.73772,-4.91124 4.4076,-3.89103c0.15134,0.09246 1.26389,0.89919 2.02048,2.10494c1.02833,1.6388 1.75187,3.78149 1.78673,3.70385c0.18073,-0.4025 0.32805,-1.94254 0.07577,-3.39968z" data-paper-data="{&quot;index&quot;:null}" fill="#344e5f" stroke-width="0"/><path d="M79.93223,76.62448c1.62001,-0.77679 2.43916,-2.1872 2.8359,-2.40262c0.0975,-0.05293 4.77702,0.50459 7.2703,-1.2126c2.44441,-1.68352 3.38159,-4.96759 4.07095,-4.86282c1.02376,0.1556 -1.0605,2.36924 0.32416,3.73343c0.84829,0.83576 5.86598,0.74588 5.2739,1.45139c-1.05543,1.25762 -9.0764,1.22392 -9.41541,2.18628c-0.19232,0.54596 5.39963,0.03811 5.39172,0.93416c-0.00035,0.03976 -1.76946,1.43331 -2.69621,1.37617c-0.61538,-0.03795 -1.7074,-0.20843 -2.61476,-0.35437c-0.87986,-0.14151 -1.56942,-0.25343 -2.53263,-0.60784c-1.79227,-0.65946 -3.74259,1.37065 -5.16858,1.98901c-1.31697,0.57109 -2.3356,-0.00652 -2.92072,1.12559c-0.13938,0.26967 4.06697,2.72052 5.66631,2.38162c0.88462,-0.18745 0.35344,-3.97307 1.91541,-3.83102c1.24799,0.1135 0.80959,1.40062 2.75252,1.76442c2.09381,0.39205 5.48281,-0.19118 7.08706,0.11991c0.52406,0.10162 -0.19768,2.30776 -1.94524,2.69461c-1.72988,0.38294 -3.97027,-0.40374 -5.40362,0.24479c-0.74644,0.33773 -2.08232,0.60224 -2.17749,0.91057c-0.32674,1.05859 6.66265,2.44017 6.11787,3.43884c-0.80075,1.4679 -0.5729,4.66579 -2.63117,4.18947c-0.39436,-0.09126 -1.51249,-3.92534 -4.16158,-5.75625c-2.6491,-1.83091 -8.32245,-3.30185 -8.32752,-2.87554c-0.00256,0.2147 -0.40777,1.08746 -0.1645,1.69023c0.45003,1.11511 1.16853,1.84748 2.71665,2.29958c1.37533,0.40164 3.51572,0.83894 3.81947,1.27509c0.3288,0.47211 -0.95754,0.54368 -1.98471,0.46966c-0.8957,-0.06455 -2.16887,-0.18719 -2.14282,-0.10365c0.24026,0.77068 2.29206,0.90262 3.20355,1.31771c1.21089,0.55143 2.12477,1.42668 2.27242,1.8169c0.33514,0.88576 0.09309,0.7443 0.03998,1.20684c-0.08631,0.75163 -1.12241,-0.14813 -1.5733,-0.2146c-0.02512,-0.0037 -1.49116,-1.29511 -2.35109,-1.76372c-1.14385,-0.62333 -3.53265,-1.25862 -4.70483,-1.90355c-1.31464,-0.7233 -1.36573,-1.45052 -1.66887,-2.02497c-0.77665,-1.47173 -0.40155,-2.47578 -1.49043,-3.97349c-0.92777,-1.2761 -2.42581,-1.63318 -3.81147,-2.07522c-1.42271,-0.45386 -2.72019,-0.98287 -2.63413,-1.56664c0.09607,-0.65167 0.06452,-2.18723 1.0531,-2.75835c0.58845,-0.33996 3.85306,0.17186 6.141,-1.67592c1.88835,-1.52507 0.16616,-6.21793 0.88623,-6.22729c0.96375,-0.01252 5.47099,1.29755 4.94383,3.18208c-0.04778,0.17079 -0.52122,1.46092 -1.4755,2.51714c-1.29702,1.43557 -3.16186,2.71501 -3.07767,2.72743c0.43649,0.06435 1.95849,-0.21308 3.29194,-0.85246z" data-paper-data="{&quot;index&quot;:null}" fill="#344e5f" stroke-width="0"/><path d="M115.2194,139.51883c-0.08476,-0.00765 1.36543,2.37351 2.22407,4.80614c0.63175,1.78981 0.73462,3.76791 0.73385,4.02529c-0.00858,2.84003 -4.72354,3.34923 -5.65127,3.0417c-0.69316,-0.22977 2.26056,-6.38971 0.85516,-9.12744c-1.70279,-3.31705 -4.99772,-3.57016 -5.47285,-4.23079c-0.79821,-1.10984 -0.3457,-3.28537 -0.25943,-4.24153c0.07728,-0.85655 1.47631,-1.21925 2.97566,-1.43737c1.46031,-0.21244 3.00585,-0.27022 4.25298,-1.80713c1.4637,-1.80381 1.37722,-3.34526 2.5321,-5.20597c0.45077,-0.72627 0.70001,-1.7457 2.16899,-2.37971c1.30981,-0.56532 3.79247,-0.75119 5.06897,-1.29429c0.95966,-0.40829 2.73106,-1.80518 2.75635,-1.80289c0.45392,0.04096 1.7023,-0.92787 1.57911,0.16759c-0.0758,0.67412 0.19693,0.54561 -0.37031,1.70523c-0.2499,0.51087 -1.37344,1.48157 -2.69496,1.9022c-0.99477,0.31664 -3.01347,-0.11241 -3.45742,0.91199c-0.04812,0.11104 1.21571,0.31926 2.09888,0.49667c1.01281,0.20344 2.23599,0.69198 1.78855,1.26493c-0.41335,0.5293 -2.60158,0.50812 -4.04081,0.66618c-1.62004,0.17792 -2.51554,1.00405 -3.25683,2.45549c-0.40071,0.78458 -0.24905,2.14827 -0.30559,2.45453c-0.11226,0.60813 5.77361,0.22056 8.83635,-1.58834c3.06275,-1.80891 5.19682,-6.92843 5.60292,-6.93974c2.11961,-0.05903 1.02059,4.42287 1.39085,6.75231c0.2519,1.58482 -6.88097,1.44961 -6.85619,3.05414c0.00721,0.46734 1.22524,1.2453 1.85364,1.95026c1.20666,1.35369 3.58754,0.9078 5.15371,1.97272c1.58218,1.0758 1.6732,4.43195 1.13893,4.41902c-1.63552,-0.03961 -4.74969,-1.88827 -6.88048,-1.95984c-1.97725,-0.06641 -1.9074,1.89686 -3.14441,1.6832c-1.54822,-0.26741 0.00543,-5.49444 -0.79779,-6.02709c-1.45215,-0.963 -6.1899,1.2599 -6.12934,1.68552c0.25421,1.78682 1.39716,1.27114 2.51266,2.47966c1.20785,1.30856 2.53432,4.78358 4.44725,4.38399c1.02805,-0.21475 1.72507,-0.16672 2.61409,-0.10358c0.9168,0.06512 2.01877,0.1508 2.62377,0.2818c0.91114,0.19728 2.23746,2.71203 2.22688,2.76871c-0.23861,1.27741 -5.502,-1.12625 -5.46622,-0.29157c0.06306,1.47128 7.8222,3.83454 8.49632,5.94133c0.37818,1.18189 -4.44521,-0.45439 -5.49453,0.47983c-1.71279,1.52491 -0.30735,5.30133 -1.33927,5.21499c-0.69485,-0.05815 -0.6978,-5.0129 -2.59691,-8.14326c-1.93708,-3.19296 -6.61167,-3.80637 -6.69132,-3.911c-0.32412,-0.4258 -0.72796,-2.67896 -2.07974,-4.27128c-1.11266,-1.31065 -2.50697,-2.16295 -2.9464,-2.2026z" data-paper-data="{&quot;index&quot;:null}" fill="#344e5f" stroke-width="0"/><path d="M498.80076,254.26379c-1.71228,-0.54402 -3.27525,-0.07778 -3.71184,-0.19267c-0.10729,-0.02823 -3.13414,-3.64028 -6.12682,-4.09753c-2.93401,-0.44829 -5.86661,1.30194 -6.297,0.75334c-0.63916,-0.81471 2.39568,-0.99933 2.32162,-2.94171c-0.04537,-1.18998 -3.76209,-4.5621 -2.84744,-4.6704c1.63043,-0.19304 7.45023,5.32664 8.35649,4.85786c0.51413,-0.26594 -3.90727,-3.72703 -3.28762,-4.37433c0.0275,-0.02872 2.27093,0.16815 2.90687,0.84469c0.42228,0.44923 1.10096,1.32156 1.66195,2.0495c0.54399,0.70587 0.96963,1.25982 1.42847,2.17788c0.85379,1.70827 3.66533,1.56558 5.12773,2.09207c1.3506,0.48624 1.6969,1.60486 2.89874,1.18104c0.28629,-0.10095 -1.09877,-4.76803 -2.496,-5.61687c-0.77283,-0.46951 -2.9794,2.65205 -4.0199,1.47848c-0.83134,-0.93767 0.36982,-1.57493 -0.79629,-3.17103c-1.25665,-1.72005 -4.12495,-3.61699 -5.08044,-4.94266c-0.31213,-0.43306 1.72504,-1.54566 3.26308,-0.63022c1.52249,0.90618 2.61556,3.01412 4.10399,3.52367c0.77513,0.26536 1.92946,0.98789 2.21002,0.82848c0.96325,-0.54728 -3.18167,-6.3421 -2.10064,-6.69636c1.58896,-0.52071 3.61385,-3.00632 4.78687,-1.24923c0.22474,0.33665 -1.58746,3.89563 -0.91207,7.04424c0.67539,3.14862 3.80043,8.10692 4.09618,7.79985c0.14895,-0.15464 1.04205,-0.5128 1.2778,-1.11855c0.43613,-1.12062 0.41448,-2.14636 -0.40352,-3.5363c-0.7267,-1.23481 -1.98628,-3.01974 -1.90874,-3.54555c0.08393,-0.56917 1.07,0.25996 1.76753,1.0176c0.60825,0.66067 1.45168,1.62224 1.48993,1.54354c0.35297,-0.72601 -1.05127,-2.2278 -1.43088,-3.15463c-0.50429,-1.23127 -0.57038,-2.49494 -0.4106,-2.88035c0.3627,-0.87483 0.44211,-0.60596 0.79767,-0.90652c0.57781,-0.4884 0.71614,0.87687 0.99906,1.23419c0.01576,0.01991 0.19896,1.96501 0.50433,2.89551c0.40619,1.23771 1.71109,3.33705 2.12314,4.60991c0.46212,1.42754 0.00112,1.99229 -0.17161,2.61843c-0.44253,1.60416 -1.40364,2.07858 -1.63651,3.91558c-0.19842,1.56519 0.6482,2.85161 1.35475,4.12293c0.72544,1.30531 1.30818,2.57957 0.84554,2.94586c-0.51644,0.40889 -1.54547,1.54909 -2.65687,1.28785c-0.66156,-0.1555 -2.68904,-2.76491 -5.6216,-2.98635c-2.42039,-0.18277 -4.38092,4.41563 -4.91187,3.92913c-0.71063,-0.65114 -3.09641,-4.69335 -1.42131,-5.70499c0.15181,-0.09169 1.38055,-0.70713 2.79932,-0.82276c1.92832,-0.15716 4.16332,0.18842 4.11049,0.1217c-0.27388,-0.34592 -1.57265,-1.18654 -2.98204,-1.63432z" data-paper-data="{&quot;index&quot;:null}" fill="#344e5f" stroke-width="0"/><path d="M440.77564,251.68336c-13.14002,0.43921 -24.20032,5.21934 -24.41565,-1.22285c-0.07687,-2.29974 7.11483,-2.35399 9.47744,-6.69141c0.72571,-1.3323 -4.97548,0.09294 -4.55514,-1.51682c0.74638,-2.85837 -1.97045,-4.29213 0.98335,-4.24267c0.96457,0.01615 6.97303,3.0456 8.41906,6.70799c0.2506,0.63469 5.41916,-4.11191 4.61216,-6.82207c-0.5547,-1.86286 -7.40323,-1.2786 -6.65257,-3.29646c1.78266,-4.79202 8.47579,-0.6489 9.59221,-0.67125c1.05467,-0.02111 0.19597,0.63057 0.66188,3.6371c0.90781,5.85818 3.77394,8.49427 4.28374,8.47723c0.83436,-0.02789 -2.21337,-12.6399 -0.38386,-17.11898c0.57338,-1.40377 2.65729,7.22404 4.16848,7.63056c2.14012,0.57572 3.79646,-6.5987 4.13021,-6.62395c5.06408,-0.38313 -2.60825,12.47872 -0.71149,16.38158c0.48152,0.9908 4.03325,-3.81068 7.50025,-8.19193c0.68929,-0.87106 -2.22983,-9.76082 -1.57203,-10.54983c1.0125,-1.21448 2.50012,1.73251 4.25227,3.15349c1.50763,1.22267 3.34087,0.87807 3.72931,0.85966c1.80976,-0.08577 -4.03158,8.92759 -4.56974,13.01156c-0.54824,4.16047 4.1895,3.40167 4.21871,4.27569c0.21533,6.44219 -10.02856,2.37416 -23.16858,2.81338z" fill="#344e5f" stroke-width="0"/><path d="M135.39072,140.48767c-8.59352,-5.35357 -17.71812,-7.03862 -15.09341,-11.25178c0.93697,-1.50402 5.5605,1.54512 8.93168,-0.21627c1.0355,-0.54104 -3.22249,-2.07406 -2.26333,-2.92352c1.70312,-1.50833 0.58007,-3.59045 2.44829,-2.29221c0.61007,0.42394 3.15441,4.93823 2.50893,7.90099c-0.11186,0.51345 5.22965,-0.30647 5.87557,-2.38611c0.44398,-1.42946 -4.1873,-3.99242 -2.84186,-4.96129c3.19514,-2.30086 5.6999,3.21939 6.42361,3.68382c0.68369,0.43874 -0.14503,0.48739 -1.13623,2.61033c-1.93133,4.13654 -1.22835,7.05175 -0.89494,7.25946c0.54567,0.33994 4.00425,-9.03437 7.09518,-11.11497c0.96871,-0.65207 -1.39794,5.7604 -0.60561,6.66845c1.12208,1.28596 5.25802,-2.593 5.48233,-2.46604c3.40359,1.92643 -7.01935,6.86374 -7.47962,10.17359c-0.11685,0.84026 4.21396,-0.70807 8.31037,-2.02393c0.81443,-0.26161 2.75916,-7.19979 3.51826,-7.42243c1.16843,-0.34269 0.85632,2.18029 1.36778,3.84056c0.44009,1.42858 1.7605,1.99425 2.01687,2.14904c1.19442,0.72117 -6.40705,3.98188 -8.50252,6.36348c-2.13472,2.4262 1.2212,3.9724 0.86511,4.54401c-2.62471,4.21316 -7.43295,-2.78164 -16.02646,-8.1352z" fill="#344e5f" stroke-width="0"/><path d="M55.67164,18.67482c-7.32386,-10.91853 -17.23131,-17.77579 -11.87826,-21.36647c1.91094,-1.28181 5.76142,4.7925 10.69207,4.50294c1.51452,-0.08894 -2.71093,-4.17312 -1.12249,-4.66798c2.82051,-0.8787 2.6,-3.94271 4.1206,-1.4099c0.49655,0.82709 1.10421,7.52858 -1.2388,10.69313c-0.40604,0.54842 6.35621,2.42358 8.2292,0.30506c1.28742,-1.45619 -2.8313,-6.9589 -0.72181,-7.38934c5.00963,-1.0222 5.03441,6.84944 5.64396,7.78503c0.57584,0.88384 -0.43144,0.49989 -2.73637,2.48573c-4.49113,3.8694 -5.21197,7.69614 -4.92782,8.11976c0.46505,0.6933 9.55557,-8.56487 14.32443,-9.38177c1.49459,-0.25602 -4.72473,6.07658 -4.2703,7.57405c0.64357,2.1207 7.60813,-0.269 7.80612,0.00087c3.00406,4.09479 -11.96946,4.3879 -14.27809,8.06215c-0.58609,0.93276 5.36742,1.40682 10.91949,2.03128c1.10383,0.12415 7.10363,-7.05579 8.12118,-6.91497c1.56625,0.21677 -0.14767,3.03815 -0.42664,5.27676c-0.24004,1.9262 1.02219,3.29963 1.2433,3.61953c1.03016,1.49042 -9.70884,1.30147 -13.45927,3.00521c-3.82067,1.73565 -0.67046,5.35478 -1.39671,5.84194c-5.35305,3.59069 -7.31991,-7.25448 -14.64378,-18.173z" fill="#344e5f" stroke-width="0"/><path d="M287.50252,127.22511c0,1.26114 -4.93925,3.12806 -8.68307,6.46963c-2.29476,2.04819 -4.14039,5.95879 -4.1242,6.77512c0.12158,6.13035 3.15848,11.80911 -1.67252,11.80911c-2.50407,0 -2.83278,-8.72581 -4.64333,-10.57923c-2.4686,-2.52704 3.50019,-2.5589 3.50019,-6.09159c0,-7.83914 -6.33332,-15.52768 0.19052,-15.52768c3.54829,0 -0.48666,8.78652 5.17473,8.6779c4.74759,-0.09109 10.25768,-5.10873 10.25768,-1.53326z" fill="#344e5f" stroke-width="0"/><path d="M539.7407,231.58717c0,1.26113 -4.93924,3.12806 -8.68307,6.46962c-2.29476,2.04819 -4.1404,5.95879 -4.12421,6.77512c0.12158,6.13035 3.15848,11.80911 -1.67252,11.80911c-2.50408,0 -2.83278,-8.72581 -4.64333,-10.57923c-2.4686,-2.52704 3.50019,-2.55889 3.50019,-6.09159c0,-7.83913 -6.33332,-15.52767 0.19052,-15.52767c3.54828,0 -0.48666,8.78652 5.17473,8.67789c4.74759,-0.09109 10.25768,-5.10873 10.25768,-1.53326z" fill="#344e5f" stroke-width="0"/><path d="M287.90166,153.44663c0,7.34288 -8.54729,13.29545 -19.09091,13.29545c-10.54362,0 -19.09091,-5.95258 -19.09091,-13.29545c0,-4.48268 0.91272,-14.3563 5.79317,-16.76469c3.114,-1.53669 9.19079,3.46924 13.29774,3.46924c1.59446,0 1.55235,4.68158 3.03284,4.93806c8.30952,1.43954 16.05807,2.12494 16.05807,8.35739z" fill="#344e5f" stroke-width="0"/><path d="M292.99876,151.6456c-0.01092,0.06782 1.9878,-0.96606 3.99473,-1.52075c1.4766,-0.40812 3.07509,-0.37982 3.28229,-0.36474c2.28624,0.16646 2.43136,3.99143 2.13162,4.72114c-0.22395,0.54521 -5.01783,-2.17912 -7.30114,-1.20134c-2.76647,1.18469 -3.15537,3.82346 -3.71399,4.16891c-0.93846,0.58035 -2.66471,0.09378 -3.42974,-0.0294c-0.68533,-0.11035 -0.89878,-1.25718 -0.99017,-2.47668c-0.08901,-1.18774 -0.0487,-2.43542 -1.21611,-3.52591c-1.37015,-1.27987 -2.61615,-1.29684 -4.04946,-2.33125c-0.55945,-0.40375 -1.36626,-0.6617 -1.79423,-1.88011c-0.38159,-1.08639 -0.39178,-3.09581 -0.75736,-4.15412c-0.27484,-0.79563 -1.30005,-2.30039 -1.29679,-2.32062c0.05848,-0.36318 -0.65146,-1.42278 0.22366,-1.26205c0.53853,0.09891 0.45037,-0.12791 1.35221,0.39397c0.3973,0.22991 1.11576,1.18909 1.3802,2.27678c0.19906,0.81875 -0.2598,2.42005 0.54007,2.83506c0.0867,0.04499 0.32536,-0.96092 0.51782,-1.66206c0.22071,-0.80406 0.68278,-1.76149 1.11897,-1.36903c0.40296,0.36255 0.26297,2.12327 0.30938,3.29098c0.05224,1.31441 0.6671,2.08185 1.79412,2.76026c0.60921,0.36672 1.71574,0.32121 1.95916,0.38395c0.48334,0.12455 0.50195,-4.63637 -0.78247,-7.20404c-1.28442,-2.56767 -5.28663,-4.57358 -5.27292,-4.90121c0.07155,-1.70997 3.61851,-0.57327 5.51493,-0.74053c1.29021,-0.11379 0.78062,5.62181 2.07393,5.69201c0.3767,0.02045 1.07152,-0.91658 1.67444,-1.38294c1.15775,-0.89552 0.93248,-2.83759 1.87792,-4.0388c0.9551,-1.21349 3.66249,-1.09824 3.62206,-0.66878c-0.12378,1.31465 -1.78723,3.71825 -1.96456,5.42989c-0.16456,1.5883 1.42015,1.64236 1.17862,2.62636c-0.30229,1.23156 -4.42367,-0.31304 -4.89768,0.30375c-0.85697,1.11513 0.66669,5.05473 1.01279,5.02989c1.45299,-0.1043 1.10199,-1.05355 2.13772,-1.88382c1.12148,-0.89901 3.99399,-1.77182 3.77972,-3.33451c-0.11516,-0.83982 -0.03732,-1.39835 0.06346,-2.11061c0.10394,-0.73453 0.23484,-1.61699 0.3743,-2.09677c0.21003,-0.72254 2.30936,-1.64919 2.3544,-1.63748c1.01513,0.26389 -1.21593,4.36679 -0.54186,4.38488c1.18818,0.03189 3.52693,-6.08281 5.26113,-6.50724c0.97287,-0.2381 -0.6156,3.55365 0.07766,4.45102c1.1316,1.46476 4.25124,0.5453 4.12374,1.37133c-0.08586,0.55621 -4.07547,0.28022 -6.70265,1.63347c-2.67972,1.38031 -3.43624,5.10971 -3.52496,5.16796c-0.36105,0.23706 -2.19793,0.43563 -3.55596,1.43459c-1.11781,0.82225 -1.8824,1.89703 -1.93901,2.24862z" fill="#344e5f" stroke-width="0"/><path d="M287.50252,127.22511c0,1.26114 -4.93925,3.12806 -8.68307,6.46963c-2.29476,2.04819 -4.14039,5.95879 -4.1242,6.77512c0.12158,6.13035 3.15848,11.80911 -1.67252,11.80911c-2.50407,0 -2.83278,-8.72581 -4.64333,-10.57923c-2.4686,-2.52704 3.50019,-2.5589 3.50019,-6.09159c0,-7.83914 -6.33332,-15.52768 0.19052,-15.52768c3.54829,0 -0.48666,8.78652 5.17473,8.6779c4.74759,-0.09109 10.25768,-5.10873 10.25768,-1.53326z" fill="#344e5f" stroke-width="0"/><path d="M193.91387,158.31258c-18.98509,0 -34.37554,-15.39045 -34.37554,-34.37554c0,-18.98509 15.39045,-34.37554 34.37554,-34.37554c18.98509,0 34.37554,15.39045 34.37554,34.37554c0,18.98509 -15.39045,34.37554 -34.37554,34.37554z" data-paper-data="{&quot;index&quot;:null}" fill="url(#color-1)" stroke-width="0"/><g data-paper-data="{&quot;index&quot;:null}" stroke-width="1"><g fill="#d68512"><path d="M196.1601,134.16567c-1.80852,-0.47929 -2.88607,-2.33389 -2.40681,-4.1424c0.47929,-1.80852 2.33389,-2.88607 4.1424,-2.40681c1.80852,0.47929 2.88607,2.33389 2.40681,4.1424c-0.47929,1.80852 -2.33389,2.88607 -4.1424,2.40681z"/></g><g fill="#d68512"><path d="M198.85844,123.98343c-1.80852,-0.47929 -2.88607,-2.33389 -2.40681,-4.1424c0.47929,-1.80852 2.33389,-2.88607 4.1424,-2.40681c1.80852,0.47929 2.88607,2.33389 2.40681,4.1424c-0.47929,1.80852 -2.33389,2.88607 -4.1424,2.40681z"/></g><g><path d="M201.70883,123.44121c0.47428,0.81658 1.26017,1.45209 2.24509,1.7131c1.5562,0.41239 3.14291,-0.23406 3.99839,-1.49471l0.20086,0.05322c2.41391,0.63969 3.85225,3.11511 3.21254,5.5291c-0.63969,2.41391 -3.11519,3.85225 -5.5291,3.21254l-0.20086,-0.05322c-0.11889,-1.51885 -1.17732,-2.8662 -2.73343,-3.27858c-0.98491,-0.26101 -1.98238,-0.09809 -2.79879,0.37627l1.60531,-6.05771z" fill="#d68512"/><path d="M201.70887,123.44123c0.47428,0.81658 1.26017,1.45209 2.24509,1.7131c0.85947,0.22777 1.7282,0.132 2.47795,-0.21139c-0.6395,0.73278 -1.12559,1.61906 -1.39156,2.62275c-0.26599,1.00369 -0.28255,2.01447 -0.08987,2.9678c-0.4814,-0.66962 -1.18868,-1.18305 -2.04815,-1.41082c-0.98491,-0.26101 -1.98238,-0.09809 -2.79879,0.37627l1.60531,-6.05771z" fill="#853b13"/></g><g fill="#d68512"><path d="M182.19194,119.73953c1.16836,-4.40884 5.68952,-7.03575 10.09826,-5.86741c0.61369,0.16262 0.97917,0.79178 0.81654,1.40546l-1.82107,6.87182z"/></g><g fill="#d68512"><path d="M181.47886,122.43044l9.09376,2.4098l-1.82107,6.87182c-0.16263,0.6137 -0.79172,0.97929 -1.4054,0.81666c-4.40874,-1.16833 -7.03566,-5.6894 -5.8673,-10.09823z"/></g><path d="M176.56598,120.01998c1.07666,-4.06354 5.24388,-6.48465 9.30728,-5.40782l13.37623,3.54474c4.06331,1.07681 6.4847,5.24391 5.40788,9.30742c-1.07687,4.06358 -5.24401,6.48476 -9.30751,5.40794l-13.37623,-3.54474c-4.06342,-1.07683 -6.48469,-5.244 -5.40766,-9.30754z" fill="#ff9e16"/><path d="M204.07293,122.02834c0.82752,1.61431 1.08574,3.54437 0.58443,5.43607c-0.50125,1.89151 -1.6727,3.42658 -3.19107,4.4193z" fill="#e8e8e8"/><path d="M187.98248,130.91987l3.04408,-14.94207l5.56749,1.47539l-3.89963,14.71536z" fill="#e8e8e8"/><path d="M182.36667,120.39508c-0.45036,-0.11935 -0.71873,-0.5812 -0.59938,-1.03159c0.11935,-0.45036 0.5812,-0.71873 1.03159,-0.59938c0.45036,0.11935 0.71873,0.5812 0.59938,1.03159c-0.11935,0.45036 -0.5812,0.71873 -1.03159,0.59938z" fill="#853b13"/><g><path d="M193.62093,120.13081c1.42775,2.4573 0.59312,5.60681 -1.8642,7.03464l-2.58521,-4.44952z" fill="#853b13"/><path d="M192.8492,120.57913c0.54686,0.94121 0.73464,2.09099 0.43375,3.22635c-0.30089,1.13536 -1.03344,2.04135 -1.97473,2.58819l-2.13679,-3.67775z" fill="#d68512"/></g></g><path d="M214.54945,110.88978c0,0 -2.52135,-3.35674 -3.85404,-3.35674c-1.43614,0 -4.22701,2.98377 -4.22701,2.98377c0,0 2.73512,-2.8411 2.73512,-4.35134c0,-1.26355 -2.36215,-3.35674 -2.36215,-3.35674c0,0 2.33123,1.86486 3.72971,1.86486c1.37778,0 3.97837,-2.23783 3.97837,-2.23783c0,0 -2.23783,2.34204 -2.23783,3.72971c0,1.42911 2.23783,4.72431 2.23783,4.72431z" data-paper-data="{&quot;index&quot;:null}" fill="#ffffff" stroke-width="0"/><path d="M174.78033,110.57502c0,0 1.52195,-2.78211 1.10598,-3.69882c-0.44827,-0.98787 -3.37183,-1.97625 -3.37183,-1.97625c0,0 2.80802,0.99456 3.84685,0.52316c0.86915,-0.3944 1.57165,-2.6726 1.57165,-2.6726c0,0 -0.5551,2.18566 -0.11857,3.14762c0.43006,0.94771 2.78112,2.03805 2.78112,2.03805c0,0 -2.30951,-0.80828 -3.26404,-0.37513c-0.98303,0.44608 -2.55115,3.01396 -2.55115,3.01396z" data-paper-data="{&quot;index&quot;:null}" fill="#ffffff" stroke-width="0"/><path d="M192.13919,150.73161c0,0 1.52197,-2.78211 1.10598,-3.69882c-0.44827,-0.98787 -3.37184,-1.97625 -3.37184,-1.97625c0,0 2.80803,0.99457 3.84686,0.52317c0.86915,-0.3944 1.57166,-2.6726 1.57166,-2.6726c0,0 -0.5551,2.18565 -0.11857,3.14761c0.43006,0.94771 2.78112,2.03805 2.78112,2.03805c0,0 -2.30951,-0.80828 -3.26404,-0.37513c-0.98302,0.44609 -2.55116,3.01396 -2.55116,3.01396z" data-paper-data="{&quot;index&quot;:null}" fill="#ffffff" stroke-width="0"/></g></g></svg>