<svg version="1.1" xmlns="http://www.w3.org/2000/svg" xmlns:xlink="http://www.w3.org/1999/xlink" width="577.04892" height="476.09435" viewBox="0,0,577.04892,476.09435"><g transform="translate(56.23545,56.54439)"><g data-paper-data="{&quot;isPaintingLayer&quot;:true}" fill-rule="nonzero" stroke="none" stroke-linecap="butt" stroke-linejoin="miter" stroke-miterlimit="10" stroke-dasharray="" stroke-dashoffset="0" style="mix-blend-mode: normal"><path d="" data-paper-data="{&quot;index&quot;:null}" fill="#344e5f" stroke-width="0"/><path d="" data-paper-data="{&quot;index&quot;:null}" fill="#344e5f" stroke-width="0"/><path d="" fill="#344e5f" stroke-width="0"/><path d="M-32.00208,-56.29439c0,-0.13807 0.11193,-0.25 0.25,-0.25c0.13807,0 0.25,0.11193 0.25,0.25c0,0.13807 -0.11193,0.25 -0.25,0.25c-0.13807,0 -0.25,-0.11193 -0.25,-0.25z" fill-opacity="0.06275" fill="#5e5e5e" stroke-width="0.5"/><path d="M495.69553,394.08748c-2.43484,8.50792 -175.69004,32.22778 -275.79971,23.60477c-42.50439,-3.66114 -184.26433,-5.20738 -227.4598,-13.90521c-48.03382,-9.67207 -42.53711,-11.62186 -47.64232,-25.00379c-5.42383,-14.2171 12.35713,-62.27914 12.35713,-62.27914c0,-5.13271 15.89546,-14.60738 17.14948,-23.73893c1.90061,-13.83991 -10.5064,-28.9793 -9.99747,-43.53287c0.46774,-13.37572 6.6369,-31.15477 19.55186,-34.66653c25.82951,-7.02339 22.55137,-0.65592 46.82489,0.15962c18.53511,0.62274 38.53571,-5.26624 54.63517,-8.39402c19.4283,-3.77449 46.08559,-14.14249 69.61823,-21.57765c4.69698,-1.48401 19.5555,-2.91823 34.29871,-2.72646c3.93343,0.05116 6.38345,4.62806 10.10529,4.94062c2.72067,0.22849 6.80786,-3.87518 9.23495,-3.47932c17.13958,2.79549 28.90391,9.1664 38.39987,11.63558c3.85584,1.00257 6.06419,1.72959 10.04187,1.72959c1.60729,0 18.61153,9.63856 21.21457,8.42c22.80778,-10.67697 26.5296,7.08546 49.38618,-3.48104c0.45784,-0.21165 41.78529,-4.53293 51.01402,11.84518c2.21841,3.937 35.354,4.91711 40.76239,12.11404c6.09658,8.1127 35.88935,8.42444 44.3702,15.0231c10.27149,7.9919 50.02039,12.7753 51.37539,18.62025c11.29188,48.70869 3.24628,85.16737 -2.72722,106.04016z" data-paper-data="{&quot;index&quot;:null}" fill="#344e5f" stroke-width="0"/></g></g></svg>