<svg version="1.1" xmlns="http://www.w3.org/2000/svg" xmlns:xlink="http://www.w3.org/1999/xlink" width="700.75047" height="534.70919" viewBox="0,0,700.75047,534.70919"><defs><linearGradient x1="324.31363" y1="192.53266" x2="324.31363" y2="42.38682" gradientUnits="userSpaceOnUse" id="color-1"><stop offset="0" stop-color="#000000"/><stop offset="1" stop-color="#070b0d"/></linearGradient></defs><g transform="translate(116.00375,86.26441)"><g data-paper-data="{&quot;isPaintingLayer&quot;:true}" fill-rule="nonzero" stroke="none" stroke-linecap="butt" stroke-linejoin="miter" stroke-miterlimit="10" stroke-dasharray="" stroke-dashoffset="0" style="mix-blend-mode: normal"><path d="M520.01331,-26.83638c0,2.86192 1.75749,115.69001 9.78786,128.19384c2.4883,3.87446 13.95246,78.71653 -15.02707,78.71653c-4.8844,0 -15.36026,15.19264 -32.64735,29.1965c-7.48983,6.06734 8.88359,12.14425 -17.56462,12.39546c-1.51496,0.01439 -3.28668,-5.09946 -13.17513,-6.6494c-8.30311,-1.30145 -15.49489,2.79747 -20.32122,0.33167c-4.44464,-2.27078 -6.83871,-3.33546 -8.94555,-5.87075c-4.9056,-5.90322 -15.60937,-8.72948 -21.39892,-8.97411c-9.59802,-0.40555 -23.90442,-0.28948 -37.66934,-0.83428c-10.92282,-0.43231 -24.50543,-22.28602 -32.12312,-24.14148c-3.17835,-0.77416 -3.25032,10.95592 -5.80425,14.05772c-4.09692,4.97577 -10.44971,2.50178 -15.19828,1.51699c-26.85614,-5.5696 -49.96308,-8.50364 -67.22303,-8.08533c-7.58079,0.18373 -14.82587,0.15049 -21.75474,-0.05938c-9.91927,-0.30044 -15.43955,-13.71606 -24.1199,-14.62212c-6.52221,-0.68079 -16.46178,11.25406 -22.3411,10.34839c-37.30817,-5.74711 -62.16092,-15.01112 -80.7577,-14.96296c-8.84285,0.0229 -37.7714,14.73873 -55.57079,15.66024c-5.48773,0.28411 -11.34719,-8.60587 -13.41143,-9.61796c-5.77809,-2.83298 -22.41976,20.76291 -27.76769,19.7922c-11.78922,-2.13987 -19.2755,-27.68636 -28.34511,-27.66793c-7.94963,0.01616 9.87033,-28.79957 -5.63988,-37.02342c-24.14384,-12.80158 -33.7649,-162.91075 -26.57033,-166.52729c35.87897,-18.03554 28.52022,12.41842 64.61107,-5.18931c18.02243,-8.79266 71.62283,9.02816 96.22475,9.72426c28.45625,0.80515 41.53445,4.14506 65.36428,4.20132z" data-paper-data="{&quot;index&quot;:null}" fill="url(#color-1)" stroke-width="0"/><path d="" data-paper-data="{&quot;index&quot;:null}" fill="#344e5f" stroke-width="0"/><path d="" data-paper-data="{&quot;index&quot;:null}" fill="#344e5f" stroke-width="0"/><path d="" data-paper-data="{&quot;index&quot;:null}" fill="#344e5f" stroke-width="0"/><path d="" data-paper-data="{&quot;index&quot;:null}" fill="#344e5f" stroke-width="0"/><path d="" data-paper-data="{&quot;index&quot;:null}" fill="#344e5f" stroke-width="0"/><path d="" data-paper-data="{&quot;index&quot;:null}" fill="#344e5f" stroke-width="0"/><path d="" data-paper-data="{&quot;index&quot;:null}" fill="#344e5f" stroke-width="0"/><path d="" data-paper-data="{&quot;index&quot;:null}" fill="#344e5f" stroke-width="0"/><path d="" data-paper-data="{&quot;index&quot;:null}" fill="#344e5f" stroke-width="0"/><path d="" data-paper-data="{&quot;index&quot;:null}" fill="#344e5f" stroke-width="0"/><path d="" data-paper-data="{&quot;index&quot;:null}" fill="#344e5f" stroke-width="0"/><path d="" data-paper-data="{&quot;index&quot;:null}" fill="#344e5f" stroke-width="0"/><path d="" data-paper-data="{&quot;index&quot;:null}" fill="#344e5f" stroke-width="0"/><path d="" data-paper-data="{&quot;index&quot;:null}" fill="#344e5f" stroke-width="0"/><path d="" data-paper-data="{&quot;index&quot;:null}" fill="#344e5f" stroke-width="0"/><path d="" data-paper-data="{&quot;index&quot;:null}" fill="#344e5f" stroke-width="0"/><path d="" data-paper-data="{&quot;index&quot;:null}" fill="#344e5f" stroke-width="0"/><path d="" data-paper-data="{&quot;index&quot;:null}" fill="#344e5f" stroke-width="0"/><path d="" data-paper-data="{&quot;index&quot;:null}" fill="#344e5f" stroke-width="0"/><path d="" data-paper-data="{&quot;index&quot;:null}" fill="#344e5f" stroke-width="0"/><path d="" data-paper-data="{&quot;index&quot;:null}" fill="#344e5f" stroke-width="0"/><path d="" fill="#000000" stroke-width="0.5"/><path d="M-116.00375,448.44478v-534.70919h700.75047v534.70919z" fill="none" stroke-width="0"/><path d="M-54.6794,411.50068l-40.92769,-55.93452c0,0 7.7628,-19.51825 27.34977,-32.34494c12.11666,-7.93469 27.84283,-4.72443 42.19922,-7.8093c9.33027,-2.00487 18.53823,-11.68751 24.24364,-11.68751c4.42673,0 12.07435,9.74026 19.19005,9.06158c13.7118,-1.3078 29.73476,-13.44255 46.98338,-13.16291c5.0666,0.08214 6.28706,9.50759 20.692,6.06474c9.96258,-2.3811 31.33181,0.38304 35.25613,0.42101c7.55891,0.07314 52.05353,-12.3238 59.95063,-12.08839c8.9645,0.26722 9.95469,19.96573 19.12908,20.33546c28.23049,1.13769 40.99225,-10.40596 69.13559,-15.98165c5.20253,-1.03071 11.45389,10.764 19.56798,10.56178c5.71397,-0.1424 2.10435,-12.91994 7.96304,-15.74656c3.16433,-1.52668 3.81758,7.97126 9.45815,11.32041c6.16746,3.66199 15.16215,-7.77789 17.36613,-7.75963c11.03299,0.09143 82.00076,16.02305 92.76617,16.3873c26.36541,0.89209 93.38791,-9.44488 110.51083,-9.07963c49.24707,1.05048 18.0745,11.26267 18.0745,11.26267v96.18008z" fill="#000000" stroke-width="0"/></g></g></svg>