<svg version="1.1" xmlns="http://www.w3.org/2000/svg" xmlns:xlink="http://www.w3.org/1999/xlink" width="36.9549" height="19.92127" viewBox="0,0,36.9549,19.92127"><g transform="translate(-221.52255,-170.03936)"><g data-paper-data="{&quot;isPaintingLayer&quot;:true}" fill="#0e0e0f" fill-rule="nonzero" stroke="none" stroke-width="0" stroke-linecap="butt" stroke-linejoin="miter" stroke-miterlimit="10" stroke-dasharray="" stroke-dashoffset="0" style="mix-blend-mode: normal"><path d="M224.4745,173.3231c0,0 -3.0082,-0.12199 -2.93347,-0.80181c0.16247,-0.09038 -0.14139,-0.21298 0.04344,-0.35637c0.37003,-0.28709 2.21544,-0.52055 2.6283,-0.88266c0.61753,-0.54162 1.24876,-1.06485 1.24876,-1.06485c2.54902,-0.67523 2.85542,0.71432 3.87417,1.75567c0.91295,0.9332 2.91248,1.46122 4.38081,1.15009c1.82026,-0.38571 2.42062,-0.36527 4.76844,-0.36527c4.61896,0 10.70122,2.66289 11.94125,3.96c0.46609,0.48755 2.29397,2.42051 2.29397,2.97521c0,0.12679 2.26624,0.53692 2.93221,1.28174c0.52015,0.58172 2.68766,0.73623 2.82174,0.89862c0.1046,0.12668 -2.2771,1.75445 -3.66063,2.59837c-2.29426,1.39943 -7.28469,1.89326 -8.26655,1.46217c-3.08583,-1.35487 -6.21998,0.69429 -8.52439,-0.93614c-1.83346,-1.29722 -3.56414,-1.70652 -6.5428,-4.41855c-0.90038,-0.81979 -2.18253,-2.09035 -2.55453,-3.57319c-0.72792,-0.50283 -2.63482,-2.24816 -3.27424,-2.70265z"/><path d="M237.85365,178.12777c1.11804,4.35904 2.82485,4.26416 2.28101,4.5636c-0.36454,0.20072 -1.73448,2.40102 -2.50999,0.13489c-0.3814,-1.11452 -4.21681,-3.99519 -4.58539,-5.43226c-1.11804,-4.35904 0.45215,-2.31484 0.99599,-2.61428c0.54383,-0.29944 2.70035,-1.01097 3.81839,3.34806z"/><path d="M235.84113,181.96493c-1.26117,-3.6976 -1.81704,-4.1471 -0.39503,-4.63212c1.42203,-0.48502 2.56365,1.2639 3.82482,4.9615c1.26116,3.6976 2.83396,7.11133 1.41195,7.59635c-1.42201,0.48502 -3.09038,-1.58105 -4.35155,-5.27865z"/></g></g></svg>