<svg version="1.1" xmlns="http://www.w3.org/2000/svg" xmlns:xlink="http://www.w3.org/1999/xlink" width="52" height="13.22449" viewBox="0,0,52,13.22449"><g transform="translate(-214.00004,-173.38775)"><g data-paper-data="{&quot;isPaintingLayer&quot;:true}" fill-rule="nonzero" stroke-linecap="butt" stroke-linejoin="miter" stroke-miterlimit="10" stroke-dasharray="" stroke-dashoffset="0" style="mix-blend-mode: normal"><path d="M215.00005,185.61224v-11.22449h50v11.22449z" fill="#fbfbfb" stroke="none" stroke-width="0"/><path d="M215.00005,184.12822c0,-1.49185 0,-3.82799 0,-5.66811c0,-0.07775 0,-0.15462 0,-0.23051c0,-0.15123 0,-0.29854 0,-0.44113c0,-0.14174 0,-0.27882 0,-0.41045c0,-0.54366 0,-0.99435 0,-1.29668c0,-1.11337 0.85959,-1.69359 1.97296,-1.69359c4.76495,0 38.5669,0 46.40625,0c0.90229,0 1.62079,0.40068 1.62079,1.30297c0,1.24678 0,5.70885 0,8.20312c0,0.97259 -0.41382,1.7184 -1.38641,1.7184c-7.45618,0 -42.6169,0 -47.03125,0c-0.89339,0 -1.58234,-1.48402 -1.58234,-1.48402z" fill="none" stroke="#fbfbfb" stroke-width="2"/></g></g></svg>