<svg version="1.1" xmlns="http://www.w3.org/2000/svg" xmlns:xlink="http://www.w3.org/1999/xlink" width="51.81665" height="51.81832" viewBox="0,0,51.81665,51.81832"><defs><linearGradient x1="239.99999" y1="155.09084" x2="239.99999" y2="204.90916" gradientUnits="userSpaceOnUse" id="color-1"><stop offset="0" stop-color="#edd246"/><stop offset="1" stop-color="#b5a426"/></linearGradient></defs><g transform="translate(-214.04461,-154.09084)"><g data-paper-data="{&quot;isPaintingLayer&quot;:true}" fill-rule="nonzero" stroke-linecap="butt" stroke-linejoin="miter" stroke-miterlimit="10" stroke-dasharray="" stroke-dashoffset="0" style="mix-blend-mode: normal"><path d="M215.04463,198.7261c0,-11.25908 0,-34.36061 0,-38.83371c0,-1.96596 2.20029,-4.88183 5.04715,-4.79986c6.01019,0.17305 28.98107,0 38.72378,0c3.13463,0 5.92554,1.84509 6.0457,4.68375c0.21175,5.00233 0,27.097 0,38.60767c0,3.94876 -2.69927,6.52521 -6.79115,6.52521c-11.1123,0 -32.49513,0 -37.97835,0c-2.51898,0 -5.04715,-2.43555 -5.04715,-6.18307z" fill="#0a0d10" stroke="url(#color-1)" stroke-width="2"/><path d="M246.83026,192.78007v2.88996h-11.46574v-2.88983h1.22018c0.24325,-0.32111 0.77799,-0.84416 0.81533,-1.10278c0.04676,-0.3265 -1.13424,-3.15396 -1.18058,-3.48046c-0.04676,-0.32601 -0.04677,-2.983 -0.04677,-3.21554c0,-0.2334 -0.06207,-1.14997 -0.06207,-1.14997l-0.79244,0.09353c0,0 -0.97907,-0.83914 -1.39818,-1.30508c-0.4196,-0.46643 -0.46637,-0.93273 -0.46637,-1.30514c0,-0.37333 -0.32607,-3.07616 -0.27931,-3.40266c0.04628,-0.32607 0.41917,-3.68239 0.51221,-4.70774c0.09359,-1.02498 0.41966,-1.44458 0.93231,-1.81784c0.51264,-0.37241 2.33049,-1.39818 2.33049,-1.39818v-1.11857c0,0 -0.83871,-0.41911 -0.69934,-0.97858c-0.37235,-0.65251 -0.60574,-1.53805 -0.09304,-2.00393c-0.23297,-0.55947 0.65251,-1.53811 1.72468,-1.49177c1.11845,-0.27967 2.47035,0.3729 2.42359,1.25832c0.1862,0.83878 -0.18663,0.83878 -0.37284,0.93237l-0.03103,0.31077l0.12414,0.71458c0,0 0.03103,0.12414 -0.27973,0.12414v0.87024c0,0.12407 -0.21724,0.24864 -0.55904,0.09304v0.62154c0,0 0.6836,0.21767 1.14954,0.21767c0.46594,0 1.61591,0 2.36152,0.6836c0.74567,0.68312 1.92668,2.983 2.36152,3.511c0.43539,0.5285 0.3418,1.27411 -0.03097,1.64694c-0.37284,0.37284 -1.21161,0.18663 -1.67798,-0.3418c-0.46588,-0.5285 -1.58481,-2.14434 -1.58481,-2.14434c0,0 0.03103,6.40102 0.03103,6.64972c0,0.2487 0.8239,4.80084 0.94804,5.29824c0.46588,0.65208 1.02535,2.11233 1.18052,3.20024c0.15554,1.08748 0.35753,2.40786 0.51264,2.78069c0.1556,0.37277 0.8392,1.39861 1.21204,1.70938c0.08006,0.06654 0.15566,0.15291 0.22085,0.24827zM236.25006,176.9798l-0.69885,-1.81785l-0.74567,2.37725l-0.09353,3.16926l0.93224,0.97864c0,0 -0.13938,-0.93188 -0.04634,-1.49128c0.0931,-0.55953 0.65208,-3.21603 0.65214,-3.21603zM243.55357,192.78007c-0.23248,-0.24423 -0.40381,-0.42725 -0.42089,-0.52801c-0.03103,-0.18663 -0.3418,-1.42964 -0.3418,-1.42964c0,0 -1.53805,-3.55777 -1.81778,-4.17931c-0.27973,-0.62111 -1.95722,-4.56744 -2.08179,-4.87821c0,0 -0.1084,5.82619 -0.0153,6.10592c0.0931,0.27973 0.38857,3.66617 0.38857,3.80647c0,0.08276 -0.02473,0.63464 -0.07872,1.10278z" fill="#c0ad2c" stroke="none" stroke-width="1"/><path d="M249.62869,165.4166c0,0 -1.79636,-0.61436 -2.4024,-0.34732c-0.68036,0.29978 -1.48266,2.05914 -1.48266,2.05914c0,0 0.61442,-1.7962 0.32657,-2.44949c-0.28266,-0.64152 -2.03838,-1.43558 -2.03838,-1.43558c0,0 1.86778,0.49964 2.55106,0.19858c0.60121,-0.2649 1.33401,-1.91039 1.33401,-1.91039c0,0 -0.43517,1.75633 -0.141,2.42397c0.27516,0.62452 1.85282,1.46111 1.85282,1.46111z" fill="#ffffff" stroke="none" stroke-width="0"/><path d="M233.04198,160.82137c0,0 -1.83683,0.47999 -2.19456,1.03733c-0.4016,0.62568 -0.09872,2.53547 -0.09872,2.53547c0,0 -0.47986,-1.83673 -1.08064,-2.22235c-0.58996,-0.37868 -2.49216,-0.07093 -2.49216,-0.07093c0,0 1.83301,-0.61508 2.23634,-1.24344c0.35488,-0.55289 0.05695,-2.32936 0.05695,-2.32936c0,0 0.60726,1.70449 1.22124,2.09859c0.57432,0.36864 2.35156,0.1947 2.35156,0.1947z" fill="#ffffff" stroke="none" stroke-width="0"/><path d="M231.81246,189.70079c0,0 -3.17147,0.82875 -3.78913,1.79104c-0.69341,1.08029 -0.17045,4.37774 -0.17045,4.37774c0,0 -0.82853,-3.1713 -1.86583,-3.83712c-1.01862,-0.65383 -4.30296,-0.12247 -4.30296,-0.12247c0,0 3.16488,-1.06201 3.86126,-2.14692c0.61274,-0.95461 0.09833,-4.02186 0.09833,-4.02186c0,0 1.04851,2.94296 2.1086,3.62341c0.99161,0.6365 4.0602,0.33618 4.0602,0.33618z" fill="#ffffff" stroke="none" stroke-width="0"/></g></g></svg>