<svg version="1.1" xmlns="http://www.w3.org/2000/svg" xmlns:xlink="http://www.w3.org/1999/xlink" width="192" height="52" viewBox="0,0,192,52"><defs><linearGradient x1="169.96192" y1="165.16931" x2="169.96192" y2="194.83069" gradientUnits="userSpaceOnUse" id="color-1"><stop offset="0" stop-color="#a10000"/><stop offset="1" stop-color="#000000"/></linearGradient><linearGradient x1="170.94877" y1="169.81786" x2="170.94877" y2="190.18214" gradientUnits="userSpaceOnUse" id="color-2"><stop offset="0" stop-color="#bf0000"/><stop offset="1" stop-color="#bf0000" stop-opacity="0"/></linearGradient><linearGradient x1="261.32713" y1="173.30306" x2="261.32713" y2="186.69695" gradientUnits="userSpaceOnUse" id="color-3"><stop offset="0" stop-color="#ff0000"/><stop offset="1" stop-color="#431919"/></linearGradient></defs><g transform="translate(-144,-154.14706)"><g data-paper-data="{&quot;isPaintingLayer&quot;:true}" fill-rule="nonzero" stroke-linejoin="miter" stroke-miterlimit="10" stroke-dasharray="" stroke-dashoffset="0" style="mix-blend-mode: normal"><path d="M144,200.43473c0,-10.92171 0,-34.22737 0,-40.37037c0,-3.53261 2.14349,-5.9173 5.67611,-5.9173c15.91527,0 142.90023,0 177.59259,0c5.5442,0 8.7313,4.46151 8.7313,8.3247c0,5.82275 0,22.89413 0,33.88889c0,5.71375 -3.3299,9.78641 -9.10167,9.78641c-34.95274,0 -159.45596,0 -176.2963,0c-3.70264,0 -6.60203,-2.22479 -6.60203,-5.71233z" fill-opacity="0.80154" fill="#181a1e" stroke="none" stroke-width="0" stroke-linecap="butt"/><g stroke-linecap="butt"><path d="M155.10372,191.14935c0,-6.70356 0,-20.458 0,-23.12124c0,-1.17052 1.31003,-2.9066 3.00503,-2.85779c3.57841,0.10303 17.25507,0 23.05579,0c1.86633,0 3.52801,1.09855 3.59956,2.78866c0.12607,2.97834 0,16.13331 0,22.98666c0,2.35106 -1.60712,3.88505 -4.04339,3.88505c-6.61616,0 -19.34731,0 -22.61197,0c-1.49978,0 -3.00503,-1.4501 -3.00503,-3.68134z" fill="#0a0d10" stroke="url(#color-1)" stroke-width="2"/><path d="M173.96064,177.71073c0.00208,0.00208 0.00486,0.00417 0.00695,0.00625c-0.0007,0 -0.00208,0 -0.00348,0c0.12857,0.19529 -0.07923,0.4559 -0.62409,0.46286c-0.26687,0.00348 -0.45312,-0.05629 -0.55807,-0.14177c-0.16679,0.12232 -0.29815,0.27382 -0.37668,0.4427c0.56154,-0.00486 0.60324,0.80131 0.1244,0.94238c0.14942,0.21684 0.31761,0.36278 0.49899,0.45452c-0.00903,-0.24811 0.14525,-0.50803 0.46564,-0.51636c0.37181,-0.01043 0.52054,0.33011 0.44826,0.6095c0.17652,-0.03336 0.35513,-0.08687 0.53166,-0.1522c0.15428,-0.05698 0.30232,-0.12579 0.44339,-0.20363c-0.41003,-0.31482 -0.28008,-1.15714 0.39127,-1.17521c0.3044,-0.00834 0.49691,0.15915 0.57892,0.37529c0.10981,-0.12927 0.21127,-0.26478 0.30232,-0.40587c0.02224,-0.2217 0.1251,-0.43575 0.30788,-0.57336c0.03614,-0.0834 0.0695,-0.16679 0.09938,-0.25158c-0.88818,-0.14316 -0.83467,-1.6047 0.15915,-1.64432c-0.02015,-0.10285 -0.04587,-0.20293 -0.07923,-0.29954c-0.00834,-0.02363 -0.01668,-0.04726 -0.02641,-0.07089c-0.21266,-0.11189 -0.33706,-0.32386 -0.37251,-0.5539c-0.08896,-0.09104 -0.18903,-0.17791 -0.29815,-0.25992c-0.13761,0.3037 -0.42116,0.5386 -0.85204,0.54972c-0.77073,0.02085 -1.07166,-0.69914 -0.90347,-1.2732c-0.41907,-0.08062 -0.86316,-0.11676 -1.31003,-0.10008c0.12996,0.64494 -0.23213,1.41984 -1.08764,1.44208c-0.63451,0.01737 -0.99729,-0.39336 -1.08972,-0.87219c-0.07297,0.04031 -0.14386,0.08201 -0.21405,0.12648c-0.20363,0.12927 -0.39614,0.2627 -0.57822,0.39961c0.45799,0.65884 0.15637,1.84725 -0.90625,1.87505c-0.29189,0.00764 -0.5261,-0.07506 -0.70332,-0.21336c-0.03683,0.05421 -0.07228,0.10841 -0.10703,0.16263c0.02085,0.31552 -0.12023,0.64841 -0.42324,0.79853c-0.01251,0.02988 -0.02502,0.05977 -0.03753,0.08965c1.44138,0.10494 1.39343,2.41852 -0.14386,2.45883c-0.08618,0.00278 -0.16749,-0.00278 -0.24463,-0.01459c0.47467,0.31204 0.52679,1.06262 0.15776,1.49212c0.14942,-0.07297 0.32455,-0.11676 0.5254,-0.12232c1.47683,-0.03961 1.57968,2.08979 0.30857,2.41991c0.67482,0.09034 0.92501,0.78741 0.74919,1.3413c0.19668,-0.19737 0.47259,-0.32942 0.82911,-0.33915c1.29057,-0.03475 1.53173,1.58802 0.72347,2.21767c0.01877,-0.00139 0.03753,-0.00208 0.05698,-0.00278c0.75613,-0.02015 1.15227,0.52818 1.18772,1.11265c0.18764,-0.32872 0.5261,-0.57197 1.01536,-0.58517c1.1064,-0.02988 1.44138,1.15922 1.00424,1.8959c0.4427,0.22378 0.89374,0.41351 1.34826,0.56571h-2.33373c-0.00626,0 -0.01251,0.0007 -0.01877,0.0007c-0.03336,0.00139 -0.06533,0.0007 -0.09729,-0.0007h-8.26327c-2.76114,-4.97047 -4.03503,-9.6838 -1.51922,-14.58755c1.77358,-3.45751 6.32429,-5.82251 10.33291,-5.77456v-0.0007c3.11766,0.03753 5.4236,1.52895 6.55919,4.98923c1.84794,5.63209 -7.00189,10.03546 -8.66149,4.83703c-0.67204,-2.1037 1.24748,-2.91751 2.50539,-2.06199c0.07923,0.03614 0.13691,0.08131 0.17166,0.13135z" fill="url(#color-2)" stroke="none" stroke-width="1"/></g><path d="M203.78051,176.34561l-4.03072,9.50435c-0.0941,0.24049 -0.23003,0.4287 -0.40778,0.56461c-0.17776,0.12547 -0.37641,0.1882 -0.59598,0.1882c-0.33459,0 -0.58553,-0.0941 -0.75282,-0.28231c-0.15684,-0.1882 -0.23525,-0.41823 -0.23525,-0.69008c0,-0.11502 0.02091,-0.23525 0.06273,-0.36072l4.65808,-11.19819c0.0941,-0.25094 0.24571,-0.44437 0.45483,-0.58029c0.20911,-0.13592 0.42869,-0.19343 0.65872,-0.17252c0.23002,0 0.43914,0.06796 0.62735,0.20389c0.19865,0.12547 0.33981,0.30845 0.42347,0.54894l4.61102,10.97862c0.06273,0.15684 0.0941,0.30845 0.0941,0.45483c0,0.33459 -0.10978,0.60121 -0.32935,0.79988c-0.21957,0.19865 -0.46006,0.298 -0.72145,0.298c-0.21957,0 -0.42346,-0.06796 -0.61166,-0.20388c-0.17776,-0.13592 -0.3189,-0.32412 -0.42346,-0.56461l-4.01504,-9.37888zM200.33008,183.57582l1.01945,-2.16436h5.06585l0.34504,2.16436zM220.02874,174.04011c0.32412,0.15684 0.51233,0.41301 0.56461,0.76851c0.05228,0.34504 -0.0366,0.66395 -0.26662,0.95671c-0.1673,0.21957 -0.38164,0.34504 -0.64303,0.37641c-0.25094,0.02091 -0.50711,-0.03137 -0.7685,-0.15684c-0.29277,-0.13593 -0.60644,-0.24048 -0.94102,-0.31367c-0.33459,-0.07319 -0.67964,-0.10978 -1.03513,-0.10978c-0.67964,0 -1.28607,0.10456 -1.81931,0.31367c-0.5228,0.20911 -0.97239,0.51234 -1.3488,0.90966c-0.37641,0.38687 -0.66395,0.85215 -0.8626,1.39586c-0.1882,0.53325 -0.28231,1.124 -0.28231,1.77227c0,0.76328 0.10979,1.42723 0.32936,1.99184c0.21957,0.55416 0.5228,1.01945 0.90966,1.39586c0.38686,0.37641 0.84169,0.65872 1.36449,0.84692c0.52279,0.17775 1.09263,0.26663 1.70953,0.26663c0.33458,0 0.66917,-0.03137 1.00376,-0.0941c0.33458,-0.06273 0.65872,-0.17775 0.97239,-0.34504c0.26139,-0.12547 0.51757,-0.1673 0.76851,-0.12547c0.26139,0.03137 0.48096,0.16207 0.65872,0.3921c0.25094,0.31367 0.33981,0.63781 0.26663,0.97239c-0.06273,0.32412 -0.25094,0.55939 -0.56461,0.70577c-0.32413,0.16729 -0.65872,0.30323 -1.00376,0.40778c-0.34504,0.10455 -0.69531,0.18298 -1.05081,0.23526c-0.34504,0.06273 -0.69531,0.0941 -1.05081,0.0941c-0.89921,0 -1.75135,-0.14115 -2.55645,-0.42346c-0.80511,-0.29276 -1.52656,-0.71622 -2.16436,-1.27038c-0.62735,-0.56461 -1.124,-1.27038 -1.48995,-2.1173c-0.35549,-0.84692 -0.53325,-1.82454 -0.53325,-2.93285c0,-0.96193 0.16207,-1.84545 0.4862,-2.65055c0.33459,-0.81555 0.80511,-1.5161 1.41154,-2.10162c0.60643,-0.59598 1.31743,-1.06126 2.13299,-1.39585c0.826,-0.33459 1.73044,-0.50188 2.71329,-0.50188c0.5437,0 1.07694,0.06273 1.59974,0.1882c0.52279,0.12547 1.01945,0.30845 1.48996,0.54894zM223.78714,173.39707c0.30322,0 0.56984,0.10979 0.79988,0.32936c0.23002,0.21957 0.34504,0.49142 0.34504,0.81555v10.82178c0,0.32412 -0.12024,0.59598 -0.36072,0.81555c-0.24049,0.21957 -0.51234,0.32936 -0.81555,0.32936c-0.3555,0 -0.63781,-0.10978 -0.84692,-0.32935c-0.20912,-0.21957 -0.31367,-0.49143 -0.31367,-0.81555v-10.82178c0,-0.32413 0.10979,-0.59598 0.32936,-0.81555c0.23002,-0.21957 0.51757,-0.32935 0.86261,-0.32935zM232.08385,173.39707c0.34504,0 0.62212,0.10979 0.83124,0.32936c0.21957,0.21957 0.32936,0.49142 0.32936,0.81555v10.82178c0,0.32412 -0.10978,0.59598 -0.32935,0.81555c-0.21957,0.21957 -0.50711,0.32936 -0.8626,0.32936c-0.30322,0 -0.56984,-0.10978 -0.79987,-0.32935c-0.23002,-0.21957 -0.34504,-0.49143 -0.34504,-0.81555v-10.82178c0,-0.32413 0.11502,-0.59598 0.34504,-0.81555c0.24049,-0.21957 0.51757,-0.32935 0.83124,-0.32935zM223.72441,178.85501h8.35943v2.14868h-8.35943zM238.39634,185.36377c0,0.32412 -0.12024,0.59598 -0.36072,0.81555c-0.24049,0.21957 -0.51234,0.32936 -0.81555,0.32936c-0.3555,0 -0.63781,-0.10978 -0.84692,-0.32935c-0.20912,-0.21957 -0.31367,-0.49143 -0.31367,-0.81555v-10.82178c0,-0.32413 0.10979,-0.59598 0.32936,-0.81555c0.23002,-0.21957 0.51757,-0.32935 0.86261,-0.32935c0.30322,0 0.56984,0.10979 0.79988,0.32936c0.23002,0.21957 0.34504,0.49142 0.34504,0.81555zM242.33843,173.39707h6.2735c0.32413,0 0.59598,0.10455 0.81555,0.31367c0.21957,0.20911 0.32936,0.47574 0.32936,0.79988c0,0.30322 -0.10978,0.55416 -0.32935,0.75282c-0.21957,0.19866 -0.49142,0.298 -0.81555,0.298h-5.23837l0.17253,-0.32935v3.65432l-0.15684,-0.15684h4.39145c0.32413,0 0.59075,0.10456 0.79988,0.31367c0.21957,0.20911 0.32936,0.47574 0.32936,0.79988c0,0.31367 -0.10978,0.56984 -0.32935,0.76851c-0.20911,0.1882 -0.47574,0.28231 -0.79987,0.28231h-4.32871l0.0941,-0.15684v3.77979l-0.15684,-0.15684h5.22269c0.32413,0 0.59598,0.10979 0.81555,0.32936c0.21957,0.20911 0.32936,0.46006 0.32936,0.75282c0,0.31367 -0.10978,0.56984 -0.32935,0.76851c-0.21957,0.19865 -0.49142,0.298 -0.81555,0.298h-6.2735c-0.32412,0 -0.59598,-0.10978 -0.81555,-0.32935c-0.20911,-0.21957 -0.31367,-0.49143 -0.31367,-0.81555v-10.82178c0,-0.32413 0.10456,-0.59598 0.31367,-0.81555c0.21957,-0.21957 0.49143,-0.32935 0.81555,-0.32935zM261.4878,173.3657c0.31367,0 0.58552,0.10455 0.81555,0.31367c0.23002,0.19866 0.34504,0.45483 0.34504,0.76851c0,0.1673 -0.0366,0.33458 -0.10978,0.50188l-4.6267,10.82178c-0.11502,0.25094 -0.27708,0.43914 -0.48619,0.56461c-0.20912,0.11502 -0.41824,0.17253 -0.62735,0.17253c-0.19866,-0.01045 -0.39209,-0.07318 -0.58029,-0.1882c-0.1882,-0.12547 -0.32935,-0.29799 -0.42346,-0.51756l-4.6267,-10.86883c-0.04183,-0.07319 -0.06796,-0.15161 -0.07841,-0.23525c-0.01046,-0.08364 -0.01568,-0.16207 -0.01568,-0.23525c0,-0.3555 0.1307,-0.62735 0.3921,-0.81555c0.26139,-0.19865 0.51233,-0.29799 0.75282,-0.29799c0.47051,0 0.81033,0.24048 1.01945,0.72145l4.10914,9.64551l-0.65872,0.01569l3.7641,-9.66119c0.20911,-0.47051 0.55416,-0.70576 1.03513,-0.70576zM265.74643,173.39707h6.2735c0.32412,0 0.59598,0.10455 0.81555,0.31367c0.21957,0.20911 0.32936,0.47574 0.32936,0.79988c0,0.30322 -0.10978,0.55416 -0.32935,0.75282c-0.21957,0.19866 -0.49143,0.298 -0.81555,0.298h-5.23837l0.17253,-0.32935v3.65432l-0.15684,-0.15684h4.39145c0.32412,0 0.59075,0.10456 0.79988,0.31367c0.21957,0.20911 0.32935,0.47574 0.32935,0.79988c0,0.31367 -0.10978,0.56984 -0.32935,0.76851c-0.20912,0.1882 -0.47574,0.28231 -0.79988,0.28231h-4.32871l0.0941,-0.15684v3.77979l-0.15684,-0.15684h5.22269c0.32412,0 0.59598,0.10979 0.81555,0.32936c0.21957,0.20911 0.32936,0.46006 0.32936,0.75282c0,0.31367 -0.10978,0.56984 -0.32935,0.76851c-0.21957,0.19865 -0.49143,0.298 -0.81555,0.298h-6.2735c-0.32413,0 -0.59598,-0.10978 -0.81555,-0.32935c-0.20912,-0.21957 -0.31367,-0.49143 -0.31367,-0.81555v-10.82178c0,-0.32413 0.10455,-0.59598 0.31367,-0.81555c0.21957,-0.21957 0.49142,-0.32935 0.81555,-0.32935zM276.50497,173.38139c0.16729,0 0.35027,0.04706 0.54894,0.14116c0.19865,0.0941 0.34504,0.21434 0.43914,0.36073l4.54829,7.01064l-0.94102,-0.04705l4.67376,-6.96358c0.23002,-0.33459 0.53325,-0.50188 0.90966,-0.50188c0.30322,0 0.56984,0.10979 0.79988,0.32936c0.24048,0.20911 0.36073,0.48097 0.36073,0.81555v10.83747c0,0.32412 -0.10456,0.59598 -0.31367,0.81555c-0.20912,0.21957 -0.49143,0.32936 -0.84692,0.32936c-0.34504,0 -0.62735,-0.10978 -0.84692,-0.32935c-0.21957,-0.21957 -0.32935,-0.49143 -0.32935,-0.81555v-8.81426l0.73714,0.17253l-3.82683,5.81867c-0.11502,0.13593 -0.25617,0.25617 -0.42346,0.36073c-0.1673,0.0941 -0.33981,0.13593 -0.51756,0.12547c-0.15684,0.01046 -0.3189,-0.03137 -0.48619,-0.12547c-0.1673,-0.10456 -0.30845,-0.2248 -0.42347,-0.36072l-3.57589,-5.66183l0.4862,-0.98807v9.47298c0,0.32412 -0.09933,0.59598 -0.298,0.81555c-0.19865,0.21957 -0.46006,0.32936 -0.78419,0.32936c-0.31367,0 -0.56984,-0.10978 -0.7685,-0.32935c-0.19865,-0.21957 -0.29799,-0.49143 -0.29799,-0.81555v-10.83746c0,-0.31367 0.11502,-0.58029 0.34504,-0.79987c0.23002,-0.23002 0.50711,-0.34504 0.83123,-0.34504zM291.79482,173.39707h6.2735c0.32412,0 0.59598,0.10455 0.81555,0.31367c0.21957,0.20911 0.32936,0.47574 0.32936,0.79988c0,0.30322 -0.10978,0.55416 -0.32935,0.75282c-0.21957,0.19866 -0.49143,0.298 -0.81555,0.298h-5.23837l0.17253,-0.32935v3.65432l-0.15684,-0.15684h4.39145c0.32412,0 0.59075,0.10456 0.79988,0.31367c0.21957,0.20911 0.32936,0.47574 0.32936,0.79988c0,0.31367 -0.10978,0.56984 -0.32935,0.76851c-0.20912,0.1882 -0.47574,0.28231 -0.79987,0.28231h-4.32871l0.0941,-0.15684v3.77979l-0.15684,-0.15684h5.22269c0.32412,0 0.59598,0.10979 0.81555,0.32936c0.21957,0.20911 0.32936,0.46006 0.32936,0.75282c0,0.31367 -0.10978,0.56984 -0.32935,0.76851c-0.21957,0.19865 -0.49143,0.298 -0.81555,0.298h-6.2735c-0.32413,0 -0.59598,-0.10978 -0.81555,-0.32935c-0.20912,-0.21957 -0.31367,-0.49143 -0.31367,-0.81555v-10.82178c0,-0.32413 0.10455,-0.59598 0.31367,-0.81555c0.21957,-0.21957 0.49142,-0.32935 0.81555,-0.32935zM311.32059,173.39707c0.29276,0 0.53325,0.09933 0.72145,0.298c0.1882,0.19866 0.28231,0.4496 0.28231,0.75282v10.91588c0,0.32412 -0.10978,0.59598 -0.32935,0.81555c-0.21957,0.21957 -0.49143,0.32936 -0.81555,0.32936c-0.15684,0 -0.32412,-0.02614 -0.50188,-0.07841c-0.16729,-0.06273 -0.29276,-0.14115 -0.37641,-0.23525l-7.35567,-9.34751l0.4862,-0.29799v8.90837c0,0.30323 -0.09933,0.55417 -0.29799,0.75282c-0.1882,0.19865 -0.43914,0.298 -0.75282,0.298c-0.30323,0 -0.54893,-0.09933 -0.73713,-0.29799c-0.17776,-0.19865 -0.26662,-0.44959 -0.26662,-0.75282v-10.91588c0,-0.32413 0.10455,-0.59598 0.31367,-0.81555c0.21957,-0.21957 0.49142,-0.32935 0.81555,-0.32935c0.17775,0 0.36073,0.0366 0.54894,0.10979c0.1882,0.06273 0.32412,0.16207 0.40778,0.298l7.13611,9.11226l-0.31367,0.21957v-8.68879c0,-0.30322 0.0941,-0.55416 0.28231,-0.75282c0.1882,-0.19865 0.43914,-0.29799 0.75282,-0.29799zM319.57949,186.50868c-0.35549,0 -0.64826,-0.10978 -0.87829,-0.32935c-0.21957,-0.21957 -0.32935,-0.49143 -0.32935,-0.81555v-10.85315h2.43098v10.85315c0,0.32412 -0.11501,0.59598 -0.34504,0.81555c-0.23002,0.21957 -0.52279,0.32936 -0.87829,0.32936zM315.43899,175.56143c-0.32413,0 -0.59598,-0.09933 -0.81555,-0.29799c-0.21957,-0.20911 -0.32935,-0.47574 -0.32935,-0.79987c0,-0.32413 0.10979,-0.58029 0.32936,-0.7685c0.21957,-0.19865 0.49142,-0.29799 0.81555,-0.29799h8.31238c0.32413,0 0.59598,0.09933 0.81555,0.298c0.21957,0.19866 0.32936,0.46005 0.32936,0.78419c0,0.32413 -0.10978,0.58552 -0.32935,0.78419c-0.21957,0.19866 -0.49142,0.298 -0.81555,0.298z" fill="url(#color-3)" stroke="none" stroke-width="1" stroke-linecap="square"/></g></g></svg>