<svg version="1.1" xmlns="http://www.w3.org/2000/svg" xmlns:xlink="http://www.w3.org/1999/xlink" width="19.05556" height="17.61039" viewBox="0,0,19.05556,17.61039"><g transform="translate(-230.47222,-171.1948)"><g data-paper-data="{&quot;isPaintingLayer&quot;:true}" fill="#0e0e0f" fill-rule="nonzero" stroke="none" stroke-width="0" stroke-linecap="butt" stroke-linejoin="miter" stroke-miterlimit="10" stroke-dasharray="" stroke-dashoffset="0" style="mix-blend-mode: normal"><path d="M230.8143,172.0377c0,-0.67523 2.64424,-1.3445 3.47373,-0.30315c0.74334,0.9332 -0.34268,3.81415 0.85287,3.50302c1.48209,-0.38571 3.48761,-1.05154 5.39926,-1.05154c3.76086,0 6.95701,3.74132 7.96667,5.03843c0.3795,0.48755 1.02095,4.19588 1.02095,4.75058c0,0.22582 -1.10318,3.00998 -0.85422,3.38028c0.22639,0.33674 -1.08586,1.9724 -2.36741,1.28134c-2.51255,-1.35487 -3.86706,-0.09002 -5.74336,-1.72045c-1.9441,-1.68935 -4.65889,-4.43906 -7.80638,-7.10939c-0.59269,-0.50283 -1.76356,-3.49283 -2.28419,-3.94732z" data-paper-data="{&quot;index&quot;:null}"/><path d="M240.02613,179.55591c0.91033,4.35904 2.30006,4.26416 1.85725,4.5636c-0.29682,0.20072 -1.41225,2.40102 -2.04369,0.13489c-0.31055,-1.11452 -3.43342,-3.99519 -3.73353,-5.43226c-0.91033,-4.35904 0.36815,-2.31484 0.81096,-2.61428c0.4428,-0.29944 2.19869,-1.01097 3.10902,3.34806z" data-paper-data="{&quot;index&quot;:null}"/><path d="M234.48221,183.21726c0,-2.97153 0.7543,-5.38043 1.68478,-5.38043c0.93048,0 1.25,1.53934 1.25,4.51087c0,2.97153 -0.64561,4.51087 -1.57609,4.51087c-0.93048,0 -1.3587,-0.66977 -1.3587,-3.6413z" data-paper-data="{&quot;index&quot;:null}"/></g></g></svg>