<svg version="1.1" xmlns="http://www.w3.org/2000/svg" xmlns:xlink="http://www.w3.org/1999/xlink" width="231.85246" height="13.43756" viewBox="0,0,231.85246,13.43756"><g transform="translate(-124.07377,-173.28122)"><g data-paper-data="{&quot;isPaintingLayer&quot;:true}" fill="#ffffff" fill-rule="nonzero" stroke="none" stroke-width="1" stroke-linecap="square" stroke-linejoin="miter" stroke-miterlimit="10" stroke-dasharray="" stroke-dashoffset="0" style="mix-blend-mode: normal"><path d="M125.21439,181.92182c-0.33333,0 -0.60937,-0.10417 -0.82812,-0.3125c-0.20833,-0.21875 -0.3125,-0.48958 -0.3125,-0.8125c0,-0.32292 0.10417,-0.58333 0.3125,-0.78125c0.21875,-0.20833 0.49479,-0.3125 0.82813,-0.3125h3.23438c0.32292,0 0.59375,0.10938 0.8125,0.32813c0.21875,0.21875 0.32813,0.48958 0.32813,0.8125c0,0.3125 -0.10937,0.57292 -0.32812,0.78125c-0.21875,0.19792 -0.48958,0.29688 -0.8125,0.29688zM138.32603,186.5312c-0.35417,0 -0.64062,-0.10937 -0.85937,-0.32812c-0.20833,-0.21875 -0.3125,-0.48958 -0.3125,-0.8125v-10.78125c0,-0.32292 0.10417,-0.59375 0.3125,-0.8125c0.21875,-0.21875 0.48958,-0.32812 0.8125,-0.32812h6.0625c0.32292,0 0.59375,0.10417 0.8125,0.3125c0.21875,0.20833 0.32813,0.47396 0.32813,0.79688c0,0.27083 -0.10937,0.51563 -0.32812,0.73438c-0.21875,0.20833 -0.48958,0.3125 -0.8125,0.3125h-5.03125l0.17188,-0.23437v3.75l-0.14062,-0.23437h4.17188c0.32292,0 0.59375,0.10417 0.8125,0.3125c0.21875,0.19792 0.32813,0.45833 0.32813,0.78125c0,0.27083 -0.10937,0.51563 -0.32812,0.73438c-0.21875,0.20833 -0.48958,0.3125 -0.8125,0.3125h-4.20312l0.17188,-0.17187v4.51563c0,0.32292 -0.11458,0.59375 -0.34375,0.8125c-0.22917,0.21875 -0.5,0.32813 -0.8125,0.32813zM154.82645,184.3437c0.32292,0 0.59375,0.10417 0.8125,0.3125c0.21875,0.20833 0.32813,0.47396 0.32813,0.79688c0,0.3125 -0.10937,0.57292 -0.32812,0.78125c-0.21875,0.19792 -0.48958,0.29688 -0.8125,0.29688h-6.0625c-0.32292,0 -0.59375,-0.10937 -0.8125,-0.32812c-0.20833,-0.21875 -0.3125,-0.48958 -0.3125,-0.8125v-10.78125c0,-0.32292 0.10938,-0.59375 0.32813,-0.8125c0.22917,-0.21875 0.51563,-0.32812 0.85938,-0.32812c0.30208,0 0.56771,0.10938 0.79688,0.32813c0.22917,0.21875 0.34375,0.48958 0.34375,0.8125v10.0625l-0.40625,-0.32812zM165.31629,173.42182c0.29167,0 0.55208,0.10938 0.78125,0.32813c0.22917,0.20833 0.34375,0.48438 0.34375,0.82813c0,0.10417 -0.01562,0.21875 -0.04687,0.34375c-0.03125,0.11458 -0.08333,0.22917 -0.15625,0.34375l-4.23437,6.0625l0.32813,-1.29687v5.35938c0,0.32292 -0.10937,0.59375 -0.32812,0.8125c-0.21875,0.21875 -0.46875,0.32813 -0.75,0.32813c-0.3125,0 -0.57812,-0.10937 -0.79687,-0.32812c-0.21875,-0.21875 -0.32812,-0.48958 -0.32812,-0.8125v-5.20312l0.15625,0.59375l-4.03125,-5.34375c-0.125,-0.16667 -0.21354,-0.32292 -0.26562,-0.46875c-0.05208,-0.15625 -0.07812,-0.29687 -0.07812,-0.42187c0,-0.33333 0.13021,-0.60417 0.39063,-0.8125c0.26042,-0.20833 0.53125,-0.3125 0.8125,-0.3125c0.34375,0 0.64583,0.17188 0.90625,0.51563l3.57813,4.9375l-0.51562,-0.0625l3.29688,-4.84375c0.26042,-0.36458 0.57292,-0.54687 0.9375,-0.54687zM185.34666,179.99995c0,0.9375 -0.15625,1.8125 -0.46875,2.625c-0.30208,0.80208 -0.73958,1.51042 -1.3125,2.125c-0.5625,0.61458 -1.23437,1.09896 -2.01562,1.45313c-0.77083,0.34375 -1.61458,0.51563 -2.53125,0.51563c-0.92708,0 -1.77604,-0.17187 -2.54687,-0.51562c-0.77083,-0.35417 -1.44271,-0.83854 -2.01562,-1.45312c-0.5625,-0.61458 -1,-1.32292 -1.3125,-2.125c-0.30208,-0.8125 -0.45312,-1.6875 -0.45312,-2.625c0,-0.92708 0.15104,-1.79687 0.45313,-2.60937c0.3125,-0.8125 0.75,-1.52604 1.3125,-2.14062c0.57292,-0.61458 1.24479,-1.09375 2.01563,-1.4375c0.77083,-0.35417 1.61979,-0.53125 2.54688,-0.53125c0.91667,0 1.76042,0.17708 2.53125,0.53125c0.78125,0.34375 1.45313,0.82292 2.01563,1.4375c0.57292,0.61458 1.01042,1.32813 1.3125,2.14063c0.3125,0.8125 0.46875,1.68229 0.46875,2.60938zM182.92478,179.99995c0,-0.83333 -0.16667,-1.58854 -0.5,-2.26562c-0.33333,-0.67708 -0.79167,-1.21354 -1.375,-1.60937c-0.58333,-0.39583 -1.26042,-0.59375 -2.03125,-0.59375c-0.78125,0 -1.46354,0.19792 -2.04687,0.59375c-0.58333,0.39583 -1.04167,0.93229 -1.375,1.60938c-0.32292,0.66667 -0.48437,1.42188 -0.48437,2.26563c0,0.83333 0.16146,1.58854 0.48438,2.26563c0.33333,0.67708 0.79167,1.21875 1.375,1.625c0.58333,0.39583 1.26563,0.59375 2.04688,0.59375c0.77083,0 1.44792,-0.19792 2.03125,-0.59375c0.58333,-0.40625 1.04167,-0.94792 1.375,-1.625c0.33333,-0.67708 0.5,-1.43229 0.5,-2.26562zM196.83268,173.43745c0.3125,0 0.58333,0.10417 0.8125,0.3125c0.22917,0.19792 0.34375,0.45313 0.34375,0.76563c0,0.16667 -0.03646,0.33333 -0.10937,0.5l-4.60937,10.78125c-0.11458,0.25 -0.27604,0.4375 -0.48437,0.5625c-0.20833,0.11458 -0.41667,0.17188 -0.625,0.17188c-0.19792,-0.01042 -0.39062,-0.07292 -0.57812,-0.1875c-0.1875,-0.125 -0.32812,-0.29687 -0.42187,-0.51562l-4.60937,-10.82812c-0.04167,-0.07292 -0.06771,-0.15104 -0.07812,-0.23437c-0.01042,-0.08333 -0.01562,-0.16146 -0.01562,-0.23437c0,-0.35417 0.13021,-0.625 0.39063,-0.8125c0.26042,-0.19792 0.51042,-0.29687 0.75,-0.29687c0.46875,0 0.80729,0.23958 1.01563,0.71875l4.09375,9.60938l-0.65625,0.01563l3.75,-9.625c0.20833,-0.46875 0.55208,-0.70312 1.03125,-0.70312zM201.07536,173.4687h6.25c0.32292,0 0.59375,0.10417 0.8125,0.3125c0.21875,0.20833 0.32813,0.47396 0.32813,0.79688c0,0.30208 -0.10937,0.55208 -0.32812,0.75c-0.21875,0.19792 -0.48958,0.29688 -0.8125,0.29688h-5.21875l0.17188,-0.32812v3.64063l-0.15625,-0.15625h4.375c0.32292,0 0.58854,0.10417 0.79688,0.3125c0.21875,0.20833 0.32813,0.47396 0.32813,0.79688c0,0.3125 -0.10937,0.56771 -0.32812,0.76563c-0.20833,0.1875 -0.47396,0.28125 -0.79687,0.28125h-4.3125l0.09375,-0.15625v3.76563l-0.15625,-0.15625h5.20313c0.32292,0 0.59375,0.10938 0.8125,0.32813c0.21875,0.20833 0.32813,0.45833 0.32813,0.75c0,0.3125 -0.10937,0.56771 -0.32812,0.76563c-0.21875,0.19792 -0.48958,0.29688 -0.8125,0.29688h-6.25c-0.32292,0 -0.59375,-0.10937 -0.8125,-0.32812c-0.20833,-0.21875 -0.3125,-0.48958 -0.3125,-0.8125v-10.78125c0,-0.32292 0.10417,-0.59375 0.3125,-0.8125c0.21875,-0.21875 0.48958,-0.32812 0.8125,-0.32812zM211.96549,186.5312c-0.35417,0 -0.66667,-0.10937 -0.9375,-0.32812c-0.27083,-0.21875 -0.40625,-0.48958 -0.40625,-0.8125v-10.78125c0,-0.32292 0.10417,-0.59375 0.3125,-0.8125c0.21875,-0.21875 0.48958,-0.32812 0.8125,-0.32812h5.375c0.64583,0 1.25,0.17188 1.8125,0.51563c0.57292,0.34375 1.03125,0.81771 1.375,1.42188c0.35417,0.60417 0.53125,1.29688 0.53125,2.07813c0,0.46875 -0.09896,0.92708 -0.29687,1.375c-0.1875,0.44792 -0.44792,0.85417 -0.78125,1.21875c-0.32292,0.36458 -0.69271,0.64583 -1.10937,0.84375l0.01563,-0.4375c0.35417,0.1875 0.64583,0.41146 0.875,0.67188c0.22917,0.25 0.40625,0.52083 0.53125,0.8125c0.13542,0.29167 0.21354,0.60417 0.23438,0.9375c0.05208,0.3125 0.08854,0.58854 0.10938,0.82813c0.02083,0.23958 0.05729,0.44271 0.10938,0.60938c0.0625,0.15625 0.17188,0.27604 0.32813,0.35938c0.27083,0.16667 0.4375,0.40104 0.5,0.70313c0.07292,0.30208 0.00521,0.57292 -0.20312,0.8125c-0.13542,0.15625 -0.3125,0.26042 -0.53125,0.3125c-0.20833,0.04167 -0.41667,0.04167 -0.625,0c-0.20833,-0.05208 -0.38021,-0.11458 -0.51562,-0.1875c-0.21875,-0.125 -0.43229,-0.30729 -0.64062,-0.54687c-0.20833,-0.23958 -0.38021,-0.5625 -0.51562,-0.96875c-0.125,-0.41667 -0.1875,-0.94792 -0.1875,-1.59375c0,-0.21875 -0.04167,-0.41667 -0.125,-0.59375c-0.07292,-0.17708 -0.17708,-0.32812 -0.3125,-0.45312c-0.13542,-0.13542 -0.30729,-0.23437 -0.51562,-0.29687c-0.20833,-0.07292 -0.45833,-0.10937 -0.75,-0.10937h-3.76562l0.28125,-0.4375v4.04688c0,0.32292 -0.08854,0.59375 -0.26562,0.8125c-0.17708,0.21875 -0.41667,0.32813 -0.71875,0.32813zM212.68424,179.85932h4.34375c0.22917,0 0.44792,-0.10417 0.65625,-0.3125c0.20833,-0.20833 0.38021,-0.48958 0.51563,-0.84375c0.14583,-0.35417 0.21875,-0.74479 0.21875,-1.17187c0,-0.54167 -0.14583,-0.99479 -0.4375,-1.35937c-0.29167,-0.36458 -0.60937,-0.54687 -0.95312,-0.54687h-4.3125l0.23438,-0.60937v5.28125zM233.08421,186.5312c-0.35417,0 -0.64583,-0.10937 -0.875,-0.32812c-0.21875,-0.21875 -0.32812,-0.48958 -0.32812,-0.8125v-10.8125h2.42188v10.8125c0,0.32292 -0.11458,0.59375 -0.34375,0.8125c-0.22917,0.21875 -0.52083,0.32813 -0.875,0.32813zM228.95921,175.62495c-0.32292,0 -0.59375,-0.09896 -0.8125,-0.29687c-0.21875,-0.20833 -0.32812,-0.47396 -0.32812,-0.79687c0,-0.32292 0.10938,-0.57812 0.32813,-0.76562c0.21875,-0.19792 0.48958,-0.29687 0.8125,-0.29687h8.28125c0.32292,0 0.59375,0.09896 0.8125,0.29688c0.21875,0.19792 0.32813,0.45833 0.32813,0.78125c0,0.32292 -0.10937,0.58333 -0.32812,0.78125c-0.21875,0.19792 -0.48958,0.29688 -0.8125,0.29688zM241.52866,173.4687c0.30208,0 0.56771,0.10938 0.79688,0.32813c0.22917,0.21875 0.34375,0.48958 0.34375,0.8125v10.78125c0,0.32292 -0.11979,0.59375 -0.35937,0.8125c-0.23958,0.21875 -0.51042,0.32813 -0.8125,0.32813c-0.35417,0 -0.63542,-0.10937 -0.84375,-0.32812c-0.20833,-0.21875 -0.3125,-0.48958 -0.3125,-0.8125v-10.78125c0,-0.32292 0.10938,-0.59375 0.32813,-0.8125c0.22917,-0.21875 0.51563,-0.32812 0.85938,-0.32812zM249.79429,173.4687c0.34375,0 0.61979,0.10938 0.82813,0.32813c0.21875,0.21875 0.32813,0.48958 0.32813,0.8125v10.78125c0,0.32292 -0.10937,0.59375 -0.32812,0.8125c-0.21875,0.21875 -0.50521,0.32813 -0.85937,0.32813c-0.30208,0 -0.56771,-0.10937 -0.79687,-0.32812c-0.22917,-0.21875 -0.34375,-0.48958 -0.34375,-0.8125v-10.78125c0,-0.32292 0.11458,-0.59375 0.34375,-0.8125c0.23958,-0.21875 0.51563,-0.32812 0.82813,-0.32812zM241.46616,178.9062h8.32813v2.14063h-8.32812zM254.88001,173.4687h6.25c0.32292,0 0.59375,0.10417 0.8125,0.3125c0.21875,0.20833 0.32813,0.47396 0.32813,0.79688c0,0.30208 -0.10937,0.55208 -0.32812,0.75c-0.21875,0.19792 -0.48958,0.29688 -0.8125,0.29688h-5.21875l0.17188,-0.32812v3.64063l-0.15625,-0.15625h4.375c0.32292,0 0.58854,0.10417 0.79688,0.3125c0.21875,0.20833 0.32813,0.47396 0.32813,0.79688c0,0.3125 -0.10937,0.56771 -0.32812,0.76563c-0.20833,0.1875 -0.47396,0.28125 -0.79687,0.28125h-4.3125l0.09375,-0.15625v3.76563l-0.15625,-0.15625h5.20313c0.32292,0 0.59375,0.10938 0.8125,0.32813c0.21875,0.20833 0.32813,0.45833 0.32813,0.75c0,0.3125 -0.10937,0.56771 -0.32812,0.76563c-0.21875,0.19792 -0.48958,0.29688 -0.8125,0.29688h-6.25c-0.32292,0 -0.59375,-0.10937 -0.8125,-0.32812c-0.20833,-0.21875 -0.3125,-0.48958 -0.3125,-0.8125v-10.78125c0,-0.32292 0.10417,-0.59375 0.3125,-0.8125c0.21875,-0.21875 0.48958,-0.32812 0.8125,-0.32812zM271.97825,185.39057c0,0.32292 -0.11979,0.59375 -0.35937,0.8125c-0.23958,0.21875 -0.51042,0.32813 -0.8125,0.32813c-0.35417,0 -0.63542,-0.10937 -0.84375,-0.32812c-0.20833,-0.21875 -0.3125,-0.48958 -0.3125,-0.8125v-10.78125c0,-0.32292 0.10938,-0.59375 0.32813,-0.8125c0.22917,-0.21875 0.51563,-0.32812 0.85938,-0.32812c0.30208,0 0.56771,0.10938 0.79688,0.32813c0.22917,0.21875 0.34375,0.48958 0.34375,0.8125zM283.92121,174.10932c0.32292,0.15625 0.51042,0.41146 0.5625,0.76563c0.05208,0.34375 -0.03646,0.66146 -0.26562,0.95313c-0.16667,0.21875 -0.38021,0.34375 -0.64062,0.375c-0.25,0.02083 -0.50521,-0.03125 -0.76562,-0.15625c-0.29167,-0.13542 -0.60417,-0.23958 -0.9375,-0.3125c-0.33333,-0.07292 -0.67708,-0.10937 -1.03125,-0.10937c-0.67708,0 -1.28125,0.10417 -1.8125,0.3125c-0.52083,0.20833 -0.96875,0.51042 -1.34375,0.90625c-0.375,0.38542 -0.66146,0.84896 -0.85937,1.39063c-0.1875,0.53125 -0.28125,1.11979 -0.28125,1.76563c0,0.76042 0.10938,1.42188 0.32813,1.98438c0.21875,0.55208 0.52083,1.01563 0.90625,1.39063c0.38542,0.375 0.83854,0.65625 1.35938,0.84375c0.52083,0.17708 1.08854,0.26563 1.70313,0.26563c0.33333,0 0.66667,-0.03125 1,-0.09375c0.33333,-0.0625 0.65625,-0.17708 0.96875,-0.34375c0.26042,-0.125 0.51563,-0.16667 0.76563,-0.125c0.26042,0.03125 0.47917,0.16146 0.65625,0.39063c0.25,0.3125 0.33854,0.63542 0.26563,0.96875c-0.0625,0.32292 -0.25,0.55729 -0.5625,0.70313c-0.32292,0.16667 -0.65625,0.30208 -1,0.40625c-0.34375,0.10417 -0.69271,0.18229 -1.04687,0.23438c-0.34375,0.0625 -0.69271,0.09375 -1.04687,0.09375c-0.89583,0 -1.74479,-0.14062 -2.54687,-0.42187c-0.80208,-0.29167 -1.52083,-0.71354 -2.15625,-1.26562c-0.625,-0.5625 -1.11979,-1.26562 -1.48437,-2.10937c-0.35417,-0.84375 -0.53125,-1.81771 -0.53125,-2.92187c0,-0.95833 0.16146,-1.83854 0.48438,-2.64062c0.33333,-0.8125 0.80208,-1.51042 1.40625,-2.09375c0.60417,-0.59375 1.3125,-1.05729 2.125,-1.39062c0.82292,-0.33333 1.72396,-0.5 2.70313,-0.5c0.54167,0 1.07292,0.0625 1.59375,0.1875c0.52083,0.125 1.01563,0.30729 1.48438,0.54688zM287.60307,173.4687h6.25c0.32292,0 0.59375,0.10417 0.8125,0.3125c0.21875,0.20833 0.32813,0.47396 0.32813,0.79688c0,0.30208 -0.10937,0.55208 -0.32812,0.75c-0.21875,0.19792 -0.48958,0.29688 -0.8125,0.29688h-5.21875l0.17188,-0.32812v3.64063l-0.15625,-0.15625h4.375c0.32292,0 0.58854,0.10417 0.79688,0.3125c0.21875,0.20833 0.32813,0.47396 0.32813,0.79688c0,0.3125 -0.10937,0.56771 -0.32812,0.76563c-0.20833,0.1875 -0.47396,0.28125 -0.79687,0.28125h-4.3125l0.09375,-0.15625v3.76563l-0.15625,-0.15625h5.20313c0.32292,0 0.59375,0.10938 0.8125,0.32813c0.21875,0.20833 0.32813,0.45833 0.32813,0.75c0,0.3125 -0.10937,0.56771 -0.32812,0.76563c-0.21875,0.19792 -0.48958,0.29688 -0.8125,0.29688h-6.25c-0.32292,0 -0.59375,-0.10937 -0.8125,-0.32812c-0.20833,-0.21875 -0.3125,-0.48958 -0.3125,-0.8125v-10.78125c0,-0.32292 0.10417,-0.59375 0.3125,-0.8125c0.21875,-0.21875 0.48958,-0.32812 0.8125,-0.32812zM302.97755,173.4687c1.19792,0 2.08854,0.28125 2.67188,0.84375c0.58333,0.5625 0.875,1.39063 0.875,2.48438c0,0.58333 -0.14583,1.09896 -0.4375,1.54688c-0.28125,0.4375 -0.70312,0.77604 -1.26562,1.01563c-0.55208,0.23958 -1.23958,0.35938 -2.0625,0.35938l0.07813,-0.84375c0.38542,0 0.82292,0.05729 1.3125,0.17188c0.5,0.10417 0.98438,0.29167 1.45313,0.5625c0.46875,0.26042 0.85417,0.63021 1.15625,1.10938c0.30208,0.47917 0.45313,1.09375 0.45313,1.84375c0,0.8125 -0.13542,1.48438 -0.40625,2.01563c-0.26042,0.52083 -0.60937,0.92708 -1.04687,1.21875c-0.4375,0.28125 -0.90625,0.47396 -1.40625,0.57813c-0.48958,0.10417 -0.96354,0.15625 -1.42187,0.15625h-4.65625c-0.32292,0 -0.59375,-0.10937 -0.8125,-0.32812c-0.20833,-0.21875 -0.3125,-0.48958 -0.3125,-0.8125v-10.78125c0,-0.32292 0.10417,-0.59375 0.3125,-0.8125c0.21875,-0.21875 0.48958,-0.32812 0.8125,-0.32812zM302.64942,175.67182h-3.32812l0.25,-0.29687v3.375l-0.23437,-0.17187h3.35938c0.36458,0 0.6875,-0.11458 0.96875,-0.34375c0.29167,-0.23958 0.4375,-0.58333 0.4375,-1.03125c0,-0.53125 -0.13542,-0.91667 -0.40625,-1.15625c-0.26042,-0.25 -0.60937,-0.375 -1.04687,-0.375zM302.79005,180.7812h-3.39062l0.17188,-0.14062v3.9375l-0.1875,-0.1875h3.54688c0.57292,0 1.02604,-0.15104 1.35938,-0.45312c0.33333,-0.3125 0.5,-0.77083 0.5,-1.375c0,-0.5625 -0.11458,-0.96875 -0.34375,-1.21875c-0.21875,-0.25 -0.48437,-0.40625 -0.79687,-0.46875c-0.3125,-0.0625 -0.59896,-0.09375 -0.85937,-0.09375zM310.49427,173.4687h6.25c0.32292,0 0.59375,0.10417 0.8125,0.3125c0.21875,0.20833 0.32813,0.47396 0.32813,0.79688c0,0.30208 -0.10937,0.55208 -0.32812,0.75c-0.21875,0.19792 -0.48958,0.29688 -0.8125,0.29688h-5.21875l0.17188,-0.32812v3.64063l-0.15625,-0.15625h4.375c0.32292,0 0.58854,0.10417 0.79688,0.3125c0.21875,0.20833 0.32813,0.47396 0.32813,0.79688c0,0.3125 -0.10937,0.56771 -0.32812,0.76563c-0.20833,0.1875 -0.47396,0.28125 -0.79687,0.28125h-4.3125l0.09375,-0.15625v3.76563l-0.15625,-0.15625h5.20313c0.32292,0 0.59375,0.10938 0.8125,0.32813c0.21875,0.20833 0.32813,0.45833 0.32813,0.75c0,0.3125 -0.10937,0.56771 -0.32812,0.76563c-0.21875,0.19792 -0.48958,0.29688 -0.8125,0.29688h-6.25c-0.32292,0 -0.59375,-0.10937 -0.8125,-0.32812c-0.20833,-0.21875 -0.3125,-0.48958 -0.3125,-0.8125v-10.78125c0,-0.32292 0.10417,-0.59375 0.3125,-0.8125c0.21875,-0.21875 0.48958,-0.32812 0.8125,-0.32812zM321.38441,186.5312c-0.35417,0 -0.66667,-0.10937 -0.9375,-0.32812c-0.27083,-0.21875 -0.40625,-0.48958 -0.40625,-0.8125v-10.78125c0,-0.32292 0.10417,-0.59375 0.3125,-0.8125c0.21875,-0.21875 0.48958,-0.32812 0.8125,-0.32812h5.375c0.64583,0 1.25,0.17188 1.8125,0.51563c0.57292,0.34375 1.03125,0.81771 1.375,1.42188c0.35417,0.60417 0.53125,1.29688 0.53125,2.07813c0,0.46875 -0.09896,0.92708 -0.29687,1.375c-0.1875,0.44792 -0.44792,0.85417 -0.78125,1.21875c-0.32292,0.36458 -0.69271,0.64583 -1.10937,0.84375l0.01563,-0.4375c0.35417,0.1875 0.64583,0.41146 0.875,0.67188c0.22917,0.25 0.40625,0.52083 0.53125,0.8125c0.13542,0.29167 0.21354,0.60417 0.23438,0.9375c0.05208,0.3125 0.08854,0.58854 0.10938,0.82813c0.02083,0.23958 0.05729,0.44271 0.10938,0.60938c0.0625,0.15625 0.17188,0.27604 0.32813,0.35938c0.27083,0.16667 0.4375,0.40104 0.5,0.70313c0.07292,0.30208 0.00521,0.57292 -0.20312,0.8125c-0.13542,0.15625 -0.3125,0.26042 -0.53125,0.3125c-0.20833,0.04167 -0.41667,0.04167 -0.625,0c-0.20833,-0.05208 -0.38021,-0.11458 -0.51562,-0.1875c-0.21875,-0.125 -0.43229,-0.30729 -0.64062,-0.54687c-0.20833,-0.23958 -0.38021,-0.5625 -0.51562,-0.96875c-0.125,-0.41667 -0.1875,-0.94792 -0.1875,-1.59375c0,-0.21875 -0.04167,-0.41667 -0.125,-0.59375c-0.07292,-0.17708 -0.17708,-0.32812 -0.3125,-0.45312c-0.13542,-0.13542 -0.30729,-0.23437 -0.51562,-0.29687c-0.20833,-0.07292 -0.45833,-0.10937 -0.75,-0.10937h-3.76562l0.28125,-0.4375v4.04688c0,0.32292 -0.08854,0.59375 -0.26562,0.8125c-0.17708,0.21875 -0.41667,0.32813 -0.71875,0.32813zM322.10316,179.85932h4.34375c0.22917,0 0.44792,-0.10417 0.65625,-0.3125c0.20833,-0.20833 0.38021,-0.48958 0.51563,-0.84375c0.14583,-0.35417 0.21875,-0.74479 0.21875,-1.17187c0,-0.54167 -0.14583,-0.99479 -0.4375,-1.35937c-0.29167,-0.36458 -0.60937,-0.54687 -0.95312,-0.54687h-4.3125l0.23438,-0.60937v5.28125zM338.82709,186.7187c-0.94792,0 -1.83333,-0.17187 -2.65625,-0.51562c-0.82292,-0.35417 -1.54687,-0.83854 -2.17187,-1.45312c-0.61458,-0.61458 -1.09896,-1.32292 -1.45312,-2.125c-0.35417,-0.8125 -0.53125,-1.6875 -0.53125,-2.625c0,-0.92708 0.17708,-1.79687 0.53125,-2.60937c0.35417,-0.8125 0.83854,-1.52604 1.45313,-2.14062c0.625,-0.61458 1.34896,-1.09375 2.17188,-1.4375c0.82292,-0.35417 1.70833,-0.53125 2.65625,-0.53125c0.58333,0 1.14583,0.0625 1.6875,0.1875c0.55208,0.125 1.05729,0.3125 1.51563,0.5625c0.1875,0.10417 0.32813,0.23958 0.42188,0.40625c0.09375,0.16667 0.14063,0.33854 0.14063,0.51563c0,0.29167 -0.09896,0.55729 -0.29687,0.79688c-0.19792,0.23958 -0.45312,0.35938 -0.76562,0.35938c-0.10417,0 -0.20833,-0.01042 -0.3125,-0.03125c-0.10417,-0.03125 -0.20833,-0.07292 -0.3125,-0.125c-0.3125,-0.13542 -0.64062,-0.23958 -0.98437,-0.3125c-0.34375,-0.07292 -0.70833,-0.10937 -1.09375,-0.10937c-0.8125,0 -1.55208,0.20313 -2.21875,0.60938c-0.66667,0.39583 -1.19792,0.93229 -1.59375,1.60938c-0.38542,0.67708 -0.57812,1.42708 -0.57812,2.25c0,0.8125 0.19271,1.5625 0.57813,2.25c0.39583,0.67708 0.92708,1.21875 1.59375,1.625c0.66667,0.40625 1.40625,0.60938 2.21875,0.60938c0.36458,0 0.77083,-0.03646 1.21875,-0.10937c0.44792,-0.08333 0.81771,-0.1875 1.10937,-0.3125l-0.17187,0.5625v-3.1875l0.3125,0.28125h-2.0625c-0.32292,0 -0.59375,-0.10417 -0.8125,-0.3125c-0.21875,-0.21875 -0.32812,-0.48958 -0.32812,-0.8125c0,-0.32292 0.10938,-0.58854 0.32813,-0.79687c0.21875,-0.20833 0.48958,-0.3125 0.8125,-0.3125h3.0625c0.32292,0 0.58854,0.10938 0.79688,0.32813c0.20833,0.20833 0.3125,0.47917 0.3125,0.8125v3.95313c0,0.25 -0.05729,0.45833 -0.17187,0.625c-0.11458,0.15625 -0.25,0.28125 -0.40625,0.375c-0.57292,0.35417 -1.19792,0.63542 -1.875,0.84375c-0.67708,0.19792 -1.38542,0.29688 -2.125,0.29688zM351.55122,181.92182c-0.33333,0 -0.60937,-0.10417 -0.82812,-0.3125c-0.20833,-0.21875 -0.3125,-0.48958 -0.3125,-0.8125c0,-0.32292 0.10417,-0.58333 0.3125,-0.78125c0.21875,-0.20833 0.49479,-0.3125 0.82813,-0.3125h3.23437c0.32292,0 0.59375,0.10938 0.8125,0.32813c0.21875,0.21875 0.32813,0.48958 0.32813,0.8125c0,0.3125 -0.10937,0.57292 -0.32812,0.78125c-0.21875,0.19792 -0.48958,0.29688 -0.8125,0.29688z"/></g></g></svg>