<svg version="1.1" xmlns="http://www.w3.org/2000/svg" xmlns:xlink="http://www.w3.org/1999/xlink" width="695.53558" height="529.55283" viewBox="0,0,695.53558,529.55283"><g transform="translate(110.89528,86.40201)"><g data-paper-data="{&quot;isPaintingLayer&quot;:true}" fill-rule="nonzero" stroke="none" stroke-width="0" stroke-linecap="butt" stroke-linejoin="miter" stroke-miterlimit="10" stroke-dasharray="" stroke-dashoffset="0" style="mix-blend-mode: normal"><path d="" data-paper-data="{&quot;index&quot;:null}" fill="#344e5f"/><path d="" data-paper-data="{&quot;index&quot;:null}" fill="#344e5f"/><path d="" data-paper-data="{&quot;index&quot;:null}" fill="#344e5f"/><path d="" data-paper-data="{&quot;index&quot;:null}" fill="#344e5f"/><path d="" data-paper-data="{&quot;index&quot;:null}" fill="#344e5f"/><path d="" data-paper-data="{&quot;index&quot;:null}" fill="#344e5f"/><path d="" data-paper-data="{&quot;index&quot;:null}" fill="#344e5f"/><path d="" data-paper-data="{&quot;index&quot;:null}" fill="#344e5f"/><path d="" data-paper-data="{&quot;index&quot;:null}" fill="#344e5f"/><path d="" data-paper-data="{&quot;index&quot;:null}" fill="#344e5f"/><path d="" data-paper-data="{&quot;index&quot;:null}" fill="#344e5f"/><path d="" data-paper-data="{&quot;index&quot;:null}" fill="#344e5f"/><path d="" data-paper-data="{&quot;index&quot;:null}" fill="#344e5f"/><path d="" data-paper-data="{&quot;index&quot;:null}" fill="#344e5f"/><path d="" data-paper-data="{&quot;index&quot;:null}" fill="#344e5f"/><path d="" data-paper-data="{&quot;index&quot;:null}" fill="#344e5f"/><path d="" data-paper-data="{&quot;index&quot;:null}" fill="#344e5f"/><path d="" data-paper-data="{&quot;index&quot;:null}" fill="#344e5f"/><path d="" data-paper-data="{&quot;index&quot;:null}" fill="#344e5f"/><path d="" data-paper-data="{&quot;index&quot;:null}" fill="#344e5f"/><path d="" data-paper-data="{&quot;index&quot;:null}" fill="#344e5f"/><path d="M-48.73784,383.37983c0,-17.03063 26.40615,-225.08332 23.69403,-299.49056c-0.84038,-23.05595 12.69529,-107.56603 22.48262,-107.56603c4.90247,0 35.45473,46.15862 63.43566,44.88208c12.16633,-0.55505 39.76045,37.35181 46.31956,37.11697c2.68485,-0.09613 0.24549,44.29092 5.48379,93.22907c8.15416,76.17911 23.87658,171.87517 21.44674,193.3964c-9.60659,85.08612 -69.2516,100.53785 -69.2516,84.77734z" data-paper-data="{&quot;index&quot;:null}" fill="#344e5f"/><path d="M544.67383,46.59602c0,17.03064 14.23227,241.3387 16.94439,315.74594c0.84038,23.05596 -49.67852,41.35412 -59.46585,41.35412c-4.90247,0 -0.26101,-2.61384 -28.24194,-1.33731c-12.16633,0.55505 -37.97094,-14.68467 -44.53005,-14.44983c-2.68485,0.09612 -0.24548,-44.29092 -5.48379,-93.22908c-8.15416,-76.17911 -23.87658,-171.87518 -21.44674,-193.3964c1.24353,-11.014 5.11502,-39.35281 7.79754,-48.11654c7.4117,-24.21386 61.45406,-61.9836 61.45406,-36.6608z" data-paper-data="{&quot;index&quot;:null}" fill="#344e5f"/><path d="M-102.94497,443.15082v-528.64939h687.58527v528.64939z" fill="none"/><path d="M-110.89528,436.13526v-522.53727h694.92685v522.53727z" fill="none"/></g></g></svg>