<svg version="1.1" xmlns="http://www.w3.org/2000/svg" xmlns:xlink="http://www.w3.org/1999/xlink" width="500.07967" height="378.37015" viewBox="0,0,500.07967,378.37015"><defs><linearGradient x1="168.15338" y1="139.11922" x2="378.7305" y2="139.11922" gradientUnits="userSpaceOnUse" id="color-1"><stop offset="0" stop-color="#8e9ba2"/><stop offset="1" stop-color="#747f84"/></linearGradient></defs><g transform="translate(-6.587,6.92164)"><g data-paper-data="{&quot;isPaintingLayer&quot;:true}" fill-rule="nonzero" stroke="none" stroke-linecap="butt" stroke-linejoin="miter" stroke-miterlimit="10" stroke-dasharray="" stroke-dashoffset="0" style="mix-blend-mode: normal"><g><path d="M247.15139,176.45252v-142.21412h208.162v142.21413z" fill="#475159" stroke-width="0"/><path d="M241.71395,137.00081c28.21392,11.19108 65.42028,23.87531 69.024,26.91315c0.47412,0.39967 4.4582,-3.05431 8.34019,-6.31974c2.42809,-2.04245 2.90443,-4.55736 8.3628,-4.32204c2.15665,0.09298 8.95767,-3.2647 11.37,-2.92463c8.25398,1.1636 18.71618,10.91253 25.95792,14.13396c1.54038,0.68522 18.25923,-1.36398 34.26698,-0.91477c16.13957,0.45292 31.56693,3.40308 32.60025,3.7998c5.08198,1.9511 27.85132,12.80056 26.77068,12.9981c0,0 -111.9134,-0.1489 -136.78617,0.12616c-31.8054,0.35173 -59.25831,-9.23874 -71.00958,-12.57541c-24.66539,-7.0035 -8.89708,-30.91457 -8.89708,-30.91457z" fill="url(#color-1)" stroke-width="0"/><path d="M246.49728,194.83167v-18.33527h210.57711v18.33527z" fill="#17242d" stroke-width="0"/><path d="M246.64428,197.79781l1.34588,-32.79818c0,0 10.24512,2.42188 16.72267,4.2685c4.65057,1.32578 12.88996,1.87377 18.20003,1.93134c4.61051,0.04998 10.7,-0.46388 15.61841,-0.55155c3.27141,-0.0583 18.27754,1.2436 18.27754,1.2436l8.24079,9.88833l1.45202,7.96302z" fill="#bec3c5" stroke-width="0"/><path d="M456.21066,88.41008c0,2.60526 19.90521,25.03735 -5.47124,29.31286c-2.47183,0.41646 -24.03891,1.53884 -34.79436,-1.36999c-10.29706,-2.78485 -14.7211,-9.15283 -17.58915,-8.99667c-1.64666,0.08965 -6.77657,3.34807 -12.68686,2.90717c-9.37174,-0.69911 -15.77075,-5.71317 -18.29077,-5.73128c-0.60966,-0.00438 -8.38761,-2.24772 -12.12442,-5.39062c-3.74196,-3.14723 -3.44276,-7.19402 -4.03047,-7.19901c-8.09669,-0.06869 -17.19971,-1.45252 -21.96505,-1.41252c-2.26261,0.01899 -12.54726,-4.37433 -17.97074,-8.45441c-2.58729,-1.94642 -2.68219,-5.55421 -2.8646,-5.33697c-5.68283,6.76748 -13.10633,5.615 -23.13844,5.615c-3.91921,0 -14.69274,-3.45757 -21.8561,-7.40747c-8.19501,-4.51876 -12.7733,-9.68188 -15.99209,-11.04957c-7.84161,-3.33198 -2.07945,-24.09853 -2.07945,-29.77014c0,-10.03463 17.90992,-0.67294 37.23588,-0.67294c19.32596,0 173.61788,44.92192 173.61788,54.95656z" fill="#2e3b41" stroke-width="0"/><path d="M456.21066,61.04396c0,2.60527 19.90521,25.03734 -5.47124,29.31285c-2.47183,0.41646 -24.03891,1.53884 -34.79436,-1.36999c-10.29706,-2.78485 -14.7211,-9.15283 -17.58915,-8.99667c-1.64666,0.08965 -6.77657,3.34807 -12.68686,2.90718c-9.37174,-0.69911 -15.77075,-5.71317 -18.29077,-5.73128c-0.60966,-0.00438 -8.38761,-2.24772 -12.12442,-5.39062c-3.74196,-3.14723 -3.44276,-7.19403 -4.03047,-7.19901c-8.09669,-0.0687 -17.19971,-1.45252 -21.96505,-1.41252c-2.26261,0.01899 -12.54726,-4.37433 -17.97074,-8.45441c-2.58729,-1.94643 -2.68219,-5.5542 -2.8646,-5.33697c-5.68283,6.76749 -57.76784,-11.47435 -60.98662,-12.84205c-7.84161,-3.33198 -2.07945,-24.09853 -2.07945,-29.77014c0,-10.03463 17.90992,-0.67294 37.23588,-0.67294c19.32596,0 173.61788,44.92193 173.61788,54.95656z" fill="#232b31" stroke-width="0"/><path d="M306.06045,45.35675c-2.36639,9.46555 -16.4923,14.08699 -31.55114,10.32229c-15.05883,-3.76471 -25.34808,-14.48994 -22.98169,-23.95549c2.36639,-9.46555 16.49231,-14.08699 31.55114,-10.32229c15.05883,3.76471 25.34808,14.48994 22.98169,23.95549z" fill="#232b31" stroke-width="0"/><path d="M339.2587,53.33641c-2.36639,9.46555 -16.4923,14.08699 -31.55114,10.32229c-15.05883,-3.76471 -25.34808,-14.48994 -22.98169,-23.95549c2.36639,-9.46555 16.49231,-14.08699 31.55114,-10.32229c15.05883,3.76471 25.34807,14.48995 22.98168,23.9555z" fill="#232b31" stroke-width="0"/><path d="M385.9157,67.69243c-2.36639,9.46555 -16.4923,14.08699 -31.55113,10.32229c-15.05883,-3.76471 -25.34808,-14.48995 -22.98169,-23.9555c2.36639,-9.46555 16.49231,-14.08699 31.55114,-10.32229c15.05883,3.76471 25.34808,14.48995 22.98168,23.9555z" fill="#232b31" stroke-width="0"/><path d="M446.48008,86.08606c-2.36639,9.46555 -16.49231,14.08699 -31.55114,10.32229c-15.05883,-3.76471 -25.34808,-14.48995 -22.98169,-23.95549c2.36639,-9.46555 16.49231,-14.08699 31.55114,-10.32229c15.05883,3.76471 25.34808,14.48994 22.98169,23.95549z" fill="#232b31" stroke-width="0"/><path d="M299.755,14.40407c-3.14585,10.04976 -17.49088,14.5046 -32.04053,9.95015c-14.54966,-4.55443 -25.14013,-6.0751 -21.99427,-16.12486c3.14585,-10.04976 57.18067,-3.87506 54.03482,6.17472z" fill="#141b21" stroke-width="0"/><path d="M342.37438,21.94805c-3.14585,10.04976 -17.49088,14.5046 -32.04054,9.95015c-14.54965,-4.55443 35.18639,-19.9999 32.04054,-9.95014z" fill="#141b21" stroke-width="0"/><path d="M372.92223,35.85544c-3.14585,10.04976 -17.49088,14.5046 -32.04054,9.95015c-14.54965,-4.55443 -51.609,-25.36597 -48.46315,-35.41573c3.14585,-10.04976 46.20288,-6.42935 60.75254,-1.8749c14.54966,4.55443 22.89701,17.29073 19.75116,27.34049z" fill="#141b21" stroke-width="0"/><path d="M413.64192,35.91566c-0.39939,10.52305 -13.07344,18.58492 -28.3083,18.00671c-15.23486,-0.5782 -27.26138,-9.57755 -26.86199,-20.1006c0.39939,-10.52305 13.07344,-18.58492 28.3083,-18.00671c15.23486,0.57822 27.26139,9.57756 26.86201,20.10061z" fill="#141b21" stroke-width="0"/><path d="M446.79882,49.82303c-0.39939,10.52305 -13.07344,18.58492 -28.3083,18.00671c-15.23486,-0.5782 -27.26138,-9.57755 -26.86199,-20.1006c0.39939,-10.52305 13.07344,-18.58493 28.3083,-18.00671c15.23486,0.57822 27.26139,9.57756 26.86199,20.10061z" fill="#141b21" stroke-width="0"/><path d="M462.73283,5.58956c-0.4586,12.08325 7.82545,46.48411 -6.8557,53.20817c-5.78036,2.64744 -30.66301,-16.05416 -37.55072,-16.31556c-18.73757,-0.71115 -80.45606,-23.55162 -97.3503,-37.99331c-3.14098,-2.68499 46.29554,3.95369 88.56893,4.46069c26.2121,0.31437 53.43244,-9.8056 53.18781,-3.35999z" fill="#141b21" stroke-width="0"/><path d="M245.51796,12.44996v-12.00778h220.31829v12.00778z" fill="#0f1417" stroke-width="0"/><g fill-opacity="0.7127" fill="#97a3aa" stroke-width="0"><path d="M312.55145,118.28671l-13.3075,-11.63754l-12.5247,-13.38578l18.13473,16.02119z"/><path d="M282.67307,102.60486l-9.54322,-8.34564l-8.98186,-9.59935l13.00497,11.48928z"/><path d="M334.76229,114.74754l-9.54322,-8.34564l-8.98186,-9.59936l13.00498,11.48928z"/><path d="M391.85908,144.11436l-16.50918,-14.43744l-15.53804,-16.60629l22.4978,19.87575z"/><path d="M360.49494,133.51992l-9.54322,-8.34564l-8.98186,-9.59936l13.00498,11.48928z"/><path d="M408.32687,132.16404l-8.10109,-7.08448l-7.62456,-8.14874l11.03971,9.75307z"/><path d="M448.20561,142.96396l-8.10109,-7.08448l-7.62456,-8.14874l11.03971,9.75307z"/><path d="M403.12333,98.53718l-19.07315,-16.67966l-17.95121,-19.18535l25.99185,22.96258z"/><path d="M388.34798,27.53275l13.3075,11.63754l12.5247,13.38577l-18.13473,-16.02118z"/><path d="M418.22634,43.21461l9.54322,8.34564l8.98186,9.59936l-13.00498,-11.4893z"/><path d="M366.13712,31.0719l9.54322,8.34564l8.98186,9.59935l-13.00498,-11.48928z"/><path d="M309.04032,1.7051l16.50918,14.43744l15.53804,16.60629l-22.4978,-19.87575z"/><path d="M340.40447,12.29954l9.54322,8.34564l8.98186,9.59935l-13.00498,-11.48928z"/><path d="M292.57254,13.65541l8.10109,7.08448l7.62456,8.14874l-11.03971,-9.75307z"/><path d="M265.87509,47.03695l19.07315,16.67967l17.95121,19.18534l-25.99185,-22.96258z"/><path d="M308.07327,30.01761l13.3075,11.63754l12.5247,13.38577l-18.13473,-16.02118z"/><path d="M337.95164,45.69946l9.54322,8.34564l8.98186,9.59936l-13.00498,-11.48928z"/><path d="M285.86241,33.55676l9.54322,8.34564l8.98186,9.59935l-13.00498,-11.48928z"/><path d="M260.12977,14.78438l9.54322,8.34564l8.98186,9.59935l-13.00497,-11.48928z"/><path d="M439.9487,93.52743l-13.3075,-11.63754l-12.5247,-13.38578l18.13473,16.02119z"/><path d="M410.07033,77.84559l-9.54322,-8.34564l-8.98186,-9.59936l13.00498,11.4893z"/><path d="M462.15956,89.98829l-9.54322,-8.34564l-8.98186,-9.59936l13.00498,11.4893z"/><path d="M416.8314,21.381l-16.50917,-14.43744l6.95975,3.26946z"/><path d="M436.29513,122.24985l-9.54321,-8.34564l-8.98186,-9.59936l13.00498,11.4893z"/><path d="M363.91451,98.53718l-8.10109,-7.08448l-7.62455,-8.14875l11.03971,9.75307z"/><path d="M460.94478,47.41771l-19.07315,-16.67966l-17.95121,-19.18534l25.99185,22.96258z"/></g><path d="M454.29673,199.30466v-199.29106h11.71429v199.29106z" fill="#0f1417" stroke-width="0"/><path d="M254.09956,198.58811c0,0 -16.22191,-18.62697 -8.3423,-18.3318c8.69307,0.32565 39.17709,1.06844 43.28362,0.88754c3.65031,-0.16081 14.14275,1.41681 14.14275,1.41681c0,0 8.02218,-1.36059 9.07207,-1.47329c3.40747,-0.36578 13.18538,1.42701 13.18538,1.42701l1.86942,7.40899l-20.62087,8.66474z" fill="#4c616a" stroke-width="0"/><path d="M357.39556,179.86893l6.31301,-8.41735l26.92978,-2.13192l19.86893,1.32746l22.22361,8.80095l-31.14422,6.73388l-21.52139,-0.61124z" fill="#bec3c5" stroke-width="0"/><path d="M355.10785,191.37993l2.17941,-11.17705l6.84702,-0.22101c0,0 11.52999,1.83413 13.90487,1.89471c11.94138,0.3046 44.06309,-2.5261 44.06309,-2.5261l10.23931,0.58527l4.8155,8.25073l-20.62088,8.66474z" fill="#4c616a" stroke-width="0"/><path d="M236.632,199.97979c0,0 -6.68037,-26.15085 -6.68037,-46.69897c0,-36.36024 6.68037,-152.59208 6.68037,-152.59208h11.71429v199.29106z" fill="#0f1417" stroke-width="0"/><g data-paper-data="{&quot;index&quot;:null}" fill="#0e0e0f" stroke-width="0"><path d="M376.75438,165.35222c-0.04561,-0.50866 2.21205,-2.37492 3.40683,-1.6913c1.07069,0.61263 1.42128,2.85143 3.0209,2.47172c1.98302,-0.47074 4.65664,-1.21613 7.24801,-1.44853c5.09807,-0.45721 9.68343,1.97262 11.13971,2.827c0.54738,0.32114 2.4051,-0.33108 2.44258,0.08679c0.01526,0.17011 1.17653,0.11667 1.53902,0.36535c0.46339,0.3179 -1.78362,1.56058 -2.01551,1.76482c-1.21774,1.07245 -7.54502,2.72108 -12.78196,3.19075c-3.49131,0.31311 -6.04845,-1.42527 -10.49548,-3.05421c-0.8374,-0.30673 -2.6266,-2.41679 -3.36305,-2.69587c-1.40013,-0.53059 -2.51671,-0.07534 -3.13036,-0.6007c-0.79322,-0.67908 3.02091,-0.8635 2.98931,-1.2158z" data-paper-data="{&quot;index&quot;:null}"/><path d="M390.1852,169.42964c2.47092,2.5098 6.44851,4.98203 5.98973,5.43371c-0.30753,0.30276 -1.28617,1.83894 -2.76748,0.62161c-0.72853,-0.59871 -7.50849,-3.56877 -8.32309,-4.3962c-2.47092,-2.5098 -0.25302,-1.80341 0.20577,-2.25509c0.45878,-0.45167 2.42416,-1.91382 4.89508,0.59597z" data-paper-data="{&quot;index&quot;:null}"/></g><text transform="translate(380.19963,157.78134) scale(0.5102,0.5102)" font-size="40" xml:space="preserve" fill="#ecf3f6" fill-rule="nonzero" stroke="none" stroke-width="1" stroke-linecap="butt" stroke-linejoin="miter" stroke-miterlimit="10" stroke-dasharray="" stroke-dashoffset="0" font-family="Sans Serif" font-weight="normal" text-anchor="start" style="mix-blend-mode: normal"><tspan x="0" dy="0">Z</tspan></text><text transform="translate(395.32845,149.96334) scale(0.32654,0.32654)" font-size="40" xml:space="preserve" fill-opacity="0.75302" fill="#ecf3f6" fill-rule="nonzero" stroke="none" stroke-width="1" stroke-linecap="butt" stroke-linejoin="miter" stroke-miterlimit="10" stroke-dasharray="" stroke-dashoffset="0" font-family="Sans Serif" font-weight="normal" text-anchor="start" style="mix-blend-mode: normal"><tspan x="0" dy="0">Z</tspan></text><text transform="translate(406.55715,143.10914) scale(0.18117,0.18117)" font-size="40" xml:space="preserve" fill-opacity="0.52722" fill="#ecf3f6" fill-rule="nonzero" stroke="none" stroke-width="1" stroke-linecap="butt" stroke-linejoin="miter" stroke-miterlimit="10" stroke-dasharray="" stroke-dashoffset="0" font-family="Sans Serif" font-weight="normal" text-anchor="start" style="mix-blend-mode: normal"><tspan x="0" dy="0">Z</tspan></text></g><path d="M6.587,15.68884v-22.61048h489.55283v22.61048z" fill="#0f1417" stroke-width="0"/><path d="M10.46534,207.37249v-17.38731h478.63248v17.38731z" fill="#0f1417" stroke-width="0"/><path d="M454.31065,371.44851v-376.96335h52.35602v376.96335z" fill="#0f1417" stroke-width="0"/></g></g></svg>