<svg version="1.1" xmlns="http://www.w3.org/2000/svg" xmlns:xlink="http://www.w3.org/1999/xlink" width="700.75047" height="534.70919" viewBox="0,0,700.75047,534.70919"><defs><linearGradient x1="134.03842" y1="193.06857" x2="134.03842" y2="42.92273" gradientUnits="userSpaceOnUse" id="color-1"><stop offset="0" stop-color="#000000"/><stop offset="1" stop-color="#070b0d"/></linearGradient></defs><g transform="translate(116.00375,86.26441)"><g data-paper-data="{&quot;isPaintingLayer&quot;:true}" fill-rule="nonzero" stroke="none" stroke-linecap="butt" stroke-linejoin="miter" stroke-miterlimit="10" stroke-dasharray="" stroke-dashoffset="0" style="mix-blend-mode: normal"><path d="M295.72733,-32.39107c23.82983,-0.05626 36.90803,-3.39617 65.36428,-4.20132c24.60192,-0.6961 78.20232,-18.51692 96.22475,-9.72426c36.09085,17.60773 28.7321,-12.84623 64.61107,5.18931c1.55102,0.77966 16.33042,20.87761 27.43283,54.75506c0.43856,1.33821 6.21081,16.43191 1.3992,22.35499c-1.41733,1.74473 -4.53117,-1.68755 -7.78739,-1.79266c-4.9903,-0.16109 -10.31499,2.43289 -10.38001,3.8841c-0.10527,2.34976 5.68819,2.49883 7.09021,3.89724c2.98181,2.97414 3.09316,5.93497 3.78605,7.92382c0.35834,1.02858 7.89737,-1.99686 9.62325,-2.42593c1.97124,-0.49007 3.94862,-6.68663 6.14642,-5.99042c1.11072,0.35185 2.27774,7.65156 3.52871,7.79337c8.50646,0.96428 18.10193,1.46914 18.35558,4.7416c1.34941,17.40928 -14.99419,15.75088 -24.77215,28.02055c-13.25094,16.62767 -21.61669,44.48902 -24.55146,46.0451c-7.24752,3.84279 -12.54814,7.97766 -16.81909,12.15302c-4.31522,4.21864 -6.50749,-2.77541 -9.6665,1.26642c-0.93531,1.1967 -11.03314,-12.44205 -23.41037,-11.68888c-12.25196,0.74555 -17.14507,-11.42504 -16.73867,-14.73131c2.68674,-21.85816 -2.43826,-19.36363 -23.37144,-19.41783c-4.89964,-0.01269 -13.14094,-11.20018 -22.67089,-19.93342c-7.52907,-6.89964 -16.05252,-8.13412 -18.89396,-17.94321c-3.35426,-11.5793 -45.56431,11.4906 -54.33204,9.51291c-1.72381,-0.38883 -13.48145,7.73669 -19.6717,7.1994c-8.1144,-0.70431 -10.8967,-9.36499 -11.55225,-1.92462c-0.26803,3.04212 4.9475,5.13836 2.75093,8.4363c-3.06037,4.59486 -13.94636,7.89445 -15.87332,8.19128c-2.28125,0.35141 -8.29157,-21.88273 -14.51871,-17.68914c-4.68998,3.1584 6.93431,11.46801 2.56066,21.002c-2.7401,5.97306 -13.16605,11.09171 -20.14723,14.87258c-0.53258,0.28844 -11.23359,-0.93311 -18.65663,-11.06927c-6.75767,-9.22761 -6.49687,-24.27735 -18.09609,-33.55178c-3.70206,-2.96007 -6.5826,-16.70765 -10.77933,-18.52237c-4.2526,-1.83889 1.57071,13.69771 -0.90953,13.24554c-7.96316,-1.45177 10.43819,11.97935 12.28812,15.96511c3.15396,6.79534 -5.01684,6.57209 -7.38872,6.43457c-4.58627,-0.2659 7.18759,3.70999 13.07988,12.69331c0.56897,0.86745 4.70445,-21.97489 8.71221,-24.28026c5.58494,-3.21261 11.42664,13.76951 11.50028,15.76528c0.1574,4.26571 -6.69964,18.88137 -6.78129,18.88989c-4.41813,0.46116 -0.62947,11.0347 -0.62947,11.0347l-103.35781,77.64853c0,0 -11.10136,3.45878 -15.19828,-1.51699c-2.55393,-3.1018 -2.6259,-14.83188 -5.80425,-14.05772c-7.61769,1.85546 -21.2003,23.70917 -32.12312,24.14148c-13.76492,0.5448 -28.07132,0.42873 -37.66934,0.83428c-5.78955,0.24463 -16.49332,3.07089 -21.39892,8.97411c-7.47194,8.99144 -17.71694,3.72873 -29.26677,5.53908c-9.88845,1.54994 -11.12724,12.52597 -12.6422,12.51158c-26.44821,-0.25121 -10.60772,-12.1903 -18.09755,-18.25764c-17.28709,-14.00386 -27.76295,-29.1965 -32.64735,-29.1965c-28.97953,0 -17.51537,-74.84207 -15.02707,-78.71653c8.03037,-12.50383 9.78786,-125.33192 9.78786,-128.19384z" data-paper-data="{&quot;index&quot;:null}" fill="url(#color-1)" stroke-width="0"/><path d="" data-paper-data="{&quot;index&quot;:null}" fill="#344e5f" stroke-width="0"/><path d="" data-paper-data="{&quot;index&quot;:null}" fill="#344e5f" stroke-width="0"/><path d="" data-paper-data="{&quot;index&quot;:null}" fill="#344e5f" stroke-width="0"/><path d="" data-paper-data="{&quot;index&quot;:null}" fill="#344e5f" stroke-width="0"/><path d="" data-paper-data="{&quot;index&quot;:null}" fill="#344e5f" stroke-width="0"/><path d="" data-paper-data="{&quot;index&quot;:null}" fill="#344e5f" stroke-width="0"/><path d="" data-paper-data="{&quot;index&quot;:null}" fill="#344e5f" stroke-width="0"/><path d="" data-paper-data="{&quot;index&quot;:null}" fill="#344e5f" stroke-width="0"/><path d="" data-paper-data="{&quot;index&quot;:null}" fill="#344e5f" stroke-width="0"/><path d="" data-paper-data="{&quot;index&quot;:null}" fill="#344e5f" stroke-width="0"/><path d="" data-paper-data="{&quot;index&quot;:null}" fill="#344e5f" stroke-width="0"/><path d="" data-paper-data="{&quot;index&quot;:null}" fill="#344e5f" stroke-width="0"/><path d="" data-paper-data="{&quot;index&quot;:null}" fill="#344e5f" stroke-width="0"/><path d="" data-paper-data="{&quot;index&quot;:null}" fill="#344e5f" stroke-width="0"/><path d="" data-paper-data="{&quot;index&quot;:null}" fill="#344e5f" stroke-width="0"/><path d="" data-paper-data="{&quot;index&quot;:null}" fill="#344e5f" stroke-width="0"/><path d="" data-paper-data="{&quot;index&quot;:null}" fill="#344e5f" stroke-width="0"/><path d="" data-paper-data="{&quot;index&quot;:null}" fill="#344e5f" stroke-width="0"/><path d="" data-paper-data="{&quot;index&quot;:null}" fill="#344e5f" stroke-width="0"/><path d="" data-paper-data="{&quot;index&quot;:null}" fill="#344e5f" stroke-width="0"/><path d="" data-paper-data="{&quot;index&quot;:null}" fill="#344e5f" stroke-width="0"/><path d="" fill="#000000" stroke-width="0.5"/><path d="M-116.00375,448.44478v-534.70919h700.75047v534.70919z" fill="none" stroke-width="0"/><path d="M-85.87715,411.50067v-96.18008c0,0 -31.17257,-10.21219 18.0745,-11.26267c17.12292,-0.36525 84.14542,9.97172 110.51083,9.07963c10.76541,-0.36425 81.73318,-16.29587 92.76617,-16.3873c2.20398,-0.01826 11.19867,11.42162 17.36613,7.75963c6.26352,-3.71903 10.13903,4.24467 17.42119,4.42615c8.11409,0.20222 14.36545,-11.59249 19.56798,-10.56178c28.14334,5.57569 74.66716,-80.41549 102.89765,-81.55318c9.17439,-0.36973 21.43052,-24.35549 30.39502,-24.62271c9.08469,-0.27081 17.28501,0.97006 25.27173,1.66435c13.69427,1.19045 25.72096,-1.9057 32.98669,11.88066c7.95202,15.08855 25.37648,25.43351 25.23067,32.68125c-0.57037,28.35085 28.41394,28.32229 56.77052,28.32229c2.35975,0 31.09139,-7.83396 32.58254,9.51768c17.48509,9.75748 15.40366,28.08832 34.39623,40.52575c19.58697,12.82669 23.59843,38.77581 23.59843,38.77581l-40.92769,55.93452z" data-paper-data="{&quot;index&quot;:null}" fill="#000000" stroke-width="0"/></g></g></svg>