<svg version="1.1" xmlns="http://www.w3.org/2000/svg" xmlns:xlink="http://www.w3.org/1999/xlink" width="664.52159" height="444.86048" viewBox="0,0,664.52159,444.86048"><defs><linearGradient x1="374.27033" y1="204.99332" x2="426.33627" y2="204.99332" gradientUnits="userSpaceOnUse" id="color-1"><stop offset="0" stop-color="#11191e" stop-opacity="0"/><stop offset="1" stop-color="#11191e"/></linearGradient><linearGradient x1="9.14039" y1="-33.36664" x2="9.14039" y2="288.08766" gradientUnits="userSpaceOnUse" id="color-2"><stop offset="0" stop-color="#344e5f"/><stop offset="1" stop-color="#070b0d"/></linearGradient><linearGradient x1="509.29545" y1="11.3643" x2="509.29545" y2="290.14855" gradientUnits="userSpaceOnUse" id="color-3"><stop offset="0" stop-color="#344e5f"/><stop offset="1" stop-color="#070b0d"/></linearGradient></defs><g transform="translate(115.73778,45.44556)"><g data-paper-data="{&quot;isPaintingLayer&quot;:true}" fill-rule="nonzero" stroke="none" stroke-width="0" stroke-linecap="butt" stroke-linejoin="miter" stroke-miterlimit="10" stroke-dasharray="" stroke-dashoffset="0" style="mix-blend-mode: normal"><path d="M384.39843,242.78342c0,0 -4.48254,-8.22723 -4.13705,-13.56708c0.26474,-4.09175 0.7174,-8.9068 0.04173,-13.87547c-0.9555,-7.0265 -6.03278,-13.82225 -6.03278,-18.12114c0,-11.03884 5.33176,-25.7531 5.33176,-25.7531h46.73418v67.05339z" fill="url(#color-1)"/><path d="M-110.21667,363.96685c0,-6.12723 -2.79306,-265.18111 -5.50518,-291.95113c-0.84038,-8.29501 31.79288,-78.70902 41.58021,-78.70902c3.23661,0 51.06782,-30.18025 102.46815,-38.07723c26.45539,-4.06452 65.9883,11.5604 75.49623,11.40434c3.90729,-0.06413 20.00566,1.81242 22.96405,11.00735c6.25331,19.43582 -1.97473,54.65928 2.47788,54.60192c2.68485,-0.03459 -3.33353,61.65836 1.90477,79.26519c8.15416,27.4075 9.56049,65.46559 7.13065,73.20843c-1.75045,5.57793 -2.31035,16.73438 -2.05545,31.21686c0.04883,2.77433 2.00274,6.32807 1.21211,10.03207c-4.97134,23.29002 1.15055,37.15177 3.31443,60.86795c0.29498,3.23298 0.59861,6.47435 0.90914,9.71361c0.5757,6.00534 4.65167,12.69874 5.26366,18.62266c0.54542,5.27961 -0.32699,14.31705 0.16379,19.41815c2.98227,30.99771 5.7895,10.2365 -5.21477,32.96473c-4.69069,9.68816 -18.17025,31.57164 -18.17025,30.83297c0,0 -45.05135,2.61487 -61.95265,-0.49125c0,0 -53.92638,-10.09288 -67.80245,-16.64923c-23.7623,-11.22752 -104.18432,-17.27838 -104.18432,-17.27838z" data-paper-data="{&quot;index&quot;:null}" fill="url(#color-2)"/><path d="M373.13712,363.84712c0,3.92001 7.03477,-74.20006 8.9366,-131.89721c0.34209,-10.37821 21.4128,-2.41999 20.61545,-8.54815c-0.05662,-0.4352 9.94173,-7.79171 10.68648,-11.01009c0.46696,-2.01793 -11.9393,-11.98275 -12.83391,-12.02355c-1.44117,-0.06572 -2.03271,-12.48565 -3.56721,-13.29961c-2.43743,-1.29291 -4.83972,5.77111 -8.40566,9.56638c-3.5547,3.78331 -12.44849,-0.57058 -12.60494,-1.00294c-1.12762,-3.11626 2.26081,-9.85849 3.67784,-19.31101c0.27954,-1.86471 -3.31135,-5.21873 -3.09489,-7.25621c1.0507,-9.89011 5.52911,-20.13478 9.15266,-30.69746c2.80052,-8.16354 -8.22129,-12.19517 -12.11349,-18.60174c-3.38806,-5.57673 0.33443,-14.10531 1.58389,-14.09135c0.71343,0.00797 7.96799,-1.31038 13.16906,-5.85649c3.66259,-3.20136 4.3322,-9.37338 9.57765,-11.8464c10.52386,-4.96158 4.0163,-36.32797 5.88074,-43.92194c8.01923,-32.66278 21.9049,-41.15428 29.94641,-41.03981c20.13789,0.28666 59.40616,6.32965 99.38844,15.37961c9.88186,2.23675 15.98185,145.47562 13.26699,262.60002c-0.98232,42.37935 5.82358,40.44687 0.00366,70.77105c-3.26436,17.0087 -2.51873,7.56661 -17.22954,10.76565c-24.97527,5.43115 -72.30867,13.00051 -98.2914,-0.76412z" data-paper-data="{&quot;index&quot;:null}" fill="url(#color-3)"/></g></g></svg>