<svg version="1.1" xmlns="http://www.w3.org/2000/svg" xmlns:xlink="http://www.w3.org/1999/xlink" width="48.03545" height="13.99997" viewBox="0,0,48.03545,13.99997"><g transform="translate(-196.27736,-172.7688)"><g data-paper-data="{&quot;isPaintingLayer&quot;:true}" fill="#f0f0f0" fill-rule="nonzero" stroke="none" stroke-linejoin="miter" stroke-miterlimit="10" stroke-dasharray="" stroke-dashoffset="0" style="mix-blend-mode: normal"><path d="M228.01473,183.03033v-6.0606h16.29808v6.0606z" stroke-width="0" stroke-linecap="butt"/><path d="M220.45948,182.95626c0,0.57292 -0.08333,1.09375 -0.25,1.5625c-0.16667,0.46875 -0.45833,0.86979 -0.875,1.20313c-0.41667,0.33333 -1,0.58854 -1.75,0.76563c-0.73958,0.1875 -1.67708,0.28125 -2.8125,0.28125c-1.14583,0 -2.09375,-0.09375 -2.84375,-0.28125c-0.75,-0.17708 -1.33333,-0.43229 -1.75,-0.76562c-0.41667,-0.33333 -0.70833,-0.73437 -0.875,-1.20312c-0.16667,-0.46875 -0.25,-0.98958 -0.25,-1.5625v-6.35937c0,-0.57292 0.08333,-1.08854 0.25,-1.54687c0.16667,-0.46875 0.45833,-0.86979 0.875,-1.20312c0.41667,-0.34375 1,-0.60937 1.75,-0.79687c0.75,-0.1875 1.69792,-0.28125 2.84375,-0.28125c1.13542,0 2.07292,0.09375 2.8125,0.28125c0.75,0.1875 1.33333,0.45313 1.75,0.79688c0.41667,0.33333 0.70833,0.73438 0.875,1.20313c0.16667,0.45833 0.25,0.97396 0.25,1.54688zM213.27198,182.28439c0,0.25 0.08854,0.45833 0.26563,0.625c0.1875,0.16667 0.59896,0.25 1.23438,0.25c0.64583,0 1.05208,-0.08333 1.21875,-0.25c0.17708,-0.16667 0.26563,-0.375 0.26563,-0.625v-5.01562c0,-0.25 -0.08854,-0.45312 -0.26562,-0.60937c-0.16667,-0.16667 -0.57292,-0.25 -1.21875,-0.25c-0.63542,0 -1.04687,0.08333 -1.23437,0.25c-0.17708,0.15625 -0.26562,0.35938 -0.26562,0.60938z" stroke-width="1" stroke-linecap="square"/><path d="M207.79297,181.70626v1.8125c0,0.64583 -0.17187,1.21354 -0.51562,1.70313c-0.33333,0.47917 -0.91146,0.85938 -1.73437,1.14063c-0.82292,0.27083 -1.98958,0.40625 -3.5,0.40625c-1.48958,0 -2.65625,-0.13542 -3.5,-0.40625c-0.83333,-0.28125 -1.42187,-0.66146 -1.76562,-1.14062c-0.33333,-0.48958 -0.5,-1.05729 -0.5,-1.70312v-1.8125c0,-0.875 0.1875,-1.54687 0.5625,-2.01562c0.38542,-0.46875 0.85938,-0.76042 1.42188,-0.875c-0.41667,-0.16667 -0.70833,-0.42187 -0.875,-0.76562c-0.15625,-0.35417 -0.23437,-0.77083 -0.23437,-1.25v-1.07812c0,-0.60417 0.15104,-1.125 0.45313,-1.5625c0.30208,-0.44792 0.80729,-0.79167 1.51563,-1.03125c0.71875,-0.23958 1.69792,-0.35937 2.9375,-0.35937c1.26042,0 2.23958,0.11979 2.9375,0.35938c0.70833,0.23958 1.20313,0.58333 1.48438,1.03125c0.29167,0.4375 0.4375,0.95833 0.4375,1.5625v1.07813c0,0.47917 -0.08333,0.89583 -0.25,1.25c-0.15625,0.34375 -0.44271,0.59896 -0.85937,0.76563c0.5625,0.11458 1.03125,0.40625 1.40625,0.875c0.38542,0.46875 0.57813,1.14063 0.57813,2.01563zM200.40235,182.81564c0,0.19792 0.10417,0.36458 0.3125,0.5c0.21875,0.125 0.66146,0.1875 1.32813,0.1875c0.6875,0 1.13021,-0.0625 1.32813,-0.1875c0.19792,-0.13542 0.29688,-0.30208 0.29688,-0.5v-1c0,-0.17708 -0.09896,-0.32812 -0.29687,-0.45312c-0.19792,-0.13542 -0.64062,-0.20312 -1.32812,-0.20312c-0.66667,0 -1.10937,0.06771 -1.32812,0.20313c-0.20833,0.125 -0.3125,0.27604 -0.3125,0.45313zM200.8711,177.53439c0,0.19792 0.0625,0.36458 0.1875,0.5c0.13542,0.125 0.46354,0.1875 0.98438,0.1875c0.53125,0 0.85417,-0.0625 0.96875,-0.1875c0.125,-0.13542 0.1875,-0.30208 0.1875,-0.5v-0.82812c0,-0.1875 -0.0625,-0.34375 -0.1875,-0.46875c-0.11458,-0.13542 -0.4375,-0.20312 -0.96875,-0.20312c-0.52083,0 -0.84896,0.06771 -0.98437,0.20313c-0.125,0.125 -0.1875,0.28125 -0.1875,0.46875z" stroke-width="1" stroke-linecap="square"/></g></g></svg>