<svg version="1.1" xmlns="http://www.w3.org/2000/svg" xmlns:xlink="http://www.w3.org/1999/xlink" width="408.84171" height="379.37637" viewBox="0,0,408.84171,379.37637"><g transform="translate(-22.60322,22.5761)"><g data-paper-data="{&quot;isPaintingLayer&quot;:true}" fill="#344e5f" fill-rule="nonzero" stroke="none" stroke-width="0" stroke-linecap="butt" stroke-linejoin="miter" stroke-miterlimit="10" stroke-dasharray="" stroke-dashoffset="0" style="mix-blend-mode: normal"><path d="M211.56479,356.80027c0,0 -169.38227,-30.51079 -172.22676,-158.44889c-1.90656,-85.75199 -20.37049,-120.84046 8.91181,-172.5578c9.28578,-16.40021 7.62954,-59.91746 43.99692,-45.48001c42.33416,16.8062 22.37542,65.9726 34.68425,59.04475c33.42841,-18.81469 81.81756,98.9378 125.08057,147.31055c13.14067,14.69269 66.59663,3.90515 73.21369,3.37083c45.18881,-3.64897 39.4804,-14.19977 37.75052,-34.93868c-0.41669,-4.99561 11.26607,-4.10858 10.26369,-11.32207c-0.38672,-2.78298 -6.92905,1.08014 -7.22623,-2.17597c-0.25133,-2.75373 -0.63545,-5.76581 -1.20112,-8.96816c-0.24787,-1.40328 11.31517,0.53493 11.5124,-4.04923c0.05332,-1.23929 -4.7002,-1.83816 -6.66442,-4.16135c-3.25583,-3.85085 -4.45263,-9.637 -4.62282,-10.31451c-0.26703,-1.06301 -4.24333,7.19844 -5.21727,6.62405c-8.26237,-4.87283 0.45651,-5.49431 -0.91413,-8.91198c-1.25292,-3.12413 -5.13337,-10.00634 -6.57889,-12.12876c-2.89554,-4.25143 -5.57943,3.6315 -9.36377,-0.06171c-7.26428,-7.08936 -16.05106,-12.93958 -25.91886,-16.74182c-2.96242,-1.14147 -4.16148,13.54662 -6.94843,12.31315c-0.90698,-0.40142 -6.4978,-1.44903 -8.36668,-1.20813c-4.99133,0.64339 5.84135,-4.96879 6.41611,-8.41945c0.39176,-2.35196 -5.77578,-1.17707 -10.12261,-2.85936c-3.25011,-1.25784 -4.67424,-5.62822 -5.96699,-6.03435c-3.05644,-0.96022 -6.69217,8.92073 -9.75582,8.11504c-2.12309,-0.55834 -1.28352,-4.04626 -3.30617,-7.39885c-1.85089,-3.06789 -6.55919,-6.02246 -8.58219,-6.51513c-136.63931,-33.27651 -298.61097,-30.78598 -232.58949,-40.54583c22.08886,-3.26536 34.13174,-49.98088 99.38491,-51.88747c27.12734,-0.79261 49.96626,10.57075 72.48379,13.81439c9.99786,1.44019 25.02597,0.81577 32.61483,3.17656c12.88692,4.00894 53.31644,-0.91261 57.0921,-1.07334c18.94023,-0.80631 10.99092,4.62506 32.77405,3.89416c13.29206,-0.446 17.4984,-7.27742 24.89342,-5.54953c5.47363,1.27895 19.17138,25.57955 22.7227,34.02593c2.42164,5.75956 12.64664,4.1124 19.66084,6.44533c5.68309,1.8902 8.62376,8.29714 8.62376,8.29714c0,0 14.90148,35.31422 20.83115,91.65308c9.18898,87.30621 -15.8764,212.05573 -15.8764,212.05573z"/><g><path d="M299.80367,197.41626c0,0.0851 2.24121,-1.57319 4.58684,-2.64696c1.7258,-0.79003 3.68664,-1.07024 3.94306,-1.0926c2.82932,-0.24667 3.76015,4.40346 3.53723,5.35507c-0.16655,0.71101 -6.56699,-1.67723 -9.16736,-0.0315c-3.15061,1.99398 -3.10661,5.29832 -3.72187,5.8309c-1.03363,0.89471 -3.24101,0.63953 -4.20106,0.63953c-0.86003,0 -1.34698,-1.36077 -1.69896,-2.83446c-0.34281,-1.43532 -0.53923,-2.96941 -2.182,-4.07338c-1.92804,-1.29568 -3.45549,-1.07104 -5.41244,-2.05403c-0.76385,-0.38369 -1.80154,-0.5403 -2.56499,-1.94637c-0.68073,-1.25371 -1.08895,-3.70963 -1.74456,-4.93216c-0.49288,-0.91908 -2.04328,-2.5578 -2.04328,-2.58319c0,-0.45577 -1.07709,-1.61203 0.02501,-1.58778c0.67821,0.01492 0.5257,-0.24516 1.73161,0.21558c0.53126,0.20298 1.59899,1.23475 2.13668,2.51312c0.40475,0.96229 0.15884,3.01138 1.21899,3.36148c0.11491,0.03795 0.20873,-1.23949 0.30605,-2.13503c0.11161,-1.02699 0.48825,-2.28912 1.09909,-1.89498c0.5643,0.36411 0.73985,2.5454 1.02661,3.9646c0.32278,1.5975 1.22603,2.41513 2.73822,3.02299c0.81741,0.32858 2.16196,0.055 2.47207,0.08379c0.61576,0.05716 -0.29915,-5.77006 -2.37597,-8.65787c-2.07681,-2.88781 -7.36739,-4.55319 -7.41515,-4.95664c-0.24926,-2.10573 4.31326,-1.4139 6.60001,-1.992c1.55578,-0.3933 2.06208,6.72286 3.65789,6.55401c0.46481,-0.04918 1.13016,-1.33219 1.7758,-2.0214c1.23979,-1.32342 0.58175,-3.6546 1.50162,-5.31013c0.92927,-1.67245 4.26367,-2.0647 4.29879,-1.53142c0.10752,1.63246 -1.45382,4.90016 -1.33362,7.02876c0.11154,1.97521 2.06059,1.72923 1.95895,2.98043c-0.12721,1.56599 -5.47269,0.48834 -5.93101,1.33616c-0.82862,1.53281 1.81104,6.05164 2.2295,5.95308c1.75675,-0.41375 1.14044,-1.50573 2.24383,-2.72532c1.19473,-1.32055 4.53649,-2.95392 3.96662,-4.82321c-0.30626,-1.00459 -0.32107,-1.7031 -0.33807,-2.5942c-0.01753,-0.91895 -0.03122,-2.02416 0.04488,-2.63849c0.11461,-0.92518 2.49999,-2.47212 2.55739,-2.46667c1.29368,0.12285 -0.62727,5.58094 0.20081,5.47031c1.45967,-0.19502 3.11611,-8.13513 5.1538,-8.99585c1.14312,-0.48286 -0.0531,4.46806 0.97164,5.42918c1.67266,1.56883 5.30751,-0.17028 5.31424,0.86523c0.00453,0.69727 -4.92991,1.14544 -7.87695,3.31816c-3.00598,2.21617 -3.19684,6.92697 -3.29389,7.0157c-0.39495,0.36107 -2.60271,0.96575 -4.06711,2.45514c-1.20536,1.22593 -1.92892,2.69119 -1.92892,3.13241z"/><path d="M362.17856,173.68192c0,1.26114 -4.93925,3.12806 -8.68307,6.46963c-2.29476,2.04819 -4.14039,5.95879 -4.1242,6.77512c0.12158,6.13035 3.15848,11.80911 -1.67252,11.80911c-2.50407,0 -2.83278,-8.72581 -4.64333,-10.57923c-2.4686,-2.52704 3.50019,-2.5589 3.50019,-6.09159c0,-7.83914 -6.33332,-15.52768 0.19052,-15.52768c3.54829,0 -0.48666,8.78652 5.17473,8.6779c4.74759,-0.09109 10.25768,-5.10873 10.25768,-1.53326z"/><path d="M362.17856,173.68192c0,1.26114 -4.93925,3.12806 -8.68307,6.46963c-2.29476,2.04819 -4.14039,5.95879 -4.1242,6.77512c0.12158,6.13035 3.15848,11.80911 -1.67252,11.80911c-2.50407,0 -2.83278,-8.72581 -4.64333,-10.57923c-2.4686,-2.52704 3.50019,-2.5589 3.50019,-6.09159c0,-7.83914 -6.33332,-15.52768 0.19052,-15.52768c3.54829,0 -0.48666,8.78652 5.17473,8.6779c4.74759,-0.09109 10.25768,-5.10873 10.25768,-1.53326z"/></g><g><path d="M243.50667,-4.69113c-0.01667,0.06996 2.15076,-0.85436 4.28954,-1.27767c1.57361,-0.31145 3.24059,-0.15772 3.45578,-0.12587c2.37442,0.35143 2.22879,4.35684 1.85911,5.09553c-0.27621,0.55193 -5.07044,-2.66532 -7.5307,-1.82168c-2.98084,1.02217 -3.59195,3.74742 -4.20211,4.06475c-1.02505,0.5331 -2.78984,-0.10909 -3.57914,-0.29716c-0.70707,-0.16847 -0.84085,-1.3826 -0.84155,-2.66313c-0.00068,-1.24719 0.13835,-2.5469 -0.99598,-3.77632c-1.33131,-1.44291 -2.6311,-1.55744 -4.04743,-2.74894c-0.55283,-0.46508 -1.37528,-0.7971 -1.72751,-2.10264c-0.31407,-1.16407 -0.1686,-3.26315 -0.46812,-4.39667c-0.22518,-0.85216 -1.17882,-2.50313 -1.17385,-2.524c0.08928,-0.37471 -0.56974,-1.53631 0.33159,-1.30048c0.55466,0.14512 0.48022,-0.09858 1.3814,0.51644c0.39701,0.27095 1.07272,1.32836 1.26436,2.48469c0.14426,0.87042 -0.45931,2.50689 0.34371,3.0024c0.08704,0.05371 0.41441,-0.97815 0.66984,-1.69534c0.29293,-0.82247 0.84982,-1.78634 1.27481,-1.34264c0.39261,0.40989 0.10965,2.23761 0.0674,3.46056c-0.04756,1.3766 0.53487,2.22574 1.65903,3.02171c0.60766,0.43026 1.76666,0.46872 2.01598,0.55314c0.49504,0.16761 0.88434,-4.8024 -0.25741,-7.58342c-1.14174,-2.78101 -5.16512,-5.18655 -5.12535,-5.5276c0.20756,-1.78003 3.82308,-0.31751 5.81635,-0.34484c1.35611,-0.01859 0.37839,5.93108 1.72345,6.10486c0.39177,0.05062 1.19011,-0.87386 1.85593,-1.31402c1.27853,-0.84518 1.19417,-2.89064 2.27474,-4.07153c1.0916,-1.19296 3.90979,-0.86227 3.8342,-0.41696c-0.23138,1.36317 -2.15513,3.74384 -2.47328,5.51739c-0.29522,1.64575 1.35536,1.82532 1.0267,2.83407c-0.41134,1.26255 -4.59498,-0.67055 -5.13787,-0.0633c-0.9815,1.09787 0.30348,5.33007 0.66682,5.33101c1.52535,0.00397 1.23256,-1.01452 2.3786,-1.80106c1.24092,-0.85164 4.30827,-1.53989 4.20593,-3.18835c-0.055,-0.88591 0.06965,-1.46308 0.23023,-2.19902c0.1656,-0.75894 0.37084,-1.67026 0.55375,-2.16042c0.27546,-0.73818 2.5396,-1.54271 2.58573,-1.52699c1.03952,0.35442 -1.60895,4.46545 -0.90648,4.5367c1.23826,0.1256 4.15546,-6.07782 5.99934,-6.38629c1.03439,-0.17306 -0.9189,3.66298 -0.26469,4.65389c1.06785,1.61745 4.39688,0.89969 4.19957,1.75234c-0.13286,0.57414 -4.27746,-0.024 -7.12596,1.18499c-2.90546,1.23317 -3.98517,5.06872 -4.08234,5.12266c-0.39543,0.21948 -2.32897,0.28414 -3.82467,1.22177c-1.23112,0.77177 -2.11302,1.83469 -2.19945,2.19743z"/><path d="M299.43692,-11.98559c-0.24704,1.03684 -4.67351,1.60417 -8.40604,3.61804c-2.28783,1.23438 -4.57124,4.08791 -4.71784,4.76222c-1.10091,5.06383 0.28345,10.32747 -3.68832,9.38113c-2.0587,-0.49052 -0.61966,-7.72876 -1.74512,-9.6072c-1.53452,-2.56115 3.37891,-1.41813 4.07092,-4.3225c1.5356,-6.44488 -2.16519,-14.00657 3.19833,-12.72863c2.9172,0.69507 -2.12128,7.12843 2.55446,8.14813c3.92103,0.85511 9.434,-2.19074 8.73361,0.7488z"/><path d="M299.43692,-11.98559c-0.24704,1.03684 -4.67351,1.60417 -8.40604,3.61804c-2.28783,1.23438 -4.57124,4.08791 -4.71784,4.76222c-1.10091,5.06383 0.28345,10.32747 -3.68832,9.38113c-2.0587,-0.49052 -0.61966,-7.72876 -1.74512,-9.6072c-1.53452,-2.56115 3.37891,-1.41813 4.07092,-4.3225c1.5356,-6.44488 -2.16519,-14.00657 3.19833,-12.72863c2.9172,0.69507 -2.12128,7.12843 2.55446,8.14813c3.92103,0.85511 9.434,-2.19074 8.73361,0.7488z"/></g><path d="M385.50676,28.58582c-0.01958,0.08218 2.52625,-1.00351 5.03843,-1.50073c1.84834,-0.36582 3.80634,-0.18525 4.0591,-0.14784c2.78896,0.41279 2.6179,5.11747 2.18368,5.98512c-0.32443,0.64828 -5.95567,-3.13064 -8.84544,-2.13971c-3.50125,1.20062 -4.21905,4.40165 -4.93573,4.77439c-1.20401,0.62617 -3.27691,-0.12814 -4.204,-0.34903c-0.83051,-0.19788 -0.98764,-1.62399 -0.98847,-3.12808c-0.00079,-1.46493 0.1625,-2.99155 -1.16987,-4.43561c-1.56374,-1.69483 -3.09044,-1.82934 -4.75405,-3.22886c-0.64935,-0.54627 -1.61539,-0.93626 -2.02911,-2.46973c-0.3689,-1.3673 -0.19803,-3.83285 -0.54985,-5.16427c-0.26449,-1.00094 -1.38463,-2.94013 -1.37879,-2.96465c0.10487,-0.44012 -0.66921,-1.80452 0.38948,-1.52752c0.65149,0.17046 0.56406,-0.11578 1.62257,0.6066c0.46632,0.31825 1.26,1.56027 1.4851,2.91848c0.16945,1.02239 -0.53949,2.94455 0.40372,3.52657c0.10224,0.06309 0.48676,-1.14892 0.78679,-1.99133c0.34408,-0.96606 0.99819,-2.0982 1.49737,-1.57704c0.46115,0.48145 0.12879,2.62826 0.07917,4.06472c-0.05586,1.61693 0.62826,2.61433 1.94868,3.54926c0.71375,0.50538 2.07509,0.55055 2.36793,0.6497c0.58147,0.19688 1.03874,-5.64082 -0.30234,-8.90736c-1.34108,-3.26653 -6.06686,-6.09205 -6.02016,-6.49264c0.2438,-2.0908 4.49052,-0.37294 6.83179,-0.40504c1.59287,-0.02184 0.44445,6.96656 2.02433,7.17068c0.46017,0.05946 1.39789,-1.02643 2.17995,-1.54343c1.50174,-0.99274 1.40266,-3.39529 2.67187,-4.78235c1.28218,-1.40123 4.59238,-1.01281 4.50359,-0.48975c-0.27178,1.60116 -2.53138,4.39745 -2.90507,6.48064c-0.34676,1.93307 1.59198,2.14399 1.20595,3.32885c-0.48316,1.48297 -5.3972,-0.78762 -6.03486,-0.07436c-1.15286,1.28954 0.35647,6.26062 0.78324,6.26172c1.79165,0.00466 1.44775,-1.19165 2.79387,-2.1155c1.45756,-1.00033 5.06043,-1.80874 4.94022,-3.74498c-0.0646,-1.04058 0.08182,-1.71851 0.27043,-2.58293c0.19451,-0.89144 0.43558,-1.96186 0.65042,-2.5376c0.32355,-0.86705 2.98298,-1.81205 3.03716,-1.79358c1.22101,0.41629 -1.88984,5.24504 -1.06473,5.32874c1.45443,0.14753 4.88094,-7.13891 7.04672,-7.50124c1.21498,-0.20327 -1.07933,4.30247 -0.3109,5.46638c1.25427,1.89984 5.16451,1.05676 4.93275,2.05827c-0.15606,0.67438 -5.02424,-0.02818 -8.37004,1.39188c-3.41271,1.44846 -4.68091,5.95364 -4.79505,6.017c-0.46447,0.2578 -2.73558,0.33375 -4.4924,1.43507c-1.44605,0.90651 -2.48191,2.15499 -2.58343,2.58107z"/><path d="M356.31831,-13.30967c0.6188,1.08833 -2.72758,5.12294 -4.31878,9.84358c-0.97533,2.89348 -0.64925,7.17379 -0.23473,7.87031c3.11287,5.23064 8.52,8.64112 4.351,11.01153c-2.16093,1.22866 -6.72606,-6.14014 -9.19791,-6.85121c-3.37026,-0.9695 1.76498,-3.92567 0.03161,-6.97427c-3.8464,-6.76492 -13.08436,-10.29235 -7.4545,-13.49338c3.06206,-1.74102 3.89128,7.82127 8.72358,4.94968c4.05233,-2.40809 6.34537,-9.44177 8.09973,-6.35625z"/><path d="M431.37365,53.62339c-0.29018,1.21785 -5.48944,1.88423 -9.8736,4.24969c-2.68726,1.44989 -5.36931,4.80159 -5.5415,5.59363c-1.29311,5.9479 0.33294,12.13048 -4.33224,11.01893c-2.41812,-0.57616 -0.72784,-9.07807 -2.0498,-11.28446c-1.80242,-3.00829 3.96881,-1.66571 4.78164,-5.07714c1.80369,-7.57005 -2.5432,-16.4519 3.75671,-14.95085c3.42649,0.81642 -2.49162,8.37294 3.00043,9.57067c4.60559,1.0044 11.08103,-2.5732 10.25836,0.87953z"/><path d="M224.41042,60.56046c0.01494,-0.08315 -2.46601,1.14358 -4.94636,1.78086c-1.82492,0.46888 -3.78997,0.39838 -4.04443,0.3752c-2.80771,-0.25577 -2.90071,-4.96264 -2.51582,-5.85327c0.28757,-0.66545 6.12183,2.79178 8.95149,1.64039c3.42843,-1.39504 3.96562,-4.63129 4.66027,-5.04362c1.16701,-0.69269 3.27894,-0.0558 4.21696,0.11277c0.84029,0.151 1.07715,1.56605 1.1623,3.06773c0.08293,1.46258 0.00548,2.99596 1.41672,4.36303c1.65631,1.60448 3.18815,1.65319 4.92761,2.95723c0.67895,0.509 1.66534,0.84421 2.16439,2.35207c0.44498,1.34447 0.41263,3.81572 0.83854,5.12531c0.3202,0.98454 1.5473,2.85788 1.54284,2.88268c-0.08002,0.44531 0.76933,1.76415 -0.30322,1.54695c-0.66003,-0.13366 -0.55669,0.14723 -1.65403,-0.51467c-0.48343,-0.2916 -1.34551,-1.48717 -1.6464,-2.83062c-0.2265,-1.01128 0.37355,-2.97017 -0.60081,-3.49838c-0.10561,-0.05725 -0.42158,1.1744 -0.6739,2.03231c-0.28937,0.98383 -0.87897,2.15087 -1.40659,1.65852c-0.48742,-0.45484 -0.27596,-2.6169 -0.30695,-4.05389c-0.03488,-1.61752 -0.77385,-2.57499 -2.14461,-3.43442c-0.74096,-0.46456 -2.1027,-0.43334 -2.40064,-0.51592c-0.59159,-0.16397 -0.72083,5.69019 0.8013,8.8764c1.52212,3.1862 6.39889,5.7423 6.37472,6.14488c-0.12618,2.10118 -4.46255,0.62414 -6.79833,0.78746c-1.58914,0.11111 -0.83436,-6.93068 -2.4232,-7.0459c-0.46278,-0.03356 -1.33814,1.10319 -2.08998,1.66323c-1.44371,1.07537 -1.21008,3.46859 -2.39953,4.92463c-1.2016,1.47091 -4.52836,1.26871 -4.46905,0.7415c0.18158,-1.61388 2.28084,-4.53246 2.53714,-6.63333c0.23783,-1.94947 -1.70969,-2.05135 -1.39069,-3.256c0.39925,-1.50772 5.43287,0.48377 6.02953,-0.26413c1.07874,-1.35215 -0.70693,-6.23078 -1.1331,-6.20795c-1.78909,0.09581 -1.37866,1.27094 -2.67087,2.26882c-1.39918,1.08048 -4.95105,2.08962 -4.72247,4.01608c0.12284,1.03532 0.01467,1.72039 -0.12518,2.59403c-0.14422,0.90094 -0.3249,1.9832 -0.50712,2.57007c-0.27443,0.88383 -2.87668,1.97645 -2.93181,1.96105c-1.24243,-0.34717 1.59278,-5.34276 0.76428,-5.38006c-1.46042,-0.06575 -4.47299,7.40135 -6.61505,7.88454c-1.20168,0.27107 0.83639,-4.35622 0.00392,-5.47521c-1.35882,-1.82652 -5.21563,-0.76553 -5.0404,-1.77846c0.118,-0.68206 5.01792,-0.25356 8.27884,-1.85898c3.32613,-1.63753 4.33973,-6.20673 4.45014,-6.27638c0.44928,-0.28344 2.71256,-0.48661 4.40487,-1.6847c1.39295,-0.98616 2.35718,-2.29076 2.43465,-2.72185z"/><path d="M207.28764,128.36055c-0.06206,-0.05732 -0.36243,2.69399 -1.15936,5.12775c-0.58635,1.79064 -1.70278,3.40926 -1.8592,3.61131c-1.72588,2.22935 -5.74384,-0.22408 -6.28762,-1.02761c-0.4063,-0.60037 5.64642,-3.65906 6.19787,-6.66383c0.66812,-3.64059 -1.77112,-5.83422 -1.74506,-6.64161c0.04379,-1.3564 1.7167,-2.79419 2.36337,-3.49428c0.57929,-0.62715 1.8996,-0.06567 3.21133,0.6703c1.27758,0.71681 2.52856,1.6069 4.44013,1.15257c2.24352,-0.53323 3.10857,-1.79839 5.14353,-2.56333c0.7943,-0.29857 1.60746,-0.94979 3.14704,-0.55942c1.37276,0.34806 3.43863,1.70462 4.77173,2.05c1.00221,0.25965 3.24151,0.23286 3.26002,0.24997c0.33235,0.30699 1.90102,0.30038 1.141,1.08772c-0.4677,0.48451 -0.17532,0.54849 -1.32357,1.11752c-0.50586,0.25068 -1.97744,0.33432 -3.27184,-0.13466c-0.97436,-0.35302 -2.30295,-1.91256 -3.27235,-1.37529c-0.10507,0.05823 0.76327,0.98711 1.35077,1.66128c0.67373,0.77314 1.3404,1.89793 0.64154,2.07789c-0.64562,0.16625 -2.35451,-1.175 -3.58257,-1.92182c-1.38235,-0.84066 -2.58699,-0.73272 -4.04883,-0.03944c-0.79019,0.37475 -1.49634,1.5395 -1.72622,1.74625c-0.45645,0.41052 4.40915,3.66841 7.9139,4.09911c3.50474,0.4307 8.28277,-2.30554 8.60915,-2.06862c1.70344,1.2366 -1.87425,4.09769 -2.99298,6.15463c-0.76113,1.39943 -6.29143,-3.02464 -7.2432,-1.74721c-0.27722,0.37208 0.21022,1.72148 0.27792,2.65652c0.12998,1.7955 2.27316,2.88586 2.8608,4.67178c0.59365,1.80416 -1.36628,4.49989 -1.77881,4.16629c-1.26285,-1.02118 -2.59405,-4.36077 -4.22723,-5.70689c-1.51549,-1.24911 -2.64894,0.33787 -3.49288,-0.57903c-1.05627,-1.14757 3.33015,-4.31974 3.02062,-5.22502c-0.55962,-1.63671 -5.63286,-2.75558 -5.84285,-2.38405c-0.88158,1.55976 0.32984,1.84586 0.47597,3.47196c0.15824,1.76071 -0.9016,5.29779 0.84538,6.14134c0.93886,0.45334 1.4582,0.91303 2.11946,1.50086c0.68193,0.6062 1.49709,1.34066 1.89381,1.80995c0.59746,0.70675 0.1188,3.4882 0.07616,3.52639c-0.96097,0.86063 -3.64724,-4.21659 -4.12434,-3.53822c-0.84099,1.19578 3.83338,7.75195 3.08851,9.81764c-0.41786,1.15883 -3.22244,-3.0483 -4.61355,-2.94842c-2.27068,0.16302 -3.45083,3.98505 -4.21048,3.29247c-0.51151,-0.46636 2.48538,-4.36654 2.88604,-7.97908c0.40867,-3.68479 -2.89799,-6.99703 -2.89732,-7.12757c0.00273,-0.53121 1.04887,-2.54846 0.94916,-4.61955c-0.08208,-1.70473 -0.66321,-3.21932 -0.98495,-3.51651z"/><path d="M253.62647,185.44471c-0.02444,0.11499 3.48019,-1.48193 6.95802,-2.25908c2.55882,-0.57178 5.28879,-0.3872 5.64169,-0.34376c3.89382,0.47937 3.8159,7.02998 3.24136,8.25177c-0.42926,0.91287 -8.39157,-4.1525 -12.37789,-2.6757c-4.82984,1.78932 -5.71948,6.26677 -6.70379,6.80967c-1.65363,0.91204 -4.56296,-0.06678 -5.86017,-0.34254c-1.16207,-0.24703 -1.42919,-2.22557 -1.48149,-4.31792c-0.05094,-2.03787 0.1243,-4.16714 -1.77831,-6.13068c-2.233,-2.30451 -4.36143,-2.43972 -6.72331,-4.33003c-0.9219,-0.73785 -2.27904,-1.24751 -2.90675,-3.36667c-0.5597,-1.88955 -0.40588,-5.32523 -0.94059,-7.16542c-0.40199,-1.38343 -2.0262,-4.04299 -2.0189,-4.0773c0.13091,-0.61583 -0.99234,-2.48754 0.48985,-2.13822c0.9121,0.21497 0.78075,-0.18027 2.27783,0.78865c0.65953,0.42686 1.8059,2.12767 2.16524,4.00945c0.2705,1.4165 -0.65034,4.1146 0.68159,4.89216c0.14437,0.08428 0.63806,-1.61486 1.02678,-2.79695c0.44579,-1.35561 1.31722,-2.95282 2.02938,-2.2448c0.6579,0.65407 0.26858,3.65184 0.24841,5.65184c-0.0227,2.25126 0.96291,3.61549 2.83158,4.87117c1.01011,0.67876 2.90544,0.69529 3.31619,0.82326c0.81559,0.25411 1.25312,-7.88243 -0.72361,-12.38096c-1.97672,-4.49853 -8.64699,-8.26841 -8.59565,-8.82727c0.26803,-2.91686 6.23419,-0.67157 9.49009,-0.79587c2.21514,-0.08456 0.85527,9.67623 3.06002,9.90645c0.64218,0.06706 1.90973,-1.47545 2.98008,-2.22126c2.05533,-1.4321 1.83577,-4.77097 3.55422,-6.74372c1.73601,-1.99289 6.35411,-1.56517 6.24839,-0.83452c-0.32361,2.23666 -3.37187,6.20351 -3.82085,9.1142c-0.41663,2.70093 2.28758,2.92839 1.79085,4.58982c-0.62169,2.07942 -7.53496,-0.91207 -8.39776,0.10186c-1.5599,1.83313 0.70886,8.69716 1.30259,8.68418c2.49256,-0.05448 1.97346,-1.70698 3.81466,-3.03796c1.99362,-1.44116 6.97816,-2.68832 6.74507,-5.37778c-0.12526,-1.44537 0.05535,-2.39345 0.28833,-3.60239c0.24026,-1.24672 0.53922,-2.744 0.8185,-3.55223c0.4206,-1.21719 4.08804,-2.62226 4.16404,-2.59841c1.71274,0.53758 -2.45057,7.36079 -1.29989,7.44916c2.02832,0.15575 6.54713,-10.09714 9.54769,-10.67486c1.68328,-0.32411 -1.35511,6.02199 -0.24654,7.61499c1.80948,2.60024 7.22041,1.2944 6.93208,2.69551c-0.19416,0.94345 -6.9903,0.13171 -11.59642,2.221c-4.69824,2.13108 -6.3092,8.44148 -6.46582,8.5335c-0.63737,0.37443 -3.79418,0.55735 -6.20068,2.14918c-1.98081,1.31026 -3.37933,3.08229 -3.50606,3.67846z"/></g></g></svg>