<svg version="1.1" xmlns="http://www.w3.org/2000/svg" xmlns:xlink="http://www.w3.org/1999/xlink" width="572.39262" height="438.96452" viewBox="0,0,572.39262,438.96452"><defs><linearGradient x1="263.64679" y1="143.83476" x2="136.65494" y2="143.83476" gradientUnits="userSpaceOnUse" id="color-1"><stop offset="0" stop-color="#1c2833" stop-opacity="0.39806"/><stop offset="1" stop-color="#1c2833" stop-opacity="0"/></linearGradient><linearGradient x1="534.25947" y1="143.83475" x2="598.815" y2="143.83475" gradientUnits="userSpaceOnUse" id="color-2"><stop offset="0" stop-color="#1f2933" stop-opacity="0.39995"/><stop offset="1" stop-color="#1f2933" stop-opacity="0"/></linearGradient></defs><g transform="translate(-26.42239,36.91101)"><g data-paper-data="{&quot;isPaintingLayer&quot;:true}" fill-rule="nonzero" stroke="none" stroke-width="0" stroke-linecap="butt" stroke-linejoin="miter" stroke-miterlimit="10" stroke-dasharray="" stroke-dashoffset="0" style="mix-blend-mode: normal"><path d="M136.65494,324.5805v-361.4915c0,0 139.56272,0 150.74476,0c1.39998,0 70.74502,0 70.74502,0v361.49151c0,0 -69.65258,0 -71.43227,0c-12.48286,0 -150.0575,0 -150.0575,0z" data-paper-data="{&quot;index&quot;:null}" fill="url(#color-1)"/><path d="M358.14213,287.54643v-322.61986h128.07771v322.61986z" fill-opacity="0.39995" fill="#1b2733"/><path d="M254.39974,212.79413c0,-0.44122 -0.72356,-1.90648 -1.92892,-3.13241c-1.4644,-1.48939 -3.67216,-2.09407 -4.06711,-2.45514c-0.09705,-0.08873 -0.28791,-4.79953 -3.29389,-7.0157c-2.94704,-2.17272 -7.88148,-2.62089 -7.87695,-3.31816c0.00673,-1.03551 3.64158,0.7036 5.31424,-0.86523c1.02474,-0.96112 -0.17148,-5.91204 0.97164,-5.42918c2.03769,0.86072 3.69413,8.80083 5.1538,8.99585c0.82808,0.11063 -1.09287,-5.34746 0.20081,-5.47031c0.0574,-0.00545 2.44278,1.54149 2.55739,2.46667c0.0761,0.61433 0.06241,1.71954 0.04488,2.63849c-0.017,0.8911 -0.03181,1.58961 -0.33807,2.5942c-0.56987,1.86929 2.77189,3.50266 3.96662,4.82321c1.10339,1.21959 0.48708,2.31157 2.24383,2.72532c0.41846,0.09856 3.05812,-4.42027 2.2295,-5.95308c-0.45832,-0.84782 -5.8038,0.22983 -5.93101,-1.33616c-0.10164,-1.2512 1.84741,-1.00522 1.95895,-2.98043c0.1202,-2.1286 -1.44114,-5.3963 -1.33362,-7.02876c0.03512,-0.53328 3.36952,-0.14103 4.29879,1.53142c0.91987,1.65553 0.26183,3.98671 1.50162,5.31013c0.64564,0.68921 1.31099,1.97222 1.7758,2.0214c1.59581,0.16885 2.10211,-6.94731 3.65789,-6.55401c2.28675,0.5781 6.84927,-0.11373 6.60001,1.992c-0.04776,0.40345 -5.33834,2.06883 -7.41515,4.95664c-2.07682,2.88781 -2.99173,8.71503 -2.37597,8.65787c0.31011,-0.02879 1.65466,0.24479 2.47207,-0.08379c1.51219,-0.60786 2.41544,-1.42549 2.73822,-3.02299c0.28676,-1.4192 0.46231,-3.60049 1.02661,-3.9646c0.61084,-0.39414 0.98748,0.86799 1.09909,1.89498c0.09732,0.89554 0.19114,2.17298 0.30605,2.13503c1.06015,-0.3501 0.81424,-2.39919 1.21899,-3.36148c0.53769,-1.27837 1.60542,-2.31014 2.13668,-2.51312c1.20591,-0.46074 1.0534,-0.20066 1.73161,-0.21558c1.1021,-0.02425 0.02501,1.13201 0.02501,1.58778c0,0.02539 -1.5504,1.66411 -2.04328,2.58319c-0.65561,1.22253 -1.06383,3.67845 -1.74456,4.93216c-0.76345,1.40607 -1.80114,1.56268 -2.56499,1.94637c-1.95695,0.98299 -3.4844,0.75835 -5.41244,2.05403c-1.64277,1.10397 -1.83919,2.63806 -2.182,4.07338c-0.35198,1.47369 -0.83893,2.83446 -1.69896,2.83446c-0.96005,0 -3.16743,0.25518 -4.20106,-0.63953c-0.61526,-0.53258 -0.57126,-3.83692 -3.72187,-5.8309c-2.60037,-1.64573 -9.00081,0.74251 -9.16736,0.0315c-0.22292,-0.95161 0.70791,-5.60174 3.53723,-5.35507c0.25642,0.02236 2.21726,0.30257 3.94306,1.0926c2.34563,1.07377 4.58684,2.73206 4.58684,2.64696z" data-paper-data="{&quot;index&quot;:null}" fill="#344e5f"/><path d="M319.36825,219.74421c-1.3025,0.70029 -2.42375,1.76625 -2.62905,2.15678c-0.0396,0.07533 2.09316,-0.67694 4.01735,-0.87849c1.41572,-0.1483 2.73697,0.22971 2.9031,0.29179c1.83308,0.68498 0.23458,5.09819 -0.34361,5.86933c-0.43201,0.57616 -3.2078,-3.58123 -5.55284,-2.95474c-2.84126,0.75905 -4.35213,3.69791 -4.97361,3.97288c-1.04407,0.46194 -2.26591,-0.46868 -2.84896,-0.77519c-0.52231,-0.27458 -0.18485,-1.63452 0.28713,-3.05132c0.45969,-1.37991 1.05426,-2.80052 0.57028,-4.30217c-0.56802,-1.76243 -1.60021,-2.05125 -2.33129,-3.54614c-0.28536,-0.58349 -0.84268,-1.05341 -0.65207,-2.54173c0.16997,-1.32705 1.06485,-3.63121 1.23555,-4.92264c0.12834,-0.97088 -0.05072,-2.91638 -0.03891,-2.93885c0.21208,-0.40341 0.09597,-1.77074 0.75402,-1.39742c0.40494,0.22973 0.43334,-0.04917 0.95132,0.74366c0.22819,0.34928 0.39654,1.60344 0.12824,2.90664c-0.20197,0.98099 -1.3048,2.71621 -0.82386,3.36457c0.05213,0.07028 0.70352,-1.03047 1.17934,-1.79208c0.54567,-0.8734 1.36171,-1.87032 1.54928,-1.32643c0.17328,0.50246 -0.73511,2.48924 -1.22134,3.83699c-0.54733,1.51706 -0.37923,2.52917 0.2563,3.55001c0.34353,0.55182 1.2874,0.73893 1.46234,0.86342c0.34736,0.24719 2.50325,-5.20283 2.58573,-8.42201c0.08247,-3.21918 -2.35565,-6.3824 -2.19692,-6.75476c0.82846,-1.94345 3.27744,0.12559 4.93522,0.34399c1.12786,0.14859 -1.87597,6.60904 -0.82823,6.96908c0.30518,0.10486 1.30626,-0.81835 2.01908,-1.22226c1.36877,-0.77559 2.05388,-3.04911 3.38289,-4.2208c1.3426,-1.18366 3.55016,-0.46629 3.32334,0.01695c-0.69432,1.47929 -3.16308,3.87318 -4.08057,5.79566c-0.85137,1.78395 0.44678,2.18849 -0.19715,3.26353c-0.80594,1.3455 -3.55089,-1.31502 -4.22375,-0.7109c-1.21649,1.0922 -1.71609,5.93476 -1.41609,5.98113c1.25943,0.19465 1.39326,-0.96867 2.63087,-1.6959c1.34006,-0.78743 4.12962,-1.16628 4.65334,-3.0028c0.28146,-0.98699 0.59751,-1.61 1.00183,-2.40417c0.41696,-0.819 0.92292,-1.80164 1.255,-2.32111c0.50011,-0.78232 2.66862,-1.39 2.70095,-1.36685c0.7285,0.52177 -2.9779,4.73965 -2.42351,4.90611c0.97723,0.29341 5.67793,-6.20586 7.31597,-6.31715c0.91892,-0.06243 -2.11134,3.93791 -1.93623,5.11581c0.28583,1.92266 3.30258,1.54381 2.82482,2.46252c-0.32171,0.61863 -3.52703,-0.56009 -6.32783,0.42218c-2.85681,1.0019 -5.16476,5.11069 -5.26499,5.15824c-0.40787,0.19351 -2.03006,0.02385 -3.61246,0.87464z" data-paper-data="{&quot;index&quot;:null}" fill="#344e5f"/><path d="M303.50924,214.07222c0.31933,1.44392 1.03983,2.81298 1.35974,3.11683c0.06171,0.05861 -0.08164,-2.19839 0.24817,-4.10479c0.24266,-1.40263 0.96602,-2.5711 1.07098,-2.71406c1.15807,-1.57741 4.96954,1.16195 5.55419,1.92822c0.43682,0.57251 -4.31914,2.1119 -4.35462,4.53892c-0.04298,2.9406 2.37367,5.19435 2.4691,5.86721c0.16031,1.13038 -1.06775,2.05278 -1.52139,2.53039c-0.40638,0.42785 -1.62312,-0.26704 -2.85796,-1.10684c-1.20268,-0.81793 -2.40782,-1.77672 -3.9845,-1.71976c-1.8505,0.06686 -2.40937,0.98145 -4.04681,1.27803c-0.63913,0.11577 -1.24302,0.52415 -2.62326,-0.06438c-1.23068,-0.52476 -3.20426,-2.01303 -4.40047,-2.5288c-0.89929,-0.38776 -2.82007,-0.74501 -2.83848,-0.76249c-0.33046,-0.31388 -1.67777,-0.57433 -1.13942,-1.10592c0.33129,-0.32713 0.07064,-0.43038 0.97453,-0.71299c0.3982,-0.1245 1.65082,0.05487 2.83179,0.66777c0.88897,0.46135 2.25851,1.99486 3.01329,1.70856c0.08182,-0.03103 -0.80007,-0.95745 -1.40341,-1.62261c-0.69189,-0.7628 -1.42905,-1.81938 -0.85464,-1.85182c0.53065,-0.02997 2.19517,1.38491 3.35968,2.21963c1.3108,0.93959 2.33045,1.05332 3.48573,0.71966c0.62448,-0.18036 1.06144,-1.03766 1.22885,-1.17211c0.3324,-0.26697 -4.32501,-3.82492 -7.4002,-4.78052c-3.07519,-0.9556 -6.78261,0.52946 -7.0977,0.27537c-1.64457,-1.32617 1.01293,-3.11951 1.67432,-4.65525c0.44997,-1.04483 5.84889,3.60407 6.48051,2.69389c0.18397,-0.26511 -0.4319,-1.47969 -0.62654,-2.27553c-0.37374,-1.5282 -2.37493,-2.80627 -3.14063,-4.40403c-0.77352,-1.61408 0.51764,-4.79302 0.9209,-4.44324c1.23445,1.07075 2.86596,5.3479 4.46613,6.75404c1.48486,1.30481 2.22748,0.16578 3.08665,1.07802c1.07533,1.14174 -2.23189,3.05888 -1.83373,3.87077c0.71985,1.46784 5.24358,3.2667 5.36985,2.99064c0.53011,-1.15889 -0.55287,-1.60432 -0.91577,-2.99315c-0.39295,-1.5038 0.0018,-4.29114 -1.62283,-5.29498c-0.87311,-0.53949 -1.38657,-1.01318 -2.0407,-1.6184c-0.67458,-0.62414 -1.48239,-1.37846 -1.89186,-1.8394c-0.61666,-0.69417 -0.61114,-2.94621 -0.58006,-2.97101c0.70038,-0.55897 3.75014,4.15556 4.06121,3.66741c0.54832,-0.86047 -4.42605,-7.15274 -4.08728,-8.75922c0.19005,-0.90121 3.21454,3.10349 4.39562,3.25561c1.92787,0.2483 2.38445,-2.75767 3.13844,-2.04788c0.5077,0.47794 -1.49897,3.2414 -1.31615,6.20382c0.18647,3.02166 3.51191,6.36085 3.53039,6.47024c0.07518,0.44514 -0.52962,1.95991 -0.14167,3.71414z" data-paper-data="{&quot;index&quot;:null}" fill="#344e5f"/><path d="M275.38655,218.44575c1.42729,-0.38694 2.76091,-1.1711 3.04937,-1.50495c0.05564,-0.0644 -2.19211,0.18503 -4.11192,-0.05467c-1.41251,-0.17636 -2.61373,-0.84392 -2.76147,-0.94203c-1.63018,-1.08253 0.92674,-5.01873 1.66463,-5.6388c0.55132,-0.46329 2.31288,4.21494 4.73888,4.13613c2.93936,-0.0955 5.07686,-2.61557 5.74448,-2.74256c1.12159,-0.21335 2.10078,0.96993 2.59921,1.40059c0.44651,0.38579 -0.19033,1.63389 -0.97107,2.90689c-0.76041,1.23985 -1.66141,2.48878 -1.53029,4.06104c0.15389,1.8453 1.09377,2.3605 1.46711,3.98216c0.14572,0.63297 0.58207,1.21697 0.05917,2.62338c-0.46625,1.25402 -1.85996,3.29547 -2.31885,4.51463c-0.345,0.91654 -0.61143,2.85201 -0.62803,2.87122c-0.29798,0.34487 -0.49472,1.70294 -1.05106,1.19022c-0.34235,-0.31553 -0.43322,-0.05031 -0.75807,-0.93989c-0.14311,-0.3919 -0.02289,-1.65158 0.53373,-2.86009c0.41899,-0.9097 1.88634,-2.3499 1.56482,-3.09037c-0.03485,-0.08026 -0.91873,0.84426 -1.55475,1.47824c-0.72938,0.72703 -1.75009,1.51312 -1.80954,0.94087c-0.05492,-0.52865 1.28003,-2.25793 2.05901,-3.46044c0.87685,-1.35358 0.94246,-2.37745 0.55478,-3.51574c-0.20955,-0.61531 -1.08648,-1.01143 -1.22866,-1.17232c-0.28232,-0.31947 -3.61708,4.50027 -4.42686,7.61703c-0.80978,3.11676 0.84816,6.75016 0.60918,7.07687c-1.24729,1.70517 -3.16374,-0.86497 -4.72891,-1.45333c-1.06485,-0.40028 3.32474,-6.01205 2.38584,-6.60013c-0.27347,-0.17128 -1.45771,0.50108 -2.24351,0.73296c-1.50891,0.44526 -2.69136,2.50439 -4.2513,3.34446c-1.57589,0.84865 -3.56347,-0.35029 -3.23306,-0.76956c1.01146,-1.28349 3.95845,-3.0557 5.2877,-4.72028c1.23346,-1.54463 0.06074,-2.2328 0.93152,-3.13397c1.08985,-1.12789 3.16055,2.08542 3.9528,1.64948c1.43234,-0.78815 3.01624,-5.39154 2.73455,-5.50468c-1.18256,-0.47497 -1.57651,0.62777 -2.94672,1.05565c-1.48363,0.4633 -4.28647,0.2002 -5.21272,1.87028c-0.49778,0.89754 -0.94678,1.43273 -1.52054,2.11462c-0.59169,0.70322 -1.30716,1.54565 -1.74831,1.97636c-0.66438,0.64865 -2.91418,0.74914 -2.94042,0.71927c-0.59133,-0.67328 3.97441,-3.94159 3.47216,-4.22934c-0.88532,-0.50721 -6.93645,4.75786 -8.5571,4.49508c-0.90916,-0.14742 2.94873,-3.35707 3.04508,-4.54401c0.15728,-1.93741 -2.86686,-2.25199 -2.19335,-3.03855c0.45351,-0.52964 3.30837,1.34472 6.2589,1.02265c3.00953,-0.32851 6.18848,-3.80745 6.29688,-3.83106c0.44111,-0.09606 1.98266,0.43676 3.71669,-0.03333z" data-paper-data="{&quot;index&quot;:null}" fill="#344e5f"/><path d="M207.6838,206.92393c1.48049,-0.25648 1.43838,-4.93806 3.03284,-4.93806c4.10695,0 28.6882,11.11086 31.8022,12.64755c4.88045,2.40839 36.23598,3.32824 36.23598,7.81092c0,7.34287 -57.49456,6.13244 -68.03818,6.13244c-10.54362,0 -19.09091,-5.95257 -19.09091,-13.29545c0,-6.23245 7.74855,-6.91785 16.05807,-8.35739z" data-paper-data="{&quot;index&quot;:null}" fill="#344e5f"/><path d="M130.27736,288.29314c-1.3025,0.70029 -2.42375,1.76625 -2.62905,2.15678c-0.0396,0.07533 2.09317,-0.67695 4.01736,-0.8785c1.41572,-0.1483 2.73697,0.22971 2.9031,0.29179c1.83307,0.68498 0.23458,5.09819 -0.34361,5.86933c-0.43201,0.57617 -3.2078,-3.58123 -5.55284,-2.95474c-2.84127,0.75906 -4.35213,3.69792 -4.97361,3.97289c-1.04408,0.46194 -2.26592,-0.46868 -2.84897,-0.77519c-0.52231,-0.27458 -0.18485,-1.63452 0.28713,-3.05132c0.45968,-1.37991 1.05425,-2.80052 0.57027,-4.30217c-0.56801,-1.76243 -1.60019,-2.05126 -2.33128,-3.54614c-0.28536,-0.5835 -0.84268,-1.05342 -0.65207,-2.54174c0.16997,-1.32705 1.06485,-3.63121 1.23555,-4.92264c0.12833,-0.97089 -0.05073,-2.91638 -0.03891,-2.93885c0.21208,-0.40341 0.09597,-1.77075 0.75402,-1.39742c0.40494,0.22974 0.43335,-0.04917 0.95132,0.74366c0.2282,0.34928 0.39654,1.60343 0.12824,2.90664c-0.20197,0.98099 -1.3048,2.71621 -0.82386,3.36457c0.05213,0.07029 0.70353,-1.03048 1.17935,-1.79208c0.54566,-0.8734 1.3617,-1.87032 1.54927,-1.32643c0.17328,0.50246 -0.7351,2.48924 -1.22134,3.83699c-0.54733,1.51706 -0.37922,2.52917 0.2563,3.55001c0.34353,0.55182 1.28741,0.73893 1.46235,0.86342c0.34736,0.24719 2.50326,-5.20283 2.58573,-8.42201c0.08248,-3.21918 -2.35564,-6.3824 -2.19691,-6.75476c0.82846,-1.94346 3.27744,0.12558 4.93522,0.34398c1.12786,0.14858 -1.87596,6.60904 -0.82823,6.96907c0.30517,0.10487 1.30626,-0.81835 2.01907,-1.22226c1.36877,-0.77559 2.05387,-3.0491 3.38289,-4.22079c1.34259,-1.18366 3.55015,-0.46629 3.32333,0.01695c-0.69432,1.47929 -3.16309,3.87318 -4.08058,5.79566c-0.85137,1.78396 0.44678,2.1885 -0.19715,3.26354c-0.80594,1.34551 -3.5509,-1.31501 -4.22376,-0.7109c-1.21648,1.0922 -1.71609,5.93477 -1.41609,5.98113c1.25943,0.19466 1.39326,-0.96867 2.63087,-1.6959c1.34006,-0.78744 4.12961,-1.16628 4.65334,-3.00281c0.28146,-0.98699 0.59751,-1.60999 1.00183,-2.40416c0.41696,-0.819 0.92293,-1.80164 1.255,-2.32111c0.50011,-0.78232 2.66863,-1.39 2.70095,-1.36685c0.72851,0.52178 -2.97789,4.73966 -2.4235,4.90611c0.97723,0.29341 5.67793,-6.20586 7.31597,-6.31715c0.91892,-0.06243 -2.11134,3.93791 -1.93623,5.11581c0.28582,1.92266 3.30258,1.54381 2.82482,2.46252c-0.32171,0.61863 -3.52702,-0.56009 -6.32783,0.42217c-2.85681,1.00191 -5.16476,5.1107 -5.26499,5.15825c-0.40787,0.1935 -2.03006,0.02386 -3.61246,0.87464z" data-paper-data="{&quot;index&quot;:null}" fill="#344e5f"/><path d="M89.22605,309.92886c0.31933,1.44393 1.03983,2.81299 1.35974,3.11684c0.06171,0.05861 -0.08164,-2.19839 0.24817,-4.10479c0.24265,-1.40264 0.96602,-2.5711 1.07098,-2.71406c1.15806,-1.57741 4.96953,1.16196 5.55418,1.92822c0.43683,0.57252 -4.31914,2.1119 -4.35462,4.53892c-0.04297,2.94059 2.37369,5.19435 2.46911,5.86721c0.16031,1.13038 -1.06775,2.05278 -1.52139,2.53039c-0.40639,0.42785 -1.62313,-0.26703 -2.85796,-1.10683c-1.20268,-0.81794 -2.40783,-1.77673 -3.98451,-1.71977c-1.85049,0.06685 -2.40936,0.98144 -4.0468,1.27803c-0.63913,0.11576 -1.24302,0.52414 -2.62326,-0.06439c-1.23068,-0.52476 -3.20427,-2.01303 -4.40047,-2.5288c-0.89929,-0.38776 -2.82006,-0.74501 -2.83847,-0.76249c-0.33046,-0.31388 -1.67777,-0.57434 -1.13942,-1.10592c0.33129,-0.32713 0.07064,-0.43038 0.97453,-0.71299c0.3982,-0.12451 1.65082,0.05487 2.83179,0.66777c0.88897,0.46136 2.2585,1.99487 3.01328,1.70857c0.08181,-0.03103 -0.80007,-0.95745 -1.40341,-1.62261c-0.6919,-0.7628 -1.42906,-1.81937 -0.85465,-1.85182c0.53065,-0.02997 2.19517,1.38491 3.35968,2.21963c1.3108,0.93959 2.33045,1.05332 3.48573,0.71966c0.62448,-0.18036 1.06144,-1.03766 1.22885,-1.17211c0.3324,-0.26697 -4.32502,-3.82492 -7.4002,-4.78052c-3.07519,-0.9556 -6.78261,0.52946 -7.0977,0.27537c-1.64457,-1.32618 1.01293,-3.11951 1.67432,-4.65525c0.44997,-1.04483 5.84888,3.60406 6.4805,2.69389c0.18397,-0.26511 -0.43189,-1.47969 -0.62653,-2.27553c-0.37374,-1.5282 -2.37492,-2.80627 -3.14063,-4.40403c-0.77353,-1.61408 0.51764,-3.54302 0.92089,-3.19324c1.23445,1.07075 2.86596,4.0979 4.46613,5.50404c1.48486,1.30481 2.22748,0.16578 3.08665,1.07802c1.07533,1.14174 -2.23189,3.05888 -1.83373,3.87077c0.71984,1.46785 5.24358,3.2667 5.36985,2.99064c0.53011,-1.1589 -0.55287,-1.60432 -0.91577,-2.99315c-0.39295,-1.5038 0.00181,-4.29114 -1.62282,-5.29498c-0.87312,-0.53949 -1.38657,-1.01318 -2.0407,-1.6184c-0.67459,-0.62414 -1.4824,-1.37846 -1.89187,-1.8394c-0.61666,-0.69417 -0.61113,-2.94621 -0.58006,-2.97102c0.70037,-0.55897 3.75013,4.15556 4.0612,3.66741c0.54832,-0.86046 -4.42605,-7.15273 -4.08728,-8.75921c0.19004,-0.90122 3.21453,3.1035 4.39562,3.25561c1.92786,0.24829 2.38445,-2.75768 3.13843,-2.04789c0.5077,0.47794 -1.49897,3.2414 -1.31615,6.20382c0.18647,3.02166 3.51191,6.36085 3.53039,6.47024c0.07519,0.44515 -0.52961,1.95991 -0.14166,3.71414z" data-paper-data="{&quot;index&quot;:null}" fill="#344e5f"/><path d="M172.55636,252.17106c-0.05661,-0.35159 -0.8212,-1.42637 -1.93901,-2.24862c-1.35803,-0.99896 -3.19491,-1.19753 -3.55596,-1.43459c-0.08872,-0.05825 -0.84524,-3.78765 -3.52496,-5.16796c-2.62718,-1.35325 -6.61679,-1.07726 -6.70265,-1.63347c-0.1275,-0.82603 2.99214,0.09343 4.12374,-1.37133c0.69326,-0.89737 -0.89521,-4.68912 0.07766,-4.45102c1.7342,0.42443 4.07295,6.53913 5.26113,6.50724c0.67407,-0.01809 -1.55699,-4.12099 -0.54186,-4.38488c0.04504,-0.01171 2.14437,0.91494 2.3544,1.63748c0.13946,0.47978 0.27036,1.36224 0.3743,2.09677c0.10078,0.71226 0.17862,1.27079 0.06346,2.11061c-0.21427,1.56269 2.65824,2.4355 3.77972,3.33451c1.03573,0.83027 0.68473,1.77952 2.13772,1.88382c0.3461,0.02484 1.86976,-3.91476 1.01279,-5.02989c-0.47401,-0.61679 -4.59539,0.92781 -4.89768,-0.30375c-0.24153,-0.984 1.34318,-1.03806 1.17862,-2.62636c-0.17733,-1.71164 -1.84078,-4.11524 -1.96456,-5.42989c-0.04043,-0.42946 2.66696,-0.54471 3.62206,0.66878c0.94544,1.20121 0.72017,3.14328 1.87792,4.0388c0.60292,0.46636 1.29774,1.40339 1.67444,1.38294c1.29331,-0.0702 0.78372,-5.8058 2.07393,-5.69201c1.89642,0.16726 5.44338,-0.96944 5.51493,0.74053c0.01371,0.32763 -3.9885,2.33354 -5.27292,4.90121c-1.28442,2.56767 -1.26581,7.32859 -0.78247,7.20404c0.24342,-0.06274 1.34995,-0.01723 1.95916,-0.38395c1.12702,-0.67841 1.74188,-1.44585 1.79412,-2.76026c0.04641,-1.16771 -0.09358,-2.92843 0.30938,-3.29098c0.43619,-0.39246 0.89826,0.56497 1.11897,1.36903c0.19246,0.70114 0.43112,1.70705 0.51782,1.66206c0.79987,-0.41501 0.34101,-2.01631 0.54007,-2.83506c0.26444,-1.08769 0.9829,-2.04687 1.3802,-2.27678c0.90184,-0.52188 0.81368,-0.29506 1.35221,-0.39397c0.87512,-0.16073 0.16518,0.89887 0.22366,1.26205c0.00326,0.02023 -1.02195,1.52499 -1.29679,2.32062c-0.36558,1.05831 -0.37577,3.06773 -0.75736,4.15412c-0.42797,1.21841 -1.23478,1.47636 -1.79423,1.88011c-1.43331,1.03441 -2.67931,1.05138 -4.04946,2.33125c-1.16741,1.09049 -1.1271,2.33817 -1.21611,3.52591c-0.09139,1.2195 -0.30484,2.36633 -0.99017,2.47668c-0.76503,0.12318 -2.49128,0.60975 -3.42974,0.0294c-0.55862,-0.34545 -0.94752,-2.98422 -3.71399,-4.16891c-2.28331,-0.97778 -7.07719,1.74655 -7.30114,1.20134c-0.29974,-0.72971 -0.15462,-4.55468 2.13162,-4.72114c0.2072,-0.01508 1.80569,-0.04338 3.28229,0.36474c2.00693,0.55469 4.00565,1.58857 3.99473,1.52075z" data-paper-data="{&quot;index&quot;:null}" fill="#344e5f"/><path d="M186.52864,213.48032c-0.05661,-0.35159 -0.8212,-1.42637 -1.93901,-2.24862c-1.35803,-0.99896 -3.19491,-1.19753 -3.55596,-1.43459c-0.08872,-0.05825 -0.84524,-3.78765 -3.52496,-5.16796c-2.62718,-1.35325 -6.61679,-1.07726 -6.70265,-1.63347c-0.1275,-0.82603 2.99214,0.09343 4.12374,-1.37133c0.69326,-0.89737 -0.89521,-4.68912 0.07766,-4.45102c1.7342,0.42443 4.07295,6.53913 5.26113,6.50724c0.67407,-0.01809 -1.55699,-4.12099 -0.54186,-4.38488c0.04504,-0.01171 2.14437,0.91494 2.3544,1.63748c0.13946,0.47978 0.27036,1.36224 0.3743,2.09677c0.10078,0.71226 0.17862,1.27079 0.06346,2.11061c-0.21427,1.56269 2.65824,2.4355 3.77972,3.33451c1.03573,0.83027 0.68473,1.77952 2.13772,1.88382c0.3461,0.02484 1.86976,-3.91476 1.01279,-5.02989c-0.47401,-0.61679 -4.59539,0.92781 -4.89768,-0.30375c-0.24153,-0.984 1.34318,-1.03806 1.17862,-2.62636c-0.17733,-1.71164 -1.84078,-4.11524 -1.96456,-5.42989c-0.04043,-0.42946 2.66696,-0.54471 3.62206,0.66878c0.94544,1.20121 0.72017,3.14328 1.87792,4.0388c0.60292,0.46636 1.29774,1.40339 1.67444,1.38294c1.29331,-0.0702 0.78372,-5.8058 2.07393,-5.69201c1.89642,0.16726 5.44338,-0.96944 5.51493,0.74053c0.01371,0.32763 -3.9885,2.33354 -5.27292,4.90121c-1.28442,2.56767 -1.26581,7.32859 -0.78247,7.20404c0.24342,-0.06274 1.34995,-0.01723 1.95916,-0.38395c1.12702,-0.67841 1.74188,-1.44585 1.79412,-2.76026c0.04641,-1.16771 -0.09358,-2.92843 0.30938,-3.29098c0.43619,-0.39246 0.89826,0.56497 1.11897,1.36903c0.19246,0.70114 0.43112,1.70705 0.51782,1.66206c0.79987,-0.41501 0.34101,-2.01631 0.54007,-2.83506c0.26444,-1.08769 0.9829,-2.04687 1.3802,-2.27678c0.90184,-0.52188 0.81368,-0.29506 1.35221,-0.39397c0.87512,-0.16073 0.16518,0.89887 0.22366,1.26205c0.00326,0.02023 -1.02195,1.52499 -1.29679,2.32062c-0.36558,1.05831 -0.37577,3.06773 -0.75736,4.15412c-0.42797,1.21841 -1.23478,1.47636 -1.79423,1.88011c-1.43331,1.03441 -2.67931,1.05138 -4.04946,2.33125c-1.16741,1.09049 -1.1271,2.33817 -1.21611,3.52591c-0.09139,1.2195 -0.30484,2.36633 -0.99017,2.47668c-0.76503,0.12318 -2.49128,0.60975 -3.42974,0.0294c-0.55862,-0.34545 -0.94752,-2.98422 -3.71399,-4.16891c-2.28331,-0.97778 -7.07719,1.74655 -7.30114,1.20134c-0.29974,-0.72971 -0.15462,-4.55468 2.13162,-4.72114c0.2072,-0.01508 1.80569,-0.04338 3.28229,0.36474c2.00693,0.55469 4.00565,1.58857 3.99473,1.52075z" data-paper-data="{&quot;index&quot;:null}" fill="#344e5f"/><path d="M147.64251,268.65504c0,-1.10353 2.91991,-9.3747 6.97373,-9.89001c1.99358,-0.25341 4.11559,6.90925 6.58397,6.90925c7.4877,0 13.55769,1.33454 13.55769,2.98077c0,1.64623 -6.06998,2.98077 -13.55769,2.98077c-3.49981,0 -8.99759,5.09306 -11.40288,4.61439c-2.74073,-0.54542 -2.15481,-6.71839 -2.15481,-7.59516z" data-paper-data="{&quot;index&quot;:null}" fill="#344e5f"/><path d="" data-paper-data="{&quot;index&quot;:null}" fill="#344e5f"/><path d="" data-paper-data="{&quot;index&quot;:null}" fill="#344e5f"/><path d="" data-paper-data="{&quot;index&quot;:null}" fill="#344e5f"/><path d="M364.30802,201.35352c-0.43943,0.03965 -1.83374,0.89195 -2.9464,2.2026c-1.35178,1.59232 -1.75562,3.84548 -2.07974,4.27128c-0.07965,0.10463 -4.75424,0.71804 -6.69132,3.911c-1.89911,3.13036 -1.90206,8.08511 -2.59691,8.14326c-1.03192,0.08634 0.37352,-3.69008 -1.33927,-5.21499c-1.04932,-0.93422 -5.87271,0.70206 -5.49453,-0.47983c0.67412,-2.10679 8.43326,-4.47005 8.49632,-5.94133c0.03578,-0.83468 -5.22761,1.56898 -5.46622,0.29157c-0.01058,-0.05668 1.31574,-2.57143 2.22688,-2.76871c0.605,-0.131 1.70697,-0.21668 2.62377,-0.2818c0.88902,-0.06314 1.58604,-0.11117 2.61409,0.10358c1.91293,0.39959 3.2394,-3.07543 4.44725,-4.38399c1.1155,-1.20852 2.25845,-0.69284 2.51266,-2.47966c0.06056,-0.42562 -4.67719,-2.64852 -6.12934,-1.68552c-0.80322,0.53265 0.75043,5.75968 -0.79779,6.02709c-1.23701,0.21366 -1.16716,-1.74961 -3.14441,-1.6832c-2.13079,0.07157 -5.24496,1.92023 -6.88048,1.95984c-0.53427,0.01293 -0.44325,-3.34322 1.13893,-4.41902c1.56617,-1.06492 3.94705,-0.61903 5.15371,-1.97272c0.6284,-0.70496 1.84643,-1.48292 1.85364,-1.95026c0.02478,-1.60453 -7.10809,-1.46932 -6.85619,-3.05414c0.37026,-2.32944 -0.72876,-6.81134 1.39085,-6.75231c0.4061,0.01131 2.54017,5.13083 5.60292,6.93974c3.06274,1.8089 8.94861,2.19647 8.83635,1.58834c-0.05654,-0.30626 0.09512,-1.66995 -0.30559,-2.45453c-0.74129,-1.45144 -1.63679,-2.27757 -3.25683,-2.45549c-1.43923,-0.15806 -3.62746,-0.13688 -4.04081,-0.66618c-0.44744,-0.57295 0.77574,-1.06149 1.78855,-1.26493c0.88317,-0.17741 2.147,-0.38563 2.09888,-0.49667c-0.44395,-1.0244 -2.46265,-0.59535 -3.45742,-0.91199c-1.32152,-0.42063 -2.44506,-1.39133 -2.69496,-1.9022c-0.56724,-1.15962 -0.29451,-1.03111 -0.37031,-1.70523c-0.12319,-1.09546 1.12519,-0.12663 1.57911,-0.16759c0.02529,-0.00229 1.79669,1.3946 2.75635,1.80289c1.2765,0.5431 3.75916,0.72897 5.06897,1.29429c1.46898,0.63401 1.71822,1.65344 2.16899,2.37971c1.15488,1.86071 1.0684,3.40216 2.5321,5.20597c1.24713,1.53691 2.79267,1.59469 4.25298,1.80713c1.49935,0.21812 2.89838,0.58082 2.97566,1.43737c0.08627,0.95616 0.53878,3.13169 -0.25943,4.24153c-0.47513,0.66063 -3.77006,0.91374 -5.47285,4.23079c-1.4054,2.73773 1.54832,8.89767 0.85516,9.12744c-0.92773,0.30753 -5.64269,-0.20167 -5.65127,-3.0417c-0.00077,-0.25738 0.1021,-2.23548 0.73385,-4.02529c0.85864,-2.43263 2.30883,-4.81379 2.22407,-4.80614z" data-paper-data="{&quot;index&quot;:null}" fill="#344e5f"/><path d="M68.17834,322.31273c-0.37349,1.43087 -0.35572,2.97785 -0.20934,3.39407c0.02823,0.08029 0.92876,-1.99425 2.09078,-3.54113c0.85496,-1.13813 2.03118,-1.8488 2.18974,-1.92825c1.7495,-0.87671 3.89469,3.29816 4.0661,4.24663c0.12807,0.70866 -4.80703,-0.08744 -5.94418,2.05699c-1.37779,2.5982 -0.25308,5.7054 -0.47464,6.34786c-0.3722,1.07932 -1.88563,1.34105 -2.50704,1.55957c-0.55667,0.19576 -1.3233,-0.9771 -2.04002,-2.28721c-0.69806,-1.276 -1.33414,-2.67851 -2.76369,-3.34603c-1.6778,-0.78344 -2.59194,-0.22383 -4.18472,-0.7057c-0.6217,-0.18809 -1.34533,-0.09962 -2.30595,-1.25228c-0.85654,-1.02776 -1.93552,-3.25168 -2.76545,-4.25573c-0.62394,-0.75484 -2.17111,-1.94783 -2.17954,-1.97179c-0.15119,-0.42996 -1.23195,-1.27556 -0.51055,-1.50356c0.44394,-0.14029 0.25894,-0.35093 1.19233,-0.19078c0.41121,0.07056 1.44461,0.80085 2.21674,1.88442c0.58122,0.81567 1.10184,2.80469 1.90419,2.89364c0.08697,0.00966 -0.2761,-1.21679 -0.5102,-2.08377c-0.26846,-0.99423 -0.4434,-2.27063 0.08273,-2.03785c0.48605,0.21504 1.32332,2.23284 1.97976,3.50639c0.7389,1.43356 1.5948,1.99929 2.77524,2.22851c0.63809,0.12391 1.41761,-0.44023 1.62788,-0.48367c0.41752,-0.08623 -2.10786,-5.37519 -4.41016,-7.62672c-2.30229,-2.25153 -6.27921,-2.61834 -6.44397,-2.98806c-0.85992,-1.92973 2.32277,-2.31563 3.61113,-3.38149c0.87652,-0.72515 3.56504,5.87275 4.54194,5.35021c0.28454,-0.15219 0.28955,-1.514 0.47881,-2.31113c0.36343,-1.53068 -0.83587,-3.58004 -0.78969,-5.3512c0.04665,-1.78925 2.07476,-2.91829 2.27441,-2.42321c0.61117,1.51553 0.68463,4.95358 1.4686,6.93427c0.72747,1.83797 1.90742,1.16226 2.25673,2.36573c0.43717,1.50625 -3.38029,1.7064 -3.39567,2.61054c-0.02782,1.63463 3.17988,5.29669 3.41804,5.10845c0.99982,-0.79019 0.23863,-1.68004 0.54821,-3.08172c0.33521,-1.51771 1.95635,-3.81923 0.96734,-5.45294c-0.53151,-0.87799 -0.77283,-1.53358 -1.07945,-2.37034c-0.31622,-0.86291 -0.69174,-1.9024 -0.84628,-2.49926c-0.23275,-0.89886 0.79804,-2.90117 0.83701,-2.9091c0.87811,-0.17858 1.44548,5.40766 1.94476,5.1148c0.88009,-0.51623 -0.68189,-8.38371 0.35149,-9.65951c0.57972,-0.71571 1.44792,4.2271 2.43006,4.90055c1.60312,1.09924 3.37889,-1.36875 3.72677,-0.39342c0.23425,0.65675 -2.81097,2.20274 -3.99769,4.92324c-1.21045,2.77489 0.22883,7.26234 0.19545,7.36814c-0.13584,0.43053 -1.36425,1.50349 -1.818,3.24187z" data-paper-data="{&quot;index&quot;:null}" fill="#344e5f"/><path d="M413.97522,197.93641c-11.39797,6.55281 -17.95905,15.40936 -21.17171,9.82125c-0.43587,-0.75815 3.99025,-2.61056 1.33139,-5.85717c-2.60998,-3.18692 -12.32489,-7.76757 -10.74174,-8.64861c0.3398,-0.1891 2.07934,-0.86255 2.71607,-2.69625c0.74,-2.13111 0.45083,-5.4196 1.95141,-4.92121c0.97488,0.32378 3.17996,9.417 4.22485,9.79391c5.25561,1.89577 10.80474,4.10399 10.69169,3.0082c-0.44531,-4.31644 -13.74473,-11.20246 -9.2393,-13.54613c0.29693,-0.15446 5.48611,5.06935 7.00133,3.45205c1.06994,-1.14201 -1.70682,-9.57239 -0.47964,-8.68168c3.91564,2.84202 7.9734,15.16622 8.69714,14.75014c0.44221,-0.25423 1.4884,-4.00512 -0.82797,-9.46194c-1.1888,-2.80054 -2.26203,-2.90172 -1.35464,-3.4397c0.96052,-0.56947 4.46456,-7.61824 8.50533,-4.48559c1.70152,1.31912 -4.42636,4.43245 -3.91584,6.3079c0.74272,2.72848 7.63691,4.03784 7.51533,3.36638c-0.70159,-3.87452 2.80762,-9.61599 3.61881,-10.13814c2.48408,-1.59897 0.93104,1.05148 3.07195,3.08712c1.20571,1.14642 -4.39044,2.94033 -3.07148,3.69c4.29399,2.44064 10.43414,-1.30398 11.581,0.69088c3.21267,5.58811 -8.70603,7.35576 -20.10399,13.90858z" data-paper-data="{&quot;index&quot;:null}" fill="#344e5f"/><path d="M344.13667,202.32234c-8.59351,5.35356 -13.40175,12.34836 -16.02646,8.1352c-0.35609,-0.57161 2.99983,-2.11781 0.86511,-4.54401c-2.09547,-2.3816 -9.69694,-5.64231 -8.50252,-6.36348c0.25637,-0.15479 1.57678,-0.72046 2.01687,-2.14904c0.51146,-1.66027 0.19935,-4.18325 1.36778,-3.84056c0.7591,0.22264 2.70383,7.16082 3.51826,7.42243c4.09641,1.31586 8.42722,2.86419 8.31037,2.02393c-0.46027,-3.30985 -10.88321,-8.24716 -7.47962,-10.17359c0.22431,-0.12696 4.36025,3.752 5.48233,2.46604c0.79233,-0.90805 -1.57432,-7.32052 -0.60561,-6.66845c3.09093,2.0806 6.54951,11.45491 7.09518,11.11497c0.33341,-0.20771 1.03639,-3.12292 -0.89494,-7.25946c-0.9912,-2.12294 -1.81992,-2.17159 -1.13623,-2.61033c0.72371,-0.46443 3.22847,-5.98468 6.42361,-3.68382c1.34544,0.96887 -3.28584,3.53183 -2.84186,4.96129c0.64592,2.07964 5.98743,2.89956 5.87557,2.38611c-0.64548,-2.96276 1.89886,-7.47705 2.50893,-7.90099c1.86822,-1.29824 0.74517,0.78388 2.44829,2.29221c0.95916,0.84946 -3.29883,2.38248 -2.26333,2.92352c3.37118,1.76139 7.99471,-1.28775 8.93168,0.21627c2.62471,4.21316 -6.49989,5.89821 -15.09341,11.25178z" data-paper-data="{&quot;index&quot;:null}" fill="#344e5f"/><path d="" data-paper-data="{&quot;index&quot;:null}" fill="#344e5f"/><path d="M202.28255,190.59306c5.66139,0.10862 1.62644,-8.6779 5.17473,-8.6779c6.52384,0 0.19052,7.68854 0.19052,15.52768c0,3.53269 5.96879,3.56455 3.50019,6.09159c-1.81055,1.85342 -2.13926,10.57923 -4.64333,10.57923c-4.831,0 -1.7941,-5.67876 -1.67252,-11.80911c0.01619,-0.81633 -1.82944,-4.72693 -4.1242,-6.77512c-3.74382,-3.34157 -8.68307,-5.20849 -8.68307,-6.46963c0,-3.57547 5.51009,1.44217 10.25768,1.53326z" data-paper-data="{&quot;index&quot;:null}" fill="#344e5f"/><path d="M27.15214,344.83297c-3.02372,-1.90816 4.16026,-3.89014 6.77099,-7.8565c3.11325,-4.72978 -6.47076,-6.0067 -4.5771,-9.00743c3.48166,-5.51711 6.60376,3.94212 13.2332,8.12572c2.98755,1.88534 6.19992,-3.14538 7.01955,0.29091c0.60115,2.52029 7.80502,7.45508 6.46864,9.57274c-2.57821,4.08551 -5.75992,-1.51341 -10.87938,-4.88788c-0.68172,-0.44935 -4.97384,-0.97554 -7.93064,-0.12798c-4.82392,1.38277 -9.03874,4.56347 -10.10526,3.89043z" data-paper-data="{&quot;index&quot;:null}" fill="#344e5f"/><path d="M110.98308,291.08934c1.48049,-0.25648 1.43838,-4.93806 3.03284,-4.93806c4.10695,0 10.18374,-5.00593 13.29774,-3.46924c4.88045,2.40839 5.79317,12.28201 5.79317,16.76469c0,7.34287 -8.54729,13.29545 -19.09091,13.29545c-10.54362,0 -19.09091,-5.95257 -19.09091,-13.29545c0,-6.23245 7.74855,-6.91785 16.05807,-8.35739z" data-paper-data="{&quot;index&quot;:null}" fill="#344e5f"/><path d="M186.52864,213.48032c-0.05661,-0.35159 -0.8212,-1.42637 -1.93901,-2.24862c-1.35803,-0.99896 -3.19491,-1.19753 -3.55596,-1.43459c-0.08872,-0.05825 -0.84524,-3.78765 -3.52496,-5.16796c-2.62718,-1.35325 -6.61679,-1.07726 -6.70265,-1.63347c-0.1275,-0.82603 2.99214,0.09343 4.12374,-1.37133c0.69326,-0.89737 -0.89521,-4.68912 0.07766,-4.45102c1.7342,0.42443 4.07295,6.53913 5.26113,6.50724c0.67407,-0.01809 -1.55699,-4.12099 -0.54186,-4.38488c0.04504,-0.01171 2.14437,0.91494 2.3544,1.63748c0.13946,0.47978 0.27036,1.36224 0.3743,2.09677c0.10078,0.71226 0.17862,1.27079 0.06346,2.11061c-0.21427,1.56269 2.65824,2.4355 3.77972,3.33451c1.03573,0.83027 0.68473,1.77952 2.13772,1.88382c0.3461,0.02484 1.86976,-3.91476 1.01279,-5.02989c-0.47401,-0.61679 -4.59539,0.92781 -4.89768,-0.30375c-0.24153,-0.984 1.34318,-1.03806 1.17862,-2.62636c-0.17733,-1.71164 -1.84078,-4.11524 -1.96456,-5.42989c-0.04043,-0.42946 2.66696,-0.54471 3.62206,0.66878c0.94544,1.20121 0.72017,3.14328 1.87792,4.0388c0.60292,0.46636 1.29774,1.40339 1.67444,1.38294c1.29331,-0.0702 0.78372,-5.8058 2.07393,-5.69201c1.89642,0.16726 5.44338,-0.96944 5.51493,0.74053c0.01371,0.32763 -3.9885,2.33354 -5.27292,4.90121c-1.28442,2.56767 -1.26581,7.32859 -0.78247,7.20404c0.24342,-0.06274 1.34995,-0.01723 1.95916,-0.38395c1.12702,-0.67841 1.74188,-1.44585 1.79412,-2.76026c0.04641,-1.16771 -0.09358,-2.92843 0.30938,-3.29098c0.43619,-0.39246 0.89826,0.56497 1.11897,1.36903c0.19246,0.70114 0.43112,1.70705 0.51782,1.66206c0.79987,-0.41501 0.34101,-2.01631 0.54007,-2.83506c0.26444,-1.08769 0.9829,-2.04687 1.3802,-2.27678c0.90184,-0.52188 0.81368,-0.29506 1.35221,-0.39397c0.87512,-0.16073 0.16518,0.89887 0.22366,1.26205c0.00326,0.02023 -1.02195,1.52499 -1.29679,2.32062c-0.36558,1.05831 -0.37577,3.06773 -0.75736,4.15412c-0.42797,1.21841 -1.23478,1.47636 -1.79423,1.88011c-1.43331,1.03441 -2.67931,1.05138 -4.04946,2.33125c-1.16741,1.09049 -1.1271,2.33817 -1.21611,3.52591c-0.09139,1.2195 -0.30484,2.36633 -0.99017,2.47668c-0.76503,0.12318 -2.49128,0.60975 -3.42974,0.0294c-0.55862,-0.34545 -0.94752,-2.98422 -3.71399,-4.16891c-2.28331,-0.97778 -7.07719,1.74655 -7.30114,1.20134c-0.29974,-0.72971 -0.15462,-4.55468 2.13162,-4.72114c0.2072,-0.01508 1.80569,-0.04338 3.28229,0.36474c2.00693,0.55469 4.00565,1.58857 3.99473,1.52075z" data-paper-data="{&quot;index&quot;:null}" fill="#344e5f"/><path d="M202.28255,190.59306c5.66139,0.10862 1.62644,-8.6779 5.17473,-8.6779c6.52384,0 0.19052,7.68854 0.19052,15.52768c0,3.53269 5.96879,3.56455 3.50019,6.09159c-1.81055,1.85342 -2.13926,10.57923 -4.64333,10.57923c-4.831,0 -1.7941,-5.67876 -1.67252,-11.80911c0.01619,-0.81633 -1.82944,-4.72693 -4.1242,-6.77512c-3.74382,-3.34157 -8.68307,-5.20849 -8.68307,-6.46963c0,-3.57547 5.51009,1.44217 10.25768,1.53326z" data-paper-data="{&quot;index&quot;:null}" fill="#344e5f"/><path d="M483.24409,375.49067c0,16.64827 -168.44326,26.56285 -209.81668,26.56285c-49.35228,0 -200.88549,-7.78378 -234.87607,-15.2501c-20.74183,-4.55612 -5.31832,-43.63585 24.01709,-57.47945c1.77765,-0.83889 9.82913,-11.45944 11.1152,-12.66944c6.63651,-6.24397 1.39954,-6.66915 10.19566,-7.8966c0.64414,-0.08988 35.61246,-9.09701 62.07541,-30.30223c28.79881,-23.07697 49.28494,-58.50992 49.9773,-58.6093c30.45074,-4.37092 66.40288,1.85121 98.1688,-0.57162c4.18817,-0.31943 53.08988,-20.99122 57.15582,-21.4125c22.06275,-2.28596 69.45102,-13.32748 92.83866,-12.70256c21.64418,0.57833 19.87786,12.74785 26.91197,12.74785c41.37342,0 12.23683,160.93483 12.23683,177.5831z" fill="#344e5f"/><path d="M522.53419,324.58051c-0.9047,0 -36.31216,0 -36.31216,0v-361.49151c0,0 35.25113,0 35.9628,0c5.68432,0 76.63018,0 76.63018,0v361.49151c0,0 -69.93523,0 -76.28081,0z" data-paper-data="{&quot;index&quot;:null}" fill="url(#color-2)"/></g></g></svg>