<svg version="1.1" xmlns="http://www.w3.org/2000/svg" xmlns:xlink="http://www.w3.org/1999/xlink" width="16.09823" height="17.41683" viewBox="0,0,16.09823,17.41683"><g transform="translate(-231.95089,-171.29159)"><g data-paper-data="{&quot;isPaintingLayer&quot;:true}" fill="#0e0e0f" fill-rule="nonzero" stroke="none" stroke-width="0" stroke-linecap="butt" stroke-linejoin="miter" stroke-miterlimit="10" stroke-dasharray="" stroke-dashoffset="0" style="mix-blend-mode: normal"><path d="M244.81164,177.65629c-0.52063,0.45449 0.8085,1.81406 0.21581,2.31689c-1.17281,0.99501 -0.86459,3.81756 -1.53839,4.82805c-1.43469,2.15159 -2.93708,3.97254 -6.21124,3.90539c-2.94588,-0.77224 -2.94551,-7.4152 -2.56601,-7.90275c1.00966,-1.29711 0.83624,-6.01669 4.5971,-6.01669c2.28245,0 0.04744,-4.36184 3.86083,-3.32105c0.82949,-1.04135 2.16938,2.88879 2.16938,3.56402z"/><path d="M239.82293,180.15705c0.91033,-4.35903 2.66622,-3.6475 3.10902,-3.34806c0.44281,0.29944 1.72129,-1.74476 0.81096,2.61428c-0.30011,1.43707 -3.42298,4.31774 -3.73353,5.43226c-0.63144,2.26613 -1.74687,0.06583 -2.04369,-0.13489c-0.44281,-0.29944 0.94692,-0.20456 1.85725,-4.5636z"/><path d="M247.00268,182.18635c1.35142,2.64644 1.27465,3.43769 0.44597,3.86086c-0.82868,0.42317 -2.10374,-0.65415 -3.45516,-3.30059c-1.35142,-2.64644 -1.76693,-4.16269 -0.93825,-4.58586c0.82868,-0.42317 2.59601,1.37914 3.94743,4.02559z"/><path d="M232.99733,180.66461c1.35142,-2.64644 3.11874,-4.44876 3.94743,-4.02559c0.82869,0.42317 0.41317,1.93943 -0.93824,4.58587c-1.35142,2.64644 -2.62647,3.72375 -3.45516,3.30058c-0.82869,-0.42317 -0.90545,-1.21442 0.44597,-3.86086z" data-paper-data="{&quot;index&quot;:null}"/></g></g></svg>