<svg version="1.1" xmlns="http://www.w3.org/2000/svg" xmlns:xlink="http://www.w3.org/1999/xlink" width="437.34676" height="405.28314" viewBox="0,0,437.34676,405.28314"><g transform="translate(-163.87269,11.4138)"><g data-paper-data="{&quot;isPaintingLayer&quot;:true}" fill="#344e5f" fill-rule="nonzero" stroke="none" stroke-width="0" stroke-linecap="butt" stroke-linejoin="miter" stroke-miterlimit="10" stroke-dasharray="" stroke-dashoffset="0" style="mix-blend-mode: normal"><path d="M189.22104,101.04695c1.07148,-6.18493 1.58163,-11.95233 6.22056,-11.95233c5.46544,0 9.89606,6.36191 9.89606,14.20973c0,7.84782 0.90095,50.64211 -4.56449,50.64211c-3.33654,0 -4.02121,-23.33852 -5.81382,-26.97113c-1.14379,-2.31781 -9.41381,-20.6141 -9.41381,-23.67098c0,-1.18679 3.48459,-1.15544 3.67549,-2.2574z" data-paper-data="{&quot;index&quot;:null}"/><path d="M343.66307,393.86935c-74.96966,0 -165.32568,-13.70654 -167.87673,-88.63278c-0.30832,-9.05563 2.44281,-28.26249 2.31236,-33.14456c-0.32029,-11.98696 -18.961,-10.86618 -13.07916,-28.15832c8.13032,-23.90251 9.14045,-39.16387 11.74245,-64.27685c0.06606,-0.63758 3.26851,-6.16432 9.63999,-9.68414c5.62078,-3.10511 2.95225,-12.16947 3.44059,-18.57231c1.80336,-23.64398 5.74354,-36.83241 8.9969,-59.49747c0.07397,-0.51534 26.44739,-17.19212 43.62401,-38.62762c15.78345,-19.69688 22.48762,-44.29589 22.55452,-44.77533c0.91361,-6.54712 1.23008,-2.64914 5.87759,-7.58882c0.90063,-0.95725 8.8057,-6.95012 9.4301,-8.27325c10.30405,-21.8349 79.39184,50.9708 82.78304,66.40933c5.55732,25.29983 238.11071,6.6603 238.11071,43.39414c0,14.251 -1.75317,73.26637 -2.69971,135.65576c-1.39023,91.63431 -7.81699,152.0862 -14.47415,152.0862z" data-paper-data="{&quot;index&quot;:null}"/></g></g></svg>