<svg version="1.1" xmlns="http://www.w3.org/2000/svg" xmlns:xlink="http://www.w3.org/1999/xlink" width="79.87586" height="74.57698" viewBox="0,0,79.87586,74.57698"><g transform="translate(-198.8703,-136.18342)"><g data-paper-data="{&quot;isPaintingLayer&quot;:true}" fill-rule="nonzero" stroke-linecap="butt" stroke-linejoin="miter" stroke-miterlimit="10" stroke-dasharray="" stroke-dashoffset="0" style="mix-blend-mode: normal"><path d="M278.74616,157.2328c0,0 -4.43439,-0.11665 -5.59952,0.90166c-1.308,1.14317 -1.86958,5.6262 -1.86958,5.6262c0,0 0.1169,-4.4341 -0.98079,-5.69006c-1.0779,-1.23332 -5.54707,-1.77904 -5.54707,-1.77904c0,0 5.00981,0.25248 6.32342,-0.89559c1.15584,-1.01018 1.14567,-5.63227 1.14567,-5.63227c0,0 0.25501,4.22012 1.37678,5.50365c1.04934,1.20064 5.15108,1.96545 5.15108,1.96545z" fill="#ffffff" stroke="none" stroke-width="0"/><path d="M253.63252,148.2612c0,0 2.99208,-3.94454 2.82721,-5.66373c-0.18509,-1.92999 -3.88414,-5.35713 -3.88414,-5.35713c0,0 3.94411,2.99211 5.79732,2.81438c1.81981,-0.17452 5.22354,-3.87131 5.22354,-3.87131c0,0 -3.48978,4.37783 -3.30389,6.31611c0.16356,1.70547 4.36082,4.70475 4.36082,4.70475c0,0 -3.99218,-2.51566 -5.88607,-2.33403c-1.77157,0.1699 -5.13479,3.39096 -5.13479,3.39096z" fill="#ffffff" stroke="none" stroke-width="0"/><path d="M216.80269,206.51505c-2.02823,-7.96307 -6.86614,-26.93071 -8.4908,-33.06336c-0.93011,-3.51086 0.75602,-9.84181 3.15338,-10.43735c0.91172,-0.22647 3.01212,0.21254 4.54862,-0.17386c9.12797,-2.29542 27.93932,-6.86891 39.0203,-9.80895c1.34835,-0.35774 1.8337,-1.45489 2.94702,-1.73147c3.19491,-0.79375 7.06961,3.60373 8.02414,7.57682c1.49447,6.22048 5.92501,24.66186 7.90253,32.89299c0.59827,2.49024 -0.69154,4.4614 -3.43842,5.1474c-11.78201,2.94245 -43.49387,10.86219 -49.34285,12.32292c-1.81749,0.45391 -3.75994,-0.51095 -4.32391,-2.72518z" fill="#1666a1" stroke="#041a1f" stroke-width="2"/><path d="M207.15256,182.91906c-0.10391,-0.41145 -0.20183,-0.79913 -0.26783,-1.06047c-0.1553,-0.61491 0.41773,-1.79766 1.49194,-2.06896c5.22986,-1.32085 46.42175,-11.72426 58.40126,-14.7498c2.06083,-0.52048 3.48956,0.09769 3.63975,0.69232c0.08098,0.32063 0.21221,0.84024 0.34435,1.36345c0.21874,0.86611 -0.40905,1.95664 -1.90816,2.33525c-10.49606,2.65088 -52.85837,13.3499 -58.78,14.84546c-1.3476,0.34035 -2.68778,-0.43254 -2.92132,-1.35725z" fill="#1666a1" stroke="#041a1f" stroke-width="2"/><g fill="#0b314d" stroke="#041a1f" stroke-width="2"><path d="M214.7248,176.79018c0,0 -1.87366,-7.21125 -1.62401,-8.92003c0.51934,-3.5547 2.88119,-4.31659 2.88119,-4.31659l38.97001,-9.63419c0,0 3.26557,1.34435 4.96305,4.11726c1.18458,1.93507 1.99138,7.03939 1.99138,7.03939z"/><path d="M216.14382,188.54311c-0.4174,-1.03632 24.40636,-6.97366 26.50452,-7.49953c5.51526,-1.38232 22.53862,-5.70864 22.71175,-5.45184c1.2535,5.85603 2.44345,9.35932 3.69696,15.21535c0.27833,1.30025 -0.23791,2.93595 -1.66145,3.30115c-8.4365,2.16437 -38.02673,9.75566 -43.19207,11.08082c-1.50259,0.38549 -3.4188,-0.75798 -3.78813,-1.96517z"/></g><path d="M234.92099,189.36858c-0.51214,-2.0278 -2.39134,-9.46843 -2.39134,-9.46843l15.22524,-3.84528c0,0 1.8792,7.44063 2.39134,9.46843c0.24239,0.95972 -0.26122,2.32219 -1.47085,2.62769c-3.2324,0.81638 -9.4123,2.37717 -11.21062,2.83135c-0.96326,0.24328 -2.30138,-0.65403 -2.54377,-1.61377z" fill="#1666a1" stroke="#041a1f" stroke-width="2"/><path d="M239.69031,184.25596c-0.26718,-1.05788 0.3738,-2.13204 1.43169,-2.39922c1.05788,-0.26718 2.13204,0.3738 2.39922,1.43169c0.26718,1.05788 -0.3738,2.13204 -1.43169,2.39922c-1.05788,0.26718 -2.13204,-0.3738 -2.39922,-1.43169z" fill="#041a1f" stroke="none" stroke-width="0"/><path d="M250.60032,149.50362c0,0 -1.87892,-1.61172 -2.7419,-1.58103c-0.96882,0.03445 -2.79031,1.77779 -2.79031,1.77779c0,0 1.61173,-1.8787 1.57864,-2.80896c-0.03249,-0.9135 -1.77541,-2.72324 -1.77541,-2.72324c0,0 2.08024,1.87313 3.05321,1.83852c0.8561,-0.03045 2.479,-2.03529 2.479,-2.03529c0,0 -1.37538,1.917 -1.34156,2.86768c0.03163,0.88929 1.53832,2.66453 1.53832,2.66453z" fill="#ffffff" stroke="none" stroke-width="0"/><path d="M211.08632,156.41499c0,0 -3.87017,-0.10181 -4.88705,0.78693c-1.14158,0.99771 -1.6317,4.91034 -1.6317,4.91034c0,0 0.10203,-3.86991 -0.85599,-4.96606c-0.94075,-1.0764 -4.84128,-1.55267 -4.84128,-1.55267c0,0 4.37238,0.22036 5.51885,-0.78163c1.00877,-0.88164 0.9999,-4.91564 0.9999,-4.91564c0,0 0.22256,3.68317 1.2016,4.80338c0.91582,1.04787 4.49567,1.71537 4.49567,1.71537z" fill="#ffffff" stroke="none" stroke-width="0"/></g></g></svg>