<svg version="1.1" xmlns="http://www.w3.org/2000/svg" xmlns:xlink="http://www.w3.org/1999/xlink" width="718.22836" height="536.0106" viewBox="0,0,718.22836,536.0106"><g transform="translate(117.65903,87.44823)"><g data-paper-data="{&quot;isPaintingLayer&quot;:true}" fill-rule="nonzero" stroke="none" stroke-width="0" stroke-linecap="butt" stroke-linejoin="miter" stroke-miterlimit="10" stroke-dasharray="" stroke-dashoffset="0" style="mix-blend-mode: normal"><path d="" data-paper-data="{&quot;index&quot;:null}" fill="#ffffff"/><path d="" data-paper-data="{&quot;index&quot;:null}" fill="#ffffff"/><path d="" data-paper-data="{&quot;index&quot;:null}" fill="#ffffff"/><path d="" data-paper-data="{&quot;index&quot;:null}" fill="#ffffff"/><path d="M-117.65903,448.56237v-536.0106h718.22836v536.0106z" fill="none"/><path d="M4.02233,364.35817l-28.47149,-122.8345l30.69597,-81.59927l157.80801,-81.42744l79.90063,-111.13105l96.04695,-11.78949l76.67409,239.4113l92.35415,122.25862l-16.97687,87.17721z" fill="#98bbd6"/><path d="M336.36337,265.53995l-54.96875,13.89433l-137.75799,-18.36097l87.44789,2.88688l11.01651,-2.76316c0,0 31.14174,7.17233 34.0412,7.30592c11.73454,0.54064 60.22113,-2.96302 60.22113,-2.96302z" data-paper-data="{&quot;index&quot;:null}" fill="#375267"/><path d="M286.744,0.69209l2.28417,56.65155l-46.31893,131.03032l20.82212,-84.9818l-0.43679,-11.34936c0,0 13.42786,-28.99901 14.1553,-31.80893c2.94407,-11.37207 9.4941,-59.54179 9.4941,-59.54179z" data-paper-data="{&quot;index&quot;:null}" fill="#375267"/></g></g></svg>