<svg version="1.1" xmlns="http://www.w3.org/2000/svg" xmlns:xlink="http://www.w3.org/1999/xlink" width="192" height="52" viewBox="0,0,192,52"><defs><linearGradient x1="169.96192" y1="165.16931" x2="169.96192" y2="194.83069" gradientUnits="userSpaceOnUse" id="color-1"><stop offset="0" stop-color="#abf5b2"/><stop offset="1" stop-color="#2fde69"/></linearGradient><linearGradient x1="261.32713" y1="173.30306" x2="261.32713" y2="186.69695" gradientUnits="userSpaceOnUse" id="color-2"><stop offset="0" stop-color="#a9f5b1"/><stop offset="1" stop-color="#31df6a"/></linearGradient></defs><g transform="translate(-144,-154.14706)"><g data-paper-data="{&quot;isPaintingLayer&quot;:true}" fill-rule="nonzero" stroke-miterlimit="10" stroke-dasharray="" stroke-dashoffset="0" style="mix-blend-mode: normal"><path d="M144,200.43473c0,-10.92171 0,-34.22737 0,-40.37037c0,-3.53261 2.14349,-5.9173 5.67611,-5.9173c15.91527,0 142.90023,0 177.59259,0c5.5442,0 8.7313,4.46151 8.7313,8.3247c0,5.82275 0,22.89413 0,33.88889c0,5.71375 -3.3299,9.78641 -9.10167,9.78641c-34.95274,0 -159.45596,0 -176.2963,0c-3.70264,0 -6.60203,-2.22479 -6.60203,-5.71233z" fill-opacity="0.80154" fill="#181a1e" stroke="none" stroke-width="0" stroke-linecap="butt" stroke-linejoin="miter"/><g><path d="M155.10372,191.14935c0,-6.70355 0,-20.458 0,-23.12124c0,-1.17051 1.31003,-2.9066 3.00503,-2.85779c3.57841,0.10303 17.25507,0 23.05579,0c1.86633,0 3.52801,1.09855 3.59956,2.78866c0.12607,2.97834 0,16.13331 0,22.98666c0,2.35106 -1.60712,3.88505 -4.04339,3.88505c-6.61616,0 -19.34731,0 -22.61197,0c-1.49978,0 -3.00503,-1.4501 -3.00503,-3.68134z" fill="#0a0d10" stroke="url(#color-1)" stroke-width="2" stroke-linecap="butt" stroke-linejoin="miter"/><g stroke="none" stroke-width="1" stroke-linecap="butt" stroke-linejoin="miter"><path d="M174.46466,184.28438c0,1.06504 2.13009,1.42006 3.90516,1.77507c1.77507,0.35501 2.13009,1.06504 0,1.42006c-2.13009,0.35501 -1.68199,1.27404 -3.5036,1.16956c-1.82162,-0.10448 -7.50184,-0.10451 -6.79181,-1.16956c0.71003,-1.06504 4.61518,-0.71003 3.55014,-1.42006c-1.06504,-0.71003 -3.93984,-1.02816 -2.32495,-1.75661l2.85748,-0.90599z" fill="#aaf5b1"/><path d="M177.80144,179.38411c0,2.82219 -1.67766,5.11004 -3.74739,5.11004c-0.68875,-0.01004 -1.35325,-0.25593 -1.88264,-0.69664c-0.52939,0.44071 -1.19388,0.6866 -1.88264,0.69664c-0.57562,-0.00597 -1.1368,-0.18103 -1.61372,-0.50341c-0.97111,0.67121 -2.25629,0.67121 -3.2274,0c-0.4769,0.32239 -1.03806,0.49745 -1.61368,0.50341c-2.06963,0 -3.74739,-2.28782 -3.74739,-5.11004c0,-2.82222 1.67776,-5.11007 3.74739,-5.11007c0.57562,0.00597 1.13678,0.18105 1.61368,0.50344c0.97109,-0.67126 2.25631,-0.67126 3.2274,0c0.47692,-0.32239 1.03809,-0.49746 1.61372,-0.50344c0.68875,0.01006 1.35324,0.25595 1.88264,0.69664c0.5294,-0.4407 1.19388,-0.68658 1.88264,-0.69664c2.06963,0 3.74739,2.28789 3.74739,5.11007z" fill="#d0cfce"/><path d="M171.38246,179.38411c0,-2.22805 1.20414,-4.03424 2.68952,-4.03424c1.48538,0 2.68952,1.80619 2.68952,4.03424c0,2.22805 -1.20414,4.03424 -2.68952,4.03424c-1.48538,0 -2.68952,-1.80619 -2.68952,-4.03424z" fill="#9b9b9a"/><path d="M173.53409,180.99779c0,-0.74269 0.36124,-1.34476 0.80684,-1.34476c0.44561,0 0.80684,0.60207 0.80684,1.34476c0,0.74269 -0.36124,1.34476 -0.80684,1.34476c-0.44561,0 -0.80684,-0.60207 -0.80684,-1.34476z" fill="#5a5a59"/></g><g fill="none" stroke="#000000"><path d="M167.73318,180.95428c-0.16862,-0.62129 -0.25315,-1.26238 -0.25135,-1.90614c-0.02404,-1.27929 0.33239,-2.5369 1.02407,-3.61333c0.17472,-0.25794 0.37781,-0.49548 0.60548,-0.70815" stroke-width="1.5" stroke-linecap="round" stroke-linejoin="round"/><path d="M164.30284,180.7513c-0.16864,-0.62128 -0.25317,-1.26238 -0.25135,-1.90614c-0.02404,-1.27929 0.33238,-2.5369 1.02407,-3.61333c0.17472,-0.25794 0.37781,-0.49548 0.60548,-0.70815" stroke-width="1.5" stroke-linecap="round" stroke-linejoin="round"/><path d="M177.8691,179.18011c0,2.82219 -1.67766,5.11004 -3.74739,5.11004c-0.68875,-0.01004 -1.35325,-0.25593 -1.88264,-0.69664c-0.52939,0.44071 -1.19388,0.6866 -1.88264,0.69664c-0.57562,-0.00597 -1.1368,-0.18103 -1.61372,-0.50341c-0.97111,0.67121 -2.25629,0.67121 -3.2274,0c-0.4769,0.32239 -1.03806,0.49745 -1.61368,0.50341c-2.06963,0 -3.74739,-2.28782 -3.74739,-5.11004c0,-2.82222 1.67776,-5.11007 3.74739,-5.11007c0.57562,0.00597 1.13678,0.18105 1.61368,0.50344c0.97109,-0.67126 2.25631,-0.67126 3.2274,0c0.47692,-0.32239 1.03809,-0.49746 1.61372,-0.50344c0.68875,0.01006 1.35324,0.25595 1.88264,0.69664c0.5294,-0.4407 1.19388,-0.68658 1.88264,-0.69664c2.06963,0 3.74739,2.28789 3.74739,5.11007z" stroke-width="2" stroke-linecap="round" stroke-linejoin="round"/><path d="M171.72076,179.18011c0,-2.22805 1.20414,-4.03424 2.68952,-4.03424c1.48538,0 2.68952,1.80619 2.68952,4.03424c0,2.22805 -1.20414,4.03424 -2.68952,4.03424c-1.48538,0 -2.68952,-1.80619 -2.68952,-4.03424z" stroke-width="1.5" stroke-linecap="butt" stroke-linejoin="miter"/><path d="M174.59998,182.06013l-0.06766,1.81726c0,1.06504 2.13009,1.42006 3.90516,1.77507c1.77507,0.35501 2.13009,1.06504 0,1.42006c-2.13009,0.35501 -1.68199,1.27408 -3.5036,1.16956c-1.82162,-0.10451 -7.50184,-0.10451 -6.79181,-1.16956c0.71003,-1.06504 4.61518,-0.71003 3.55014,-1.42006c-1.06504,-0.71003 -3.93984,-1.02816 -2.32495,-1.75661" stroke-width="1.5" stroke-linecap="round" stroke-linejoin="round"/></g></g><path d="M203.78051,176.34561l-4.03072,9.50435c-0.0941,0.24049 -0.23003,0.4287 -0.40778,0.56461c-0.17776,0.12547 -0.37641,0.1882 -0.59598,0.1882c-0.33459,0 -0.58553,-0.0941 -0.75282,-0.28231c-0.15684,-0.1882 -0.23525,-0.41823 -0.23525,-0.69008c0,-0.11502 0.02091,-0.23525 0.06273,-0.36072l4.65808,-11.19819c0.0941,-0.25094 0.24571,-0.44437 0.45483,-0.58029c0.20911,-0.13592 0.42869,-0.19343 0.65872,-0.17252c0.23002,0 0.43914,0.06796 0.62735,0.20389c0.19865,0.12547 0.33981,0.30845 0.42347,0.54894l4.61102,10.97862c0.06273,0.15684 0.0941,0.30845 0.0941,0.45483c0,0.33459 -0.10978,0.60121 -0.32935,0.79988c-0.21957,0.19865 -0.46006,0.298 -0.72145,0.298c-0.21957,0 -0.42346,-0.06796 -0.61166,-0.20388c-0.17776,-0.13592 -0.3189,-0.32412 -0.42346,-0.56461l-4.01504,-9.37888zM200.33008,183.57582l1.01945,-2.16436h5.06585l0.34504,2.16436zM220.02874,174.04011c0.32412,0.15684 0.51233,0.41301 0.56461,0.76851c0.05228,0.34504 -0.0366,0.66395 -0.26662,0.95671c-0.1673,0.21957 -0.38164,0.34504 -0.64303,0.37641c-0.25094,0.02091 -0.50711,-0.03137 -0.7685,-0.15684c-0.29277,-0.13593 -0.60644,-0.24048 -0.94102,-0.31367c-0.33459,-0.07319 -0.67964,-0.10978 -1.03513,-0.10978c-0.67964,0 -1.28607,0.10456 -1.81931,0.31367c-0.5228,0.20911 -0.97239,0.51234 -1.3488,0.90966c-0.37641,0.38687 -0.66395,0.85215 -0.8626,1.39586c-0.1882,0.53325 -0.28231,1.124 -0.28231,1.77227c0,0.76328 0.10979,1.42723 0.32936,1.99184c0.21957,0.55416 0.5228,1.01945 0.90966,1.39586c0.38686,0.37641 0.84169,0.65872 1.36449,0.84692c0.52279,0.17775 1.09263,0.26663 1.70953,0.26663c0.33458,0 0.66917,-0.03137 1.00376,-0.0941c0.33458,-0.06273 0.65872,-0.17775 0.97239,-0.34504c0.26139,-0.12547 0.51757,-0.1673 0.76851,-0.12547c0.26139,0.03137 0.48096,0.16207 0.65872,0.3921c0.25094,0.31367 0.33981,0.63781 0.26663,0.97239c-0.06273,0.32412 -0.25094,0.55939 -0.56461,0.70577c-0.32413,0.16729 -0.65872,0.30323 -1.00376,0.40778c-0.34504,0.10455 -0.69531,0.18298 -1.05081,0.23526c-0.34504,0.06273 -0.69531,0.0941 -1.05081,0.0941c-0.89921,0 -1.75135,-0.14115 -2.55645,-0.42346c-0.80511,-0.29276 -1.52656,-0.71622 -2.16436,-1.27038c-0.62735,-0.56461 -1.124,-1.27038 -1.48995,-2.1173c-0.35549,-0.84692 -0.53325,-1.82454 -0.53325,-2.93285c0,-0.96193 0.16207,-1.84545 0.4862,-2.65055c0.33459,-0.81555 0.80511,-1.5161 1.41154,-2.10162c0.60643,-0.59598 1.31743,-1.06126 2.13299,-1.39585c0.826,-0.33459 1.73044,-0.50188 2.71329,-0.50188c0.5437,0 1.07694,0.06273 1.59974,0.1882c0.52279,0.12547 1.01945,0.30845 1.48996,0.54894zM223.78714,173.39707c0.30322,0 0.56984,0.10979 0.79988,0.32936c0.23002,0.21957 0.34504,0.49142 0.34504,0.81555v10.82178c0,0.32412 -0.12024,0.59598 -0.36072,0.81555c-0.24049,0.21957 -0.51234,0.32936 -0.81555,0.32936c-0.3555,0 -0.63781,-0.10978 -0.84692,-0.32935c-0.20912,-0.21957 -0.31367,-0.49143 -0.31367,-0.81555v-10.82178c0,-0.32413 0.10979,-0.59598 0.32936,-0.81555c0.23002,-0.21957 0.51757,-0.32935 0.86261,-0.32935zM232.08385,173.39707c0.34504,0 0.62212,0.10979 0.83124,0.32936c0.21957,0.21957 0.32936,0.49142 0.32936,0.81555v10.82178c0,0.32412 -0.10978,0.59598 -0.32935,0.81555c-0.21957,0.21957 -0.50711,0.32936 -0.8626,0.32936c-0.30322,0 -0.56984,-0.10978 -0.79987,-0.32935c-0.23002,-0.21957 -0.34504,-0.49143 -0.34504,-0.81555v-10.82178c0,-0.32413 0.11502,-0.59598 0.34504,-0.81555c0.24049,-0.21957 0.51757,-0.32935 0.83124,-0.32935zM223.72441,178.85501h8.35943v2.14868h-8.35943zM238.39634,185.36377c0,0.32412 -0.12024,0.59598 -0.36072,0.81555c-0.24049,0.21957 -0.51234,0.32936 -0.81555,0.32936c-0.3555,0 -0.63781,-0.10978 -0.84692,-0.32935c-0.20912,-0.21957 -0.31367,-0.49143 -0.31367,-0.81555v-10.82178c0,-0.32413 0.10979,-0.59598 0.32936,-0.81555c0.23002,-0.21957 0.51757,-0.32935 0.86261,-0.32935c0.30322,0 0.56984,0.10979 0.79988,0.32936c0.23002,0.21957 0.34504,0.49142 0.34504,0.81555zM242.33843,173.39707h6.2735c0.32413,0 0.59598,0.10455 0.81555,0.31367c0.21957,0.20911 0.32936,0.47574 0.32936,0.79988c0,0.30322 -0.10978,0.55416 -0.32935,0.75282c-0.21957,0.19866 -0.49142,0.298 -0.81555,0.298h-5.23837l0.17253,-0.32935v3.65432l-0.15684,-0.15684h4.39145c0.32413,0 0.59075,0.10456 0.79988,0.31367c0.21957,0.20911 0.32936,0.47574 0.32936,0.79988c0,0.31367 -0.10978,0.56984 -0.32935,0.76851c-0.20911,0.1882 -0.47574,0.28231 -0.79987,0.28231h-4.32871l0.0941,-0.15684v3.77979l-0.15684,-0.15684h5.22269c0.32413,0 0.59598,0.10979 0.81555,0.32936c0.21957,0.20911 0.32936,0.46006 0.32936,0.75282c0,0.31367 -0.10978,0.56984 -0.32935,0.76851c-0.21957,0.19865 -0.49142,0.298 -0.81555,0.298h-6.2735c-0.32412,0 -0.59598,-0.10978 -0.81555,-0.32935c-0.20911,-0.21957 -0.31367,-0.49143 -0.31367,-0.81555v-10.82178c0,-0.32413 0.10456,-0.59598 0.31367,-0.81555c0.21957,-0.21957 0.49143,-0.32935 0.81555,-0.32935zM261.4878,173.3657c0.31367,0 0.58552,0.10455 0.81555,0.31367c0.23002,0.19866 0.34504,0.45483 0.34504,0.76851c0,0.1673 -0.0366,0.33458 -0.10978,0.50188l-4.6267,10.82178c-0.11502,0.25094 -0.27708,0.43914 -0.48619,0.56461c-0.20912,0.11502 -0.41824,0.17253 -0.62735,0.17253c-0.19866,-0.01045 -0.39209,-0.07318 -0.58029,-0.1882c-0.1882,-0.12547 -0.32935,-0.29799 -0.42346,-0.51756l-4.6267,-10.86883c-0.04183,-0.07319 -0.06796,-0.15161 -0.07841,-0.23525c-0.01046,-0.08364 -0.01568,-0.16207 -0.01568,-0.23525c0,-0.3555 0.1307,-0.62735 0.3921,-0.81555c0.26139,-0.19865 0.51233,-0.29799 0.75282,-0.29799c0.47051,0 0.81033,0.24048 1.01945,0.72145l4.10914,9.64551l-0.65872,0.01569l3.7641,-9.66119c0.20911,-0.47051 0.55416,-0.70576 1.03513,-0.70576zM265.74643,173.39707h6.2735c0.32412,0 0.59598,0.10455 0.81555,0.31367c0.21957,0.20911 0.32936,0.47574 0.32936,0.79988c0,0.30322 -0.10978,0.55416 -0.32935,0.75282c-0.21957,0.19866 -0.49143,0.298 -0.81555,0.298h-5.23837l0.17253,-0.32935v3.65432l-0.15684,-0.15684h4.39145c0.32412,0 0.59075,0.10456 0.79988,0.31367c0.21957,0.20911 0.32935,0.47574 0.32935,0.79988c0,0.31367 -0.10978,0.56984 -0.32935,0.76851c-0.20912,0.1882 -0.47574,0.28231 -0.79988,0.28231h-4.32871l0.0941,-0.15684v3.77979l-0.15684,-0.15684h5.22269c0.32412,0 0.59598,0.10979 0.81555,0.32936c0.21957,0.20911 0.32936,0.46006 0.32936,0.75282c0,0.31367 -0.10978,0.56984 -0.32935,0.76851c-0.21957,0.19865 -0.49143,0.298 -0.81555,0.298h-6.2735c-0.32413,0 -0.59598,-0.10978 -0.81555,-0.32935c-0.20912,-0.21957 -0.31367,-0.49143 -0.31367,-0.81555v-10.82178c0,-0.32413 0.10455,-0.59598 0.31367,-0.81555c0.21957,-0.21957 0.49142,-0.32935 0.81555,-0.32935zM276.50497,173.38139c0.16729,0 0.35027,0.04706 0.54894,0.14116c0.19865,0.0941 0.34504,0.21434 0.43914,0.36073l4.54829,7.01064l-0.94102,-0.04705l4.67376,-6.96358c0.23002,-0.33459 0.53325,-0.50188 0.90966,-0.50188c0.30322,0 0.56984,0.10979 0.79988,0.32936c0.24048,0.20911 0.36073,0.48097 0.36073,0.81555v10.83747c0,0.32412 -0.10456,0.59598 -0.31367,0.81555c-0.20912,0.21957 -0.49143,0.32936 -0.84692,0.32936c-0.34504,0 -0.62735,-0.10978 -0.84692,-0.32935c-0.21957,-0.21957 -0.32935,-0.49143 -0.32935,-0.81555v-8.81426l0.73714,0.17253l-3.82683,5.81867c-0.11502,0.13593 -0.25617,0.25617 -0.42346,0.36073c-0.1673,0.0941 -0.33981,0.13593 -0.51756,0.12547c-0.15684,0.01046 -0.3189,-0.03137 -0.48619,-0.12547c-0.1673,-0.10456 -0.30845,-0.2248 -0.42347,-0.36072l-3.57589,-5.66183l0.4862,-0.98807v9.47298c0,0.32412 -0.09933,0.59598 -0.298,0.81555c-0.19865,0.21957 -0.46006,0.32936 -0.78419,0.32936c-0.31367,0 -0.56984,-0.10978 -0.7685,-0.32935c-0.19865,-0.21957 -0.29799,-0.49143 -0.29799,-0.81555v-10.83746c0,-0.31367 0.11502,-0.58029 0.34504,-0.79987c0.23002,-0.23002 0.50711,-0.34504 0.83123,-0.34504zM291.79482,173.39707h6.2735c0.32412,0 0.59598,0.10455 0.81555,0.31367c0.21957,0.20911 0.32936,0.47574 0.32936,0.79988c0,0.30322 -0.10978,0.55416 -0.32935,0.75282c-0.21957,0.19866 -0.49143,0.298 -0.81555,0.298h-5.23837l0.17253,-0.32935v3.65432l-0.15684,-0.15684h4.39145c0.32412,0 0.59075,0.10456 0.79988,0.31367c0.21957,0.20911 0.32936,0.47574 0.32936,0.79988c0,0.31367 -0.10978,0.56984 -0.32935,0.76851c-0.20912,0.1882 -0.47574,0.28231 -0.79987,0.28231h-4.32871l0.0941,-0.15684v3.77979l-0.15684,-0.15684h5.22269c0.32412,0 0.59598,0.10979 0.81555,0.32936c0.21957,0.20911 0.32936,0.46006 0.32936,0.75282c0,0.31367 -0.10978,0.56984 -0.32935,0.76851c-0.21957,0.19865 -0.49143,0.298 -0.81555,0.298h-6.2735c-0.32413,0 -0.59598,-0.10978 -0.81555,-0.32935c-0.20912,-0.21957 -0.31367,-0.49143 -0.31367,-0.81555v-10.82178c0,-0.32413 0.10455,-0.59598 0.31367,-0.81555c0.21957,-0.21957 0.49142,-0.32935 0.81555,-0.32935zM311.32059,173.39707c0.29276,0 0.53325,0.09933 0.72145,0.298c0.1882,0.19866 0.28231,0.4496 0.28231,0.75282v10.91588c0,0.32412 -0.10978,0.59598 -0.32935,0.81555c-0.21957,0.21957 -0.49143,0.32936 -0.81555,0.32936c-0.15684,0 -0.32412,-0.02614 -0.50188,-0.07841c-0.16729,-0.06273 -0.29276,-0.14115 -0.37641,-0.23525l-7.35567,-9.34751l0.4862,-0.29799v8.90837c0,0.30323 -0.09933,0.55417 -0.29799,0.75282c-0.1882,0.19865 -0.43914,0.298 -0.75282,0.298c-0.30323,0 -0.54893,-0.09933 -0.73713,-0.29799c-0.17776,-0.19865 -0.26662,-0.44959 -0.26662,-0.75282v-10.91588c0,-0.32413 0.10455,-0.59598 0.31367,-0.81555c0.21957,-0.21957 0.49142,-0.32935 0.81555,-0.32935c0.17775,0 0.36073,0.0366 0.54894,0.10979c0.1882,0.06273 0.32412,0.16207 0.40778,0.298l7.13611,9.11226l-0.31367,0.21957v-8.68879c0,-0.30322 0.0941,-0.55416 0.28231,-0.75282c0.1882,-0.19865 0.43914,-0.29799 0.75282,-0.29799zM319.57949,186.50868c-0.35549,0 -0.64826,-0.10978 -0.87829,-0.32935c-0.21957,-0.21957 -0.32935,-0.49143 -0.32935,-0.81555v-10.85315h2.43098v10.85315c0,0.32412 -0.11501,0.59598 -0.34504,0.81555c-0.23002,0.21957 -0.52279,0.32936 -0.87829,0.32936zM315.43899,175.56143c-0.32413,0 -0.59598,-0.09933 -0.81555,-0.29799c-0.21957,-0.20911 -0.32935,-0.47574 -0.32935,-0.79987c0,-0.32413 0.10979,-0.58029 0.32936,-0.7685c0.21957,-0.19865 0.49142,-0.29799 0.81555,-0.29799h8.31238c0.32413,0 0.59598,0.09933 0.81555,0.298c0.21957,0.19866 0.32936,0.46005 0.32936,0.78419c0,0.32413 -0.10978,0.58552 -0.32935,0.78419c-0.21957,0.19866 -0.49142,0.298 -0.81555,0.298z" fill="url(#color-2)" stroke="none" stroke-width="1" stroke-linecap="square" stroke-linejoin="miter"/></g></g></svg>