<svg version="1.1" xmlns="http://www.w3.org/2000/svg" xmlns:xlink="http://www.w3.org/1999/xlink" width="41.88683" height="18.15826" viewBox="0,0,41.88683,18.15826"><g transform="translate(-219.05658,-170.92087)"><g data-paper-data="{&quot;isPaintingLayer&quot;:true}" fill="#0e0e0f" fill-rule="nonzero" stroke="none" stroke-width="0" stroke-linecap="butt" stroke-linejoin="miter" stroke-miterlimit="10" stroke-dasharray="" stroke-dashoffset="0" style="mix-blend-mode: normal"><path d="M223.25927,173.02191c0,-0.67523 3.19348,-2.86624 4.68612,-1.82489c1.33762,0.9332 1.5349,3.92285 3.68625,3.61172c2.66699,-0.38571 6.27587,-1.05154 9.71582,-1.05154c6.76755,0 12.51893,3.74132 14.33579,5.03843c0.6829,0.48755 3.20633,-0.15195 3.20633,0.40275c0,0.22582 1.53557,0.29259 1.98356,0.66289c0.57269,0.47337 -2.53312,1.84446 -2.86261,2.08601c-1.73028,1.26848 -10.25725,2.69227 -17.20913,2.69227c-4.63462,0 -7.79675,-2.59123 -13.46057,-5.26156c-1.06653,-0.50283 -3.17349,-3.49283 -4.11034,-3.94732c-1.78113,-0.86408 -3.30531,-0.39643 -4.05137,-1.16074c-0.96437,-0.98796 4.08016,-0.78034 4.08016,-1.24803z" data-paper-data="{&quot;index&quot;:null}"/><path d="M240.46448,179.97757c2.9575,3.59692 7.90354,7.3223 7.24603,7.86292c-0.44074,0.36239 -1.91092,2.26979 -3.71785,0.49174c-0.88868,-0.87447 -9.46631,-5.5864 -10.44132,-6.77222c-2.9575,-3.59692 -0.12021,-2.40477 0.5373,-2.94539c0.6575,-0.54062 3.41835,-2.23398 6.37585,1.36293z" data-paper-data="{&quot;index&quot;:null}"/></g></g></svg>