<svg version="1.1" xmlns="http://www.w3.org/2000/svg" xmlns:xlink="http://www.w3.org/1999/xlink" width="51.81665" height="51.81832" viewBox="0,0,51.81665,51.81832"><g transform="translate(-213.96661,-154.09001)"><g data-paper-data="{&quot;isPaintingLayer&quot;:true}" fill-rule="nonzero" stroke-linecap="butt" stroke-linejoin="miter" stroke-miterlimit="10" stroke-dashoffset="0" style="mix-blend-mode: normal"><path d="M214.96663,198.72527c0,-11.25908 0,-34.36061 0,-38.83371c0,-1.96596 2.20029,-4.88183 5.04715,-4.79986c6.01019,0.17305 28.98107,0 38.72378,0c3.13463,0 5.92554,1.84509 6.0457,4.68375c0.21175,5.00233 0,27.097 0,38.60767c0,3.94876 -2.69927,6.52521 -6.79115,6.52521c-11.1123,0 -32.49513,0 -37.97835,0c-2.51898,0 -5.04715,-2.43555 -5.04715,-6.18307z" fill="#0a0d10" stroke="#ecc038" stroke-width="2" stroke-dasharray=""/><path d="M233.98859,193.61614c-0.76283,-0.11895 -1.51645,-0.29093 -2.25536,-0.51468" fill="none" stroke="#000000" stroke-width="3" stroke-dasharray=""/><path d="M247.78678,182.06175c0.73058,-0.24785 1.48135,-0.43167 2.24379,-0.54938" fill="none" stroke="#000000" stroke-width="3" stroke-dasharray=""/><g fill="none" stroke="#ecc038"><path d="M231.77372,193.05519c-0.02249,0.02204 -0.05848,0.02204 -0.08096,0c-0.5783,-0.64191 -6.7603,-7.65088 -6.7603,-12.29461c0,-5.74828 3.75893,-7.07836 6.80078,-7.07836c2.79896,0 6.39597,1.50358 6.39597,7.07836c0,4.79409 -5.81767,11.66426 -6.35549,12.29461z" stroke-width="3" stroke-dasharray=""/><path d="M228.78392,179.50568c0,-1.51708 1.22984,-2.74691 2.74691,-2.74691c1.51708,0 2.74691,1.22984 2.74691,2.74691c0,1.51708 -1.22984,2.74691 -2.74691,2.74691c-1.51708,0 -2.74691,-1.22984 -2.74691,-2.74691z" stroke-width="1.5" stroke-dasharray=""/><path d="M250.07105,181.4661c-0.02443,0.02277 -0.06231,0.02277 -0.08674,0c-0.50312,-0.5783 -5.31456,-6.04321 -5.31456,-9.6807c0,-4.53385 2.96088,-5.58057 5.36082,-5.58057c2.20332,0 5.03697,1.15659 5.03697,5.58057c0,3.75315 -4.52229,9.12554 -4.99649,9.6807z" stroke-width="3" stroke-dasharray=""/><path d="M247.70003,171.37481c0,-1.1977 0.97092,-2.16861 2.16862,-2.16861c1.1977,0 2.16861,0.97092 2.16861,2.16861c0,1.1977 -0.97092,2.16862 -2.16861,2.16862c-1.1977,0 -2.16862,-0.97092 -2.16862,-2.16862z" stroke-width="1.5" stroke-dasharray=""/><path d="M246.99451,182.33933c-1.04371,0.40868 -2.00841,0.99572 -2.85101,1.73489c-2.23223,2.00091 -0.54938,5.56322 -3.90351,8.50676c-1.18551,1.04093 -2.9551,1.27226 -4.56855,1.20286" stroke-width="3" stroke-dasharray="7.8,2.92"/></g></g></g></svg>