<svg version="1.1" xmlns="http://www.w3.org/2000/svg" xmlns:xlink="http://www.w3.org/1999/xlink" width="41.09579" height="19.92516" viewBox="0,0,41.09579,19.92516"><g transform="translate(-222.48267,-171.95927)"><g data-paper-data="{&quot;isPaintingLayer&quot;:true}" fill="#0e0e0f" fill-rule="nonzero" stroke="none" stroke-width="0" stroke-linecap="butt" stroke-linejoin="miter" stroke-miterlimit="10" stroke-dasharray="" stroke-dashoffset="0" style="mix-blend-mode: normal"><path d="M259.29513,173.69723c0.04616,0.4654 5.04557,-0.23906 4.18341,0.83925c-0.66698,0.83421 -2.22987,0.51927 -3.91703,1.55492c-0.88742,0.54473 -2.689,3.72808 -3.7007,4.33371c-5.37262,3.21627 -8.26358,6.10693 -12.87557,6.56434c-6.91794,0.6861 -15.5438,0.11082 -17.39082,-0.9807c-0.35172,-0.20786 -3.57769,-1.26573 -3.05451,-1.79331c0.40925,-0.41271 1.93074,-0.6307 1.90845,-0.85542c-0.05474,-0.55199 2.51948,-0.16466 3.15093,-0.71723c1.67997,-1.47009 7.03403,-5.76077 13.76854,-6.42868c3.42316,-0.3395 7.08013,-0.03309 9.77217,0.08752c2.17155,0.09728 2.07281,-2.89724 3.3118,-3.9579c1.38258,-1.18358 4.77671,0.68156 4.84335,1.35349z" data-paper-data="{&quot;index&quot;:null}"/><path d="M242.8604,182.31696c2.58807,-3.87123 5.50256,-2.45862 6.21021,-1.98553c0.70766,0.47309 3.41344,-0.99328 0.82537,2.87797c-0.85322,1.27626 -8.92394,6.81174 -9.72197,7.76965c-1.62263,1.94769 -3.27389,0.1947 -3.74823,-0.12241c-0.70766,-0.47309 3.84656,-4.66843 6.43463,-8.53968z" data-paper-data="{&quot;index&quot;:null}"/></g></g></svg>