<svg version="1.1" xmlns="http://www.w3.org/2000/svg" xmlns:xlink="http://www.w3.org/1999/xlink" width="23.12141" height="12.29243" viewBox="0,0,23.12141,12.29243"><g transform="translate(-228.4393,-173.85378)"><g data-paper-data="{&quot;isPaintingLayer&quot;:true}" fill-opacity="0.35307" fill="#2e4554" fill-rule="nonzero" stroke="none" stroke-width="0" stroke-linecap="butt" stroke-linejoin="miter" stroke-miterlimit="10" stroke-dasharray="" stroke-dashoffset="0" style="mix-blend-mode: normal"><path d="M240.17894,174.27618c1.30285,0 1.39306,1.05043 2.54441,1.88634c1.08476,0.78757 3.91151,0.92654 4.5093,1.47917c0.12179,0.11259 1.13357,-2.46093 2.8763,-3.47851c2.27365,-1.32757 1.27557,1.85031 0.96613,5.0959c-0.32008,3.35717 0.22317,7.41035 -1.79223,5.69702c-0.81144,-0.68982 -1.78152,-3.43291 -1.91557,-3.29772c-1.06066,1.06965 -1.6481,0.94975 -3.88864,1.08646c-0.68495,0.04179 1.18769,3.39858 0.64969,3.40138c-0.44892,0.00234 -4.62564,-2.58051 -5.19823,-2.56137c-4.7914,0.16023 -10.1535,0.41896 -10.45406,-3.83116c-0.24647,-3.48518 0.71351,-4.65867 3.89815,-5.26208c1.54732,-0.29317 2.79017,0.24706 4.41739,-0.11784c0.16833,-0.03775 0.70609,-0.1731 1.7232,-0.22659c0.98005,-0.05155 1.66417,0.12901 1.66417,0.12901z"/></g></g></svg>