<svg version="1.1" xmlns="http://www.w3.org/2000/svg" xmlns:xlink="http://www.w3.org/1999/xlink" width="28.53449" height="18.27245" viewBox="0,0,28.53449,18.27245"><g transform="translate(-225.73275,-170.86377)"><g data-paper-data="{&quot;isPaintingLayer&quot;:true}" fill="#0e0e0f" fill-rule="nonzero" stroke="none" stroke-width="0" stroke-linecap="butt" stroke-linejoin="miter" stroke-miterlimit="10" stroke-dasharray="" stroke-dashoffset="0" style="mix-blend-mode: normal"><path d="M252.87814,174.22412c-0.63942,0.45449 -1.86005,4.74884 -2.58797,5.25167c-3.86564,2.67033 -7.19985,5.42004 -9.58753,7.10939c-2.30441,1.63043 -3.96797,0.36558 -7.0538,1.72045c-1.57396,0.69106 -8.18562,-0.29243 -7.90757,-0.62917c0.30576,-0.3703 1.34218,-3.91533 1.34218,-4.14115c0,-0.5547 3.39651,-4.15433 3.8626,-4.64188c1.24003,-1.29711 5.16543,-5.03843 9.78439,-5.03843c2.34782,0 4.81093,0.66583 6.63119,1.05154c1.46833,0.31113 0.13452,-2.56982 1.04747,-3.50302c1.01875,-1.04135 4.26632,-0.37208 4.26632,0.30315c0,0 0.45666,0.43946 0.75941,0.59329c0.44339,0.22529 0.79193,0.23004 0.82964,0.57307c0.07473,0.67982 -1.38633,1.35109 -1.38633,1.35109z"/><path d="M241.36173,179.22488c1.11804,-4.35903 3.27456,-3.6475 3.81839,-3.34806c0.54384,0.29944 2.11403,-1.74476 0.99599,2.61428c-0.36858,1.43707 -4.20399,4.31774 -4.58539,5.43226c-0.77551,2.26613 -2.14545,0.06583 -2.50999,-0.13489c-0.54384,-0.29944 1.16297,-0.20456 2.28101,-4.5636z"/><path d="M247.62713,184.19057c0,2.97153 -1.61289,4.94565 -2.75567,4.94565c-1.14278,0 -0.84874,-2.84369 -0.84874,-5.81522c0,-2.97153 0.39242,-4.51087 1.53521,-4.51087c1.14278,0 2.06919,2.4089 2.06919,5.38043z"/></g></g></svg>