<svg version="1.1" xmlns="http://www.w3.org/2000/svg" xmlns:xlink="http://www.w3.org/1999/xlink" width="491.64558" height="350.09531" viewBox="0,0,491.64558,350.09531"><defs><linearGradient x1="240.04521" y1="-0.78562" x2="240.04521" y2="56.21444" gradientUnits="userSpaceOnUse" id="color-1"><stop offset="0" stop-color="#0a0d10"/><stop offset="1" stop-color="#0a0d10" stop-opacity="0"/></linearGradient></defs><g transform="translate(5.77758,0.78556)"><g data-paper-data="{&quot;isPaintingLayer&quot;:true}" fill-rule="nonzero" stroke-linejoin="miter" stroke-miterlimit="10" stroke-dasharray="" stroke-dashoffset="0" style="mix-blend-mode: normal"><path d="M25.17857,336.45764c0,-10.82538 0,-26.43947 0,-38.55634c0,-6.65168 0,-9.67903 0,-12.85211c0,-8.08964 6.65171,-13.95373 14.30345,-13.95373c37.65105,0 323.32588,0 397.68882,0c11.23853,0 17.65059,9.26501 17.65059,16.52415c0,7.69349 0,25.50772 0,40.02514c0,11.94926 -6.41187,21.66499 -17.65059,21.66499c-74.45439,0 -360.74987,0 -398.03614,0c-7.86328,0 -13.95612,-5.24314 -13.95612,-12.85211z" fill="#0a0d10" stroke="none" stroke-width="0" stroke-linecap="butt"/><path d="M-5.77758,56.21444v-57h491.64558v57z" fill="url(#color-1)" stroke="none" stroke-width="0" stroke-linecap="butt"/><path d="M142.88218,24.30318c-0.40565,0 -0.74157,-0.12676 -1.00777,-0.38029c-0.25353,-0.2662 -0.38029,-0.59579 -0.38029,-0.98876c0,-0.39297 0.12676,-0.70988 0.38029,-0.95073c0.2662,-0.25353 0.60213,-0.38029 1.00777,-0.38029h3.93601c0.39297,0 0.72255,0.1331 0.98876,0.39931c0.2662,0.2662 0.39931,0.59579 0.39931,0.98876c0,0.38029 -0.1331,0.6972 -0.39931,0.95073c-0.2662,0.24085 -0.59579,0.36128 -0.98876,0.36128zM163.2305,17.59103l-4.88674,11.52282c-0.11409,0.29156 -0.27888,0.51973 -0.49438,0.68452c-0.2155,0.15212 -0.45635,0.22817 -0.72255,0.22817c-0.40565,0 -0.70988,-0.11409 -0.9127,-0.34226c-0.19015,-0.22817 -0.28522,-0.50705 -0.28522,-0.83664c0,-0.13944 0.02535,-0.28522 0.07606,-0.43733l5.64732,-13.57639c0.11409,-0.30423 0.29789,-0.53875 0.55142,-0.70354c0.25353,-0.16479 0.51973,-0.23451 0.79861,-0.20916c0.27888,0 0.53241,0.0824 0.76058,0.24719c0.24085,0.15212 0.41198,0.37395 0.51339,0.66551l5.59028,13.31019c0.07606,0.19015 0.11409,0.37395 0.11409,0.55142c0,0.40565 -0.1331,0.72889 -0.39931,0.96974c-0.2662,0.24085 -0.55776,0.36128 -0.87467,0.36128c-0.2662,0 -0.51339,-0.0824 -0.74157,-0.24719c-0.2155,-0.16479 -0.38663,-0.39297 -0.51339,-0.68452l-4.86772,-11.3707zM159.0473,26.35676l1.23595,-2.62401h6.1417l0.41832,2.62401zM182.92942,14.79593c0.39297,0.19015 0.62114,0.50072 0.68452,0.93171c0.06338,0.41832 -0.04437,0.80495 -0.32325,1.15989c-0.20282,0.2662 -0.46269,0.41832 -0.7796,0.45635c-0.30423,0.02535 -0.61481,-0.03803 -0.93171,-0.19015c-0.35494,-0.16479 -0.73523,-0.29156 -1.14087,-0.38029c-0.40565,-0.08873 -0.82397,-0.1331 -1.25496,-0.1331c-0.82397,0 -1.55919,0.12676 -2.20569,0.38029c-0.63382,0.25353 -1.1789,0.62114 -1.63525,1.10284c-0.45635,0.46902 -0.80495,1.03313 -1.0458,1.6923c-0.22817,0.64649 -0.34226,1.36271 -0.34226,2.14864c0,0.92537 0.1331,1.73032 0.39931,2.41485c0.2662,0.67185 0.63382,1.23595 1.10284,1.6923c0.46902,0.45635 1.02045,0.79861 1.65427,1.02679c0.63382,0.2155 1.32468,0.32325 2.07259,0.32325c0.40565,0 0.81129,-0.03803 1.21693,-0.11409c0.40565,-0.07606 0.79861,-0.2155 1.1789,-0.41832c0.31691,-0.15212 0.62748,-0.20282 0.93171,-0.15212c0.31691,0.03803 0.58311,0.19649 0.79861,0.47536c0.30423,0.38029 0.41198,0.77326 0.32325,1.1789c-0.07606,0.39297 -0.30423,0.67818 -0.68452,0.85565c-0.39297,0.20282 -0.79861,0.36762 -1.21693,0.49438c-0.41832,0.12676 -0.84298,0.22183 -1.27397,0.28522c-0.41832,0.07606 -0.84298,0.11409 -1.27397,0.11409c-1.09017,0 -2.12329,-0.17113 -3.09937,-0.51339c-0.97608,-0.35494 -1.85075,-0.86833 -2.62401,-1.54018c-0.76058,-0.68452 -1.36271,-1.54018 -1.80638,-2.56696c-0.43099,-1.02679 -0.64649,-2.21203 -0.64649,-3.55572c0,-1.16623 0.19649,-2.23738 0.58945,-3.21346c0.40565,-0.98876 0.97608,-1.83807 1.71131,-2.54795c0.73523,-0.72255 1.59722,-1.28665 2.58598,-1.6923c1.00143,-0.40565 2.09794,-0.60847 3.28952,-0.60847c0.65917,0 1.30566,0.07606 1.93948,0.22817c0.63382,0.15212 1.23595,0.37395 1.80638,0.66551zM187.48605,14.01633c0.36762,0 0.69086,0.1331 0.96974,0.39931c0.27888,0.2662 0.41832,0.59579 0.41832,0.98876v13.12004c0,0.39297 -0.14578,0.72255 -0.43733,0.98876c-0.29156,0.2662 -0.62114,0.39931 -0.98876,0.39931c-0.43099,0 -0.77326,-0.1331 -1.02679,-0.39931c-0.25353,-0.2662 -0.38029,-0.59579 -0.38029,-0.98876v-13.12004c0,-0.39297 0.1331,-0.72255 0.39931,-0.98876c0.27888,-0.2662 0.62748,-0.39931 1.0458,-0.39931zM197.54474,14.01633c0.41832,0 0.75424,0.1331 1.00777,0.39931c0.2662,0.2662 0.39931,0.59579 0.39931,0.98876v13.12004c0,0.39297 -0.1331,0.72255 -0.39931,0.98876c-0.2662,0.2662 -0.61481,0.39931 -1.0458,0.39931c-0.36762,0 -0.69086,-0.1331 -0.96974,-0.39931c-0.27888,-0.2662 -0.41832,-0.59579 -0.41832,-0.98876v-13.12004c0,-0.39297 0.13944,-0.72255 0.41832,-0.98876c0.29156,-0.2662 0.62748,-0.39931 1.00777,-0.39931zM187.40999,20.63336h10.13476v2.60499h-10.13476zM205.19784,28.52443c0,0.39297 -0.14578,0.72255 -0.43733,0.98876c-0.29156,0.2662 -0.62114,0.39931 -0.98876,0.39931c-0.43099,0 -0.77326,-0.1331 -1.02679,-0.39931c-0.25353,-0.2662 -0.38029,-0.59579 -0.38029,-0.98876v-13.12004c0,-0.39297 0.1331,-0.72255 0.39931,-0.98876c0.27888,-0.2662 0.62748,-0.39931 1.0458,-0.39931c0.36762,0 0.69086,0.1331 0.96974,0.39931c0.27888,0.2662 0.41832,0.59579 0.41832,0.98876zM209.97714,14.01633h7.60582c0.39297,0 0.72255,0.12676 0.98876,0.38029c0.2662,0.25353 0.39931,0.57678 0.39931,0.96974c0,0.36762 -0.1331,0.67185 -0.39931,0.9127c-0.2662,0.24085 -0.59579,0.36128 -0.98876,0.36128h-6.35086l0.20916,-0.39931v4.43039l-0.19015,-0.19015h5.32407c0.39297,0 0.71621,0.12676 0.96974,0.38029c0.2662,0.25353 0.39931,0.57678 0.39931,0.96974c0,0.38029 -0.1331,0.69086 -0.39931,0.93171c-0.25353,0.22817 -0.57678,0.34226 -0.96974,0.34226h-5.24802l0.11409,-0.19015v4.58251l-0.19015,-0.19015h6.33185c0.39297,0 0.72255,0.1331 0.98876,0.39931c0.2662,0.25353 0.39931,0.55776 0.39931,0.9127c0,0.38029 -0.1331,0.69086 -0.39931,0.93171c-0.2662,0.24085 -0.59579,0.36128 -0.98876,0.36128h-7.60582c-0.39297,0 -0.72255,-0.1331 -0.98876,-0.39931c-0.25353,-0.2662 -0.38029,-0.59579 -0.38029,-0.98876v-13.12004c0,-0.39297 0.12676,-0.72255 0.38029,-0.98876c0.2662,-0.2662 0.59579,-0.39931 0.98876,-0.39931zM233.19328,13.9783c0.38029,0 0.70988,0.12676 0.98876,0.38029c0.27888,0.24085 0.41832,0.55142 0.41832,0.93171c0,0.20282 -0.04437,0.40565 -0.1331,0.60847l-5.60929,13.12004c-0.13944,0.30423 -0.33592,0.53241 -0.58945,0.68452c-0.25353,0.13944 -0.50705,0.20916 -0.76058,0.20916c-0.24085,-0.01267 -0.47536,-0.08873 -0.70354,-0.22817c-0.22817,-0.15212 -0.39931,-0.36128 -0.51339,-0.62748l-5.60929,-13.17708c-0.0507,-0.08873 -0.0824,-0.18381 -0.09507,-0.28522c-0.01267,-0.10141 -0.01901,-0.19649 -0.01901,-0.28522c0,-0.43099 0.15846,-0.76058 0.47536,-0.98876c0.31691,-0.24085 0.62114,-0.36128 0.9127,-0.36128c0.57044,0 0.98242,0.29156 1.23595,0.87467l4.98181,11.69395l-0.79861,0.01901l4.56349,-11.71296c0.25353,-0.57044 0.67185,-0.85565 1.25496,-0.85565zM238.35636,14.01633h7.60582c0.39297,0 0.72255,0.12676 0.98876,0.38029c0.2662,0.25353 0.39931,0.57678 0.39931,0.96974c0,0.36762 -0.1331,0.67185 -0.39931,0.9127c-0.2662,0.24085 -0.59579,0.36128 -0.98876,0.36128h-6.35086l0.20916,-0.39931v4.43039l-0.19015,-0.19015h5.32407c0.39297,0 0.71621,0.12676 0.96974,0.38029c0.2662,0.25353 0.39931,0.57678 0.39931,0.96974c0,0.38029 -0.1331,0.69086 -0.39931,0.93171c-0.25353,0.22817 -0.57678,0.34226 -0.96974,0.34226h-5.24802l0.11409,-0.19015v4.58251l-0.19015,-0.19015h6.33185c0.39297,0 0.72255,0.1331 0.98876,0.39931c0.2662,0.25353 0.39931,0.55776 0.39931,0.9127c0,0.38029 -0.1331,0.69086 -0.39931,0.93171c-0.2662,0.24085 -0.59579,0.36128 -0.98876,0.36128h-7.60582c-0.39297,0 -0.72255,-0.1331 -0.98876,-0.39931c-0.25353,-0.2662 -0.38029,-0.59579 -0.38029,-0.98876v-13.12004c0,-0.39297 0.12676,-0.72255 0.38029,-0.98876c0.2662,-0.2662 0.59579,-0.39931 0.98876,-0.39931zM251.39971,13.99732c0.20282,0 0.42466,0.05704 0.66551,0.17113c0.24085,0.11409 0.41832,0.25986 0.53241,0.43733l5.51422,8.4995l-1.14087,-0.05704l5.66634,-8.44246c0.27888,-0.40565 0.64649,-0.60847 1.10284,-0.60847c0.36762,0 0.69086,0.1331 0.96974,0.39931c0.29156,0.25353 0.43733,0.58311 0.43733,0.98876v13.13905c0,0.39297 -0.12676,0.72255 -0.38029,0.98876c-0.25353,0.2662 -0.59579,0.39931 -1.02679,0.39931c-0.41832,0 -0.76058,-0.1331 -1.02679,-0.39931c-0.2662,-0.2662 -0.39931,-0.59579 -0.39931,-0.98876v-10.68618l0.89368,0.20916l-4.63955,7.0544c-0.13944,0.16479 -0.31057,0.31057 -0.51339,0.43733c-0.20282,0.11409 -0.41198,0.16479 -0.62748,0.15212c-0.19015,0.01267 -0.38663,-0.03803 -0.58945,-0.15212c-0.20282,-0.12676 -0.37395,-0.27254 -0.51339,-0.43733l-4.33532,-6.86425l0.58945,-1.19792v11.48479c0,0.39297 -0.12043,0.72255 -0.36128,0.98876c-0.24085,0.2662 -0.55776,0.39931 -0.95073,0.39931c-0.38029,0 -0.69086,-0.1331 -0.93171,-0.39931c-0.24085,-0.2662 -0.36128,-0.59579 -0.36128,-0.98876v-13.13905c0,-0.38029 0.13944,-0.70354 0.41832,-0.96974c0.27888,-0.27888 0.61481,-0.41832 1.00777,-0.41832zM269.93674,14.01633h7.60582c0.39297,0 0.72255,0.12676 0.98876,0.38029c0.2662,0.25353 0.39931,0.57678 0.39931,0.96974c0,0.36762 -0.1331,0.67185 -0.39931,0.9127c-0.2662,0.24085 -0.59579,0.36128 -0.98876,0.36128h-6.35086l0.20916,-0.39931v4.43039l-0.19015,-0.19015h5.32407c0.39297,0 0.71621,0.12676 0.96974,0.38029c0.2662,0.25353 0.39931,0.57678 0.39931,0.96974c0,0.38029 -0.1331,0.69086 -0.39931,0.93171c-0.25353,0.22817 -0.57678,0.34226 -0.96974,0.34226h-5.24802l0.11409,-0.19015v4.58251l-0.19015,-0.19015h6.33185c0.39297,0 0.72255,0.1331 0.98876,0.39931c0.2662,0.25353 0.39931,0.55776 0.39931,0.9127c0,0.38029 -0.1331,0.69086 -0.39931,0.93171c-0.2662,0.24085 -0.59579,0.36128 -0.98876,0.36128h-7.60582c-0.39297,0 -0.72255,-0.1331 -0.98876,-0.39931c-0.25353,-0.2662 -0.38029,-0.59579 -0.38029,-0.98876v-13.12004c0,-0.39297 0.12676,-0.72255 0.38029,-0.98876c0.2662,-0.2662 0.59579,-0.39931 0.98876,-0.39931zM293.60922,14.01633c0.35494,0 0.64649,0.12043 0.87467,0.36128c0.22817,0.24085 0.34226,0.54508 0.34226,0.9127v13.23413c0,0.39297 -0.1331,0.72255 -0.39931,0.98876c-0.2662,0.2662 -0.59579,0.39931 -0.98876,0.39931c-0.19015,0 -0.39297,-0.03169 -0.60847,-0.09507c-0.20282,-0.07606 -0.35494,-0.17113 -0.45635,-0.28522l-8.91782,-11.33267l0.58945,-0.36128v10.80026c0,0.36762 -0.12043,0.67185 -0.36128,0.9127c-0.22817,0.24085 -0.53241,0.36128 -0.9127,0.36128c-0.36762,0 -0.66551,-0.12043 -0.89368,-0.36128c-0.2155,-0.24085 -0.32325,-0.54508 -0.32325,-0.9127v-13.23413c0,-0.39297 0.12676,-0.72255 0.38029,-0.98876c0.2662,-0.2662 0.59579,-0.39931 0.98876,-0.39931c0.2155,0 0.43733,0.04437 0.66551,0.1331c0.22817,0.07606 0.39297,0.19649 0.49438,0.36128l8.65162,11.04745l-0.38029,0.2662v-10.53406c0,-0.36762 0.11409,-0.67185 0.34226,-0.9127c0.22817,-0.24085 0.53241,-0.36128 0.9127,-0.36128zM303.62209,29.91248c-0.43099,0 -0.78594,-0.1331 -1.06481,-0.39931c-0.2662,-0.2662 -0.39931,-0.59579 -0.39931,-0.98876v-13.15807h2.94726v13.15807c0,0.39297 -0.13944,0.72255 -0.41832,0.98876c-0.27888,0.2662 -0.63382,0.39931 -1.06481,0.39931zM298.60225,16.6403c-0.39297,0 -0.72255,-0.12043 -0.98876,-0.36128c-0.2662,-0.25353 -0.39931,-0.57678 -0.39931,-0.96974c0,-0.39297 0.1331,-0.70354 0.39931,-0.93171c0.2662,-0.24085 0.59579,-0.36128 0.98876,-0.36128h10.07771c0.39297,0 0.72255,0.12043 0.98876,0.36128c0.2662,0.24085 0.39931,0.55776 0.39931,0.95073c0,0.39297 -0.1331,0.70988 -0.39931,0.95073c-0.2662,0.24085 -0.59579,0.36128 -0.98876,0.36128zM317.54921,30.14067c-1.05214,0 -2.00287,-0.1331 -2.85218,-0.39931c-0.84931,-0.2662 -1.66061,-0.72889 -2.43386,-1.38806c-0.20282,-0.17747 -0.35494,-0.36762 -0.45635,-0.57044c-0.10141,-0.2155 -0.15212,-0.43099 -0.15212,-0.64649c0,-0.34226 0.12043,-0.64649 0.36128,-0.9127c0.25353,-0.2662 0.57044,-0.39931 0.95073,-0.39931c0.29156,0 0.55142,0.08873 0.7796,0.2662c0.57044,0.46902 1.14087,0.8303 1.71131,1.08383c0.57044,0.24085 1.26763,0.36128 2.0916,0.36128c0.55776,0 1.07116,-0.08873 1.54018,-0.2662c0.46902,-0.17747 0.84931,-0.41198 1.14087,-0.70354c0.29156,-0.29156 0.43733,-0.62748 0.43733,-1.00777c0,-0.45635 -0.13944,-0.84298 -0.41832,-1.15989c-0.2662,-0.31691 -0.68452,-0.58311 -1.25496,-0.79861c-0.55776,-0.22817 -1.26763,-0.39931 -2.12963,-0.51339c-0.81129,-0.12676 -1.5275,-0.31057 -2.14864,-0.55142c-0.62114,-0.25353 -1.14087,-0.57044 -1.55919,-0.95073c-0.41832,-0.39297 -0.73523,-0.84931 -0.95073,-1.36905c-0.20282,-0.53241 -0.30423,-1.12186 -0.30423,-1.76835c0,-0.98876 0.25353,-1.8254 0.76058,-2.50992c0.50705,-0.6972 1.19158,-1.22961 2.05357,-1.59722c0.86199,-0.36762 1.81272,-0.55142 2.85218,-0.55142c0.98876,0 1.90146,0.15212 2.7381,0.45635c0.84931,0.29156 1.53384,0.66551 2.05357,1.12186c0.44367,0.34226 0.66551,0.74157 0.66551,1.19792c0,0.32959 -0.1331,0.63382 -0.39931,0.9127c-0.25353,0.2662 -0.55142,0.39931 -0.89368,0.39931c-0.22817,0 -0.43099,-0.06972 -0.60847,-0.20916c-0.24085,-0.20282 -0.57044,-0.39931 -0.98876,-0.58945c-0.40565,-0.19015 -0.83664,-0.3486 -1.29299,-0.47536c-0.45635,-0.12676 -0.88101,-0.19015 -1.27397,-0.19015c-0.64649,0 -1.19158,0.0824 -1.63525,0.24719c-0.44367,0.16479 -0.7796,0.39297 -1.00777,0.68452c-0.22817,0.27888 -0.34226,0.60847 -0.34226,0.98876c0,0.45635 0.1331,0.8303 0.39931,1.12186c0.2662,0.29156 0.64649,0.52607 1.14087,0.70354c0.49438,0.17747 1.09017,0.33592 1.78737,0.47536c0.9127,0.16479 1.71131,0.36128 2.39583,0.58945c0.6972,0.22817 1.26763,0.51973 1.71131,0.87467c0.45635,0.35494 0.79861,0.79861 1.02679,1.33102c0.22817,0.53241 0.34226,1.18524 0.34226,1.9585c0,0.98876 -0.27254,1.83807 -0.81763,2.54795c-0.54508,0.70988 -1.2613,1.25496 -2.14864,1.63525c-0.88734,0.38029 -1.84441,0.57044 -2.8712,0.57044zM333.18181,24.30318c-0.40565,0 -0.74157,-0.12676 -1.00777,-0.38029c-0.25353,-0.2662 -0.38029,-0.59579 -0.38029,-0.98876c0,-0.39297 0.12676,-0.70988 0.38029,-0.95073c0.2662,-0.25353 0.60213,-0.38029 1.00777,-0.38029h3.93601c0.39297,0 0.72255,0.1331 0.98876,0.39931c0.2662,0.2662 0.39931,0.59579 0.39931,0.98876c0,0.38029 -0.1331,0.6972 -0.39931,0.95073c-0.2662,0.24085 -0.59579,0.36128 -0.98876,0.36128z" fill="#e4e4e4" stroke="none" stroke-width="1" stroke-linecap="square"/><path d="M396.75,39.21439h-313.5" fill="none" stroke="#e4e4e4" stroke-width="3" stroke-linecap="round"/><path d="M220.35515,316.57578c-0.3456,0 -0.63021,-0.10672 -0.85383,-0.32018c-0.21346,-0.21346 -0.32018,-0.47774 -0.32018,-0.79284v-10.55092h2.36329v10.55092c0,0.31511 -0.11181,0.57939 -0.33543,0.79284c-0.22363,0.21346 -0.50823,0.32019 -0.85383,0.32019zM216.32994,305.93338c-0.31511,0 -0.57939,-0.09657 -0.79284,-0.28969c-0.21346,-0.20329 -0.32018,-0.46249 -0.32018,-0.77759c0,-0.31511 0.10673,-0.56413 0.32019,-0.7471c0.21346,-0.19313 0.47774,-0.28969 0.79284,-0.28969h8.08091c0.31511,0 0.57939,0.09657 0.79284,0.2897c0.21346,0.19313 0.32019,0.44724 0.32019,0.76235c0,0.31511 -0.10672,0.56922 -0.32018,0.76235c-0.21346,0.19313 -0.47774,0.2897 -0.79284,0.2897zM241.93561,303.78355c0.28461,0 0.55398,0.10673 0.8081,0.32019c0.25412,0.20329 0.38118,0.4879 0.38118,0.85383c0,0.11181 -0.02033,0.23378 -0.06099,0.36593l-3.58304,10.56617c-0.07116,0.21346 -0.20329,0.38118 -0.39642,0.50316c-0.18296,0.11181 -0.3761,0.1728 -0.57939,0.18296c-0.21346,0 -0.42183,-0.06099 -0.62512,-0.18296c-0.19313,-0.12198 -0.3456,-0.29986 -0.45741,-0.53364l-2.69871,-6.11404l0.16772,0.10673l-2.65298,6.00732c-0.11181,0.23378 -0.26936,0.41167 -0.47265,0.53365c-0.19313,0.12198 -0.39642,0.18296 -0.60988,0.18296c-0.19313,-0.01017 -0.38625,-0.07116 -0.57939,-0.18296c-0.19313,-0.12198 -0.32527,-0.28969 -0.39642,-0.50315l-3.58304,-10.56616c-0.04066,-0.13214 -0.06099,-0.25412 -0.06099,-0.36593c0,-0.36593 0.12706,-0.65054 0.38118,-0.85383c0.26428,-0.21346 0.53872,-0.32018 0.82334,-0.32018c0.23378,0 0.44724,0.06099 0.64037,0.18296c0.20329,0.11181 0.34052,0.28461 0.41167,0.5184l2.89693,8.78227l-0.39642,-0.03049l2.57675,-6.20552c0.10165,-0.21346 0.24395,-0.38117 0.42692,-0.50315c0.18296,-0.13214 0.38625,-0.19313 0.60988,-0.18296c0.23378,-0.01017 0.44217,0.05082 0.62513,0.18296c0.18296,0.12198 0.31511,0.2897 0.39642,0.50316l2.36329,5.94633l-0.28969,0.18296l2.86644,-8.67554c0.07116,-0.23378 0.20837,-0.40659 0.41167,-0.5184c0.21346,-0.12198 0.432,-0.18296 0.65563,-0.18296zM247.05771,315.46276c0,0.31511 -0.11689,0.57939 -0.35068,0.79284c-0.23378,0.21346 -0.49807,0.32019 -0.79284,0.32019c-0.3456,0 -0.62005,-0.10672 -0.82334,-0.32018c-0.20329,-0.21346 -0.30494,-0.47774 -0.30494,-0.79284v-10.52043c0,-0.31511 0.10673,-0.57939 0.32019,-0.79284c0.22363,-0.21346 0.50316,-0.32018 0.83859,-0.32018c0.29477,0 0.55398,0.10673 0.7776,0.32019c0.22363,0.21346 0.33543,0.47774 0.33543,0.79284zM256.80587,314.4412c0.31511,0 0.57939,0.10165 0.79284,0.30494c0.21346,0.20329 0.32019,0.46249 0.32019,0.7776c0,0.30494 -0.10672,0.55906 -0.32018,0.76235c-0.21346,0.19313 -0.47774,0.2897 -0.79284,0.2897h-5.91583c-0.31511,0 -0.57939,-0.10672 -0.79284,-0.32018c-0.20329,-0.21346 -0.30494,-0.47774 -0.30494,-0.79284v-10.52043c0,-0.31511 0.10673,-0.57939 0.32019,-0.79284c0.22363,-0.21346 0.50316,-0.32018 0.83859,-0.32018c0.29477,0 0.55398,0.10673 0.7776,0.32019c0.22363,0.21346 0.33543,0.47774 0.33543,0.79284v9.81907l-0.39642,-0.32018zM262.29523,315.46276c0,0.31511 -0.11689,0.57939 -0.35068,0.79284c-0.23378,0.21346 -0.49807,0.32019 -0.79284,0.32019c-0.3456,0 -0.62005,-0.10672 -0.82334,-0.32018c-0.20329,-0.21346 -0.30494,-0.47774 -0.30494,-0.79284v-10.52043c0,-0.31511 0.10673,-0.57939 0.32019,-0.79284c0.22363,-0.21346 0.50316,-0.32018 0.83859,-0.32018c0.29477,0 0.55398,0.10673 0.7776,0.32019c0.22363,0.21346 0.33543,0.47774 0.33543,0.79284zM271.03709,316.75874c-0.92499,0 -1.78898,-0.16771 -2.59199,-0.50315c-0.80301,-0.3456 -1.50945,-0.81825 -2.11933,-1.41797c-0.59971,-0.59971 -1.07237,-1.29092 -1.41797,-2.07359c-0.3456,-0.79284 -0.5184,-1.64668 -0.5184,-2.5615c0,-0.90465 0.1728,-1.7534 0.5184,-2.54624c0.3456,-0.79284 0.81825,-1.48912 1.41798,-2.08883c0.60988,-0.59971 1.31633,-1.06729 2.11934,-1.40272c0.80301,-0.3456 1.667,-0.5184 2.59199,-0.5184c0.56922,0 1.11811,0.06099 1.64668,0.18296c0.53872,0.12198 1.03171,0.30494 1.47896,0.54889c0.18296,0.10165 0.32019,0.23378 0.41167,0.39642c0.09148,0.16264 0.13723,0.33035 0.13723,0.50316c0,0.28461 -0.09657,0.54381 -0.28969,0.7776c-0.19313,0.23378 -0.44216,0.35069 -0.7471,0.35069c-0.10165,0 -0.20329,-0.01017 -0.30494,-0.03049c-0.10165,-0.03049 -0.20329,-0.07116 -0.30494,-0.12198c-0.30494,-0.13214 -0.62512,-0.23378 -0.96056,-0.30494c-0.33543,-0.07116 -0.69119,-0.10672 -1.06729,-0.10672c-0.79284,0 -1.51453,0.19822 -2.16507,0.59464c-0.65054,0.38625 -1.16894,0.90974 -1.55519,1.57045c-0.3761,0.6607 -0.56413,1.39256 -0.56413,2.19557c0,0.79284 0.18805,1.5247 0.56414,2.19557c0.38625,0.6607 0.90465,1.18927 1.55519,1.58569c0.65054,0.39642 1.37223,0.59464 2.16507,0.59464c0.35576,0 0.75218,-0.03558 1.18927,-0.10672c0.43708,-0.08131 0.79793,-0.18296 1.08254,-0.30494l-0.16771,0.54889v-3.11039l0.30494,0.27445h-2.0126c-0.31511,0 -0.57939,-0.10165 -0.79284,-0.30494c-0.21346,-0.21346 -0.32018,-0.47774 -0.32018,-0.79284c0,-0.31511 0.10673,-0.5743 0.32019,-0.77759c0.21346,-0.20329 0.47774,-0.30494 0.79284,-0.30494h2.98841c0.31511,0 0.5743,0.10673 0.7776,0.32019c0.20329,0.20329 0.30494,0.46758 0.30494,0.79284v3.8575c0,0.24395 -0.0559,0.44724 -0.16771,0.60988c-0.11181,0.15247 -0.24395,0.27445 -0.39642,0.36593c-0.55906,0.3456 -1.16894,0.62005 -1.82964,0.82334c-0.6607,0.19313 -1.3519,0.2897 -2.07359,0.2897zM278.85916,303.82929c0.29477,0 0.55398,0.10673 0.7776,0.32019c0.22363,0.21346 0.33543,0.47774 0.33543,0.79284v10.52043c0,0.31511 -0.11689,0.57939 -0.35068,0.79284c-0.23378,0.21346 -0.49807,0.32019 -0.79284,0.32019c-0.3456,0 -0.62005,-0.10672 -0.82334,-0.32018c-0.20329,-0.21346 -0.30494,-0.47774 -0.30494,-0.79284v-10.52043c0,-0.31511 0.10673,-0.57939 0.32019,-0.79284c0.22363,-0.21346 0.50316,-0.32018 0.83859,-0.32018zM286.92483,303.82929c0.33543,0 0.6048,0.10673 0.8081,0.32019c0.21346,0.21346 0.32019,0.47774 0.32019,0.79284v10.52043c0,0.31511 -0.10672,0.57939 -0.32018,0.79284c-0.21346,0.21346 -0.49299,0.32019 -0.83858,0.32019c-0.29477,0 -0.55398,-0.10672 -0.77759,-0.32018c-0.22363,-0.21346 -0.33543,-0.47774 -0.33543,-0.79284v-10.52043c0,-0.31511 0.11181,-0.57939 0.33543,-0.79284c0.23378,-0.21346 0.50316,-0.32018 0.8081,-0.32018zM278.79817,309.13524h8.12665v2.08884h-8.12664zM295.10463,316.57578c-0.3456,0 -0.63021,-0.10672 -0.85383,-0.32018c-0.21346,-0.21346 -0.32018,-0.47774 -0.32018,-0.79284v-10.55092h2.36329v10.55092c0,0.31511 -0.11181,0.57939 -0.33543,0.79284c-0.22363,0.21346 -0.50823,0.32019 -0.85383,0.32019zM291.07942,305.93338c-0.31511,0 -0.57939,-0.09657 -0.79284,-0.28969c-0.21346,-0.20329 -0.32018,-0.46249 -0.32018,-0.77759c0,-0.31511 0.10673,-0.56413 0.32019,-0.7471c0.21346,-0.19313 0.47774,-0.28969 0.79284,-0.28969h8.08091c0.31511,0 0.57939,0.09657 0.79284,0.2897c0.21346,0.19313 0.32019,0.44724 0.32019,0.76235c0,0.31511 -0.10672,0.56922 -0.32018,0.76235c-0.21346,0.19313 -0.47774,0.2897 -0.79284,0.2897z" fill="#3ecce3" stroke="none" stroke-width="1" stroke-linecap="square"/><path d="M135.62709,303.79878c0.30494,0 0.56922,0.10165 0.79284,0.30494c0.22363,0.19313 0.33543,0.44217 0.33543,0.74711c0,0.16264 -0.03558,0.32527 -0.10672,0.4879l-4.49786,10.52043c-0.11181,0.24395 -0.26936,0.42692 -0.47265,0.54889c-0.20329,0.11181 -0.40659,0.16772 -0.60988,0.16772c-0.19313,-0.01017 -0.38117,-0.07116 -0.56413,-0.18296c-0.18296,-0.12198 -0.32018,-0.28969 -0.41166,-0.50315l-4.49788,-10.56616c-0.04066,-0.07116 -0.06607,-0.14739 -0.07623,-0.2287c-0.01017,-0.08131 -0.01524,-0.15755 -0.01524,-0.2287c0,-0.3456 0.12706,-0.60988 0.38118,-0.79284c0.25412,-0.19313 0.49807,-0.28969 0.73186,-0.28969c0.45741,0 0.78776,0.23378 0.99106,0.70136l3.99473,9.37691l-0.64037,0.01525l3.65928,-9.39215c0.20329,-0.45741 0.53872,-0.68611 1.0063,-0.68611zM140.94114,315.46274c0,0.31511 -0.11689,0.57939 -0.35068,0.79284c-0.23378,0.21346 -0.49807,0.32019 -0.79284,0.32019c-0.3456,0 -0.62005,-0.10672 -0.82334,-0.32018c-0.20329,-0.21346 -0.30494,-0.47774 -0.30494,-0.79284v-10.52043c0,-0.31511 0.10673,-0.57939 0.32019,-0.79284c0.22363,-0.21346 0.50316,-0.32018 0.83859,-0.32018c0.29477,0 0.55398,0.10673 0.7776,0.32019c0.22363,0.21346 0.33543,0.47774 0.33543,0.79284zM147.76188,316.75874c-0.84366,0 -1.60601,-0.10672 -2.28705,-0.32018c-0.68104,-0.21346 -1.33157,-0.58447 -1.95162,-1.11303c-0.16264,-0.1423 -0.28461,-0.29477 -0.36593,-0.45741c-0.08131,-0.1728 -0.12198,-0.3456 -0.12198,-0.5184c0,-0.27445 0.09657,-0.5184 0.2897,-0.73186c0.20329,-0.21346 0.45741,-0.32018 0.76235,-0.32018c0.23378,0 0.44217,0.07116 0.62513,0.21346c0.45741,0.3761 0.91482,0.66578 1.37223,0.86908c0.45741,0.19313 1.01647,0.2897 1.67717,0.2897c0.44724,0 0.85892,-0.07116 1.23501,-0.21346c0.3761,-0.1423 0.68104,-0.33035 0.91482,-0.56413c0.23378,-0.23378 0.35069,-0.50315 0.35069,-0.80809c0,-0.36593 -0.11181,-0.67595 -0.33543,-0.93006c-0.21346,-0.25412 -0.54889,-0.46758 -1.0063,-0.64037c-0.44724,-0.18296 -1.01647,-0.32018 -1.70766,-0.41166c-0.65054,-0.10165 -1.22484,-0.24904 -1.72291,-0.44216c-0.49807,-0.20329 -0.91482,-0.45741 -1.25025,-0.76235c-0.33543,-0.31511 -0.58955,-0.68104 -0.76235,-1.09778c-0.16264,-0.42692 -0.24395,-0.89957 -0.24395,-1.41797c0,-0.79284 0.20329,-1.46371 0.60988,-2.0126c0.40659,-0.55906 0.95548,-0.98598 1.64668,-1.28075c0.69119,-0.29477 1.45354,-0.44216 2.28705,-0.44216c0.79284,0 1.5247,0.12198 2.19557,0.36593c0.68104,0.23378 1.22993,0.53365 1.64668,0.89958c0.35576,0.27445 0.53365,0.59464 0.53365,0.96057c0,0.26428 -0.10672,0.50823 -0.32018,0.73186c-0.20329,0.21346 -0.44216,0.32019 -0.7166,0.32019c-0.18296,0 -0.3456,-0.0559 -0.4879,-0.16771c-0.19313,-0.16264 -0.45741,-0.32018 -0.79284,-0.47265c-0.32527,-0.15247 -0.67087,-0.27953 -1.0368,-0.38117c-0.36593,-0.10165 -0.70645,-0.15247 -1.02154,-0.15247c-0.5184,0 -0.95548,0.06607 -1.31124,0.19822c-0.35576,0.13214 -0.62512,0.31511 -0.80809,0.54889c-0.18296,0.22363 -0.27445,0.4879 -0.27445,0.79284c0,0.36593 0.10673,0.66578 0.32019,0.89958c0.21346,0.23378 0.5184,0.42183 0.91482,0.56414c0.39642,0.1423 0.87416,0.26936 1.43322,0.38118c0.73186,0.13214 1.37223,0.2897 1.92112,0.47266c0.55906,0.18296 1.01647,0.41675 1.37223,0.70136c0.36593,0.28461 0.64037,0.64037 0.82334,1.06729c0.18296,0.42692 0.27445,0.9504 0.27445,1.57045c0,0.79284 -0.21854,1.47388 -0.65562,2.0431c-0.43708,0.56922 -1.01139,1.0063 -1.72291,1.31124c-0.71153,0.30494 -1.47895,0.45741 -2.30229,0.45741zM156.81583,315.46274c0,0.31511 -0.11689,0.57939 -0.35068,0.79284c-0.23378,0.21346 -0.49807,0.32019 -0.79284,0.32019c-0.3456,0 -0.62005,-0.10672 -0.82334,-0.32018c-0.20329,-0.21346 -0.30494,-0.47774 -0.30494,-0.79284v-10.52043c0,-0.31511 0.10673,-0.57939 0.32019,-0.79284c0.22363,-0.21346 0.50316,-0.32018 0.83859,-0.32018c0.29477,0 0.55398,0.10673 0.7776,0.32019c0.22363,0.21346 0.33543,0.47774 0.33543,0.79284zM163.86527,316.57576c-0.3456,0 -0.63021,-0.10672 -0.85383,-0.32018c-0.21346,-0.21346 -0.32018,-0.47774 -0.32018,-0.79284v-10.55092h2.36329v10.55092c0,0.31511 -0.11181,0.57939 -0.33543,0.79284c-0.22363,0.21346 -0.50823,0.32019 -0.85383,0.32019zM159.84006,305.93336c-0.31511,0 -0.57939,-0.09657 -0.79284,-0.28969c-0.21346,-0.20329 -0.32018,-0.46249 -0.32018,-0.77759c0,-0.31511 0.10673,-0.56413 0.32019,-0.7471c0.21346,-0.19313 0.47774,-0.28969 0.79284,-0.28969h8.08091c0.31511,0 0.57939,0.09657 0.79284,0.2897c0.21346,0.19313 0.32019,0.44724 0.32019,0.76235c0,0.31511 -0.10672,0.56922 -0.32018,0.76235c-0.21346,0.19313 -0.47774,0.2897 -0.79284,0.2897zM180.35894,316.57576c-0.3456,0 -0.63021,-0.10672 -0.85383,-0.32018c-0.21346,-0.21346 -0.32018,-0.47774 -0.32018,-0.79284v-10.55092h2.36329v10.55092c0,0.31511 -0.11181,0.57939 -0.33543,0.79284c-0.22363,0.21346 -0.50823,0.32019 -0.85383,0.32019zM176.33374,305.93336c-0.31511,0 -0.57939,-0.09657 -0.79284,-0.28969c-0.21346,-0.20329 -0.32018,-0.46249 -0.32018,-0.77759c0,-0.31511 0.10673,-0.56413 0.32019,-0.7471c0.21346,-0.19313 0.47774,-0.28969 0.79284,-0.28969h8.08091c0.31511,0 0.57939,0.09657 0.79284,0.2897c0.21346,0.19313 0.32019,0.44724 0.32019,0.76235c0,0.31511 -0.10672,0.56922 -0.32018,0.76235c-0.21346,0.19313 -0.47774,0.2897 -0.79284,0.2897zM188.59909,303.82928c0.29477,0 0.55398,0.10673 0.7776,0.32019c0.22363,0.21346 0.33543,0.47774 0.33543,0.79284v10.52043c0,0.31511 -0.11689,0.57939 -0.35068,0.79284c-0.23378,0.21346 -0.49807,0.32019 -0.79284,0.32019c-0.3456,0 -0.62005,-0.10672 -0.82334,-0.32018c-0.20329,-0.21346 -0.30494,-0.47774 -0.30494,-0.79284v-10.52043c0,-0.31511 0.10673,-0.57939 0.32019,-0.79284c0.22363,-0.21346 0.50316,-0.32018 0.83859,-0.32018zM196.66474,303.82928c0.33543,0 0.6048,0.10673 0.8081,0.32019c0.21346,0.21346 0.32019,0.47774 0.32019,0.79284v10.52043c0,0.31511 -0.10672,0.57939 -0.32018,0.79284c-0.21346,0.21346 -0.49299,0.32019 -0.83858,0.32019c-0.29477,0 -0.55398,-0.10672 -0.77759,-0.32018c-0.22363,-0.21346 -0.33543,-0.47774 -0.33543,-0.79284v-10.52043c0,-0.31511 0.11181,-0.57939 0.33543,-0.79284c0.23378,-0.21346 0.50316,-0.32018 0.8081,-0.32018zM188.5381,309.13523h8.12665v2.08884h-8.12664zM201.62744,303.82928h6.0988c0.31511,0 0.57939,0.10165 0.79284,0.30494c0.21346,0.20329 0.32019,0.46249 0.32019,0.7776c0,0.29477 -0.10672,0.53872 -0.32018,0.73186c-0.21346,0.19313 -0.47774,0.2897 -0.79284,0.2897h-5.0925l0.16772,-0.32018v3.55256l-0.15247,-0.15247h4.26916c0.31511,0 0.5743,0.10165 0.7776,0.30494c0.21346,0.20329 0.32019,0.46249 0.32019,0.7776c0,0.30494 -0.10672,0.55398 -0.32018,0.74711c-0.20329,0.18296 -0.46249,0.27445 -0.77759,0.27445h-4.20817l0.09148,-0.15247v3.67453l-0.15247,-0.15247h5.07725c0.31511,0 0.57939,0.10673 0.79284,0.32019c0.21346,0.20329 0.32019,0.44724 0.32019,0.73186c0,0.30494 -0.10672,0.55398 -0.32018,0.74711c-0.21346,0.19313 -0.47774,0.2897 -0.79284,0.2897h-6.0988c-0.31511,0 -0.57939,-0.10672 -0.79284,-0.32018c-0.20329,-0.21346 -0.30494,-0.47774 -0.30494,-0.79284v-10.52043c0,-0.31511 0.10165,-0.57939 0.30494,-0.79284c0.21346,-0.21346 0.47774,-0.32018 0.79284,-0.32018zM315.88271,303.82928c0.27445,0 0.53872,0.09657 0.79284,0.2897c0.26428,0.19313 0.39642,0.45741 0.39642,0.79284c0,0.22363 -0.0864,0.45233 -0.25919,0.68612l-6.96787,8.94999l-0.21346,-0.06099h6.0683c0.31511,0 0.57939,0.09657 0.79284,0.2897c0.21346,0.18296 0.32019,0.432 0.32019,0.74711c0,0.30494 -0.10672,0.55906 -0.32018,0.76235c-0.21346,0.19313 -0.47774,0.2897 -0.79284,0.2897h-7.98943c-0.31511,0 -0.58955,-0.11181 -0.82334,-0.33543c-0.22363,-0.22363 -0.33543,-0.46758 -0.33543,-0.73186c0,-0.23378 0.0864,-0.46758 0.2592,-0.70136l6.98312,-8.99573l0.16772,0.12198h-5.51941c-0.31511,0 -0.57939,-0.09657 -0.79284,-0.28969c-0.21346,-0.20329 -0.32018,-0.46249 -0.32018,-0.77759c0,-0.31511 0.10673,-0.56413 0.32019,-0.7471c0.21346,-0.19313 0.47774,-0.28969 0.79284,-0.28969zM330.6988,310.20252c0,0.91482 -0.15247,1.76865 -0.45741,2.5615c-0.29477,0.78268 -0.72169,1.47388 -1.28075,2.07359c-0.54889,0.59971 -1.20451,1.07237 -1.96686,1.41798c-0.75218,0.33543 -1.57552,0.50316 -2.47001,0.50316c-0.90465,0 -1.73307,-0.16771 -2.48526,-0.50315c-0.75218,-0.3456 -1.40781,-0.81825 -1.96686,-1.41797c-0.54889,-0.59971 -0.97581,-1.29092 -1.28075,-2.07359c-0.29477,-0.79284 -0.44216,-1.64668 -0.44216,-2.5615c0,-0.90465 0.14739,-1.7534 0.44217,-2.54624c0.30494,-0.79284 0.73186,-1.48912 1.28075,-2.08883c0.55906,-0.59971 1.21468,-1.06729 1.96687,-1.40272c0.75218,-0.3456 1.5806,-0.5184 2.48527,-0.5184c0.89449,0 1.71783,0.1728 2.47001,0.5184c0.76235,0.33543 1.41798,0.80301 1.96687,1.40272c0.55906,0.59971 0.98598,1.296 1.28075,2.08884c0.30494,0.79284 0.45741,1.64159 0.45741,2.54625zM328.33552,310.20252c0,-0.81317 -0.16264,-1.55011 -0.4879,-2.21081c-0.32527,-0.6607 -0.77252,-1.18418 -1.34174,-1.57044c-0.56922,-0.38625 -1.22993,-0.57939 -1.98211,-0.57939c-0.76235,0 -1.42813,0.19313 -1.99735,0.57939c-0.56922,0.38625 -1.01647,0.90974 -1.34174,1.57045c-0.31511,0.65054 -0.47265,1.38748 -0.47265,2.21082c0,0.81317 0.15755,1.55011 0.47266,2.21082c0.32527,0.6607 0.77252,1.18927 1.34174,1.58569c0.56922,0.38625 1.23501,0.57939 1.99736,0.57939c0.75218,0 1.41289,-0.19313 1.98211,-0.57939c0.56922,-0.39642 1.01647,-0.92499 1.34174,-1.58569c0.32527,-0.6607 0.4879,-1.39764 0.4879,-2.21081zM342.47324,303.82928c0.28461,0 0.5184,0.09657 0.70136,0.2897c0.18296,0.19313 0.27445,0.43708 0.27445,0.73186v10.61191c0,0.31511 -0.10672,0.57939 -0.32018,0.79284c-0.21346,0.21346 -0.47774,0.32019 -0.79284,0.32019c-0.15247,0 -0.31511,-0.02541 -0.4879,-0.07623c-0.16264,-0.06099 -0.28461,-0.13722 -0.36593,-0.2287l-7.15084,-9.08721l0.47266,-0.28969v8.66029c0,0.29477 -0.09657,0.53872 -0.28969,0.73186c-0.18296,0.19313 -0.42692,0.2897 -0.73186,0.2897c-0.29477,0 -0.53364,-0.09657 -0.7166,-0.28969c-0.1728,-0.19313 -0.25919,-0.43708 -0.25919,-0.73186v-10.61191c0,-0.31511 0.10165,-0.57939 0.30494,-0.79284c0.21346,-0.21346 0.47774,-0.32018 0.79284,-0.32018c0.1728,0 0.35069,0.03558 0.53365,0.10673c0.18296,0.06099 0.31511,0.15755 0.39642,0.2897l6.93739,8.85851l-0.30494,0.21346v-8.44684c0,-0.29477 0.09148,-0.53872 0.27445,-0.73186c0.18296,-0.19313 0.42692,-0.28969 0.73186,-0.28969zM347.28504,303.82928h6.0988c0.31511,0 0.57939,0.10165 0.79284,0.30494c0.21346,0.20329 0.32019,0.46249 0.32019,0.7776c0,0.29477 -0.10672,0.53872 -0.32018,0.73186c-0.21346,0.19313 -0.47774,0.2897 -0.79284,0.2897h-5.0925l0.16772,-0.32018v3.55256l-0.15247,-0.15247h4.26916c0.31511,0 0.5743,0.10165 0.7776,0.30494c0.21346,0.20329 0.32019,0.46249 0.32019,0.7776c0,0.30494 -0.10672,0.55398 -0.32018,0.74711c-0.20329,0.18296 -0.46249,0.27445 -0.77759,0.27445h-4.20817l0.09148,-0.15247v3.67453l-0.15247,-0.15247h5.07725c0.31511,0 0.57939,0.10673 0.79284,0.32019c0.21346,0.20329 0.32019,0.44724 0.32019,0.73186c0,0.30494 -0.10672,0.55398 -0.32018,0.74711c-0.21346,0.19313 -0.47774,0.2897 -0.79284,0.2897h-6.0988c-0.31511,0 -0.57939,-0.10672 -0.79284,-0.32018c-0.20329,-0.21346 -0.30494,-0.47774 -0.30494,-0.79284v-10.52043c0,-0.31511 0.10165,-0.57939 0.30494,-0.79284c0.21346,-0.21346 0.47774,-0.32018 0.79284,-0.32018z" fill="#e4e4e4" stroke="none" stroke-width="1" stroke-linecap="square"/></g></g></svg>