<svg version="1.1" xmlns="http://www.w3.org/2000/svg" xmlns:xlink="http://www.w3.org/1999/xlink" width="395.03364" height="140.03384" viewBox="0,0,395.03364,140.03384"><g transform="translate(-42.48318,-62.00002)"><g data-paper-data="{&quot;isPaintingLayer&quot;:true}" fill-rule="nonzero" stroke-linejoin="miter" stroke-miterlimit="10" stroke-dasharray="" stroke-dashoffset="0" style="mix-blend-mode: normal"><path d="M174.23893,91.81108v-28.39149h4.25872v28.39149z" fill="#2c4578" stroke="none" stroke-width="0" stroke-linecap="butt"/><path d="M96.63553,158.05789v-67.19319l147.63573,-13.24937l-0.4732,80.44255z" fill="#c2d1ed" stroke="none" stroke-width="0" stroke-linecap="butt"/><path d="M210.67468,158.53107v-96.53105h3.78552v96.53105z" fill="#2c4578" stroke="none" stroke-width="0" stroke-linecap="butt"/><path d="M42.48318,174.26101l376.0749,-0.15012l-45.42638,27.65904l-320.16276,0.26393z" fill="#a52323" stroke="none" stroke-width="0" stroke-linecap="butt"/><path d="M42.48318,174.24346v-21.35987c0,0 152.56581,2.22768 262.64113,-1.3882c53.57019,-1.75973 117.87218,-10.83615 128.35563,-10.81974c14.55619,0.02278 -14.9333,33.58217 -14.9333,33.58217z" fill="#2c4578" stroke="none" stroke-width="0" stroke-linecap="butt"/><path d="M360.20317,159.95065v-27.92297l13.01277,-7.09787v31.86624z" fill="#2c4578" stroke="none" stroke-width="0" stroke-linecap="butt"/><path d="M213.51382,62.94641l147.63573,69.55914" fill="none" stroke="#2c4578" stroke-width="1.5" stroke-linecap="round"/><path d="M169.98021,68.1515h11.8298" fill="none" stroke="#2c4578" stroke-width="1.5" stroke-linecap="round"/><g fill="none" stroke-width="5"><path d="M103.28304,164.05099c0,-7.44149 6.03252,-13.47403 13.47403,-13.47403c7.44149,0 13.47403,6.03254 13.47403,13.47403c0,7.44149 -6.03254,13.47403 -13.47403,13.47403c-7.44149,0 -13.47403,-6.03252 -13.47403,-13.47403z" stroke="#ff9368" stroke-linecap="butt"/><path d="M108.48849,149.60205l2.33343,4.30785" stroke="#ffffff" stroke-linecap="round"/><path d="M130.38677,154.44839l-3.76937,3.0514" stroke="#ffffff" stroke-linecap="round"/><path d="M102.74468,172.7568l4.12836,-2.87191" stroke="#ffffff" stroke-linecap="round"/><path d="M122.13006,172.21831l3.41039,5.20532" stroke="#ffffff" stroke-linecap="round"/></g><g fill="#2c4578" stroke="none" stroke-width="0" stroke-linecap="butt"><path d="M129.69946,117.83659c0,-4.20005 3.40481,-7.60486 7.60486,-7.60486c4.20005,0 7.60486,3.40481 7.60486,7.60486c0,4.20005 -3.40481,7.60486 -7.60486,7.60486c-4.20005,0 -7.60486,-3.40481 -7.60486,-7.60486z"/><path d="M156.40098,117.83659c0,-4.20005 3.40481,-7.60487 7.60486,-7.60487c4.20005,0 7.60487,3.40481 7.60487,7.60487c0,4.20005 -3.40481,7.60487 -7.60487,7.60487c-4.20005,0 -7.60486,-3.40481 -7.60486,-7.60487z"/><path d="M181.75052,117.83659c0,-4.20005 3.40481,-7.60487 7.60486,-7.60487c4.20005,0 7.60487,3.40481 7.60487,7.60487c0,4.20005 -3.40481,7.60487 -7.60487,7.60487c-4.20005,0 -7.60486,-3.40481 -7.60486,-7.60487z"/></g><path d="M123.60744,101.19604v-27.92297l13.01276,-7.09787v31.86624z" fill="#c2d1ed" stroke="none" stroke-width="0" stroke-linecap="butt"/></g></g></svg>