<svg version="1.1" xmlns="http://www.w3.org/2000/svg" xmlns:xlink="http://www.w3.org/1999/xlink" width="660.85163" height="534.70919" viewBox="0,0,660.85163,534.70919"><defs><linearGradient x1="324.31362" y1="193.06857" x2="324.31362" y2="42.92273" gradientUnits="userSpaceOnUse" id="color-1"><stop offset="0" stop-color="#000000"/><stop offset="1" stop-color="#070b0d"/></linearGradient><linearGradient x1="456.17787" y1="208.77164" x2="435.2262" y2="29.39086" gradientUnits="userSpaceOnUse" id="color-2"><stop offset="0" stop-color="#000000"/><stop offset="1" stop-color="#070b0d"/></linearGradient></defs><g transform="translate(116.00375,86.26441)"><g data-paper-data="{&quot;isPaintingLayer&quot;:true}" fill-rule="nonzero" stroke="none" stroke-linecap="butt" stroke-linejoin="miter" stroke-miterlimit="10" stroke-dasharray="" stroke-dashoffset="0" style="mix-blend-mode: normal"><path d="" data-paper-data="{&quot;index&quot;:null}" fill="#06090b" stroke-width="0"/><path d="" data-paper-data="{&quot;index&quot;:null}" fill="#06090b" stroke-width="0"/><path d="" data-paper-data="{&quot;index&quot;:null}" fill="#000000" stroke-width="0"/><path d="" data-paper-data="{&quot;index&quot;:null}" fill="url(#color-1)" stroke-width="0"/><path d="" data-paper-data="{&quot;index&quot;:null}" fill="#344e5f" stroke-width="0"/><path d="" data-paper-data="{&quot;index&quot;:null}" fill="#344e5f" stroke-width="0"/><path d="" data-paper-data="{&quot;index&quot;:null}" fill="#344e5f" stroke-width="0"/><path d="" data-paper-data="{&quot;index&quot;:null}" fill="#344e5f" stroke-width="0"/><path d="" data-paper-data="{&quot;index&quot;:null}" fill="#344e5f" stroke-width="0"/><path d="" data-paper-data="{&quot;index&quot;:null}" fill="#344e5f" stroke-width="0"/><path d="" data-paper-data="{&quot;index&quot;:null}" fill="#344e5f" stroke-width="0"/><path d="" data-paper-data="{&quot;index&quot;:null}" fill="#344e5f" stroke-width="0"/><path d="" data-paper-data="{&quot;index&quot;:null}" fill="#344e5f" stroke-width="0"/><path d="" data-paper-data="{&quot;index&quot;:null}" fill="#344e5f" stroke-width="0"/><path d="" data-paper-data="{&quot;index&quot;:null}" fill="#344e5f" stroke-width="0"/><path d="" data-paper-data="{&quot;index&quot;:null}" fill="#344e5f" stroke-width="0"/><path d="" data-paper-data="{&quot;index&quot;:null}" fill="#344e5f" stroke-width="0"/><path d="" data-paper-data="{&quot;index&quot;:null}" fill="#344e5f" stroke-width="0"/><path d="" data-paper-data="{&quot;index&quot;:null}" fill="#344e5f" stroke-width="0"/><path d="" data-paper-data="{&quot;index&quot;:null}" fill="#344e5f" stroke-width="0"/><path d="" data-paper-data="{&quot;index&quot;:null}" fill="#344e5f" stroke-width="0"/><path d="" data-paper-data="{&quot;index&quot;:null}" fill="#344e5f" stroke-width="0"/><path d="" data-paper-data="{&quot;index&quot;:null}" fill="#344e5f" stroke-width="0"/><path d="" data-paper-data="{&quot;index&quot;:null}" fill="#344e5f" stroke-width="0"/><path d="" data-paper-data="{&quot;index&quot;:null}" fill="#344e5f" stroke-width="0"/><path d="" fill="#000000" stroke-width="0.5"/><path d="M-116.00375,448.44478v-534.70919z" fill="none" stroke-width="0"/><path d="" data-paper-data="{&quot;index&quot;:null}" fill="#000000" stroke-width="0"/><path d="" data-paper-data="{&quot;index&quot;:null}" fill="#000000" stroke-width="0"/><path d="M-54.14349,411.50067l-40.92769,-55.93452c0,0 4.01146,-25.94912 23.59843,-38.77581c18.99257,-12.43743 16.91114,-30.76827 34.39623,-40.52575c1.49115,-17.35164 30.22279,-9.51768 32.58254,-9.51768c16.46018,0 57.09949,-1.98817 57.09949,-1.98817l14.14048,-12.40057c0,0 19.07974,-6.26535 27.35148,-0.97716c8.25934,5.28025 26.67064,-12.95345 26.67064,-12.95345c0,0 38.75125,-5.95081 46.99132,-5.61873c7.74309,0.31205 15.26362,-8.98012 25.0024,0.45872c4.36046,4.22616 6.70148,14.89723 11.24239,19.89653c6.05755,6.66905 14.35885,7.84031 20.45541,14.52804c16.34019,17.92468 32.24129,33.13035 44.59868,30.68213c5.20253,-1.03071 11.45389,10.764 19.56798,10.56178c5.71397,-0.1424 11.78062,-7.7753 17.42119,-4.42615c6.16746,3.66199 15.16215,-7.77789 17.36613,-7.75963c11.03299,0.09143 45.55917,10.66399 56.32458,11.02824c0.06777,0.00229 13.10452,4.91667 17.28419,-1.56961c4.9964,-7.75374 1.47429,-28.12057 4.39857,-42.52303c0.51825,-2.55245 4.20812,-31.96155 4.64297,-34.61848c0.80544,-4.92125 -2.15259,-12.46063 -1.3775,-17.19891c5.04188,-30.82232 2.88152,-38.81557 4.70047,-42.78651c19.29893,-42.13133 51.04034,-44.52388 53.30393,-44.58152c24.56055,-0.62534 44.45114,8.52597 56.51192,32.22793c28.45774,55.92543 25.56237,158.59224 25.56237,158.59224v96.18008z" data-paper-data="{&quot;index&quot;:null}" fill="#000000" stroke-width="0"/><path d="" data-paper-data="{&quot;index&quot;:null}" fill="#000000" stroke-width="0"/><path d="M534.5703,42.15568c2.23459,19.13176 10.41484,130.52518 6.08813,145.78956c-6.87571,24.25709 -66.52752,18.7295 -84.48055,20.82641c-16.15002,1.88633 -36.86466,10.09079 -48.83363,-8.07708c-4.02781,-6.11387 -2.49406,-20.0697 -4.52236,-31.50254c-2.86083,-16.12552 -8.5662,-30.94333 -10.08243,-43.92474c-1.50993,-12.92749 -4.54565,-89.1776 -2.93544,-100.61997c1.06504,-7.56829 -41.52923,-45.27928 -38.16711,-52.66914c11.03195,-24.24795 77.20397,-15.14312 93.7715,-17.07821c16.83056,-1.96581 59.04585,-1.50652 78.4002,19.14158c14.28224,15.23695 8.30507,47.0815 10.76168,68.11412z" fill="url(#color-2)" stroke-width="0"/></g></g></svg>