<svg version="1.1" xmlns="http://www.w3.org/2000/svg" xmlns:xlink="http://www.w3.org/1999/xlink" width="76.64562" height="16.00117" viewBox="0,0,76.64562,16.00117"><g transform="translate(-201.67719,-171.99941)"><g data-paper-data="{&quot;isPaintingLayer&quot;:true}" fill-rule="nonzero" stroke="none" stroke-width="0" stroke-linecap="butt" stroke-linejoin="miter" stroke-miterlimit="10" stroke-dasharray="" stroke-dashoffset="0" style="mix-blend-mode: normal"><path d="M211.11002,182.54302l-8.5136,3.9034l-0.77142,-1.05475l3.02047,-2.36689l-3.16828,-1.68886l0.81089,-1.10776z" data-paper-data="{&quot;index&quot;:null}" fill="#a5dee6"/><path d="M278.20983,174.89022l-0.09492,1.0783l-36.93235,10.04386c0,0 -2.23093,0.2319 -4.83262,0.50233c-0.64597,0.06715 -3.21947,-0.09825 -3.21947,-0.09825c0,0 2.52176,-1.60821 2.29874,-1.84956c-0.13977,-0.15125 -3.45031,1.92517 -3.45031,1.92517c0,0 -0.85114,0.56547 -2.07314,0.69249c-2.85313,0.29657 -7.85051,0.81602 -7.85051,0.81602c0,0 0.11411,-3.27 0.53348,-4.94894c0.04623,-0.1851 1.87724,-0.49666 1.88155,-0.6615c0.03098,-1.18517 -1.97113,-3.15075 -2.50187,-4.9457c-0.08373,-0.28315 3.77842,-1.9512 3.77842,-1.9512l-2.91505,0.35799l-0.47204,-1.87759l19.68431,-1.97423c0,0 10.30948,0.82406 17.374,1.38874c0.7974,0.06374 -5.07827,1.3711 -4.38305,1.42667c0.43255,0.03458 7.47329,-1.17967 7.85406,-1.14923c5.49925,0.43956 15.32074,1.22462 15.32074,1.22462z" data-paper-data="{&quot;index&quot;:null}" fill="#a5dee6"/><path d="M220.78399,180.54819c12.2035,-1.11936 57.393,-5.46976 57.393,-5.46976l0.14582,1.24768c0,0 -37.14757,3.60917 -53.99073,5.19688c-1.54919,0.14604 -3.40414,-0.36136 -3.40414,-0.36136c0,0 -1.75815,1.13336 -2.18059,1.17318c-4.99325,0.47069 -10.46138,0.80822 -10.46138,0.80822l2.39563,-1.0352l-2.14858,-0.11426c0,0 4.84254,-0.409 9.77614,-0.93063c0.85654,-0.09056 1.63152,-0.4374 2.47483,-0.51475z" data-paper-data="{&quot;index&quot;:null}" fill="#506b6f"/></g></g></svg>