<svg version="1.1" xmlns="http://www.w3.org/2000/svg" xmlns:xlink="http://www.w3.org/1999/xlink" width="689.77176" height="498.15173" viewBox="0,0,689.77176,498.15173"><defs><linearGradient x1="509.29545" y1="11.3643" x2="509.29545" y2="290.14856" gradientUnits="userSpaceOnUse" id="color-1"><stop offset="0" stop-color="#344e5f"/><stop offset="1" stop-color="#070b0d"/></linearGradient></defs><g transform="translate(116.60661,86.28125)"><g data-paper-data="{&quot;isPaintingLayer&quot;:true}" fill-rule="nonzero" stroke="none" stroke-width="0" stroke-linecap="butt" stroke-linejoin="miter" stroke-miterlimit="10" stroke-dasharray="" stroke-dashoffset="0" style="mix-blend-mode: normal"><path d="" data-paper-data="{&quot;index&quot;:null}" fill="#344e5f"/><path d="" data-paper-data="{&quot;index&quot;:null}" fill="#344e5f"/><path d="" data-paper-data="{&quot;index&quot;:null}" fill="#344e5f"/><path d="" data-paper-data="{&quot;index&quot;:null}" fill="#344e5f"/><path d="" data-paper-data="{&quot;index&quot;:null}" fill="#344e5f"/><path d="" data-paper-data="{&quot;index&quot;:null}" fill="#344e5f"/><path d="" data-paper-data="{&quot;index&quot;:null}" fill="#344e5f"/><path d="" data-paper-data="{&quot;index&quot;:null}" fill="#344e5f"/><path d="" data-paper-data="{&quot;index&quot;:null}" fill="#344e5f"/><path d="" data-paper-data="{&quot;index&quot;:null}" fill="#344e5f"/><path d="" data-paper-data="{&quot;index&quot;:null}" fill="#344e5f"/><path d="" data-paper-data="{&quot;index&quot;:null}" fill="#344e5f"/><path d="" data-paper-data="{&quot;index&quot;:null}" fill="#344e5f"/><path d="" data-paper-data="{&quot;index&quot;:null}" fill="#344e5f"/><path d="" data-paper-data="{&quot;index&quot;:null}" fill="#344e5f"/><path d="" data-paper-data="{&quot;index&quot;:null}" fill="#344e5f"/><path d="" data-paper-data="{&quot;index&quot;:null}" fill="#344e5f"/><path d="" data-paper-data="{&quot;index&quot;:null}" fill="#344e5f"/><path d="" data-paper-data="{&quot;index&quot;:null}" fill="#344e5f"/><path d="" data-paper-data="{&quot;index&quot;:null}" fill="#344e5f"/><path d="" data-paper-data="{&quot;index&quot;:null}" fill="#344e5f"/><path d="M428.23018,234.29317c0.38087,1.20225 -3.76392,4.47369 -6.32374,8.78989c-1.56903,2.64559 -2.14745,6.93098 -1.88547,7.7043c1.96732,5.80738 6.57744,10.3038 1.97203,11.7628c-2.38714,0.75625 -5.33577,-7.46283 -7.62153,-8.68291c-3.11652,-1.6635 2.56394,-3.4965 1.49704,-6.86424c-2.36749,-7.47309 -10.72708,-12.8899 -4.50787,-14.86016c3.3826,-1.07161 2.18967,8.52321 7.5539,6.70988c4.49839,-1.52065 8.23582,-7.96809 9.31564,-4.55957z" data-paper-data="{&quot;index&quot;:null}" fill="#10171d"/><path d="M406.89874,252.51293c-1.20727,-0.36467 -1.56624,-5.63275 -3.68253,-10.18287c-1.29716,-2.78897 -4.50704,-5.68652 -5.29318,-5.90707c-5.90363,-1.65622 -12.21794,-0.39108 -10.82104,-5.01571c0.72406,-2.3971 9.17217,-0.18868 11.46995,-1.38597c3.1329,-1.63245 1.43751,4.09059 4.81929,5.11208c7.50427,2.26671 16.69568,-1.57291 14.80929,4.67226c-1.026,3.39672 -8.27047,-3.00652 -9.80349,2.44444c-1.28558,4.57113 1.92446,11.2967 -1.49827,10.26285z" data-paper-data="{&quot;index&quot;:null}" fill="#10171d"/><path d="M415.4582,219.36508c-2.44545,12.91792 10.04836,21.75653 3.71506,20.55759c-1.59902,-0.3027 -5.66725,4.66597 -9.6751,2.30854c-1.65888,-0.97577 -3.94219,-9.06804 -5.02992,-10.02063c-1.1413,-0.99954 -0.99756,4.87535 -2.4764,4.11309c-2.6259,-1.35349 -4.61919,0.98396 -3.92486,-1.88751c0.22673,-0.93769 4.49701,-6.13805 8.387,-6.74802c0.67414,-0.10572 -2.82706,-6.18732 -5.64811,-5.99263c-1.93908,0.13382 -2.86689,6.94433 -4.67171,5.77049c-4.28609,-2.78762 1.22065,-8.41251 1.44304,-9.50678c0.21009,-1.03375 0.65816,-0.0533 3.6938,0.14967c5.9149,0.39549 9.11405,-1.82469 9.20892,-2.32587c0.15528,-0.82025 -12.81796,-0.60483 -16.78844,-3.36972c-1.24437,-0.86652 7.63032,-1.0129 8.35753,-2.39858c1.02987,-1.96238 -5.60856,-5.14782 -5.5602,-5.47901c0.73377,-5.02526 11.60609,5.27447 15.82931,4.27728c1.07213,-0.25315 -2.83625,-4.76908 -6.35312,-9.11041c-0.69921,-0.86311 -10.0122,0.04093 -10.63822,-0.77351c-0.96362,-1.25362 2.23739,-2.06064 4.0072,-3.45957c1.52282,-1.20371 1.58754,-3.06793 1.65453,-3.45099c0.31215,-1.7847 7.82964,5.88663 11.69702,7.30501c3.93981,1.44495 4.23563,-3.34405 5.09488,-3.18139c6.3333,1.19893 0.12321,10.30502 -2.32222,23.22295z" data-paper-data="{&quot;index&quot;:null}" fill="#111a1f"/><path d="M414.96732,281.81282c-0.06821,-0.0509 -0.07937,2.73709 -0.62147,5.25921c-0.39885,1.85565 -1.34687,3.59482 -1.48228,3.8137c-1.49426,2.41517 -5.77793,0.3804 -6.40733,-0.36734c-0.47026,-0.55868 5.27141,-4.26038 5.50741,-7.3287c0.28595,-3.7176 -2.38876,-5.65836 -2.44768,-6.46997c-0.09899,-1.36348 1.42558,-2.98008 1.9997,-3.74955c0.5143,-0.68931 1.89615,-0.26583 3.28778,0.33334c1.35539,0.58358 2.70242,1.34354 4.56963,0.68708c2.19147,-0.77047 2.92484,-2.12904 4.88299,-3.10968c0.7643,-0.38276 1.51039,-1.12081 3.09388,-0.89186c1.41192,0.20413 3.62442,1.34561 4.99633,1.55123c1.03138,0.15459 3.27195,-0.10809 3.2923,-0.0929c0.36529,0.27256 1.93614,0.10074 1.25763,0.96955c-0.41753,0.53465 -0.11788,0.56796 -1.2083,1.25895c-0.48039,0.30441 -1.94585,0.54319 -3.29199,0.20965c-1.01331,-0.25106 -2.50857,-1.67353 -3.42316,-1.03319c-0.09913,0.06941 0.86861,0.90851 1.52817,1.52206c0.75638,0.7036 1.54273,1.76025 0.86154,2.01413c-0.62929,0.23454 -2.48254,-0.92919 -3.7915,-1.54806c-1.4734,-0.69662 -2.66889,-0.46162 -4.06038,0.38687c-0.75218,0.45865 -1.33695,1.6999 -1.54547,1.93122c-0.41404,0.45934 4.80355,3.21079 8.36003,3.27319c3.5565,0.06239 8.05511,-3.18203 8.40702,-2.97904c1.83678,1.05947 -1.44614,4.30256 -2.35031,6.48107c-0.61515,1.48213 -6.62145,-2.36761 -7.44041,-0.9876c-0.23854,0.40194 0.39189,1.70247 0.55818,2.6321c0.31931,1.78509 2.58123,2.65175 3.35803,4.37904c0.78474,1.74494 -0.89489,4.65198 -1.34331,4.36124c-1.3727,-0.89005 -3.05802,-4.09556 -4.83595,-5.27215c-1.64982,-1.0918 -2.61821,0.61744 -3.56026,-0.21225c-1.17905,-1.03843 2.88134,-4.67833 2.47588,-5.55268c-0.73301,-1.58076 -5.93334,-2.16742 -6.10458,-1.77309c-0.71894,1.65544 0.52483,1.8145 0.84248,3.42818c0.34395,1.74726 -0.34533,5.40242 1.49367,6.06353c0.98832,0.35529 1.55702,0.76115 2.28139,1.2804c0.747,0.53549 1.64101,1.18544 2.08787,1.61381c0.67299,0.64512 0.48635,3.48207 0.44766,3.52482c-0.8721,0.9634 -4.09795,-3.84022 -4.50448,-3.11035c-0.71659,1.28652 4.65675,7.36242 4.12804,9.51032c-0.2966,1.20495 -3.54934,-2.7145 -4.93248,-2.46795c-2.25766,0.40244 -3.03746,4.35573 -3.87144,3.74189c-0.56156,-0.41334 2.03008,-4.63626 2.05102,-8.29759c0.02137,-3.73454 -3.64015,-6.70462 -3.65323,-6.83547c-0.05321,-0.53247 0.78241,-2.66357 0.4644,-4.72795c-0.26175,-1.69921 -1.00345,-3.15537 -1.35708,-3.41922z" data-paper-data="{&quot;index&quot;:null}" fill="#10171d"/><path d="M415.45955,331.19453c0.01092,-0.06782 -1.9878,0.96606 -3.99473,1.52075c-1.4766,0.40812 -3.07509,0.37982 -3.28229,0.36474c-2.28624,-0.16646 -2.43136,-3.99143 -2.13162,-4.72114c0.22395,-0.54521 5.01783,2.17912 7.30114,1.20134c2.76647,-1.18469 3.15537,-3.82346 3.71399,-4.16891c0.93846,-0.58035 2.66471,-0.09378 3.42974,0.0294c0.68533,0.11035 0.89878,1.25718 0.99017,2.47668c0.08901,1.18774 0.0487,2.43542 1.21611,3.52591c1.37015,1.27987 2.61615,1.29684 4.04946,2.33125c0.55945,0.40375 1.36626,0.6617 1.79423,1.88011c0.38159,1.08639 0.39178,3.09581 0.75736,4.15412c0.27484,0.79563 1.30005,2.30039 1.29679,2.32062c-0.05848,0.36318 0.65146,1.42278 -0.22366,1.26205c-0.53853,-0.09891 -0.45037,0.12791 -1.35221,-0.39397c-0.3973,-0.22991 -1.11576,-1.18909 -1.3802,-2.27678c-0.19906,-0.81875 0.2598,-2.42005 -0.54007,-2.83506c-0.0867,-0.04499 -0.32536,0.96092 -0.51782,1.66206c-0.22071,0.80406 -0.68278,1.76149 -1.11897,1.36903c-0.40296,-0.36255 -0.26297,-2.12327 -0.30938,-3.29098c-0.05224,-1.31441 -0.6671,-2.08185 -1.79412,-2.76026c-0.60921,-0.36672 -1.71574,-0.32121 -1.95916,-0.38395c-0.48334,-0.12455 -0.50195,4.63637 0.78247,7.20404c1.28442,2.56767 5.28663,4.57358 5.27292,4.90121c-0.07155,1.70997 -3.61851,0.57327 -5.51493,0.74053c-1.29021,0.11379 -0.78062,-5.62181 -2.07393,-5.69201c-0.3767,-0.02045 -1.07152,0.91658 -1.67444,1.38294c-1.15775,0.89552 -0.93248,2.83759 -1.87792,4.0388c-0.9551,1.21349 -3.66249,1.09824 -3.62206,0.66878c0.12378,-1.31465 1.78723,-3.71825 1.96456,-5.42989c0.16456,-1.5883 -1.42015,-1.64236 -1.17862,-2.62636c0.30229,-1.23156 4.42367,0.31304 4.89768,-0.30375c0.85697,-1.11513 -0.66669,-5.05473 -1.01279,-5.02989c-1.45299,0.1043 -1.10199,1.05355 -2.13772,1.88382c-1.12148,0.89901 -3.99399,1.77182 -3.77972,3.33451c0.11516,0.83982 0.03732,1.39835 -0.06346,2.11061c-0.10394,0.73453 -0.23484,1.61699 -0.3743,2.09677c-0.21003,0.72254 -2.30936,1.64919 -2.3544,1.63748c-1.01513,-0.26389 1.21593,-4.36679 0.54186,-4.38488c-1.18818,-0.03189 -3.52693,6.08281 -5.26113,6.50724c-0.97287,0.2381 0.6156,-3.55365 -0.07766,-4.45102c-1.1316,-1.46476 -4.25124,-0.5453 -4.12374,-1.37133c0.08586,-0.55621 4.07547,-0.28022 6.70265,-1.63347c2.67972,-1.38031 3.43624,-5.10971 3.52496,-5.16796c0.36105,-0.23706 2.19793,-0.43563 3.55596,-1.43459c1.11781,-0.82225 1.8824,-1.89703 1.93901,-2.24862z" data-paper-data="{&quot;index&quot;:null}" fill="#10171d"/><path d="M469.64634,289.92382c-2.44545,12.91793 10.04836,21.75652 3.71506,20.55759c-1.59903,-0.3027 -5.66725,4.66597 -9.67509,2.30854c-1.65888,-0.97577 -3.94219,-9.06804 -5.02992,-10.02063c-1.1413,-0.99954 -0.99755,4.87535 -2.4764,4.11309c-2.6259,-1.35349 -4.61918,0.98396 -3.92486,-1.8875c0.22674,-0.93769 4.49701,-6.13806 8.38701,-6.74802c0.67414,-0.10572 -2.82706,-6.18732 -5.64811,-5.99263c-1.93908,0.13382 -2.8669,6.94433 -4.67171,5.77049c-4.28608,-2.78762 1.22066,-8.4125 1.44304,-9.50678c0.21009,-1.03375 0.65817,-0.0533 3.6938,0.14967c5.9149,0.39549 9.11405,-1.82469 9.20892,-2.32587c0.15527,-0.82025 -12.81797,-0.60483 -16.78844,-3.36972c-1.24437,-0.86653 7.63032,-1.01289 8.35753,-2.39858c1.02988,-1.96237 -5.60855,-5.14781 -5.56019,-5.479c0.73377,-5.02526 11.6061,5.27446 15.82932,4.27728c1.07213,-0.25315 -2.83625,-4.76908 -6.35312,-9.1104c-0.69921,-0.86311 -10.0122,0.04093 -10.63822,-0.77351c-0.96362,-1.25362 2.2374,-2.06064 4.0072,-3.45957c1.52282,-1.2037 1.58754,-3.06793 1.65453,-3.45099c0.31215,-1.7847 7.82963,5.88663 11.69701,7.30501c3.93982,1.44495 4.23563,-3.34405 5.09489,-3.18138c6.33331,1.19893 0.12322,10.30503 -2.32222,23.22296z" data-paper-data="{&quot;index&quot;:null}" fill="#10171d"/><path d="M433.53124,328.05429c-0.60882,-0.63092 -5.31689,-4.66614 -3.72339,-6.96176c1.39846,-2.01466 8.89123,-2.16728 11.4097,-4.59751c5.38816,-5.19938 10.68281,-8.45397 11.82593,-7.26934c1.14312,1.18463 -2.29816,6.35989 -7.68631,11.55927c-1.77625,1.71401 1.67042,8.34177 0.05987,9.54373c-3.27496,2.44411 -11.11953,-1.48028 -11.88581,-2.27438z" data-paper-data="{&quot;index&quot;:null}" fill="#10171d"/><path d="M386.92514,315.23859c0,-2.69172 23.78049,-0.99585 39.78402,-2.15265c13.37662,-0.96692 18.08427,-5.00539 29.70866,-5.00539c25.53159,0 22.9654,2.21644 22.9654,7.15805c0,4.9416 10.32075,16.7021 -15.21085,16.7021c-5.28826,0 -8.9567,-11.78211 -20.01063,-9.16577c-1.12557,0.26641 -12.95346,6.5853 -13.99637,7.04164c-10.79472,4.72339 -9.38748,0.61386 -16.67514,-0.87021c-8.91233,-1.81492 -9.10896,2.04435 -11.86485,-5.51446c-2.95763,-8.11211 -14.70025,-6.77749 -14.70025,-8.19331z" data-paper-data="{&quot;index&quot;:null}" fill="#10171d"/><path d="M373.13712,363.84713c0,3.92001 7.03477,-74.20006 8.9366,-131.89721c0.34209,-10.37821 21.4128,-2.41999 20.61545,-8.54815c-0.05662,-0.4352 9.94173,-7.79171 10.68648,-11.01009c0.46696,-2.01793 -11.9393,-11.98275 -12.83391,-12.02355c-1.44117,-0.06572 -2.03271,-12.48565 -3.56721,-13.29961c-2.43743,-1.29291 -4.83972,5.77111 -8.40566,9.56638c-3.5547,3.78331 -4.95482,-0.57058 -5.11127,-1.00294c-1.12762,-3.11626 -1.90234,-9.85849 -0.48531,-19.31101c2.20897,-14.73522 -2.94023,-24.69267 1.89462,-38.7863c2.80052,-8.16354 -4.89077,-9.69728 -8.78297,-16.10385c-3.38806,-5.57673 1.16706,-19.10109 2.41652,-19.08713c0.71343,0.00797 4.63747,2.02014 9.83854,-2.52597c3.66259,-3.20136 4.3322,-9.37338 9.57765,-11.8464c10.52386,-4.96158 4.0163,-36.32797 5.88074,-43.92194c8.01923,-32.66278 9.57907,-94.20894 17.62058,-94.09447c15.54452,0.22127 64.30122,-21.32176 97.52302,-1.08426c9.81697,5.98014 5.07145,67.45427 14.19125,69.51853c1.80148,0.40776 1.49783,10.36127 3.91862,18.88304c1.67192,5.88556 6.39732,8.38982 6.85045,17.61453c0.06608,1.34527 -7.08487,2.98079 -7.00545,4.38985c0.83575,14.82877 4.14919,33.64941 5.0362,53.68184c0.25682,5.80013 4.40986,8.88091 5.24997,14.93394c0.59454,4.28366 7.60824,10.84036 7.13069,16.05568c-0.36308,3.96514 -8.21314,6.61066 -8.12574,10.06149c0.06712,2.65034 4.39388,5.3184 4.45342,8.0021c0.02518,1.13479 1.09419,5.52336 0.01728,9.17951c-0.60183,2.04324 -3.64789,4.03514 -3.63501,4.67398c0.08751,4.34265 1.87302,9.71344 1.79915,13.65718c-0.04166,2.22393 -3.29304,5.36679 -3.50817,7.41928c-0.71285,6.80103 1.01794,11.92802 0.99169,19.4263c-0.01167,3.33344 -0.00332,6.71329 0.01657,10.13185c0.01666,2.86279 1.20946,-3.069 2.71733,-1.34042c1.16113,1.33109 2.726,10.24138 2.7489,12.50898c0.02683,2.65673 -5.27618,9.59246 -5.25416,12.27706c0.08392,10.23092 0.1064,20.64007 -0.13475,31.04383c-0.98232,42.37935 5.82358,40.44687 0.00366,70.77105c-3.26436,17.0087 -2.51873,7.56661 -17.22954,10.76565c-24.97527,5.43115 -72.30867,13.00051 -98.2914,-0.76412z" data-paper-data="{&quot;index&quot;:null}" fill="url(#color-1)"/><path d="M-116.60661,410.71576v-496.997l689.77176,1.15473l-5.77367,496.997z" fill="none"/></g></g></svg>