<svg version="1.1" xmlns="http://www.w3.org/2000/svg" xmlns:xlink="http://www.w3.org/1999/xlink" width="717.88531" height="535.63903" viewBox="0,0,717.88531,535.63903"><g transform="translate(119.9849,90.13022)"><g data-paper-data="{&quot;isPaintingLayer&quot;:true}" fill-rule="nonzero" stroke="none" stroke-width="0" stroke-linecap="butt" stroke-linejoin="miter" stroke-miterlimit="10" stroke-dasharray="" stroke-dashoffset="0" style="mix-blend-mode: normal"><path d="M-102.94494,442.61493v-528.64939z" fill="none"/><path d="M-110.89525,435.59937v-522.53727z" fill="none"/><path d="M-20.19692,380.55437c0,0 -111.69912,-421.41018 34.4179,-368.2787c4.32041,1.571 53.5617,2.51563 71.07057,10.98555c19.30468,9.33864 33.99438,-0.97653 54.69087,4.63918c30.54843,8.28892 35.51914,37.92936 46.42555,39.72537c15.69544,2.58464 75.22879,46.63893 108.36955,50.84606c54.05601,6.86225 188.0222,21.67757 211.11688,21.56226c24.48637,-0.12226 22.14921,16.84246 28.57208,42.21323c3.19692,12.62805 4.4044,70.04267 19.06606,119.15028c8.2101,27.4988 11.02821,48.49103 13.11463,64.11502c7.75841,58.09837 -43.32025,28.65624 -43.32025,28.65624z" data-paper-data="{&quot;index&quot;:null}" fill="#344e5f"/><path d="M-117.27965,441.90181v-532.03203z" fill="none"/><path d="M-119.9849,445.50881v-534.73728z" fill="none"/><path d="M-116.63096,445.37486v-533.01354h714.53137v533.01354z" fill="none"/></g></g></svg>