<svg version="1.1" xmlns="http://www.w3.org/2000/svg" xmlns:xlink="http://www.w3.org/1999/xlink" width="708.95394" height="531.03638" viewBox="0,0,708.95394,531.03638"><g transform="translate(116.04943,86.56473)"><g data-paper-data="{&quot;isPaintingLayer&quot;:true}" fill-rule="nonzero" stroke="none" stroke-width="0" stroke-linecap="butt" stroke-linejoin="miter" stroke-miterlimit="10" stroke-dasharray="" stroke-dashoffset="0" style="mix-blend-mode: normal"><path d="M-17.6151,416.54533c0,0 -25.58521,-131.78566 20.27095,-158.19183c35.08957,-20.20625 224.29401,10.4248 236.31582,6.51571c17.23246,-5.60342 30.78432,-3.49881 45.99293,-3.89141c88.24072,-2.27787 93.90649,4.44655 103.34525,4.39943c24.48637,-0.12226 84.64934,-47.22142 91.07221,-21.85065c1.43873,5.68309 34.18314,-1.47788 35.476,4.82748c12.89215,62.87559 -12.77389,164.21629 -12.77389,164.21629z" data-paper-data="{&quot;index&quot;:null}" fill="#344e5f"/><path d="" data-paper-data="{&quot;index&quot;:null}" fill="#344e5f"/><path d="M346.4275,263.60346c-13.00916,-1.90122 -21.3157,10.95248 -20.38359,4.57444c0.23534,-1.61032 -4.89967,-5.46646 -2.71249,-9.56969c0.9053,-1.69836 8.89463,-4.31925 9.80075,-5.44598c0.95076,-1.18225 -4.91292,-0.7921 -4.21339,-2.30162c1.24211,-2.6804 -1.17691,-4.57382 1.72115,-4.00061c0.94638,0.18718 6.32136,4.23548 7.09402,8.09645c0.13392,0.66911 6.06324,-3.0842 5.75034,-5.8946c-0.21507,-1.93175 -7.0585,-2.57297 -5.96144,-4.42545c2.60531,-4.39928 8.45631,0.86657 9.55896,1.04283c1.04165,0.16652 0.08087,0.65535 0.00546,3.69683c-0.14693,5.92629 2.20552,9.02945 2.71024,9.10321c0.82605,0.12072 0.06643,-12.83206 2.66228,-16.91506c0.81355,-1.27963 1.33218,7.58111 2.74717,8.24953c2.00385,0.94661 4.90794,-5.81963 5.24086,-5.78521c5.05163,0.52225 -4.7828,11.81721 -3.60927,15.99486c0.29791,1.06055 4.64587,-3.03388 8.83578,-6.72982c0.83302,-0.73481 -0.46104,-10.00165 0.32642,-10.66131c1.21208,-1.01538 2.15271,2.14895 3.62468,3.8585c1.26654,1.47097 3.13184,1.4574 3.51738,1.50826c1.79622,0.23699 -5.55289,8.06976 -6.80774,11.99325c-1.27835,3.99698 3.51883,4.09157 3.39237,4.95689c-0.93211,6.37803 -10.29077,0.55553 -23.29994,-1.34568z" data-paper-data="{&quot;index&quot;:null}" fill="#344e5f"/><path d="" data-paper-data="{&quot;index&quot;:null}" fill="#344e5f"/><path d="" fill="#344e5f"/><path d="" data-paper-data="{&quot;index&quot;:null}" fill="#344e5f"/><path d="" data-paper-data="{&quot;index&quot;:null}" fill="#344e5f"/><path d="" data-paper-data="{&quot;index&quot;:null}" fill="#344e5f"/><path d="" data-paper-data="{&quot;index&quot;:null}" fill="#344e5f"/><path d="M472.31531,234.59201c0.03274,0.07857 1.46367,-2.31422 3.21583,-4.20761c1.28916,-1.39306 2.99136,-2.40593 3.21946,-2.52519c2.51677,-1.31595 5.16461,2.61839 5.32487,3.58254c0.11974,0.72037 -6.70691,0.97775 -8.4742,3.49707c-2.14126,3.05242 -0.82966,6.08563 -1.19274,6.81388c-0.60996,1.22345 -2.74568,1.83695 -3.63187,2.20623c-0.79387,0.33081 -1.76675,-0.73798 -2.6585,-1.96291c-0.86852,-1.19304 -1.63991,-2.53354 -3.58092,-2.92073c-2.27809,-0.4544 -3.60161,0.34048 -5.78612,0.18581c-0.85264,-0.06036 -1.87077,0.1942 -3.1163,-0.81004c-1.11059,-0.89541 -2.43203,-3.00537 -3.50745,-3.88167c-0.80847,-0.6588 -2.86992,-1.57507 -2.87969,-1.59852c-0.1753,-0.4207 -1.61428,-1.07373 -0.58764,-1.47524c0.63176,-0.2471 0.39096,-0.42851 1.6813,-0.46706c0.56847,-0.01696 1.95091,0.52472 2.93894,1.49793c0.74374,0.73257 1.30491,2.71862 2.41817,2.63399c0.12066,-0.00917 -0.28409,-1.22441 -0.5387,-2.0885c-0.29201,-0.99091 -0.4298,-2.30082 0.28565,-2.17195c0.66093,0.11904 1.66199,2.06499 2.47257,3.26472c0.91242,1.35045 2.06067,1.75775 3.69031,1.73721c0.88092,-0.01111 2.01679,-0.78082 2.3141,-0.87351c0.59037,-0.18408 -2.49555,-5.21108 -5.52333,-7.0779c-3.02781,-1.86682 -8.55194,-1.36911 -8.75119,-1.72315c-1.04003,-1.84785 3.43757,-2.96419 5.32604,-4.37738c1.28481,-0.96144 4.48932,5.4125 5.89741,4.64281c0.41012,-0.22418 0.53079,-1.66441 0.86167,-2.54893c0.63536,-1.69847 -0.86872,-3.59719 -0.6564,-5.47918c0.21449,-1.90122 3.14149,-3.54582 3.37904,-3.06709c0.72716,1.46551 0.54282,5.08237 1.47252,7.00097c0.86271,1.78035 2.56718,0.80361 2.95463,1.99765c0.48493,1.49444 -4.86383,2.55579 -4.96078,3.51468c-0.17529,1.73359 3.99941,4.88947 4.34776,4.63753c1.46245,-1.05763 0.47355,-1.82855 1.02294,-3.37872c0.59487,-1.67849 3.05128,-4.47159 1.80625,-5.97786c-0.66911,-0.80951 -0.95144,-1.4486 -1.30989,-2.26459c-0.36964,-0.84149 -0.80739,-1.85642 -0.97344,-2.45275c-0.25007,-0.89808 1.35679,-3.24353 1.41187,-3.26058c1.24141,-0.3842 1.56763,5.39287 2.28945,4.97222c1.27235,-0.74146 -0.25271,-8.70786 1.29716,-10.28612c0.86946,-0.88539 1.66958,4.14474 2.98518,4.63777c2.1474,0.80476 4.83367,-2.19866 5.23821,-1.2454c0.27238,0.64187 -4.11007,2.95356 -5.99466,6.09268c-1.92229,3.20189 -0.2865,7.62368 -0.34196,7.74292c-0.22568,0.4852 -2.03101,1.89256 -2.80987,3.83064c-0.6411,1.59525 -0.74538,3.22609 -0.57567,3.63337z" data-paper-data="{&quot;index&quot;:null}" fill="#344e5f"/><path d="M412.37662,233.57571c-0.01675,0.08345 2.50681,-1.10175 5.01779,-1.69331c1.84746,-0.43524 3.82512,-0.32438 4.08092,-0.29588c2.82258,0.31453 2.82082,5.05689 2.41511,5.94609c-0.30311,0.66437 -6.10898,-2.93583 -8.98218,-1.83358c-3.4812,1.3355 -4.08783,4.58399 -4.7958,4.98517c-1.18938,0.67398 -3.30349,-0.01028 -4.2448,-0.19906c-0.84325,-0.16912 -1.05308,-1.59907 -1.10841,-3.11321c-0.05387,-1.4747 0.05519,-3.01746 -1.33839,-4.42293c-1.63561,-1.64953 -3.1774,-1.72962 -4.90285,-3.07826c-0.67347,-0.52639 -1.66012,-0.88403 -2.13216,-2.41276c-0.42091,-1.36309 -0.33821,-3.85131 -0.74063,-5.17891c-0.30252,-0.99806 -1.50043,-2.90965 -1.49543,-2.93455c0.08963,-0.44687 -0.73906,-1.79237 0.33675,-1.55185c0.66202,0.14799 0.56365,-0.13699 1.6554,0.55187c0.48097,0.3035 1.32497,1.52507 1.60076,2.88422c0.20762,1.02309 -0.43643,2.98382 0.53418,3.53555c0.1052,0.0598 0.44837,-1.17424 0.71992,-2.03315c0.31137,-0.98499 0.92886,-2.14842 1.45027,-1.64186c0.48169,0.46796 0.22487,2.64118 0.22695,4.08907c0.00234,1.62979 0.72718,2.60907 2.09029,3.50243c0.73684,0.48291 2.10894,0.47905 2.40732,0.56826c0.59249,0.17712 0.84132,-5.71624 -0.62706,-8.95604c-1.4684,-3.23981 -6.3282,-5.91305 -6.29569,-6.318c0.16969,-2.11363 4.50708,-0.53814 6.86286,-0.65526c1.60273,-0.07968 0.69981,6.99711 2.29767,7.14534c0.4654,0.04317 1.37005,-1.08394 2.13861,-1.63273c1.47582,-1.05378 1.28904,-3.46884 2.51649,-4.91116c1.24,-1.45706 4.58643,-1.18596 4.51601,-0.65619c-0.21559,1.62174 -2.38902,4.5186 -2.68974,6.62928c-0.27905,1.95858 1.6803,2.10066 1.33462,3.30746c-0.43266,1.5104 -5.46187,-0.59736 -6.07796,0.14379c-1.11385,1.33993 0.58567,6.2896 1.01533,6.27525c1.80381,-0.06021 1.41427,-1.25207 2.73594,-2.23087c1.43107,-1.05983 5.02879,-2.00419 4.83762,-3.94904c-0.10274,-1.04521 0.02012,-1.73299 0.17867,-2.61002c0.16352,-0.90444 0.36742,-1.99077 0.56284,-2.57814c0.2943,-0.88458 2.93732,-1.93224 2.99252,-1.91562c1.24426,0.37485 -1.71249,5.34863 -0.87882,5.40299c1.46951,0.09582 4.65499,-7.36354 6.82216,-7.80673c1.21576,-0.24863 -0.93068,4.37038 -0.11494,5.51425c1.33149,1.86711 5.23735,0.87672 5.04035,1.89335c-0.13267,0.68454 -5.0589,0.15363 -8.37565,1.70442c-3.38308,1.58179 -4.49656,6.16308 -4.60916,6.231c-0.45824,0.27636 -2.7418,0.43509 -4.4705,1.60745c-1.42291,0.96497 -2.42046,2.25933 -2.50723,2.69195z" data-paper-data="{&quot;index&quot;:null}" fill="#344e5f"/><path d="M465.12885,237.38198c0.88013,2.54376 -1.35588,0.88774 -16.10151,7.21368c-12.3252,5.28756 -15.45361,10.64333 -26.43906,14.44419c-24.12822,8.34814 -22.42778,5.41443 -24.04355,0.74447c-1.61577,-4.66998 -15.21459,-12.40944 8.91363,-20.75758c4.99759,-1.72912 12.31682,8.20591 21.90767,2.11904c0.97659,-0.6198 10.08824,-10.45876 10.92462,-11.23103c8.65696,-7.99335 10.82964,2.59014 18.20199,1.60976c9.01588,-1.19893 2.6168,-5.60923 7.69274,0.63298z" fill="#344e5f"/><path d="" data-paper-data="{&quot;index&quot;:null}" fill="#344e5f"/><path d="M265.92508,266.71995c1.02057,2.49075 -5.95265,-7.56007 -20.32266,-0.42187c-12.01124,5.96648 -14.8362,11.48834 -25.59267,15.89574c-23.62527,9.68032 -25.96468,8.20585 -27.83829,3.63322c-1.27179,-3.10385 6.58478,-3.43832 9.69577,-8.84902c1.47216,-2.56042 -5.66834,-10.81324 1.92038,-13.92268c4.89341,-2.00505 12.75516,7.50645 21.99173,0.89436c0.94053,-0.67328 9.48946,-11.00493 10.28147,-11.82262c8.19785,-8.46356 10.95722,1.98234 18.26344,0.59247c8.93502,-1.69972 6.94838,1.22615 12.36443,7.17567z" fill="#344e5f"/><path d="" data-paper-data="{&quot;index&quot;:null}" fill="#344e5f"/><path d="" data-paper-data="{&quot;index&quot;:null}" fill="#344e5f"/><path d="" data-paper-data="{&quot;index&quot;:null}" fill="#344e5f"/><path d="" data-paper-data="{&quot;index&quot;:null}" fill="#344e5f"/><path d="M285.60263,254.24698c-0.01809,-0.08317 -1.85542,2.01379 -3.91908,3.56178c-1.51835,1.13893 -3.37476,1.82969 -3.62056,1.90607c-2.71215,0.84264 -4.61051,-3.50319 -4.59504,-4.48044c0.01155,-0.73016 6.77347,0.24244 8.96441,-1.9186c2.65455,-2.61833 1.90892,-5.83776 2.39686,-6.48897c0.81975,-1.09404 3.03089,-1.31408 3.969,-1.51824c0.84037,-0.18289 1.60552,1.04323 2.26282,2.40837c0.64017,1.3296 1.15833,2.78682 2.99827,3.51626c2.15947,0.85607 3.60421,0.31176 5.72545,0.85616c0.82795,0.21248 1.87524,0.14487 2.92021,1.35644c0.93176,1.08029 1.85287,3.39322 2.75346,4.44838c0.67703,0.79326 2.54045,2.06481 2.54585,2.08962c0.0969,0.44534 1.39524,1.34614 0.31319,1.55678c-0.66587,0.12964 -0.46155,0.35134 -1.73784,0.15757c-0.56227,-0.08538 -1.82498,-0.86651 -2.6222,-2.00132c-0.60012,-0.85422 -0.79555,-2.90873 -1.90592,-3.02539c-0.12036,-0.01265 0.05962,1.25551 0.15494,2.15127c0.10933,1.02724 0.00968,2.34061 -0.67101,2.08537c-0.62881,-0.23579 -1.26419,-2.32986 -1.84616,-3.65564c-0.6551,-1.49233 -1.71156,-2.09921 -3.3184,-2.37161c-0.8686,-0.14725 -2.12421,0.40599 -2.43333,0.4438c-0.61383,0.07509 1.51928,5.57449 4.16265,7.95463c2.6434,2.38015 8.1671,2.88245 8.29955,3.2665c0.69133,2.00457 -3.91396,2.29875 -6.02549,3.34989c-1.43656,0.71512 -3.44448,-6.13064 -4.96789,-5.62629c-0.44371,0.14689 -0.82103,1.54204 -1.30535,2.35278c-0.93001,1.55678 0.20869,3.69471 -0.33811,5.50799c-0.55239,1.83181 -3.72712,2.9241 -3.87485,2.4105c-0.4522,-1.57226 0.37859,-5.09724 -0.19149,-7.1516c-0.52901,-1.90632 -2.38117,-1.25151 -2.54791,-2.49571c-0.20871,-1.55722 5.2437,-1.64088 5.51124,-2.56678c0.48372,-1.67394 -3.05644,-5.52814 -3.44437,-5.34285c-1.6286,0.77784 -0.79419,1.7138 -1.613,3.14013c-0.88659,1.5444 -3.80461,3.85103 -2.85028,5.55638c0.51288,0.91649 0.67588,1.59588 0.88197,2.46298c0.21253,0.8942 0.46092,1.97122 0.51719,2.58767c0.08475,0.92839 -1.91713,2.94718 -1.97438,2.95407c-1.29023,0.15505 -0.57382,-5.58669 -1.35944,-5.30249c-1.38481,0.50095 -1.31499,8.61171 -3.12306,9.88603c-1.0143,0.71488 -0.89821,-4.37716 -2.10389,-5.09841c-1.96799,-1.17726 -5.1499,1.29498 -5.37671,0.28459c-0.1527,-0.68035 4.5736,-2.16755 6.99123,-4.91725c2.46598,-2.80468 1.65076,-7.44833 1.72672,-7.55566c0.30913,-0.43679 2.33783,-1.49712 3.45204,-3.26385c0.91712,-1.45421 1.31255,-3.03981 1.21873,-3.47095z" data-paper-data="{&quot;index&quot;:null}" fill="#344e5f"/><path d="" data-paper-data="{&quot;index&quot;:null}" fill="#344e5f"/><path d="" data-paper-data="{&quot;index&quot;:null}" fill="#344e5f"/><path d="M225.21441,264.82764c0.02711,0.06105 1.10616,-1.84221 2.44632,-3.3595c0.98603,-1.11635 2.30303,-1.94195 2.4798,-2.03967c1.95053,-1.07819 4.09942,1.96021 4.2427,2.71368c0.10705,0.56297 -5.24396,0.88912 -6.58459,2.89775c-1.62432,2.43367 -0.54014,4.78944 -0.81172,5.36738c-0.45628,0.97093 -2.12062,1.49111 -2.80915,1.79694c-0.6168,0.27398 -1.39949,-0.54682 -2.12138,-1.49157c-0.70308,-0.92016 -1.33265,-1.95778 -2.86248,-2.22622c-1.79548,-0.31502 -2.81935,0.33266 -4.53598,0.25108c-0.67003,-0.03184 -1.46413,0.1864 -2.45956,-0.57879c-0.88759,-0.68227 -1.96269,-2.31353 -2.82233,-2.98143c-0.64625,-0.50214 -2.28019,-1.18346 -2.28828,-1.20167c-0.14518,-0.32686 -1.28598,-0.81299 -0.48786,-1.14667c0.49114,-0.20535 0.29892,-0.34329 1.31052,-0.39702c0.44567,-0.02365 1.54008,0.37616 2.33293,1.12169c0.59682,0.56119 1.07322,2.10906 1.94506,2.02242c0.0945,-0.00939 -0.24516,-0.95541 -0.46063,-1.62867c-0.24712,-0.77208 -0.37906,-1.79723 0.18457,-1.70915c0.52069,0.08137 1.34145,1.58979 1.9992,2.51626c0.74039,1.04286 1.64864,1.3415 2.92676,1.29573c0.6909,-0.02475 1.56801,-0.64928 1.79957,-0.72741c0.45981,-0.15516 -2.05266,-4.04281 -4.46201,-5.45227c-2.40938,-1.40946 -6.73413,-0.91846 -6.89689,-1.19259c-0.84956,-1.43076 2.64292,-2.38804 4.09876,-3.53109c0.99046,-0.77767 3.62049,4.16455 4.71116,3.53508c0.31767,-0.18333 0.38614,-1.31542 0.62961,-2.01538c0.46754,-1.34407 -0.747,-2.80629 -0.61467,-4.28662c0.13367,-1.49546 2.40005,-2.83896 2.59512,-2.4677c0.59715,1.13649 0.51835,3.97737 1.28263,5.46565c0.70922,1.38103 2.02866,0.58373 2.35435,1.51343c0.40764,1.16359 -3.7693,2.09359 -3.8279,2.84762c-0.10597,1.36324 3.22662,3.76314 3.49533,3.55915c1.12808,-0.85635 0.33823,-1.44316 0.74104,-2.66931c0.43613,-1.32764 2.31242,-3.56361 1.30825,-4.72267c-0.53967,-0.62289 -0.7728,-1.11913 -1.06886,-1.75278c-0.3053,-0.65345 -0.66719,-1.44172 -0.80831,-1.90653c-0.21254,-0.70002 1.0054,-2.56932 1.0483,-2.5837c0.96693,-0.32401 1.32799,4.2023 1.88663,3.85916c0.9847,-0.60485 -0.35673,-6.82694 0.83046,-8.09334c0.666,-0.71043 1.38525,3.22127 2.42634,3.58412c1.69934,0.59227 3.75213,-1.81286 4.08685,-1.07238c0.22537,0.49861 -3.17069,2.39194 -4.59208,4.88896c-1.44982,2.54695 -0.08602,5.98619 -0.12736,6.08074c-0.16821,0.38476 -1.55894,1.52174 -2.1347,3.05639c-0.47393,1.26318 -0.52606,2.5445 -0.38551,2.86094z" data-paper-data="{&quot;index&quot;:null}" fill="#344e5f"/><path d="" data-paper-data="{&quot;index&quot;:null}" fill="#344e5f"/><path d="" data-paper-data="{&quot;index&quot;:null}" fill="#344e5f"/><path d="" data-paper-data="{&quot;index&quot;:null}" fill="#344e5f"/><path d="" data-paper-data="{&quot;index&quot;:null}" fill="#344e5f"/><path d="" data-paper-data="{&quot;index&quot;:null}" fill="#344e5f"/><path d="M-116.04943,444.47165v-531.03638h708.95394v531.03638z" fill="none"/><path d="M88.43239,261.42611c0.19541,2.68463 -3.30654,-9.03634 -19.18385,-6.72074c-13.27112,1.93549 -17.67316,6.30508 -29.2669,7.14899c-25.46422,1.85355 -27.22912,-0.27531 -27.58787,-5.20386c-0.24352,-3.34545 7.32752,-1.22016 11.96685,-5.39516c2.19539,-1.97567 -2.02468,-12.03981 6.15474,-12.63519c5.2743,-0.38392 9.78844,11.10078 20.62323,7.68884c1.10327,-0.34742 12.44119,-7.50833 13.44821,-8.03919c10.42333,-5.49462 9.7975,5.29145 17.17368,6.24252c9.02058,1.1631 6.22257,3.32611 9.51995,10.66489z" fill="#344e5f"/><path d="M149.84178,258.23929c0.00876,0.08466 2.06717,-1.79575 4.28968,-3.10549c1.63522,-0.96364 3.55675,-1.4444 3.8095,-1.49307c2.78883,-0.53687 4.19385,3.99258 4.07017,4.9621c-0.0924,0.72438 -6.70487,-0.99164 -9.12182,0.91327c-2.92838,2.308 -2.54415,5.59023 -3.10126,6.18335c-0.93595,0.99645 -3.15786,0.97008 -4.11281,1.06901c-0.85546,0.08863 -1.48001,-1.21474 -1.98196,-2.64432c-0.48887,-1.39236 -0.84234,-2.89803 -2.5901,-3.82689c-2.05129,-1.09013 -3.54745,-0.70929 -5.59529,-1.48543c-0.7993,-0.30293 -1.84763,-0.35181 -2.75189,-1.67173c-0.80629,-1.1769 -1.46539,-3.57767 -2.24349,-4.72614c-0.58494,-0.86341 -2.29596,-2.33364 -2.29858,-2.3589c-0.04695,-0.45334 -1.23745,-1.49248 -0.13873,-1.5819c0.67614,-0.05504 0.49765,-0.29802 1.7446,0.036c0.54934,0.14717 1.7177,1.06343 2.38424,2.27961c0.50175,0.91547 0.46828,2.97898 1.55888,3.21798c0.11822,0.02591 0.07989,-1.25438 0.08444,-2.15519c0.00519,-1.03303 0.24979,-2.32726 0.89799,-1.99816c0.5988,0.30403 0.99819,2.45562 1.42964,3.83773c0.48567,1.55574 1.46836,2.27597 3.03512,2.72477c0.84693,0.24261 2.15612,-0.16807 2.46753,-0.17138c0.61837,-0.0066 -0.89211,-5.70853 -3.25541,-8.36697c-2.36333,-2.65845 -7.79733,-3.76984 -7.8864,-4.1662c-0.46491,-2.06884 4.14462,-1.85081 6.35963,-2.66146c1.50697,-0.5515 2.74381,6.47462 4.31373,6.14221c0.45726,-0.09681 0.98687,-1.44155 1.55806,-2.19362c1.09682,-1.44412 0.20207,-3.69508 0.94647,-5.43659c0.752,-1.7593 4.02823,-2.49302 4.11813,-1.96621c0.27516,1.61269 -0.94118,5.02388 -0.60229,7.12877c0.31448,1.95321 2.2278,1.5077 2.25562,2.76272c0.03484,1.57076 -5.39325,1.04962 -5.76176,1.94017c-0.66626,1.61002 2.42494,5.83282 2.83101,5.69167c1.70477,-0.59255 0.97924,-1.61522 1.95108,-2.94202c1.05229,-1.43663 4.20798,-3.40565 3.44853,-5.20626c-0.40815,-0.96769 -0.49485,-1.66096 -0.60357,-2.54555c-0.11212,-0.91225 -0.23961,-2.01016 -0.22722,-2.62905c0.01866,-0.93206 2.23195,-2.71655 2.28961,-2.71705c1.29947,-0.0111 -0.04888,5.61587 0.7634,5.42049c1.4318,-0.34439 2.26131,-8.41292 4.19947,-9.479c1.08728,-0.59806 0.40756,4.44974 1.52588,5.30017c1.82539,1.38812 5.26169,-0.71625 5.37513,0.31306c0.07636,0.69308 -4.78565,1.64731 -7.49313,4.11213c-2.76163,2.5141 -2.46608,7.21949 -2.55346,7.31774c-0.35563,0.39984 -2.48935,1.2288 -3.7925,2.86116c-1.07264,1.34361 -1.64136,2.87562 -1.5959,3.3145z" data-paper-data="{&quot;index&quot;:null}" fill="#344e5f"/><path d="M50.32866,246.96772c0.00678,0.06645 1.62419,-1.40689 3.36974,-2.43219c1.2843,-0.75437 2.79274,-1.12949 2.99113,-1.16739c2.18911,-0.41817 3.28659,3.13783 3.18846,3.8985c-0.07333,0.56835 -5.26045,-0.78569 -7.15924,0.70645c-2.30059,1.80789 -2.00274,4.38401 -2.44058,4.84884c-0.73559,0.7809 -2.47917,0.75772 -3.22867,0.83428c-0.67142,0.06859 -1.16006,-0.95491 -1.55236,-2.07731c-0.38208,-1.09318 -0.65776,-2.27513 -2.02826,-3.00599c-1.6085,-0.85775 -2.78301,-0.56057 -4.38916,-1.17193c-0.62691,-0.23862 -1.4495,-0.27815 -2.15762,-1.31495c-0.63142,-0.92446 -1.14593,-2.80917 -1.75525,-3.71127c-0.45806,-0.67821 -1.79911,-1.83386 -1.80114,-1.85368c-0.03634,-0.3558 -0.9694,-1.17259 -0.10709,-1.24153c0.53065,-0.04244 0.39085,-0.23331 1.36901,0.0302c0.43093,0.11611 1.34675,0.83643 1.86845,1.79155c0.39271,0.71896 0.36415,2.33823 1.2197,2.52701c0.09273,0.02046 0.0641,-0.98428 0.06868,-1.69116c0.00523,-0.81065 0.19862,-1.826 0.70692,-1.56701c0.46957,0.23926 0.78056,1.92812 1.11759,3.0132c0.37938,1.22139 1.14973,1.78767 2.37871,2.14163c0.66434,0.19133 1.69217,-0.12948 1.93655,-0.13173c0.48526,-0.00448 -0.69368,-4.48068 -2.54527,-6.5695c-1.85162,-2.08883 -6.11463,-2.96705 -6.18407,-3.2782c-0.36251,-1.62401 3.2545,-1.44776 4.99361,-2.08141c1.18319,-0.43111 2.14592,5.08394 3.37826,4.82485c0.35893,-0.07545 0.77605,-1.13012 1.22512,-1.71966c0.86233,-1.13204 0.16272,-2.89945 0.74883,-4.26523c0.59209,-1.37975 3.16389,-1.95185 3.23384,-1.53834c0.21413,1.26584 -0.7442,3.94136 -0.48063,5.59352c0.24459,1.5331 1.74655,1.18565 1.76698,2.17053c0.02558,1.23266 -4.23346,0.81764 -4.52364,1.51606c-0.52465,1.2627 1.89641,4.57995 2.21523,4.46964c1.33845,-0.46309 0.77024,-1.26643 1.53438,-2.30652c0.82737,-1.12619 3.30595,-2.66782 2.71201,-4.08168c-0.31921,-0.75983 -0.38646,-1.30396 -0.4708,-1.99826c-0.08696,-0.71599 -0.18577,-1.57772 -0.17535,-2.06336c0.01569,-0.73141 1.75454,-2.12928 1.79978,-2.1296c1.01975,-0.00726 -0.04465,4.40691 0.593,4.25451c1.12397,-0.26865 1.78395,-6.59939 3.30609,-7.43381c0.8539,-0.4681 0.31484,3.49233 1.19148,4.16094c1.43091,1.09135 4.12984,-0.55617 4.2177,0.25169c0.05914,0.54397 -3.75731,1.28735 -5.88473,3.21855c-2.16997,1.96982 -1.9433,5.66264 -2.01199,5.73964c-0.27952,0.31337 -1.95487,0.9615 -2.97931,2.24102c-0.84325,1.05317 -1.29125,2.25475 -1.25607,2.59921z" data-paper-data="{&quot;index&quot;:null}" fill="#344e5f"/><path d="M171.35007,257.4099c-0.04883,0.06972 2.73824,-0.00329 5.27557,0.46244c1.86685,0.34267 3.63383,1.23776 3.85671,1.36651c2.45916,1.42068 0.55462,5.76381 -0.17378,6.41549c-0.54422,0.48691 -4.41756,-5.14042 -7.49161,-5.2837c-3.72453,-0.1736 -5.5837,2.55847 -6.39314,2.64185c-1.35989,0.14008 -3.02174,-1.33497 -3.80822,-1.88561c-0.70453,-0.49326 -0.32294,-1.88726 0.23396,-3.29634c0.54241,-1.37239 1.26135,-2.74173 0.54885,-4.58829c-0.83627,-2.16721 -2.21636,-2.85925 -3.25565,-4.78692c-0.40566,-0.75239 -1.16589,-1.47588 -0.98483,-3.06556c0.16142,-1.41744 1.23559,-3.66339 1.3997,-5.04088c0.12339,-1.03557 -0.20679,-3.2672 -0.19223,-3.28799c0.26141,-0.37334 0.04226,-1.9383 0.93115,-1.28632c0.54702,0.4012 0.57125,0.10069 1.29484,1.16974c0.31877,0.47098 0.60166,1.92857 0.3089,3.28417c-0.22036,1.02043 -1.59704,2.55794 -0.92938,3.45279c0.07237,0.097 0.88187,-0.89564 1.47524,-1.57341c0.68045,-0.77728 1.71289,-1.59517 1.98722,-0.92195c0.25342,0.62191 -0.85383,2.50947 -1.43292,3.83651c-0.65182,1.49376 -0.38086,2.68161 0.50924,4.04685c0.48115,0.738 1.73948,1.28503 1.97699,1.48646c0.47163,0.39998 3.06433,-4.89827 3.01935,-8.45502c-0.04499,-3.55677 -3.42371,-7.95539 -3.23144,-8.31326c1.00354,-1.86793 4.34425,1.31561 6.54907,2.15361c1.50002,0.57013 -2.16668,6.6899 -0.76257,7.46683c0.40896,0.2263 1.68986,-0.4431 2.61405,-0.63738c1.77463,-0.37304 2.57262,-2.66009 4.27568,-3.48868c1.72047,-0.83705 4.67687,0.75407 4.3998,1.21107c-0.8482,1.39894 -4.0014,3.18025 -5.12378,4.99288c-1.0415,1.68202 0.69619,2.59838 -0.10469,3.56503c-1.00236,1.20987 -4.76316,-2.73882 -5.62487,-2.30716c-1.5579,0.78039 -1.98735,5.99605 -1.58803,6.15531c1.67639,0.66865 1.79783,-0.57935 3.40119,-0.94557c1.73608,-0.39654 5.41039,0.18209 6.01568,-1.67602c0.32529,-0.99859 0.71379,-1.57929 1.21095,-2.31899c0.5127,-0.76283 1.13537,-1.67603 1.55005,-2.13562c0.62451,-0.69215 3.46578,-0.59124 3.50969,-0.55386c0.9893,0.84263 -3.71476,4.21199 -2.97296,4.5963c1.30758,0.67742 7.21852,-4.87684 9.3814,-4.4132c1.21335,0.26009 -2.60613,3.62966 -2.31794,5.00472c0.4704,2.24447 4.44542,2.9046 3.85705,3.75675c-0.39619,0.57378 -4.69542,-1.88922 -8.35571,-1.79964c-3.73349,0.09136 -6.5917,3.84086 -6.72208,3.85788c-0.53061,0.06926 -2.68598,-0.70165 -4.73983,-0.32148c-1.69054,0.31292 -3.12364,1.09822 -3.37671,1.45966z" data-paper-data="{&quot;index&quot;:null}" fill="#344e5f"/><path d="M85.76343,244.68087c-0.04882,0.06972 2.73823,-0.00329 5.27557,0.46244c1.86685,0.34267 3.63384,1.23777 3.85672,1.36651c2.45916,1.42068 0.55462,5.76381 -0.17378,6.41549c-0.54423,0.48691 -4.41756,-5.14042 -7.49161,-5.2837c-3.72453,-0.1736 -5.5837,2.55847 -6.39315,2.64186c-1.35988,0.14008 -3.02174,-1.33498 -3.80821,-1.88562c-0.70452,-0.49327 -0.32294,-1.88725 0.23396,-3.29634c0.54241,-1.37239 1.26135,-2.74173 0.54885,-4.5883c-0.83627,-2.16721 -2.21636,-2.85925 -3.25565,-4.78692c-0.40565,-0.75239 -1.16589,-1.47588 -0.98484,-3.06556c0.16142,-1.41744 1.23559,-3.66339 1.3997,-5.04089c0.12339,-1.03557 -0.20679,-3.26719 -0.19223,-3.28799c0.26141,-0.37333 0.04226,-1.9383 0.93115,-1.28632c0.54701,0.4012 0.57125,0.10069 1.29484,1.16974c0.31877,0.47099 0.60166,1.92857 0.30891,3.28417c-0.22036,1.02043 -1.59705,2.55794 -0.92938,3.45279c0.07237,0.097 0.88187,-0.89563 1.47523,-1.57341c0.68045,-0.77728 1.7129,-1.59516 1.98722,-0.92194c0.25342,0.62192 -0.85383,2.50946 -1.43292,3.8365c-0.65183,1.49376 -0.38086,2.68161 0.50923,4.04684c0.48116,0.738 1.73948,1.28503 1.97699,1.48646c0.47163,0.39998 3.06432,-4.89827 3.01935,-8.45502c-0.04498,-3.55677 -3.42371,-7.95539 -3.23144,-8.31326c1.00354,-1.86793 4.34426,1.31562 6.54907,2.15361c1.50002,0.57013 -2.16668,6.6899 -0.76257,7.46684c0.40895,0.22629 1.68986,-0.4431 2.61405,-0.63738c1.77463,-0.37304 2.57261,-2.6601 4.27568,-3.48868c1.72047,-0.83705 4.67687,0.75408 4.3998,1.21107c-0.84821,1.39894 -4.0014,3.18025 -5.12378,4.99289c-1.0415,1.68202 0.69619,2.59838 -0.10469,3.56503c-1.00236,1.20987 -4.76316,-2.73882 -5.62486,-2.30715c-1.55791,0.78038 -1.98735,5.99604 -1.58803,6.15531c1.67639,0.66865 1.79783,-0.57934 3.40118,-0.94556c1.73607,-0.39654 5.41039,0.1821 6.01568,-1.67602c0.3253,-0.99859 0.71379,-1.57929 1.21095,-2.319c0.5127,-0.76282 1.13538,-1.67603 1.55006,-2.13562c0.62452,-0.69216 3.46578,-0.59124 3.50968,-0.55385c0.98929,0.84263 -3.71476,4.21199 -2.97296,4.5963c1.30758,0.67742 7.21853,-4.87685 9.3814,-4.41321c1.21334,0.26009 -2.60613,3.62966 -2.31795,5.00473c0.4704,2.24446 4.44542,2.9046 3.85706,3.75675c-0.39619,0.57378 -4.69542,-1.88923 -8.35571,-1.79964c-3.73349,0.09136 -6.5917,3.84086 -6.72208,3.85788c-0.53062,0.06926 -2.68598,-0.70165 -4.73982,-0.32148c-1.69054,0.31291 -3.12364,1.09823 -3.3767,1.45967z" data-paper-data="{&quot;index&quot;:null}" fill="#344e5f"/><path d="M266.65406,270.29976c-0.48629,2.64744 -0.92675,-9.57757 -16.87593,-11.33099c-13.33119,-1.46562 -18.69098,1.65592 -30.12411,-0.44415c-25.11148,-4.61256 -26.28401,-7.11697 -25.39126,-11.97725c0.60599,-3.29911 7.39881,0.6626 12.93928,-2.21091c2.62183,-1.35979 1.06952,-12.16192 9.13563,-10.68032c5.20124,0.95538 6.68077,13.20637 18.02546,12.63008c1.15519,-0.05868 13.93002,-4.13677 15.03821,-4.39719c11.47043,-2.6955 8.15109,7.58618 15.05073,10.36242c8.4378,3.39516 5.18561,4.78465 6.53058,12.71695z" fill="#344e5f"/><path d="M321.2146,248.90735c0.63744,2.61516 -4.75778,-8.36374 -20.03213,-3.44995c-12.76713,4.1072 -16.3845,9.14565 -27.67825,11.89848c-24.80533,6.04626 -26.89851,4.23919 -28.06876,-0.56184c-0.79436,-3.25889 7.02416,-2.41716 10.90776,-7.30301c1.83777,-2.31206 -3.99118,-11.53806 3.97659,-13.48019c5.13783,-1.25234 11.49212,9.32588 21.612,4.16623c1.03047,-0.52538 11.02549,-9.46556 11.93066,-10.1559c9.36909,-7.1454 10.53869,3.59532 17.97052,3.31134c9.08862,-0.34729 6.68759,2.24934 11.15513,8.94049z" fill="#344e5f"/><path d="M281.24219,240.96087c0.0177,0.06441 1.3687,-1.65651 2.92028,-2.95681c1.14158,-0.9567 2.56704,-1.57652 2.75642,-1.64676c2.08959,-0.77503 3.76099,2.55003 3.79022,3.31645c0.02184,0.57264 -5.31792,0.09659 -6.94329,1.88266c-1.96931,2.16402 -1.24884,4.6552 -1.60362,5.18614c-0.59607,0.89197 -2.31939,1.15795 -3.04585,1.3576c-0.65078,0.17887 -1.30222,-0.74954 -1.87503,-1.79145c-0.55789,-1.01478 -1.02556,-2.13473 -2.4982,-2.62847c-1.72836,-0.57944 -2.83742,-0.0918 -4.52266,-0.42865c-0.65778,-0.13147 -1.47555,-0.03418 -2.34564,-0.93936c-0.77584,-0.80709 -1.59546,-2.58051 -2.3458,-3.36922c-0.56408,-0.59296 -2.07805,-1.51049 -2.08333,-1.5297c-0.09478,-0.34487 -1.15025,-0.9958 -0.31128,-1.20663c0.51628,-0.12976 0.3468,-0.29484 1.35509,-0.197c0.44421,0.04312 1.4667,0.60178 2.13942,1.45728c0.50639,0.64397 0.74646,2.2456 1.62147,2.29004c0.09484,0.00482 -0.09984,-0.9813 -0.21242,-1.67917c-0.12913,-0.80031 -0.10661,-1.83367 0.43756,-1.66247c0.50272,0.15817 1.08918,1.77217 1.60131,2.78643c0.57647,1.14167 1.42998,1.57251 2.70062,1.71799c0.68686,0.07863 1.64734,-0.40801 1.88797,-0.45071c0.47781,-0.08481 -1.42635,-4.30386 -3.59839,-6.05709c-2.17206,-1.75324 -6.52166,-1.91313 -6.64168,-2.20848c-0.62653,-1.54152 2.96969,-1.96689 4.57981,-2.87988c1.09542,-0.62115 2.95846,4.65821 4.13086,4.19855c0.34147,-0.13387 0.57812,-1.24307 0.92332,-1.89886c0.66288,-1.25925 -0.31985,-2.88634 0.03192,-4.33035c0.35534,-1.45877 2.79684,-2.449 2.93432,-2.05279c0.42086,1.21288 -0.081,4.01018 0.45262,5.59586c0.49518,1.47141 1.91883,0.87994 2.10213,1.84783c0.22943,1.21139 -4.03952,1.50765 -4.20999,2.24449c-0.30822,1.33216 2.62891,4.20252 2.92505,4.04091c1.24324,-0.67841 0.54981,-1.37653 1.13109,-2.52883c0.62937,-1.24769 2.81833,-3.17861 1.99838,-4.47455c-0.44067,-0.69645 -0.59714,-1.22193 -0.79532,-1.89266c-0.20436,-0.6917 -0.44457,-1.52514 -0.51474,-2.00581c-0.10569,-0.7239 1.37757,-2.39051 1.42213,-2.39833c1.00445,-0.17608 0.686,4.35342 1.28959,4.09749c1.06394,-0.45113 0.66606,-6.80373 2.02895,-7.87878c0.76456,-0.60309 0.88902,3.39193 1.8643,3.90608c1.59193,0.83923 3.98065,-1.23262 4.20112,-0.45048c0.14844,0.52666 -3.49214,1.89198 -5.27025,4.14893c-1.81367,2.30207 -0.97839,5.90632 -1.03338,5.99364c-0.22375,0.35535 -1.76858,1.27206 -2.56691,2.7036c-0.65713,1.17831 -0.8999,2.4375 -0.80814,2.77137z" data-paper-data="{&quot;index&quot;:null}" fill="#344e5f"/><path d="M328.95109,242.67349c0,9.28568 100.91323,36.8132 67.5,36.8132c-33.41323,0 -233.5,9.47247 -233.5,0.1868c0,-9.28568 2.08677,-30.8132 35.5,-30.8132c12.51486,0 35.96223,4.82943 57.89514,2.60215c36.62545,-3.71929 72.60486,-14.59669 72.60486,-8.78895z" fill="#344e5f"/></g></g></svg>