<svg version="1.1" xmlns="http://www.w3.org/2000/svg" xmlns:xlink="http://www.w3.org/1999/xlink" width="36.80088" height="19.67501" viewBox="0,0,36.80088,19.67501"><g transform="translate(-221.59956,-170.16249)"><g data-paper-data="{&quot;isPaintingLayer&quot;:true}" fill="#0e0e0f" fill-rule="nonzero" stroke="none" stroke-width="0" stroke-linecap="butt" stroke-linejoin="miter" stroke-miterlimit="10" stroke-dasharray="" stroke-dashoffset="0" style="mix-blend-mode: normal"><path d="M254.42603,174.18035c-0.63942,0.45449 -2.54632,2.19982 -3.27424,2.70265c-0.372,1.48284 -1.65415,2.7534 -2.55453,3.57319c-2.97866,2.71203 -4.70934,3.12133 -6.5428,4.41855c-2.30441,1.63043 -5.43856,-0.41873 -8.52439,0.93614c-0.98186,0.43109 -5.97229,-0.06274 -8.26655,-1.46217c-1.38353,-0.84392 -3.76523,-2.47169 -3.66063,-2.59837c0.13408,-0.16239 2.30159,-0.3169 2.82174,-0.89862c0.66597,-0.74482 2.93221,-1.15495 2.93221,-1.28174c0,-0.5547 1.82788,-2.48766 2.29397,-2.97521c1.24003,-1.29711 7.32229,-3.96 11.94125,-3.96c2.34782,0 2.94818,-0.02044 4.76844,0.36527c1.46833,0.31113 3.46786,-0.21689 4.38081,-1.15009c1.01875,-1.04135 0.64022,-2.15693 3.18924,-1.4817c0,0 0.87719,0.64793 1.52788,1.21538c0.71036,0.61949 2.11688,0.49333 2.94057,0.95152c0.07473,0.67982 -2.79649,0.66482 -2.79649,0.66482z"/><path d="M242.22335,178.00465c1.11804,-4.35903 3.27456,-3.6475 3.81839,-3.34806c0.54384,0.29944 2.11403,-1.74476 0.99599,2.61428c-0.36858,1.43707 -4.20399,4.31774 -4.58539,5.43226c-0.77551,2.26613 -2.14545,0.06583 -2.50999,-0.13489c-0.54384,-0.29944 1.16297,-0.20456 2.28101,-4.5636z"/><path d="M243.74569,184.48888c-1.26117,3.6976 -2.92954,5.76367 -4.35155,5.27865c-1.42201,-0.48502 0.15079,-3.89875 1.41195,-7.59635c1.26117,-3.6976 2.40279,-5.44652 3.82482,-4.9615c1.42201,0.48502 0.86614,0.93452 -0.39503,4.63212z"/></g></g></svg>