<svg version="1.1" xmlns="http://www.w3.org/2000/svg" xmlns:xlink="http://www.w3.org/1999/xlink" width="583.22383" height="476.09435" viewBox="0,0,583.22383,476.09435"><g transform="translate(62.41036,56.54439)"><g data-paper-data="{&quot;isPaintingLayer&quot;:true}" fill-rule="nonzero" stroke="none" stroke-linecap="butt" stroke-linejoin="miter" stroke-miterlimit="10" stroke-dasharray="" stroke-dashoffset="0" style="mix-blend-mode: normal"><path d="M215.35555,184.67773c0,-0.44122 -0.72356,-1.90648 -1.92892,-3.13241c-1.4644,-1.48939 -3.67216,-2.09407 -4.06711,-2.45514c-0.09705,-0.08873 -0.28791,-4.79953 -3.29389,-7.0157c-2.94704,-2.17272 -7.88148,-2.62089 -7.87695,-3.31816c0.00673,-1.03551 3.64158,0.7036 5.31424,-0.86523c1.02474,-0.96112 -0.17148,-5.91204 0.97164,-5.42918c2.03769,0.86072 3.69413,8.80083 5.1538,8.99585c0.82808,0.11063 -1.09287,-5.34746 0.20081,-5.47031c0.0574,-0.00545 2.44278,1.54149 2.55739,2.46667c0.0761,0.61433 0.06241,1.71954 0.04488,2.63849c-0.017,0.8911 -0.03181,1.58961 -0.33807,2.5942c-0.56987,1.86929 2.77189,3.50266 3.96662,4.82321c1.10339,1.21959 0.48708,2.31157 2.24383,2.72532c0.41846,0.09856 3.05812,-4.42027 2.2295,-5.95308c-0.45832,-0.84782 -5.8038,0.22983 -5.93101,-1.33616c-0.10164,-1.2512 1.84741,-1.00522 1.95895,-2.98043c0.1202,-2.1286 -1.44114,-5.3963 -1.33362,-7.02876c0.03512,-0.53328 3.36952,-0.14103 4.29879,1.53142c0.91987,1.65553 0.26183,3.98671 1.50162,5.31013c0.64564,0.68921 1.31099,1.97222 1.7758,2.0214c1.59581,0.16885 2.10211,-6.94731 3.65789,-6.55401c2.28675,0.5781 6.84927,-0.11373 6.60001,1.992c-0.04776,0.40345 -5.33834,2.06883 -7.41515,4.95664c-2.07682,2.88781 -2.99173,8.71503 -2.37597,8.65787c0.31011,-0.02879 1.65466,0.24479 2.47207,-0.08379c1.51219,-0.60786 2.41544,-1.42549 2.73822,-3.02299c0.28676,-1.4192 0.46231,-3.60049 1.02661,-3.9646c0.61084,-0.39414 0.98748,0.86799 1.09909,1.89498c0.09732,0.89554 0.19114,2.17298 0.30605,2.13503c1.06015,-0.3501 0.81424,-2.39919 1.21899,-3.36148c0.53769,-1.27837 1.60542,-2.31014 2.13668,-2.51312c1.20591,-0.46074 1.0534,-0.20066 1.73161,-0.21558c1.1021,-0.02425 0.02501,1.13201 0.02501,1.58778c0,0.02539 -1.5504,1.66411 -2.04328,2.58319c-0.65561,1.22253 -1.06383,3.67845 -1.74456,4.93216c-0.76345,1.40607 -1.80114,1.56268 -2.56499,1.94637c-1.95695,0.98299 -3.4844,0.75835 -5.41244,2.05403c-1.64277,1.10397 -1.83919,2.63806 -2.182,4.07338c-0.35198,1.47369 -0.83893,2.83446 -1.69896,2.83446c-0.96005,0 -3.16743,0.25518 -4.20106,-0.63953c-0.61526,-0.53258 -0.57126,-3.83692 -3.72187,-5.8309c-2.60037,-1.64573 -9.00081,0.74251 -9.16736,0.0315c-0.22292,-0.95161 0.70791,-5.60174 3.53723,-5.35507c0.25642,0.02236 2.21726,0.30257 3.94306,1.0926c2.34563,1.07377 4.58684,2.73206 4.58684,2.64696z" data-paper-data="{&quot;index&quot;:null}" fill="#344e5f" stroke-width="0"/><path d="M316.71713,205.44838c-1.42037,0.41167 -2.74017,1.21889 -3.02278,1.5577c-0.05451,0.06535 2.18857,-0.22309 4.11225,-0.01677c1.41535,0.15178 2.628,0.79838 2.77742,0.89391c1.64875,1.05405 -0.83942,5.03408 -1.56642,5.66687c-0.54319,0.47279 -2.38574,-4.17413 -4.81001,-4.05318c-2.93725,0.14654 -5.03066,2.70336 -5.69597,2.84193c-1.11771,0.2328 -2.1173,-0.93329 -2.62314,-1.35522c-0.45314,-0.37797 0.16192,-1.63695 0.92043,-2.92332c0.73876,-1.25288 1.61794,-2.51728 1.45952,-4.08702c-0.18592,-1.84234 -1.13463,-2.34113 -1.53607,-3.95607c-0.1567,-0.63035 -0.60312,-1.20666 -0.10473,-2.62195c0.4444,-1.26193 1.80244,-3.32728 2.24008,-4.55423c0.32903,-0.9224 0.5618,-2.86221 0.57806,-2.8817c0.29194,-0.34998 0.46506,-1.71127 1.03022,-1.20829c0.34778,0.30952 0.43402,0.04277 0.77428,0.92657c0.1499,0.38935 0.05158,1.65094 -0.48396,2.86893c-0.40313,0.91685 -1.84523,2.38231 -1.5109,3.11709c0.03624,0.07965 0.90392,-0.86009 1.52883,-1.50502c0.71665,-0.73959 1.72355,-1.54329 1.79293,-0.97216c0.06409,0.52762 -1.24062,2.27981 -1.99859,3.49568c-0.8532,1.3686 -0.90102,2.39346 -0.49362,3.52485c0.22022,0.61158 1.10389,0.9924 1.24884,1.1508c0.28782,0.31451 3.53835,-4.56244 4.29387,-7.69279c0.75551,-3.13035 -0.96529,-6.73441 -0.73203,-7.06522c1.21748,-1.72658 3.17828,0.80989 4.75344,1.37097c1.07164,0.38174 -3.21981,6.0689 -2.27083,6.64059c0.27642,0.16651 1.44879,-0.52632 2.23045,-0.77182c1.50095,-0.47141 2.64746,-2.55078 4.19257,-3.41782c1.56091,-0.87589 3.56903,0.28833 3.24594,0.71328c-0.98901,1.30086 -3.90477,3.124 -5.2049,4.81142c-1.20644,1.56583 -0.02195,2.23352 -0.87694,3.14968c-1.0701,1.14665 -3.1963,-2.03021 -3.98086,-1.58057c-1.41843,0.8129 -2.92212,5.44312 -2.63851,5.55135c1.19064,0.45435 1.56537,-0.65506 2.92794,-1.10668c1.47535,-0.489 4.28235,-0.27462 5.17944,-1.96054c0.48212,-0.90605 0.92175,-1.44896 1.48358,-2.14072c0.57939,-0.71339 1.28011,-1.56812 1.71371,-2.00643c0.653,-0.66009 2.90072,-0.79966 2.92748,-0.77025c0.60292,0.6629 -3.90535,4.01004 -3.39818,4.28902c0.894,0.49176 6.85276,-4.87763 8.47773,-4.64305c0.91158,0.1316 -2.88997,3.40778 -2.96569,4.59622c-0.12359,1.93986 2.90554,2.20186 2.2458,3c-0.44425,0.53744 -3.33123,-1.28705 -6.27572,-0.91377c-3.00337,0.38073 -6.1214,3.91438 -6.22937,3.93986c-0.43938,0.10371 -1.98995,-0.40226 -3.71555,0.09789z" data-paper-data="{&quot;index&quot;:null}" fill="#344e5f" stroke-width="0"/><path d="M302.39966,196.57776c0.00953,1.47878 0.42701,2.96847 0.67611,3.33263c0.04806,0.07024 0.38105,-2.16665 1.10319,-3.96155c0.53132,-1.32059 1.48356,-2.31145 1.61616,-2.42923c1.46302,-1.29958 4.61551,2.17795 5.02653,3.04976c0.30709,0.65136 -4.66591,1.1595 -5.2094,3.52515c-0.65849,2.86625 1.23198,5.57655 1.18423,6.25446c-0.08023,1.13887 -1.47437,1.78332 -2.01806,2.15522c-0.48704,0.33315 -1.53107,-0.60138 -2.56241,-1.68139c-1.00449,-1.05189 -1.98185,-2.24202 -3.53543,-2.51686c-1.82339,-0.32257 -2.56158,0.45453 -4.22481,0.40125c-0.6492,-0.02079 -1.32528,0.25192 -2.55147,-0.61289c-1.09333,-0.7711 -2.71105,-2.64004 -3.77255,-3.39512c-0.79802,-0.56767 -2.60122,-1.31966 -2.61556,-1.34061c-0.25731,-0.37618 -1.52008,-0.91329 -0.88225,-1.32021c0.39251,-0.25041 0.1593,-0.40601 1.10235,-0.49285c0.41545,-0.03825 1.60263,0.39973 2.62887,1.24659c0.7725,0.63746 1.79012,2.42401 2.58815,2.3023c0.08651,-0.01318 -0.58157,-1.1039 -1.03206,-1.88076c-0.5166,-0.8909 -1.01588,-2.07854 -0.44743,-1.98984c0.52514,0.08194 1.85606,1.81433 2.8197,2.87463c1.08469,1.19351 2.05784,1.51847 3.2574,1.43442c0.64842,-0.04544 1.25539,-0.79208 1.44727,-0.88845c0.38098,-0.19135 -3.42705,-4.64662 -6.23357,-6.22567c-2.80652,-1.57905 -6.74289,-0.90422 -6.99771,-1.21872c-1.33001,-1.64147 1.64439,-2.83784 2.61304,-4.2008c0.65901,-0.92728 4.96335,4.75015 5.77175,3.99261c0.23546,-0.22065 -0.1121,-1.53735 -0.13557,-2.35631c-0.04507,-1.57259 -1.73385,-3.24179 -2.14758,-4.96457c-0.41795,-1.74038 1.51095,-4.578 1.83192,-4.15145c0.98254,1.30575 1.68113,5.82989 2.95096,7.54024c1.17832,1.5871 2.14322,0.62906 2.79206,1.70115c0.81208,1.3418 -2.82356,2.52301 -2.60445,3.40033c0.39613,1.58613 4.44222,4.29337 4.62356,4.04992c0.76128,-1.022 -0.20425,-1.68457 -0.26793,-3.11862c-0.06897,-1.55276 0.90135,-4.19541 -0.47673,-5.51753c-0.74061,-0.71054 -1.14335,-1.28135 -1.65607,-2.01025c-0.52875,-0.75169 -1.16047,-1.6586 -1.46421,-2.19514c-0.45743,-0.80802 0.02008,-3.00886 0.05567,-3.02659c0.802,-0.39972 2.79564,4.8494 3.20213,4.43731c0.71652,-0.7264 -2.8282,-7.92168 -2.16017,-9.42144c0.37475,-0.84134 2.49249,3.70843 3.61543,4.10477c1.83298,0.64694 2.90959,-2.19651 3.49802,-1.34443c0.39622,0.57375 -2.14519,2.85512 -2.58748,5.79004c-0.45114,2.9936 2.10037,6.95574 2.09551,7.06657c-0.01981,0.45101 -0.92873,1.80533 -0.91716,3.60191z" data-paper-data="{&quot;index&quot;:null}" fill="#344e5f" stroke-width="0"/><path d="M236.34236,190.32935c1.42729,-0.38694 2.76091,-1.1711 3.04937,-1.50495c0.05564,-0.0644 -2.19211,0.18503 -4.11192,-0.05467c-1.41251,-0.17636 -2.61373,-0.84392 -2.76147,-0.94203c-1.63018,-1.08253 0.92674,-5.01873 1.66463,-5.6388c0.55132,-0.46329 2.31288,4.21494 4.73888,4.13613c2.93936,-0.0955 5.07686,-2.61557 5.74448,-2.74256c1.12159,-0.21335 2.10078,0.96993 2.59921,1.40059c0.44651,0.38579 -0.19033,1.63389 -0.97107,2.90689c-0.76041,1.23985 -1.66141,2.48878 -1.53029,4.06104c0.15389,1.8453 1.09377,2.3605 1.46711,3.98216c0.14572,0.63297 0.58207,1.21697 0.05917,2.62338c-0.46625,1.25402 -1.85996,3.29547 -2.31885,4.51463c-0.345,0.91654 -0.61143,2.85201 -0.62803,2.87122c-0.29798,0.34487 -0.49472,1.70294 -1.05106,1.19022c-0.34235,-0.31553 -0.43322,-0.05031 -0.75807,-0.93989c-0.14311,-0.3919 -0.02289,-1.65158 0.53373,-2.86009c0.41899,-0.9097 1.88634,-2.3499 1.56482,-3.09037c-0.03485,-0.08026 -0.91873,0.84426 -1.55475,1.47824c-0.72938,0.72703 -1.75009,1.51312 -1.80954,0.94087c-0.05492,-0.52865 1.28003,-2.25793 2.05901,-3.46044c0.87685,-1.35358 0.94246,-2.37745 0.55478,-3.51574c-0.20955,-0.61531 -1.08648,-1.01143 -1.22866,-1.17232c-0.28232,-0.31947 -3.61708,4.50027 -4.42686,7.61703c-0.80978,3.11676 0.84816,6.75016 0.60918,7.07687c-1.24729,1.70517 -3.16374,-0.86497 -4.72891,-1.45333c-1.06485,-0.40028 3.32474,-6.01205 2.38584,-6.60013c-0.27347,-0.17128 -1.45771,0.50108 -2.24351,0.73296c-1.50891,0.44526 -2.69136,2.50439 -4.2513,3.34446c-1.57589,0.84865 -3.56347,-0.35029 -3.23306,-0.76956c1.01146,-1.28349 3.95845,-3.0557 5.2877,-4.72028c1.23346,-1.54463 0.06074,-2.2328 0.93152,-3.13397c1.08985,-1.12789 3.16055,2.08542 3.9528,1.64948c1.43234,-0.78815 3.01624,-5.39154 2.73455,-5.50468c-1.18256,-0.47497 -1.57651,0.62777 -2.94672,1.05565c-1.48363,0.4633 -4.28647,0.2002 -5.21272,1.87028c-0.49778,0.89754 -0.94678,1.43273 -1.52054,2.11462c-0.59169,0.70322 -1.30716,1.54565 -1.74831,1.97636c-0.66438,0.64865 -2.91418,0.74914 -2.94042,0.71927c-0.59133,-0.67328 3.97441,-3.94159 3.47216,-4.22934c-0.88532,-0.50721 -6.93645,4.75786 -8.5571,4.49508c-0.90916,-0.14742 2.94873,-3.35707 3.04508,-4.54401c0.15728,-1.93741 -2.86686,-2.25199 -2.19335,-3.03855c0.45351,-0.52964 3.30837,1.34472 6.2589,1.02265c3.00953,-0.32851 6.18848,-3.80745 6.29688,-3.83106c0.44111,-0.09606 1.98266,0.43676 3.71669,-0.03333z" data-paper-data="{&quot;index&quot;:null}" fill="#344e5f" stroke-width="0"/><path d="M168.63961,178.80753c1.48049,-0.25648 1.43838,-4.93806 3.03284,-4.93806c4.10695,0 10.18374,-5.00593 13.29774,-3.46924c4.88045,2.40839 5.79317,12.28201 5.79317,16.76469c0,7.34287 -8.54729,13.29545 -19.09091,13.29545c-10.54362,0 -19.09091,-5.95257 -19.09091,-13.29545c0,-6.23245 7.74855,-6.91785 16.05807,-8.35739z" data-paper-data="{&quot;index&quot;:null}" fill="#344e5f" stroke-width="0"/><path d="M147.69171,192.79591c-1.3025,0.70029 -2.42375,1.76625 -2.62905,2.15678c-0.0396,0.07533 2.09317,-0.67695 4.01736,-0.8785c1.41572,-0.1483 2.73697,0.22971 2.9031,0.29179c1.83307,0.68498 0.23458,5.09819 -0.34361,5.86933c-0.43201,0.57617 -3.2078,-3.58123 -5.55284,-2.95474c-2.84127,0.75906 -4.35213,3.69792 -4.97361,3.97289c-1.04408,0.46194 -2.26592,-0.46868 -2.84897,-0.77519c-0.52231,-0.27458 -0.18485,-1.63452 0.28713,-3.05132c0.45968,-1.37991 1.05425,-2.80052 0.57027,-4.30217c-0.56801,-1.76243 -1.60019,-2.05126 -2.33128,-3.54614c-0.28536,-0.5835 -0.84268,-1.05342 -0.65207,-2.54174c0.16997,-1.32705 1.06485,-3.63121 1.23555,-4.92264c0.12833,-0.97089 -0.05073,-2.91638 -0.03891,-2.93885c0.21208,-0.40341 0.09597,-1.77075 0.75402,-1.39742c0.40494,0.22974 0.43335,-0.04917 0.95132,0.74366c0.2282,0.34928 0.39654,1.60343 0.12824,2.90664c-0.20197,0.98099 -1.3048,2.71621 -0.82386,3.36457c0.05213,0.07029 0.70353,-1.03048 1.17935,-1.79208c0.54566,-0.8734 1.3617,-1.87032 1.54927,-1.32643c0.17328,0.50246 -0.7351,2.48924 -1.22134,3.83699c-0.54733,1.51706 -0.37922,2.52917 0.2563,3.55001c0.34353,0.55182 1.28741,0.73893 1.46235,0.86342c0.34736,0.24719 2.50326,-5.20283 2.58573,-8.42201c0.08248,-3.21918 -2.35564,-6.3824 -2.19691,-6.75476c0.82846,-1.94346 3.27744,0.12558 4.93522,0.34398c1.12786,0.14858 -1.87596,6.60904 -0.82823,6.96907c0.30517,0.10487 1.30626,-0.81835 2.01907,-1.22226c1.36877,-0.77559 2.05387,-3.0491 3.38289,-4.22079c1.34259,-1.18366 3.55015,-0.46629 3.32333,0.01695c-0.69432,1.47929 -3.16309,3.87318 -4.08058,5.79566c-0.85137,1.78396 0.44678,2.1885 -0.19715,3.26354c-0.80594,1.34551 -3.5509,-1.31501 -4.22376,-0.7109c-1.21648,1.0922 -1.71609,5.93477 -1.41609,5.98113c1.25943,0.19466 1.39326,-0.96867 2.63087,-1.6959c1.34006,-0.78744 4.12961,-1.16628 4.65334,-3.00281c0.28146,-0.98699 0.59751,-1.60999 1.00183,-2.40416c0.41696,-0.819 0.92293,-1.80164 1.255,-2.32111c0.50011,-0.78232 2.66863,-1.39 2.70095,-1.36685c0.72851,0.52178 -2.97789,4.73966 -2.4235,4.90611c0.97723,0.29341 5.67793,-6.20586 7.31597,-6.31715c0.91892,-0.06243 -2.11134,3.93791 -1.93623,5.11581c0.28582,1.92266 3.30258,1.54381 2.82482,2.46252c-0.32171,0.61863 -3.52702,-0.56009 -6.32783,0.42217c-2.85681,1.00191 -5.16476,5.1107 -5.26499,5.15825c-0.40787,0.1935 -2.03006,0.02386 -3.61246,0.87464z" data-paper-data="{&quot;index&quot;:null}" fill="#344e5f" stroke-width="0"/><path d="M106.6404,214.43161c0.31933,1.44393 1.03983,2.81299 1.35974,3.11684c0.06171,0.05861 -0.08164,-2.19839 0.24817,-4.10479c0.24265,-1.40264 0.96602,-2.5711 1.07098,-2.71406c1.15806,-1.57741 4.96953,1.16196 5.55418,1.92822c0.43683,0.57252 -4.31914,2.1119 -4.35462,4.53892c-0.04297,2.94059 2.37369,5.19435 2.46911,5.86721c0.16031,1.13038 -1.06775,2.05278 -1.52139,2.53039c-0.40639,0.42785 -1.62313,-0.26703 -2.85796,-1.10683c-1.20268,-0.81794 -2.40783,-1.77673 -3.98451,-1.71977c-1.85049,0.06685 -2.40936,0.98144 -4.0468,1.27803c-0.63913,0.11576 -1.24302,0.52414 -2.62326,-0.06439c-1.23068,-0.52476 -3.20427,-2.01303 -4.40047,-2.5288c-0.89929,-0.38776 -2.82006,-0.74501 -2.83847,-0.76249c-0.33046,-0.31388 -1.67777,-0.57434 -1.13942,-1.10592c0.33129,-0.32713 0.07064,-0.43038 0.97453,-0.71299c0.3982,-0.12451 1.65082,0.05487 2.83179,0.66777c0.88897,0.46136 2.2585,1.99487 3.01328,1.70857c0.08181,-0.03103 -0.80007,-0.95745 -1.40341,-1.62261c-0.6919,-0.7628 -1.42906,-1.81937 -0.85465,-1.85182c0.53065,-0.02997 2.19517,1.38491 3.35968,2.21963c1.3108,0.93959 2.33045,1.05332 3.48573,0.71966c0.62448,-0.18036 1.06144,-1.03766 1.22885,-1.17211c0.3324,-0.26697 -4.32502,-3.82492 -7.4002,-4.78052c-3.07519,-0.9556 -6.78261,0.52946 -7.0977,0.27537c-1.64457,-1.32618 1.01293,-3.11951 1.67432,-4.65525c0.44997,-1.04483 5.84888,3.60406 6.4805,2.69389c0.18397,-0.26511 -0.43189,-1.47969 -0.62653,-2.27553c-0.37374,-1.5282 -2.37492,-2.80627 -3.14063,-4.40403c-0.77353,-1.61408 0.51764,-3.54302 0.92089,-3.19324c1.23445,1.07075 2.86596,4.0979 4.46613,5.50404c1.48486,1.30481 2.22748,0.16578 3.08665,1.07802c1.07533,1.14174 -2.23189,3.05888 -1.83373,3.87077c0.71984,1.46785 5.24358,3.2667 5.36985,2.99064c0.53011,-1.1589 -0.55287,-1.60432 -0.91577,-2.99315c-0.39295,-1.5038 0.00181,-4.29114 -1.62282,-5.29498c-0.87312,-0.53949 -1.38657,-1.01318 -2.0407,-1.6184c-0.67459,-0.62414 -1.4824,-1.37846 -1.89187,-1.8394c-0.61666,-0.69417 -0.61113,-2.94621 -0.58006,-2.97102c0.70037,-0.55897 3.75013,4.15556 4.0612,3.66741c0.54832,-0.86046 -4.42605,-7.15273 -4.08728,-8.75921c0.19004,-0.90122 3.21453,3.1035 4.39562,3.25561c1.92786,0.24829 2.38445,-2.75768 3.13843,-2.04789c0.5077,0.47794 -1.49897,3.2414 -1.31615,6.20382c0.18647,3.02166 3.51191,6.36085 3.53039,6.47024c0.07519,0.44515 -0.52961,1.95991 -0.14166,3.71414z" data-paper-data="{&quot;index&quot;:null}" fill="#344e5f" stroke-width="0"/><path d="M133.51217,224.05467c-0.05661,-0.35159 -0.8212,-1.42637 -1.93901,-2.24862c-1.35803,-0.99896 -3.19491,-1.19753 -3.55596,-1.43459c-0.08872,-0.05825 -0.84524,-3.78765 -3.52496,-5.16796c-2.62718,-1.35325 -6.61679,-1.07726 -6.70265,-1.63347c-0.1275,-0.82603 2.99214,0.09343 4.12374,-1.37133c0.69326,-0.89737 -0.89521,-4.68912 0.07766,-4.45102c1.7342,0.42443 4.07295,6.53913 5.26113,6.50724c0.67407,-0.01809 -1.55699,-4.12099 -0.54186,-4.38488c0.04504,-0.01171 2.14437,0.91494 2.3544,1.63748c0.13946,0.47978 0.27036,1.36224 0.3743,2.09677c0.10078,0.71226 0.17862,1.27079 0.06346,2.11061c-0.21427,1.56269 2.65824,2.4355 3.77972,3.33451c1.03573,0.83027 0.68473,1.77952 2.13772,1.88382c0.3461,0.02484 1.86976,-3.91476 1.01279,-5.02989c-0.47401,-0.61679 -4.59539,0.92781 -4.89768,-0.30375c-0.24153,-0.984 1.34318,-1.03806 1.17862,-2.62636c-0.17733,-1.71164 -1.84078,-4.11524 -1.96456,-5.42989c-0.04043,-0.42946 2.66696,-0.54471 3.62206,0.66878c0.94544,1.20121 0.72017,3.14328 1.87792,4.0388c0.60292,0.46636 1.29774,1.40339 1.67444,1.38294c1.29331,-0.0702 0.78372,-5.8058 2.07393,-5.69201c1.89642,0.16726 5.44338,-0.96944 5.51493,0.74053c0.01371,0.32763 -3.9885,2.33354 -5.27292,4.90121c-1.28442,2.56767 -1.26581,7.32859 -0.78247,7.20404c0.24342,-0.06274 1.34995,-0.01723 1.95916,-0.38395c1.12702,-0.67841 1.74188,-1.44585 1.79412,-2.76026c0.04641,-1.16771 -0.09358,-2.92843 0.30938,-3.29098c0.43619,-0.39246 0.89826,0.56497 1.11897,1.36903c0.19246,0.70114 0.43112,1.70705 0.51782,1.66206c0.79987,-0.41501 0.34101,-2.01631 0.54007,-2.83506c0.26444,-1.08769 0.9829,-2.04687 1.3802,-2.27678c0.90184,-0.52188 0.81368,-0.29506 1.35221,-0.39397c0.87512,-0.16073 0.16518,0.89887 0.22366,1.26205c0.00326,0.02023 -1.02195,1.52499 -1.29679,2.32062c-0.36558,1.05831 -0.37577,3.06773 -0.75736,4.15412c-0.42797,1.21841 -1.23478,1.47636 -1.79423,1.88011c-1.43331,1.03441 -2.67931,1.05138 -4.04946,2.33125c-1.16741,1.09049 -1.1271,2.33817 -1.21611,3.52591c-0.09139,1.2195 -0.30484,2.36633 -0.99017,2.47668c-0.76503,0.12318 -2.49128,0.60975 -3.42974,0.0294c-0.55862,-0.34545 -0.94752,-2.98422 -3.71399,-4.16891c-2.28331,-0.97778 -7.07719,1.74655 -7.30114,1.20134c-0.29974,-0.72971 -0.15462,-4.55468 2.13162,-4.72114c0.2072,-0.01508 1.80569,-0.04338 3.28229,0.36474c2.00693,0.55469 4.00565,1.58857 3.99473,1.52075z" data-paper-data="{&quot;index&quot;:null}" fill="#344e5f" stroke-width="0"/><path d="M147.48445,185.36392c-0.05661,-0.35159 -0.8212,-1.42637 -1.93901,-2.24862c-1.35803,-0.99896 -3.19491,-1.19753 -3.55596,-1.43459c-0.08872,-0.05825 -0.84524,-3.78765 -3.52496,-5.16796c-2.62718,-1.35325 -6.61679,-1.07726 -6.70265,-1.63347c-0.1275,-0.82603 2.99214,0.09343 4.12374,-1.37133c0.69326,-0.89737 -0.89521,-4.68912 0.07766,-4.45102c1.7342,0.42443 4.07295,6.53913 5.26113,6.50724c0.67407,-0.01809 -1.55699,-4.12099 -0.54186,-4.38488c0.04504,-0.01171 2.14437,0.91494 2.3544,1.63748c0.13946,0.47978 0.27036,1.36224 0.3743,2.09677c0.10078,0.71226 0.17862,1.27079 0.06346,2.11061c-0.21427,1.56269 2.65824,2.4355 3.77972,3.33451c1.03573,0.83027 0.68473,1.77952 2.13772,1.88382c0.3461,0.02484 1.86976,-3.91476 1.01279,-5.02989c-0.47401,-0.61679 -4.59539,0.92781 -4.89768,-0.30375c-0.24153,-0.984 1.34318,-1.03806 1.17862,-2.62636c-0.17733,-1.71164 -1.84078,-4.11524 -1.96456,-5.42989c-0.04043,-0.42946 2.66696,-0.54471 3.62206,0.66878c0.94544,1.20121 0.72017,3.14328 1.87792,4.0388c0.60292,0.46636 1.29774,1.40339 1.67444,1.38294c1.29331,-0.0702 0.78372,-5.8058 2.07393,-5.69201c1.89642,0.16726 5.44338,-0.96944 5.51493,0.74053c0.01371,0.32763 -3.9885,2.33354 -5.27292,4.90121c-1.28442,2.56767 -1.26581,7.32859 -0.78247,7.20404c0.24342,-0.06274 1.34995,-0.01723 1.95916,-0.38395c1.12702,-0.67841 1.74188,-1.44585 1.79412,-2.76026c0.04641,-1.16771 -0.09358,-2.92843 0.30938,-3.29098c0.43619,-0.39246 0.89826,0.56497 1.11897,1.36903c0.19246,0.70114 0.43112,1.70705 0.51782,1.66206c0.79987,-0.41501 0.34101,-2.01631 0.54007,-2.83506c0.26444,-1.08769 0.9829,-2.04687 1.3802,-2.27678c0.90184,-0.52188 0.81368,-0.29506 1.35221,-0.39397c0.87512,-0.16073 0.16518,0.89887 0.22366,1.26205c0.00326,0.02023 -1.02195,1.52499 -1.29679,2.32062c-0.36558,1.05831 -0.37577,3.06773 -0.75736,4.15412c-0.42797,1.21841 -1.23478,1.47636 -1.79423,1.88011c-1.43331,1.03441 -2.67931,1.05138 -4.04946,2.33125c-1.16741,1.09049 -1.1271,2.33817 -1.21611,3.52591c-0.09139,1.2195 -0.30484,2.36633 -0.99017,2.47668c-0.76503,0.12318 -2.49128,0.60975 -3.42974,0.0294c-0.55862,-0.34545 -0.94752,-2.98422 -3.71399,-4.16891c-2.28331,-0.97778 -7.07719,1.74655 -7.30114,1.20134c-0.29974,-0.72971 -0.15462,-4.55468 2.13162,-4.72114c0.2072,-0.01508 1.80569,-0.04338 3.28229,0.36474c2.00693,0.55469 4.00565,1.58857 3.99473,1.52075z" data-paper-data="{&quot;index&quot;:null}" fill="#344e5f" stroke-width="0"/><path d="M165.05686,173.15778c0,-1.10353 2.91991,-9.3747 6.97373,-9.89001c1.99358,-0.25341 4.11559,6.90925 6.58397,6.90925c7.4877,0 13.55769,1.33454 13.55769,2.98077c0,1.64623 -6.06998,2.98077 -13.55769,2.98077c-3.49981,0 -8.99759,5.09306 -11.40288,4.61439c-2.74073,-0.54542 -2.15481,-6.71839 -2.15481,-7.59516z" data-paper-data="{&quot;index&quot;:null}" fill="#344e5f" stroke-width="0"/><path d="" data-paper-data="{&quot;index&quot;:null}" fill="#344e5f" stroke-width="0"/><path d="" data-paper-data="{&quot;index&quot;:null}" fill="#344e5f" stroke-width="0"/><path d="M364.51375,196.88754c-0.43798,-0.05335 -1.97998,0.4877 -3.34268,1.53597c-1.65556,1.27355 -2.52278,3.39198 -2.92896,3.74037c-0.09981,0.08561 -4.79912,-0.2946 -7.36253,2.42132c-2.51316,2.66267 -3.55476,7.5067 -4.24636,7.41789c-1.02709,-0.13191 1.13881,-3.52978 -0.21624,-5.37987c-0.83015,-1.13344 -5.88939,-0.5447 -5.27184,-1.62104c1.10081,-1.91865 9.18296,-2.60276 9.55306,-4.02813c0.20997,-0.80863 -5.44037,0.4382 -5.40588,-0.86085c0.00154,-0.05764 1.82558,-2.23846 2.75783,-2.24034c0.61902,-0.00126 1.71446,0.14598 2.62454,0.27451c0.8825,0.12464 1.57411,0.2238 2.53429,0.6493c1.78665,0.79174 3.81215,-2.32798 5.26749,-3.35425c1.34406,-0.94781 2.35351,-0.20398 2.97666,-1.8978c0.14844,-0.40346 -4.01801,-3.57019 -5.63978,-2.93302c-0.89704,0.35243 -0.47371,5.78901 -2.04359,5.72591c-1.25431,-0.05041 -0.77444,-1.95541 -2.72167,-2.30499c-2.09845,-0.37672 -5.53097,0.778 -7.13845,0.47386c-0.52511,-0.09937 0.26748,-3.36186 2.04003,-4.08206c1.75462,-0.71293 3.98912,0.22218 5.45275,-0.84846c0.76222,-0.55755 2.11628,-1.06288 2.2213,-1.51832c0.36061,-1.56368 -6.64211,-2.92682 -6.06356,-4.42361c0.85038,-2.20005 0.71537,-6.81275 2.7755,-6.31068c0.3947,0.0962 1.40809,5.54934 4.02356,7.96013c2.61546,2.41078 8.28929,4.02365 8.30701,3.4055c0.00892,-0.31131 0.4431,-1.6129 0.21577,-2.46405c-0.42054,-1.57459 -1.12295,-2.5701 -2.66969,-3.08369c-1.37411,-0.45626 -3.51816,-0.8943 -3.81136,-1.49849c-0.31738,-0.65402 0.98104,-0.87528 2.01399,-0.86187c0.90074,0.01168 2.18013,0.07304 2.15636,-0.04562c-0.21933,-1.09471 -2.28312,-1.09839 -3.1894,-1.61654c-1.20398,-0.68832 -2.09905,-1.87299 -2.2363,-2.4249c-0.31154,-1.25277 -0.07181,-1.06994 -0.0046,-1.74497c0.1092,-1.09694 1.12673,0.11207 1.57915,0.16718c0.02521,0.00306 1.4644,1.74027 2.31714,2.34067c1.13427,0.79864 3.5228,1.50084 4.68499,2.32819c1.30342,0.92788 1.33341,1.97691 1.62191,2.78154c0.73914,2.06148 0.33143,3.55054 1.38445,5.62112c0.89721,1.76421 2.3963,2.14471 3.77962,2.65857c1.42031,0.5276 2.71221,1.17553 2.60821,2.02925c-0.11609,0.953 -0.12972,3.17505 -1.14286,4.09289c-0.60307,0.54634 -3.87784,0.10307 -6.23818,2.98944c-1.94811,2.38226 -0.3514,9.02454 -1.07733,9.10389c-0.97159,0.10621 -5.47503,-1.38012 -4.88803,-4.15884c0.05321,-0.25182 0.56848,-2.1644 1.56141,-3.782c1.34954,-2.19856 3.26669,-4.22279 3.18221,-4.23308z" data-paper-data="{&quot;index&quot;:null}" fill="#344e5f" stroke-width="0"/><path d="M-1.85898,220.60122c-1.40939,0.44778 -2.70816,1.2884 -2.98204,1.63432c-0.05283,0.06672 2.18217,-0.27886 4.11049,-0.1217c1.41877,0.11563 2.64751,0.73107 2.79932,0.82276c1.6751,1.01164 -0.71068,5.05385 -1.42131,5.70499c-0.53095,0.4865 -2.49148,-4.1119 -4.91187,-3.92913c-2.93256,0.22144 -4.96004,2.83085 -5.6216,2.98635c-1.1114,0.26124 -2.14043,-0.87896 -2.65687,-1.28785c-0.46264,-0.36629 0.1201,-1.64055 0.84554,-2.94586c0.70655,-1.27132 1.55317,-2.55774 1.35475,-4.12293c-0.23287,-1.837 -1.19398,-2.31142 -1.63651,-3.91558c-0.17273,-0.62614 -0.63373,-1.19089 -0.17161,-2.61843c0.41205,-1.27286 1.71695,-3.3722 2.12314,-4.60991c0.30537,-0.9305 0.48857,-2.8756 0.50433,-2.89551c0.28292,-0.35732 0.42125,-1.72259 0.99906,-1.23419c0.35556,0.30056 0.43497,0.03169 0.79767,0.90652c0.15978,0.38541 0.09369,1.64908 -0.4106,2.88035c-0.37961,0.92683 -1.78385,2.42862 -1.43088,3.15463c0.03825,0.0787 0.88168,-0.88287 1.48993,-1.54354c0.69753,-0.75764 1.6836,-1.58677 1.76753,-1.0176c0.07754,0.52581 -1.18204,2.31074 -1.90874,3.54555c-0.818,1.38994 -0.83965,2.41568 -0.40352,3.5363c0.23575,0.60575 1.12885,0.96391 1.2778,1.11855c0.29575,0.30707 3.42079,-4.65123 4.09618,-7.79985c0.67539,-3.14861 -1.13681,-6.70759 -0.91207,-7.04424c1.17302,-1.75709 3.19791,0.72852 4.78687,1.24923c1.08103,0.35426 -3.06389,6.14908 -2.10064,6.69636c0.28056,0.15941 1.43489,-0.56312 2.21002,-0.82848c1.48843,-0.50955 2.5815,-2.61749 4.10399,-3.52367c1.53804,-0.91544 3.57521,0.19716 3.26308,0.63022c-0.95549,1.32567 -3.82379,3.22261 -5.08044,4.94266c-1.16611,1.5961 0.03505,2.23336 -0.79629,3.17103c-1.0405,1.17357 -3.24707,-1.94799 -4.0199,-1.47848c-1.39723,0.84884 -2.78229,5.51592 -2.496,5.61687c1.20184,0.42382 1.54814,-0.6948 2.89874,-1.18104c1.4624,-0.52649 4.27394,-0.3838 5.12773,-2.09207c0.45884,-0.91806 0.88448,-1.47201 1.42847,-2.17788c0.56099,-0.72794 1.23967,-1.60027 1.66195,-2.0495c0.63594,-0.67654 2.87937,-0.87341 2.90687,-0.84469c0.61965,0.6473 -3.80175,4.10839 -3.28762,4.37433c0.90626,0.46878 6.72606,-5.0509 8.35649,-4.85786c0.91465,0.1083 -2.80207,3.48042 -2.84744,4.6704c-0.07406,1.94238 2.96078,2.127 2.32162,2.94171c-0.43039,0.5486 -3.36299,-1.20163 -6.297,-0.75334c-2.99268,0.45725 -6.01953,4.0693 -6.12682,4.09753c-0.43659,0.11489 -1.99956,-0.35135 -3.71184,0.19267z" data-paper-data="{&quot;index&quot;:null}" fill="#344e5f" stroke-width="0"/><path d="M56.16609,218.02081c-13.14002,-0.43922 -23.38391,3.62881 -23.16858,-2.81338c0.02921,-0.87402 4.76695,-0.11522 4.21871,-4.27569c-0.53816,-4.08397 -6.3795,-13.09733 -4.56974,-13.01156c0.38844,0.01841 2.22168,0.36301 3.72931,-0.85966c1.75215,-1.42098 3.23977,-4.36797 4.25227,-3.15349c0.6578,0.78901 -2.26132,9.67877 -1.57203,10.54983c3.467,4.38125 7.01873,9.18273 7.50025,8.19193c1.89676,-3.90286 -5.77557,-16.76471 -0.71149,-16.38158c0.33375,0.02525 1.99009,7.19967 4.13021,6.62395c1.51119,-0.40652 3.5951,-9.03433 4.16848,-7.63056c1.82951,4.47908 -1.21822,17.09109 -0.38386,17.11898c0.5098,0.01704 3.37593,-2.61905 4.28374,-8.47723c0.46591,-3.00653 -0.39279,-3.65821 0.66188,-3.6371c1.11642,0.02235 7.80955,-4.12077 9.59221,0.67125c0.75066,2.01786 -6.09787,1.4336 -6.65257,3.29646c-0.807,2.71016 4.36156,7.45676 4.61216,6.82207c1.44603,-3.66239 7.45449,-6.69184 8.41906,-6.70799c2.9538,-0.04946 0.23697,1.3843 0.98335,4.24267c0.42034,1.60976 -5.28085,0.18452 -4.55514,1.51682c2.36261,4.33742 9.55431,4.39167 9.47744,6.69141c-0.21533,6.44219 -11.27563,1.66206 -24.41565,1.22285z" data-paper-data="{&quot;index&quot;:null}" fill="#344e5f" stroke-width="0"/><path d="M269.1546,203.7416c-9.66626,-3.01206 -18.10356,-2.08565 -16.62684,-6.82475c0.20036,-0.64296 3.56287,0.88886 4.00626,-2.31221c0.43524,-3.14223 -2.05934,-11.02839 -0.73318,-10.59477c0.28466,0.09307 1.57532,0.72365 2.94462,0.12404c1.59137,-0.69687 3.29828,-2.58083 3.80177,-1.47215c0.32711,0.72028 -3.65741,6.72394 -3.32368,7.51157c1.67854,3.96163 3.33412,8.25259 3.89416,7.61538c2.20607,-2.51001 -0.86128,-13.62784 2.82032,-12.30822c0.24263,0.08697 0.00589,5.75232 1.71254,5.76233c1.20511,0.00707 4.51596,-5.97281 4.65473,-4.81336c0.44278,3.69955 -4.3981,12.44057 -3.78431,12.63183c0.37503,0.11685 3.04187,-1.25448 4.91337,-5.41844c0.96048,-2.13702 0.45613,-2.7964 1.23488,-2.56513c0.82434,0.2448 6.64067,-1.46318 6.9847,2.45913c0.14486,1.65165 -4.82052,-0.18206 -5.61316,1.08766c-1.15316,1.84725 1.71406,6.42796 2.02987,6.00795c1.82227,-2.42362 6.90261,-3.4447 7.62207,-3.25952c2.2032,0.56705 -0.10703,1.07622 -0.13714,3.35104c-0.01695,1.28112 -3.95856,-0.94246 -3.69209,0.19507c0.86754,3.70334 6.19607,5.21368 5.6689,6.90546c-1.47673,4.73911 -8.71153,-1.07082 -18.3778,-4.08289z" data-paper-data="{&quot;index&quot;:null}" fill="#344e5f" stroke-width="0"/><path d="" fill="#344e5f" stroke-width="0"/><path d="M163.23836,162.47666c5.66139,0.10862 1.62644,-8.6779 5.17473,-8.6779c6.52384,0 0.19052,7.68854 0.19052,15.52768c0,3.53269 5.96879,3.56455 3.50019,6.09159c-1.81055,1.85342 -2.13926,10.57923 -4.64333,10.57923c-4.831,0 -1.7941,-5.67876 -1.67252,-11.80911c0.01619,-0.81633 -1.82944,-4.72693 -4.1242,-6.77512c-3.74382,-3.34157 -8.68307,-5.20849 -8.68307,-6.46963c0,-3.57547 5.51009,1.44217 10.25768,1.53326z" data-paper-data="{&quot;index&quot;:null}" fill="#344e5f" stroke-width="0"/><path d="M-42.79895,197.92459c0,-3.57547 5.51009,1.44217 10.25768,1.53326c5.66139,0.10863 1.62645,-8.67789 5.17473,-8.67789c6.52384,0 0.19052,7.68854 0.19052,15.52767c0,3.5327 5.96879,3.56455 3.50019,6.09159c-1.81055,1.85342 -2.13925,10.57923 -4.64333,10.57923c-4.831,0 -1.7941,-5.67876 -1.67252,-11.80911c0.01619,-0.81633 -1.82945,-4.72693 -4.12421,-6.77512c-3.74383,-3.34156 -8.68307,-5.20849 -8.68307,-6.46962z" data-paper-data="{&quot;index&quot;:null}" fill="#344e5f" stroke-width="0"/><path d="M168.63961,178.80753c1.48049,-0.25648 1.43838,-4.93806 3.03284,-4.93806c4.10695,0 10.18374,-5.00593 13.29774,-3.46924c4.88045,2.40839 5.79317,12.28201 5.79317,16.76469c0,7.34287 -8.54729,13.29545 -19.09091,13.29545c-10.54362,0 -19.09091,-5.95257 -19.09091,-13.29545c0,-6.23245 7.74855,-6.91785 16.05807,-8.35739z" data-paper-data="{&quot;index&quot;:null}" fill="#344e5f" stroke-width="0"/><path d="M147.48445,185.36392c-0.05661,-0.35159 -0.8212,-1.42637 -1.93901,-2.24862c-1.35803,-0.99896 -3.19491,-1.19753 -3.55596,-1.43459c-0.08872,-0.05825 -0.84524,-3.78765 -3.52496,-5.16796c-2.62718,-1.35325 -6.61679,-1.07726 -6.70265,-1.63347c-0.1275,-0.82603 2.99214,0.09343 4.12374,-1.37133c0.69326,-0.89737 -0.89521,-4.68912 0.07766,-4.45102c1.7342,0.42443 4.07295,6.53913 5.26113,6.50724c0.67407,-0.01809 -1.55699,-4.12099 -0.54186,-4.38488c0.04504,-0.01171 2.14437,0.91494 2.3544,1.63748c0.13946,0.47978 0.27036,1.36224 0.3743,2.09677c0.10078,0.71226 0.17862,1.27079 0.06346,2.11061c-0.21427,1.56269 2.65824,2.4355 3.77972,3.33451c1.03573,0.83027 0.68473,1.77952 2.13772,1.88382c0.3461,0.02484 1.86976,-3.91476 1.01279,-5.02989c-0.47401,-0.61679 -4.59539,0.92781 -4.89768,-0.30375c-0.24153,-0.984 1.34318,-1.03806 1.17862,-2.62636c-0.17733,-1.71164 -1.84078,-4.11524 -1.96456,-5.42989c-0.04043,-0.42946 2.66696,-0.54471 3.62206,0.66878c0.94544,1.20121 0.72017,3.14328 1.87792,4.0388c0.60292,0.46636 1.29774,1.40339 1.67444,1.38294c1.29331,-0.0702 0.78372,-5.8058 2.07393,-5.69201c1.89642,0.16726 5.44338,-0.96944 5.51493,0.74053c0.01371,0.32763 -3.9885,2.33354 -5.27292,4.90121c-1.28442,2.56767 -1.26581,7.32859 -0.78247,7.20404c0.24342,-0.06274 1.34995,-0.01723 1.95916,-0.38395c1.12702,-0.67841 1.74188,-1.44585 1.79412,-2.76026c0.04641,-1.16771 -0.09358,-2.92843 0.30938,-3.29098c0.43619,-0.39246 0.89826,0.56497 1.11897,1.36903c0.19246,0.70114 0.43112,1.70705 0.51782,1.66206c0.79987,-0.41501 0.34101,-2.01631 0.54007,-2.83506c0.26444,-1.08769 0.9829,-2.04687 1.3802,-2.27678c0.90184,-0.52188 0.81368,-0.29506 1.35221,-0.39397c0.87512,-0.16073 0.16518,0.89887 0.22366,1.26205c0.00326,0.02023 -1.02195,1.52499 -1.29679,2.32062c-0.36558,1.05831 -0.37577,3.06773 -0.75736,4.15412c-0.42797,1.21841 -1.23478,1.47636 -1.79423,1.88011c-1.43331,1.03441 -2.67931,1.05138 -4.04946,2.33125c-1.16741,1.09049 -1.1271,2.33817 -1.21611,3.52591c-0.09139,1.2195 -0.30484,2.36633 -0.99017,2.47668c-0.76503,0.12318 -2.49128,0.60975 -3.42974,0.0294c-0.55862,-0.34545 -0.94752,-2.98422 -3.71399,-4.16891c-2.28331,-0.97778 -7.07719,1.74655 -7.30114,1.20134c-0.29974,-0.72971 -0.15462,-4.55468 2.13162,-4.72114c0.2072,-0.01508 1.80569,-0.04338 3.28229,0.36474c2.00693,0.55469 4.00565,1.58857 3.99473,1.52075z" data-paper-data="{&quot;index&quot;:null}" fill="#344e5f" stroke-width="0"/><path d="M163.23836,162.47666c5.66139,0.10862 1.62644,-8.6779 5.17473,-8.6779c6.52384,0 0.19052,7.68854 0.19052,15.52768c0,3.53269 5.96879,3.56455 3.50019,6.09159c-1.81055,1.85342 -2.13926,10.57923 -4.64333,10.57923c-4.831,0 -1.7941,-5.67876 -1.67252,-11.80911c0.01619,-0.81633 -1.82944,-4.72693 -4.1242,-6.77512c-3.74382,-3.34157 -8.68307,-5.20849 -8.68307,-6.46963c0,-3.57547 5.51009,1.44217 10.25768,1.53326z" data-paper-data="{&quot;index&quot;:null}" fill="#344e5f" stroke-width="0"/><path d="M386.55257,204.96014c4.67993,-4.11603 10.31189,1.24969 16.8806,6.53859c1.17033,0.94232 4.65791,-2.18111 5.71092,-0.98383c2.71232,3.0839 10.48448,4.34094 11.38713,7.69409c1.41469,5.25526 -5.39661,12.46134 -8.76264,15.42179c-5.51373,4.84936 -15.62831,2.36242 -22.59151,-5.55476c-6.9632,-7.91718 -8.13822,-18.26651 -2.62447,-23.11588z" data-paper-data="{&quot;index&quot;:null}" fill="#344e5f" stroke-width="0"/><path d="M384.53872,199.94335c0.22662,-0.27471 0.52872,-1.55864 0.40792,-2.94103c-0.14675,-1.67947 -1.21075,-3.18992 -1.27119,-3.61759c-0.01486,-0.10509 2.28591,-3.13613 1.55265,-6.0599c-0.71889,-2.86645 -3.56094,-5.67998 -3.19999,-6.11178c0.53607,-0.64127 1.90592,2.30849 3.75313,2.19085c1.13168,-0.07207 2.92984,-3.76899 3.39355,-2.88122c0.82659,1.5825 -2.22036,7.37693 -1.41172,8.24807c0.45876,0.49421 2.06617,-3.89072 2.93474,-3.30274c0.03853,0.02609 0.72915,2.21445 0.32531,2.84934c-0.26816,0.42158 -0.84435,1.10266 -1.32726,1.66581c-0.46827,0.54607 -0.83627,0.97338 -1.54294,1.44154c-1.31492,0.87114 -0.07326,3.60452 -0.00767,5.04036c0.06057,1.32606 -0.88403,1.6894 -0.00276,2.84932c0.20992,0.27628 4.17441,-1.18139 4.4458,-2.56134c0.15009,-0.76327 -3.73158,-2.83793 -3.00644,-3.87826c0.57938,-0.83122 1.66654,0.32303 2.75051,-0.84948c1.16816,-1.26355 1.87444,-4.10001 2.77986,-5.06118c0.29578,-0.31398 2.17033,1.64288 1.88989,3.16147c-0.2776,1.50322 -1.88467,2.61665 -1.79251,4.07742c0.048,0.76072 -0.19674,1.90129 0.06739,2.17065c0.90684,0.92478 4.87714,-3.24577 5.64378,-2.2018c1.12683,1.53448 4.32286,3.44718 3.0861,4.6302c-0.23697,0.22667 -4.38634,-1.45384 -7.16265,-0.72257c-2.77631,0.73127 -6.33898,3.88945 -5.92625,4.17013c0.20788,0.14135 0.90448,1.00229 1.58218,1.21756c1.25372,0.39824 2.23605,0.3531 3.25754,-0.47573c0.90748,-0.73633 2.13714,-2.00426 2.67551,-1.94111c0.58277,0.06834 0.16899,1.04761 -0.28901,1.74436c-0.39938,0.60756 -0.9971,1.45109 -0.90606,1.48648c0.83988,0.32654 1.73925,-1.07554 2.48551,-1.46679c0.99138,-0.51976 2.18611,-0.61373 2.62114,-0.46724c0.98747,0.33252 0.75894,0.41613 1.18886,0.75518c0.69863,0.55098 -0.56587,0.71767 -0.79996,1.00143c-0.01305,0.01581 -1.82003,0.23976 -2.59898,0.55883c-1.03612,0.42441 -2.55171,1.74382 -3.61949,2.17476c-1.19754,0.4833 -1.92406,0.04782 -2.59671,-0.10562c-1.72332,-0.39312 -2.55895,-1.31754 -4.42487,-1.50113c-1.58983,-0.15642 -2.50008,0.69784 -3.45074,1.41541c-0.97608,0.73676 -1.9782,1.33386 -2.51366,0.89213c-0.59774,-0.4931 -2.10314,-1.468 -2.28714,-2.55596c-0.10952,-0.64761 1.61509,-2.68233 0.67764,-5.54205c-0.77373,-2.36028 -5.98539,-4.16079 -5.72389,-4.68902c0.34999,-0.70698 3.31799,-3.1241 4.95286,-1.5173c0.14816,0.14563 1.22508,1.32723 1.8938,2.70554c0.90891,1.87332 1.45256,4.05695 1.49627,4.00396z" data-paper-data="{&quot;index&quot;:null}" fill="#344e5f" stroke-width="0"/><path d="M406.50588,187.94266c2.68481,-2.36131 2.55604,5.08995 5.62304,8.71506c3.65732,4.32285 7.59034,-4.50976 9.9337,-1.84536c4.30847,4.89874 -5.64748,5.22072 -11.53387,10.39784c-2.65269,2.33306 1.26529,6.83605 -2.26257,6.65129c-2.58745,-0.1355 -9.35673,5.38036 -11.01046,3.50006c-3.19049,-3.62759 3.07931,-5.09755 7.76287,-9.05485c0.62367,-0.52696 2.34124,-4.49547 2.36372,-7.57127c0.03669,-5.01806 -1.82342,-9.95988 -0.87643,-10.79276z" data-paper-data="{&quot;index&quot;:null}" fill="#344e5f" stroke-width="0"/><path d="M386.55257,204.96014c4.67993,-4.11603 10.31189,1.24969 16.8806,6.53859c1.17033,0.94232 4.65791,-2.18111 5.71092,-0.98383c2.71232,3.0839 10.48448,4.34094 11.38713,7.69409c1.41469,5.25526 -5.39661,12.46134 -8.76264,15.42179c-5.51373,4.84936 -15.62831,2.36242 -22.59151,-5.55476c-6.9632,-7.91718 -8.13822,-18.26651 -2.62447,-23.11588z" data-paper-data="{&quot;index&quot;:null}" fill="#344e5f" stroke-width="0"/><path d="M384.53872,199.94335c0.22662,-0.27471 0.52872,-1.55864 0.40792,-2.94103c-0.14675,-1.67947 -1.21075,-3.18992 -1.27119,-3.61759c-0.01486,-0.10509 2.28591,-3.13613 1.55265,-6.0599c-0.71889,-2.86645 -3.56094,-5.67998 -3.19999,-6.11178c0.53607,-0.64127 1.90592,2.30849 3.75313,2.19085c1.13168,-0.07207 2.92984,-3.76899 3.39355,-2.88122c0.82659,1.5825 -2.22036,7.37693 -1.41172,8.24807c0.45876,0.49421 2.06617,-3.89072 2.93474,-3.30274c0.03853,0.02609 0.72915,2.21445 0.32531,2.84934c-0.26816,0.42158 -0.84435,1.10266 -1.32726,1.66581c-0.46827,0.54607 -0.83627,0.97338 -1.54294,1.44154c-1.31492,0.87114 -0.07326,3.60452 -0.00767,5.04036c0.06057,1.32606 -0.88403,1.6894 -0.00276,2.84932c0.20992,0.27628 4.17441,-1.18139 4.4458,-2.56134c0.15009,-0.76327 -3.73158,-2.83793 -3.00644,-3.87826c0.57938,-0.83122 1.66654,0.32303 2.75051,-0.84948c1.16816,-1.26355 1.87444,-4.10001 2.77986,-5.06118c0.29578,-0.31398 2.17033,1.64288 1.88989,3.16147c-0.2776,1.50322 -1.88467,2.61665 -1.79251,4.07742c0.048,0.76072 -0.19674,1.90129 0.06739,2.17065c0.90684,0.92478 4.87714,-3.24577 5.64378,-2.2018c1.12683,1.53448 4.32286,3.44718 3.0861,4.6302c-0.23697,0.22667 -4.38634,-1.45384 -7.16265,-0.72257c-2.77631,0.73127 -6.33898,3.88945 -5.92625,4.17013c0.20788,0.14135 0.90448,1.00229 1.58218,1.21756c1.25372,0.39824 2.23605,0.3531 3.25754,-0.47573c0.90748,-0.73633 2.13714,-2.00426 2.67551,-1.94111c0.58277,0.06834 0.16899,1.04761 -0.28901,1.74436c-0.39938,0.60756 -0.9971,1.45109 -0.90606,1.48648c0.83988,0.32654 1.73925,-1.07554 2.48551,-1.46679c0.99138,-0.51976 2.18611,-0.61373 2.62114,-0.46724c0.98747,0.33252 0.75894,0.41613 1.18886,0.75518c0.69863,0.55098 -0.56587,0.71767 -0.79996,1.00143c-0.01305,0.01581 -1.82003,0.23976 -2.59898,0.55883c-1.03612,0.42441 -2.55171,1.74382 -3.61949,2.17476c-1.19754,0.4833 -1.92406,0.04782 -2.59671,-0.10562c-1.72332,-0.39312 -2.55895,-1.31754 -4.42487,-1.50113c-1.58983,-0.15642 -2.50008,0.69784 -3.45074,1.41541c-0.97608,0.73676 -1.9782,1.33386 -2.51366,0.89213c-0.59774,-0.4931 -2.10314,-1.468 -2.28714,-2.55596c-0.10952,-0.64761 1.61509,-2.68233 0.67764,-5.54205c-0.77373,-2.36028 -5.98539,-4.16079 -5.72389,-4.68902c0.34999,-0.70698 3.31799,-3.1241 4.95286,-1.5173c0.14816,0.14563 1.22508,1.32723 1.8938,2.70554c0.90891,1.87332 1.45256,4.05695 1.49627,4.00396z" data-paper-data="{&quot;index&quot;:null}" fill="#344e5f" stroke-width="0"/><path d="M436.13719,239.13925c-0.94699,-0.83288 0.91312,-5.7747 0.87643,-10.79276c-0.02248,-3.0758 -1.74005,-7.04431 -2.36372,-7.57127c-4.68356,-3.9573 -10.95336,-5.42726 -7.76287,-9.05485c1.65373,-1.8803 8.42301,3.63556 11.01046,3.50006c3.52786,-0.18476 -0.39012,4.31823 2.26257,6.65129c5.88639,5.17712 15.84234,5.4991 11.53387,10.39784c-2.34336,2.6644 -6.27638,-6.16821 -9.9337,-1.84536c-3.067,3.62511 -2.93823,11.07637 -5.62304,8.71506z" data-paper-data="{&quot;index&quot;:null}" fill="#344e5f" stroke-width="0"/><path d="M-35.65961,327.41622c-2.62635,12.88237 -0.32526,23.66157 -6.64113,22.37395c-0.85689,-0.17469 0.68207,-4.71931 -3.51154,-4.87321c-4.11651,-0.15107 -13.97844,4.10384 -13.59179,2.33379c0.08299,-0.37991 0.72875,-2.12992 -0.22512,-3.82048c-1.10859,-1.96475 -3.76592,-3.9234 -2.39948,-4.71898c0.88774,-0.51687 9.16554,3.84515 10.13943,3.31092c4.89848,-2.68706 10.22545,-5.38751 9.32892,-6.02766c-3.5315,-2.5216 -17.49355,2.89625 -16.27052,-2.03284c0.0806,-0.32485 7.43084,-0.76043 7.22042,-2.96662c-0.14857,-1.55785 -8.3075,-5.05265 -6.82772,-5.38367c4.72162,-1.05621 16.64798,4.05391 16.81475,3.23591c0.10189,-0.4998 -2.01881,-3.76573 -7.64328,-5.63863c-2.88659,-0.96122 -3.67246,-0.22334 -3.4756,-1.25969c0.20839,-1.09703 -2.75942,-8.38782 2.26293,-9.3456c2.11485,-0.40332 0.39565,6.25161 2.13979,7.10947c2.53744,1.24805 8.08017,-3.05572 7.49621,-3.40874c-3.36965,-2.03705 -5.35369,-8.46689 -5.20861,-9.42062c0.44427,-2.92061 1.40444,-0.00258 4.34729,-0.26138c1.65734,-0.14575 -0.69953,5.23757 0.73521,4.74442c4.67093,-1.60548 5.92483,-8.68724 8.17948,-8.22758c6.31587,1.28762 -0.24335,11.39487 -2.86968,24.27724z" data-paper-data="{&quot;index&quot;:null}" fill="#344e5f" stroke-width="0"/><path d="M-32.00208,-56.29439c0,-0.13807 0.11193,-0.25 0.25,-0.25c0.13807,0 0.25,0.11193 0.25,0.25c0,0.13807 -0.11193,0.25 -0.25,0.25c-0.13807,0 -0.25,-0.11193 -0.25,-0.25z" fill-opacity="0.06275" fill="#5e5e5e" stroke-width="0.5"/><path d="M495.69553,394.08748c-2.43484,8.50792 -175.69004,32.22778 -275.79971,23.60477c-42.50439,-3.66114 -184.26433,-5.20738 -227.4598,-13.90521c-48.03382,-9.67207 -42.53711,-11.62186 -47.64232,-25.00379c-5.42383,-14.2171 12.35713,-62.27914 12.35713,-62.27914c0,-5.13271 15.89546,-14.60738 17.14948,-23.73893c1.90061,-13.83991 -10.5064,-28.9793 -9.99747,-43.53287c0.46774,-13.37572 6.6369,-31.15477 19.55186,-34.66653c25.82951,-7.02339 22.55137,-0.65592 46.82489,0.15962c18.53511,0.62274 38.53571,-5.26624 54.63517,-8.39402c19.4283,-3.77449 46.08559,-14.14249 69.61823,-21.57765c4.69698,-1.48401 19.5555,-2.91823 34.29871,-2.72646c3.93343,0.05116 6.38345,4.62806 10.10529,4.94062c2.72067,0.22849 6.80786,-3.87518 9.23495,-3.47932c17.13958,2.79549 28.90391,9.1664 38.39987,11.63558c3.85584,1.00257 6.06419,1.72959 10.04187,1.72959c1.60729,0 18.61153,9.63856 21.21457,8.42c22.80778,-10.67697 26.5296,7.08546 49.38618,-3.48104c0.45784,-0.21165 41.78529,-4.53293 51.01402,11.84518c2.21841,3.937 35.354,4.91711 40.76239,12.11404c6.09658,8.1127 35.88935,8.42444 44.3702,15.0231c10.27149,7.9919 50.02039,12.7753 51.37539,18.62025c11.29188,48.70869 3.24628,85.16737 -2.72722,106.04016z" data-paper-data="{&quot;index&quot;:null}" fill="#344e5f" stroke-width="0"/></g></g></svg>