<svg version="1.1" xmlns="http://www.w3.org/2000/svg" xmlns:xlink="http://www.w3.org/1999/xlink" width="719.48181" height="545.36069" viewBox="0,0,719.48181,545.36069"><defs><linearGradient x1="429.28486" y1="218.83056" x2="429.28486" y2="440.38585" gradientUnits="userSpaceOnUse" id="color-1"><stop offset="0" stop-color="#344e5f" stop-opacity="0"/><stop offset="1" stop-color="#344e5f"/></linearGradient><linearGradient x1="429.28485" y1="218.83056" x2="429.28485" y2="440.38585" gradientUnits="userSpaceOnUse" id="color-2"><stop offset="0" stop-color="#344e5f" stop-opacity="0"/><stop offset="1" stop-color="#344e5f"/></linearGradient></defs><g transform="translate(121.32623,90.67764)"><g data-paper-data="{&quot;isPaintingLayer&quot;:true}" fill-rule="nonzero" stroke="none" stroke-width="0" stroke-linecap="butt" stroke-linejoin="miter" stroke-miterlimit="10" stroke-dasharray="" stroke-dashoffset="0" style="mix-blend-mode: normal"><path d="M531.875,399.98234c0,59.20258 -76.60487,35.09145 -126.60359,37.19389c-5.09361,0.21418 -25.02663,10.25117 -33.59317,-6.30059c-7.78061,-15.03325 -4.37193,-49.39013 -6.36383,-66.54216c-0.79979,-6.88691 0.06559,-38.06768 -9.10369,-56.13709c-11.54205,-22.7453 -33.56899,-33.21207 -33.93131,-43.85226c-0.39102,-11.48328 16.76741,-52.27988 11.24258,-57.83118c-2.74177,-2.75491 57.84221,-29.66384 77.52953,-25.29732c40.71366,9.03001 77.28902,5.99559 104.90869,25.59358c48.72529,34.57381 15.91478,193.17314 15.91478,193.17314z" data-paper-data="{&quot;index&quot;:null}" fill="url(#color-1)"/><path d="M531.875,399.98233c0,59.20258 -76.60487,35.09145 -126.60359,37.19389c-5.09361,0.21419 -25.02663,10.25117 -33.59317,-6.30059c-6.91824,-13.36701 -4.72951,-39.40224 -5.61737,-57.64534c-0.11067,-2.27405 -0.52568,-6.99575 -0.74645,-8.89682c-0.79979,-6.88692 3.64461,-33.29566 -5.52467,-51.36507c-11.54205,-22.74531 -37.14801,-37.9841 -37.51033,-48.62429c-0.39102,-11.48329 16.76741,-52.27988 11.24258,-57.83118c-2.74178,-2.75491 57.84221,-29.66383 77.52953,-25.29732c40.71366,9.03001 77.28902,5.99559 104.90869,25.59358c48.72529,34.57382 15.91478,193.17313 15.91478,193.17313z" data-paper-data="{&quot;index&quot;:null}" fill="url(#color-2)"/><path d="" data-paper-data="{&quot;index&quot;:null}" fill="#344e5f"/><path d="" data-paper-data="{&quot;index&quot;:null}" fill="#344e5f"/><path d="" data-paper-data="{&quot;index&quot;:null}" fill="#344e5f"/><path d="" data-paper-data="{&quot;index&quot;:null}" fill="#344e5f"/><path d="" data-paper-data="{&quot;index&quot;:null}" fill="#344e5f"/><path d="" data-paper-data="{&quot;index&quot;:null}" fill="#344e5f"/><path d="" data-paper-data="{&quot;index&quot;:null}" fill="#344e5f"/><path d="" data-paper-data="{&quot;index&quot;:null}" fill="#344e5f"/><path d="" data-paper-data="{&quot;index&quot;:null}" fill="#344e5f"/><path d="" data-paper-data="{&quot;index&quot;:null}" fill="#344e5f"/><path d="" data-paper-data="{&quot;index&quot;:null}" fill="#344e5f"/><path d="" data-paper-data="{&quot;index&quot;:null}" fill="#344e5f"/><path d="" data-paper-data="{&quot;index&quot;:null}" fill="#344e5f"/><path d="" data-paper-data="{&quot;index&quot;:null}" fill="#344e5f"/><path d="" data-paper-data="{&quot;index&quot;:null}" fill="#344e5f"/><path d="" data-paper-data="{&quot;index&quot;:null}" fill="#344e5f"/><path d="" data-paper-data="{&quot;index&quot;:null}" fill="#344e5f"/><path d="" data-paper-data="{&quot;index&quot;:null}" fill="#344e5f"/><path d="" data-paper-data="{&quot;index&quot;:null}" fill="#344e5f"/><path d="" data-paper-data="{&quot;index&quot;:null}" fill="#344e5f"/><path d="" data-paper-data="{&quot;index&quot;:null}" fill="#344e5f"/><path d="M-108.95685,434.25526v-515.00682c0,0 99.25964,0 171.94458,0c125.95366,0 -171.94458,515.00682 -171.94458,515.00682z" fill="none"/><path d="" data-paper-data="{&quot;index&quot;:null}" fill="#344e5f"/><path d="" data-paper-data="{&quot;index&quot;:null}" fill="#344e5f"/><path d="M-117.125,454.68305l-4.20123,-539.55909l715.28058,-5.8016l4.20123,539.55909z" fill="none"/><path d="M-86.43863,440.31079v-521.94077h673.45271v521.94077z" fill="none"/></g></g></svg>