<svg version="1.1" xmlns="http://www.w3.org/2000/svg" xmlns:xlink="http://www.w3.org/1999/xlink" width="718.22836" height="536.0106" viewBox="0,0,718.22836,536.0106"><defs><radialGradient cx="133.60915" cy="250.68929" r="96.78942" gradientUnits="userSpaceOnUse" id="color-1"><stop offset="0" stop-color="#ffffff" stop-opacity="0.59742"/><stop offset="1" stop-color="#ffffff" stop-opacity="0"/></radialGradient></defs><g transform="translate(117.65903,87.44826)"><g data-paper-data="{&quot;isPaintingLayer&quot;:true}" fill-rule="nonzero" stroke="none" stroke-linecap="butt" stroke-linejoin="miter" stroke-miterlimit="10" stroke-dasharray="" stroke-dashoffset="0" style="mix-blend-mode: normal"><path d="M254.55054,267.12886c0,46.57356 -67.48606,67.88932 -120.94138,67.88932c-53.45532,0 -96.78941,-37.75533 -96.78941,-84.32888c0,-46.57355 43.33409,-84.32888 96.78942,-84.32888c25.83185,0 58.43327,-19.19142 75.79005,-4.82345c6.47262,5.35805 44.97434,3.9042 51.93183,17.67763c12.99347,25.72257 -6.7805,72.23998 -6.7805,87.91427z" fill="url(#color-1)" stroke-width="0"/><path d="M130.93201,312.82367l-3.98639,8.4424l-33.49474,-15.81579l3.98622,-8.44204l3.5645,1.68311c1.15356,-0.60252 3.43717,-1.39288 3.90298,-2.09687c0.58698,-0.88929 1.03712,-10.77819 1.35212,-11.79591c0.31308,-1.01687 3.97812,-8.7787 4.29889,-9.45802c0.32195,-0.68182 1.40495,-3.44502 1.40495,-3.44502l-2.44396,-0.81986c0,0 -1.70264,-3.8019 -2.28427,-5.74116c-0.58239,-1.94137 -0.07579,-3.36809 0.43792,-4.456c0.51496,-1.09059 3.29069,-9.43613 3.87768,-10.32542c0.58497,-0.88871 6.30401,-10.17913 7.99016,-13.04612c1.68726,-2.86516 3.2186,-3.64115 5.23106,-4.02443c2.01127,-0.38078 8.73667,-0.86983 8.73667,-0.86983l1.54295,-3.26767c0,0 -1.872,-2.38126 -0.69311,-3.82338c-0.18766,-2.41978 0.35202,-5.32864 2.49241,-5.98238c0.09116,-1.95573 4.02783,-3.5932 7.09604,-1.97889c3.65309,0.72578 6.70224,4.49694 5.34429,7.01899c-0.61304,2.70715 -1.70221,2.19286 -2.37527,2.20942l-0.51933,0.86504l-0.62304,2.25872c0,0 -0.08057,0.40544 -0.98842,-0.02323l-1.2004,2.54221c-0.17115,0.36246 -0.97758,0.42669 -1.76146,-0.49934l-0.85734,1.81569c0,0 1.69676,1.57883 3.05789,2.22154c1.36114,0.64271 4.72054,2.22898 5.95572,5.25448c1.23604,3.02415 1.51365,11.37185 2.05562,13.51413c0.54291,2.14447 -0.75899,4.19352 -2.36227,4.76847c-1.60345,0.57488 -3.79691,-1.12608 -4.43038,-3.3131c-0.63195,-2.18652 -1.6718,-8.45034 -1.6718,-8.45034c0,0 -8.73888,18.74203 -9.08194,19.46856c-0.34306,0.72653 -4.21541,15.16113 -4.53889,16.78541c0.46148,2.54754 0.08159,7.58509 -0.96576,10.97721c-1.04569,3.39138 -2.27693,7.52723 -2.3381,8.83034c-0.05966,1.30361 0.52232,5.24333 1.18281,6.66547c0.14211,0.30481 0.24381,0.6614 0.3027,1.02991zM121.81903,252.07222l0.46599,-6.27443l-5.4575,5.91606l-4.6449,9.12931l1.37342,4.14483c0,0 0.87826,-2.91454 1.9217,-4.42039c1.04379,-1.50612 6.34109,-8.49547 6.34127,-8.49538zM121.35987,308.30382c-0.34224,-1.03415 -0.59029,-1.80514 -0.5012,-2.12303c0.16678,-0.58802 0.97354,-4.64788 0.97354,-4.64788c0,0 0.41448,-12.51485 0.45464,-14.71639c0.03957,-2.2003 0.5827,-16.0426 0.64749,-17.12227c0,0 -8.3533,16.87044 -8.46719,17.81605c-0.11389,0.94561 -3.92198,11.24593 -4.11551,11.65578c-0.11415,0.24176 -0.94766,1.81984 -1.75112,3.11295z" fill="#897835" stroke-width="1"/><path d="M129.95317,313.02894l-3.98639,8.4424l-33.49474,-15.81579l3.98622,-8.44204l3.5645,1.68311c1.15356,-0.60252 3.43717,-1.39288 3.90298,-2.09687c0.58698,-0.88929 1.03712,-10.77819 1.35212,-11.79591c0.31308,-1.01687 3.97812,-8.7787 4.29889,-9.45802c0.32195,-0.68182 1.40495,-3.44502 1.40495,-3.44502l-2.44396,-0.81986c0,0 -1.70264,-3.8019 -2.28427,-5.74116c-0.58239,-1.94137 -0.07579,-3.36809 0.43792,-4.456c0.51496,-1.09059 3.29069,-9.43613 3.87768,-10.32542c0.58497,-0.88871 6.30401,-10.17913 7.99016,-13.04612c1.68726,-2.86516 3.2186,-3.64115 5.23106,-4.02443c2.01127,-0.38078 8.73667,-0.86983 8.73667,-0.86983l1.54295,-3.26767c0,0 -1.872,-2.38126 -0.69311,-3.82338c-0.18766,-2.41978 0.35202,-5.32864 2.49241,-5.98238c0.09116,-1.95573 4.02783,-3.5932 7.09604,-1.97889c3.65309,0.72578 6.70224,4.49694 5.34429,7.01899c-0.61304,2.70715 -1.70221,2.19286 -2.37527,2.20942l-0.51933,0.86504l-0.62304,2.25872c0,0 -0.08057,0.40544 -0.98842,-0.02323l-1.2004,2.54221c-0.17115,0.36246 -0.97758,0.42669 -1.76146,-0.49934l-0.85734,1.81569c0,0 1.69676,1.57883 3.05789,2.22154c1.36114,0.64271 4.72054,2.22898 5.95572,5.25448c1.23604,3.02415 1.51365,11.37185 2.05562,13.51413c0.54291,2.14447 -0.75899,4.19352 -2.36227,4.76847c-1.60345,0.57488 -3.79691,-1.12608 -4.43038,-3.3131c-0.63195,-2.18652 -1.6718,-8.45034 -1.6718,-8.45034c0,0 -8.73888,18.74203 -9.08194,19.46856c-0.34306,0.72653 -4.21541,15.16113 -4.53889,16.78541c0.46148,2.54754 0.08159,7.58509 -0.96576,10.97721c-1.04569,3.39138 -2.27693,7.52723 -2.3381,8.83034c-0.05966,1.30361 0.52232,5.24333 1.18281,6.66547c0.14211,0.30481 0.24381,0.6614 0.3027,1.02991zM120.8402,252.2775l0.46599,-6.27443l-5.4575,5.91606l-4.6449,9.12931l1.37342,4.14483c0,0 0.87826,-2.91454 1.9217,-4.42039c1.04379,-1.50612 6.34109,-8.49547 6.34127,-8.49538zM120.38103,308.5091c-0.34224,-1.03415 -0.59029,-1.80514 -0.5012,-2.12303c0.16678,-0.58802 0.97354,-4.64788 0.97354,-4.64788c0,0 0.41448,-12.51485 0.45464,-14.71639c0.03957,-2.2003 0.5827,-16.0426 0.64749,-17.12227c0,0 -8.3533,16.87044 -8.46719,17.81605c-0.11389,0.94561 -3.92198,11.24593 -4.11551,11.65578c-0.11415,0.24176 -0.94766,1.81984 -1.75112,3.11295z" fill="#e5c95a" stroke-width="1"/><path d="M91.21134,278.11319c-0.04747,-0.01219 0.55674,1.47493 0.82,2.93665c0.19369,1.07547 0.06945,2.20908 0.04524,2.35528c-0.2672,1.61314 -2.99364,1.46701 -3.49245,1.20657c-0.37269,-0.1946 1.87481,-3.42237 1.32901,-5.10796c-0.66129,-2.04228 -2.51036,-2.49046 -2.71935,-2.90976c-0.35109,-0.70443 0.10699,-1.89894 0.24433,-2.43434c0.12303,-0.47964 0.95157,-0.55651 1.82377,-0.54199c0.84949,0.01415 1.73311,0.12407 2.5838,-0.63414c0.99838,-0.88988 1.09162,-1.77384 1.91979,-2.72458c0.32325,-0.37109 0.55905,-0.92739 1.45239,-1.152c0.79656,-0.20028 2.22456,-0.0766 3.00013,-0.26734c0.58307,-0.14337 1.71874,-0.7736 1.73289,-0.76997c0.25417,0.06521 1.05309,-0.37006 0.8819,0.24109c-0.10534,0.37609 0.06151,0.32825 -0.36793,0.93484c-0.18921,0.26723 -0.91734,0.71508 -1.70718,0.83206c-0.59456,0.08806 -1.70211,-0.34221 -2.04902,0.19894c-0.03761,0.05865 0.66138,0.29371 1.14688,0.47611c0.55677,0.20916 1.20675,0.59976 0.89957,0.88403c-0.28379,0.26261 -1.52535,0.04847 -2.35784,0.00535c-0.93708,-0.04852 -1.52227,0.33824 -2.07759,1.09458c-0.30018,0.40886 -0.33995,1.19782 -0.40036,1.36663c-0.11996,0.33522 3.26065,0.6586 5.16822,-0.08648c1.90758,-0.74509 3.59317,-3.45729 3.825,-3.4262c1.20998,0.16223 0.17147,2.60769 0.16673,3.96567c-0.00323,0.92389 -4.04421,0.18824 -4.17832,1.10235c-0.03907,0.26624 0.58125,0.82085 0.87326,1.2795c0.56069,0.88073 1.95488,0.84724 2.74654,1.59707c0.79976,0.75749 0.54149,2.67314 0.23907,2.61644c-0.92577,-0.17356 -2.52474,-1.51176 -3.72902,-1.74924c-1.1175,-0.22036 -1.25914,0.90178 -1.94237,0.66611c-0.85512,-0.29495 0.51057,-3.12188 0.10332,-3.49876c-0.73628,-0.68138 -3.63397,0.14425 -3.63886,0.39172c-0.02057,1.03889 0.67657,0.85141 1.19887,1.64122c0.56554,0.85517 0.99838,2.95249 2.12238,2.9021c0.60405,-0.02709 0.99572,0.06458 1.49509,0.18257c0.51498,0.12168 1.1333,0.27217 1.465,0.40248c0.49956,0.19626 1.02102,1.74784 1.00977,1.77908c-0.25358,0.70389 -3.02265,-1.1482 -3.07941,-0.67057c-0.10005,0.84192 4.09103,2.90158 4.27953,4.1611c0.10574,0.70657 -2.48415,-0.6688 -3.16675,-0.23481c-1.11419,0.70838 -0.66431,2.98424 -1.24276,2.83988c-0.38949,-0.09722 0.06646,-2.91318 -0.72364,-4.86751c-0.80589,-1.99341 -3.40572,-2.77375 -3.44131,-2.84057c-0.14487,-0.2719 -0.16626,-1.58965 -0.78738,-2.61938c-0.51124,-0.84759 -1.22487,-1.4607 -1.47094,-1.52383z" data-paper-data="{&quot;index&quot;:null}" fill="#344e5f" stroke-width="0"/><path d="M-19.65232,380.55439c0,0 -30.82222,-232.07728 -14.19072,-344.36717c6.22398,-42.02206 17.25218,-81.82115 56.973,-62.60619c2.39113,1.15671 25.22486,-1.95763 32.27445,-1.51351c14.44949,0.91032 79.70425,54.3627 85.12261,55.8329c30.54843,8.28892 35.51914,37.92936 46.42555,39.72537c10.38331,1.70986 67.68362,35.83345 101.44728,61.78515c17.27359,13.27696 8.33025,15.59123 19.54676,17.01514c2.53787,0.32217 0.91666,16.20093 -12.17949,14.92196c-7.24497,-0.70754 -22.49621,-4.14633 -31.41568,-7.13367c-5.06425,-1.69614 -4.02796,-5.09191 -8.44082,-3.16206c-4.67531,2.04463 -8.3853,-3.91349 -14.14004,-3.67967c-2.76601,0.11239 -11.75249,6.96722 -13.78908,7.5534c-5.88683,1.69438 -11.61786,4.42867 -17.22312,4.63755c-6.05739,0.22574 -11.8765,-2.04077 -15.03145,1.01982c-2.24308,2.176 8.28086,3.84331 7.66391,8.14533c-0.32609,2.27389 -11.55631,2.82615 -13.98318,5.57834c-1.27281,1.44343 -4.12778,6.22011 -9.59846,6.96641c-10.92852,1.49086 -1.10272,0.41284 -2.05859,2.24035c-0.76656,1.46558 -8.62438,1.61577 -2.27192,5.80022c5.23103,3.44575 -62.62541,22.06517 -63.00119,23.35415c-0.4759,1.63242 -1.14507,9.00665 0.70721,10.68081c1.66526,1.50512 -25.13088,48.43949 -25.25828,49.95928c-1.06631,12.71971 17.90915,48.07163 47.20043,36.89338c13.41669,-5.12013 37.90402,-22.12005 40.02113,-21.18012c6.21714,2.76022 36.0914,-15.13472 63.82368,-24.15234c17.23246,-5.60342 30.78432,-3.49881 45.99293,-3.89141c88.24072,-2.27787 93.90649,4.44655 103.34525,4.39943c24.48637,-0.12226 117.06076,-56.26226 123.48363,-30.89149c15.78545,62.35359 44.61666,121.72141 44.61666,121.72141z" data-paper-data="{&quot;index&quot;:null}" fill="#344e5f" stroke-width="0"/><path d="M233.81055,96.40256c-0.06187,0.02985 1.92968,1.07747 3.53294,2.40601c1.1796,0.97747 2.07103,2.30463 2.17722,2.48319c1.17164,1.97025 -1.88227,4.27785 -2.65223,4.44956c-0.57528,0.12829 -1.08399,-5.3621 -3.19237,-6.67522c-2.55453,-1.59098 -4.94117,-0.40005 -5.54412,-0.66053c-1.01293,-0.43758 -1.60162,-2.13173 -1.93834,-2.82963c-0.30164,-0.6252 0.51677,-1.45645 1.46461,-2.22919c0.92316,-0.75261 1.96948,-1.43346 2.19584,-3.01484c0.26567,-1.85601 -0.43336,-2.8876 -0.40514,-4.65497c0.01101,-0.68984 -0.23909,-1.49912 0.51528,-2.54726c0.67263,-0.93457 2.31478,-2.09269 2.97354,-2.99806c0.49525,-0.68065 1.14273,-2.38246 1.16118,-2.39136c0.33131,-0.15985 0.79409,-1.34838 1.16301,-0.5387c0.22702,0.49826 0.3626,0.29617 0.45061,1.3344c0.03877,0.45739 -0.33677,1.59544 -1.0775,2.43468c-0.55758,0.63173 -2.13339,1.17166 -2.01608,2.06511c0.01271,0.09685 0.97423,-0.28299 1.65938,-0.52634c0.78572,-0.27907 1.83532,-0.44794 1.76304,0.13435c-0.06677,0.53793 -1.59088,1.43058 -2.52199,2.13679c-1.04808,0.79493 -1.32567,1.73831 -1.23718,3.05079c0.04782,0.70946 0.71829,1.5909 0.80612,1.82644c0.17442,0.46766 4.0896,-2.24121 5.46048,-4.76378c1.37088,-2.52257 0.72595,-6.95264 1.0025,-7.12886c1.44332,-0.91975 2.54062,2.6396 3.7629,4.0992c0.83157,0.99302 -4.16392,3.85693 -3.48147,4.95777c0.19877,0.32064 1.36482,0.35432 2.09228,0.58194c1.39688,0.43709 2.86073,-0.85888 4.38683,-0.77082c1.54171,0.08895 2.99633,2.37529 2.62098,2.58786c-1.149,0.65071 -4.07206,0.66179 -5.57728,1.49573c-1.39676,0.77384 -0.53435,2.10444 -1.47955,2.46939c-1.183,0.45677 -2.27444,-3.80707 -3.0515,-3.84289c-1.40489,-0.06476 -3.76402,3.43902 -3.54562,3.70865c0.91692,1.13195 1.49459,0.30094 2.76814,0.67529c1.379,0.40535 3.73843,2.26175 4.89742,1.19187c0.62286,-0.57498 1.12546,-0.83073 1.76727,-1.15562c0.66188,-0.33504 1.4605,-0.73262 1.93377,-0.89278c0.71275,-0.24118 2.67392,0.95031 2.69009,0.99395c0.36443,0.98353 -4.27704,1.50141 -3.90618,2.06458c0.65371,0.9927 7.00672,-0.588 8.34709,0.59141c0.75194,0.66164 -3.26667,1.52849 -3.60595,2.61051c-0.5538,1.76617 1.9853,3.79855 1.23489,4.16663c-0.50529,0.24784 -2.56175,-3.18205 -5.17482,-4.56234c-2.66532,-1.4079 -6.15677,0.10557 -6.2553,0.06614c-0.401,-0.16046 -1.6149,-1.55331 -3.21122,-2.09547c-1.31394,-0.44626 -2.63288,-0.45835 -2.95362,-0.3036z" data-paper-data="{&quot;index&quot;:null}" fill="#344e5f" stroke-width="0"/><path d="M346.42752,263.60346c-13.00916,-1.90122 -21.3157,10.95248 -20.38359,4.57444c0.23534,-1.61032 -4.89967,-5.46646 -2.71249,-9.56969c0.9053,-1.69836 8.89463,-4.31925 9.80075,-5.44598c0.95076,-1.18225 -4.91292,-0.7921 -4.21339,-2.30162c1.24211,-2.6804 -1.17691,-4.57382 1.72115,-4.00061c0.94638,0.18718 6.32136,4.23548 7.09402,8.09645c0.13392,0.66911 6.06324,-3.0842 5.75034,-5.8946c-0.21507,-1.93175 -7.0585,-2.57297 -5.96144,-4.42545c2.60531,-4.39928 8.45631,0.86657 9.55896,1.04283c1.04165,0.16652 0.08087,0.65535 0.00546,3.69683c-0.14693,5.92629 2.20552,9.02945 2.71024,9.10321c0.82605,0.12072 0.06643,-12.83206 2.66228,-16.91506c0.81355,-1.27963 1.33218,7.58111 2.74717,8.24953c2.00385,0.94661 4.90794,-5.81963 5.24086,-5.78521c5.05163,0.52225 -4.7828,11.81721 -3.60927,15.99486c0.29791,1.06055 4.64587,-3.03388 8.83578,-6.72982c0.83302,-0.73481 -0.46104,-10.00165 0.32642,-10.66131c1.21208,-1.01538 2.15271,2.14895 3.62468,3.8585c1.26654,1.47097 3.13184,1.4574 3.51738,1.50826c1.79622,0.23699 -5.55289,8.06976 -6.80774,11.99325c-1.27835,3.99698 3.51883,4.09157 3.39237,4.95689c-0.93211,6.37803 -10.29077,0.55553 -23.29994,-1.34568z" data-paper-data="{&quot;index&quot;:null}" fill="#344e5f" stroke-width="0"/><path d="M295.90655,124.97531c0.048,-0.07028 -2.73801,0.03556 -5.28065,-0.40023c-1.87075,-0.32063 -3.64817,-1.19484 -3.87254,-1.32094c-2.47575,-1.39159 -0.62252,-5.75687 0.09815,-6.4171c0.53845,-0.49329 4.47783,5.08799 7.55335,5.19503c3.72632,0.1297 5.55314,-2.6241 6.36156,-2.71702c1.35812,-0.15612 3.03727,1.29927 3.83016,1.8406c0.71028,0.48492 0.34516,1.88333 -0.19508,3.29887c-0.52619,1.37869 -1.22896,2.75642 -0.49472,4.59444c0.86175,2.15721 2.2499,2.83292 3.31184,4.74819c0.41449,0.74757 1.1832,1.46203 1.0209,3.05374c-0.1447,1.41924 -1.19233,3.67769 -1.3402,5.05702c-0.11118,1.03696 0.24529,3.26453 0.23097,3.2855c-0.25699,0.37641 -0.01941,1.93867 -0.91592,1.29721c-0.5517,-0.39472 -0.57241,-0.09394 -1.30854,-1.15441c-0.3243,-0.4672 -0.62437,-1.92134 -0.34761,-3.28029c0.20832,-1.02295 1.56679,-2.57659 0.88864,-3.4635c-0.07351,-0.09613 -0.87126,0.90597 -1.45659,1.5907c-0.67124,0.78524 -1.69396,1.61523 -1.9762,0.94529c-0.26074,-0.6189 0.82419,-2.51934 1.38759,-3.85312c0.63418,-1.50134 0.34923,-2.68591 -0.55691,-4.04057c-0.48981,-0.73227 -1.75451,-1.26444 -1.99438,-1.46307c-0.47631,-0.3944 -3.00639,4.93406 -2.91949,8.49002c0.08691,3.55598 3.51724,7.91449 3.3292,8.27461c-0.98146,1.87962 -4.35946,-1.26432 -6.57399,-2.07628c-1.50664,-0.55241 2.08767,-6.71497 0.67451,-7.4753c-0.41159,-0.22146 -1.68453,0.46299 -2.60636,0.66814c-1.77012,0.39393 -2.5411,2.69023 -4.23427,3.53882c-1.71047,0.85727 -4.68543,-0.69889 -4.41377,-1.15911c0.83166,-1.40884 3.96363,-3.22719 5.06458,-5.05293c1.02161,-1.69418 -0.72676,-2.58999 0.06267,-3.56603c0.98804,-1.22159 4.79512,2.68249 5.65168,2.24069c1.54861,-0.7987 1.91653,-6.01907 1.51536,-6.17361c-1.68415,-0.64884 -1.79088,0.60051 -3.38981,0.9856c-1.73129,0.41697 -5.41215,-0.11832 -5.99551,1.74679c-0.31351,1.00236 -0.69514,1.58759 -1.18354,2.33311c-0.50367,0.76881 -1.11553,1.68931 -1.52477,2.15375c-0.61631,0.69947 -3.4586,0.63203 -3.50293,0.59517c-0.99914,-0.83091 3.66488,-4.25548 2.91859,-4.63103c-1.31545,-0.66198 -7.16053,4.9616 -9.32872,4.52348c-1.21634,-0.24578 2.56317,-3.66012 2.2588,-5.0317c-0.49683,-2.23879 -4.47935,-2.85201 -3.90105,-3.71101c0.38941,-0.57841 4.71737,1.83374 8.37635,1.70103c3.73215,-0.13536 6.54597,-3.91829 6.67615,-3.93685c0.52977,-0.07551 2.69405,0.66995 4.74327,0.2656c1.68673,-0.33282 3.11048,-1.13498 3.35926,-1.49937z" data-paper-data="{&quot;index&quot;:null}" fill="#344e5f" stroke-width="0"/><path d="M227.64338,106.28351c-1.78893,2.01125 -1.43723,-0.7489 -14.16383,-10.52054c-10.63758,-8.16766 -16.8391,-8.27884 -25.52481,-16.00446c-19.07711,-16.96838 -15.6866,-16.91899 -12.4024,-20.61133c3.2842,-3.69235 3.38864,-19.33896 22.46576,-2.37057c3.95137,3.5146 -1.13801,14.75621 8.86026,20.14775c1.01808,0.549 14.05539,3.6884 15.13793,4.04054c11.20496,3.6449 3.03414,10.71374 7.49314,16.66604c5.45306,7.27926 6.17256,-0.45904 3.20816,7.02044z" fill="#344e5f" stroke-width="0"/><path d="M180.1989,56.76155c-0.02858,0.08017 2.63934,-0.72929 5.20934,-0.95309c1.89088,-0.16466 3.83195,0.22982 4.081,0.29487c2.74786,0.71771 2.06321,5.41039 1.53369,6.2319c-0.39563,0.6138 -5.62253,-3.78494 -8.62453,-3.10793c-3.63724,0.82028 -4.70533,3.94754 -5.4637,4.2426c-1.27405,0.49569 -3.26757,-0.48589 -4.17189,-0.80825c-0.8101,-0.28878 -0.81184,-1.73405 -0.64855,-3.24037c0.15905,-1.46709 0.48915,-2.97807 -0.68752,-4.56957c-1.38103,-1.86787 -2.89522,-2.16915 -4.40847,-3.75221c-0.59065,-0.61789 -1.51551,-1.11387 -1.76249,-2.69465c-0.22024,-1.4095 0.21992,-3.85988 0.01287,-5.23159c-0.15564,-1.03122 -1.06579,-3.09539 -1.05726,-3.11931c0.15304,-0.4293 -0.47325,-1.88011 0.55671,-1.48719c0.63381,0.24178 0.5775,-0.0544 1.55868,0.7845c0.43225,0.36959 1.09154,1.69998 1.16874,3.08468c0.05812,1.04232 -0.86156,2.88987 0.01949,3.57563c0.09549,0.07433 0.6128,-1.09743 1.0052,-1.9083c0.44997,-0.92989 1.22856,-1.99227 1.67159,-1.4159c0.40928,0.53245 -0.15781,2.64603 -0.36425,4.07913c-0.23238,1.61314 0.34388,2.6866 1.56414,3.76693c0.65963,0.58398 2.01798,0.77775 2.3004,0.909c0.56081,0.2606 1.65571,-5.5355 0.66917,-8.953c-0.98656,-3.4175 -5.41074,-6.76269 -5.32026,-7.15874c0.47228,-2.06717 4.53759,0.11651 6.88568,0.33984c1.59751,0.15195 -0.31508,7.02495 1.24478,7.40174c0.45433,0.10974 1.51186,-0.87536 2.35144,-1.30775c1.61218,-0.83028 1.77512,-3.24706 3.19749,-4.49759c1.4369,-1.26331 4.70941,-0.51313 4.56343,0.00097c-0.44688,1.57378 -3.01481,4.12748 -3.61634,6.17285c-0.55818,1.89798 1.36029,2.32074 0.84443,3.46517c-0.64565,1.43236 -5.31892,-1.37767 -6.03531,-0.73295c-1.2952,1.16557 -0.32617,6.30839 0.10109,6.35606c1.79368,0.20017 1.57984,-1.03536 3.02868,-1.81364c1.56877,-0.84271 5.26497,-1.25914 5.35587,-3.21124c0.04885,-1.0491 0.26945,-1.71204 0.55265,-2.55709c0.29206,-0.87147 0.65027,-1.91711 0.92824,-2.47021c0.41861,-0.83298 3.18495,-1.48912 3.23718,-1.46472c1.17731,0.55013 -2.46486,5.04628 -1.6477,5.22012c1.44039,0.30644 5.66684,-6.61646 7.87525,-6.74296c1.23889,-0.07097 -1.55032,4.19081 -0.90781,5.44022c1.04875,2.03939 5.05651,1.62178 4.71516,2.59944c-0.22986,0.6583 -5.0283,-0.57646 -8.5338,0.48054c-3.57559,1.07813 -5.33719,5.45133 -5.4584,5.50232c-0.49326,0.20749 -2.77588,0.03573 -4.65538,0.94693c-1.54704,0.75001 -2.72058,1.88724 -2.86874,2.30284z" data-paper-data="{&quot;index&quot;:null}" fill="#344e5f" stroke-width="0"/><path d="M271.02556,122.92145c-11.73518,-5.92779 -22.73978,-6.54814 -19.83355,-12.30156c0.39429,-0.78058 4.37283,1.90144 5.62623,-2.10344c1.23035,-3.93126 -0.27579,-14.56579 1.32986,-13.72644c0.34463,0.18015 1.86265,1.2642 3.7448,0.78946c2.18743,-0.55173 4.77702,-2.59911 5.18446,-1.07133c0.2647,0.99256 -6.12421,7.82854 -5.86547,8.90878c1.30145,5.43339 2.50295,11.28363 3.35667,10.58746c3.36297,-2.74231 1.81531,-17.63853 6.24798,-15.15998c0.29214,0.16335 -1.22431,7.36863 0.95935,7.74693c1.54195,0.26714 7.06297,-6.68268 6.99241,-5.16797c-0.22516,4.83307 -8.29709,14.99159 -7.55193,15.36799c0.45529,0.22998 4.16458,-0.95527 7.45325,-5.88753c1.6878,-2.53132 1.18305,-3.48383 2.13091,-3.02089c1.00336,0.49007 8.81849,-0.45189 8.41914,4.64536c-0.16816,2.14639 -6.13497,-1.2655 -7.42205,0.19097c-1.87252,2.11894 0.81877,8.59978 1.31319,8.12947c2.85291,-2.71385 9.5783,-2.93365 10.4601,-2.54241c2.70036,1.19809 -0.36754,1.3555 -0.89327,4.26255c-0.29606,1.63718 -4.86818,-2.05482 -4.7705,-0.54084c0.0931,1.44288 5.12086,8.18232 4.8845,10.09233c-0.57109,4.61455 -6.98964,4.8152 -7.7234,6.26782c-2.90623,5.75343 -2.30748,-9.53897 -14.04265,-15.46675z" data-paper-data="{&quot;index&quot;:null}" fill="#344e5f" stroke-width="0"/><path d="M146.74543,27.60631c-0.0276,0.0966 3.05395,-1.05896 6.0645,-1.51721c2.21501,-0.33716 4.53152,-0.01945 4.82982,0.03831c3.29138,0.63738 2.84019,6.21729 2.27862,7.22514c-0.41958,0.75302 -6.91002,-4.03296 -10.39515,-3.00812c-4.22261,1.24171 -5.24404,5.00657 -6.11507,5.41157c-1.46331,0.68041 -3.88604,-0.32495 -4.97573,-0.63622c-0.97617,-0.27885 -1.08769,-1.98127 -1.00938,-3.7681c0.07628,-1.7403 0.35073,-3.54527 -1.15592,-5.33095c-1.76831,-2.09579 -3.57488,-2.33607 -5.47739,-4.08632c-0.74259,-0.68316 -1.86964,-1.19738 -2.28031,-3.04087c-0.36616,-1.64374 -0.03322,-4.56369 -0.38099,-6.16388c-0.26145,-1.20301 -1.48991,-3.56571 -1.48167,-3.59452c0.14778,-0.5173 -0.69987,-2.17896 0.54321,-1.7941c0.76496,0.23683 0.67618,-0.10783 1.89557,0.80614c0.53719,0.40264 1.41458,1.91994 1.61039,3.54529c0.14739,1.22347 -0.79609,3.46954 0.2937,4.21066c0.11812,0.08034 0.63879,-1.33918 1.03962,-2.32411c0.45967,-1.1295 1.2964,-2.43997 1.86194,-1.79453c0.52246,0.59624 0.01447,3.12902 -0.12021,4.83285c-0.1516,1.91788 0.60852,3.1388 2.12784,4.31905c0.82126,0.638 2.43608,0.76338 2.77873,0.89663c0.68038,0.26452 1.53129,-6.64628 0.11034,-10.59744c-1.42095,-3.95116 -6.88603,-7.55684 -6.80942,-8.03026c0.39982,-2.47092 5.35417,-0.20634 8.13718,-0.12106c1.89339,0.05802 0.16079,8.29934 2.02685,8.6251c0.54352,0.09489 1.71472,-1.14567 2.67102,-1.7186c1.8363,-1.10017 1.84524,-3.95951 3.42613,-5.54036c1.59704,-1.597 5.50889,-0.96112 5.37585,-0.34443c-0.40726,1.88778 -3.23895,5.09054 -3.79268,7.54557c-0.51384,2.27813 1.77819,2.63087 1.25715,4.01808c-0.65212,1.73622 -6.37008,-1.22014 -7.1652,-0.40644c-1.4375,1.47115 0.09346,7.45608 0.60038,7.4799c2.12815,0.09998 1.78268,-1.33931 3.4305,-2.36583c1.78424,-1.1115 6.10688,-1.88196 6.06614,-4.18845c-0.02191,-1.23955 0.18779,-2.03721 0.4574,-3.05414c0.27806,-1.04873 0.62086,-2.30763 0.90642,-2.98025c0.43005,-1.01296 3.63916,-1.9954 3.70254,-1.9706c1.42856,0.5589 -2.52151,6.13124 -1.54573,6.27416c1.72001,0.25192 6.17462,-8.22339 8.76656,-8.53966c1.45405,-0.17742 -1.50898,5.05425 -0.65749,6.47742c1.38988,2.32302 6.07948,1.52759 5.75137,2.70513c-0.22094,0.7929 -5.96708,-0.29832 -10.01657,1.21229c-4.13048,1.54081 -5.87452,6.82591 -6.01344,6.89515c-0.56536,0.28179 -3.26732,0.25228 -5.41239,1.46801c-1.76563,1.00067 -3.06199,2.4292 -3.20505,2.93z" data-paper-data="{&quot;index&quot;:null}" fill="#344e5f" stroke-width="0"/><path d="M223.38088,84.65538c-0.02859,0.08017 2.63933,-0.72929 5.20933,-0.95309c1.89088,-0.16465 3.83196,0.22983 4.081,0.29487c2.74786,0.71771 2.06321,5.41039 1.5337,6.2319c-0.39563,0.6138 -5.62254,-3.78494 -8.62453,-3.10793c-3.63723,0.82028 -4.70534,3.94755 -5.4637,4.2426c-1.27405,0.49568 -3.26757,-0.48588 -4.17189,-0.80825c-0.81011,-0.28878 -0.81184,-1.73405 -0.64855,-3.24037c0.15906,-1.46709 0.48915,-2.97806 -0.68752,-4.56957c-1.38103,-1.86786 -2.89522,-2.16915 -4.40848,-3.75221c-0.59065,-0.61789 -1.51551,-1.11387 -1.76249,-2.69465c-0.22024,-1.4095 0.21991,-3.85988 0.01286,-5.23158c-0.15564,-1.03122 -1.06579,-3.09539 -1.05726,-3.11931c0.15305,-0.4293 -0.47325,-1.88011 0.55671,-1.48719c0.63382,0.24178 0.5775,-0.0544 1.55868,0.7845c0.43225,0.3696 1.09154,1.69998 1.16874,3.08468c0.05813,1.04233 -0.86156,2.88987 0.01949,3.57563c0.0955,0.07433 0.61279,-1.09743 1.00519,-1.90829c0.44997,-0.92989 1.22856,-1.99227 1.67159,-1.4159c0.40927,0.53245 -0.15781,2.64603 -0.36426,4.07913c-0.23238,1.61314 0.34388,2.6866 1.56414,3.76693c0.65963,0.58398 2.01797,0.77775 2.30039,0.909c0.56081,0.2606 1.65571,-5.5355 0.66917,-8.95299c-0.98656,-3.41751 -5.41074,-6.76269 -5.32025,-7.15874c0.47228,-2.06717 4.53759,0.11651 6.88569,0.33984c1.59751,0.15195 -0.31509,7.02495 1.24477,7.40173c0.45432,0.10975 1.51187,-0.87535 2.35145,-1.30775c1.61218,-0.83028 1.77512,-3.24706 3.19749,-4.49759c1.43691,-1.26331 4.7094,-0.51314 4.56343,0.00097c-0.44687,1.57378 -3.01481,4.12748 -3.61634,6.17285c-0.55818,1.89799 1.3603,2.32074 0.84443,3.46517c-0.64565,1.43235 -5.31892,-1.37767 -6.03531,-0.73296c-1.29519,1.16557 -0.32617,6.30839 0.10109,6.35606c1.79368,0.20017 1.57984,-1.03536 3.02868,-1.81364c1.56877,-0.84271 5.26498,-1.25914 5.35587,-3.21124c0.04884,-1.0491 0.26945,-1.71203 0.55265,-2.55709c0.29206,-0.87147 0.65028,-1.91711 0.92824,-2.47021c0.41861,-0.83298 3.18494,-1.48912 3.23718,-1.46472c1.17732,0.55012 -2.46485,5.04628 -1.64769,5.22012c1.4404,0.30643 5.66685,-6.61646 7.87525,-6.74296c1.23888,-0.07097 -1.55032,4.19081 -0.90781,5.44022c1.04875,2.03938 5.05651,1.62178 4.71517,2.59944c-0.22986,0.6583 -5.0283,-0.57646 -8.5338,0.48054c-3.5756,1.07813 -5.33719,5.45133 -5.4584,5.50232c-0.49325,0.20749 -2.77588,0.03573 -4.65538,0.94693c-1.54704,0.75 -2.72058,1.88723 -2.86875,2.30284z" data-paper-data="{&quot;index&quot;:null}" fill="#344e5f" stroke-width="0"/><path d="M472.31533,234.59201c0.03274,0.07857 1.46367,-2.31422 3.21583,-4.20761c1.28916,-1.39306 2.99136,-2.40593 3.21946,-2.52519c2.51677,-1.31595 5.16461,2.61839 5.32487,3.58254c0.11974,0.72037 -6.70691,0.97775 -8.4742,3.49707c-2.14126,3.05242 -0.82966,6.08563 -1.19274,6.81388c-0.60996,1.22345 -2.74568,1.83695 -3.63187,2.20623c-0.79387,0.33081 -1.76675,-0.73798 -2.6585,-1.96291c-0.86852,-1.19304 -1.63991,-2.53354 -3.58092,-2.92073c-2.27809,-0.4544 -3.60161,0.34048 -5.78612,0.18581c-0.85264,-0.06036 -1.87077,0.1942 -3.1163,-0.81004c-1.11059,-0.89541 -2.43203,-3.00537 -3.50745,-3.88167c-0.80847,-0.6588 -2.86992,-1.57507 -2.87969,-1.59852c-0.1753,-0.4207 -1.61428,-1.07373 -0.58764,-1.47524c0.63176,-0.2471 0.39096,-0.42851 1.6813,-0.46706c0.56847,-0.01696 1.95091,0.52472 2.93894,1.49793c0.74374,0.73257 1.30491,2.71862 2.41817,2.63399c0.12066,-0.00917 -0.28409,-1.22441 -0.5387,-2.0885c-0.29201,-0.99091 -0.4298,-2.30082 0.28565,-2.17195c0.66093,0.11904 1.66199,2.06499 2.47257,3.26472c0.91242,1.35045 2.06067,1.75775 3.69031,1.73721c0.88092,-0.01111 2.01679,-0.78082 2.3141,-0.87351c0.59037,-0.18408 -2.49555,-5.21108 -5.52333,-7.0779c-3.02781,-1.86682 -8.55194,-1.36911 -8.75119,-1.72315c-1.04003,-1.84785 3.43757,-2.96419 5.32604,-4.37738c1.28481,-0.96144 4.48932,5.4125 5.89741,4.64281c0.41012,-0.22418 0.53079,-1.66441 0.86167,-2.54893c0.63536,-1.69847 -0.86872,-3.59719 -0.6564,-5.47918c0.21449,-1.90122 3.14149,-3.54582 3.37904,-3.06709c0.72716,1.46551 0.54282,5.08237 1.47252,7.00097c0.86271,1.78035 2.56718,0.80361 2.95463,1.99765c0.48493,1.49444 -4.86383,2.55579 -4.96078,3.51468c-0.17529,1.73359 3.99941,4.88947 4.34776,4.63753c1.46245,-1.05763 0.47355,-1.82855 1.02294,-3.37872c0.59487,-1.67849 3.05128,-4.47159 1.80625,-5.97786c-0.66911,-0.80951 -0.95144,-1.4486 -1.30989,-2.26459c-0.36964,-0.84149 -0.80739,-1.85642 -0.97344,-2.45275c-0.25007,-0.89808 1.35679,-3.24353 1.41187,-3.26058c1.24141,-0.3842 1.56763,5.39287 2.28945,4.97222c1.27235,-0.74146 -0.25271,-8.70786 1.29716,-10.28612c0.86946,-0.88539 1.66958,4.14474 2.98518,4.63777c2.1474,0.80476 4.83367,-2.19866 5.23821,-1.2454c0.27238,0.64187 -4.11007,2.95356 -5.99466,6.09268c-1.92229,3.20189 -0.2865,7.62368 -0.34196,7.74292c-0.22568,0.4852 -2.03101,1.89256 -2.80987,3.83064c-0.6411,1.59525 -0.74538,3.22609 -0.57567,3.63337z" data-paper-data="{&quot;index&quot;:null}" fill="#344e5f" stroke-width="0"/><path d="M412.37664,233.57571c-0.01675,0.08345 2.50681,-1.10175 5.01779,-1.69331c1.84746,-0.43524 3.82512,-0.32438 4.08092,-0.29588c2.82258,0.31453 2.82082,5.05689 2.41511,5.94609c-0.30311,0.66437 -6.10898,-2.93583 -8.98218,-1.83358c-3.4812,1.3355 -4.08783,4.58399 -4.7958,4.98517c-1.18938,0.67398 -3.30349,-0.01028 -4.2448,-0.19906c-0.84325,-0.16912 -1.05308,-1.59907 -1.10841,-3.11321c-0.05387,-1.4747 0.05519,-3.01746 -1.33839,-4.42293c-1.63561,-1.64953 -3.1774,-1.72962 -4.90285,-3.07826c-0.67347,-0.52639 -1.66012,-0.88403 -2.13216,-2.41276c-0.42091,-1.36309 -0.33821,-3.85131 -0.74063,-5.17891c-0.30252,-0.99806 -1.50043,-2.90965 -1.49543,-2.93455c0.08963,-0.44687 -0.73906,-1.79237 0.33675,-1.55185c0.66202,0.14799 0.56365,-0.13699 1.6554,0.55187c0.48097,0.3035 1.32497,1.52507 1.60076,2.88422c0.20762,1.02309 -0.43643,2.98382 0.53418,3.53555c0.1052,0.0598 0.44837,-1.17424 0.71992,-2.03315c0.31137,-0.98499 0.92886,-2.14842 1.45027,-1.64186c0.48169,0.46796 0.22487,2.64118 0.22695,4.08907c0.00234,1.62979 0.72718,2.60907 2.09029,3.50243c0.73684,0.48291 2.10894,0.47905 2.40732,0.56826c0.59249,0.17712 0.84132,-5.71624 -0.62706,-8.95604c-1.4684,-3.23981 -6.3282,-5.91305 -6.29569,-6.318c0.16969,-2.11363 4.50708,-0.53814 6.86286,-0.65526c1.60273,-0.07968 0.69981,6.99711 2.29767,7.14534c0.4654,0.04317 1.37005,-1.08394 2.13861,-1.63273c1.47582,-1.05378 1.28904,-3.46884 2.51649,-4.91116c1.24,-1.45706 4.58643,-1.18596 4.51601,-0.65619c-0.21559,1.62174 -2.38902,4.5186 -2.68974,6.62928c-0.27905,1.95858 1.6803,2.10066 1.33462,3.30746c-0.43266,1.5104 -5.46187,-0.59736 -6.07796,0.14379c-1.11385,1.33993 0.58567,6.2896 1.01533,6.27525c1.80381,-0.06021 1.41427,-1.25207 2.73594,-2.23087c1.43107,-1.05983 5.02879,-2.00419 4.83762,-3.94904c-0.10274,-1.04521 0.02012,-1.73299 0.17867,-2.61002c0.16352,-0.90444 0.36742,-1.99077 0.56284,-2.57814c0.2943,-0.88458 2.93732,-1.93224 2.99252,-1.91562c1.24426,0.37485 -1.71249,5.34863 -0.87882,5.40299c1.46951,0.09582 4.65499,-7.36354 6.82216,-7.80673c1.21576,-0.24863 -0.93068,4.37038 -0.11494,5.51425c1.33149,1.86711 5.23735,0.87672 5.04035,1.89335c-0.13267,0.68454 -5.0589,0.15363 -8.37565,1.70442c-3.38308,1.58179 -4.49656,6.16308 -4.60916,6.231c-0.45824,0.27636 -2.7418,0.43509 -4.4705,1.60745c-1.42291,0.96497 -2.42046,2.25933 -2.50723,2.69195z" data-paper-data="{&quot;index&quot;:null}" fill="#344e5f" stroke-width="0"/><path d="M465.12886,237.38199c0.88013,2.54376 -1.35588,0.88774 -16.10151,7.21368c-12.3252,5.28756 -15.45361,10.64333 -26.43906,14.44419c-24.12822,8.34814 -22.42778,5.41443 -24.04355,0.74447c-1.61577,-4.66998 -15.21459,-12.40944 8.91363,-20.75758c4.99759,-1.72912 12.31682,8.20591 21.90767,2.11904c0.97659,-0.6198 10.08824,-10.45876 10.92462,-11.23103c8.65696,-7.99335 10.82964,2.59014 18.20199,1.60976c9.01588,-1.19893 2.6168,-5.60923 7.69274,0.63298z" fill="#344e5f" stroke-width="0"/><path d="M100.07227,303.33009c-0.06571,0.02005 1.74242,1.35961 3.12391,2.91748c1.01643,1.1462 1.69465,2.59397 1.77231,2.78665c0.8569,2.12611 -2.51369,3.94009 -3.30085,3.99215c-0.58812,0.0389 -0.25211,-5.46476 -2.13514,-7.08456c-2.2815,-1.96256 -4.82205,-1.1502 -5.37813,-1.49974c-0.93419,-0.58719 -1.25716,-2.35138 -1.48331,-3.09253c-0.20259,-0.66394 0.7332,-1.36041 1.78797,-1.97928c1.0273,-0.60274 2.16535,-1.11576 2.63063,-2.644c0.54609,-1.79364 0.01286,-2.91991 0.31074,-4.66222c0.11626,-0.68006 -0.00726,-1.51805 0.89838,-2.43864c0.8075,-0.82084 2.6073,-1.7145 3.39664,-2.50861c0.59342,-0.597 1.49328,-2.17992 1.51288,-2.1859c0.35184,-0.10736 0.99076,-1.21124 1.23165,-0.35471c0.14823,0.5271 0.3131,0.34809 0.24147,1.38758c-0.03156,0.45794 -0.57655,1.52527 -1.43679,2.2415c-0.64755,0.53913 -2.28734,0.83199 -2.3079,1.73287c-0.00224,0.09766 1.00602,-0.13083 1.72031,-0.26666c0.81913,-0.15576 1.8822,-0.16231 1.72182,0.4021c-0.14817,0.52141 -1.79075,1.17076 -2.81882,1.72643c-1.15722,0.62548 -1.57567,1.51538 -1.68873,2.82598c-0.06113,0.70844 0.46683,1.68195 0.51764,1.92815c0.10093,0.48881 4.38398,-1.59014 6.12413,-3.87367c1.74015,-2.28354 1.77957,-6.76013 2.0798,-6.89203c1.56689,-0.68846 2.10755,2.99675 3.0925,4.62593c0.67011,1.1084 -4.70426,3.17554 -4.19799,4.36772c0.14746,0.34724 1.29467,0.55866 1.97882,0.89474c1.31371,0.64536 2.95836,-0.41177 4.4531,-0.09161c1.51003,0.32343 2.5983,2.80515 2.19487,2.95789c-1.23492,0.46754 -4.12537,0.03195 -5.74032,0.62615c-1.49858,0.55138 -0.84957,1.99811 -1.83943,2.21438c-1.2389,0.27068 -1.66615,-4.10985 -2.42861,-4.26396c-1.3785,-0.27862 -4.2452,2.82363 -4.07056,3.12346c0.73323,1.25874 1.43107,0.52573 2.63249,1.09025c1.30089,0.61126 3.34902,2.80631 4.65785,1.92605c0.70338,-0.47308 1.23916,-0.64905 1.92307,-0.87207c0.7053,-0.23 1.55528,-0.5009 2.04746,-0.58688c0.74123,-0.12947 2.49735,1.34764 2.50667,1.39324c0.2099,1.02766 -4.4562,0.8304 -4.17573,1.44361c0.49438,1.08092 7.0143,0.48931 8.15876,1.85963c0.64203,0.76874 -3.46183,1.0115 -3.96242,2.029c-0.81712,1.66083 1.3817,4.05725 0.58387,4.30638c-0.53722,0.16774 -2.04557,-3.53606 -4.4171,-5.29934c-2.41896,-1.79855 -6.10063,-0.83622 -6.19198,-0.89024c-0.37178,-0.21983 -1.35864,-1.78178 -2.8534,-2.56144c-1.23034,-0.64175 -2.53195,-0.85519 -2.87257,-0.75126z" data-paper-data="{&quot;index&quot;:null}" fill="#344e5f" stroke-width="0"/><path d="M265.9251,266.71995c1.02057,2.49075 -5.95265,-7.56007 -20.32266,-0.42187c-12.01124,5.96648 -14.8362,11.48834 -25.59267,15.89574c-23.62527,9.68032 -25.96468,8.20585 -27.83829,3.63322c-1.27179,-3.10385 6.58478,-3.43832 9.69577,-8.84902c1.47216,-2.56042 -5.66834,-10.81324 1.92038,-13.92268c4.89341,-2.00505 12.75516,7.50645 21.99173,0.89436c0.94053,-0.67328 9.48946,-11.00493 10.28147,-11.82262c8.19785,-8.46356 10.95722,1.98234 18.26344,0.59247c8.93502,-1.69972 6.94838,1.22615 12.36443,7.17567z" fill="#344e5f" stroke-width="0"/><path d="M93.68566,271.01824c-0.0847,0.00846 1.7884,2.07353 3.09025,4.30068c0.95783,1.63863 1.43177,3.56186 1.47953,3.81477c0.52696,2.79073 -4.00745,4.17966 -4.97652,4.05254c-0.72405,-0.09498 1.01543,-6.70132 -0.88088,-9.12501c-2.2976,-2.93655 -5.58117,-2.56397 -6.17232,-3.12318c-0.99312,-0.93947 -0.95886,-3.16128 -1.0544,-4.11658c-0.08559,-0.85577 1.21998,-1.47569 2.65133,-1.97257c1.39408,-0.48392 2.901,-0.83204 3.83605,-2.5765c1.0974,-2.0474 0.72187,-3.54492 1.50528,-5.58999c0.30577,-0.79823 0.35836,-1.84636 1.68148,-2.74593c1.17975,-0.80211 3.58284,-1.45268 4.73407,-2.2267c0.86548,-0.58188 2.34177,-2.28767 2.36704,-2.2902c0.45351,-0.04534 1.49686,-1.23215 1.58239,-0.13311c0.05265,0.67632 0.29625,0.4987 -0.04219,1.74446c-0.14912,0.54882 -1.06952,1.71392 -2.28805,2.37614c-0.91724,0.4985 -2.98063,0.4577 -3.2235,1.54744c-0.02633,0.11812 1.25409,0.08434 2.15488,0.09208c1.033,0.00886 2.32636,0.25805 1.99495,0.90508c-0.30615,0.59772 -2.45914,0.98947 -3.84277,1.41602c-1.55746,0.48014 -2.28115,1.46027 -2.73552,3.02542c-0.24561,0.84606 0.16041,2.1567 0.16261,2.46812c0.0044,0.61838 5.71166,-0.87185 8.37847,-3.2257c2.66682,-2.35388 3.79749,-7.78391 4.19417,-7.87157c2.07047,-0.45756 1.83609,4.15115 2.63886,6.36903c0.54615,1.50892 -6.48431,2.72082 -6.15748,4.29191c0.09518,0.45759 1.43803,0.99198 2.18807,1.56584c1.44022,1.10193 3.69434,0.21519 5.43319,0.96576c1.75663,0.75824 2.47871,4.03705 1.95158,4.12508c-1.61365,0.26943 -5.02051,-0.959 -7.12658,-0.62758c-1.95432,0.30754 -1.51559,2.22243 -2.7707,2.2458c-1.57087,0.02926 -1.03048,-5.39695 -1.91971,-5.76862c-1.60764,-0.67197 -5.84139,2.40422 -5.70168,2.8108c0.5865,1.70686 1.61174,0.98496 2.93507,1.96151c1.43288,1.05738 3.39069,4.22003 5.19398,3.46698c0.96912,-0.40471 1.6627,-0.48895 2.54767,-0.59453c0.91263,-0.10888 2.011,-0.23248 2.62985,-0.21789c0.93199,0.02197 2.70862,2.24159 2.70891,2.29925c0.00649,1.29949 -5.61566,-0.06882 -5.42317,0.74416c0.3393,1.43301 8.40484,2.29115 9.46404,4.23308c0.5942,1.0894 -4.45117,0.39178 -5.30555,1.50707c-1.39459,1.82046 0.69757,5.26421 -0.33213,5.37398c-0.69335,0.07389 -1.63031,-4.79147 -4.08551,-7.50768c-2.50429,-2.77053 -7.21069,-2.49168 -7.30864,-2.57942c-0.39857,-0.35705 -1.21995,-2.49369 -2.84768,-3.80262c-1.33979,-1.0774 -2.86977,-1.65155 -3.30882,-1.60766z" data-paper-data="{&quot;index&quot;:null}" fill="#344e5f" stroke-width="0"/><path d="M169.79857,288.93057c0.00993,0.08454 2.04217,-1.82415 4.24637,-3.16447c1.62175,-0.98615 3.53646,-1.49341 3.7885,-1.54555c2.78116,-0.57536 4.24861,3.93426 4.13835,4.90538c-0.08239,0.72559 -6.71794,-0.8989 -9.10833,1.03922c-2.89622,2.34825 -2.46666,5.62486 -3.01552,6.22563c-0.92208,1.00928 -3.14415,1.01361 -4.09763,1.12573c-0.85415,0.10044 -1.49666,-1.19417 -2.01833,-2.61667c-0.50806,-1.38548 -0.8823,-2.88612 -2.64272,-3.79073c-2.06616,-1.06168 -3.55692,-0.6602 -5.61528,-1.40797c-0.80342,-0.29186 -1.85231,-0.32624 -2.77471,-1.63355c-0.82248,-1.16564 -1.51469,-3.55708 -2.30859,-4.69468c-0.59682,-0.85524 -2.32799,-2.3017 -2.33095,-2.32692c-0.05321,-0.45266 -1.25795,-1.47524 -0.16057,-1.57983c0.67531,-0.06438 0.49348,-0.30486 1.74493,0.01189c0.55133,0.13957 1.73224,1.03958 2.41552,2.24643c0.51435,0.90844 0.5094,2.97222 1.60319,3.19613c0.11855,0.02427 0.06255,-1.25536 0.05465,-2.15615c-0.00908,-1.03299 0.2176,-2.33049 0.87029,-2.01037c0.60295,0.29572 1.03202,2.44158 1.48254,3.8176c0.50712,1.54889 1.49966,2.25546 3.07247,2.68257c0.8502,0.23087 2.1536,-0.19783 2.46493,-0.20546c0.61821,-0.01514 -0.97091,-5.69565 -3.37071,-8.32119c-2.39984,-2.62554 -7.84869,-3.66173 -7.94322,-4.05683c-0.49346,-2.06222 4.11864,-1.9079 6.32225,-2.74908c1.49921,-0.57227 2.83302,6.43608 4.39819,6.08202c0.45587,-0.10312 0.96686,-1.45504 1.5276,-2.21494c1.07676,-1.45914 0.151,-3.69753 0.87126,-5.44915c0.72762,-1.76952 3.9934,-2.54844 4.09057,-2.02292c0.29742,1.60874 -0.87167,5.03641 -0.50372,7.13641c0.34143,1.94867 2.24842,1.47677 2.29359,2.73129c0.05654,1.57012 -5.37823,1.12405 -5.73441,2.0196c-0.64395,1.61907 2.50531,5.79876 2.9094,5.65201c1.69642,-0.61606 0.95682,-1.62861 1.91024,-2.9687c1.03234,-1.45103 4.16051,-3.46346 3.37625,-5.2534c-0.42148,-0.96195 -0.51775,-1.65396 -0.63869,-2.53697c-0.12471,-0.91061 -0.26736,-2.00665 -0.26352,-2.62566c0.00578,-0.93223 2.19422,-2.74714 2.25186,-2.74843c1.29918,-0.02906 0.02872,5.616 0.83822,5.40942c1.42691,-0.36414 2.14484,-8.44336 4.06809,-9.53613c1.07891,-0.61303 0.46902,4.44369 1.59898,5.27857c1.8444,1.36276 5.25129,-0.78888 5.37893,0.23875c0.08592,0.69196 -4.76243,1.71328 -7.43559,4.21528c-2.72662,2.55202 -2.36608,7.25288 -2.45211,7.35234c-0.35007,0.40471 -2.47214,1.26307 -3.7526,2.91328c-1.05398,1.3583 -1.60146,2.89802 -1.54995,3.33624z" data-paper-data="{&quot;index&quot;:null}" fill="#344e5f" stroke-width="0"/><path d="M248.70802,156.55663c-0.01809,-0.08317 -1.85542,2.01379 -3.91908,3.56178c-1.51835,1.13893 -3.37476,1.82969 -3.62056,1.90607c-2.71215,0.84264 -4.61051,-3.50319 -4.59504,-4.48044c0.01155,-0.73016 6.77347,0.24244 8.96442,-1.91859c2.65455,-2.61833 1.90892,-5.83776 2.39685,-6.48898c0.81975,-1.09404 3.03089,-1.31408 3.969,-1.51824c0.84037,-0.18289 1.60552,1.04323 2.26282,2.40837c0.64017,1.3296 1.15833,2.78682 2.99827,3.51626c2.15947,0.85607 3.60421,0.31176 5.72545,0.85616c0.82795,0.21248 1.87524,0.14487 2.92021,1.35644c0.93176,1.08029 1.85287,3.39322 2.75346,4.44838c0.67703,0.79326 2.54045,2.06481 2.54585,2.08962c0.0969,0.44535 1.39524,1.34614 0.31319,1.55678c-0.66587,0.12964 -0.46155,0.35134 -1.73784,0.15757c-0.56227,-0.08539 -1.82498,-0.86651 -2.6222,-2.00132c-0.60012,-0.85422 -0.79556,-2.90873 -1.90592,-3.02539c-0.12036,-0.01264 0.05962,1.25551 0.15494,2.15127c0.10933,1.02723 0.00968,2.3406 -0.671,2.08536c-0.62881,-0.23579 -1.26419,-2.32985 -1.84617,-3.65563c-0.6551,-1.49233 -1.71155,-2.09921 -3.31839,-2.37161c-0.86859,-0.14725 -2.12421,0.40599 -2.43333,0.44379c-0.61382,0.07509 1.51928,5.57449 4.16265,7.95463c2.6434,2.38015 8.1671,2.88244 8.29955,3.2665c0.69133,2.00457 -3.91395,2.29875 -6.02549,3.34989c-1.43657,0.71512 -3.44449,-6.13064 -4.96789,-5.62629c-0.44371,0.14689 -0.82103,1.54204 -1.30535,2.35278c-0.93001,1.55678 0.20868,3.69471 -0.33812,5.50799c-0.55239,1.83181 -3.72712,2.92411 -3.87484,2.4105c-0.45219,-1.57226 0.37859,-5.09725 -0.19149,-7.1516c-0.52901,-1.90633 -2.38117,-1.25151 -2.54792,-2.49571c-0.20871,-1.55722 5.2437,-1.64088 5.51125,-2.56679c0.48372,-1.67394 -3.05644,-5.52814 -3.44437,-5.34285c-1.62859,0.77784 -0.79419,1.71381 -1.61301,3.14013c-0.88658,1.5444 -3.80461,3.85103 -2.85028,5.55638c0.51288,0.91648 0.67588,1.59588 0.88197,2.46298c0.21253,0.89419 0.46092,1.97122 0.51719,2.58767c0.08475,0.92839 -1.91714,2.94718 -1.97438,2.95407c-1.29022,0.15505 -0.57381,-5.58669 -1.35944,-5.30249c-1.38481,0.50095 -1.31498,8.61171 -3.12306,9.88603c-1.01431,0.71488 -0.89821,-4.37717 -2.10389,-5.09841c-1.968,-1.17727 -5.14991,1.29498 -5.37671,0.28459c-0.1527,-0.68035 4.5736,-2.16755 6.99123,-4.91725c2.46598,-2.80468 1.65076,-7.44833 1.72672,-7.55567c0.30913,-0.43679 2.33783,-1.49711 3.45204,-3.26385c0.91712,-1.45421 1.31255,-3.03981 1.21873,-3.47095z" data-paper-data="{&quot;index&quot;:null}" fill="#344e5f" stroke-width="0"/><path d="M215.47652,159.2171c-0.01809,-0.08317 -1.85542,2.01379 -3.91908,3.56178c-1.51835,1.13893 -3.37476,1.82969 -3.62056,1.90607c-2.71215,0.84264 -4.61051,-3.50319 -4.59504,-4.48044c0.01155,-0.73016 6.77347,0.24244 8.96442,-1.91859c2.65455,-2.61833 1.90892,-5.83776 2.39686,-6.48898c0.81975,-1.09404 3.03089,-1.31408 3.96899,-1.51824c0.84037,-0.18289 1.60552,1.04323 2.26283,2.40837c0.64017,1.3296 1.15832,2.78682 2.99827,3.51626c2.15947,0.85607 3.60421,0.31176 5.72545,0.85616c0.82796,0.21248 1.87524,0.14487 2.92021,1.35644c0.93177,1.08029 1.85287,3.39322 2.75346,4.44838c0.67703,0.79326 2.54045,2.06481 2.54585,2.08962c0.0969,0.44535 1.39524,1.34614 0.31319,1.55678c-0.66587,0.12964 -0.46155,0.35134 -1.73784,0.15757c-0.56227,-0.08539 -1.82498,-0.8665 -2.6222,-2.00131c-0.60012,-0.85422 -0.79555,-2.90873 -1.90592,-3.02539c-0.12035,-0.01264 0.05962,1.25551 0.15494,2.15127c0.10933,1.02723 0.00968,2.3406 -0.671,2.08536c-0.62882,-0.23579 -1.26419,-2.32986 -1.84617,-3.65564c-0.6551,-1.49233 -1.71156,-2.0992 -3.3184,-2.37161c-0.86859,-0.14725 -2.12421,0.40599 -2.43333,0.44379c-0.61382,0.07509 1.51928,5.57449 4.16265,7.95463c2.6434,2.38015 8.1671,2.88245 8.29955,3.26651c0.69133,2.00457 -3.91395,2.29875 -6.02549,3.34989c-1.43657,0.71512 -3.44449,-6.13064 -4.96789,-5.62629c-0.44371,0.14689 -0.82103,1.54203 -1.30535,2.35278c-0.93001,1.55678 0.20869,3.69472 -0.33811,5.50799c-0.55239,1.83181 -3.72712,2.9241 -3.87484,2.4105c-0.45219,-1.57226 0.37859,-5.09724 -0.19149,-7.1516c-0.52901,-1.90633 -2.38116,-1.25151 -2.54791,-2.49571c-0.20871,-1.55722 5.2437,-1.64088 5.51125,-2.56679c0.48372,-1.67394 -3.05644,-5.52814 -3.44438,-5.34285c-1.62859,0.77784 -0.79419,1.71381 -1.61301,3.14013c-0.88658,1.5444 -3.80461,3.85103 -2.85028,5.55638c0.51288,0.91648 0.67588,1.59588 0.88198,2.46298c0.21253,0.89419 0.46092,1.97122 0.51719,2.58768c0.08475,0.92839 -1.91714,2.94718 -1.97438,2.95407c-1.29022,0.15505 -0.57381,-5.58669 -1.35944,-5.30249c-1.38481,0.50095 -1.31499,8.61171 -3.12306,9.88603c-1.01431,0.71488 -0.89821,-4.37717 -2.10389,-5.09841c-1.968,-1.17727 -5.1499,1.29498 -5.3767,0.28459c-0.1527,-0.68035 4.5736,-2.16755 6.99123,-4.91725c2.46598,-2.80468 1.65076,-7.44833 1.72672,-7.55567c0.30913,-0.43679 2.33783,-1.49711 3.45203,-3.26385c0.91712,-1.45421 1.31255,-3.03981 1.21873,-3.47095z" data-paper-data="{&quot;index&quot;:null}" fill="#344e5f" stroke-width="0"/><path d="M285.60265,254.24699c-0.01809,-0.08317 -1.85542,2.01379 -3.91908,3.56178c-1.51835,1.13893 -3.37476,1.82969 -3.62056,1.90607c-2.71215,0.84264 -4.61051,-3.50319 -4.59504,-4.48044c0.01155,-0.73016 6.77347,0.24244 8.96441,-1.9186c2.65455,-2.61833 1.90892,-5.83776 2.39686,-6.48897c0.81975,-1.09404 3.03089,-1.31408 3.969,-1.51824c0.84037,-0.18289 1.60552,1.04323 2.26282,2.40837c0.64017,1.3296 1.15833,2.78682 2.99827,3.51626c2.15947,0.85607 3.60421,0.31176 5.72545,0.85616c0.82795,0.21248 1.87524,0.14487 2.92021,1.35644c0.93176,1.08029 1.85287,3.39322 2.75346,4.44838c0.67703,0.79326 2.54045,2.06481 2.54585,2.08962c0.0969,0.44534 1.39524,1.34614 0.31319,1.55678c-0.66587,0.12964 -0.46155,0.35134 -1.73784,0.15757c-0.56227,-0.08538 -1.82498,-0.86651 -2.6222,-2.00132c-0.60012,-0.85422 -0.79555,-2.90873 -1.90592,-3.02539c-0.12036,-0.01265 0.05962,1.25551 0.15494,2.15127c0.10933,1.02724 0.00968,2.34061 -0.67101,2.08537c-0.62881,-0.23579 -1.26419,-2.32986 -1.84616,-3.65564c-0.6551,-1.49233 -1.71156,-2.09921 -3.3184,-2.37161c-0.8686,-0.14725 -2.12421,0.40599 -2.43333,0.4438c-0.61383,0.07509 1.51928,5.57449 4.16265,7.95463c2.6434,2.38015 8.1671,2.88245 8.29955,3.2665c0.69133,2.00457 -3.91396,2.29875 -6.02549,3.34989c-1.43656,0.71512 -3.44448,-6.13064 -4.96789,-5.62629c-0.44371,0.14689 -0.82103,1.54204 -1.30535,2.35278c-0.93001,1.55678 0.20869,3.69471 -0.33811,5.50799c-0.55239,1.83181 -3.72712,2.9241 -3.87485,2.4105c-0.4522,-1.57226 0.37859,-5.09724 -0.19149,-7.1516c-0.52901,-1.90632 -2.38117,-1.25151 -2.54791,-2.49571c-0.20871,-1.55722 5.2437,-1.64088 5.51124,-2.56678c0.48372,-1.67394 -3.05644,-5.52814 -3.44437,-5.34285c-1.6286,0.77784 -0.79419,1.7138 -1.613,3.14013c-0.88659,1.5444 -3.80461,3.85103 -2.85028,5.55638c0.51288,0.91649 0.67588,1.59588 0.88197,2.46298c0.21253,0.8942 0.46092,1.97122 0.51719,2.58767c0.08475,0.92839 -1.91713,2.94718 -1.97438,2.95407c-1.29023,0.15505 -0.57382,-5.58669 -1.35944,-5.30249c-1.38481,0.50095 -1.31499,8.61171 -3.12306,9.88603c-1.0143,0.71488 -0.89821,-4.37716 -2.10389,-5.09841c-1.96799,-1.17726 -5.1499,1.29498 -5.37671,0.28459c-0.1527,-0.68035 4.5736,-2.16755 6.99123,-4.91725c2.46598,-2.80468 1.65076,-7.44833 1.72672,-7.55566c0.30913,-0.43679 2.33783,-1.49712 3.45204,-3.26385c0.91712,-1.45421 1.31255,-3.03981 1.21873,-3.47095z" data-paper-data="{&quot;index&quot;:null}" fill="#344e5f" stroke-width="0"/><path d="M111.87178,211.53972c-0.0381,-0.05717 -0.80097,2.05986 -1.89564,3.83106c-0.8054,1.30316 -1.99691,2.36915 -2.15911,2.49895c-1.78979,1.43223 -4.49661,-1.27415 -4.77288,-2.01307c-0.20642,-0.55208 5.1613,-1.81331 6.17102,-4.08268c1.22338,-2.74959 -0.2854,-4.94911 -0.11058,-5.58223c0.29367,-1.06361 1.89041,-1.88037 2.53519,-2.31015c0.57761,-0.385 1.51381,0.31091 2.40992,1.1431c0.87276,0.81052 1.69145,1.75291 3.28893,1.75895c1.87492,0.0071 2.8002,-0.82755 4.55458,-1.0434c0.68476,-0.08426 1.45181,-0.4436 2.594,0.15896c1.01842,0.53727 2.392,2.00396 3.37958,2.53154c0.74246,0.39662 2.51732,0.80315 2.52868,0.8202c0.20402,0.30609 1.44504,0.60049 0.69399,1.07757c-0.46219,0.29358 -0.24332,0.39999 -1.25949,0.63038c-0.44767,0.10149 -1.62664,-0.11347 -2.56004,-0.73134c-0.7026,-0.46511 -1.45475,-1.95137 -2.32348,-1.71193c-0.09418,0.02595 0.41467,0.92588 0.75021,1.57091c0.38479,0.73971 0.69684,1.75597 0.11014,1.76472c-0.54199,0.00807 -1.63636,-1.37832 -2.46426,-2.20311c-0.9319,-0.92841 -1.90456,-1.07321 -3.19229,-0.80451c-0.69608,0.14523 -1.4766,0.93089 -1.69777,1.05037c-0.43912,0.23726 2.78393,3.74133 5.47149,4.75113c2.68757,1.00978 6.98631,-0.24009 7.199,0.0095c1.11006,1.30265 -2.2639,2.88046 -3.54093,4.29239c-0.86881,0.96061 -4.39446,-3.59206 -5.39063,-2.76427c-0.29015,0.24111 -0.16266,1.40065 -0.28775,2.15255c-0.24022,1.44382 1.2453,2.7149 1.3686,4.23855c0.12458,1.53925 -1.93924,3.29536 -2.20157,2.95291c-0.80299,-1.04825 -1.21719,-3.94184 -2.2508,-5.31763c-0.95912,-1.27665 -2.15803,-0.23893 -2.64988,-1.12475c-0.61559,-1.10869 3.45692,-2.77788 3.38521,-3.55245c-0.12966,-1.40039 -3.92537,-3.25362 -4.1623,-3.00012c-0.99464,1.0643 -0.09189,1.52181 -0.28698,2.83484c-0.21125,1.42173 -1.72442,4.01468 -0.50488,5.01501c0.6554,0.53758 0.97805,1.0001 1.38836,1.59096c0.42315,0.60934 0.92709,1.34548 1.151,1.79213c0.3372,0.67267 -0.57236,2.77945 -0.61335,2.80148c-0.92386,0.49662 -2.07706,-4.02904 -2.58369,-3.58403c-0.89304,0.7844 1.54893,6.85863 0.56571,8.34888c-0.55158,0.83601 -1.9645,-3.02459 -3.08299,-3.21137c-1.82568,-0.30487 -3.48836,2.49032 -3.95645,1.79786c-0.31517,-0.46627 2.79825,-2.97622 3.80488,-5.75471c1.02676,-2.83406 -0.95388,-6.08334 -0.92841,-6.18637c0.1036,-0.4193 1.31569,-1.81373 1.63245,-3.46959c0.26074,-1.36294 0.09077,-2.67093 -0.10674,-2.96726z" data-paper-data="{&quot;index&quot;:null}" fill="#344e5f" stroke-width="0"/><path d="M304.24548,162.91186c-0.06653,-0.00585 1.07594,1.86003 1.75428,3.7674c0.49908,1.40336 0.5835,2.95543 0.58337,3.15742c-0.00144,2.22869 -3.70048,2.63707 -4.42907,2.39747c-0.54438,-0.17902 1.76202,-5.01845 0.65405,-7.16422c-1.34243,-2.59982 -3.92856,-2.79231 -4.30264,-3.30984c-0.62845,-0.86945 -0.27742,-2.57749 -0.2115,-3.32799c0.05905,-0.67232 1.15623,-0.95953 2.33242,-1.13351c1.14556,-0.16943 2.35828,-0.21766 3.3341,-1.42605c1.14524,-1.41825 1.07451,-2.62771 1.97732,-4.09004c0.35238,-0.57077 0.54607,-1.37122 1.69764,-1.87148c1.0268,-0.44608 2.97467,-0.59656 3.97537,-1.02514c0.75232,-0.32218 2.13979,-1.42168 2.15964,-1.41994c0.35629,0.0313 1.33412,-0.7313 1.23949,0.12857c-0.05822,0.52915 0.15555,0.42779 -0.28741,1.33884c-0.19516,0.40136 -1.07502,1.16519 -2.11129,1.49774c-0.78004,0.25034 -2.36498,-0.08258 -2.71146,0.72214c-0.03755,0.08722 0.9546,0.24826 1.64799,0.38584c0.79516,0.15776 1.75595,0.53885 1.4059,0.9893c-0.32338,0.41612 -2.04059,0.4036 -3.16972,0.53032c-1.27098,0.14264 -1.97216,0.79261 -2.55117,1.93297c-0.31299,0.61644 -0.19143,1.68628 -0.23523,1.92672c-0.08696,0.47743 4.53116,0.16231 6.93122,-1.26291c2.40008,-1.42523 4.0652,-5.44668 4.38386,-5.45631c1.66322,-0.05028 0.80915,3.46887 1.10405,5.29619c0.20063,1.24319 -5.39704,1.15039 -5.37459,2.40948c0.00653,0.36672 0.96381,0.97494 1.45826,1.52697c0.94943,1.06003 2.81696,0.70568 4.04797,1.53844c1.2436,0.84127 1.32128,3.47478 0.90199,3.46563c-1.28352,-0.02803 -3.73077,-1.47293 -5.40301,-1.52512c-1.55174,-0.04842 -1.49326,1.49209 -2.46438,1.32673c-1.21544,-0.20695 -0.00599,-4.31169 -0.63729,-4.72817c-1.14134,-0.75298 -4.85508,1.00023 -4.80676,1.33412c0.20281,1.4017 1.09877,0.9949 1.9764,1.94119c0.95028,1.02461 1.9977,3.74911 3.49809,3.43197c0.80634,-0.17045 1.35341,-0.13405 2.05117,-0.08616c0.71956,0.0494 1.58447,0.11458 2.05948,0.21625c0.71537,0.15311 1.76088,2.12404 1.75268,2.16854c-0.18486,1.00287 -4.3197,-0.87355 -4.29007,-0.2186c0.05223,1.15445 6.14551,2.99452 6.67844,4.64654c0.29897,0.92676 -3.48915,-0.34829 -4.31085,0.38679c-1.34123,1.19985 -0.2313,4.16071 -1.04125,4.0949c-0.54538,-0.04432 -0.55694,-3.9325 -2.05307,-6.38546c-1.52605,-2.50201 -5.19551,-2.97465 -5.2582,-3.05661c-0.25514,-0.33353 -0.57626,-2.10092 -1.64002,-3.34795c-0.87558,-1.02644 -1.97133,-1.69266 -2.31626,-1.72297z" data-paper-data="{&quot;index&quot;:null}" fill="#344e5f" stroke-width="0"/><path d="M225.21443,264.82764c0.02711,0.06105 1.10616,-1.84221 2.44632,-3.3595c0.98603,-1.11635 2.30303,-1.94195 2.4798,-2.03967c1.95053,-1.07819 4.09942,1.96021 4.2427,2.71368c0.10705,0.56297 -5.24396,0.88912 -6.58459,2.89775c-1.62432,2.43367 -0.54014,4.78944 -0.81172,5.36738c-0.45628,0.97093 -2.12062,1.49111 -2.80915,1.79694c-0.6168,0.27398 -1.39949,-0.54682 -2.12138,-1.49157c-0.70308,-0.92016 -1.33265,-1.95778 -2.86248,-2.22622c-1.79548,-0.31502 -2.81935,0.33266 -4.53598,0.25108c-0.67003,-0.03184 -1.46413,0.1864 -2.45956,-0.57879c-0.88759,-0.68227 -1.96269,-2.31353 -2.82233,-2.98143c-0.64625,-0.50214 -2.28019,-1.18346 -2.28828,-1.20167c-0.14518,-0.32686 -1.28598,-0.81299 -0.48786,-1.14667c0.49114,-0.20535 0.29892,-0.34329 1.31052,-0.39702c0.44567,-0.02365 1.54008,0.37616 2.33293,1.12169c0.59682,0.56119 1.07322,2.10906 1.94506,2.02242c0.0945,-0.00939 -0.24516,-0.95541 -0.46063,-1.62867c-0.24712,-0.77208 -0.37906,-1.79723 0.18457,-1.70915c0.52069,0.08137 1.34145,1.58979 1.9992,2.51626c0.74039,1.04286 1.64864,1.3415 2.92676,1.29573c0.6909,-0.02475 1.56801,-0.64928 1.79957,-0.72741c0.45981,-0.15516 -2.05266,-4.04281 -4.46201,-5.45227c-2.40938,-1.40946 -6.73413,-0.91846 -6.89689,-1.19259c-0.84956,-1.43076 2.64292,-2.38804 4.09876,-3.53109c0.99046,-0.77767 3.62049,4.16455 4.71116,3.53508c0.31767,-0.18333 0.38614,-1.31542 0.62961,-2.01538c0.46754,-1.34407 -0.747,-2.80629 -0.61467,-4.28662c0.13367,-1.49546 2.40005,-2.83896 2.59512,-2.4677c0.59715,1.13649 0.51835,3.97737 1.28263,5.46565c0.70922,1.38103 2.02866,0.58373 2.35435,1.51343c0.40764,1.16359 -3.7693,2.09359 -3.8279,2.84762c-0.10597,1.36324 3.22662,3.76314 3.49533,3.55915c1.12808,-0.85635 0.33823,-1.44316 0.74104,-2.66931c0.43613,-1.32764 2.31242,-3.56361 1.30825,-4.72267c-0.53967,-0.62289 -0.7728,-1.11913 -1.06886,-1.75278c-0.3053,-0.65345 -0.66719,-1.44172 -0.80831,-1.90653c-0.21254,-0.70002 1.0054,-2.56932 1.0483,-2.5837c0.96693,-0.32401 1.32799,4.2023 1.88663,3.85916c0.9847,-0.60485 -0.35673,-6.82694 0.83046,-8.09334c0.666,-0.71043 1.38525,3.22127 2.42634,3.58412c1.69934,0.59227 3.75213,-1.81286 4.08685,-1.07238c0.22537,0.49861 -3.17069,2.39194 -4.59208,4.88896c-1.44982,2.54695 -0.08602,5.98619 -0.12736,6.08074c-0.16821,0.38476 -1.55894,1.52174 -2.1347,3.05639c-0.47393,1.26318 -0.52606,2.5445 -0.38551,2.86094z" data-paper-data="{&quot;index&quot;:null}" fill="#344e5f" stroke-width="0"/><path d="M280.66506,156.57638c12.9983,1.97412 21.37677,-10.83281 20.40892,-4.4601c-0.24437,1.60897 4.86895,5.49384 2.6588,9.58474c-0.91481,1.69326 -8.9187,4.26932 -9.83112,5.39095c-0.95738,1.1769 4.9084,0.81963 4.20042,2.3252c-1.25711,2.67339 1.15125,4.58035 -1.74355,3.9909c-0.94531,-0.19248 -6.29751,-4.27085 -7.04852,-8.13609c-0.13016,-0.66985 -6.08044,3.05016 -5.7833,5.86227c0.20424,1.93293 7.04396,2.6125 5.93654,4.4588c-2.62993,4.3846 -8.45132,-0.91396 -9.55296,-1.0964c-1.0407,-0.17236 -0.0772,-0.6558 0.01526,-3.69681c0.18015,-5.92538 -2.15487,-9.04167 -2.65917,-9.11826c-0.82536,-0.12535 -0.13836,12.83148 -2.75706,16.89987c-0.82071,1.27505 -1.28967,-7.58846 -2.70089,-8.2648c-1.99851,-0.95783 -4.94048,5.79202 -5.2732,5.75574c-5.04863,-0.55056 4.84896,-11.79021 3.69887,-15.97437c-0.29196,-1.06221 -4.6628,3.00779 -8.87336,6.68018c-0.83713,0.73013 0.40496,10.00408 -0.38618,10.65931c-1.21776,1.00857 -2.14063,-2.16099 -3.603,-3.87876c-1.25827,-1.47805 -3.12362,-1.47493 -3.50887,-1.52795c-1.79486,-0.24705 5.59804,-8.03851 6.87486,-11.9549c1.30073,-3.98975 -3.49584,-4.11123 -3.36453,-4.97583c0.96785,-6.3727 10.29372,-0.49783 23.29203,1.47628z" data-paper-data="{&quot;index&quot;:null}" fill="#344e5f" stroke-width="0"/><path d="M87.34829,-18.90892c0.08366,-0.05562 -3.01131,-1.17477 -5.59995,-2.77861c-1.9046,-1.18002 -3.4617,-2.92431 -3.65129,-3.16175c-2.09178,-2.6199 1.87074,-6.57432 2.95186,-6.9772c0.80776,-0.30101 2.64369,7.55142 5.96105,9.03182c4.01934,1.79366 7.23865,-0.40941 8.1643,-0.15272c1.55508,0.43121 2.74703,2.7678 3.37454,3.71148c0.56213,0.84538 -0.45716,2.21348 -1.6757,3.52271c-1.18681,1.27513 -2.56639,2.47094 -2.57782,4.80729c-0.0134,2.74209 1.2058,4.09671 1.51866,6.66285c0.12211,1.00162 0.64643,2.124 -0.23667,3.79351c-0.78742,1.4886 -2.9347,3.49512 -3.70788,4.93864c-0.58127,1.08523 -1.17868,3.68033 -1.20364,3.69692c-0.448,0.29789 -0.88057,2.11241 -1.5771,1.01322c-0.42863,-0.67641 -0.5846,-0.3565 -0.91992,-1.84304c-0.14772,-0.65488 0.16858,-2.37882 1.07373,-3.74293c0.68135,-1.02682 2.85626,-2.12444 2.50747,-3.39537c-0.0378,-0.13776 -1.35479,0.60498 -2.29869,1.09467c-1.08246,0.56156 -2.56929,1.0163 -2.58111,0.15823c-0.01094,-0.79269 2.01845,-2.39099 3.22606,-3.60047c1.35931,-1.36144 1.57265,-2.78373 1.18175,-4.66748c-0.21129,-1.01827 -1.35906,-2.16106 -1.53344,-2.48472c-0.34629,-0.64263 -5.47626,4.06552 -6.95743,7.9945c-1.48117,3.92898 0.33986,10.21801 -0.02551,10.52866c-1.90694,1.62138 -4.20907,-3.31564 -6.272,-5.18559c-1.40349,-1.27221 5.26053,-6.4212 4.0515,-7.87946c-0.35214,-0.42475 -2.04821,-0.24015 -3.14768,-0.42432c-2.11124,-0.35364 -3.9726,1.8169 -6.2012,1.99478c-2.25136,0.1797 -4.81638,-2.8415 -4.31514,-3.22459c1.53438,-1.1727 5.76698,-1.77381 7.78076,-3.28327c1.86869,-1.40068 0.35293,-3.15577 1.64925,-3.87368c1.62245,-0.89853 4.0571,5.06029 5.19006,4.95667c2.04831,-0.18738 4.76484,-5.73569 4.39446,-6.08261c-1.55496,-1.4564 -2.22553,-0.13685 -4.14554,-0.4243c-2.07896,-0.31125 -5.86878,-2.52847 -7.33375,-0.7465c-0.78729,0.95767 -1.46426,1.42879 -2.32905,2.02794c-0.89184,0.61787 -1.96928,1.35373 -2.62288,1.68047c-0.98433,0.49207 -4.06409,-0.84158 -4.09625,-0.90156c-0.72482,-1.35196 5.8959,-3.03125 5.2459,-3.77292c-1.14576,-1.30733 -10.03336,2.25427 -12.21131,0.81387c-1.2218,-0.80805 4.4267,-2.86824 4.70166,-4.50374c0.44881,-2.6696 -3.63651,-5.10582 -2.62303,-5.78928c0.68243,-0.4602 4.34826,4.09728 8.41023,5.57398c4.14321,1.50625 8.89854,-1.38524 9.04919,-1.34784c0.61308,0.15221 2.65049,1.92715 5.0717,2.3931c1.99291,0.38354 3.90616,0.13705 4.33986,-0.15134z" data-paper-data="{&quot;index&quot;:null}" fill="#344e5f" stroke-width="0"/><path d="M72.22753,-19.23233c6.16858,-5.16518 -0.95135,-2.04977 7.67302,0.83881c7.0522,2.36201 11.19442,-7.61661 18.17662,1.87472c0.67456,0.91699 7.75285,12.30667 8.59403,13.10059c8.26102,7.79677 17.3331,-0.56822 21.91159,2.07813c22.10483,12.77651 7.28411,17.79385 4.81124,22.0722c-2.47287,4.27834 -1.36025,7.48148 -23.46506,-5.29501c-10.06421,-5.81708 -12.11908,-11.66933 -23.21647,-19.20038c-13.27669,-9.01002 -15.78639,-7.80855 -14.4394,-10.13901z" data-paper-data="{&quot;index&quot;:null}" fill="#344e5f" stroke-width="0"/><path d="M153.77623,198.99983c-0.00956,-0.06611 -1.56387,1.47364 -3.26497,2.57112c-1.25159,0.80747 -2.74301,1.2454 -2.93964,1.29158c-2.16968,0.50944 -3.41507,-2.9975 -3.34886,-3.76161c0.04947,-0.57092 5.28873,0.56479 7.12339,-1.00552c2.22289,-1.90261 1.81747,-4.464 2.23546,-4.94675c0.70226,-0.81101 2.44528,-0.86084 3.19091,-0.9687c0.66796,-0.09663 1.19901,0.90551 1.63796,2.0105c0.4275,1.07622 0.75242,2.2456 2.15232,2.91845c1.64299,0.78966 2.80404,0.44358 4.43437,0.98717c0.63635,0.21217 1.45988,0.21722 2.21078,1.22348c0.66956,0.89722 1.26252,2.75873 1.90907,3.63454c0.48605,0.65844 1.8743,1.75694 1.87716,1.77666c0.0512,0.35397 1.01764,1.13098 0.15897,1.23596c-0.52841,0.06461 -0.38074,0.24947 -1.36907,0.02713c-0.43541,-0.09797 -1.38058,-0.77932 -1.9418,-1.71177c-0.42247,-0.70189 -0.46171,-2.32094 -1.32442,-2.47373c-0.09351,-0.01656 -0.02284,0.9861 0.00217,1.69255c0.02871,0.81016 -0.12201,1.83271 -0.6407,1.59523c-0.47917,-0.21939 -0.86059,-1.89376 -1.24275,-2.96377c-0.43018,-1.20444 -1.22355,-1.73797 -2.46628,-2.04018c-0.67177,-0.16335 -1.68527,0.2002 -1.92934,0.21268c-0.48465,0.02479 0.88064,4.44772 2.81805,6.4572c1.93743,2.00949 6.23347,2.70849 6.31588,3.01646c0.43018,1.60741 -3.19104,1.58273 -4.9021,2.28863c-1.1641,0.48026 -2.35686,-4.98965 -3.57727,-4.6792c-0.35546,0.09041 -0.72807,1.16162 -1.15206,1.76944c-0.81418,1.16714 -0.0412,2.90372 -0.56962,4.29284c-0.53381,1.40332 -3.07941,2.08258 -3.16661,1.67236c-0.26693,-1.25577 0.57856,-3.96906 0.24606,-5.60874c-0.30856,-1.52152 -1.79465,-1.11149 -1.8563,-2.09466c-0.07716,-1.23051 4.19552,-0.99414 4.45621,-1.7041c0.47133,-1.28355 -2.08647,-4.49655 -2.40039,-4.37299c-1.31789,0.51871 -0.71655,1.29756 -1.43648,2.36873c-0.7795,1.15984 -3.19138,2.80388 -2.53877,4.19163c0.35074,0.7458 0.44071,1.28664 0.55404,1.9768c0.11685,0.71172 0.25166,1.56856 0.26158,2.05422c0.01495,0.73142 -1.66387,2.20086 -1.70906,2.20308c-1.01855,0.04994 -0.13986,-4.40492 -0.77057,-4.22596c-1.11174,0.31546 -1.50613,6.66828 -2.99201,7.56569c-0.83356,0.50343 -0.46076,-3.47609 -1.36461,-4.10742c-1.47534,-1.0305 -4.10294,0.72856 -4.22454,-0.07491c-0.08186,-0.54102 3.70013,-1.4435 5.74484,-3.46207c2.08561,-2.05893 1.70455,-5.73902 1.76996,-5.81884c0.26616,-0.3248 1.9129,-1.04249 2.88289,-2.36377c0.79842,-1.08755 1.19573,-2.30683 1.14616,-2.64951z" data-paper-data="{&quot;index&quot;:null}" fill="#344e5f" stroke-width="0"/><path d="M152.23518,237.79945c0,0 2.07492,-3.14713 2.07492,-4.70315c0,-1.53296 -2.07492,-4.56483 -2.07492,-4.56483c0,0 2.84882,2.35157 4.42649,2.35157c1.50855,0 4.84148,-2.35157 4.84148,-2.35157c0,0 -2.76656,2.91795 -2.76656,4.4265c0,1.57768 2.76656,4.84148 2.76656,4.84148c0,0 -3.40213,-2.90489 -4.97981,-2.90489c-1.50855,0 -4.28816,2.90489 -4.28816,2.90489z" fill="#ffffff" stroke-width="0"/><path d="M123.9719,231.69825c0,0 -0.20092,-2.77172 -0.89992,-3.68127c-0.68865,-0.89607 -3.2635,-1.73618 -3.2635,-1.73618c0,0 2.72162,0.09481 3.64383,-0.61393c0.8818,-0.67768 1.77361,-3.5495 1.77361,-3.5495c0,0 -0.30632,2.94845 0.37136,3.83025c0.70874,0.9222 3.79207,1.5872 3.79207,1.5872c0,0 -3.29362,-0.16967 -4.21582,0.53906c-0.8818,0.67768 -1.20162,3.62437 -1.20162,3.62437z" fill="#ffffff" stroke-width="0"/><path d="M141.02033,274.08104c0,0 -0.20092,-2.77172 -0.89992,-3.68126c-0.68865,-0.89607 -3.26351,-1.73618 -3.26351,-1.73618c0,0 2.72162,0.09481 3.64382,-0.61393c0.8818,-0.67768 1.77362,-3.5495 1.77362,-3.5495c0,0 -0.30633,2.94845 0.37135,3.83025c0.70873,0.92221 3.79207,1.5872 3.79207,1.5872c0,0 -3.29362,-0.16968 -4.21582,0.53906c-0.8818,0.67768 -1.20162,3.62437 -1.20162,3.62437z" fill="#ffffff" stroke-width="0"/><path d="M158.65481,251.09939c0,0 -1.28838,-1.16806 -1.99777,-1.27786c-0.69889,-0.10818 -2.22755,0.62384 -2.22755,0.62384c0,0 1.27313,-1.13285 1.38446,-1.85212c0.10646,-0.68776 -0.73044,-2.3732 -0.73044,-2.3732c0,0 1.13508,1.4672 1.82283,1.57366c0.71927,0.11133 2.40249,-0.91964 2.40249,-0.91964c0,0 -1.56444,1.34607 -1.67578,2.06534c-0.10646,0.68776 1.02175,2.16 1.02175,2.16z" fill="#ffffff" stroke-width="0"/><path d="M-117.65903,448.56234v-536.0106h718.22836v536.0106z" fill="none" stroke-width="0"/></g></g></svg>