<svg version="1.1" xmlns="http://www.w3.org/2000/svg" xmlns:xlink="http://www.w3.org/1999/xlink" width="707.46934" height="539.62701" viewBox="0,0,707.46934,539.62701"><defs><linearGradient x1="441.27321" y1="218.83056" x2="441.27321" y2="440.38586" gradientUnits="userSpaceOnUse" id="color-1"><stop offset="0" stop-color="#344e5f" stop-opacity="0"/><stop offset="1" stop-color="#344e5f"/></linearGradient><linearGradient x1="414.46364" y1="30.93188" x2="414.46364" y2="252.48717" gradientUnits="userSpaceOnUse" id="color-2"><stop offset="0" stop-color="#344e5f" stop-opacity="0"/><stop offset="1" stop-color="#344e5f"/></linearGradient></defs><g transform="translate(117.125,84.94395)"><g data-paper-data="{&quot;isPaintingLayer&quot;:true}" fill-rule="nonzero" stroke="none" stroke-width="0" stroke-linecap="butt" stroke-linejoin="miter" stroke-miterlimit="10" stroke-dasharray="" stroke-dashoffset="0" style="mix-blend-mode: normal"><path d="M506.59021,404.0462c0,59.20258 -36.42066,31.02761 -92.02064,33.13005c-5.66424,0.21418 -27.83032,10.25117 -37.35654,-6.30059c-8.65226,-15.03325 -4.86171,-49.39013 -7.07675,-66.54216c-0.88939,-6.88691 0.07294,-38.06768 -10.12355,-56.13709c-12.83508,-22.7453 -37.32966,-33.21207 -37.73257,-43.85226c-0.43483,-11.48328 18.64583,-52.27988 12.50207,-57.83118c-3.04892,-2.75491 64.32216,-29.66384 86.21501,-25.29732c45.27473,9.03001 47.34105,-4.16401 78.0549,15.43398c21.6429,13.80997 9.17769,49.43985 9.9917,84.81446z" data-paper-data="{&quot;index&quot;:null}" fill="url(#color-1)"/><path d="M511.04145,210.72904c0,59.20258 -64.05225,36.44606 -126.63524,38.5485c-6.37563,0.21419 -49.20634,-12.26562 -49.20634,-12.26562c0,0 19.7903,-47.56828 15.2981,-78.47223c-1.00109,-6.88692 8.88612,-51.96158 8.88612,-51.96158l23.14387,-34.3082c0,0 128.45002,-63.21815 128.49277,20.12819z" data-paper-data="{&quot;index&quot;:null}" fill="url(#color-2)"/><path d="" data-paper-data="{&quot;index&quot;:null}" fill="#344e5f"/><path d="" data-paper-data="{&quot;index&quot;:null}" fill="#344e5f"/><path d="" data-paper-data="{&quot;index&quot;:null}" fill="#344e5f"/><path d="" data-paper-data="{&quot;index&quot;:null}" fill="#344e5f"/><path d="" data-paper-data="{&quot;index&quot;:null}" fill="#344e5f"/><path d="" data-paper-data="{&quot;index&quot;:null}" fill="#344e5f"/><path d="" data-paper-data="{&quot;index&quot;:null}" fill="#344e5f"/><path d="" data-paper-data="{&quot;index&quot;:null}" fill="#344e5f"/><path d="" data-paper-data="{&quot;index&quot;:null}" fill="#344e5f"/><path d="" data-paper-data="{&quot;index&quot;:null}" fill="#344e5f"/><path d="" data-paper-data="{&quot;index&quot;:null}" fill="#344e5f"/><path d="" data-paper-data="{&quot;index&quot;:null}" fill="#344e5f"/><path d="" data-paper-data="{&quot;index&quot;:null}" fill="#344e5f"/><path d="" data-paper-data="{&quot;index&quot;:null}" fill="#344e5f"/><path d="" data-paper-data="{&quot;index&quot;:null}" fill="#344e5f"/><path d="" data-paper-data="{&quot;index&quot;:null}" fill="#344e5f"/><path d="" data-paper-data="{&quot;index&quot;:null}" fill="#344e5f"/><path d="" data-paper-data="{&quot;index&quot;:null}" fill="#344e5f"/><path d="" data-paper-data="{&quot;index&quot;:null}" fill="#344e5f"/><path d="" data-paper-data="{&quot;index&quot;:null}" fill="#344e5f"/><path d="" data-paper-data="{&quot;index&quot;:null}" fill="#344e5f"/><path d="M-108.95685,434.25527v-515.00682c0,0 99.25964,0 171.94458,0c125.95366,0 -171.94458,515.00682 -171.94458,515.00682z" fill="none"/><path d="" data-paper-data="{&quot;index&quot;:null}" fill="#344e5f"/><path d="" data-paper-data="{&quot;index&quot;:null}" fill="#344e5f"/><path d="M-117.125,454.68306z" fill="none"/><path d="M-44.34507,434.34576v-512.99321h632.29396v512.99321z" fill="none"/><path d="M-74.09379,439.29164v-524.23559h664.43813v524.23559z" fill="none"/></g></g></svg>