<svg version="1.1" xmlns="http://www.w3.org/2000/svg" xmlns:xlink="http://www.w3.org/1999/xlink" width="581.93192" height="435.88067" viewBox="0,0,581.93192,435.88067"><g transform="translate(8.42509,37.94033)"><g data-paper-data="{&quot;isPaintingLayer&quot;:true}" fill="#344e5f" fill-rule="nonzero" stroke="none" stroke-width="0" stroke-linecap="butt" stroke-linejoin="miter" stroke-miterlimit="10" stroke-dasharray="" stroke-dashoffset="0" style="mix-blend-mode: normal"><path d="M-6.4596,313.54013c0,-20.67043 -9.01595,-48.80397 11.57215,-54.29127c0.97832,-0.26075 32.9837,-3.50078 33.93325,-3.75203c26.74784,-7.07762 43.7997,-8.08673 83.35847,-11.49771c8.07114,-0.69594 17.83575,0.14917 24.75435,2.87097c5.06646,1.99316 7.34991,6.24951 12.61653,5.35205c14.60419,-2.48863 17.6689,-7.55918 27.14038,-13.34983c10.20557,-6.23946 31.3635,-13.24224 35.31714,-16.64569c32.33694,-27.83693 37.67361,-61.25415 53.36722,-66.07929c4.70321,-1.44604 19.58144,-2.84356 34.34421,-2.6567c3.93864,0.04985 6.39191,4.50965 10.11869,4.81421c2.72428,0.22264 6.81689,-3.77603 9.2472,-3.3903c17.16232,2.72397 28.94225,8.93187 38.45081,11.33787c1.11332,0.2817 2.72528,-2.27006 3.76487,-2.01791c2.29297,0.55614 4.28741,3.70325 6.29032,3.70325c1.60942,0 6.07324,-5.50684 8.67973,-6.69422c1.77238,-0.8074 10.43464,-0.73367 12.51632,-1.88646c5.59023,-3.09575 8.37122,-13.28613 14.29469,-17.91118c2.39129,-1.86712 21.63991,-5.51499 24.11435,-7.17848c12.79408,-8.60102 9.1127,-12.53126 14.24256,-14.83903c2.09712,-0.94344 4.12508,-9.12312 9.75272,-21.97005c9.88845,-22.57365 26.17634,-57.67155 39.74584,-79.74805c8.35824,-13.59819 20.08053,-19.15998 24.49443,-19.75991c0.90722,-0.12331 7.59912,-13.60874 16.7725,-25.59529c3.71259,-4.85112 10.27645,-4.52643 14.34094,-8.99051c5.72549,-6.28838 6.98657,11.74373 7.97387,20.19064c12.78885,109.41582 10.40297,345.54545 0.39835,379.56433c-5.84726,19.88257 -61.60068,26.3022 -112.56958,27.58308c-109.46394,2.75089 -263.70408,-0.35654 -289.39996,-0.35654c-41.64104,0 -122.85214,16.70132 -157.0179,0.5688c-18.63121,-8.79735 -5.38738,-44.6049 -5.38738,-58.40377z" data-paper-data="{&quot;index&quot;:null}"/></g></g></svg>