<svg version="1.1" xmlns="http://www.w3.org/2000/svg" xmlns:xlink="http://www.w3.org/1999/xlink" width="717.16025" height="534.70919" viewBox="0,0,717.16025,534.70919"><defs><linearGradient x1="463.9484" y1="192.53266" x2="463.9484" y2="42.38682" gradientUnits="userSpaceOnUse" id="color-1"><stop offset="0" stop-color="#000000"/><stop offset="1" stop-color="#070b0d"/></linearGradient><linearGradient x1="6.13919" y1="194.58441" x2="6.13919" y2="44.43858" gradientUnits="userSpaceOnUse" id="color-2"><stop offset="0" stop-color="#000000"/><stop offset="1" stop-color="#070b0d"/></linearGradient></defs><g transform="translate(116.00375,86.26441)"><g data-paper-data="{&quot;isPaintingLayer&quot;:true}" fill-rule="nonzero" stroke="none" stroke-width="0" stroke-linecap="butt" stroke-linejoin="miter" stroke-miterlimit="10" stroke-dasharray="" stroke-dashoffset="0" style="mix-blend-mode: normal"><path d="M-103.80869,371.49156l-3.0012,-213.08523l228.09124,2.40096c0,0 6.42185,4.99713 6.0495,25.23147c-0.24855,13.5065 -3.21127,44.49345 4.4847,60.17718c3.86458,7.87569 19.84341,-1.12509 21.22752,8.06864c3.15231,20.93877 -13.85601,49.74729 -1.25138,63.50847c1.95504,2.13442 3.67329,-3.44923 8.03647,-3.16697c1.97263,0.12761 3.04298,2.89575 5.61641,4.22307c3.12089,1.60969 7.77334,1.77939 10.21641,1.26082c3.59524,-0.76314 3.94476,-4.48155 7.81932,-4.22734c1.9549,0.12826 4.77314,6.1089 6.69862,6.4406c3.62423,0.62435 4.32139,13.56752 8.00839,13.54045c8.70953,-0.06395 17.30933,-2.49003 25.19011,-4.69661c8.02909,-2.2481 18.31306,-27.07747 24.20517,-26.13972c2.29805,0.36574 1.72427,5.15755 4.95159,7.19294c2.16845,1.3676 8.4269,-0.40837 9.51842,1.51822c2.20961,3.90006 4.46822,-2.72689 5.67341,-7.04434c1.58566,-5.68051 9.45275,-6.49174 11.37755,-5.64297c0.94786,0.41797 5.28904,-2.09764 6.32218,-5.8689c2.26762,-8.27738 10.1479,-8.17073 18.37326,-10.62036c1.95865,-0.58331 4.19916,-2.94615 6.06172,-2.76756c6.32931,0.60686 10.34873,9.7408 15.98777,23.14957c4.43423,10.54387 6.2544,17.06413 13.43047,25.97141c1.75088,2.17327 -3.78985,1.96339 -1.3588,0.59273c2.40429,-1.35558 25.81815,-1.3447 27.88378,-0.96436c18.4646,3.39994 35.23907,-0.2199 50.57889,-0.31311c5.39258,-0.03277 11.21545,-2.76485 17.12935,0.16575c2.47642,1.22717 31.17574,-3.58493 33.43756,-2.20613c3.22397,1.96533 -20.03869,9.85292 -16.66254,8.81294c2.51776,-0.77557 5.51472,-4.70549 8.51469,-9.01313c4.23085,-6.07505 7.02946,-7.72362 9.93666,-7.51271c3.13343,0.22732 27.21358,-2.79307 37.9947,-2.47549c23.43639,0.69041 43.17548,-12.65422 59.7715,3.90817c11.80456,11.78066 34.59796,42.24784 34.65048,44.12794c0.30088,10.77136 -53.17156,55.48717 -53.17156,55.48717l-645.18973,5.78875z" fill="#000000"/><path d="M530.04254,-26.83638c0,2.86192 0.59356,115.69001 3.30568,128.19384c0.84038,3.87446 4.7122,78.71653 -5.07513,78.71653c-1.64962,0 0.14159,1.33658 -5.69682,15.34044c-4.6559,11.16752 -20.81689,6.59095 -32.82251,5.08893c-5.81383,-0.72737 -16.74282,0.22319 -22.55773,-3.97051c-12.53411,-9.03957 -23.30763,-14.05425 -30.81009,-13.51587c-26.45539,1.89847 -40.80524,-19.36897 -50.31317,-19.29607c-3.90729,0.02996 -23.00686,8.75729 -25.96525,4.4625c-6.25331,-9.07814 -11.83079,-6.32274 -16.2834,-6.29595c-2.68485,0.01616 3.33353,-28.79957 -1.90477,-37.02342c-8.15416,-12.80158 -9.56049,-30.57787 -7.13065,-34.19441c1.75045,-2.60535 2.31035,-7.81634 2.05545,-14.58086c-0.04883,-1.29584 -2.00274,-2.95573 -1.21211,-4.68581c1.42261,-3.11298 5.50767,-6.45318 1.37501,-8.30867c-2.19815,-0.98692 -8.30926,-1.4845 -9.49064,-3.00484c-1.20117,-1.54582 0.93664,-3.42106 1.65556,-5.51503c0.51901,-1.5117 -0.36733,-3.21516 -0.62155,-4.62175c-0.34956,-1.93409 4.14966,-5.02213 3.76719,-6.98009c-0.29498,-1.51007 -0.59861,-3.02406 -0.90914,-4.53706c-0.5757,-2.80499 -4.65167,-5.93136 -5.26366,-8.69833c-0.54542,-2.46602 0.32699,-6.68725 -0.16379,-9.06989c-2.86495,-13.90896 -0.8922,-33.84488 8.34664,-41.8904c4.30428,-3.74833 13.12358,3.89786 18.43988,-0.04036c3.21151,-2.37903 11.17397,-6.21402 14.67013,-11.26441c6.08676,-8.79266 2.53393,-27.80676 10.8428,-27.11066c9.6106,0.80515 23.01223,26.65529 31.06034,26.71155z" data-paper-data="{&quot;index&quot;:null}" fill="url(#color-1)"/><path d="M82.6178,-46.66321c0,-0.32914 16.77798,-18.35469 33.33054,-6.57275c11.26463,8.01805 15.7267,19.60958 19.08493,23.71651c9.01488,11.02468 11.28877,41.48275 9.07331,52.23851c-0.49078,2.38264 0.38163,6.60387 -0.16379,9.06989c-0.61199,2.76696 -4.68796,5.89334 -5.26366,8.69833c-0.31053,1.513 -0.61416,3.02699 -0.90914,4.53706c-0.38247,1.95796 4.11675,5.046 3.76719,6.98009c-0.25422,1.40659 -1.14056,3.11005 -0.62155,4.62175c0.71892,2.09397 2.85673,3.96922 1.65556,5.51503c-1.18138,1.52034 -7.29249,2.01791 -9.49064,3.00484c-4.13266,1.85548 -0.0476,5.19569 1.37501,8.30867c0.79063,1.73008 -1.16328,3.38997 -1.21211,4.68581c-0.2549,6.76452 0.305,11.97551 2.05545,14.58086c2.42984,3.61655 1.02351,21.39284 -7.13065,34.19441c-5.2383,8.22385 0.78008,37.03957 -1.90477,37.02342c-4.45261,-0.02679 3.77543,16.42549 -2.47788,25.50363c-2.95839,4.29479 -19.05676,5.1713 -22.96405,5.14134c-9.50793,-0.07289 -49.04084,7.22524 -75.49623,5.32677c-51.40033,-3.68854 -99.23154,-17.78523 -102.46815,-17.78523c-3.46167,0 -38.89822,-154.32416 -12.928,-191.31975c47.45645,-67.60357 172.68863,-37.46919 172.68863,-37.46919z" data-paper-data="{&quot;index&quot;:null}" fill="url(#color-2)"/><path d="M-116.00375,448.44478v-534.70919h700.75047v534.70919z" fill="none"/><path d="M359.71625,354.50204v-22.43678h131.74414v22.43678z" fill="#000000"/><path d="M469.31127,328.75728v-7.47892h90.03475v7.47892z" fill="#000000"/></g></g></svg>