<svg version="1.1" xmlns="http://www.w3.org/2000/svg" xmlns:xlink="http://www.w3.org/1999/xlink" width="51.81665" height="51.81832" viewBox="0,0,51.81665,51.81832"><defs><linearGradient x1="239.92199" y1="155.09001" x2="239.92199" y2="204.90833" gradientUnits="userSpaceOnUse" id="color-1"><stop offset="0" stop-color="#ed3973"/><stop offset="1" stop-color="#7f18a3"/></linearGradient></defs><g transform="translate(-213.96661,-154.09)"><g data-paper-data="{&quot;isPaintingLayer&quot;:true}" fill-rule="nonzero" stroke-linecap="butt" stroke-linejoin="miter" stroke-miterlimit="10" stroke-dasharray="" stroke-dashoffset="0" style="mix-blend-mode: normal"><path d="M214.96663,198.72527c0,-11.25908 0,-34.36061 0,-38.83371c0,-1.96596 2.20029,-4.88183 5.04715,-4.79986c6.01019,0.17305 28.98107,0 38.72378,0c3.13463,0 5.92554,1.84509 6.0457,4.68375c0.21175,5.00233 0,27.097 0,38.60767c0,3.94876 -2.69927,6.52521 -6.79115,6.52521c-11.1123,0 -32.49513,0 -37.97835,0c-2.51898,0 -5.04715,-2.43555 -5.04715,-6.18307z" fill="#0a0d10" stroke="url(#color-1)" stroke-width="2"/><path d="M236.21611,170.29526v-5.99803h3.99868v5.99803z" fill="#ed3973" stroke="none" stroke-width="1"/><path d="M228.63282,165.8825l4.99836,4.99835l-2.82751,2.82751l-4.99835,-4.99836z" fill="#ed3973" stroke="none" stroke-width="1"/><path d="M254.21019,180.29197v3.99868l-5.73531,1.43393l7.14905,7.14905l-2.82747,2.82747l-7.14905,-7.14905l-1.43393,5.73531h-3.99868l-5.99803,-17.99406l1.99934,-1.99936z" fill="#ed3973" stroke="none" stroke-width="1"/><path d="M224.22006,176.29328h5.99803v3.99868h-5.99803z" fill="#ed3973" stroke="none" stroke-width="1"/></g></g></svg>