<svg version="1.1" xmlns="http://www.w3.org/2000/svg" xmlns:xlink="http://www.w3.org/1999/xlink" width="79.35456" height="69.77393" viewBox="0,0,79.35456,69.77393"><g transform="translate(-200.72769,-138.50668)"><g data-paper-data="{&quot;isPaintingLayer&quot;:true}" fill-rule="nonzero" stroke-linecap="butt" stroke-linejoin="miter" stroke-miterlimit="10" stroke-dasharray="" stroke-dashoffset="0" style="mix-blend-mode: normal"><path d="M280.08225,160.9062c0,0 -4.403,-0.53944 -5.66002,0.36299c-1.41116,1.01308 -2.39814,5.42203 -2.39814,5.42203c0,0 0.53967,-4.40269 -0.43311,-5.7577c-0.95524,-1.33059 -5.3519,-2.30046 -5.3519,-2.30046c0,0 4.96283,0.72959 6.38004,-0.28784c1.247,-0.89522 1.67812,-5.49718 1.67812,-5.49718c0,0 -0.14903,4.22519 0.84509,5.60995c0.92993,1.29533 4.93992,2.44822 4.93992,2.44822z" fill="#ffffff" stroke="none" stroke-width="0"/><path d="M255.93977,149.57811c0,0 3.35498,-3.64089 3.35498,-5.36796c0,-1.93885 -3.35498,-5.70346 -3.35498,-5.70346c0,0 3.64046,3.35497 5.50217,3.35497c1.82816,0 5.56926,-3.35497 5.56926,-3.35497c0,0 -3.89177,4.02469 -3.89177,5.97186c0,1.71329 3.89177,5.09957 3.89177,5.09957c0,0 -3.73379,-2.88528 -5.63637,-2.88528c-1.7797,0 -5.43506,2.88528 -5.43506,2.88528z" fill="#ffffff" stroke="none" stroke-width="0"/><path d="M213.71697,204.04996c-1.25877,-8.12033 -4.26385,-27.46319 -5.29564,-33.72292c-0.5907,-3.58362 1.69211,-9.72469 4.13538,-10.08864c0.92918,-0.1384 2.97807,0.49912 4.54444,0.26117c9.30541,-1.41354 28.46745,-4.17032 39.7785,-6.03909c1.37634,-0.22739 1.96422,-1.27319 3.09885,-1.44223c3.25609,-0.48512 6.69329,4.26217 7.26417,8.30824c0.89381,6.33474 3.54361,25.11485 4.72632,33.49717c0.35781,2.53598 -1.11429,4.37501 -3.91411,4.79564c-12.0091,1.80425 -44.33218,6.66045 -50.2939,7.55614c-1.85252,0.27833 -3.69399,-0.86756 -4.044,-3.12551z" fill="#1666a1" stroke="#041a1f" stroke-width="2"/><path d="M206.3635,179.64049c-0.06416,-0.41949 -0.12462,-0.81475 -0.16537,-1.08119c-0.09589,-0.62693 0.58744,-1.74957 1.68264,-1.91708c5.33207,-0.81555 47.32899,-7.23908 59.54262,-9.10718c2.10111,-0.32137 3.4643,0.43037 3.55703,1.03663c0.05,0.3269 0.13103,0.85666 0.21262,1.3901c0.13506,0.88304 -0.59397,1.90865 -2.12238,2.14242c-10.70119,1.63677 -53.8914,8.24282 -59.92876,9.16625c-1.37394,0.21015 -2.63421,-0.68715 -2.77841,-1.62993z" fill="#1666a1" stroke="#041a1f" stroke-width="2"/><g fill="#0b314d" stroke="#041a1f" stroke-width="2"><path d="M214.48624,174.26248c0,0 -1.17668,-7.35718 -0.76504,-9.03433c0.85632,-3.48889 3.28011,-4.02182 3.28011,-4.02182l39.71175,-5.86993c0,0 3.12232,1.64996 4.54733,4.57225c0.99444,2.03932 1.31027,7.19735 1.31027,7.19735z"/><path d="M214.77679,186.0972c-0.31656,-1.07143 24.96063,-4.61187 27.09941,-4.93503c5.62203,-0.84949 22.98066,-3.53093 23.12848,-3.25877c0.68873,5.94895 1.53881,9.54984 2.22755,15.49879c0.15293,1.32088 -0.5171,2.89983 -1.969,3.12746c-8.60459,1.3491 -38.78438,6.0809 -44.05263,6.9069c-1.53253,0.24028 -3.33083,-1.08089 -3.58322,-2.31783z"/></g><path d="M233.3894,188.71145c-0.31622,-2.06743 -1.47652,-9.65347 -1.47652,-9.65347l15.52279,-2.37425c0,0 1.1603,7.58604 1.47652,9.65347c0.14966,0.97848 -0.48171,2.28665 -1.71498,2.47528c-3.29557,0.50407 -9.59625,1.46777 -11.42971,1.7482c-0.98209,0.15021 -2.22843,-0.87074 -2.37809,-1.84924z" fill="#1666a1" stroke="#041a1f" stroke-width="2"/><path d="M238.62501,184.07749c-0.16497,-1.07855 0.57563,-2.08662 1.65419,-2.25159c1.07855,-0.16497 2.08662,0.57563 2.25159,1.65419c0.16497,1.07855 -0.57563,2.08662 -1.65419,2.25159c-1.07855,0.16497 -2.08662,-0.57563 -2.25159,-1.65419z" fill="#041a1f" stroke="none" stroke-width="0"/><path d="M252.80282,150.52539c0,0 -1.71648,-1.78373 -2.57845,-1.83556c-0.96768,-0.05819 -2.94728,1.50329 -2.94728,1.50329c0,0 1.78372,-1.71626 1.83959,-2.64543c0.05487,-0.91243 -1.50733,-2.88029 -1.50733,-2.88029c0,0 1.89192,2.06316 2.86375,2.1216c0.8551,0.05142 2.66198,-1.78934 2.66198,-1.78934c0,0 -1.5521,1.77694 -1.60919,2.72651c-0.05341,0.88825 1.27693,2.79922 1.27693,2.79922z" fill="#ffffff" stroke="none" stroke-width="0"/><path d="M212.80949,153.633c0,0 -3.84277,-0.47081 -4.93985,0.3168c-1.23161,0.88417 -2.09301,4.73214 -2.09301,4.73214c0,0 0.471,-3.8425 -0.378,-5.0251c-0.8337,-1.16129 -4.67094,-2.00775 -4.67094,-2.00775c0,0 4.33137,0.63676 5.56826,-0.25121c1.08833,-0.78131 1.4646,-4.79773 1.4646,-4.79773c0,0 -0.13007,3.68759 0.73756,4.89615c0.8116,1.13051 4.31138,2.13671 4.31138,2.13671z" fill="#ffffff" stroke="none" stroke-width="0"/></g></g></svg>