<svg version="1.1" xmlns="http://www.w3.org/2000/svg" xmlns:xlink="http://www.w3.org/1999/xlink" width="700.75047" height="534.70919" viewBox="0,0,700.75047,534.70919"><defs><linearGradient x1="134.03842" y1="193.06857" x2="134.03842" y2="42.92273" gradientUnits="userSpaceOnUse" id="color-1"><stop offset="0" stop-color="#000000"/><stop offset="1" stop-color="#070b0d"/></linearGradient></defs><g transform="translate(116.00375,86.26441)"><g data-paper-data="{&quot;isPaintingLayer&quot;:true}" fill-rule="nonzero" stroke="none" stroke-linecap="butt" stroke-linejoin="miter" stroke-miterlimit="10" stroke-dasharray="" stroke-dashoffset="0" style="mix-blend-mode: normal"><path d="M178.76165,177.60315c1.44833,5.04166 15.51669,23.89272 3.91396,27.22587c-11.60273,3.33314 -9.85641,-20.70905 -11.30474,-25.75071c-1.44834,-5.04167 -11.9843,-7.41133 -0.38157,-10.74448c11.60273,-3.33315 6.32401,4.22765 7.77234,9.26931z" data-paper-data="{&quot;index&quot;:null}" fill="#000000" stroke-width="0"/><path d="M329.55475,78.36078c1.23062,-3.49008 0.85914,-20.08036 8.89111,-17.24824c8.03197,2.83213 -2.8094,15.93459 -4.04002,19.42466c-1.23062,3.49009 3.85476,9.16311 -4.1772,6.33099c-8.03198,-2.83211 -1.90451,-5.01733 -0.67389,-8.5074z" data-paper-data="{&quot;index&quot;:null}" fill="#06090b" stroke-width="0"/><path d="M343.02732,78.55256c-0.60595,-2.55113 -7.19234,-12.29122 -1.32123,-13.68574c5.87112,-1.39452 4.44002,10.56988 5.04598,13.12102c0.60596,2.55114 5.81178,3.9794 -0.05933,5.37393c-5.87112,1.39453 -3.05946,-2.25806 -3.66541,-4.8092z" data-paper-data="{&quot;index&quot;:null}" fill="#06090b" stroke-width="0"/><path d="M105.71668,208.53c-4.4774,-2.73292 -27.59084,-7.09752 -21.30137,-17.40168c6.28948,-10.30415 21.26868,8.58235 25.74608,11.31528c4.47742,2.73293 13.83941,-2.64989 7.54994,7.65427c-6.28947,10.30416 -7.51723,1.16506 -11.99463,-1.56787z" data-paper-data="{&quot;index&quot;:null}" fill="#000000" stroke-width="0"/><path d="M295.72733,-32.39107c23.82983,-0.05626 36.90803,-3.39617 65.36428,-4.20132c24.60192,-0.6961 78.20232,-18.51692 96.22475,-9.72426c36.09085,17.60773 28.7321,-12.84623 64.61107,5.18931c1.55102,0.77966 16.33042,20.87761 27.43283,54.75506c0.43856,1.33821 6.21081,16.43191 1.3992,22.35499c-1.41733,1.74473 -4.53117,-1.68755 -7.78739,-1.79266c-4.9903,-0.16109 -10.31499,2.43289 -10.38001,3.8841c-0.10527,2.34976 5.68819,2.49883 7.09021,3.89724c2.98181,2.97414 3.09316,5.93497 3.78605,7.92382c0.35834,1.02858 7.89737,-1.99686 9.62325,-2.42593c1.97124,-0.49007 3.94862,-6.68663 6.14642,-5.99042c1.11072,0.35185 2.27774,7.65156 3.52871,7.79337c8.50646,0.96428 18.10193,1.46914 18.35558,4.7416c1.34941,17.40928 -14.99419,15.75088 -24.77215,28.02055c-13.25094,16.62767 -21.61669,44.48902 -24.55146,46.0451c-7.24752,3.84279 -12.54814,7.97766 -16.81909,12.15302c-4.31522,4.21864 -6.50749,-2.77541 -9.6665,1.26642c-0.93531,1.1967 -11.03314,-12.44205 -23.41037,-11.68888c-12.25196,0.74555 -17.14507,-11.42504 -16.73867,-14.73131c2.68674,-21.85816 -2.43826,-19.36363 -23.37144,-19.41783c-4.89964,-0.01269 -13.14094,-11.20018 -22.67089,-19.93342c-4.26831,-3.91148 -9.68484,7.23976 -13.48369,4.09383c-2.78782,-2.30867 -4.45715,-18.74672 -5.41027,-22.03704c-3.35426,-11.5793 -45.56431,11.4906 -54.33204,9.51291c-1.72381,-0.38883 -13.48145,7.73669 -19.6717,7.1994c-8.1144,-0.70431 -10.8967,-9.36499 -11.55225,-1.92462c-0.26803,3.04212 6.01335,8.33591 3.81678,11.63385c-3.06037,4.59486 -15.01221,6.8286 -16.93917,7.12543c-2.28125,0.35141 -8.29157,-24.01443 -14.51871,-19.82084c-4.68998,3.1584 8.00016,13.59971 3.62651,23.1337c-2.7401,5.97306 -11.03435,11.62464 -18.01553,15.40551c-0.53258,0.28844 -14.43114,-3.59774 -21.85418,-13.7339c-6.75767,-9.22761 -6.49687,-24.27735 -18.09609,-33.55178c-3.70206,-2.96007 -6.5826,-16.70765 -10.77933,-18.52237c-4.2526,-1.83889 1.57071,13.69771 -0.90953,13.24554c-7.96316,-1.45177 10.43819,11.97935 12.28812,15.96511c3.15396,6.79534 -5.01684,6.57209 -7.38872,6.43457c-4.58627,-0.2659 7.18759,3.70999 13.07988,12.69331c0.56897,0.86745 4.70445,-21.97489 8.71221,-24.28026c5.58494,-3.21261 11.42664,13.76951 11.50028,15.76528c0.1574,4.26571 -6.69964,18.88137 -6.78129,18.88989c-1.87644,0.19586 5.94091,13.41734 4.12641,15.54423c-6.57929,7.71199 -12.96863,24.56587 -20.74364,24.80136c-6.92887,0.20987 -25.42797,25.43068 -33.00876,25.24695c-17.25995,-0.41831 -27.50515,17.52109 -54.36129,23.09069c-4.74857,0.98479 -11.10136,3.45878 -15.19828,-1.51699c-2.55393,-3.1018 -2.6259,-14.83188 -5.80425,-14.05772c-7.61769,1.85546 -21.2003,23.70917 -32.12312,24.14148c-13.76492,0.5448 -28.07132,0.42873 -37.66934,0.83428c-5.78955,0.24463 -16.49332,3.07089 -21.39892,8.97411c-2.10684,2.53529 5.09175,7.86337 0.64711,10.13415c-4.82633,2.4658 -21.61077,-5.89652 -29.91388,-4.59507c-9.88845,1.54994 -11.12724,12.52597 -12.6422,12.51158c-26.44821,-0.25121 -10.60772,-12.1903 -18.09755,-18.25764c-17.28709,-14.00386 -27.76295,-29.1965 -32.64735,-29.1965c-28.97953,0 -17.51537,-74.84207 -15.02707,-78.71653c8.03037,-12.50383 9.78786,-125.33192 9.78786,-128.19384z" data-paper-data="{&quot;index&quot;:null}" fill="url(#color-1)" stroke-width="0"/><path d="" data-paper-data="{&quot;index&quot;:null}" fill="#344e5f" stroke-width="0"/><path d="" data-paper-data="{&quot;index&quot;:null}" fill="#344e5f" stroke-width="0"/><path d="" data-paper-data="{&quot;index&quot;:null}" fill="#344e5f" stroke-width="0"/><path d="" data-paper-data="{&quot;index&quot;:null}" fill="#344e5f" stroke-width="0"/><path d="" data-paper-data="{&quot;index&quot;:null}" fill="#344e5f" stroke-width="0"/><path d="" data-paper-data="{&quot;index&quot;:null}" fill="#344e5f" stroke-width="0"/><path d="" data-paper-data="{&quot;index&quot;:null}" fill="#344e5f" stroke-width="0"/><path d="" data-paper-data="{&quot;index&quot;:null}" fill="#344e5f" stroke-width="0"/><path d="" data-paper-data="{&quot;index&quot;:null}" fill="#344e5f" stroke-width="0"/><path d="" data-paper-data="{&quot;index&quot;:null}" fill="#344e5f" stroke-width="0"/><path d="" data-paper-data="{&quot;index&quot;:null}" fill="#344e5f" stroke-width="0"/><path d="" data-paper-data="{&quot;index&quot;:null}" fill="#344e5f" stroke-width="0"/><path d="" data-paper-data="{&quot;index&quot;:null}" fill="#344e5f" stroke-width="0"/><path d="" data-paper-data="{&quot;index&quot;:null}" fill="#344e5f" stroke-width="0"/><path d="" data-paper-data="{&quot;index&quot;:null}" fill="#344e5f" stroke-width="0"/><path d="" data-paper-data="{&quot;index&quot;:null}" fill="#344e5f" stroke-width="0"/><path d="" data-paper-data="{&quot;index&quot;:null}" fill="#344e5f" stroke-width="0"/><path d="" data-paper-data="{&quot;index&quot;:null}" fill="#344e5f" stroke-width="0"/><path d="" data-paper-data="{&quot;index&quot;:null}" fill="#344e5f" stroke-width="0"/><path d="" data-paper-data="{&quot;index&quot;:null}" fill="#344e5f" stroke-width="0"/><path d="" data-paper-data="{&quot;index&quot;:null}" fill="#344e5f" stroke-width="0"/><path d="" fill="#000000" stroke-width="0.5"/><path d="M-116.00375,448.44478v-534.70919h700.75047v534.70919z" fill="none" stroke-width="0"/><path d="M74.53756,162.09499c5.71162,0 1.77679,10.70477 1.77679,13.1866c0,2.48183 4.48154,4.93576 -1.23008,4.93576c-5.71162,0 -2.32349,-2.74861 -2.32349,-5.23044c0,-2.48183 -3.93484,-12.89192 1.77678,-12.89192z" data-paper-data="{&quot;index&quot;:null}" fill="#000000" stroke-width="0"/><path d="M58.91511,163.58398c0.68525,2.38536 7.3414,11.30435 1.85181,12.88136c-5.4896,1.57701 -4.66336,-9.79806 -5.34861,-12.18342c-0.68525,-2.38536 -5.67012,-3.50652 -0.18053,-5.08353c5.48959,-1.577 2.99207,2.00023 3.67732,4.38559z" data-paper-data="{&quot;index&quot;:null}" fill="#000000" stroke-width="0"/><path d="M-85.87715,411.50067v-96.18008c0,0 -31.17257,-10.21219 18.0745,-11.26267c17.12292,-0.36525 84.14542,9.97172 110.51083,9.07963c10.76541,-0.36425 81.73318,-16.29587 92.76617,-16.3873c2.20398,-0.01826 11.19867,11.42162 17.36613,7.75963c5.64057,-3.34915 8.42552,-21.90682 11.58985,-20.38014c5.85869,2.82662 0.11737,24.66389 5.83134,24.80629c8.11409,0.20222 14.36545,-11.59249 19.56798,-10.56178c28.14334,5.57569 74.66716,-80.41549 102.89765,-81.55318c9.17439,-0.36973 21.43052,-30.21767 30.39502,-30.48489c9.08469,-0.27081 17.28501,6.83224 25.27173,7.52653c13.69427,1.19045 25.72096,-1.9057 32.98669,11.88066c7.95202,15.08855 25.37648,25.43351 25.23067,32.68125c-0.57037,28.35085 28.41394,28.32229 56.77052,28.32229c2.35975,0 31.09139,-7.83396 32.58254,9.51768c17.48509,9.75748 15.40366,28.08832 34.39623,40.52575c19.58697,12.82669 23.59843,38.77581 23.59843,38.77581l-40.92769,55.93452z" data-paper-data="{&quot;index&quot;:null}" fill="#000000" stroke-width="0"/><path d="M255.79857,282.74158c0.50395,-0.71747 3.57259,-6.10564 6.12885,-4.97664c2.2434,0.99082 3.81489,8.31852 6.67881,10.33015c6.12724,4.30377 10.3273,8.88475 9.38107,10.23187c-0.94623,1.34712 -6.68041,-1.04973 -12.80766,-5.35351c-2.01989,-1.41877 -7.87331,3.2228 -9.35901,1.86956c-3.0211,-2.75174 -0.65636,-11.1984 -0.02208,-12.10143z" data-paper-data="{&quot;index&quot;:null}" fill="#000000" stroke-width="0"/><path d="M94.43687,288.78234c1.44833,5.04166 15.51669,23.89272 3.91396,27.22587c-11.60273,3.33314 -9.85641,-20.70905 -11.30474,-25.75071c-1.44834,-5.04167 -11.9843,-7.41133 -0.38157,-10.74448c11.60273,-3.33315 6.32401,4.22765 7.77234,9.26931z" data-paper-data="{&quot;index&quot;:null}" fill="#000000" stroke-width="0"/><path d="M203.29427,287.66826c-1.2879,3.32995 -1.41056,19.33939 -9.07401,16.37545c-7.66345,-2.96395 3.17109,-15.28493 4.45899,-18.61488c1.2879,-3.32996 -3.45169,-8.94808 4.21176,-5.98414c7.66346,2.96394 1.69116,4.89361 0.40326,8.22356z" data-paper-data="{&quot;index&quot;:null}" fill="#000000" stroke-width="0"/><path d="M283.63736,229.43032c-4.4774,-2.73292 -27.59084,-7.09752 -21.30137,-17.40168c6.28948,-10.30415 21.26868,8.58235 25.74608,11.31528c4.47742,2.73293 13.83941,-2.64989 7.54994,7.65427c-6.28947,10.30416 -7.51723,1.16506 -11.99463,-1.56787z" data-paper-data="{&quot;index&quot;:null}" fill="#000000" stroke-width="0"/><path d="M107.08329,293.56322c-1.2879,3.32995 -1.41056,19.33939 -9.07401,16.37545c-7.66345,-2.96395 3.17109,-15.28493 4.45899,-18.61488c1.2879,-3.32996 -3.45169,-8.94808 4.21176,-5.98414c7.66346,2.96394 1.69116,4.89361 0.40326,8.22356z" data-paper-data="{&quot;index&quot;:null}" fill="#000000" stroke-width="0"/><path d="M346.77071,180.38644c1.46355,3.25658 12.76557,14.59595 5.27098,17.96413c-7.4946,3.36816 -8.64408,-12.99865 -10.10763,-16.25523c-1.46356,-3.25658 -8.79117,-3.83375 -1.29658,-7.20193c7.49459,-3.36817 4.66967,2.23644 6.13321,5.49301z" data-paper-data="{&quot;index&quot;:null}" fill="#000000" stroke-width="0"/><path d="M357.5607,183.39527c-0.12924,2.61892 3.48083,13.80896 -2.54629,13.51153c-6.02712,-0.29744 -1.31747,-11.38861 -1.18823,-14.00753c0.12923,-2.61894 -4.47206,-5.44178 1.55506,-5.14435c6.02712,0.29743 2.3087,3.02143 2.17946,5.64035z" data-paper-data="{&quot;index&quot;:null}" fill="#000000" stroke-width="0"/></g></g></svg>