<svg version="1.1" xmlns="http://www.w3.org/2000/svg" xmlns:xlink="http://www.w3.org/1999/xlink" width="722.37327" height="535.63903" viewBox="0,0,722.37327,535.63903"><g transform="translate(119.98493,90.13023)"><g data-paper-data="{&quot;isPaintingLayer&quot;:true}" fill-rule="nonzero" stroke="none" stroke-width="0" stroke-linecap="butt" stroke-linejoin="miter" stroke-miterlimit="10" stroke-dasharray="" stroke-dashoffset="0" style="mix-blend-mode: normal"><path d="M-102.94497,442.61492v-528.64939h687.58527v528.64939z" fill="none"/><path d="M-110.89528,435.59936v-522.53727h713.28362v522.53727z" fill="none"/><path d="M-16.81644,384.16136l0.9668,-399.17006c0,0 0.30192,-10.68338 15.46874,-10.68338c6.44919,0 53.4565,-1.641 80.45757,16.66098c32.17343,21.80794 46.08858,64.18434 69.40367,64.30075c23.09468,0.11531 81.31394,6.94197 135.36995,0.07972c33.14076,-4.20713 67.42513,-22.11069 83.12057,-24.69533c10.90641,-1.79601 19.48412,5.53527 50.03255,-2.75365c8.06187,-2.18748 47.39865,-1.11157 54.69087,-4.63918c17.50887,-8.46992 24.36795,-26.54778 28.68836,-28.11878c146.11702,-53.13148 29.0074,389.01893 29.0074,389.01893z" fill="#344e5f"/><path d="M-117.27968,441.9018v-532.03203h713.28362v532.03203z" fill="none"/><path d="M-119.98493,445.5088v-534.73728h718.69412v534.73728z" fill="none"/></g></g></svg>