<svg version="1.1" xmlns="http://www.w3.org/2000/svg" xmlns:xlink="http://www.w3.org/1999/xlink" width="516.37108" height="376.96335" viewBox="0,0,516.37108,376.96335"><g transform="translate(-0.30014,5.51484)"><g data-paper-data="{&quot;isPaintingLayer&quot;:true}" fill-rule="nonzero" stroke="none" stroke-width="0" stroke-linecap="butt" stroke-linejoin="miter" stroke-miterlimit="10" stroke-dasharray="" stroke-dashoffset="0" style="mix-blend-mode: normal"><g><g><path d="M200.51934,329.74431v-130.95818h265.87339v130.9582z" fill="#617a8d"/><path d="M323.12122,292.19713h-13.58392c0,0 -1.0617,1.18869 -2.81955,1.3975c-3.36903,0.40019 -8.55785,-0.19597 -8.55785,-1.3975c0,-0.90638 5.1667,-6.4617 5.1667,-6.4617l6.53377,-0.41942l5.47069,3.27637l6.66334,-4.23199z" fill="#bec3c5"/><path d="M292.71004,294.63676h-13.58392c0,0 -1.06171,1.18869 -2.81956,1.39749c-3.36903,0.40019 -8.55784,-0.19596 -8.55784,-1.39749c0,-0.90638 4.82111,-7.15288 4.82111,-7.15288l6.87936,-0.76499l4.77953,-2.59851l3.20752,3.02522z" fill="#bec3c5"/><path d="M361.9081,291.60868l-26.79583,0.34558c0,0 -0.93288,1.1245 -2.47746,1.32202c-2.96028,0.37857 -7.51954,-0.18538 -7.51954,-1.32202c0,-0.85743 4.23618,-6.7666 4.23618,-6.7666l6.04469,-0.72368l4.19964,-2.45819l15.25929,3.8986z" fill="#bec3c5"/><path d="M200.2803,344.5504v-54.41113h268.55819v54.41114c0,0 6.11303,6.1114 -29.46993,8.96033c-36.48291,2.92098 -114.98177,2.5813 -139.71181,2.5813c-37.81014,0 -99.37645,-11.54163 -99.37645,-11.54163z" fill="#254966"/><path d="M196.31646,338.52816l1.25092,-9.61629l32.49225,-2.52764l26.77764,1.78903l29.95109,11.86116l-41.97351,9.07536l-29.00468,-0.82377z" fill="#bec3c5"/><path d="M205.53721,333.02215l7.6572,-3.01363l9.26119,1.30335l-7.6572,1.22152z" fill="#273d4d"/><path d="M223.24737,336.71806l6.90911,-4.46976l9.33594,-0.55573l-7.26386,2.71312z" fill="#273d4d"/><path d="M204.61744,274.91727c1.19496,-0.9524 7.36432,-27.39533 13.05945,-31.00348c3.59365,-2.27674 12.73078,-3.86032 15.55049,0.04378c3.8411,5.31828 1.05978,17.63197 3.73225,22.77409c7.3905,14.2183 1.06487,38.06556 -0.46292,49.63483c-0.88944,6.73536 2.13766,23.67246 -1.26871,30.54352c-2.46044,4.96292 -9.88293,1.51864 -15.4209,1.39545c-4.06704,-0.09052 -1.28543,-4.20646 -5.22502,-3.19214c-2.33327,0.60082 -5.9725,6.45374 -11.64657,2.0371c-10.6515,-8.29082 -5.89964,-17.98052 -4.34582,-29.74664z" data-paper-data="{&quot;index&quot;:null}" fill="#0e0e0f"/><path d="M234.00308,253.89115l-2.60793,-6.33354c0,0 5.97335,0.46663 8.19009,1.13836c1.78909,0.54215 2.98675,2.58725 2.98675,2.58725c0,0 -1.63817,1.85964 -3.14442,2.26516c-1.69928,0.45749 -5.42449,0.34276 -5.42449,0.34276z" fill="#0e0e0f"/><path d="M210.78747,294.04199c-5.64555,16.11795 -7.01062,27.19695 -11.57489,25.59825c-3.46663,-1.21423 -5.36264,-9.39253 -4.76408,-20.31767c0.18953,-3.45925 -1.5474,-7.19387 -0.18972,-11.07001c5.64555,-16.11795 13.92225,-27.88812 18.48651,-26.28942c4.56428,1.59871 3.68773,15.96089 -1.95782,32.07884z" fill="#0e0e0f"/><path d="M248.66266,288.16185c5.72646,12.6533 4.43409,25.43737 0.85094,27.05899c-3.58316,1.62162 -7.49426,-10.04822 -13.22072,-22.70152c-5.72646,-12.6533 -11.09979,-21.49853 -7.51663,-23.12014c1.79668,-0.81312 5.72434,-3.00035 9.54462,0.33101c3.79855,3.31241 7.48673,12.12306 10.34179,18.43167z" fill="#0e0e0f"/><path d="M295.97713,306.8813l8.19335,-0.76381l8.53271,3.82902l-7.69466,-0.95752z" fill="#273d4d"/><path d="M320.04147,299.14451l7.00232,-0.80104l7.23336,-0.01057l-5.73077,2.28508z" fill="#273d4d"/><path d="M192.68095,348.51606v-153.5165h9.02367v153.5165z" fill="#0f1417"/><g fill="#6e9ab7"><path d="M263.83803,302.98901l8.19335,-0.76381l8.53271,3.82902l-7.69466,-0.95752z"/><path d="M287.90236,295.25223l7.00233,-0.80104l7.23335,-0.01056l-5.73076,2.28507z"/><path d="M295.97713,306.8813l8.19335,-0.76381l8.53271,3.82902l-7.69466,-0.95752z"/><path d="M320.04147,299.14451l7.00232,-0.80104l7.23336,-0.01057l-5.73077,2.28508z"/><path d="M282.2667,317.32177l12.49474,-0.7638l13.01227,3.82901l-11.73424,-0.95752z"/><path d="M324.25454,312.34965l10.67844,-0.80104l11.03075,-0.01056l-8.73933,2.28507z"/><path d="M331.79124,328.59363l12.49474,-0.76382l13.01227,3.82902l-11.73424,-0.95752z"/><path d="M300.4094,334.04895l10.67843,-0.80104l11.03075,-0.01056l-8.73933,2.28508z"/><path d="M249.10538,317.46103l10.67844,-0.80104l11.03075,-0.01056l-8.73933,2.28508z"/></g></g><path d="M271.84265,353.39313l-6.82962,-8.62228l21.90661,-4.79271l0.47927,10.65918z" fill="#4c616a"/></g><path d="M447.96282,292.04999l-26.79583,0.34558c0,0 -0.93288,1.1245 -2.47746,1.32202c-2.96028,0.37857 -7.51954,-0.18538 -7.51954,-1.32202c0,-0.85743 -9.89319,-0.26708 -9.89319,-0.26708l8.14668,-11.19495l12.16246,-7.31257l8.87932,4.60766l10.00322,-6.00474l10.70011,8.30352z" fill="#bec3c5"/><path d="M10.46534,207.37249v-17.38731h478.63248v17.38731z" fill="#0f1417"/><path d="M0.30014,367.17599v-22.61048h516.37108v22.61048z" fill="#0f1417"/><path d="M386.18821,304.5843v-14.41196h67.5384v14.41196z" fill="#254966"/><path d="M413.44595,323.72837l-8.19335,0.76381l-8.53271,-3.82901l7.69466,0.95752z" data-paper-data="{&quot;index&quot;:null}" fill="#6e9ab7"/><path d="M427.15637,313.2879l-12.49474,0.7638l-13.01227,-3.82901l11.73424,0.95752z" data-paper-data="{&quot;index&quot;:null}" fill="#6e9ab7"/><path d="M385.16853,318.26002l-10.67844,0.80104l-11.03075,0.01056l8.73933,-2.28508z" data-paper-data="{&quot;index&quot;:null}" fill="#6e9ab7"/><path d="M377.63183,302.01604l-12.49474,0.76381l-13.01227,-3.82902l11.73424,0.95752z" data-paper-data="{&quot;index&quot;:null}" fill="#6e9ab7"/><path d="M409.01367,296.56072l-10.67843,0.80104l-11.03075,0.01056l8.73933,-2.28508z" data-paper-data="{&quot;index&quot;:null}" fill="#6e9ab7"/><path d="M407.45431,336.79182l-12.49474,0.76382l-13.01227,-3.82902l11.73425,0.95752z" data-paper-data="{&quot;index&quot;:null}" fill="#6e9ab7"/><path d="M438.83615,331.33651l-10.67843,0.80104l-11.03075,0.01056l8.73933,-2.28507z" data-paper-data="{&quot;index&quot;:null}" fill="#6e9ab7"/><path d="M464.76619,317.49395l-10.67845,0.80104l-11.03075,0.01056l8.73933,-2.28508z" data-paper-data="{&quot;index&quot;:null}" fill="#6e9ab7"/><path d="M457.22949,301.24997l-12.49474,0.76381l-13.01227,-3.82902l11.73425,0.95752z" data-paper-data="{&quot;index&quot;:null}" fill="#6e9ab7"/><path d="M454.31065,371.44851v-376.96335h52.35602v376.96335z" fill="#0f1417"/><path d="M194.68408,361.54873v-160.85253h17.34684v160.85253z" fill="#0f1417"/></g></g></svg>