<svg version="1.1" xmlns="http://www.w3.org/2000/svg" xmlns:xlink="http://www.w3.org/1999/xlink" width="491.64558" height="350.0953" viewBox="0,0,491.64558,350.0953"><defs><linearGradient x1="240.04525" y1="-0.78561" x2="240.04525" y2="56.21445" gradientUnits="userSpaceOnUse" id="color-1"><stop offset="0" stop-color="#0a0d10"/><stop offset="1" stop-color="#0a0d10" stop-opacity="0"/></linearGradient></defs><g transform="translate(5.77757,0.78555)"><g data-paper-data="{&quot;isPaintingLayer&quot;:true}" fill-rule="nonzero" stroke-linejoin="miter" stroke-miterlimit="10" stroke-dasharray="" stroke-dashoffset="0" style="mix-blend-mode: normal"><path d="M25.17858,336.45765c0,-10.82538 0,-26.43947 0,-38.55634c0,-6.65168 0,-9.67903 0,-12.85211c0,-8.08964 6.65171,-13.95373 14.30345,-13.95373c37.65105,0 323.32588,0 397.68882,0c11.23853,0 17.65059,9.26501 17.65059,16.52415c0,7.69349 0,25.50772 0,40.02514c0,11.94926 -6.41187,21.66499 -17.65059,21.66499c-74.45439,0 -360.74987,0 -398.03614,0c-7.86328,0 -13.95612,-5.24314 -13.95612,-12.85211z" fill="#0a0d10" stroke="none" stroke-width="0" stroke-linecap="butt"/><path d="M-5.77757,56.21445v-57h491.64558v57z" fill="url(#color-1)" stroke="none" stroke-width="0" stroke-linecap="butt"/><path d="M142.88221,24.30319c-0.40565,0 -0.74157,-0.12676 -1.00777,-0.38029c-0.25353,-0.2662 -0.38029,-0.59579 -0.38029,-0.98876c0,-0.39297 0.12676,-0.70988 0.38029,-0.95073c0.2662,-0.25353 0.60213,-0.38029 1.00777,-0.38029h3.93601c0.39297,0 0.72255,0.1331 0.98876,0.39931c0.2662,0.2662 0.39931,0.59579 0.39931,0.98876c0,0.38029 -0.1331,0.6972 -0.39931,0.95073c-0.2662,0.24085 -0.59579,0.36128 -0.98876,0.36128zM163.23053,17.59103l-4.88674,11.52282c-0.11409,0.29156 -0.27888,0.51973 -0.49438,0.68452c-0.2155,0.15212 -0.45635,0.22817 -0.72255,0.22817c-0.40565,0 -0.70988,-0.11409 -0.9127,-0.34226c-0.19015,-0.22817 -0.28522,-0.50705 -0.28522,-0.83664c0,-0.13944 0.02535,-0.28522 0.07606,-0.43733l5.64732,-13.57639c0.11409,-0.30423 0.29789,-0.53875 0.55142,-0.70354c0.25353,-0.16479 0.51973,-0.23451 0.79861,-0.20916c0.27888,0 0.53241,0.0824 0.76058,0.24719c0.24085,0.15212 0.41198,0.37395 0.51339,0.66551l5.59028,13.31019c0.07606,0.19015 0.11409,0.37395 0.11409,0.55142c0,0.40565 -0.1331,0.72889 -0.39931,0.96974c-0.2662,0.24085 -0.55776,0.36128 -0.87467,0.36128c-0.2662,0 -0.51339,-0.0824 -0.74157,-0.24719c-0.2155,-0.16479 -0.38663,-0.39297 -0.51339,-0.68452l-4.86772,-11.3707zM159.04733,26.35677l1.23595,-2.62401h6.1417l0.41832,2.62401zM182.92946,14.79594c0.39297,0.19015 0.62114,0.50072 0.68452,0.93171c0.06338,0.41832 -0.04437,0.80495 -0.32325,1.15989c-0.20282,0.2662 -0.46269,0.41832 -0.7796,0.45635c-0.30423,0.02535 -0.61481,-0.03803 -0.93171,-0.19015c-0.35494,-0.16479 -0.73523,-0.29156 -1.14087,-0.38029c-0.40565,-0.08873 -0.82397,-0.1331 -1.25496,-0.1331c-0.82397,0 -1.55919,0.12676 -2.20569,0.38029c-0.63382,0.25353 -1.1789,0.62114 -1.63525,1.10284c-0.45635,0.46902 -0.80495,1.03313 -1.0458,1.6923c-0.22817,0.64649 -0.34226,1.36271 -0.34226,2.14864c0,0.92537 0.1331,1.73032 0.39931,2.41485c0.2662,0.67185 0.63382,1.23595 1.10284,1.6923c0.46902,0.45635 1.02045,0.79861 1.65427,1.02679c0.63382,0.2155 1.32468,0.32325 2.07259,0.32325c0.40565,0 0.81129,-0.03803 1.21693,-0.11409c0.40565,-0.07606 0.79861,-0.2155 1.1789,-0.41832c0.31691,-0.15212 0.62748,-0.20282 0.93171,-0.15212c0.31691,0.03803 0.58311,0.19649 0.79861,0.47536c0.30423,0.38029 0.41198,0.77326 0.32325,1.1789c-0.07606,0.39297 -0.30423,0.67818 -0.68452,0.85565c-0.39297,0.20282 -0.79861,0.36762 -1.21693,0.49438c-0.41832,0.12676 -0.84298,0.22183 -1.27397,0.28522c-0.41832,0.07606 -0.84298,0.11409 -1.27397,0.11409c-1.09017,0 -2.12329,-0.17113 -3.09937,-0.51339c-0.97608,-0.35494 -1.85075,-0.86833 -2.62401,-1.54018c-0.76058,-0.68452 -1.36271,-1.54018 -1.80638,-2.56696c-0.43099,-1.02679 -0.64649,-2.21203 -0.64649,-3.55572c0,-1.16623 0.19649,-2.23738 0.58945,-3.21346c0.40565,-0.98876 0.97608,-1.83807 1.71131,-2.54795c0.73523,-0.72255 1.59722,-1.28665 2.58598,-1.6923c1.00143,-0.40565 2.09794,-0.60847 3.28952,-0.60847c0.65917,0 1.30566,0.07606 1.93948,0.22817c0.63382,0.15212 1.23595,0.37395 1.80638,0.66551zM187.48608,14.01634c0.36762,0 0.69086,0.1331 0.96974,0.39931c0.27888,0.2662 0.41832,0.59579 0.41832,0.98876v13.12004c0,0.39297 -0.14578,0.72255 -0.43733,0.98876c-0.29156,0.2662 -0.62114,0.39931 -0.98876,0.39931c-0.43099,0 -0.77326,-0.1331 -1.02679,-0.39931c-0.25353,-0.2662 -0.38029,-0.59579 -0.38029,-0.98876v-13.12004c0,-0.39297 0.1331,-0.72255 0.39931,-0.98876c0.27888,-0.2662 0.62748,-0.39931 1.0458,-0.39931zM197.54475,14.01634c0.41832,0 0.75424,0.1331 1.00777,0.39931c0.2662,0.2662 0.39931,0.59579 0.39931,0.98876v13.12004c0,0.39297 -0.1331,0.72255 -0.39931,0.98876c-0.2662,0.2662 -0.61481,0.39931 -1.0458,0.39931c-0.36762,0 -0.69086,-0.1331 -0.96974,-0.39931c-0.27888,-0.2662 -0.41832,-0.59579 -0.41832,-0.98876v-13.12004c0,-0.39297 0.13944,-0.72255 0.41832,-0.98876c0.29156,-0.2662 0.62748,-0.39931 1.00777,-0.39931zM187.41003,20.63337h10.13476v2.60499h-10.13476zM205.19785,28.52444c0,0.39297 -0.14578,0.72255 -0.43733,0.98876c-0.29156,0.2662 -0.62114,0.39931 -0.98876,0.39931c-0.43099,0 -0.77326,-0.1331 -1.02679,-0.39931c-0.25353,-0.2662 -0.38029,-0.59579 -0.38029,-0.98876v-13.12004c0,-0.39297 0.1331,-0.72255 0.39931,-0.98876c0.27888,-0.2662 0.62748,-0.39931 1.0458,-0.39931c0.36762,0 0.69086,0.1331 0.96974,0.39931c0.27888,0.2662 0.41832,0.59579 0.41832,0.98876zM209.97718,14.01634h7.60582c0.39297,0 0.72255,0.12676 0.98876,0.38029c0.2662,0.25353 0.39931,0.57678 0.39931,0.96974c0,0.36762 -0.1331,0.67185 -0.39931,0.9127c-0.2662,0.24085 -0.59579,0.36128 -0.98876,0.36128h-6.35086l0.20916,-0.39931v4.43039l-0.19015,-0.19015h5.32407c0.39297,0 0.71621,0.12676 0.96974,0.38029c0.2662,0.25353 0.39931,0.57678 0.39931,0.96974c0,0.38029 -0.1331,0.69086 -0.39931,0.93171c-0.25353,0.22817 -0.57678,0.34226 -0.96974,0.34226h-5.24802l0.11409,-0.19015v4.58251l-0.19015,-0.19015h6.33185c0.39297,0 0.72255,0.1331 0.98876,0.39931c0.2662,0.25353 0.39931,0.55776 0.39931,0.9127c0,0.38029 -0.1331,0.69086 -0.39931,0.93171c-0.2662,0.24085 -0.59579,0.36128 -0.98876,0.36128h-7.60582c-0.39297,0 -0.72255,-0.1331 -0.98876,-0.39931c-0.25353,-0.2662 -0.38029,-0.59579 -0.38029,-0.98876v-13.12004c0,-0.39297 0.12676,-0.72255 0.38029,-0.98876c0.2662,-0.2662 0.59579,-0.39931 0.98876,-0.39931zM233.19329,13.97831c0.38029,0 0.70988,0.12676 0.98876,0.38029c0.27888,0.24085 0.41832,0.55142 0.41832,0.93171c0,0.20282 -0.04437,0.40565 -0.1331,0.60847l-5.60929,13.12004c-0.13944,0.30423 -0.33592,0.53241 -0.58945,0.68452c-0.25353,0.13944 -0.50705,0.20916 -0.76058,0.20916c-0.24085,-0.01267 -0.47536,-0.08873 -0.70354,-0.22817c-0.22817,-0.15212 -0.39931,-0.36128 -0.51339,-0.62748l-5.60929,-13.17708c-0.0507,-0.08873 -0.0824,-0.18381 -0.09507,-0.28522c-0.01267,-0.10141 -0.01901,-0.19649 -0.01901,-0.28522c0,-0.43099 0.15846,-0.76058 0.47536,-0.98876c0.31691,-0.24085 0.62114,-0.36128 0.9127,-0.36128c0.57044,0 0.98242,0.29156 1.23595,0.87467l4.98181,11.69395l-0.79861,0.01901l4.56349,-11.71296c0.25353,-0.57044 0.67185,-0.85565 1.25496,-0.85565zM238.3564,14.01634h7.60582c0.39297,0 0.72255,0.12676 0.98876,0.38029c0.2662,0.25353 0.39931,0.57678 0.39931,0.96974c0,0.36762 -0.1331,0.67185 -0.39931,0.9127c-0.2662,0.24085 -0.59579,0.36128 -0.98876,0.36128h-6.35086l0.20916,-0.39931v4.43039l-0.19015,-0.19015h5.32407c0.39297,0 0.71621,0.12676 0.96974,0.38029c0.2662,0.25353 0.39931,0.57678 0.39931,0.96974c0,0.38029 -0.1331,0.69086 -0.39931,0.93171c-0.25353,0.22817 -0.57678,0.34226 -0.96974,0.34226h-5.24802l0.11409,-0.19015v4.58251l-0.19015,-0.19015h6.33185c0.39297,0 0.72255,0.1331 0.98876,0.39931c0.2662,0.25353 0.39931,0.55776 0.39931,0.9127c0,0.38029 -0.1331,0.69086 -0.39931,0.93171c-0.2662,0.24085 -0.59579,0.36128 -0.98876,0.36128h-7.60582c-0.39297,0 -0.72255,-0.1331 -0.98876,-0.39931c-0.25353,-0.2662 -0.38029,-0.59579 -0.38029,-0.98876v-13.12004c0,-0.39297 0.12676,-0.72255 0.38029,-0.98876c0.2662,-0.2662 0.59579,-0.39931 0.98876,-0.39931zM251.39975,13.99733c0.20282,0 0.42466,0.05704 0.66551,0.17113c0.24085,0.11409 0.41832,0.25986 0.53241,0.43733l5.51422,8.4995l-1.14087,-0.05704l5.66634,-8.44246c0.27888,-0.40565 0.64649,-0.60847 1.10284,-0.60847c0.36762,0 0.69086,0.1331 0.96974,0.39931c0.29156,0.25353 0.43733,0.58311 0.43733,0.98876v13.13905c0,0.39297 -0.12676,0.72255 -0.38029,0.98876c-0.25353,0.2662 -0.59579,0.39931 -1.02679,0.39931c-0.41832,0 -0.76058,-0.1331 -1.02679,-0.39931c-0.2662,-0.2662 -0.39931,-0.59579 -0.39931,-0.98876v-10.68618l0.89368,0.20916l-4.63955,7.0544c-0.13944,0.16479 -0.31057,0.31057 -0.51339,0.43733c-0.20282,0.11409 -0.41198,0.16479 -0.62748,0.15212c-0.19015,0.01267 -0.38663,-0.03803 -0.58945,-0.15212c-0.20282,-0.12676 -0.37395,-0.27254 -0.51339,-0.43733l-4.33532,-6.86425l0.58945,-1.19792v11.48479c0,0.39297 -0.12043,0.72255 -0.36128,0.98876c-0.24085,0.2662 -0.55776,0.39931 -0.95073,0.39931c-0.38029,0 -0.69086,-0.1331 -0.93171,-0.39931c-0.24085,-0.2662 -0.36128,-0.59579 -0.36128,-0.98876v-13.13905c0,-0.38029 0.13944,-0.70354 0.41832,-0.96974c0.27888,-0.27888 0.61481,-0.41832 1.00777,-0.41832zM269.93674,14.01634h7.60582c0.39297,0 0.72255,0.12676 0.98876,0.38029c0.2662,0.25353 0.39931,0.57678 0.39931,0.96974c0,0.36762 -0.1331,0.67185 -0.39931,0.9127c-0.2662,0.24085 -0.59579,0.36128 -0.98876,0.36128h-6.35086l0.20916,-0.39931v4.43039l-0.19015,-0.19015h5.32407c0.39297,0 0.71621,0.12676 0.96974,0.38029c0.2662,0.25353 0.39931,0.57678 0.39931,0.96974c0,0.38029 -0.1331,0.69086 -0.39931,0.93171c-0.25353,0.22817 -0.57678,0.34226 -0.96974,0.34226h-5.24802l0.11409,-0.19015v4.58251l-0.19015,-0.19015h6.33185c0.39297,0 0.72255,0.1331 0.98876,0.39931c0.2662,0.25353 0.39931,0.55776 0.39931,0.9127c0,0.38029 -0.1331,0.69086 -0.39931,0.93171c-0.2662,0.24085 -0.59579,0.36128 -0.98876,0.36128h-7.60582c-0.39297,0 -0.72255,-0.1331 -0.98876,-0.39931c-0.25353,-0.2662 -0.38029,-0.59579 -0.38029,-0.98876v-13.12004c0,-0.39297 0.12676,-0.72255 0.38029,-0.98876c0.2662,-0.2662 0.59579,-0.39931 0.98876,-0.39931zM293.60924,14.01634c0.35494,0 0.64649,0.12043 0.87467,0.36128c0.22817,0.24085 0.34226,0.54508 0.34226,0.9127v13.23413c0,0.39297 -0.1331,0.72255 -0.39931,0.98876c-0.2662,0.2662 -0.59579,0.39931 -0.98876,0.39931c-0.19015,0 -0.39297,-0.03169 -0.60847,-0.09507c-0.20282,-0.07606 -0.35494,-0.17113 -0.45635,-0.28522l-8.91782,-11.33267l0.58945,-0.36128v10.80026c0,0.36762 -0.12043,0.67185 -0.36128,0.9127c-0.22817,0.24085 -0.53241,0.36128 -0.9127,0.36128c-0.36762,0 -0.66551,-0.12043 -0.89368,-0.36128c-0.2155,-0.24085 -0.32325,-0.54508 -0.32325,-0.9127v-13.23413c0,-0.39297 0.12676,-0.72255 0.38029,-0.98876c0.2662,-0.2662 0.59579,-0.39931 0.98876,-0.39931c0.2155,0 0.43733,0.04437 0.66551,0.1331c0.22817,0.07606 0.39297,0.19649 0.49438,0.36128l8.65162,11.04745l-0.38029,0.2662v-10.53406c0,-0.36762 0.11409,-0.67185 0.34226,-0.9127c0.22817,-0.24085 0.53241,-0.36128 0.9127,-0.36128zM303.62212,29.91249c-0.43099,0 -0.78594,-0.1331 -1.06481,-0.39931c-0.2662,-0.2662 -0.39931,-0.59579 -0.39931,-0.98876v-13.15807h2.94726v13.15807c0,0.39297 -0.13944,0.72255 -0.41832,0.98876c-0.27888,0.2662 -0.63382,0.39931 -1.06481,0.39931zM298.60227,16.6403c-0.39297,0 -0.72255,-0.12043 -0.98876,-0.36128c-0.2662,-0.25353 -0.39931,-0.57678 -0.39931,-0.96974c0,-0.39297 0.1331,-0.70354 0.39931,-0.93171c0.2662,-0.24085 0.59579,-0.36128 0.98876,-0.36128h10.07771c0.39297,0 0.72255,0.12043 0.98876,0.36128c0.2662,0.24085 0.39931,0.55776 0.39931,0.95073c0,0.39297 -0.1331,0.70988 -0.39931,0.95073c-0.2662,0.24085 -0.59579,0.36128 -0.98876,0.36128zM317.54922,30.14068c-1.05214,0 -2.00287,-0.1331 -2.85218,-0.39931c-0.84931,-0.2662 -1.66061,-0.72889 -2.43386,-1.38806c-0.20282,-0.17747 -0.35494,-0.36762 -0.45635,-0.57044c-0.10141,-0.2155 -0.15212,-0.43099 -0.15212,-0.64649c0,-0.34226 0.12043,-0.64649 0.36128,-0.9127c0.25353,-0.2662 0.57044,-0.39931 0.95073,-0.39931c0.29156,0 0.55142,0.08873 0.7796,0.2662c0.57044,0.46902 1.14087,0.8303 1.71131,1.08383c0.57044,0.24085 1.26763,0.36128 2.0916,0.36128c0.55776,0 1.07116,-0.08873 1.54018,-0.2662c0.46902,-0.17747 0.84931,-0.41198 1.14087,-0.70354c0.29156,-0.29156 0.43733,-0.62748 0.43733,-1.00777c0,-0.45635 -0.13944,-0.84298 -0.41832,-1.15989c-0.2662,-0.31691 -0.68452,-0.58311 -1.25496,-0.79861c-0.55776,-0.22817 -1.26763,-0.39931 -2.12963,-0.51339c-0.81129,-0.12676 -1.5275,-0.31057 -2.14864,-0.55142c-0.62114,-0.25353 -1.14087,-0.57044 -1.55919,-0.95073c-0.41832,-0.39297 -0.73523,-0.84931 -0.95073,-1.36905c-0.20282,-0.53241 -0.30423,-1.12186 -0.30423,-1.76835c0,-0.98876 0.25353,-1.8254 0.76058,-2.50992c0.50705,-0.6972 1.19158,-1.22961 2.05357,-1.59722c0.86199,-0.36762 1.81272,-0.55142 2.85218,-0.55142c0.98876,0 1.90146,0.15212 2.7381,0.45635c0.84931,0.29156 1.53384,0.66551 2.05357,1.12186c0.44367,0.34226 0.66551,0.74157 0.66551,1.19792c0,0.32959 -0.1331,0.63382 -0.39931,0.9127c-0.25353,0.2662 -0.55142,0.39931 -0.89368,0.39931c-0.22817,0 -0.43099,-0.06972 -0.60847,-0.20916c-0.24085,-0.20282 -0.57044,-0.39931 -0.98876,-0.58945c-0.40565,-0.19015 -0.83664,-0.3486 -1.29299,-0.47536c-0.45635,-0.12676 -0.88101,-0.19015 -1.27397,-0.19015c-0.64649,0 -1.19158,0.0824 -1.63525,0.24719c-0.44367,0.16479 -0.7796,0.39297 -1.00777,0.68452c-0.22817,0.27888 -0.34226,0.60847 -0.34226,0.98876c0,0.45635 0.1331,0.8303 0.39931,1.12186c0.2662,0.29156 0.64649,0.52607 1.14087,0.70354c0.49438,0.17747 1.09017,0.33592 1.78737,0.47536c0.9127,0.16479 1.71131,0.36128 2.39583,0.58945c0.6972,0.22817 1.26763,0.51973 1.71131,0.87467c0.45635,0.35494 0.79861,0.79861 1.02679,1.33102c0.22817,0.53241 0.34226,1.18524 0.34226,1.9585c0,0.98876 -0.27254,1.83807 -0.81763,2.54795c-0.54508,0.70988 -1.2613,1.25496 -2.14864,1.63525c-0.88734,0.38029 -1.84441,0.57044 -2.8712,0.57044zM333.18183,24.30319c-0.40565,0 -0.74157,-0.12676 -1.00777,-0.38029c-0.25353,-0.2662 -0.38029,-0.59579 -0.38029,-0.98876c0,-0.39297 0.12676,-0.70988 0.38029,-0.95073c0.2662,-0.25353 0.60213,-0.38029 1.00777,-0.38029h3.93601c0.39297,0 0.72255,0.1331 0.98876,0.39931c0.2662,0.2662 0.39931,0.59579 0.39931,0.98876c0,0.38029 -0.1331,0.6972 -0.39931,0.95073c-0.2662,0.24085 -0.59579,0.36128 -0.98876,0.36128z" fill="#e4e4e4" stroke="none" stroke-width="1" stroke-linecap="square"/><path d="M396.75001,39.2144h-313.5" fill="none" stroke="#e4e4e4" stroke-width="3" stroke-linecap="round"/><path d="M157.99497,316.73381c-0.35417,0 -0.64062,-0.10937 -0.85937,-0.32812c-0.20833,-0.21875 -0.3125,-0.48958 -0.3125,-0.8125v-10.78125c0,-0.32292 0.10417,-0.59375 0.3125,-0.8125c0.21875,-0.21875 0.48958,-0.32812 0.8125,-0.32812h6.06252c0.32292,0 0.59375,0.10417 0.8125,0.3125c0.21875,0.20833 0.32813,0.47396 0.32813,0.79688c0,0.27083 -0.10937,0.51563 -0.32812,0.73438c-0.21875,0.20833 -0.48958,0.3125 -0.8125,0.3125h-5.03127l0.17188,-0.23437v3.75l-0.14062,-0.23437h4.17189c0.32292,0 0.59375,0.10417 0.8125,0.3125c0.21875,0.19792 0.32813,0.45833 0.32813,0.78125c0,0.27083 -0.10937,0.51563 -0.32812,0.73438c-0.21875,0.20833 -0.48958,0.3125 -0.8125,0.3125h-4.20314l0.17188,-0.17187v4.51563c0,0.32292 -0.11458,0.59375 -0.34375,0.8125c-0.22917,0.21875 -0.5,0.32813 -0.8125,0.32813zM169.63604,315.59319c0,0.32292 -0.11979,0.59375 -0.35937,0.8125c-0.23958,0.21875 -0.51042,0.32813 -0.8125,0.32813c-0.35417,0 -0.63542,-0.10937 -0.84375,-0.32812c-0.20833,-0.21875 -0.3125,-0.48958 -0.3125,-0.8125v-10.78125c0,-0.32292 0.10938,-0.59375 0.32813,-0.8125c0.22917,-0.21875 0.51563,-0.32812 0.85938,-0.32812c0.30208,0 0.56771,0.10938 0.79688,0.32813c0.22917,0.21875 0.34375,0.48958 0.34375,0.8125zM182.34463,303.67131c0.29167,0 0.53125,0.09896 0.71875,0.29688c0.1875,0.19792 0.28125,0.44792 0.28125,0.75v10.875c0,0.32292 -0.10937,0.59375 -0.32812,0.8125c-0.21875,0.21875 -0.48958,0.32813 -0.8125,0.32813c-0.15625,0 -0.32292,-0.02604 -0.5,-0.07812c-0.16667,-0.0625 -0.29167,-0.14062 -0.375,-0.23437l-7.32812,-9.3125l0.48438,-0.29687v8.875c0,0.30208 -0.09896,0.55208 -0.29687,0.75c-0.1875,0.19792 -0.4375,0.29688 -0.75,0.29688c-0.30208,0 -0.54687,-0.09896 -0.73437,-0.29687c-0.17708,-0.19792 -0.26562,-0.44792 -0.26562,-0.75v-10.875c0,-0.32292 0.10417,-0.59375 0.3125,-0.8125c0.21875,-0.21875 0.48958,-0.32812 0.8125,-0.32812c0.17708,0 0.35938,0.03646 0.54688,0.10938c0.1875,0.0625 0.32292,0.16146 0.40625,0.29688l7.10938,9.07813l-0.3125,0.21875v-8.65625c0,-0.30208 0.09375,-0.55208 0.28125,-0.75c0.1875,-0.19792 0.4375,-0.29687 0.75,-0.29687zM191.74447,303.67131c0.89583,0 1.6875,0.17188 2.375,0.51563c0.69792,0.33333 1.28646,0.80208 1.76563,1.40625c0.47917,0.59375 0.83854,1.28646 1.07813,2.07813c0.25,0.79167 0.375,1.63542 0.375,2.53125c0,1.20833 -0.21875,2.30729 -0.65625,3.29688c-0.4375,0.98958 -1.06771,1.77604 -1.89062,2.35938c-0.82292,0.58333 -1.83854,0.875 -3.04687,0.875h-4.46875c-0.32292,0 -0.59375,-0.10937 -0.8125,-0.32812c-0.20833,-0.21875 -0.3125,-0.48958 -0.3125,-0.8125v-10.78125c0,-0.32292 0.10417,-0.59375 0.3125,-0.8125c0.21875,-0.21875 0.48958,-0.32812 0.8125,-0.32812zM191.55697,314.59319c0.78125,0 1.42188,-0.20312 1.92188,-0.60937c0.5,-0.40625 0.86458,-0.94271 1.09375,-1.60937c0.22917,-0.66667 0.34375,-1.39062 0.34375,-2.17187c0,-0.58333 -0.06771,-1.14062 -0.20312,-1.67187c-0.125,-0.53125 -0.32812,-0.99479 -0.60937,-1.39062c-0.27083,-0.40625 -0.61979,-0.72396 -1.04687,-0.95312c-0.41667,-0.23958 -0.91667,-0.35937 -1.5,-0.35937h-3.26562l0.1875,-0.17187v9.14063l-0.10937,-0.20312zM209.13558,316.73381c-0.35417,0 -0.64583,-0.10937 -0.875,-0.32812c-0.21875,-0.21875 -0.32812,-0.48958 -0.32812,-0.8125v-10.8125h2.42188v10.8125c0,0.32292 -0.11458,0.59375 -0.34375,0.8125c-0.22917,0.21875 -0.52083,0.32813 -0.875,0.32813zM205.01058,305.82756c-0.32292,0 -0.59375,-0.09896 -0.8125,-0.29687c-0.21875,-0.20833 -0.32812,-0.47396 -0.32812,-0.79687c0,-0.32292 0.10938,-0.57812 0.32813,-0.76562c0.21875,-0.19792 0.48958,-0.29687 0.8125,-0.29687h8.28125c0.32292,0 0.59375,0.09896 0.8125,0.29688c0.21875,0.19792 0.32813,0.45833 0.32813,0.78125c0,0.32292 -0.10937,0.58333 -0.32812,0.78125c-0.21875,0.19792 -0.48958,0.29688 -0.8125,0.29688zM217.58001,303.67131c0.30208,0 0.56771,0.10938 0.79688,0.32813c0.22917,0.21875 0.34375,0.48958 0.34375,0.8125v10.78125c0,0.32292 -0.11979,0.59375 -0.35937,0.8125c-0.23958,0.21875 -0.51042,0.32813 -0.8125,0.32813c-0.35417,0 -0.63542,-0.10937 -0.84375,-0.32812c-0.20833,-0.21875 -0.3125,-0.48958 -0.3125,-0.8125v-10.78125c0,-0.32292 0.10938,-0.59375 0.32813,-0.8125c0.22917,-0.21875 0.51563,-0.32812 0.85938,-0.32812zM225.84563,303.67131c0.34375,0 0.61979,0.10938 0.82813,0.32813c0.21875,0.21875 0.32813,0.48958 0.32813,0.8125v10.78125c0,0.32292 -0.10937,0.59375 -0.32812,0.8125c-0.21875,0.21875 -0.50521,0.32813 -0.85937,0.32813c-0.30208,0 -0.56771,-0.10937 -0.79687,-0.32812c-0.22917,-0.21875 -0.34375,-0.48958 -0.34375,-0.8125v-10.78125c0,-0.32292 0.11458,-0.59375 0.34375,-0.8125c0.23958,-0.21875 0.51563,-0.32812 0.82813,-0.32812zM217.51751,309.10881h8.32813v2.14063h-8.32812zM230.93136,303.67131h6.25c0.32292,0 0.59375,0.10417 0.8125,0.3125c0.21875,0.20833 0.32813,0.47396 0.32813,0.79688c0,0.30208 -0.10937,0.55208 -0.32812,0.75c-0.21875,0.19792 -0.48958,0.29688 -0.8125,0.29688h-5.21875l0.17188,-0.32812v3.64063l-0.15625,-0.15625h4.375c0.32292,0 0.58854,0.10417 0.79688,0.3125c0.21875,0.20833 0.32813,0.47396 0.32813,0.79688c0,0.3125 -0.10937,0.56771 -0.32812,0.76563c-0.20833,0.1875 -0.47396,0.28125 -0.79687,0.28125h-4.3125l0.09375,-0.15625v3.76563l-0.15625,-0.15625h5.20313c0.32292,0 0.59375,0.10938 0.8125,0.32813c0.21875,0.20833 0.32813,0.45833 0.32813,0.75c0,0.3125 -0.10937,0.56771 -0.32812,0.76563c-0.21875,0.19792 -0.48958,0.29688 -0.8125,0.29688h-6.25c-0.32292,0 -0.59375,-0.10937 -0.8125,-0.32812c-0.20833,-0.21875 -0.3125,-0.48958 -0.3125,-0.8125v-10.78125c0,-0.32292 0.10417,-0.59375 0.3125,-0.8125c0.21875,-0.21875 0.48958,-0.32812 0.8125,-0.32812zM254.84212,304.31194c0.32292,0.15625 0.51042,0.41146 0.5625,0.76563c0.05208,0.34375 -0.03646,0.66146 -0.26562,0.95313c-0.16667,0.21875 -0.38021,0.34375 -0.64062,0.375c-0.25,0.02083 -0.50521,-0.03125 -0.76562,-0.15625c-0.29167,-0.13542 -0.60417,-0.23958 -0.9375,-0.3125c-0.33333,-0.07292 -0.67708,-0.10937 -1.03125,-0.10937c-0.67708,0 -1.28125,0.10417 -1.8125,0.3125c-0.52083,0.20833 -0.96875,0.51042 -1.34375,0.90625c-0.375,0.38542 -0.66146,0.84896 -0.85937,1.39063c-0.1875,0.53125 -0.28125,1.11979 -0.28125,1.76563c0,0.76042 0.10938,1.42188 0.32813,1.98438c0.21875,0.55208 0.52083,1.01563 0.90625,1.39063c0.38542,0.375 0.83854,0.65625 1.35938,0.84375c0.52083,0.17708 1.08854,0.26563 1.70313,0.26563c0.33333,0 0.66667,-0.03125 1,-0.09375c0.33333,-0.0625 0.65625,-0.17708 0.96875,-0.34375c0.26042,-0.125 0.51563,-0.16667 0.76563,-0.125c0.26042,0.03125 0.47917,0.16146 0.65625,0.39063c0.25,0.3125 0.33854,0.63542 0.26563,0.96875c-0.0625,0.32292 -0.25,0.55729 -0.5625,0.70313c-0.32292,0.16667 -0.65625,0.30208 -1,0.40625c-0.34375,0.10417 -0.69271,0.18229 -1.04687,0.23438c-0.34375,0.0625 -0.69271,0.09375 -1.04687,0.09375c-0.89583,0 -1.74479,-0.14062 -2.54687,-0.42187c-0.80208,-0.29167 -1.52083,-0.71354 -2.15625,-1.26562c-0.625,-0.5625 -1.11979,-1.26562 -1.48437,-2.10937c-0.35417,-0.84375 -0.53125,-1.81771 -0.53125,-2.92187c0,-0.95833 0.16146,-1.83854 0.48438,-2.64062c0.33333,-0.8125 0.80208,-1.51042 1.40625,-2.09375c0.60417,-0.59375 1.3125,-1.05729 2.125,-1.39062c0.82292,-0.33333 1.72396,-0.5 2.70313,-0.5c0.54167,0 1.07292,0.0625 1.59375,0.1875c0.52083,0.125 1.01563,0.30729 1.48438,0.54688zM269.39896,310.20256c0,0.9375 -0.15625,1.8125 -0.46875,2.625c-0.30208,0.80208 -0.73958,1.51042 -1.3125,2.125c-0.5625,0.61458 -1.23437,1.09896 -2.01562,1.45313c-0.77083,0.34375 -1.61458,0.51563 -2.53125,0.51563c-0.92708,0 -1.77604,-0.17187 -2.54687,-0.51562c-0.77083,-0.35417 -1.44271,-0.83854 -2.01562,-1.45312c-0.5625,-0.61458 -1,-1.32292 -1.3125,-2.125c-0.30208,-0.8125 -0.45312,-1.6875 -0.45312,-2.625c0,-0.92708 0.15104,-1.79687 0.45313,-2.60937c0.3125,-0.8125 0.75,-1.52604 1.3125,-2.14062c0.57292,-0.61458 1.24479,-1.09375 2.01563,-1.4375c0.77083,-0.35417 1.61979,-0.53125 2.54688,-0.53125c0.91667,0 1.76042,0.17708 2.53125,0.53125c0.78125,0.34375 1.45313,0.82292 2.01563,1.4375c0.57292,0.61458 1.01042,1.32813 1.3125,2.14063c0.3125,0.8125 0.46875,1.68229 0.46875,2.60938zM266.97708,310.20256c0,-0.83333 -0.16667,-1.58854 -0.5,-2.26562c-0.33333,-0.67708 -0.79167,-1.21354 -1.375,-1.60937c-0.58333,-0.39583 -1.26042,-0.59375 -2.03125,-0.59375c-0.78125,0 -1.46354,0.19792 -2.04687,0.59375c-0.58333,0.39583 -1.04167,0.93229 -1.375,1.60938c-0.32292,0.66667 -0.48437,1.42188 -0.48437,2.26563c0,0.83333 0.16146,1.58854 0.48438,2.26563c0.33333,0.67708 0.79167,1.21875 1.375,1.625c0.58333,0.39583 1.26563,0.59375 2.04688,0.59375c0.77083,0 1.44792,-0.19792 2.03125,-0.59375c0.58333,-0.40625 1.04167,-0.94792 1.375,-1.625c0.33333,-0.67708 0.5,-1.43229 0.5,-2.26562zM278.74654,314.54631c0.32292,0 0.59375,0.10417 0.8125,0.3125c0.21875,0.20833 0.32813,0.47396 0.32813,0.79688c0,0.3125 -0.10937,0.57292 -0.32812,0.78125c-0.21875,0.19792 -0.48958,0.29688 -0.8125,0.29688h-6.0625c-0.32292,0 -0.59375,-0.10937 -0.8125,-0.32812c-0.20833,-0.21875 -0.3125,-0.48958 -0.3125,-0.8125v-10.78125c0,-0.32292 0.10938,-0.59375 0.32813,-0.8125c0.22917,-0.21875 0.51563,-0.32812 0.85938,-0.32812c0.30208,0 0.56771,0.10938 0.79688,0.32813c0.22917,0.21875 0.34375,0.48958 0.34375,0.8125v10.0625l-0.40625,-0.32812zM293.85721,310.20256c0,0.9375 -0.15625,1.8125 -0.46875,2.625c-0.30208,0.80208 -0.73958,1.51042 -1.3125,2.125c-0.5625,0.61458 -1.23437,1.09896 -2.01562,1.45313c-0.77083,0.34375 -1.61458,0.51563 -2.53125,0.51563c-0.92708,0 -1.77604,-0.17187 -2.54687,-0.51562c-0.77083,-0.35417 -1.44271,-0.83854 -2.01562,-1.45312c-0.5625,-0.61458 -1,-1.32292 -1.3125,-2.125c-0.30208,-0.8125 -0.45312,-1.6875 -0.45312,-2.625c0,-0.92708 0.15104,-1.79687 0.45313,-2.60937c0.3125,-0.8125 0.75,-1.52604 1.3125,-2.14062c0.57292,-0.61458 1.24479,-1.09375 2.01563,-1.4375c0.77083,-0.35417 1.61979,-0.53125 2.54688,-0.53125c0.91667,0 1.76042,0.17708 2.53125,0.53125c0.78125,0.34375 1.45313,0.82292 2.01563,1.4375c0.57292,0.61458 1.01042,1.32813 1.3125,2.14063c0.3125,0.8125 0.46875,1.68229 0.46875,2.60938zM291.43533,310.20256c0,-0.83333 -0.16667,-1.58854 -0.5,-2.26562c-0.33333,-0.67708 -0.79167,-1.21354 -1.375,-1.60937c-0.58333,-0.39583 -1.26042,-0.59375 -2.03125,-0.59375c-0.78125,0 -1.46354,0.19792 -2.04687,0.59375c-0.58333,0.39583 -1.04167,0.93229 -1.375,1.60938c-0.32292,0.66667 -0.48437,1.42188 -0.48437,2.26563c0,0.83333 0.16146,1.58854 0.48438,2.26563c0.33333,0.67708 0.79167,1.21875 1.375,1.625c0.58333,0.39583 1.26563,0.59375 2.04688,0.59375c0.77083,0 1.44792,-0.19792 2.03125,-0.59375c0.58333,-0.40625 1.04167,-0.94792 1.375,-1.625c0.33333,-0.67708 0.5,-1.43229 0.5,-2.26562zM305.92355,303.67131c0.29167,0 0.53125,0.09896 0.71875,0.29688c0.1875,0.19792 0.28125,0.44792 0.28125,0.75v10.875c0,0.32292 -0.10937,0.59375 -0.32812,0.8125c-0.21875,0.21875 -0.48958,0.32813 -0.8125,0.32813c-0.15625,0 -0.32292,-0.02604 -0.5,-0.07812c-0.16667,-0.0625 -0.29167,-0.14062 -0.375,-0.23437l-7.32812,-9.3125l0.48438,-0.29687v8.875c0,0.30208 -0.09896,0.55208 -0.29687,0.75c-0.1875,0.19792 -0.4375,0.29688 -0.75,0.29688c-0.30208,0 -0.54687,-0.09896 -0.73437,-0.29687c-0.17708,-0.19792 -0.26562,-0.44792 -0.26562,-0.75v-10.875c0,-0.32292 0.10417,-0.59375 0.3125,-0.8125c0.21875,-0.21875 0.48958,-0.32812 0.8125,-0.32812c0.17708,0 0.35938,0.03646 0.54688,0.10938c0.1875,0.0625 0.32292,0.16146 0.40625,0.29688l7.10938,9.07813l-0.3125,0.21875v-8.65625c0,-0.30208 0.09375,-0.55208 0.28125,-0.75c0.1875,-0.19792 0.4375,-0.29687 0.75,-0.29687zM318.04215,303.62444c0.29167,0 0.55208,0.10938 0.78125,0.32813c0.22917,0.20833 0.34375,0.48438 0.34375,0.82813c0,0.10417 -0.01562,0.21875 -0.04687,0.34375c-0.03125,0.11458 -0.08333,0.22917 -0.15625,0.34375l-4.23437,6.0625l0.32813,-1.29687v5.35938c0,0.32292 -0.10937,0.59375 -0.32812,0.8125c-0.21875,0.21875 -0.46875,0.32813 -0.75,0.32813c-0.3125,0 -0.57812,-0.10937 -0.79687,-0.32812c-0.21875,-0.21875 -0.32812,-0.48958 -0.32812,-0.8125v-5.20312l0.15625,0.59375l-4.03125,-5.34375c-0.125,-0.16667 -0.21354,-0.32292 -0.26562,-0.46875c-0.05208,-0.15625 -0.07812,-0.29687 -0.07812,-0.42187c0,-0.33333 0.13021,-0.60417 0.39063,-0.8125c0.26042,-0.20833 0.53125,-0.3125 0.8125,-0.3125c0.34375,0 0.64583,0.17188 0.90625,0.51563l3.57813,4.9375l-0.51562,-0.0625l3.29688,-4.84375c0.26042,-0.36458 0.57292,-0.54687 0.9375,-0.54687zM321.94254,312.60881c-0.42708,0 -0.65625,-0.23437 -0.6875,-0.70312l-0.54687,-6.875c-0.02083,-0.38542 0.08333,-0.70833 0.3125,-0.96875c0.22917,-0.26042 0.53125,-0.39062 0.90625,-0.39062c0.375,0 0.67708,0.13021 0.90625,0.39063c0.23958,0.26042 0.33854,0.58333 0.29688,0.96875l-0.51562,6.875c-0.04167,0.46875 -0.26562,0.70313 -0.67187,0.70313zM321.81754,316.73381c-0.36458,0 -0.64583,-0.09375 -0.84375,-0.28125c-0.1875,-0.19792 -0.28125,-0.47917 -0.28125,-0.84375v-0.3125c0,-0.36458 0.09375,-0.64062 0.28125,-0.82812c0.19792,-0.19792 0.47917,-0.29687 0.84375,-0.29687h0.23438c0.36458,0 0.64063,0.09896 0.82813,0.29688c0.19792,0.1875 0.29688,0.46354 0.29688,0.82813v0.3125c0,0.36458 -0.09896,0.64583 -0.29687,0.84375c-0.1875,0.1875 -0.46354,0.28125 -0.82812,0.28125z" fill="#e4e4e4" stroke="none" stroke-width="1" stroke-linecap="square"/></g></g></svg>