<svg version="1.1" xmlns="http://www.w3.org/2000/svg" xmlns:xlink="http://www.w3.org/1999/xlink" width="47.38702" height="13.99997" viewBox="0,0,47.38702,13.99997"><g transform="translate(-196.92579,-172.7688)"><g data-paper-data="{&quot;isPaintingLayer&quot;:true}" fill="#f0f0f0" fill-rule="nonzero" stroke="none" stroke-linejoin="miter" stroke-miterlimit="10" stroke-dasharray="" stroke-dashoffset="0" style="mix-blend-mode: normal"><path d="M228.01473,183.03033v-6.0606h16.29808v6.0606z" stroke-width="0" stroke-linecap="butt"/><path d="M220.45948,182.95626c0,0.57292 -0.08333,1.09375 -0.25,1.5625c-0.16667,0.46875 -0.45833,0.86979 -0.875,1.20313c-0.41667,0.33333 -1,0.58854 -1.75,0.76563c-0.73958,0.1875 -1.67708,0.28125 -2.8125,0.28125c-1.14583,0 -2.09375,-0.09375 -2.84375,-0.28125c-0.75,-0.17708 -1.33333,-0.43229 -1.75,-0.76562c-0.41667,-0.33333 -0.70833,-0.73437 -0.875,-1.20312c-0.16667,-0.46875 -0.25,-0.98958 -0.25,-1.5625v-6.35937c0,-0.57292 0.08333,-1.08854 0.25,-1.54687c0.16667,-0.46875 0.45833,-0.86979 0.875,-1.20312c0.41667,-0.34375 1,-0.60937 1.75,-0.79687c0.75,-0.1875 1.69792,-0.28125 2.84375,-0.28125c1.13542,0 2.07292,0.09375 2.8125,0.28125c0.75,0.1875 1.33333,0.45313 1.75,0.79688c0.41667,0.33333 0.70833,0.73438 0.875,1.20313c0.16667,0.45833 0.25,0.97396 0.25,1.54688zM213.27198,182.28439c0,0.25 0.08854,0.45833 0.26563,0.625c0.1875,0.16667 0.59896,0.25 1.23438,0.25c0.64583,0 1.05208,-0.08333 1.21875,-0.25c0.17708,-0.16667 0.26563,-0.375 0.26563,-0.625v-5.01562c0,-0.25 -0.08854,-0.45312 -0.26562,-0.60937c-0.16667,-0.16667 -0.57292,-0.25 -1.21875,-0.25c-0.63542,0 -1.04687,0.08333 -1.23437,0.25c-0.17708,0.15625 -0.26562,0.35938 -0.26562,0.60938z" stroke-width="1" stroke-linecap="square"/><path d="M206.47266,186.48746h-8.875c-0.44792,0 -0.67187,-0.22396 -0.67187,-0.67187v-3.20312c0,-0.96875 0.125,-1.71354 0.375,-2.23437c0.25,-0.53125 0.59375,-0.92708 1.03125,-1.1875c0.4375,-0.27083 0.94271,-0.49479 1.51563,-0.67187l2.5,-0.78125c0.19792,-0.0625 0.32813,-0.14062 0.39063,-0.23437c0.07292,-0.09375 0.10938,-0.23958 0.10938,-0.4375c0,-0.1875 -0.03646,-0.3125 -0.10937,-0.375c-0.07292,-0.07292 -0.20312,-0.10937 -0.39062,-0.10937h-4.04687c-0.44792,0 -0.67187,-0.22396 -0.67187,-0.67187v-2.1875c0,-0.44792 0.22396,-0.67187 0.67188,-0.67187h5.5c1.07292,0 1.88542,0.26563 2.4375,0.79688c0.5625,0.53125 0.84375,1.30208 0.84375,2.3125v1.75c0,0.94792 -0.26042,1.66667 -0.78125,2.15625c-0.51042,0.47917 -1.21875,0.85938 -2.125,1.14063l-2.53125,0.79688c-0.1875,0.05208 -0.31771,0.10938 -0.39062,0.17188c-0.0625,0.05208 -0.09375,0.18229 -0.09375,0.39063v0.39063h5.3125c0.44792,0 0.67188,0.22396 0.67188,0.67188v2.1875c0,0.44792 -0.22396,0.67188 -0.67187,0.67188z" stroke-width="1" stroke-linecap="square"/></g></g></svg>