<svg version="1.1" xmlns="http://www.w3.org/2000/svg" xmlns:xlink="http://www.w3.org/1999/xlink" width="503" height="350.09529" viewBox="0,0,503,350.09529"><defs><radialGradient cx="66.56668" cy="310.2025" r="35.90864" gradientUnits="userSpaceOnUse" id="color-1"><stop offset="0" stop-color="#f1f1f1" stop-opacity="0.09539"/><stop offset="1" stop-color="#f1f1f1" stop-opacity="0"/></radialGradient><linearGradient x1="247.75" y1="-0.78566" x2="247.75" y2="56.21437" gradientUnits="userSpaceOnUse" id="color-2"><stop offset="0" stop-color="#0a0d10"/><stop offset="1" stop-color="#0a0d10" stop-opacity="0"/></linearGradient><radialGradient cx="412.50814" cy="310.2025" r="35.90864" gradientUnits="userSpaceOnUse" id="color-3"><stop offset="0" stop-color="#f1f1f1" stop-opacity="0.09539"/><stop offset="1" stop-color="#f1f1f1" stop-opacity="0"/></radialGradient></defs><g transform="translate(3.75,0.78563)"><g data-paper-data="{&quot;isPaintingLayer&quot;:true}" fill-rule="nonzero" stroke-linejoin="miter" stroke-miterlimit="10" stroke-dasharray="" stroke-dashoffset="0" style="mix-blend-mode: normal"><path d="M25.17857,336.45757c0,-10.82538 0,-26.43947 0,-38.55634c0,-6.65168 0,-9.67903 0,-12.85211c0,-8.08964 6.65171,-13.95373 14.30345,-13.95373c37.65105,0 323.32588,0 397.68882,0c11.23853,0 17.65059,9.26501 17.65059,16.52415c0,7.69349 0,25.50772 0,40.02514c0,11.94926 -6.41187,21.66499 -17.65059,21.66499c-74.45439,0 -360.74987,0 -398.03614,0c-7.86328,0 -13.95612,-5.24314 -13.95612,-12.85211z" fill="#0a0d10" stroke="none" stroke-width="0" stroke-linecap="butt"/><path d="M30.65804,310.2025c0,-19.8318 16.07685,-35.90864 35.90864,-35.90864c19.8318,0 35.90864,16.07684 35.90864,35.90864c0,19.8318 -16.07685,35.90864 -35.90864,35.90864c-19.8318,0 -35.90864,-16.07685 -35.90864,-35.90864z" fill="url(#color-1)" stroke="none" stroke-width="0" stroke-linecap="butt"/><path d="M86.91369,286.56138c0,0 -3.86851,-1.32304 -5.17364,-0.74797c-1.46518,0.64558 -3.19297,4.43442 -3.19297,4.43442c0,0 1.32317,-3.86818 0.70328,-5.27506c-0.60872,-1.38153 -4.38972,-3.09156 -4.38972,-3.09156c0,0 4.02233,1.07597 5.49379,0.42763c1.29472,-0.57047 2.87283,-4.11407 2.87283,-4.11407c0,0 -0.93715,3.78231 -0.30365,5.22008c0.59258,1.34491 3.9901,3.14654 3.9901,3.14654z" fill="#ffffff" stroke="none" stroke-width="0" stroke-linecap="butt"/><path d="M-3.75,56.21437v-57h503v57z" fill="url(#color-2)" stroke="none" stroke-width="0" stroke-linecap="butt"/><path d="M142.88218,24.30314c-0.40565,0 -0.74157,-0.12676 -1.00777,-0.38029c-0.25353,-0.2662 -0.38029,-0.59579 -0.38029,-0.98876c0,-0.39297 0.12676,-0.70988 0.38029,-0.95073c0.2662,-0.25353 0.60213,-0.38029 1.00777,-0.38029h3.93601c0.39297,0 0.72255,0.1331 0.98876,0.39931c0.2662,0.2662 0.39931,0.59579 0.39931,0.98876c0,0.38029 -0.1331,0.6972 -0.39931,0.95073c-0.2662,0.24085 -0.59579,0.36128 -0.98876,0.36128zM163.2305,17.591l-4.88674,11.52282c-0.11409,0.29156 -0.27888,0.51973 -0.49438,0.68452c-0.2155,0.15212 -0.45635,0.22817 -0.72255,0.22817c-0.40565,0 -0.70988,-0.11409 -0.9127,-0.34226c-0.19015,-0.22817 -0.28522,-0.50705 -0.28522,-0.83664c0,-0.13944 0.02535,-0.28522 0.07606,-0.43733l5.64732,-13.57639c0.11409,-0.30423 0.29789,-0.53875 0.55142,-0.70354c0.25353,-0.16479 0.51973,-0.23451 0.79861,-0.20916c0.27888,0 0.53241,0.0824 0.76058,0.24719c0.24085,0.15212 0.41198,0.37395 0.51339,0.66551l5.59028,13.31019c0.07606,0.19015 0.11409,0.37395 0.11409,0.55142c0,0.40565 -0.1331,0.72889 -0.39931,0.96974c-0.2662,0.24085 -0.55776,0.36128 -0.87467,0.36128c-0.2662,0 -0.51339,-0.0824 -0.74157,-0.24719c-0.2155,-0.16479 -0.38663,-0.39297 -0.51339,-0.68452l-4.86772,-11.3707zM159.0473,26.35672l1.23595,-2.62401h6.1417l0.41832,2.62401zM182.92942,14.79587c0.39297,0.19015 0.62114,0.50072 0.68452,0.93171c0.06338,0.41832 -0.04437,0.80495 -0.32325,1.15989c-0.20282,0.2662 -0.46269,0.41832 -0.7796,0.45635c-0.30423,0.02535 -0.61481,-0.03803 -0.93171,-0.19015c-0.35494,-0.16479 -0.73523,-0.29156 -1.14087,-0.38029c-0.40565,-0.08873 -0.82397,-0.1331 -1.25496,-0.1331c-0.82397,0 -1.55919,0.12676 -2.20569,0.38029c-0.63382,0.25353 -1.1789,0.62114 -1.63525,1.10284c-0.45635,0.46902 -0.80495,1.03313 -1.0458,1.6923c-0.22817,0.64649 -0.34226,1.36271 -0.34226,2.14864c0,0.92537 0.1331,1.73032 0.39931,2.41485c0.2662,0.67185 0.63382,1.23595 1.10284,1.6923c0.46902,0.45635 1.02045,0.79861 1.65427,1.02679c0.63382,0.2155 1.32468,0.32325 2.07259,0.32325c0.40565,0 0.81129,-0.03803 1.21693,-0.11409c0.40565,-0.07606 0.79861,-0.2155 1.1789,-0.41832c0.31691,-0.15212 0.62748,-0.20282 0.93171,-0.15212c0.31691,0.03803 0.58311,0.19649 0.79861,0.47536c0.30423,0.38029 0.41198,0.77326 0.32325,1.1789c-0.07606,0.39297 -0.30423,0.67818 -0.68452,0.85565c-0.39297,0.20282 -0.79861,0.36762 -1.21693,0.49438c-0.41832,0.12676 -0.84298,0.22183 -1.27397,0.28522c-0.41832,0.07606 -0.84298,0.11409 -1.27397,0.11409c-1.09017,0 -2.12329,-0.17113 -3.09937,-0.51339c-0.97608,-0.35494 -1.85075,-0.86833 -2.62401,-1.54018c-0.76058,-0.68452 -1.36271,-1.54018 -1.80638,-2.56696c-0.43099,-1.02679 -0.64649,-2.21203 -0.64649,-3.55572c0,-1.16623 0.19649,-2.23738 0.58945,-3.21346c0.40565,-0.98876 0.97608,-1.83807 1.71131,-2.54795c0.73523,-0.72255 1.59722,-1.28665 2.58598,-1.6923c1.00143,-0.40565 2.09794,-0.60847 3.28952,-0.60847c0.65917,0 1.30566,0.07606 1.93948,0.22817c0.63382,0.15212 1.23595,0.37395 1.80638,0.66551zM187.48605,14.01627c0.36762,0 0.69086,0.1331 0.96974,0.39931c0.27888,0.2662 0.41832,0.59579 0.41832,0.98876v13.12004c0,0.39297 -0.14578,0.72255 -0.43733,0.98876c-0.29156,0.2662 -0.62114,0.39931 -0.98876,0.39931c-0.43099,0 -0.77326,-0.1331 -1.02679,-0.39931c-0.25353,-0.2662 -0.38029,-0.59579 -0.38029,-0.98876v-13.12004c0,-0.39297 0.1331,-0.72255 0.39931,-0.98876c0.27888,-0.2662 0.62748,-0.39931 1.0458,-0.39931zM197.54474,14.01627c0.41832,0 0.75424,0.1331 1.00777,0.39931c0.2662,0.2662 0.39931,0.59579 0.39931,0.98876v13.12004c0,0.39297 -0.1331,0.72255 -0.39931,0.98876c-0.2662,0.2662 -0.61481,0.39931 -1.0458,0.39931c-0.36762,0 -0.69086,-0.1331 -0.96974,-0.39931c-0.27888,-0.2662 -0.41832,-0.59579 -0.41832,-0.98876v-13.12004c0,-0.39297 0.13944,-0.72255 0.41832,-0.98876c0.29156,-0.2662 0.62748,-0.39931 1.00777,-0.39931zM187.40999,20.63333h10.13476v2.60499h-10.13476zM205.19784,28.52437c0,0.39297 -0.14578,0.72255 -0.43733,0.98876c-0.29156,0.2662 -0.62114,0.39931 -0.98876,0.39931c-0.43099,0 -0.77326,-0.1331 -1.02679,-0.39931c-0.25353,-0.2662 -0.38029,-0.59579 -0.38029,-0.98876v-13.12004c0,-0.39297 0.1331,-0.72255 0.39931,-0.98876c0.27888,-0.2662 0.62748,-0.39931 1.0458,-0.39931c0.36762,0 0.69086,0.1331 0.96974,0.39931c0.27888,0.2662 0.41832,0.59579 0.41832,0.98876zM209.97714,14.01627h7.60582c0.39297,0 0.72255,0.12676 0.98876,0.38029c0.2662,0.25353 0.39931,0.57678 0.39931,0.96974c0,0.36762 -0.1331,0.67185 -0.39931,0.9127c-0.2662,0.24085 -0.59579,0.36128 -0.98876,0.36128h-6.35086l0.20916,-0.39931v4.43039l-0.19015,-0.19015h5.32407c0.39297,0 0.71621,0.12676 0.96974,0.38029c0.2662,0.25353 0.39931,0.57678 0.39931,0.96974c0,0.38029 -0.1331,0.69086 -0.39931,0.93171c-0.25353,0.22817 -0.57678,0.34226 -0.96974,0.34226h-5.24802l0.11409,-0.19015v4.58251l-0.19015,-0.19015h6.33185c0.39297,0 0.72255,0.1331 0.98876,0.39931c0.2662,0.25353 0.39931,0.55776 0.39931,0.9127c0,0.38029 -0.1331,0.69086 -0.39931,0.93171c-0.2662,0.24085 -0.59579,0.36128 -0.98876,0.36128h-7.60582c-0.39297,0 -0.72255,-0.1331 -0.98876,-0.39931c-0.25353,-0.2662 -0.38029,-0.59579 -0.38029,-0.98876v-13.12004c0,-0.39297 0.12676,-0.72255 0.38029,-0.98876c0.2662,-0.2662 0.59579,-0.39931 0.98876,-0.39931zM233.19328,13.97824c0.38029,0 0.70988,0.12676 0.98876,0.38029c0.27888,0.24085 0.41832,0.55142 0.41832,0.93171c0,0.20282 -0.04437,0.40565 -0.1331,0.60847l-5.60929,13.12004c-0.13944,0.30423 -0.33592,0.53241 -0.58945,0.68452c-0.25353,0.13944 -0.50705,0.20916 -0.76058,0.20916c-0.24085,-0.01267 -0.47536,-0.08873 -0.70354,-0.22817c-0.22817,-0.15212 -0.39931,-0.36128 -0.51339,-0.62748l-5.60929,-13.17708c-0.0507,-0.08873 -0.0824,-0.18381 -0.09507,-0.28522c-0.01267,-0.10141 -0.01901,-0.19649 -0.01901,-0.28522c0,-0.43099 0.15846,-0.76058 0.47536,-0.98876c0.31691,-0.24085 0.62114,-0.36128 0.9127,-0.36128c0.57044,0 0.98242,0.29156 1.23595,0.87467l4.98181,11.69395l-0.79861,0.01901l4.56349,-11.71296c0.25353,-0.57044 0.67185,-0.85565 1.25496,-0.85565zM238.35636,14.01627h7.60582c0.39297,0 0.72255,0.12676 0.98876,0.38029c0.2662,0.25353 0.39931,0.57678 0.39931,0.96974c0,0.36762 -0.1331,0.67185 -0.39931,0.9127c-0.2662,0.24085 -0.59579,0.36128 -0.98876,0.36128h-6.35086l0.20916,-0.39931v4.43039l-0.19015,-0.19015h5.32407c0.39297,0 0.71621,0.12676 0.96974,0.38029c0.2662,0.25353 0.39931,0.57678 0.39931,0.96974c0,0.38029 -0.1331,0.69086 -0.39931,0.93171c-0.25353,0.22817 -0.57678,0.34226 -0.96974,0.34226h-5.24802l0.11409,-0.19015v4.58251l-0.19015,-0.19015h6.33185c0.39297,0 0.72255,0.1331 0.98876,0.39931c0.2662,0.25353 0.39931,0.55776 0.39931,0.9127c0,0.38029 -0.1331,0.69086 -0.39931,0.93171c-0.2662,0.24085 -0.59579,0.36128 -0.98876,0.36128h-7.60582c-0.39297,0 -0.72255,-0.1331 -0.98876,-0.39931c-0.25353,-0.2662 -0.38029,-0.59579 -0.38029,-0.98876v-13.12004c0,-0.39297 0.12676,-0.72255 0.38029,-0.98876c0.2662,-0.2662 0.59579,-0.39931 0.98876,-0.39931zM251.39971,13.99726c0.20282,0 0.42466,0.05704 0.66551,0.17113c0.24085,0.11409 0.41832,0.25986 0.53241,0.43733l5.51422,8.4995l-1.14087,-0.05704l5.66634,-8.44246c0.27888,-0.40565 0.64649,-0.60847 1.10284,-0.60847c0.36762,0 0.69086,0.1331 0.96974,0.39931c0.29156,0.25353 0.43733,0.58311 0.43733,0.98876v13.13905c0,0.39297 -0.12676,0.72255 -0.38029,0.98876c-0.25353,0.2662 -0.59579,0.39931 -1.02679,0.39931c-0.41832,0 -0.76058,-0.1331 -1.02679,-0.39931c-0.2662,-0.2662 -0.39931,-0.59579 -0.39931,-0.98876v-10.68618l0.89368,0.20916l-4.63955,7.0544c-0.13944,0.16479 -0.31057,0.31057 -0.51339,0.43733c-0.20282,0.11409 -0.41198,0.16479 -0.62748,0.15212c-0.19015,0.01267 -0.38663,-0.03803 -0.58945,-0.15212c-0.20282,-0.12676 -0.37395,-0.27254 -0.51339,-0.43733l-4.33532,-6.86425l0.58945,-1.19792v11.48479c0,0.39297 -0.12043,0.72255 -0.36128,0.98876c-0.24085,0.2662 -0.55776,0.39931 -0.95073,0.39931c-0.38029,0 -0.69086,-0.1331 -0.93171,-0.39931c-0.24085,-0.2662 -0.36128,-0.59579 -0.36128,-0.98876v-13.13905c0,-0.38029 0.13944,-0.70354 0.41832,-0.96974c0.27888,-0.27888 0.61481,-0.41832 1.00777,-0.41832zM269.93674,14.01627h7.60582c0.39297,0 0.72255,0.12676 0.98876,0.38029c0.2662,0.25353 0.39931,0.57678 0.39931,0.96974c0,0.36762 -0.1331,0.67185 -0.39931,0.9127c-0.2662,0.24085 -0.59579,0.36128 -0.98876,0.36128h-6.35086l0.20916,-0.39931v4.43039l-0.19015,-0.19015h5.32407c0.39297,0 0.71621,0.12676 0.96974,0.38029c0.2662,0.25353 0.39931,0.57678 0.39931,0.96974c0,0.38029 -0.1331,0.69086 -0.39931,0.93171c-0.25353,0.22817 -0.57678,0.34226 -0.96974,0.34226h-5.24802l0.11409,-0.19015v4.58251l-0.19015,-0.19015h6.33185c0.39297,0 0.72255,0.1331 0.98876,0.39931c0.2662,0.25353 0.39931,0.55776 0.39931,0.9127c0,0.38029 -0.1331,0.69086 -0.39931,0.93171c-0.2662,0.24085 -0.59579,0.36128 -0.98876,0.36128h-7.60582c-0.39297,0 -0.72255,-0.1331 -0.98876,-0.39931c-0.25353,-0.2662 -0.38029,-0.59579 -0.38029,-0.98876v-13.12004c0,-0.39297 0.12676,-0.72255 0.38029,-0.98876c0.2662,-0.2662 0.59579,-0.39931 0.98876,-0.39931zM293.60922,14.01627c0.35494,0 0.64649,0.12043 0.87467,0.36128c0.22817,0.24085 0.34226,0.54508 0.34226,0.9127v13.23413c0,0.39297 -0.1331,0.72255 -0.39931,0.98876c-0.2662,0.2662 -0.59579,0.39931 -0.98876,0.39931c-0.19015,0 -0.39297,-0.03169 -0.60847,-0.09507c-0.20282,-0.07606 -0.35494,-0.17113 -0.45635,-0.28522l-8.91782,-11.33267l0.58945,-0.36128v10.80026c0,0.36762 -0.12043,0.67185 -0.36128,0.9127c-0.22817,0.24085 -0.53241,0.36128 -0.9127,0.36128c-0.36762,0 -0.66551,-0.12043 -0.89368,-0.36128c-0.2155,-0.24085 -0.32325,-0.54508 -0.32325,-0.9127v-13.23413c0,-0.39297 0.12676,-0.72255 0.38029,-0.98876c0.2662,-0.2662 0.59579,-0.39931 0.98876,-0.39931c0.2155,0 0.43733,0.04437 0.66551,0.1331c0.22817,0.07606 0.39297,0.19649 0.49438,0.36128l8.65162,11.04745l-0.38029,0.2662v-10.53406c0,-0.36762 0.11409,-0.67185 0.34226,-0.9127c0.22817,-0.24085 0.53241,-0.36128 0.9127,-0.36128zM303.62209,29.91243c-0.43099,0 -0.78594,-0.1331 -1.06481,-0.39931c-0.2662,-0.2662 -0.39931,-0.59579 -0.39931,-0.98876v-13.15807h2.94726v13.15807c0,0.39297 -0.13944,0.72255 -0.41832,0.98876c-0.27888,0.2662 -0.63382,0.39931 -1.06481,0.39931zM298.60225,16.64027c-0.39297,0 -0.72255,-0.12043 -0.98876,-0.36128c-0.2662,-0.25353 -0.39931,-0.57678 -0.39931,-0.96974c0,-0.39297 0.1331,-0.70354 0.39931,-0.93171c0.2662,-0.24085 0.59579,-0.36128 0.98876,-0.36128h10.07771c0.39297,0 0.72255,0.12043 0.98876,0.36128c0.2662,0.24085 0.39931,0.55776 0.39931,0.95073c0,0.39297 -0.1331,0.70988 -0.39931,0.95073c-0.2662,0.24085 -0.59579,0.36128 -0.98876,0.36128zM317.54921,30.14061c-1.05214,0 -2.00287,-0.1331 -2.85218,-0.39931c-0.84931,-0.2662 -1.66061,-0.72889 -2.43386,-1.38806c-0.20282,-0.17747 -0.35494,-0.36762 -0.45635,-0.57044c-0.10141,-0.2155 -0.15212,-0.43099 -0.15212,-0.64649c0,-0.34226 0.12043,-0.64649 0.36128,-0.9127c0.25353,-0.2662 0.57044,-0.39931 0.95073,-0.39931c0.29156,0 0.55142,0.08873 0.7796,0.2662c0.57044,0.46902 1.14087,0.8303 1.71131,1.08383c0.57044,0.24085 1.26763,0.36128 2.0916,0.36128c0.55776,0 1.07116,-0.08873 1.54018,-0.2662c0.46902,-0.17747 0.84931,-0.41198 1.14087,-0.70354c0.29156,-0.29156 0.43733,-0.62748 0.43733,-1.00777c0,-0.45635 -0.13944,-0.84298 -0.41832,-1.15989c-0.2662,-0.31691 -0.68452,-0.58311 -1.25496,-0.79861c-0.55776,-0.22817 -1.26763,-0.39931 -2.12963,-0.51339c-0.81129,-0.12676 -1.5275,-0.31057 -2.14864,-0.55142c-0.62114,-0.25353 -1.14087,-0.57044 -1.55919,-0.95073c-0.41832,-0.39297 -0.73523,-0.84931 -0.95073,-1.36905c-0.20282,-0.53241 -0.30423,-1.12186 -0.30423,-1.76835c0,-0.98876 0.25353,-1.8254 0.76058,-2.50992c0.50705,-0.6972 1.19158,-1.22961 2.05357,-1.59722c0.86199,-0.36762 1.81272,-0.55142 2.85218,-0.55142c0.98876,0 1.90146,0.15212 2.7381,0.45635c0.84931,0.29156 1.53384,0.66551 2.05357,1.12186c0.44367,0.34226 0.66551,0.74157 0.66551,1.19792c0,0.32959 -0.1331,0.63382 -0.39931,0.9127c-0.25353,0.2662 -0.55142,0.39931 -0.89368,0.39931c-0.22817,0 -0.43099,-0.06972 -0.60847,-0.20916c-0.24085,-0.20282 -0.57044,-0.39931 -0.98876,-0.58945c-0.40565,-0.19015 -0.83664,-0.3486 -1.29299,-0.47536c-0.45635,-0.12676 -0.88101,-0.19015 -1.27397,-0.19015c-0.64649,0 -1.19158,0.0824 -1.63525,0.24719c-0.44367,0.16479 -0.7796,0.39297 -1.00777,0.68452c-0.22817,0.27888 -0.34226,0.60847 -0.34226,0.98876c0,0.45635 0.1331,0.8303 0.39931,1.12186c0.2662,0.29156 0.64649,0.52607 1.14087,0.70354c0.49438,0.17747 1.09017,0.33592 1.78737,0.47536c0.9127,0.16479 1.71131,0.36128 2.39583,0.58945c0.6972,0.22817 1.26763,0.51973 1.71131,0.87467c0.45635,0.35494 0.79861,0.79861 1.02679,1.33102c0.22817,0.53241 0.34226,1.18524 0.34226,1.9585c0,0.98876 -0.27254,1.83807 -0.81763,2.54795c-0.54508,0.70988 -1.2613,1.25496 -2.14864,1.63525c-0.88734,0.38029 -1.84441,0.57044 -2.8712,0.57044zM333.18181,24.30314c-0.40565,0 -0.74157,-0.12676 -1.00777,-0.38029c-0.25353,-0.2662 -0.38029,-0.59579 -0.38029,-0.98876c0,-0.39297 0.12676,-0.70988 0.38029,-0.95073c0.2662,-0.25353 0.60213,-0.38029 1.00777,-0.38029h3.93601c0.39297,0 0.72255,0.1331 0.98876,0.39931c0.2662,0.2662 0.39931,0.59579 0.39931,0.98876c0,0.38029 -0.1331,0.6972 -0.39931,0.95073c-0.2662,0.24085 -0.59579,0.36128 -0.98876,0.36128z" fill="#e4e4e4" stroke="none" stroke-width="1" stroke-linecap="square"/><path d="M396.75,39.21435h-313.5" fill="none" stroke="#e4e4e4" stroke-width="3" stroke-linecap="round"/><path d="M122.22254,293.11189c0.32292,0.15625 0.51042,0.41146 0.5625,0.76563c0.05209,0.34375 -0.03646,0.66146 -0.26562,0.95313c-0.16666,0.21875 -0.38021,0.34375 -0.64062,0.375c-0.25,0.02083 -0.50521,-0.03125 -0.76562,-0.15625c-0.29166,-0.13542 -0.60416,-0.23958 -0.9375,-0.3125c-0.33333,-0.07292 -0.67708,-0.10937 -1.03125,-0.10937c-0.67708,0 -1.28125,0.10417 -1.8125,0.3125c-0.52083,0.20833 -0.96875,0.51042 -1.34375,0.90625c-0.375,0.38542 -0.66146,0.84896 -0.85937,1.39063c-0.1875,0.53125 -0.28125,1.11979 -0.28125,1.76563c0,0.76042 0.10938,1.42188 0.32813,1.98438c0.21875,0.55208 0.52084,1.01563 0.90625,1.39063c0.38542,0.375 0.83854,0.65625 1.35938,0.84375c0.52084,0.17709 1.08854,0.26563 1.70313,0.26563c0.33334,0 0.66667,-0.03125 1,-0.09375c0.33334,-0.0625 0.65625,-0.17709 0.96875,-0.34375c0.26042,-0.125 0.51563,-0.16666 0.76563,-0.125c0.26042,0.03125 0.47917,0.16146 0.65625,0.39063c0.25,0.3125 0.33854,0.63541 0.26563,0.96875c-0.0625,0.32291 -0.25,0.55729 -0.5625,0.70313c-0.32291,0.16666 -0.65625,0.30208 -1,0.40625c-0.34375,0.10417 -0.69271,0.18229 -1.04687,0.23438c-0.34375,0.0625 -0.69271,0.09375 -1.04687,0.09375c-0.89583,0 -1.74479,-0.14062 -2.54687,-0.42187c-0.80208,-0.29166 -1.52083,-0.71354 -2.15625,-1.26562c-0.625,-0.5625 -1.11979,-1.26562 -1.48437,-2.10937c-0.35416,-0.84375 -0.53125,-1.81771 -0.53125,-2.92187c0,-0.95833 0.16146,-1.83854 0.48438,-2.64062c0.33334,-0.8125 0.80209,-1.51042 1.40625,-2.09375c0.60417,-0.59375 1.3125,-1.05729 2.125,-1.39062c0.82292,-0.33333 1.72396,-0.5 2.70313,-0.5c0.54167,0 1.07292,0.0625 1.59375,0.1875c0.52084,0.125 1.01563,0.30729 1.48438,0.54688zM136.77939,299.00248c0,0.9375 -0.15625,1.8125 -0.46875,2.625c-0.30209,0.80208 -0.73959,1.51041 -1.3125,2.125c-0.5625,0.61459 -1.23437,1.09896 -2.01562,1.45313c-0.77084,0.34375 -1.61459,0.51563 -2.53125,0.51563c-0.92709,0 -1.77604,-0.17187 -2.54687,-0.51562c-0.77084,-0.35416 -1.44271,-0.83854 -2.01562,-1.45312c-0.5625,-0.61459 -1,-1.32292 -1.3125,-2.125c-0.30209,-0.8125 -0.45312,-1.6875 -0.45312,-2.625c0,-0.92708 0.15104,-1.79687 0.45313,-2.60937c0.3125,-0.8125 0.75,-1.52604 1.3125,-2.14062c0.57291,-0.61458 1.24479,-1.09375 2.01563,-1.4375c0.77084,-0.35417 1.61979,-0.53125 2.54688,-0.53125c0.91666,0 1.76041,0.17708 2.53125,0.53125c0.78125,0.34375 1.45313,0.82292 2.01563,1.4375c0.57291,0.61458 1.01041,1.32813 1.3125,2.14063c0.3125,0.8125 0.46875,1.68229 0.46875,2.60938zM134.35752,299.00248c0,-0.83333 -0.16666,-1.58854 -0.5,-2.26562c-0.33334,-0.67708 -0.79166,-1.21354 -1.375,-1.60937c-0.58334,-0.39583 -1.26041,-0.59375 -2.03125,-0.59375c-0.78125,0 -1.46354,0.19792 -2.04687,0.59375c-0.58334,0.39583 -1.04166,0.93229 -1.375,1.60938c-0.32291,0.66667 -0.48437,1.42188 -0.48437,2.26563c0,0.83333 0.16146,1.58854 0.48438,2.26563c0.33334,0.67708 0.79166,1.21875 1.375,1.625c0.58334,0.39584 1.26563,0.59375 2.04688,0.59375c0.77084,0 1.44791,-0.19791 2.03125,-0.59375c0.58334,-0.40625 1.04166,-0.94792 1.375,-1.625c0.33334,-0.67708 0.5,-1.43229 0.5,-2.26562zM146.12699,303.34623c0.32292,0 0.59375,0.10416 0.8125,0.3125c0.21875,0.20834 0.32813,0.47396 0.32813,0.79688c0,0.3125 -0.10937,0.57291 -0.32812,0.78125c-0.21875,0.19792 -0.48958,0.29688 -0.8125,0.29688h-6.0625c-0.32292,0 -0.59375,-0.10937 -0.8125,-0.32812c-0.20834,-0.21875 -0.3125,-0.48959 -0.3125,-0.8125v-10.78125c0,-0.32292 0.10938,-0.59375 0.32813,-0.8125c0.22916,-0.21875 0.51563,-0.32812 0.85938,-0.32812c0.30208,0 0.56771,0.10938 0.79688,0.32813c0.22916,0.21875 0.34375,0.48958 0.34375,0.8125v10.0625l-0.40625,-0.32812zM156.61179,303.34623c0.32292,0 0.59375,0.10416 0.8125,0.3125c0.21875,0.20834 0.32813,0.47396 0.32813,0.79688c0,0.3125 -0.10937,0.57291 -0.32813,0.78125c-0.21875,0.19792 -0.48958,0.29688 -0.8125,0.29688h-6.0625c-0.32291,0 -0.59375,-0.10937 -0.8125,-0.32812c-0.20833,-0.21875 -0.3125,-0.48959 -0.3125,-0.8125v-10.78125c0,-0.32292 0.10938,-0.59375 0.32813,-0.8125c0.22917,-0.21875 0.51563,-0.32812 0.85938,-0.32812c0.30209,0 0.56771,0.10938 0.79688,0.32813c0.22916,0.21875 0.34375,0.48958 0.34375,0.8125v10.0625l-0.40625,-0.32812zM161.03412,292.47123h6.25c0.32291,0 0.59375,0.10417 0.8125,0.3125c0.21875,0.20833 0.32813,0.47396 0.32813,0.79688c0,0.30208 -0.10937,0.55208 -0.32812,0.75c-0.21875,0.19792 -0.48959,0.29688 -0.8125,0.29688h-5.21875l0.17188,-0.32812v3.64063l-0.15625,-0.15625h4.375c0.32291,0 0.58854,0.10417 0.79688,0.3125c0.21875,0.20833 0.32813,0.47396 0.32813,0.79688c0,0.3125 -0.10937,0.56771 -0.32812,0.76563c-0.20834,0.1875 -0.47396,0.28125 -0.79687,0.28125h-4.3125l0.09375,-0.15625v3.76563l-0.15625,-0.15625h5.20313c0.32291,0 0.59375,0.10938 0.8125,0.32813c0.21875,0.20834 0.32813,0.45834 0.32813,0.75c0,0.3125 -0.10937,0.56771 -0.32812,0.76563c-0.21875,0.19792 -0.48959,0.29688 -0.8125,0.29688h-6.25c-0.32291,0 -0.59375,-0.10937 -0.8125,-0.32812c-0.20834,-0.21875 -0.3125,-0.48959 -0.3125,-0.8125v-10.78125c0,-0.32292 0.10416,-0.59375 0.3125,-0.8125c0.21875,-0.21875 0.48959,-0.32812 0.8125,-0.32812zM179.7211,293.11189c0.32291,0.15625 0.51041,0.41146 0.5625,0.76563c0.05209,0.34375 -0.03646,0.66146 -0.26562,0.95313c-0.16666,0.21875 -0.38021,0.34375 -0.64062,0.375c-0.25,0.02083 -0.50521,-0.03125 -0.76562,-0.15625c-0.29166,-0.13542 -0.60416,-0.23958 -0.9375,-0.3125c-0.33334,-0.07292 -0.67709,-0.10937 -1.03125,-0.10937c-0.67709,0 -1.28125,0.10417 -1.8125,0.3125c-0.52084,0.20833 -0.96875,0.51042 -1.34375,0.90625c-0.375,0.38542 -0.66146,0.84896 -0.85937,1.39063c-0.1875,0.53125 -0.28125,1.11979 -0.28125,1.76563c0,0.76042 0.10938,1.42188 0.32813,1.98438c0.21875,0.55208 0.52084,1.01563 0.90625,1.39063c0.38541,0.375 0.83854,0.65625 1.35938,0.84375c0.52084,0.17709 1.08854,0.26563 1.70313,0.26563c0.33334,0 0.66666,-0.03125 1,-0.09375c0.33334,-0.0625 0.65625,-0.17709 0.96875,-0.34375c0.26041,-0.125 0.51563,-0.16666 0.76563,-0.125c0.26041,0.03125 0.47916,0.16146 0.65625,0.39063c0.25,0.3125 0.33854,0.63541 0.26563,0.96875c-0.0625,0.32291 -0.25,0.55729 -0.5625,0.70313c-0.32291,0.16666 -0.65625,0.30208 -1,0.40625c-0.34375,0.10417 -0.69271,0.18229 -1.04687,0.23438c-0.34375,0.0625 -0.69271,0.09375 -1.04687,0.09375c-0.89584,0 -1.74479,-0.14062 -2.54687,-0.42187c-0.80209,-0.29166 -1.52084,-0.71354 -2.15625,-1.26562c-0.625,-0.5625 -1.11979,-1.26562 -1.48437,-2.10937c-0.35416,-0.84375 -0.53125,-1.81771 -0.53125,-2.92187c0,-0.95833 0.16146,-1.83854 0.48438,-2.64062c0.33334,-0.8125 0.80209,-1.51042 1.40625,-2.09375c0.60416,-0.59375 1.3125,-1.05729 2.125,-1.39062c0.82291,-0.33333 1.72396,-0.5 2.70313,-0.5c0.54166,0 1.07291,0.0625 1.59375,0.1875c0.52084,0.125 1.01563,0.30729 1.48438,0.54688zM186.69983,305.53373c-0.35416,0 -0.64584,-0.10937 -0.875,-0.32812c-0.21875,-0.21875 -0.32812,-0.48959 -0.32812,-0.8125v-10.8125h2.42188v10.8125c0,0.32291 -0.11459,0.59375 -0.34375,0.8125c-0.22916,0.21875 -0.52084,0.32813 -0.875,0.32813zM182.57483,294.62748c-0.32291,0 -0.59375,-0.09896 -0.8125,-0.29687c-0.21875,-0.20833 -0.32812,-0.47396 -0.32812,-0.79687c0,-0.32292 0.10938,-0.57812 0.32813,-0.76562c0.21875,-0.19792 0.48959,-0.29687 0.8125,-0.29687h8.28125c0.32291,0 0.59375,0.09896 0.8125,0.29688c0.21875,0.19792 0.32813,0.45833 0.32813,0.78125c0,0.32292 -0.10937,0.58333 -0.32812,0.78125c-0.21875,0.19792 -0.48959,0.29688 -0.8125,0.29688zM203.96176,295.40873l-4.01562,9.46875c-0.09375,0.23959 -0.22916,0.42708 -0.40625,0.5625c-0.17709,0.125 -0.375,0.1875 -0.59375,0.1875c-0.33334,0 -0.58334,-0.09375 -0.75,-0.28125c-0.15625,-0.1875 -0.23437,-0.41666 -0.23437,-0.6875c0,-0.11459 0.02084,-0.23437 0.0625,-0.35937l4.64063,-11.15625c0.09375,-0.25 0.24479,-0.44271 0.45313,-0.57812c0.20834,-0.13542 0.42709,-0.19271 0.65625,-0.17187c0.22916,0 0.4375,0.06771 0.625,0.20313c0.19791,0.125 0.33854,0.30729 0.42188,0.54688l4.59375,10.9375c0.0625,0.15625 0.09375,0.30729 0.09375,0.45313c0,0.33334 -0.10937,0.59896 -0.32812,0.79688c-0.21875,0.19792 -0.45834,0.29688 -0.71875,0.29688c-0.21875,0 -0.42187,-0.06771 -0.60937,-0.20312c-0.17709,-0.13542 -0.31771,-0.32291 -0.42187,-0.5625l-4,-9.34375zM200.52426,302.61189l1.01563,-2.15625h5.04688l0.34375,2.15625zM220.14914,293.11189c0.32291,0.15625 0.51041,0.41146 0.5625,0.76563c0.05209,0.34375 -0.03646,0.66146 -0.26562,0.95313c-0.16666,0.21875 -0.38021,0.34375 -0.64062,0.375c-0.25,0.02083 -0.50521,-0.03125 -0.76562,-0.15625c-0.29166,-0.13542 -0.60416,-0.23958 -0.9375,-0.3125c-0.33334,-0.07292 -0.67709,-0.10937 -1.03125,-0.10937c-0.67709,0 -1.28125,0.10417 -1.8125,0.3125c-0.52084,0.20833 -0.96875,0.51042 -1.34375,0.90625c-0.375,0.38542 -0.66146,0.84896 -0.85937,1.39063c-0.1875,0.53125 -0.28125,1.11979 -0.28125,1.76563c0,0.76042 0.10938,1.42188 0.32813,1.98438c0.21875,0.55208 0.52084,1.01563 0.90625,1.39063c0.38541,0.375 0.83854,0.65625 1.35938,0.84375c0.52084,0.17709 1.08854,0.26563 1.70313,0.26563c0.33334,0 0.66666,-0.03125 1,-0.09375c0.33334,-0.0625 0.65625,-0.17709 0.96875,-0.34375c0.26041,-0.125 0.51563,-0.16666 0.76563,-0.125c0.26041,0.03125 0.47916,0.16146 0.65625,0.39063c0.25,0.3125 0.33854,0.63541 0.26563,0.96875c-0.0625,0.32291 -0.25,0.55729 -0.5625,0.70313c-0.32291,0.16666 -0.65625,0.30208 -1,0.40625c-0.34375,0.10417 -0.69271,0.18229 -1.04687,0.23438c-0.34375,0.0625 -0.69271,0.09375 -1.04687,0.09375c-0.89584,0 -1.74479,-0.14062 -2.54687,-0.42187c-0.80209,-0.29166 -1.52084,-0.71354 -2.15625,-1.26562c-0.625,-0.5625 -1.11979,-1.26562 -1.48437,-2.10937c-0.35416,-0.84375 -0.53125,-1.81771 -0.53125,-2.92187c0,-0.95833 0.16146,-1.83854 0.48438,-2.64062c0.33334,-0.8125 0.80209,-1.51042 1.40625,-2.09375c0.60416,-0.59375 1.3125,-1.05729 2.125,-1.39062c0.82291,-0.33333 1.72396,-0.5 2.70313,-0.5c0.54166,0 1.07291,0.0625 1.59375,0.1875c0.52084,0.125 1.01563,0.30729 1.48438,0.54688zM223.8935,292.47123c0.30209,0 0.56771,0.10938 0.79688,0.32813c0.22917,0.21875 0.34375,0.48958 0.34375,0.8125v10.78125c0,0.32291 -0.11979,0.59375 -0.35937,0.8125c-0.23958,0.21875 -0.51041,0.32813 -0.8125,0.32813c-0.35416,0 -0.63541,-0.10937 -0.84375,-0.32812c-0.20834,-0.21875 -0.3125,-0.48959 -0.3125,-0.8125v-10.78125c0,-0.32292 0.10938,-0.59375 0.32813,-0.8125c0.22916,-0.21875 0.51562,-0.32812 0.85937,-0.32812zM232.15912,292.47123c0.34375,0 0.61979,0.10938 0.82813,0.32813c0.21875,0.21875 0.32813,0.48958 0.32813,0.8125v10.78125c0,0.32291 -0.10937,0.59375 -0.32812,0.8125c-0.21875,0.21875 -0.50521,0.32813 -0.85937,0.32813c-0.30208,0 -0.56771,-0.10937 -0.79687,-0.32812c-0.22916,-0.21875 -0.34375,-0.48959 -0.34375,-0.8125v-10.78125c0,-0.32292 0.11459,-0.59375 0.34375,-0.8125c0.23959,-0.21875 0.51563,-0.32812 0.82813,-0.32812zM223.831,297.90873h8.32813v2.14063h-8.32812zM238.44797,304.39314c0,0.32291 -0.11979,0.59375 -0.35937,0.8125c-0.23959,0.21875 -0.51041,0.32813 -0.8125,0.32813c-0.35416,0 -0.63541,-0.10937 -0.84375,-0.32812c-0.20834,-0.21875 -0.3125,-0.48959 -0.3125,-0.8125v-10.78125c0,-0.32292 0.10938,-0.59375 0.32813,-0.8125c0.22916,-0.21875 0.51563,-0.32812 0.85938,-0.32812c0.30209,0 0.56771,0.10938 0.79688,0.32813c0.22916,0.21875 0.34375,0.48958 0.34375,0.8125zM242.37531,292.47123h6.25c0.32291,0 0.59375,0.10417 0.8125,0.3125c0.21875,0.20833 0.32813,0.47396 0.32813,0.79688c0,0.30208 -0.10937,0.55208 -0.32812,0.75c-0.21875,0.19792 -0.48959,0.29688 -0.8125,0.29688h-5.21875l0.17188,-0.32812v3.64063l-0.15625,-0.15625h4.375c0.32292,0 0.58854,0.10417 0.79688,0.3125c0.21875,0.20833 0.32813,0.47396 0.32813,0.79688c0,0.3125 -0.10937,0.56771 -0.32812,0.76563c-0.20834,0.1875 -0.47396,0.28125 -0.79688,0.28125h-4.3125l0.09375,-0.15625v3.76563l-0.15625,-0.15625h5.20313c0.32291,0 0.59375,0.10938 0.8125,0.32813c0.21875,0.20834 0.32813,0.45834 0.32813,0.75c0,0.3125 -0.10937,0.56771 -0.32812,0.76563c-0.21875,0.19792 -0.48959,0.29688 -0.8125,0.29688h-6.25c-0.32291,0 -0.59375,-0.10937 -0.8125,-0.32812c-0.20833,-0.21875 -0.3125,-0.48959 -0.3125,-0.8125v-10.78125c0,-0.32292 0.10417,-0.59375 0.3125,-0.8125c0.21875,-0.21875 0.48959,-0.32812 0.8125,-0.32812zM261.45291,292.43998c0.3125,0 0.58333,0.10417 0.8125,0.3125c0.22917,0.19792 0.34375,0.45313 0.34375,0.76563c0,0.16667 -0.03646,0.33333 -0.10937,0.5l-4.60937,10.78125c-0.11459,0.25 -0.27604,0.4375 -0.48437,0.5625c-0.20834,0.11458 -0.41667,0.17188 -0.625,0.17188c-0.19792,-0.01042 -0.39062,-0.07292 -0.57812,-0.1875c-0.1875,-0.125 -0.32812,-0.29687 -0.42187,-0.51562l-4.60937,-10.82812c-0.04167,-0.07292 -0.06771,-0.15104 -0.07812,-0.23437c-0.01042,-0.08333 -0.01562,-0.16146 -0.01562,-0.23437c0,-0.35417 0.13021,-0.625 0.39063,-0.8125c0.26041,-0.19792 0.51041,-0.29687 0.75,-0.29687c0.46875,0 0.80729,0.23958 1.01563,0.71875l4.09375,9.60938l-0.65625,0.01563l3.75,-9.625c0.20833,-0.46875 0.55208,-0.70312 1.03125,-0.70312zM265.69562,292.47123h6.25c0.32291,0 0.59375,0.10417 0.8125,0.3125c0.21875,0.20833 0.32813,0.47396 0.32813,0.79688c0,0.30208 -0.10937,0.55208 -0.32812,0.75c-0.21875,0.19792 -0.48958,0.29688 -0.8125,0.29688h-5.21875l0.17188,-0.32812v3.64063l-0.15625,-0.15625h4.375c0.32291,0 0.58854,0.10417 0.79688,0.3125c0.21875,0.20833 0.32813,0.47396 0.32813,0.79688c0,0.3125 -0.10937,0.56771 -0.32812,0.76563c-0.20834,0.1875 -0.47396,0.28125 -0.79687,0.28125h-4.3125l0.09375,-0.15625v3.76563l-0.15625,-0.15625h5.20313c0.32291,0 0.59375,0.10938 0.8125,0.32813c0.21875,0.20834 0.32813,0.45834 0.32813,0.75c0,0.3125 -0.10937,0.56771 -0.32812,0.76563c-0.21875,0.19792 -0.48958,0.29688 -0.8125,0.29688h-6.25c-0.32291,0 -0.59375,-0.10937 -0.8125,-0.32812c-0.20833,-0.21875 -0.3125,-0.48959 -0.3125,-0.8125v-10.78125c0,-0.32292 0.10417,-0.59375 0.3125,-0.8125c0.21875,-0.21875 0.48959,-0.32812 0.8125,-0.32812zM276.41385,292.45564c0.16666,0 0.34896,0.04688 0.54688,0.14063c0.19791,0.09375 0.34375,0.21354 0.4375,0.35938l4.53125,6.98438l-0.9375,-0.04687l4.65625,-6.9375c0.22916,-0.33333 0.53125,-0.5 0.90625,-0.5c0.30209,0 0.56771,0.10938 0.79688,0.32813c0.23959,0.20833 0.35938,0.47917 0.35938,0.8125v10.79688c0,0.32291 -0.10416,0.59375 -0.3125,0.8125c-0.20834,0.21875 -0.48959,0.32813 -0.84375,0.32813c-0.34375,0 -0.625,-0.10937 -0.84375,-0.32812c-0.21875,-0.21875 -0.32812,-0.48959 -0.32812,-0.8125v-8.78125l0.73438,0.17188l-3.8125,5.79688c-0.11459,0.13542 -0.25521,0.25521 -0.42187,0.35938c-0.16666,0.09375 -0.33854,0.13542 -0.51562,0.125c-0.15625,0.01042 -0.31771,-0.03125 -0.48437,-0.125c-0.16666,-0.10417 -0.30729,-0.22396 -0.42187,-0.35937l-3.5625,-5.64062l0.48438,-0.98437v9.4375c0,0.32291 -0.09896,0.59375 -0.29687,0.8125c-0.19791,0.21875 -0.45834,0.32813 -0.78125,0.32813c-0.3125,0 -0.56771,-0.10937 -0.76562,-0.32812c-0.19791,-0.21875 -0.29687,-0.48959 -0.29687,-0.8125v-10.79687c0,-0.3125 0.11459,-0.57812 0.34375,-0.79687c0.22916,-0.22917 0.50521,-0.34375 0.82813,-0.34375zM291.64646,292.47123h6.25c0.32292,0 0.59375,0.10417 0.8125,0.3125c0.21875,0.20833 0.32813,0.47396 0.32813,0.79688c0,0.30208 -0.10937,0.55208 -0.32812,0.75c-0.21875,0.19792 -0.48958,0.29688 -0.8125,0.29688h-5.21875l0.17188,-0.32812v3.64063l-0.15625,-0.15625h4.375c0.32292,0 0.58854,0.10417 0.79688,0.3125c0.21875,0.20833 0.32813,0.47396 0.32813,0.79688c0,0.3125 -0.10937,0.56771 -0.32812,0.76563c-0.20833,0.1875 -0.47396,0.28125 -0.79687,0.28125h-4.3125l0.09375,-0.15625v3.76563l-0.15625,-0.15625h5.20313c0.32292,0 0.59375,0.10938 0.8125,0.32813c0.21875,0.20834 0.32813,0.45834 0.32813,0.75c0,0.3125 -0.10937,0.56771 -0.32812,0.76563c-0.21875,0.19792 -0.48958,0.29688 -0.8125,0.29688h-6.25c-0.32291,0 -0.59375,-0.10937 -0.8125,-0.32812c-0.20833,-0.21875 -0.3125,-0.48959 -0.3125,-0.8125v-10.78125c0,-0.32292 0.10417,-0.59375 0.3125,-0.8125c0.21875,-0.21875 0.48959,-0.32812 0.8125,-0.32812zM311.09906,292.47123c0.29166,0 0.53125,0.09896 0.71875,0.29688c0.1875,0.19792 0.28125,0.44792 0.28125,0.75v10.875c0,0.32291 -0.10937,0.59375 -0.32812,0.8125c-0.21875,0.21875 -0.48959,0.32813 -0.8125,0.32813c-0.15625,0 -0.32292,-0.02604 -0.5,-0.07812c-0.16667,-0.0625 -0.29167,-0.14062 -0.375,-0.23437l-7.32812,-9.3125l0.48438,-0.29687v8.875c0,0.30209 -0.09896,0.55209 -0.29687,0.75c-0.1875,0.19792 -0.4375,0.29688 -0.75,0.29688c-0.30209,0 -0.54687,-0.09896 -0.73437,-0.29687c-0.17709,-0.19791 -0.26562,-0.44791 -0.26562,-0.75v-10.875c0,-0.32292 0.10416,-0.59375 0.3125,-0.8125c0.21875,-0.21875 0.48958,-0.32812 0.8125,-0.32812c0.17708,0 0.35938,0.03646 0.54688,0.10938c0.1875,0.0625 0.32291,0.16146 0.40625,0.29688l7.10938,9.07813l-0.3125,0.21875v-8.65625c0,-0.30208 0.09375,-0.55208 0.28125,-0.75c0.1875,-0.19792 0.4375,-0.29687 0.75,-0.29687zM319.32703,305.53373c-0.35416,0 -0.64583,-0.10937 -0.875,-0.32812c-0.21875,-0.21875 -0.32812,-0.48959 -0.32812,-0.8125v-10.8125h2.42188v10.8125c0,0.32291 -0.11458,0.59375 -0.34375,0.8125c-0.22916,0.21875 -0.52083,0.32813 -0.875,0.32813zM315.20203,294.62748c-0.32291,0 -0.59375,-0.09896 -0.8125,-0.29687c-0.21875,-0.20833 -0.32812,-0.47396 -0.32812,-0.79687c0,-0.32292 0.10938,-0.57812 0.32813,-0.76562c0.21875,-0.19792 0.48959,-0.29687 0.8125,-0.29687h8.28125c0.32292,0 0.59375,0.09896 0.8125,0.29688c0.21875,0.19792 0.32813,0.45833 0.32813,0.78125c0,0.32292 -0.10937,0.58333 -0.32812,0.78125c-0.21875,0.19792 -0.48958,0.29688 -0.8125,0.29688zM330.77149,305.72123c-0.86459,0 -1.64584,-0.10937 -2.34375,-0.32812c-0.69792,-0.21875 -1.36459,-0.59896 -2,-1.14062c-0.16667,-0.14584 -0.29167,-0.30209 -0.375,-0.46875c-0.08334,-0.17709 -0.125,-0.35416 -0.125,-0.53125c0,-0.28125 0.09896,-0.53125 0.29688,-0.75c0.20833,-0.21875 0.46875,-0.32812 0.78125,-0.32812c0.23958,0 0.45313,0.07292 0.64063,0.21875c0.46875,0.38541 0.9375,0.68229 1.40625,0.89063c0.46875,0.19791 1.04166,0.29688 1.71875,0.29688c0.45833,0 0.88021,-0.07291 1.26563,-0.21875c0.38541,-0.14584 0.69791,-0.33854 0.9375,-0.57812c0.23958,-0.23958 0.35938,-0.51562 0.35938,-0.82812c0,-0.375 -0.11459,-0.69271 -0.34375,-0.95312c-0.21875,-0.26042 -0.5625,-0.47917 -1.03125,-0.65625c-0.45834,-0.1875 -1.04167,-0.32812 -1.75,-0.42187c-0.66667,-0.10417 -1.25521,-0.25521 -1.76562,-0.45312c-0.51042,-0.20833 -0.9375,-0.46875 -1.28125,-0.78125c-0.34375,-0.32292 -0.60417,-0.69792 -0.78125,-1.125c-0.16667,-0.4375 -0.25,-0.92187 -0.25,-1.45312c0,-0.8125 0.20833,-1.5 0.625,-2.0625c0.41666,-0.57292 0.97916,-1.01042 1.6875,-1.3125c0.70833,-0.30208 1.48958,-0.45312 2.34375,-0.45312c0.8125,0 1.5625,0.125 2.25,0.375c0.69791,0.23958 1.26041,0.54688 1.6875,0.92188c0.36458,0.28125 0.54688,0.60938 0.54688,0.98438c0,0.27083 -0.10937,0.52083 -0.32812,0.75c-0.20834,0.21875 -0.45312,0.32813 -0.73437,0.32813c-0.1875,0 -0.35417,-0.05729 -0.5,-0.17187c-0.19792,-0.16667 -0.46875,-0.32812 -0.8125,-0.48437c-0.33334,-0.15625 -0.6875,-0.28646 -1.0625,-0.39062c-0.375,-0.10417 -0.72396,-0.15625 -1.04687,-0.15625c-0.53125,0 -0.97917,0.06771 -1.34375,0.20313c-0.36459,0.13542 -0.64062,0.32292 -0.82812,0.5625c-0.1875,0.22917 -0.28125,0.5 -0.28125,0.8125c0,0.375 0.10938,0.68229 0.32813,0.92188c0.21875,0.23958 0.53125,0.43229 0.9375,0.57813c0.40625,0.14583 0.89583,0.27604 1.46875,0.39063c0.75,0.13542 1.40625,0.29688 1.96875,0.48438c0.57291,0.1875 1.04166,0.42708 1.40625,0.71875c0.375,0.29167 0.65625,0.65625 0.84375,1.09375c0.1875,0.4375 0.28125,0.97396 0.28125,1.60938c0,0.8125 -0.22396,1.51041 -0.67187,2.09375c-0.44792,0.58334 -1.03646,1.03125 -1.76562,1.34375c-0.72917,0.3125 -1.51562,0.46875 -2.35937,0.46875zM354.9455,299.00248c0,0.9375 -0.15625,1.8125 -0.46875,2.625c-0.30208,0.80208 -0.73958,1.51041 -1.3125,2.125c-0.5625,0.61459 -1.23437,1.09896 -2.01562,1.45313c-0.77083,0.34375 -1.61458,0.51563 -2.53125,0.51563c-0.92708,0 -1.77604,-0.17187 -2.54687,-0.51562c-0.77083,-0.35416 -1.44271,-0.83854 -2.01562,-1.45312c-0.5625,-0.61459 -1,-1.32292 -1.3125,-2.125c-0.30208,-0.8125 -0.45312,-1.6875 -0.45312,-2.625c0,-0.92708 0.15104,-1.79687 0.45313,-2.60937c0.3125,-0.8125 0.75,-1.52604 1.3125,-2.14062c0.57292,-0.61458 1.24479,-1.09375 2.01563,-1.4375c0.77084,-0.35417 1.61979,-0.53125 2.54688,-0.53125c0.91667,0 1.76042,0.17708 2.53125,0.53125c0.78125,0.34375 1.45313,0.82292 2.01563,1.4375c0.57292,0.61458 1.01042,1.32813 1.3125,2.14063c0.3125,0.8125 0.46875,1.68229 0.46875,2.60938zM352.52362,299.00248c0,-0.83333 -0.16666,-1.58854 -0.5,-2.26562c-0.33333,-0.67708 -0.79166,-1.21354 -1.375,-1.60937c-0.58333,-0.39583 -1.26041,-0.59375 -2.03125,-0.59375c-0.78125,0 -1.46354,0.19792 -2.04687,0.59375c-0.58333,0.39583 -1.04166,0.93229 -1.375,1.60938c-0.32291,0.66667 -0.48437,1.42188 -0.48437,2.26563c0,0.83333 0.16146,1.58854 0.48438,2.26563c0.33334,0.67708 0.79167,1.21875 1.375,1.625c0.58334,0.39584 1.26563,0.59375 2.04688,0.59375c0.77084,0 1.44792,-0.19791 2.03125,-0.59375c0.58334,-0.40625 1.04167,-0.94792 1.375,-1.625c0.33334,-0.67708 0.5,-1.43229 0.5,-2.26562zM367.01184,292.47123c0.29166,0 0.53125,0.09896 0.71875,0.29688c0.1875,0.19792 0.28125,0.44792 0.28125,0.75v10.875c0,0.32291 -0.10937,0.59375 -0.32812,0.8125c-0.21875,0.21875 -0.48959,0.32813 -0.8125,0.32813c-0.15625,0 -0.32292,-0.02604 -0.5,-0.07812c-0.16667,-0.0625 -0.29167,-0.14062 -0.375,-0.23437l-7.32812,-9.3125l0.48438,-0.29687v8.875c0,0.30209 -0.09896,0.55209 -0.29687,0.75c-0.1875,0.19792 -0.4375,0.29688 -0.75,0.29688c-0.30209,0 -0.54687,-0.09896 -0.73437,-0.29687c-0.17709,-0.19791 -0.26562,-0.44791 -0.26562,-0.75v-10.875c0,-0.32292 0.10416,-0.59375 0.3125,-0.8125c0.21875,-0.21875 0.48958,-0.32812 0.8125,-0.32812c0.17708,0 0.35938,0.03646 0.54688,0.10938c0.1875,0.0625 0.32291,0.16146 0.40625,0.29688l7.10938,9.07813l-0.3125,0.21875v-8.65625c0,-0.30208 0.09375,-0.55208 0.28125,-0.75c0.1875,-0.19792 0.4375,-0.29687 0.75,-0.29687z" fill="#e4e4e4" stroke="none" stroke-width="1" stroke-linecap="square"/><path d="M176.95514,316.14827c0.29166,0 0.55209,0.10938 0.78125,0.32813c0.22916,0.20833 0.34375,0.48438 0.34375,0.82813c0,0.10416 -0.01562,0.21875 -0.04687,0.34375c-0.03125,0.11458 -0.08334,0.22916 -0.15625,0.34375l-4.23437,6.0625l0.32813,-1.29687v5.35938c0,0.32291 -0.10937,0.59375 -0.32812,0.8125c-0.21875,0.21875 -0.46875,0.32813 -0.75,0.32813c-0.3125,0 -0.57812,-0.10937 -0.79687,-0.32812c-0.21875,-0.21875 -0.32812,-0.48959 -0.32812,-0.8125v-5.20312l0.15625,0.59375l-4.03125,-5.34375c-0.125,-0.16667 -0.21354,-0.32292 -0.26562,-0.46875c-0.05209,-0.15625 -0.07812,-0.29687 -0.07812,-0.42187c0,-0.33334 0.13021,-0.60417 0.39063,-0.8125c0.26041,-0.20834 0.53125,-0.3125 0.8125,-0.3125c0.34375,0 0.64584,0.17188 0.90625,0.51563l3.57813,4.9375l-0.51562,-0.0625l3.29688,-4.84375c0.26041,-0.36459 0.57291,-0.54687 0.9375,-0.54687zM191.27643,322.72641c0,0.9375 -0.15625,1.8125 -0.46875,2.625c-0.30209,0.80208 -0.73959,1.51041 -1.3125,2.125c-0.5625,0.61458 -1.23437,1.09896 -2.01562,1.45313c-0.77084,0.34375 -1.61459,0.51563 -2.53125,0.51563c-0.92709,0 -1.77604,-0.17187 -2.54687,-0.51562c-0.77084,-0.35417 -1.44271,-0.83854 -2.01562,-1.45312c-0.5625,-0.61459 -1,-1.32292 -1.3125,-2.125c-0.30209,-0.8125 -0.45312,-1.6875 -0.45312,-2.625c0,-0.92709 0.15104,-1.79687 0.45313,-2.60937c0.3125,-0.8125 0.75,-1.52604 1.3125,-2.14062c0.57291,-0.61459 1.24479,-1.09375 2.01563,-1.4375c0.77084,-0.35417 1.61979,-0.53125 2.54688,-0.53125c0.91666,0 1.76041,0.17708 2.53125,0.53125c0.78125,0.34375 1.45313,0.82291 2.01563,1.4375c0.57291,0.61458 1.01041,1.32813 1.3125,2.14063c0.3125,0.8125 0.46875,1.68229 0.46875,2.60938zM188.85456,322.72641c0,-0.83334 -0.16666,-1.58854 -0.5,-2.26562c-0.33334,-0.67709 -0.79166,-1.21354 -1.375,-1.60937c-0.58334,-0.39584 -1.26041,-0.59375 -2.03125,-0.59375c-0.78125,0 -1.46354,0.19791 -2.04687,0.59375c-0.58334,0.39583 -1.04166,0.93229 -1.375,1.60938c-0.32291,0.66666 -0.48437,1.42188 -0.48437,2.26563c0,0.83333 0.16146,1.58854 0.48438,2.26563c0.33334,0.67708 0.79166,1.21875 1.375,1.625c0.58334,0.39583 1.26563,0.59375 2.04688,0.59375c0.77084,0 1.44791,-0.19792 2.03125,-0.59375c0.58334,-0.40625 1.04166,-0.94792 1.375,-1.625c0.33334,-0.67709 0.5,-1.43229 0.5,-2.26562zM202.70215,316.17952c0.32291,0 0.58333,0.10938 0.78125,0.32813c0.19791,0.21875 0.29687,0.48958 0.29687,0.8125v6.75c0,1.03125 -0.22396,1.94791 -0.67187,2.75c-0.4375,0.79166 -1.04167,1.41146 -1.8125,1.85938c-0.77084,0.44791 -1.66667,0.67188 -2.6875,0.67188c-1.01042,0 -1.90625,-0.22396 -2.6875,-0.67187c-0.78125,-0.44792 -1.39062,-1.06771 -1.82812,-1.85937c-0.4375,-0.80209 -0.65625,-1.71875 -0.65625,-2.75v-6.75c0,-0.32292 0.10938,-0.59375 0.32813,-0.8125c0.22917,-0.21875 0.51563,-0.32812 0.85938,-0.32812c0.28125,0 0.53646,0.10938 0.76563,0.32813c0.23959,0.21875 0.35938,0.48958 0.35938,0.8125v6.75c0,0.625 0.13021,1.16666 0.39063,1.625c0.27084,0.44791 0.625,0.79688 1.0625,1.04688c0.44791,0.25 0.91666,0.375 1.40625,0.375c0.54166,0 1.04166,-0.125 1.5,-0.375c0.45833,-0.25 0.82813,-0.59896 1.10938,-1.04687c0.29166,-0.45834 0.4375,-1 0.4375,-1.625v-6.75c0,-0.32292 0.09375,-0.59375 0.28125,-0.8125c0.1875,-0.21875 0.44271,-0.32812 0.76563,-0.32812zM207.93296,329.25766c-0.35417,0 -0.66667,-0.10937 -0.9375,-0.32812c-0.27084,-0.21875 -0.40625,-0.48959 -0.40625,-0.8125v-10.78125c0,-0.32292 0.10416,-0.59375 0.3125,-0.8125c0.21875,-0.21875 0.48958,-0.32812 0.8125,-0.32812h5.375c0.64583,0 1.25,0.17188 1.8125,0.51563c0.57291,0.34375 1.03125,0.81771 1.375,1.42188c0.35416,0.60416 0.53125,1.29688 0.53125,2.07813c0,0.46875 -0.09896,0.92708 -0.29687,1.375c-0.1875,0.44791 -0.44791,0.85416 -0.78125,1.21875c-0.32291,0.36458 -0.69271,0.64583 -1.10937,0.84375l0.01563,-0.4375c0.35416,0.1875 0.64584,0.41146 0.875,0.67188c0.22916,0.25 0.40625,0.52083 0.53125,0.8125c0.13541,0.29166 0.21354,0.60416 0.23438,0.9375c0.05209,0.3125 0.08854,0.58854 0.10938,0.82813c0.02084,0.23958 0.05729,0.44271 0.10938,0.60938c0.0625,0.15625 0.17188,0.27604 0.32813,0.35938c0.27084,0.16666 0.4375,0.40104 0.5,0.70313c0.07291,0.30208 0.00521,0.57291 -0.20312,0.8125c-0.13541,0.15625 -0.3125,0.26041 -0.53125,0.3125c-0.20834,0.04166 -0.41666,0.04166 -0.625,0c-0.20834,-0.05209 -0.38021,-0.11459 -0.51562,-0.1875c-0.21875,-0.125 -0.43229,-0.30729 -0.64062,-0.54687c-0.20834,-0.23959 -0.38021,-0.5625 -0.51563,-0.96875c-0.125,-0.41667 -0.1875,-0.94792 -0.1875,-1.59375c0,-0.21875 -0.04166,-0.41667 -0.125,-0.59375c-0.07291,-0.17709 -0.17709,-0.32812 -0.3125,-0.45312c-0.13542,-0.13542 -0.30729,-0.23437 -0.51562,-0.29687c-0.20834,-0.07292 -0.45834,-0.10937 -0.75,-0.10937h-3.76562l0.28125,-0.4375v4.04688c0,0.32291 -0.08854,0.59375 -0.26562,0.8125c-0.17709,0.21875 -0.41667,0.32813 -0.71875,0.32813zM208.65171,322.58577h4.34375c0.22916,0 0.44791,-0.10417 0.65625,-0.3125c0.20833,-0.20834 0.38021,-0.48959 0.51562,-0.84375c0.14584,-0.35417 0.21875,-0.74479 0.21875,-1.17187c0,-0.54167 -0.14583,-0.99479 -0.4375,-1.35937c-0.29166,-0.36459 -0.60937,-0.54687 -0.95312,-0.54687h-4.3125l0.23438,-0.60937v5.28125zM227.66104,329.44516c-0.70834,0 -1.36979,-0.14062 -1.98437,-0.42187c-0.60416,-0.29167 -1.09896,-0.70312 -1.48437,-1.23437c-0.14584,-0.22917 -0.21875,-0.44792 -0.21875,-0.65625c0,-0.3125 0.11979,-0.57292 0.35938,-0.78125c0.23959,-0.21875 0.47916,-0.32812 0.71875,-0.32812c0.1875,0 0.36979,0.05729 0.54688,0.17188c0.1875,0.11458 0.35416,0.24479 0.5,0.39063c0.25,0.22916 0.49479,0.39063 0.73438,0.48438c0.23959,0.09375 0.51563,0.14063 0.82813,0.14063c0.375,0 0.72396,-0.09375 1.04688,-0.28125c0.32291,-0.1875 0.58334,-0.4375 0.78125,-0.75c0.19791,-0.3125 0.29688,-0.64584 0.29688,-1v-7.84375c0,-0.32292 0.11979,-0.59375 0.35938,-0.8125c0.23959,-0.21875 0.51563,-0.32812 0.82813,-0.32812c0.34375,0 0.61979,0.10938 0.82813,0.32813c0.21875,0.21875 0.32813,0.48958 0.32813,0.8125v7.84375c0,0.75 -0.20312,1.45313 -0.60937,2.10938c-0.39584,0.64583 -0.93229,1.16666 -1.60937,1.5625c-0.66666,0.39583 -1.41666,0.59375 -2.25,0.59375zM246.92804,322.72641c0,0.9375 -0.15625,1.8125 -0.46875,2.625c-0.30209,0.80208 -0.73959,1.51041 -1.3125,2.125c-0.5625,0.61458 -1.23437,1.09896 -2.01562,1.45313c-0.77084,0.34375 -1.61459,0.51563 -2.53125,0.51563c-0.92709,0 -1.77604,-0.17187 -2.54687,-0.51562c-0.77084,-0.35417 -1.44271,-0.83854 -2.01562,-1.45312c-0.5625,-0.61459 -1,-1.32292 -1.3125,-2.125c-0.30209,-0.8125 -0.45312,-1.6875 -0.45312,-2.625c0,-0.92709 0.15104,-1.79687 0.45313,-2.60937c0.3125,-0.8125 0.75,-1.52604 1.3125,-2.14062c0.57291,-0.61459 1.24479,-1.09375 2.01563,-1.4375c0.77084,-0.35417 1.61979,-0.53125 2.54688,-0.53125c0.91666,0 1.76041,0.17708 2.53125,0.53125c0.78125,0.34375 1.45313,0.82291 2.01563,1.4375c0.57291,0.61458 1.01041,1.32813 1.3125,2.14063c0.3125,0.8125 0.46875,1.68229 0.46875,2.60938zM244.50617,322.72641c0,-0.83334 -0.16666,-1.58854 -0.5,-2.26562c-0.33334,-0.67709 -0.79166,-1.21354 -1.375,-1.60937c-0.58334,-0.39584 -1.26041,-0.59375 -2.03125,-0.59375c-0.78125,0 -1.46354,0.19791 -2.04687,0.59375c-0.58334,0.39583 -1.04166,0.93229 -1.375,1.60938c-0.32291,0.66666 -0.48437,1.42188 -0.48437,2.26563c0,0.83333 0.16146,1.58854 0.48438,2.26563c0.33334,0.67708 0.79166,1.21875 1.375,1.625c0.58334,0.39583 1.26563,0.59375 2.04688,0.59375c0.77084,0 1.44791,-0.19792 2.03125,-0.59375c0.58334,-0.40625 1.04166,-0.94792 1.375,-1.625c0.33334,-0.67709 0.5,-1.43229 0.5,-2.26562zM258.35376,316.17952c0.32291,0 0.58333,0.10938 0.78125,0.32813c0.19791,0.21875 0.29688,0.48958 0.29688,0.8125v6.75c0,1.03125 -0.22396,1.94791 -0.67187,2.75c-0.4375,0.79166 -1.04167,1.41146 -1.8125,1.85938c-0.77084,0.44791 -1.66667,0.67188 -2.6875,0.67188c-1.01041,0 -1.90625,-0.22396 -2.6875,-0.67187c-0.78125,-0.44792 -1.39062,-1.06771 -1.82812,-1.85937c-0.4375,-0.80209 -0.65625,-1.71875 -0.65625,-2.75v-6.75c0,-0.32292 0.10938,-0.59375 0.32813,-0.8125c0.22916,-0.21875 0.51563,-0.32812 0.85938,-0.32812c0.28125,0 0.53646,0.10938 0.76563,0.32813c0.23959,0.21875 0.35938,0.48958 0.35938,0.8125v6.75c0,0.625 0.13021,1.16666 0.39063,1.625c0.27084,0.44791 0.625,0.79688 1.0625,1.04688c0.44791,0.25 0.91666,0.375 1.40625,0.375c0.54166,0 1.04166,-0.125 1.5,-0.375c0.45834,-0.25 0.82813,-0.59896 1.10938,-1.04687c0.29166,-0.45834 0.4375,-1 0.4375,-1.625v-6.75c0,-0.32292 0.09375,-0.59375 0.28125,-0.8125c0.1875,-0.21875 0.44271,-0.32812 0.76563,-0.32812zM263.58457,329.25766c-0.35417,0 -0.66667,-0.10937 -0.9375,-0.32812c-0.27084,-0.21875 -0.40625,-0.48959 -0.40625,-0.8125v-10.78125c0,-0.32292 0.10416,-0.59375 0.3125,-0.8125c0.21875,-0.21875 0.48958,-0.32812 0.8125,-0.32812h5.375c0.64584,0 1.25,0.17188 1.8125,0.51563c0.57291,0.34375 1.03125,0.81771 1.375,1.42188c0.35417,0.60416 0.53125,1.29688 0.53125,2.07813c0,0.46875 -0.09896,0.92708 -0.29687,1.375c-0.1875,0.44791 -0.44791,0.85416 -0.78125,1.21875c-0.32291,0.36458 -0.69271,0.64583 -1.10937,0.84375l0.01563,-0.4375c0.35417,0.1875 0.64583,0.41146 0.875,0.67188c0.22916,0.25 0.40625,0.52083 0.53125,0.8125c0.13541,0.29166 0.21354,0.60416 0.23438,0.9375c0.05208,0.3125 0.08854,0.58854 0.10938,0.82813c0.02083,0.23958 0.05729,0.44271 0.10938,0.60938c0.0625,0.15625 0.17188,0.27604 0.32813,0.35938c0.27083,0.16666 0.4375,0.40104 0.5,0.70313c0.07292,0.30208 0.00521,0.57291 -0.20312,0.8125c-0.13542,0.15625 -0.3125,0.26041 -0.53125,0.3125c-0.20833,0.04166 -0.41666,0.04166 -0.625,0c-0.20834,-0.05209 -0.38021,-0.11459 -0.51562,-0.1875c-0.21875,-0.125 -0.43229,-0.30729 -0.64062,-0.54687c-0.20833,-0.23959 -0.38021,-0.5625 -0.51562,-0.96875c-0.125,-0.41667 -0.1875,-0.94792 -0.1875,-1.59375c0,-0.21875 -0.04167,-0.41667 -0.125,-0.59375c-0.07291,-0.17709 -0.17709,-0.32812 -0.3125,-0.45312c-0.13541,-0.13542 -0.30729,-0.23437 -0.51562,-0.29687c-0.20834,-0.07292 -0.45834,-0.10937 -0.75,-0.10937h-3.76562l0.28125,-0.4375v4.04688c0,0.32291 -0.08854,0.59375 -0.26562,0.8125c-0.17709,0.21875 -0.41667,0.32813 -0.71875,0.32813zM264.30332,322.58577h4.34375c0.22916,0 0.44791,-0.10417 0.65625,-0.3125c0.20834,-0.20834 0.38021,-0.48959 0.51563,-0.84375c0.14583,-0.35417 0.21875,-0.74479 0.21875,-1.17187c0,-0.54167 -0.14583,-0.99479 -0.4375,-1.35937c-0.29166,-0.36459 -0.60937,-0.54687 -0.95312,-0.54687h-4.3125l0.23438,-0.60937v5.28125zM284.9639,316.19516c0.29167,0 0.53125,0.09896 0.71875,0.29688c0.1875,0.19791 0.28125,0.44791 0.28125,0.75v10.875c0,0.32291 -0.10937,0.59375 -0.32812,0.8125c-0.21875,0.21875 -0.48958,0.32813 -0.8125,0.32813c-0.15625,0 -0.32291,-0.02604 -0.5,-0.07812c-0.16666,-0.0625 -0.29166,-0.14062 -0.375,-0.23437l-7.32812,-9.3125l0.48438,-0.29687v8.875c0,0.30208 -0.09896,0.55208 -0.29687,0.75c-0.1875,0.19791 -0.4375,0.29688 -0.75,0.29688c-0.30208,0 -0.54687,-0.09896 -0.73437,-0.29687c-0.17708,-0.19792 -0.26562,-0.44792 -0.26562,-0.75v-10.875c0,-0.32292 0.10417,-0.59375 0.3125,-0.8125c0.21875,-0.21875 0.48959,-0.32812 0.8125,-0.32812c0.17709,0 0.35938,0.03646 0.54688,0.10938c0.1875,0.0625 0.32292,0.16146 0.40625,0.29688l7.10938,9.07813l-0.3125,0.21875v-8.65625c0,-0.30209 0.09375,-0.55209 0.28125,-0.75c0.1875,-0.19792 0.4375,-0.29687 0.75,-0.29687zM289.89499,316.19516h6.25c0.32291,0 0.59375,0.10416 0.8125,0.3125c0.21875,0.20833 0.32812,0.47396 0.32812,0.79688c0,0.30208 -0.10937,0.55208 -0.32812,0.75c-0.21875,0.19791 -0.48959,0.29688 -0.8125,0.29688h-5.21875l0.17188,-0.32812v3.64063l-0.15625,-0.15625h4.375c0.32291,0 0.58854,0.10416 0.79688,0.3125c0.21875,0.20833 0.32813,0.47396 0.32813,0.79688c0,0.3125 -0.10937,0.56771 -0.32812,0.76563c-0.20834,0.1875 -0.47396,0.28125 -0.79687,0.28125h-4.3125l0.09375,-0.15625v3.76563l-0.15625,-0.15625h5.20313c0.32291,0 0.59375,0.10938 0.8125,0.32813c0.21875,0.20833 0.32812,0.45833 0.32812,0.75c0,0.3125 -0.10937,0.56771 -0.32812,0.76563c-0.21875,0.19791 -0.48959,0.29688 -0.8125,0.29688h-6.25c-0.32291,0 -0.59375,-0.10937 -0.8125,-0.32812c-0.20834,-0.21875 -0.3125,-0.48959 -0.3125,-0.8125v-10.78125c0,-0.32292 0.10416,-0.59375 0.3125,-0.8125c0.21875,-0.21875 0.48959,-0.32812 0.8125,-0.32812zM307.75388,316.14827c0.29166,0 0.55209,0.10938 0.78125,0.32813c0.22916,0.20833 0.34375,0.48438 0.34375,0.82813c0,0.10416 -0.01562,0.21875 -0.04687,0.34375c-0.03125,0.11458 -0.08334,0.22916 -0.15625,0.34375l-4.23437,6.0625l0.32813,-1.29687v5.35938c0,0.32291 -0.10937,0.59375 -0.32812,0.8125c-0.21875,0.21875 -0.46875,0.32813 -0.75,0.32813c-0.3125,0 -0.57812,-0.10937 -0.79687,-0.32812c-0.21875,-0.21875 -0.32812,-0.48959 -0.32812,-0.8125v-5.20312l0.15625,0.59375l-4.03125,-5.34375c-0.125,-0.16667 -0.21354,-0.32292 -0.26562,-0.46875c-0.05209,-0.15625 -0.07812,-0.29687 -0.07812,-0.42187c0,-0.33334 0.13021,-0.60417 0.39063,-0.8125c0.26041,-0.20834 0.53125,-0.3125 0.8125,-0.3125c0.34375,0 0.64583,0.17188 0.90625,0.51563l3.57813,4.9375l-0.51562,-0.0625l3.29688,-4.84375c0.26041,-0.36459 0.57291,-0.54687 0.9375,-0.54687zM311.65424,325.13266c-0.42708,0 -0.65625,-0.23437 -0.6875,-0.70312l-0.54687,-6.875c-0.02084,-0.38542 0.08334,-0.70834 0.3125,-0.96875c0.22916,-0.26042 0.53125,-0.39062 0.90625,-0.39062c0.375,0 0.67709,0.13021 0.90625,0.39063c0.23959,0.26041 0.33854,0.58333 0.29688,0.96875l-0.51562,6.875c-0.04166,0.46875 -0.26562,0.70313 -0.67187,0.70313zM311.52924,329.25766c-0.36459,0 -0.64584,-0.09375 -0.84375,-0.28125c-0.1875,-0.19792 -0.28125,-0.47917 -0.28125,-0.84375v-0.3125c0,-0.36459 0.09375,-0.64062 0.28125,-0.82812c0.19791,-0.19792 0.47916,-0.29687 0.84375,-0.29687h0.23437c0.36459,0 0.64063,0.09896 0.82813,0.29688c0.19791,0.1875 0.29688,0.46354 0.29688,0.82813v0.3125c0,0.36458 -0.09896,0.64583 -0.29687,0.84375c-0.1875,0.1875 -0.46354,0.28125 -0.82812,0.28125z" fill="#e4e4e4" stroke="none" stroke-width="1" stroke-linecap="square"/><path d="M84.48537,296.76347v4.47967c0,4.94781 -4.01156,8.95937 -8.95936,8.95937c-0.10527,0 -0.20327,-0.02857 -0.3063,-0.03248c-0.80466,3.15201 -3.26569,5.61696 -6.41322,6.43282v7.0387h4.47968c1.23807,0 2.23985,0.99953 2.23985,2.23985v2.23985h-17.91873v-2.23985c0,-1.24031 1.00177,-2.23985 2.23984,-2.23985h4.47968v-7.0387c-3.14753,-0.81586 -5.60856,-3.28137 -6.41322,-6.43338c-0.10303,0.00448 -0.20103,0.03304 -0.3063,0.03304c-4.94781,0 -8.95936,-4.01156 -8.95936,-8.95937v-4.47967c0,-1.24031 1.00177,-2.23985 2.23985,-2.23985h6.71952c0,-1.24031 1.00177,-2.23985 2.23985,-2.23985h13.43905c1.23807,0 2.23985,0.99953 2.23985,2.23985h6.71952c1.23807,0 2.23985,0.99953 2.23985,2.23985zM57.60728,305.72284v-6.71952h-4.47968v2.23984c0,2.47167 2.00577,4.47968 4.47968,4.47968zM80.00569,299.00329h-4.47968v6.71952c2.47391,0 4.47968,-2.00803 4.47968,-4.47969z" fill="#dcbe3a" stroke="none" stroke-width="1" stroke-linecap="butt"/><path d="M53.34489,314.53417c0,0 -1.08263,2.63687 -0.73704,3.56921c0.38796,1.04669 2.95244,2.40768 2.95244,2.40768c0,0 -2.63662,-1.08272 -3.64166,-0.71019c-0.98693,0.36581 -2.33521,2.9256 -2.33521,2.9256c0,0 1.29562,-2.95147 0.90599,-4.00265c-0.34283,-0.92491 -3.1214,-1.97424 -3.1214,-1.97424c0,0 2.59303,0.81048 3.62013,0.42977c0.96077,-0.35612 2.35676,-2.64518 2.35676,-2.64518z" fill="#ffffff" stroke="none" stroke-width="0" stroke-linecap="butt"/><path d="M376.5995,310.2025c0,-19.8318 16.07685,-35.90864 35.90864,-35.90864c19.8318,0 35.90864,16.07684 35.90864,35.90864c0,19.8318 -16.07685,35.90864 -35.90864,35.90864c-19.8318,0 -35.90864,-16.07685 -35.90864,-35.90864z" fill="url(#color-3)" stroke="none" stroke-width="0" stroke-linecap="butt"/><g fill="#dcbe3a" stroke="none" stroke-width="0" stroke-linecap="butt"><path d="M428.44009,298.11713c0.17507,0.48692 5.3493,-1.61757 4.7151,-0.22799c-0.49063,1.07501 -2.25254,1.15868 -3.78345,2.72503c-0.80524,0.82387 -1.87957,4.72551 -2.80173,5.64825c-4.8971,4.90028 -7.21927,8.78174 -12.04444,10.51663c-7.23772,2.60231 -16.64825,4.31191 -18.92451,3.63897c-0.43346,-0.12814 -4.18021,-0.393 -3.76117,-1.10021c0.32779,-0.55322 1.90151,-1.19755 1.81698,-1.43266c-0.20764,-0.57751 2.65893,-0.85631 3.1874,-1.61954c1.40601,-2.03055 5.99337,-8.07863 13.03917,-10.61195c3.58139,-1.28768 7.5879,-1.9454 10.50893,-2.54218c2.35627,-0.4814 1.44254,-3.66782 2.48583,-5.1401c1.1642,-1.64291 5.30915,-0.55723 5.56191,0.14576z" data-paper-data="{&quot;index&quot;:null}"/><path d="M413.13119,311.79926c1.73266,-4.85189 5.24091,-4.12238 6.12781,-3.80566c0.88691,0.31672 3.39461,-1.98655 1.66195,2.86535c-0.57121,1.59955 -7.7377,9.71612 -8.33557,10.9592c-1.21565,2.52754 -3.46028,1.09206 -4.05479,0.87976c-0.88691,-0.31672 2.86795,-6.04675 4.60061,-10.89865z" data-paper-data="{&quot;index&quot;:null}"/></g></g></g></svg>