<svg version="1.1" xmlns="http://www.w3.org/2000/svg" xmlns:xlink="http://www.w3.org/1999/xlink" width="673.47395" height="534.70919" viewBox="0,0,673.47395,534.70919"><defs><linearGradient x1="324.31362" y1="193.06857" x2="324.31362" y2="42.92273" gradientUnits="userSpaceOnUse" id="color-1"><stop offset="0" stop-color="#000000"/><stop offset="1" stop-color="#070b0d"/></linearGradient><linearGradient x1="456.17787" y1="208.77164" x2="435.2262" y2="29.39086" gradientUnits="userSpaceOnUse" id="color-2"><stop offset="0" stop-color="#000000"/><stop offset="1" stop-color="#070b0d"/></linearGradient></defs><g transform="translate(116.00375,86.26441)"><g data-paper-data="{&quot;isPaintingLayer&quot;:true}" fill-rule="nonzero" stroke="none" stroke-linecap="butt" stroke-linejoin="miter" stroke-miterlimit="10" stroke-dasharray="" stroke-dashoffset="0" style="mix-blend-mode: normal"><path d="" data-paper-data="{&quot;index&quot;:null}" fill="#06090b" stroke-width="0"/><path d="" data-paper-data="{&quot;index&quot;:null}" fill="#06090b" stroke-width="0"/><path d="" data-paper-data="{&quot;index&quot;:null}" fill="#000000" stroke-width="0"/><path d="" data-paper-data="{&quot;index&quot;:null}" fill="url(#color-1)" stroke-width="0"/><path d="" data-paper-data="{&quot;index&quot;:null}" fill="#344e5f" stroke-width="0"/><path d="" data-paper-data="{&quot;index&quot;:null}" fill="#344e5f" stroke-width="0"/><path d="" data-paper-data="{&quot;index&quot;:null}" fill="#344e5f" stroke-width="0"/><path d="" data-paper-data="{&quot;index&quot;:null}" fill="#344e5f" stroke-width="0"/><path d="" data-paper-data="{&quot;index&quot;:null}" fill="#344e5f" stroke-width="0"/><path d="" data-paper-data="{&quot;index&quot;:null}" fill="#344e5f" stroke-width="0"/><path d="" data-paper-data="{&quot;index&quot;:null}" fill="#344e5f" stroke-width="0"/><path d="" data-paper-data="{&quot;index&quot;:null}" fill="#344e5f" stroke-width="0"/><path d="" data-paper-data="{&quot;index&quot;:null}" fill="#344e5f" stroke-width="0"/><path d="" data-paper-data="{&quot;index&quot;:null}" fill="#344e5f" stroke-width="0"/><path d="" data-paper-data="{&quot;index&quot;:null}" fill="#344e5f" stroke-width="0"/><path d="" data-paper-data="{&quot;index&quot;:null}" fill="#344e5f" stroke-width="0"/><path d="" data-paper-data="{&quot;index&quot;:null}" fill="#344e5f" stroke-width="0"/><path d="" data-paper-data="{&quot;index&quot;:null}" fill="#344e5f" stroke-width="0"/><path d="" data-paper-data="{&quot;index&quot;:null}" fill="#344e5f" stroke-width="0"/><path d="" data-paper-data="{&quot;index&quot;:null}" fill="#344e5f" stroke-width="0"/><path d="" data-paper-data="{&quot;index&quot;:null}" fill="#344e5f" stroke-width="0"/><path d="" data-paper-data="{&quot;index&quot;:null}" fill="#344e5f" stroke-width="0"/><path d="" data-paper-data="{&quot;index&quot;:null}" fill="#344e5f" stroke-width="0"/><path d="" data-paper-data="{&quot;index&quot;:null}" fill="#344e5f" stroke-width="0"/><path d="" data-paper-data="{&quot;index&quot;:null}" fill="#344e5f" stroke-width="0"/><path d="" fill="#000000" stroke-width="0.5"/><path d="M-116.00375,448.44478v-534.70919z" fill="none" stroke-width="0"/><path d="" data-paper-data="{&quot;index&quot;:null}" fill="#000000" stroke-width="0"/><path d="" data-paper-data="{&quot;index&quot;:null}" fill="#000000" stroke-width="0"/><path d="M409.43159,422.72934c11.03299,0.09143 -27.58998,-102.44627 -16.82457,-102.08202c0.06777,0.00229 0.23569,-7.95216 4.41536,-14.43844c4.9964,-7.75374 1.47429,-28.12057 4.39857,-42.52303c0.51825,-2.55245 4.20812,-31.96155 4.64297,-34.61848c0.80544,-4.92125 -2.15259,-12.46063 -1.3775,-17.19891c5.04188,-30.82232 2.88152,-38.81557 4.70047,-42.78651c19.29893,-42.13133 51.04034,-44.52388 53.30393,-44.58152c24.56055,-0.62534 44.45114,8.52597 56.51192,32.22793c8.621,16.94208 21.13771,25.30493 24.95614,46.67239c0.17308,0.96856 3.45259,7.99138 7.30187,9.2903c4.04231,1.36406 2.54758,7.87935 1.84621,10.54231c-0.74258,2.81944 0.80082,4.5994 -4.41605,7.81747c-4.42134,2.72735 -9.70161,-3.77681 -9.5677,-2.86812c2.42944,16.48596 10.58221,28.52555 11.35529,42.31347c1.3368,23.84215 -5.91339,44.82441 -5.91339,44.82441c0,0 9.4823,34.78534 9.4823,43.90131c0,6.47371 -10.13043,18.80083 -11.79022,27.45879c-2.77967,14.49958 3.66253,55.29879 3.66253,55.29879z" data-paper-data="{&quot;index&quot;:null}" fill="#000000" stroke-width="0"/><path d="" data-paper-data="{&quot;index&quot;:null}" fill="#000000" stroke-width="0"/><path d="" data-paper-data="{&quot;index&quot;:null}" fill="#000000" stroke-width="0"/><path d="" data-paper-data="{&quot;index&quot;:null}" fill="#000000" stroke-width="0"/><path d="" data-paper-data="{&quot;index&quot;:null}" fill="#000000" stroke-width="0"/><path d="" data-paper-data="{&quot;index&quot;:null}" fill="#000000" stroke-width="0"/><path d="" data-paper-data="{&quot;index&quot;:null}" fill="#000000" stroke-width="0"/><path d="" data-paper-data="{&quot;index&quot;:null}" fill="#000000" stroke-width="0"/><path d="" data-paper-data="{&quot;index&quot;:null}" fill="#000000" stroke-width="0"/><path d="M534.5703,42.15568c0.67788,5.80376 -1.03232,18.87187 -0.15999,35.20008c0.30474,5.70409 8.5758,11.12872 9.42263,17.45781c1.06526,7.96157 -5.27848,16.95987 -5.10541,25.30049c0.10443,5.03291 -3.137,11.39781 -2.9375,16.30199c0.16957,4.16849 5.73163,11.60607 5.84339,15.47945c0.065,2.25271 0.75246,9.57575 4.38316,13.56864c4.20745,4.62717 11.43839,5.94352 11.45353,8.18942c0.04455,6.6071 -15.64329,4.09085 -15.95338,8.23723c-0.09673,1.29346 4.88984,-0.70108 7.21627,1.93536c2.46654,2.79522 2.27903,10.20775 2.08503,10.89216c-6.87571,24.25709 -76.68712,11.95643 -94.64015,14.05334c-16.15002,1.88633 -36.86466,10.09079 -48.83363,-8.07708c-4.02781,-6.11387 -2.49406,-20.0697 -4.52236,-31.50254c-2.86083,-16.12552 -8.5662,-30.94333 -10.08243,-43.92474c-1.50993,-12.92749 -4.54565,-89.1776 -2.93544,-100.61997c1.06504,-7.56829 -41.52923,-45.27928 -38.16711,-52.66914c11.03195,-24.24795 77.20397,-15.14312 93.7715,-17.07821c16.83056,-1.96581 59.04585,-1.50652 78.4002,19.14158c14.28224,15.23695 8.30507,47.0815 10.76168,68.11412z" fill="url(#color-2)" stroke-width="0"/><path d="M392.61359,239.29834c4.10766,-4.42061 2.7839,0.81276 4.70477,2.59764c1.92086,1.78487 13.03584,6.43804 8.92819,10.85866c-4.10766,4.42061 -9.33491,-6.11151 -11.25577,-7.89639c-1.92086,-1.78487 -6.48485,-1.1393 -2.37719,-5.55991z" data-paper-data="{&quot;index&quot;:null}" fill="#000000" stroke-width="0"/></g></g></svg>