<svg version="1.1" xmlns="http://www.w3.org/2000/svg" xmlns:xlink="http://www.w3.org/1999/xlink" width="664.43813" height="532.69785" viewBox="0,0,664.43813,532.69785"><defs><linearGradient x1="9.14039" y1="-34.04395" x2="9.14039" y2="287.41035" gradientUnits="userSpaceOnUse" id="color-1"><stop offset="0" stop-color="#344e5f"/><stop offset="1" stop-color="#070b0d"/></linearGradient><linearGradient x1="509.97276" y1="11.3643" x2="509.97276" y2="290.14855" gradientUnits="userSpaceOnUse" id="color-2"><stop offset="0" stop-color="#344e5f"/><stop offset="1" stop-color="#070b0d"/></linearGradient></defs><g transform="translate(101.18606,85.62125)"><g data-paper-data="{&quot;isPaintingLayer&quot;:true}" fill-rule="nonzero" stroke="none" stroke-width="0" stroke-linecap="butt" stroke-linejoin="miter" stroke-miterlimit="10" stroke-dasharray="" stroke-dashoffset="0" style="mix-blend-mode: normal"><path d="" data-paper-data="{&quot;index&quot;:null}" fill="#344e5f"/><path d="" data-paper-data="{&quot;index&quot;:null}" fill="#344e5f"/><path d="" data-paper-data="{&quot;index&quot;:null}" fill="#344e5f"/><path d="" data-paper-data="{&quot;index&quot;:null}" fill="#344e5f"/><path d="" data-paper-data="{&quot;index&quot;:null}" fill="#344e5f"/><path d="" data-paper-data="{&quot;index&quot;:null}" fill="#344e5f"/><path d="" data-paper-data="{&quot;index&quot;:null}" fill="#344e5f"/><path d="" data-paper-data="{&quot;index&quot;:null}" fill="#344e5f"/><path d="" data-paper-data="{&quot;index&quot;:null}" fill="#344e5f"/><path d="" data-paper-data="{&quot;index&quot;:null}" fill="#344e5f"/><path d="" data-paper-data="{&quot;index&quot;:null}" fill="#344e5f"/><path d="" data-paper-data="{&quot;index&quot;:null}" fill="#344e5f"/><path d="" data-paper-data="{&quot;index&quot;:null}" fill="#344e5f"/><path d="" data-paper-data="{&quot;index&quot;:null}" fill="#344e5f"/><path d="" data-paper-data="{&quot;index&quot;:null}" fill="#344e5f"/><path d="" data-paper-data="{&quot;index&quot;:null}" fill="#344e5f"/><path d="" data-paper-data="{&quot;index&quot;:null}" fill="#344e5f"/><path d="" data-paper-data="{&quot;index&quot;:null}" fill="#344e5f"/><path d="" data-paper-data="{&quot;index&quot;:null}" fill="#344e5f"/><path d="" data-paper-data="{&quot;index&quot;:null}" fill="#344e5f"/><path d="" data-paper-data="{&quot;index&quot;:null}" fill="#344e5f"/><path d="M-66.07292,398.74132c0,-6.12723 4.59792,-333.32891 1.8858,-360.09893c-7.72417,-76.24181 16.77027,-72.45326 92.51364,-84.09023c26.45539,-4.06452 65.9883,11.5604 75.49623,11.40434c3.90729,-0.06413 20.00566,1.81242 22.96405,11.00735c6.25331,19.43582 -1.97473,54.65928 2.47788,54.60192c2.68485,-0.03459 -3.33353,61.65836 1.90477,79.26519c8.15416,27.4075 9.56049,65.46559 7.13065,73.20843c-1.75045,5.57793 -2.31035,16.73438 -2.05545,31.21686c0.04883,2.77433 2.00274,6.32807 1.21211,10.03207c-1.42261,6.66473 -5.50767,13.81592 -1.37501,17.78841c2.19815,2.11295 8.30926,3.17823 9.49064,6.4332c1.20117,3.30951 -0.93664,7.32431 -1.65556,11.8074c-0.51901,3.23648 0.36733,6.88349 0.62155,9.89493c0.34956,4.14078 -4.14966,10.75212 -3.76719,14.94401c0.29498,3.23298 0.59861,6.47435 0.90914,9.71361c0.5757,6.00534 4.65167,12.69874 5.26366,18.62266c0.54542,5.27961 -0.32699,14.31705 0.16379,19.41815c2.98227,30.99771 4.71769,82.58377 -6.28658,105.312c-4.69069,9.68816 -27.81655,7.99179 -27.81655,7.25312c0,0 -131.86807,-9.17505 -148.76937,-12.28117c-39.50204,-7.25968 -30.3082,-35.45332 -30.3082,-35.45332z" data-paper-data="{&quot;index&quot;:null}" fill="url(#color-1)"/><path d="M427.08106,364.37802c-2.44545,12.91792 -0.20018,24.75594 -6.53349,23.557c-2.26088,-0.42799 -0.74083,-7.45743 -4.45647,-10.71152c-1.1413,-0.99954 -0.99756,4.87535 -2.4764,4.11309c-2.6259,-1.3535 -4.61918,0.98395 -3.92485,-1.88751c0.22674,-0.93769 4.49701,-6.13806 8.387,-6.74802c0.67414,-0.10572 -2.82706,-6.18732 -5.64811,-5.99263c-1.93908,0.13382 -2.8669,6.94432 -4.67171,5.77049c-4.28609,-2.78762 1.22065,-8.4125 1.44304,-9.50678c0.21009,-1.03375 0.65817,-0.0533 3.6938,0.14967c5.9149,0.39549 9.11404,-1.82469 9.20892,-2.32587c0.15528,-0.82025 -12.81797,-0.60483 -16.78844,-3.36973c-1.24437,-0.86652 7.63033,-1.01289 8.35754,-2.39858c1.02988,-1.96238 -5.60856,-5.14781 -5.5602,-5.47901c0.73377,-5.02526 11.60609,5.27447 15.82932,4.27728c1.07212,-0.25315 -2.83626,-4.76908 -6.35312,-9.11041c-0.69921,-0.86311 -10.01219,0.04093 -10.63822,-0.77351c-0.96362,-1.25362 2.23739,-2.06064 4.0072,-3.45957c1.52282,-1.20371 1.58753,-3.06794 1.65452,-3.451c0.31215,-1.7847 7.82964,5.88663 11.69702,7.30502c3.93981,1.44495 4.23563,-3.34405 5.09488,-3.18138c6.3333,1.19893 0.12321,10.30503 -2.32223,23.22296z" data-paper-data="{&quot;index&quot;:null}" fill="#10171d"/><path d="M415.45955,331.19453c0.01092,-0.06782 -1.9878,0.96606 -3.99473,1.52075c-1.4766,0.40812 -3.07509,0.37982 -3.28229,0.36474c-2.28624,-0.16646 -2.43136,-3.99143 -2.13162,-4.72114c0.22395,-0.54521 5.01783,2.17912 7.30114,1.20134c2.76647,-1.18469 3.15537,-3.82346 3.71399,-4.16891c0.93846,-0.58035 2.66471,-0.09378 3.42974,0.0294c0.68533,0.11035 0.89878,1.25718 0.99017,2.47668c0.08901,1.18774 0.0487,2.43542 1.21611,3.52591c1.37015,1.27987 2.61615,1.29684 4.04946,2.33125c0.55945,0.40375 1.36626,0.6617 1.79423,1.88011c0.38159,1.08639 0.39178,3.09581 0.75736,4.15412c0.27484,0.79563 1.30005,2.30039 1.29679,2.32062c-0.05848,0.36318 0.65146,1.42278 -0.22366,1.26205c-0.53853,-0.09891 -0.45037,0.12791 -1.35221,-0.39397c-0.3973,-0.22991 -1.11576,-1.18909 -1.3802,-2.27678c-0.19906,-0.81875 0.2598,-2.42005 -0.54007,-2.83506c-0.0867,-0.04499 -0.32536,0.96092 -0.51782,1.66206c-0.22071,0.80406 -0.68278,1.76149 -1.11897,1.36903c-0.40296,-0.36255 -0.26297,-2.12327 -0.30938,-3.29098c-0.05224,-1.31441 -0.6671,-2.08185 -1.79412,-2.76026c-0.60921,-0.36672 -1.71574,-0.32121 -1.95916,-0.38395c-0.48334,-0.12455 -0.50195,4.63637 0.78247,7.20404c1.28442,2.56767 5.28663,4.57358 5.27292,4.90121c-0.07155,1.70997 -3.61851,0.57327 -5.51493,0.74053c-1.29021,0.11379 -0.78062,-5.62181 -2.07393,-5.69201c-0.3767,-0.02045 -1.07152,0.91658 -1.67444,1.38294c-1.15775,0.89552 -0.93248,2.83759 -1.87792,4.0388c-0.9551,1.21349 -3.66249,1.09824 -3.62206,0.66878c0.12378,-1.31465 1.78723,-3.71825 1.96456,-5.42989c0.16456,-1.5883 -1.42015,-1.64236 -1.17862,-2.62636c0.30229,-1.23156 4.42367,0.31304 4.89768,-0.30375c0.85697,-1.11513 -0.66669,-5.05473 -1.01279,-5.02989c-1.45299,0.1043 -1.10199,1.05355 -2.13772,1.88382c-1.12148,0.89901 -3.99399,1.77182 -3.77972,3.33451c0.11516,0.83982 0.03732,1.39835 -0.06346,2.11061c-0.10394,0.73453 -0.23484,1.61699 -0.3743,2.09677c-0.21003,0.72254 -2.30936,1.64919 -2.3544,1.63748c-1.01513,-0.26389 1.21593,-4.36679 0.54186,-4.38488c-1.18818,-0.03189 -3.52693,6.08281 -5.26113,6.50724c-0.97287,0.2381 0.6156,-3.55365 -0.07766,-4.45102c-1.1316,-1.46476 -4.25124,-0.5453 -4.12374,-1.37133c0.08586,-0.55621 4.07547,-0.28022 6.70265,-1.63347c2.67972,-1.38031 3.43624,-5.10971 3.52496,-5.16796c0.36105,-0.23706 2.19793,-0.43563 3.55596,-1.43459c1.11781,-0.82225 1.8824,-1.89703 1.93901,-2.24862z" data-paper-data="{&quot;index&quot;:null}" fill="#10171d"/><path d="M364.16813,394.39375c0,3.92001 16.68107,-104.74668 18.5829,-162.44383c0.34209,-10.37821 21.4128,-2.41999 20.61545,-8.54815c-0.05662,-0.4352 9.94173,-7.79171 10.68648,-11.01009c0.46696,-2.01793 -11.9393,-11.98275 -12.83391,-12.02355c-1.44117,-0.06572 -2.03271,-12.48565 -3.56721,-13.29961c-2.43743,-1.29291 -4.83972,5.77111 -8.40566,9.56638c-3.5547,3.78331 -12.44849,-0.57058 -12.60494,-1.00294c-1.12762,-3.11626 2.26081,-9.85849 3.67784,-19.31101c0.27954,-1.86471 -3.31135,-5.21873 -3.09489,-7.25621c1.0507,-9.89011 5.52911,-20.13478 9.15266,-30.69746c2.80052,-8.16354 -8.22129,-12.19517 -12.11349,-18.60174c-3.38806,-5.57673 0.33443,-14.10531 1.58389,-14.09135c0.71343,0.00797 7.96799,-1.31038 13.16906,-5.85649c3.66259,-3.20136 4.3322,-9.37338 9.57765,-11.8464c10.52386,-4.96158 4.0163,-36.32797 5.88074,-43.92194c8.01923,-32.66278 21.9049,-41.15428 29.94641,-41.03981c20.13789,0.28666 30.06323,-8.59015 70.04551,0.45981c9.88186,2.23675 8.96637,202.77342 6.25151,319.89782c-0.97505,42.06551 -19.9267,97.79971 -61.9337,100.22244c-39.75141,2.29265 -13.33814,8.25533 -28.03089,8.44602c-10.83898,0.14068 -33.26405,0.68624 -42.78485,-4.35751c-14.41749,-7.63783 -13.80058,-33.28439 -13.80058,-33.28439z" data-paper-data="{&quot;index&quot;:null}" fill="url(#color-2)"/><path d="M-101.18606,433.87318v-519.49444h664.43813v519.49444z" fill="none"/></g></g></svg>