<svg version="1.1" xmlns="http://www.w3.org/2000/svg" xmlns:xlink="http://www.w3.org/1999/xlink" width="754.31291" height="609.28711" viewBox="0,0,754.31291,609.28711"><g transform="translate(153.56562,145.24086)"><g data-paper-data="{&quot;isPaintingLayer&quot;:true}" fill-rule="nonzero" stroke="none" stroke-width="0" stroke-linecap="butt" stroke-linejoin="miter" stroke-miterlimit="10" stroke-dasharray="" stroke-dashoffset="0" style="mix-blend-mode: normal"><path d="M-119.37142,442.61492v-541.27885h720.11871v541.27885z" fill="none"/><path d="M-153.56562,464.04625v-522.53727h694.92685v522.53727z" fill="none"/><path d="M550.78136,313.79381c0,25.49161 -22.33131,14.91069 -45.6459,15.54233c-9.78381,0.26507 -4.33267,20.36334 -13.90969,20.36334c-7.24331,0 -23.29358,15.80577 -38.30701,20.32141c-12.49585,3.75842 -24.4381,-3.26821 -28.46124,-6.2865c-1.94165,-1.45669 24.18392,-9.91053 22.68375,-12.67808c-0.48858,-0.90134 -10.04648,-5.81287 -15.35558,-7.11757c-6.93335,-1.70386 -5.06843,-7.0648 -6.50157,-12.6473c-2.52273,-9.82678 -5.14299,-22.58936 -11.57795,-33.38476c-2.99401,-5.02281 13.90591,-11.26398 6.99639,-13.32129c-6.65516,-1.98158 -10.38535,-10.52866 -10.47382,-13.58462c-0.21218,-7.32869 -3.50995,-12.58585 -3.50995,-18.30022c0,-5.91037 3.10281,-8.28144 3.64669,-13.79291c0.9552,-9.67974 0.20908,-22.34347 5.21362,-32.90838c1.57756,-3.33034 9.84507,-9.85735 11.37493,-13.14027c2.90319,-6.22997 7.47319,-11.34136 8.70497,-17.62752c1.0197,-5.20387 -1.29989,-11.71875 0.67665,-15.80612c0.73839,-1.52696 1.84131,-5.23566 3.67653,-6.19917c1.71591,-0.90087 4.16543,0.93518 4.95002,-0.20409c1.82804,-2.65438 17.81305,-10.47109 37.12525,-11.90955c3.91675,-0.29174 32.86241,-19.04891 36.99926,-19.9393c15.18276,-3.26785 27.12601,3.55263 28.93124,3.94581c29.22501,6.36527 2.76339,158.86312 2.76339,188.67474z" fill="#344e5f"/><path d="M421.006,222.01732c0.51379,18.68264 5.24835,32.78954 -1.09774,33.15309c-0.86099,0.04934 -0.45618,-6.7492 -4.50514,-5.53957c-3.97451,1.1874 -12.41149,10.40839 -12.45742,7.83262c-0.00985,-0.55285 0.19688,-3.18878 -1.11308,-5.20016c-1.52243,-2.33759 -4.52541,-4.14151 -3.40481,-5.70369c0.72801,-1.01491 9.67381,2.20223 10.48019,1.13414c4.05592,-5.37236 8.5187,-10.90853 7.51043,-11.4886c-3.97172,-2.28496 -16.0588,9.93264 -16.04665,2.71027c0.0008,-0.47599 6.93179,-3.57027 6.21206,-6.5459c-0.5082,-2.10116 -9.13649,-4.16092 -7.79829,-5.11994c4.26986,-3.06 16.88269,-0.04695 16.85008,-1.23324c-0.01993,-0.72485 -2.81656,-4.51626 -8.6386,-5.1955c-2.98798,-0.3486 -3.56657,0.93701 -3.62172,-0.56107c-0.05836,-1.58578 -4.61128,-10.6487 -0.03052,-13.67474c1.92891,-1.27424 1.8475,8.5 3.718,9.0933c2.72128,0.86317 7.01381,-6.96053 6.37208,-7.25005c-3.70298,-1.67064 -7.11226,-9.87808 -7.19752,-11.2445c-0.26112,-4.18436 1.34329,-0.47986 4.09843,-1.83529c1.55163,-0.76336 0.56127,7.47089 1.81827,6.30323c1.198,-1.11282 4.59454,-12.01934 6.35255,-13.04544c4.24732,-2.47901 7.49319,5.36031 9.09545,5.26851c6.3461,-0.36358 -7.10984,9.45991 -6.59605,28.14255z" data-paper-data="{&quot;index&quot;:null}" fill="#344e5f"/><path d="M360.12189,188.56932c0.65932,-0.55873 6.62537,-2.22852 8.3553,1.00639c0.85073,1.59086 -2.68435,7.04731 -1.81846,9.17592c2.62661,6.45704 3.95856,12.36718 2.97499,13.20069c-0.98357,0.83351 -3.91021,-3.72526 -6.53682,-10.1823c-1.2277,-3.01807 -6.19922,-5.18042 -6.75698,-7.49698c-0.63555,-2.63963 3.25814,-5.2598 3.78198,-5.70371z" data-paper-data="{&quot;index&quot;:null}" fill="#344e5f"/><path d="M368.42843,205.71918c1.0144,-7.91119 1.59219,-4.13797 7.47293,-7.40585c4.80872,-2.67215 3.37503,-6.49139 11.29317,-3.62368c0.765,0.27706 9.57238,4.54683 10.37203,4.62287c7.85313,0.74685 9.00574,-11.4805 12.61891,-12.35754c6.97824,-1.69386 28.42647,-16.0291 29.85643,-9.80193c2.14467,9.33957 -18.0089,41.49764 -17.66824,44.42139c0.56781,4.87317 2.69948,-14.03801 -14.74478,-9.80367c-7.94228,1.92788 -11.62278,-1.27393 -20.87336,-0.00898c-11.06722,1.51335 -27.12019,7.12966 -27.42948,4.47523c-0.16269,-1.39622 8.01373,-2.02756 9.10238,-10.51784z" data-paper-data="{&quot;index&quot;:null}" fill="#344e5f"/><path d="M389.67824,175.50052c0.74935,0.21902 5.96444,4.72237 5.75696,8.79783c-0.10204,2.00422 -5.25767,2.6625 -5.59708,5.08177c-1.02959,7.33876 -2.77045,13.02316 -3.88833,12.69644c-1.11789,-0.32672 -1.18947,-6.54081 -0.15989,-13.87958c0.48124,-3.4302 -2.22128,-9.82941 -1.56549,-12.09185c0.74722,-2.57798 4.85846,-0.77859 5.45383,-0.60459z" data-paper-data="{&quot;index&quot;:null}" fill="#344e5f"/><path d="M365.33023,214.54876c-0.01064,-0.0544 -0.79585,1.40999 -1.70039,2.5196c-0.66551,0.8164 -1.49885,1.34934 -1.60961,1.4099c-1.22214,0.66821 -2.21574,-2.13614 -2.23599,-2.78464c-0.01513,-0.48453 3.11793,-0.11293 4.06377,-1.6341c1.14598,-1.84306 0.71338,-3.94723 0.91927,-4.39867c0.34589,-0.75841 1.35534,-0.99362 1.78051,-1.16686c0.38087,-0.15519 0.76665,0.62673 1.10677,1.50519c0.33126,0.85558 0.61004,1.80073 1.47556,2.20994c1.01583,0.48028 1.66419,0.06106 2.65373,0.33626c0.38624,0.10741 0.86537,0.02027 1.37927,0.78126c0.45821,0.67853 0.94603,2.17467 1.38921,2.8378c0.33319,0.49853 1.22466,1.26621 1.22783,1.28244c0.05698,0.29132 0.67854,0.83605 0.18743,1.01942c-0.30222,0.11284 -0.20216,0.25157 -0.79381,0.17467c-0.26065,-0.03388 -0.86249,-0.5007 -1.26044,-1.22081c-0.29955,-0.54205 -0.44683,-1.89619 -0.96009,-1.92867c-0.05563,-0.00353 0.06253,0.82993 0.13138,1.41992c0.07897,0.67659 0.06997,1.5513 -0.24983,1.40959c-0.29543,-0.13091 -0.64588,-1.49349 -0.9503,-2.34889c-0.34266,-0.96287 -0.84489,-1.3225 -1.59057,-1.43817c-0.40308,-0.06253 -0.96431,0.35498 -1.10525,0.39252c-0.27984,0.07458 0.85387,3.63421 2.13463,5.10531c1.28076,1.47111 3.83194,1.58094 3.90353,1.83021c0.37365,1.30099 -1.73339,1.68207 -2.67382,2.46423c-0.63981,0.53213 -1.75371,-3.9251 -2.43931,-3.52921c-0.1997,0.11531 -0.33395,1.05547 -0.53371,1.6125c-0.38359,1.06964 0.19927,2.44097 -0.00112,3.66516c-0.20245,1.23671 -1.63006,2.08911 -1.71228,1.75459c-0.25171,-1.02406 0.03121,-3.39449 -0.28814,-4.73339c-0.29633,-1.24242 -1.12874,-0.73348 -1.24016,-1.55158c-0.13945,-1.02392 2.36256,-1.29968 2.45954,-1.9243c0.17532,-1.12928 -1.55861,-3.54137 -1.73161,-3.40287c-0.72627,0.58147 -0.31681,1.16825 -0.65298,2.1469c-0.364,1.05967 -1.63971,2.70672 -1.15364,3.79872c0.26123,0.58686 0.35511,1.03068 0.47405,1.59719c0.12265,0.58422 0.26689,1.28819 0.30999,1.6946c0.06491,0.61205 -0.79807,2.03128 -0.82417,2.03816c-0.58827,0.15491 -0.41994,-3.68049 -0.77283,-3.46035c-0.62204,0.38804 -0.36293,5.76222 -1.15772,6.68008c-0.44587,0.51491 -0.53508,-2.86554 -1.10906,-3.29497c-0.93689,-0.70095 -2.32918,1.06657 -2.46162,0.4059c-0.08918,-0.44487 2.04004,-1.62175 3.07353,-3.54233c1.05415,-1.95899 0.54972,-5.00454 0.58161,-5.07876c0.12976,-0.30207 1.03189,-1.08696 1.4942,-2.30321c0.38053,-1.00111 0.51778,-2.06826 0.46262,-2.35028z" data-paper-data="{&quot;index&quot;:null}" fill="#344e5f"/><path d="M417.48853,185.1182c0.0179,0.06717 0.89453,-1.92204 1.9512,-3.48165c0.77745,-1.14749 1.79066,-1.96399 1.92617,-2.0595c1.49514,-1.05372 2.98233,2.33352 3.06062,3.15222c0.0585,0.6117 -3.94357,0.67024 -5.01922,2.75859c-1.30325,2.53025 -0.58408,5.12467 -0.80847,5.73179c-0.37696,1.01994 -1.6376,1.48877 -2.16254,1.78027c-0.47025,0.26113 -1.02277,-0.66494 -1.52524,-1.72111c-0.48938,-1.02866 -0.9195,-2.17973 -2.04997,-2.5522c-1.32679,-0.43715 -2.11473,0.20392 -3.39154,0.02232c-0.49837,-0.07088 -1.09871,0.12058 -1.81195,-0.75728c-0.63595,-0.78274 -1.37579,-2.59701 -1.99145,-3.36276c-0.46284,-0.57569 -1.65531,-1.39821 -1.66065,-1.41824c-0.09587,-0.35969 -0.92804,-0.94519 -0.32033,-1.26068c0.37397,-0.19415 0.23588,-0.35309 0.99218,-0.35562c0.33319,-0.00112 1.13405,0.48896 1.69697,1.3346c0.42374,0.63655 0.72034,2.32834 1.37365,2.28276c0.07081,-0.00494 -0.14661,-1.04157 -0.28178,-1.77788c-0.15502,-0.84439 -0.21458,-1.95482 0.20234,-1.82923c0.38515,0.11601 0.93999,1.78419 1.39533,2.81715c0.51254,1.16274 1.17843,1.53377 2.13314,1.55435c0.51607,0.01113 1.1937,-0.61302 1.36932,-0.68445c0.34871,-0.14185 -1.37738,-4.4629 -3.12044,-6.11138c-1.74306,-1.64848 -4.98621,-1.35645 -5.09719,-1.66035c-0.57926,-1.58616 2.061,-2.42546 3.18976,-3.57601c0.76794,-0.78276 2.54176,4.67957 3.3788,4.06179c0.24381,-0.17994 0.33771,-1.39452 0.54575,-2.13447c0.3995,-1.42088 -0.4507,-3.06084 -0.29599,-4.64668c0.1563,-1.60205 1.89697,-2.92402 2.02836,-2.51382c0.4022,1.25569 0.23588,4.30862 0.74939,5.95202c0.4765,1.52498 1.49047,0.73906 1.6981,1.75736c0.25987,1.2745 -2.88966,2.04705 -2.96192,2.8553c-0.13063,1.46128 2.26329,4.22607 2.47136,4.02124c0.87353,-0.85993 0.30684,-1.5346 0.65359,-2.8321c0.37547,-1.40492 1.85909,-3.70862 1.15427,-5.01083c-0.37879,-0.69983 -0.53382,-1.24661 -0.73058,-1.94469c-0.2029,-0.71991 -0.44288,-1.58799 -0.53051,-2.09592c-0.13196,-0.76494 0.84692,-2.71006 0.87945,-2.72318c0.73321,-0.29583 0.83104,4.59492 1.26055,4.25619c0.7571,-0.59709 -0.00748,-7.36637 0.92563,-8.66434c0.52347,-0.72815 0.91089,3.54232 1.67337,3.9897c1.24461,0.73025 2.86625,-1.74588 3.08777,-0.9307c0.14915,0.54891 -2.45466,2.40083 -3.60899,5.01034c-1.17743,2.66169 -0.2908,6.43741 -0.32521,6.53689c-0.13999,0.40488 -1.21997,1.55242 -1.70737,3.17248c-0.40118,1.33348 -0.48858,2.70955 -0.39577,3.05776z" data-paper-data="{&quot;index&quot;:null}" fill="#344e5f"/><path d="M458.331,145.46118c0.01791,0.06717 0.89453,-1.92204 1.9512,-3.48166c0.77745,-1.14749 1.79066,-1.96399 1.92617,-2.0595c1.49514,-1.05372 2.98233,2.33351 3.06062,3.15222c0.0585,0.61169 -3.94357,0.67024 -5.01922,2.75859c-1.30325,2.53025 -0.58408,5.12467 -0.80847,5.73179c-0.37696,1.01994 -1.6376,1.48877 -2.16254,1.78027c-0.47026,0.26112 -1.02277,-0.66494 -1.52524,-1.7211c-0.48938,-1.02867 -0.9195,-2.17974 -2.04997,-2.5522c-1.32679,-0.43715 -2.11473,0.20392 -3.39154,0.02232c-0.49836,-0.07088 -1.09871,0.12059 -1.81195,-0.75728c-0.63595,-0.78274 -1.37579,-2.59701 -1.99145,-3.36277c-0.46284,-0.57569 -1.65531,-1.3982 -1.66065,-1.41824c-0.09587,-0.35969 -0.92805,-0.94519 -0.32033,-1.26068c0.37398,-0.19414 0.23587,-0.35309 0.99218,-0.35562c0.33319,-0.00112 1.13405,0.48896 1.69697,1.3346c0.42374,0.63655 0.72034,2.32834 1.37365,2.28276c0.07082,-0.00493 -0.14661,-1.04157 -0.28178,-1.77788c-0.15502,-0.8444 -0.21458,-1.95482 0.20234,-1.82923c0.38515,0.11602 0.93999,1.78419 1.39533,2.81715c0.51255,1.16274 1.17843,1.53377 2.13314,1.55435c0.51607,0.01114 1.1937,-0.61302 1.36932,-0.68445c0.34871,-0.14186 -1.37739,-4.46291 -3.12045,-6.11139c-1.74306,-1.64848 -4.98621,-1.35644 -5.09719,-1.66035c-0.57926,-1.58616 2.061,-2.42547 3.18976,-3.57602c0.76794,-0.78276 2.54176,4.67957 3.37881,4.06179c0.24381,-0.17994 0.33771,-1.39452 0.54575,-2.13447c0.3995,-1.42088 -0.4507,-3.06084 -0.29599,-4.64667c0.1563,-1.60205 1.89697,-2.92402 2.02836,-2.51382c0.4022,1.25569 0.23588,4.30861 0.74939,5.95201c0.4765,1.52497 1.49047,0.73906 1.6981,1.75737c0.25987,1.2745 -2.88966,2.04704 -2.96192,2.8553c-0.13063,1.46128 2.2633,4.22607 2.47137,4.02124c0.87354,-0.85993 0.30683,-1.5346 0.65359,-2.83211c0.37547,-1.40492 1.85909,-3.70862 1.15427,-5.01083c-0.37879,-0.69983 -0.53382,-1.2466 -0.73058,-1.94468c-0.2029,-0.71992 -0.44288,-1.58799 -0.5305,-2.09592c-0.13196,-0.76495 0.84692,-2.71006 0.87945,-2.72319c0.73321,-0.29583 0.83104,4.59492 1.26055,4.25619c0.7571,-0.59709 -0.00748,-7.36637 0.92563,-8.66434c0.52347,-0.72814 0.91088,3.54232 1.67338,3.9897c1.24461,0.73025 2.86625,-1.74588 3.08777,-0.9307c0.14915,0.5489 -2.45466,2.40083 -3.609,5.01034c-1.17743,2.66169 -0.29081,6.43741 -0.32521,6.5369c-0.13999,0.40488 -1.21997,1.55241 -1.70737,3.17247c-0.40119,1.33348 -0.48858,2.70956 -0.39577,3.05776z" data-paper-data="{&quot;index&quot;:null}" fill="#344e5f"/><path d="M426.09324,171.83113c-0.03507,-0.09092 -1.01063,3.01362 -2.30433,5.55581c-0.95184,1.87042 -2.28774,3.33599 -2.46831,3.51239c-1.99253,1.94625 -4.59766,-2.46793 -4.82479,-3.61715c-0.1697,-0.85864 5.55182,-2.11391 6.79839,-5.41863c1.51035,-4.00403 0.11618,-7.50794 0.35212,-8.44283c0.39638,-1.57058 2.13536,-2.61081 2.84596,-3.18179c0.63657,-0.5115 1.55773,0.65262 2.4255,2.01765c0.84518,1.32949 1.62271,2.85157 3.29353,3.05393c1.96098,0.2375 2.99899,-0.91095 4.85253,-1.02469c0.72347,-0.0444 1.55608,-0.49424 2.70056,0.55382c1.02047,0.9345 2.33462,3.31542 3.32364,4.23154c0.74354,0.68873 2.56636,1.51728 2.57681,1.54441c0.1878,0.4869 1.46148,1.08158 0.63575,1.71115c-0.50814,0.38742 -0.28808,0.57457 -1.37052,0.79956c-0.47687,0.09912 -1.69232,-0.3681 -2.61707,-1.41403c-0.69611,-0.78731 -1.35845,-3.12263 -2.2874,-2.86614c-0.1007,0.02779 0.35626,1.4483 0.65324,2.4629c0.34058,1.16354 0.58188,2.73591 -0.03266,2.67813c-0.56772,-0.05336 -1.59648,-2.27927 -2.39353,-3.62488c-0.89718,-1.51466 -1.90266,-1.85096 -3.27241,-1.60097c-0.74042,0.13512 -1.62287,1.22707 -1.86427,1.38074c-0.47931,0.30516 2.59907,5.98635 5.32622,7.83627c2.72716,1.84991 7.32933,0.4825 7.53092,0.88512c1.05219,2.10134 -2.60993,4.0758 -4.06431,6.05344c-0.98948,1.34547 -4.29655,-5.95573 -5.40813,-4.82624c-0.32378,0.32898 -0.28756,2.09538 -0.48145,3.21565c-0.37232,2.1512 1.07534,4.25027 1.07665,6.56599c0.00133,2.3394 -2.30503,4.74157 -2.55078,4.19275c-0.75226,-1.68004 -0.94311,-6.09958 -1.9092,-8.30213c-0.89647,-2.04383 -2.23775,-0.62184 -2.67809,-2.01896c-0.55113,-1.74862 3.8495,-3.77658 3.83938,-4.95491c-0.0183,-2.13035 -3.83414,-5.38796 -4.10326,-5.0338c-1.12981,1.48685 -0.22367,2.28689 -0.53782,4.24603c-0.34016,2.12133 -2.14057,5.85379 -0.94851,7.51185c0.64065,0.89107 0.93944,1.6285 1.3192,2.57035c0.39164,0.97131 0.85719,2.14389 1.05401,2.84545c0.29641,1.05654 -0.83174,4.12789 -0.87648,4.1562c-1.00817,0.63816 -1.83542,-6.33528 -2.40276,-5.7246c-1.00005,1.07646 1.04574,10.54422 -0.10782,12.67565c-0.64714,1.19571 -1.80183,-4.8049 -2.95635,-5.22223c-1.88451,-0.68119 -3.8583,3.33855 -4.28998,2.2363c-0.29067,-0.74221 3.17699,-4.15576 4.463,-8.22967c1.31173,-4.15537 -0.48815,-9.30153 -0.45288,-9.45404c0.14354,-0.62065 1.5285,-2.57968 1.99868,-5.04178c0.38701,-2.02657 0.31879,-4.02227 0.13699,-4.49363z" data-paper-data="{&quot;index&quot;:null}" fill="#344e5f"/><path d="M477.95858,121.39372c0.60744,-0.00575 4.88156,-0.63212 5.27188,2.10498c0.34256,2.4021 -3.16106,7.93314 -3.14517,11.43288c0.034,7.48755 -0.86303,13.56615 -2.00357,13.57694c-1.14054,0.01079 -2.09271,-6.05032 -2.12671,-13.53787c-0.0112,-2.46833 -4.9833,-4.54335 -4.81678,-6.53854c0.33861,-4.05711 6.0558,-7.03117 6.82035,-7.03841z" data-paper-data="{&quot;index&quot;:null}" fill="#344e5f"/><path d="M538.994,314.39837c0.51379,-18.68264 -12.94215,-28.50613 -6.59605,-28.14255c1.60226,0.0918 4.84813,-7.74752 9.09545,-5.26851c1.75801,1.0261 5.15455,11.93262 6.35255,13.04544c1.257,1.16766 0.26664,-7.06659 1.81827,-6.30323c2.75514,1.35543 4.35955,-2.34907 4.09843,1.83529c-0.08526,1.36642 -3.49454,9.57386 -7.19752,11.2445c-0.64173,0.28952 3.6508,8.11322 6.37208,7.25005c1.8705,-0.5933 1.78909,-10.36754 3.718,-9.0933c4.58076,3.02604 0.02784,12.08896 -0.03052,13.67474c-0.05515,1.49808 -0.63374,0.21247 -3.62172,0.56107c-5.82204,0.67924 -8.61867,4.47065 -8.6386,5.1955c-0.03261,1.18629 12.58022,-1.82676 16.85008,1.23324c1.3382,0.95902 -7.29009,3.01878 -7.79829,5.11994c-0.71973,2.97563 6.21126,6.06991 6.21206,6.5459c0.01215,7.22237 -12.07493,-4.99523 -16.04665,-2.71027c-1.00827,0.58007 3.45451,6.11624 7.51043,11.4886c0.80638,1.06809 9.75218,-2.14905 10.48019,-1.13414c1.1206,1.56218 -1.88238,3.3661 -3.40481,5.70369c-1.30996,2.01138 -1.10323,4.64731 -1.11308,5.20016c-0.04593,2.57577 -8.48291,-6.64522 -12.45742,-7.83262c-4.04896,-1.20963 -3.64415,5.58891 -4.50514,5.53957c-6.34609,-0.36355 -1.61153,-14.47045 -1.09774,-33.15309z" data-paper-data="{&quot;index&quot;:null}" fill="#344e5f"/><path d="M546.65594,269.87264c0.31661,-0.17212 1.25542,-1.18198 1.94751,-2.39034c0.84082,-1.46805 0.93107,-3.04128 1.12871,-3.42137c0.04855,-0.0934 3.39924,-2.04661 4.52163,-4.73197c1.1004,-2.63271 0.65393,-5.79658 1.15498,-6.06583c0.74412,-0.39985 0.06195,2.48035 1.44806,2.8816c0.84918,0.24581 4.21568,-2.41006 4.04713,-1.52926c-0.30046,1.57008 -5.74032,5.67077 -5.65305,6.63103c0.04951,0.54476 3.66712,-2.74794 3.95665,-2.01222c0.01285,0.03264 -0.72592,2.08103 -1.37197,2.51134c-0.42899,0.28573 -1.2242,0.70856 -1.88635,1.0564c-0.64208,0.33729 -1.14563,0.60081 -1.91417,0.80716c-1.43006,0.38398 -2.08199,3.0454 -2.84362,4.28423c-0.7034,1.1441 -1.58292,1.19674 -1.60638,2.4223c-0.00559,0.29192 3.64792,0.12818 4.61886,-0.97167c0.53703,-0.60835 -1.06831,-3.42601 0.03561,-4.11393c0.88201,-0.54963 1.00887,0.72697 2.44362,0.02403c1.54617,-0.75751 3.64798,-2.97797 4.83614,-3.54963c0.38814,-0.18674 0.62567,1.98607 -0.4298,3.20138c-1.0448,1.203 -2.82003,1.71374 -3.57672,2.98099c-0.39407,0.65994 -1.21118,1.56346 -1.17412,1.8642c0.12723,1.03252 5.31246,-1.43665 5.27241,-0.34083c-0.05888,1.61071 1.14774,4.1046 -0.40209,4.77501c-0.29694,0.12845 -2.31549,-2.42669 -4.711,-2.55824c-2.3955,-0.13155 -6.71943,1.58733 -6.58256,1.93803c0.06893,0.17661 0.0819,1.0978 0.44492,1.46477c0.67156,0.67889 1.39888,0.9071 2.59546,0.47946c1.06302,-0.3799 2.6556,-1.12445 3.00471,-0.92465c0.37792,0.21628 -0.46914,0.93676 -1.18872,1.40498c-0.62747,0.40829 -1.52953,0.96342 -1.48441,1.01823c0.41624,0.5056 1.84835,-0.44265 2.60187,-0.57285c1.00103,-0.17297 1.9076,0.07133 2.13595,0.31397c0.51833,0.55076 0.30797,0.55983 0.42424,0.96484c0.18894,0.65814 -0.80843,0.45673 -1.13548,0.63452c-0.01821,0.0099 -1.43545,-0.29004 -2.17169,-0.23008c-0.97931,0.07974 -2.80518,0.79047 -3.81078,0.86717c-1.12781,0.08601 -1.40172,-0.48148 -1.79594,-0.79451c-1.00998,-0.80197 -1.08654,-1.81487 -2.3164,-2.47736c-1.04789,-0.56446 -2.17931,-0.08502 -3.26262,0.2672c-1.11229,0.36165 -2.16455,0.59748 -2.29842,0.07652c-0.14943,-0.58155 -0.67613,-1.81913 -0.19499,-2.79427c0.2864,-0.58045 2.66438,-1.84276 3.60481,-4.52906c0.77619,-2.21715 -1.93383,-5.16262 -1.44955,-5.54087c0.64816,-0.50625 4.1299,-1.75631 4.39329,0.05378c0.02387,0.16406 0.12801,1.46114 -0.17028,2.81472c-0.40541,1.83972 -1.24651,3.84421 -1.18544,3.81101z" data-paper-data="{&quot;index&quot;:null}" fill="#344e5f"/><path d="M555.22041,122.27943c0.04172,-0.0556 -2.06367,0.48546 -3.94277,0.6194c-1.38255,0.09854 -2.65076,-0.19287 -2.80961,-0.24031c-1.75264,-0.52348 -0.01018,-3.78675 0.58484,-4.35452c0.44457,-0.42422 2.96523,2.68484 5.2716,2.23888c2.7944,-0.54033 4.38868,-2.70978 5.00457,-2.90884c1.03467,-0.33442 2.18264,0.36643 2.73632,0.59874c0.496,0.2081 0.10984,1.21496 -0.40951,2.26294c-0.50583,1.02067 -1.1445,2.07047 -0.73821,3.18922c0.47685,1.31304 1.46789,1.53589 2.11468,2.65164c0.25246,0.4355 0.77415,0.78892 0.52526,1.89228c-0.22193,0.9838 -1.1903,2.68709 -1.41142,3.64444c-0.16624,0.71972 -0.07531,2.1655 -0.08775,2.18208c-0.2234,0.29776 -0.16898,1.31381 -0.7927,1.03128c-0.38383,-0.17385 -0.42335,0.03295 -0.89299,-0.55987c-0.20691,-0.26116 -0.31696,-1.1936 -0.00044,-2.1589c0.23825,-0.72663 1.38444,-2.00584 0.94465,-2.49109c-0.04767,-0.0526 -0.72792,0.75927 -1.22301,1.32079c-0.56776,0.64395 -1.40362,1.37739 -1.56272,0.97207c-0.14698,-0.37443 0.82097,-1.84199 1.35123,-2.83857c0.59688,-1.12178 0.47673,-1.87453 -0.09744,-2.63757c-0.31036,-0.41247 -1.21989,-0.55908 -1.38463,-0.65293c-0.3271,-0.18634 -2.65573,3.8421 -2.87347,6.23131c-0.21774,2.38921 2.01715,4.75745 1.84694,5.03259c-0.88839,1.43604 -3.18059,-0.11999 -4.78278,-0.29565c-1.09003,-0.11951 2.10603,-4.89117 1.10293,-5.16701c-0.29217,-0.08035 -1.30478,0.59688 -2.01496,0.89093c-1.36371,0.56462 -2.12685,2.24686 -3.46884,3.10587c-1.35571,0.86778 -3.47099,0.31721 -3.22985,-0.0397c0.73816,-1.09254 3.24032,-2.84959 4.21436,-4.26935c0.90385,-1.31745 -0.34079,-1.62836 0.33111,-2.4212c0.84095,-0.99231 3.3956,1.00522 4.07549,0.56224c1.22921,-0.80091 1.92181,-4.3919 1.63217,-4.42877c-1.21597,-0.15478 -1.39579,0.70776 -2.62991,1.23755c-1.33631,0.57364 -4.06419,0.83213 -4.65178,2.19127c-0.31578,0.73043 -0.64964,1.19037 -1.0766,1.77666c-0.44032,0.60461 -0.97416,1.32999 -1.31916,1.71293c-0.51958,0.5767 -2.65354,1.01015 -2.68397,0.9927c-0.68587,-0.39331 3.09731,-3.49436 2.56552,-3.62247c-0.93741,-0.2258 -5.78466,4.56083 -7.38173,4.63008c-0.89594,0.03885 2.22069,-2.90625 2.10082,-3.78212c-0.19569,-1.42969 -3.14443,-1.17305 -2.64075,-1.85121c0.33917,-0.45663 3.40465,0.4446 6.16926,-0.26178c2.8199,-0.72049 5.23902,-3.75199 5.33848,-3.78646c0.40476,-0.14034 1.97442,-0.00115 3.54902,-0.61985c1.29606,-0.50926 2.43157,-1.29146 2.64784,-1.57971z" data-paper-data="{&quot;index&quot;:null}" fill="#344e5f"/><path d="M539.45733,123.7329c-0.04977,0.08378 2.99334,-1.06919 5.79122,-1.62441c2.05854,-0.40851 4.03639,-0.26484 4.28668,-0.232c2.76164,0.36249 0.90337,5.13937 0.14064,6.02848c-0.56988,0.6643 -5.09427,-3.05609 -8.46229,-1.99233c-4.08071,1.28887 -5.97239,4.55118 -6.85301,4.94384c-1.47943,0.65964 -3.37224,-0.06382 -4.26038,-0.26922c-0.79561,-0.184 -0.45031,-1.62778 0.08589,-3.15382c0.52224,-1.48632 1.23768,-3.03855 0.36357,-4.47679c-1.02591,-1.68801 -2.57033,-1.79365 -3.80585,-3.18003c-0.48225,-0.54113 -1.35062,-0.91732 -1.23462,-2.46484c0.10343,-1.37984 1.16201,-3.88487 1.27045,-5.22862c0.08151,-1.01023 -0.39445,-2.95512 -0.37959,-2.98011c0.26653,-0.44867 -0.05368,-1.81738 0.95169,-1.55772c0.61868,0.15979 0.62969,-0.12888 1.47583,0.5827c0.37277,0.31349 0.75714,1.55762 0.50695,2.93113c-0.18832,1.03391 -1.61411,2.99848 -0.83812,3.56995c0.08411,0.06196 0.91794,-1.17554 1.53168,-2.03631c0.70384,-0.98713 1.79037,-2.14904 2.12496,-1.63034c0.30911,0.47917 -0.80412,2.66406 -1.36879,4.12252c-0.63562,1.64168 -0.27818,2.63984 0.76526,3.56176c0.56403,0.49835 1.96786,0.51667 2.23789,0.61137c0.53621,0.188 3.0976,-5.74425 2.86515,-9.03143c-0.23247,-3.28718 -4.15285,-6.05853 -3.96108,-6.46591c1.00084,-2.12628 4.81704,-0.46908 7.27059,-0.54894c1.66925,-0.05432 -2.02391,7.05938 -0.44889,7.23457c0.45876,0.05104 1.82459,-1.06967 2.82491,-1.61c1.92087,-1.03757 2.67539,-3.47325 4.49452,-4.90619c1.83773,-1.4476 5.15174,-1.12038 4.87237,-0.58789c-0.8552,1.63005 -4.21054,4.51284 -5.34416,6.63403c-1.05193,1.96833 0.89499,2.14318 0.06927,3.35314c-1.03347,1.51439 -5.34836,-0.69012 -6.26816,0.04644c-1.66294,1.33167 -1.86362,6.34489 -1.41887,6.3374c1.86714,-0.03146 1.93559,-1.2383 3.66954,-2.20283c1.8775,-1.04438 5.92415,-1.93737 6.49012,-3.89947c0.30416,-1.05448 0.69895,-1.74529 1.20434,-2.62613c0.52119,-0.9084 1.15486,-1.99933 1.58452,-2.58782c0.64706,-0.88626 3.75844,-1.89879 3.80835,-1.88113c1.12493,0.39773 -3.84402,5.35985 -3.01327,5.42812c1.46437,0.12032 7.64015,-7.34181 10.02856,-7.75318c1.33987,-0.23077 -2.66206,4.38715 -2.27615,5.55255c0.62992,1.90226 5.00955,0.96789 4.41021,1.98872c-0.40357,0.68738 -5.23052,0.07287 -9.22743,1.58126c-4.07684,1.53855 -7.0083,6.13519 -7.14996,6.20177c-0.57653,0.27097 -2.97253,0.39387 -5.19824,1.54678c-1.832,0.94896 -3.35825,2.23661 -3.61628,2.67095z" data-paper-data="{&quot;index&quot;:null}" fill="#344e5f"/><path d="M566.43893,153.22253c0.58272,0.17162 4.85375,0.81872 4.42902,3.5507c-0.37274,2.3976 -5.33686,6.6667 -6.34212,10.019c-2.15071,7.1721 -4.78117,12.725 -5.8753,12.40276c-1.09412,-0.32224 -0.23761,-6.39761 1.91311,-13.5697c0.70901,-2.36434 -3.44199,-5.79896 -2.70095,-7.6589c1.50688,-3.78208 7.84281,-4.95987 8.57625,-4.74387z" data-paper-data="{&quot;index&quot;:null}" fill="#344e5f"/><path d="M555.67526,203.67099c-0.05422,0.0656 2.72979,0.21499 5.22193,0.88148c1.83359,0.49037 3.52361,1.52346 3.73551,1.66956c2.33811,1.61218 0.09344,5.78968 -0.68459,6.38123c-0.58131,0.44198 -3.99376,-5.47617 -7.0466,-5.86403c-3.69885,-0.46993 -5.76985,2.10525 -6.58338,2.12386c-1.36671,0.03126 -2.90573,-1.57159 -3.64578,-2.18316c-0.66296,-0.54785 -0.17148,-1.907 0.49595,-3.26721c0.65007,-1.32479 1.47589,-2.63248 0.91282,-4.52994c-0.66086,-2.22698 -1.98139,-3.02681 -2.86373,-5.03118c-0.34439,-0.78234 -1.04454,-1.56411 -0.73735,-3.1343c0.27389,-1.40006 1.52367,-3.55324 1.79706,-4.91327c0.20554,-1.02245 0.05428,-3.27328 0.07046,-3.29286c0.29034,-0.35133 0.19662,-1.92876 1.03072,-1.20801c0.51329,0.44353 0.56142,0.1459 1.19749,1.26924c0.28022,0.49489 0.44604,1.97039 0.04616,3.29834c-0.301,0.99961 -1.79586,2.4225 -1.20165,3.36772c0.06441,0.10245 0.95046,-0.82249 1.59596,-1.45082c0.74024,-0.72056 1.83458,-1.45355 2.05437,-0.76061c0.20305,0.64015 -1.05114,2.43341 -1.73416,3.71008c-0.76882,1.43705 -0.59339,2.64272 0.18506,4.07457c0.42079,0.774 1.63152,1.41959 1.85221,1.63933c0.43825,0.43631 3.44502,-4.63844 3.68369,-8.18745c0.23866,-3.54903 -2.77871,-8.20298 -2.55852,-8.54439c1.14924,-1.78199 4.22556,1.6577 6.35656,2.66878c1.4498,0.68788 -2.69302,6.49591 -1.35531,7.38229c0.38962,0.25818 1.71981,-0.30699 2.65654,-0.42698c1.79873,-0.2304 2.77648,-2.44657 4.54016,-3.13677c1.7817,-0.69725 4.60189,1.12446 4.28927,1.55791c-0.95702,1.32688 -4.24215,2.85118 -5.50545,4.56858c-1.17226,1.59365 0.48686,2.6456 -0.38852,3.54536c-1.09562,1.12611 -4.52971,-3.10977 -5.42308,-2.74816c-1.61516,0.65373 -2.45896,5.81857 -2.0736,6.00915c1.61776,0.80014 1.83829,-0.43421 3.46574,-0.67146c1.76217,-0.25689 5.37865,0.61278 6.13013,-1.19118c0.40386,-0.96949 0.83742,-1.51736 1.39195,-2.2151c0.57187,-0.71953 1.26535,-1.58021 1.71535,-2.00528c0.6777,-0.64017 3.5019,-0.3131 3.54268,-0.27233c0.91897,0.9188 -4.03869,3.90249 -3.32988,4.34471c1.24941,0.7795 7.58427,-4.28596 9.70331,-3.6514c1.18876,0.35598 -2.88715,3.41038 -2.70949,4.80404c0.29,2.27484 4.19976,3.2497 3.54532,4.05222c-0.44068,0.54037 -4.5299,-2.25747 -8.18568,-2.45993c-3.72889,-0.20652 -6.87687,3.30323 -7.00821,3.3098c-0.53445,0.02674 -2.6215,-0.91352 -4.69911,-0.69826c-1.7101,0.17717 -3.20124,0.84576 -3.4823,1.18587z" data-paper-data="{&quot;index&quot;:null}" fill="#344e5f"/><path d="M552.98816,237.36664c-0.0748,-0.0406 0.31386,2.72019 0.13895,5.29398c-0.12869,1.89366 -0.81757,3.75079 -0.9202,3.98682c-1.13256,2.60445 -5.6637,1.20484 -6.3938,0.55506c-0.5455,-0.48549 4.60615,-4.97212 4.39981,-8.04258c-0.24999,-3.72019 -3.17531,-5.25743 -3.34998,-6.05221c-0.29345,-1.3352 0.9836,-3.15368 1.44148,-3.99751c0.41016,-0.75592 1.83845,-0.53493 3.30161,-0.14146c1.42505,0.38323 2.86712,0.94222 4.62093,0.02484c2.05837,-1.0767 2.58939,-2.52637 4.38672,-3.77762c0.70153,-0.48838 1.3341,-1.32577 2.93405,-1.32621c1.4266,-0.0004 3.7799,0.81208 5.16712,0.81889c1.04289,0.00513 3.22265,-0.57607 3.24497,-0.56395c0.40059,0.21737 1.93058,-0.17788 1.38364,0.77923c-0.33656,0.58899 -0.03524,0.579 -1.01533,1.41918c-0.43179,0.37014 -1.84787,0.81655 -3.22792,0.67945c-1.03884,-0.10319 -2.72259,-1.2966 -3.53592,-0.53175c-0.08815,0.08291 0.98989,0.77459 1.7306,1.28724c0.84944,0.58789 1.77916,1.52089 1.1414,1.86981c-0.58916,0.32234 -2.59011,-0.56367 -3.97427,-0.98849c-1.55805,-0.47818 -2.7075,-0.07422 -3.96297,0.965c-0.67865,0.56175 -1.07942,1.87402 -1.25263,2.13284c-0.34391,0.51395 5.21425,2.48894 8.74293,2.04082c3.5287,-0.44814 7.5157,-4.304 7.89307,-4.15356c1.9697,0.78519 -0.81435,4.46544 -1.39685,6.75107c-0.39631,1.55501 -6.89249,-1.39384 -7.50514,0.08932c-0.17845,0.43199 0.63192,1.6287 0.92977,2.52488c0.57194,1.72087 2.93474,2.25429 3.95115,3.85237c1.0268,1.61441 -0.21871,4.73222 -0.70417,4.50878c-1.48613,-0.68405 -3.6136,-3.61483 -5.54184,-4.52437c-1.78931,-0.84399 -2.50265,0.98643 -3.55391,0.30037c-1.31575,-0.85866 2.18085,-5.04309 1.65423,-5.85028c-0.95207,-1.45934 -6.18279,-1.29438 -6.29572,-0.87957c-0.47418,1.74141 0.77955,1.72051 1.32527,3.27198c0.5909,1.6799 0.43277,5.39612 2.34755,5.78675c1.02905,0.20993 1.65006,0.53006 2.44139,0.94009c0.81606,0.42286 1.79401,0.93793 2.29767,1.2978c0.75853,0.54197 0.98054,3.37637 0.94838,3.42423c-0.72497,1.07848 -4.60618,-3.21304 -4.90387,-2.43242c-0.52474,1.37596 5.66418,6.61874 5.44887,8.82025c-0.12078,1.23502 -3.90184,-2.1776 -5.23535,-1.7353c-2.17664,0.72196 -2.38161,4.74621 -3.29498,4.25828c-0.61502,-0.32856 1.34442,-4.87941 0.84023,-8.50592c-0.51426,-3.69902 -4.56377,-6.11347 -4.59548,-6.2411c-0.129,-0.51934 0.39246,-2.74822 -0.21823,-4.74569c-0.50266,-1.64413 -1.44546,-2.97891 -1.83327,-3.18934z" data-paper-data="{&quot;index&quot;:null}" fill="#344e5f"/><path d="M95.88829,-39.71091c2.44545,-12.91792 0.20018,-24.75594 6.53348,-23.55701c2.26088,0.42799 0.74083,7.45744 4.45647,10.71152c1.14131,0.99954 0.99756,-4.87535 2.4764,-4.11309c2.62591,1.35349 4.61918,-0.98395 3.92486,1.88751c-0.22673,0.93769 -4.49701,6.13806 -8.387,6.74803c-0.67414,0.10572 2.82706,6.18732 5.64811,5.99263c1.93908,-0.13382 2.86689,-6.94432 4.67171,-5.77049c4.28608,2.78762 -1.22065,8.4125 -1.44303,9.50678c-0.21009,1.03375 -0.65817,0.0533 -3.6938,-0.14967c-5.9149,-0.39549 -9.11405,1.82468 -9.20892,2.32586c-0.15527,0.82025 12.81797,0.60484 16.78844,3.36973c1.24437,0.86653 -7.63033,1.01289 -8.35754,2.39858c-1.02987,1.96237 5.60855,5.14782 5.56019,5.47901c-0.73377,5.02526 -11.6061,-5.27447 -15.82931,-4.27728c-1.07212,0.25315 2.83626,4.76908 6.35312,9.1104c0.69921,0.86312 10.01219,-0.04093 10.63822,0.77351c0.96362,1.25362 -2.23739,2.06064 -4.0072,3.45957c-1.52282,1.2037 -1.58753,3.06793 -1.65453,3.45099c-0.31215,1.7847 -7.82964,-5.88662 -11.69702,-7.30501c-3.93981,-1.44495 -4.23563,3.34404 -5.09488,3.18138c-6.3333,-1.19893 -0.12321,-10.30502 2.32222,-23.22295z" data-paper-data="{&quot;index&quot;:null}" fill="#344e5f"/><path d="M-46.37745,204.47382c0,-17.03063 14.61623,-167.74141 11.90411,-242.14865c-0.84038,-23.05595 12.69529,-107.56603 22.48262,-107.56603c4.90247,0 35.45473,46.15862 63.43566,44.88208c12.16633,-0.55505 39.76045,37.35181 46.31956,37.11697c2.68485,-0.09613 0.24549,44.29092 5.48379,93.22907c4.29059,40.08422 10.8331,87.99603 15.23471,126.20256c2.79073,24.22389 15.83785,42.89605 -3.92504,26.68741c-11.18858,-9.17637 -29.82922,10.03325 -47.3246,12.74357z" data-paper-data="{&quot;index&quot;:null}" fill="#344e5f"/><path d="M159.53321,42.47998c-0.01092,0.06782 1.9878,-0.96606 3.99473,-1.52075c1.4766,-0.40812 3.07509,-0.37982 3.28229,-0.36474c2.28624,0.16646 2.43136,3.99143 2.13162,4.72114c-0.22395,0.54521 -5.01783,-2.17912 -7.30114,-1.20134c-2.76647,1.18469 -3.15537,3.82346 -3.71399,4.16891c-0.93846,0.58035 -2.66471,0.09378 -3.42974,-0.0294c-0.68533,-0.11035 -0.89878,-1.25718 -0.99017,-2.47668c-0.08901,-1.18774 -0.0487,-2.43542 -1.21611,-3.52591c-1.37015,-1.27987 -2.61615,-1.29684 -4.04946,-2.33125c-0.55945,-0.40375 -1.36626,-0.6617 -1.79423,-1.88011c-0.38159,-1.08639 -0.39178,-3.09581 -0.75736,-4.15412c-0.27484,-0.79563 -1.30005,-2.30039 -1.29679,-2.32062c0.05848,-0.36318 -0.65146,-1.42278 0.22366,-1.26205c0.53853,0.09891 0.45037,-0.12791 1.35221,0.39397c0.3973,0.22991 1.11576,1.18909 1.3802,2.27678c0.19906,0.81875 -0.2598,2.42005 0.54007,2.83506c0.0867,0.04499 0.32536,-0.96092 0.51782,-1.66206c0.22071,-0.80406 0.68278,-1.76149 1.11897,-1.36903c0.40296,0.36255 0.26297,2.12327 0.30938,3.29098c0.05224,1.31441 0.6671,2.08185 1.79412,2.76026c0.60921,0.36672 1.71574,0.32121 1.95916,0.38395c0.48334,0.12455 0.50195,-4.63637 -0.78247,-7.20404c-1.28442,-2.56767 -5.28663,-4.57358 -5.27292,-4.90121c0.07155,-1.70997 3.61851,-0.57327 5.51493,-0.74053c1.29021,-0.11379 0.78062,5.62181 2.07393,5.69201c0.3767,0.02045 1.07152,-0.91658 1.67444,-1.38294c1.15775,-0.89552 0.93248,-2.83759 1.87792,-4.0388c0.9551,-1.21349 3.66249,-1.09824 3.62206,-0.66878c-0.12378,1.31465 -1.78723,3.71825 -1.96456,5.42989c-0.16456,1.5883 1.42015,1.64236 1.17862,2.62636c-0.30229,1.23156 -4.42367,-0.31304 -4.89768,0.30375c-0.85697,1.11513 0.66669,5.05473 1.01279,5.02989c1.45299,-0.1043 1.10199,-1.05355 2.13772,-1.88382c1.12148,-0.89901 3.99399,-1.77182 3.77972,-3.33451c-0.11516,-0.83982 -0.03732,-1.39835 0.06346,-2.11061c0.10394,-0.73453 0.23484,-1.61699 0.3743,-2.09677c0.21003,-0.72254 2.30936,-1.64919 2.3544,-1.63748c1.01513,0.26389 -1.21593,4.36679 -0.54186,4.38488c1.18818,0.03189 3.52693,-6.08281 5.26113,-6.50724c0.97287,-0.2381 -0.6156,3.55365 0.07766,4.45102c1.1316,1.46476 4.25124,0.5453 4.12374,1.37133c-0.08586,0.55621 -4.07547,0.28022 -6.70265,1.63347c-2.67972,1.38031 -3.43624,5.10971 -3.52496,5.16796c-0.36105,0.23706 -2.19793,0.43563 -3.55596,1.43459c-1.11781,0.82225 -1.8824,1.89703 -1.93901,2.24862z" data-paper-data="{&quot;index&quot;:null}" fill="#344e5f"/><path d="M105.34643,83.75069c2.44545,-12.91792 -10.04837,-21.75652 -3.71506,-20.55759c1.59903,0.3027 5.66725,-4.66597 9.67509,-2.30854c1.65888,0.97577 3.9422,9.06804 5.02992,10.02064c1.14131,0.99954 0.99756,-4.87535 2.4764,-4.11309c2.62591,1.35349 4.61918,-0.98395 3.92486,1.88751c-0.22673,0.93769 -4.49701,6.13806 -8.387,6.74803c-0.67414,0.10572 2.82706,6.18732 5.64811,5.99263c1.93908,-0.13382 2.86689,-6.94432 4.67171,-5.77049c4.28608,2.78762 -1.22065,8.4125 -1.44303,9.50678c-0.21009,1.03375 -0.65817,0.0533 -3.6938,-0.14967c-5.9149,-0.39549 -9.11405,1.82468 -9.20892,2.32586c-0.15527,0.82025 12.81797,0.60484 16.78844,3.36973c1.24437,0.86653 -7.63033,1.01289 -8.35754,2.39858c-1.02987,1.96237 5.60855,5.14782 5.56019,5.47901c-0.73377,5.02526 -11.6061,-5.27447 -15.82931,-4.27728c-1.07212,0.25315 2.83626,4.76908 6.35312,9.1104c0.69921,0.86312 10.01219,-0.04093 10.63822,0.77351c0.96362,1.25362 -2.23739,2.06064 -4.0072,3.45957c-1.52282,1.2037 -1.58753,3.06793 -1.65453,3.45099c-0.31215,1.7847 -7.82964,-5.88662 -11.69702,-7.30501c-3.93981,-1.44495 -4.23563,3.34404 -5.09488,3.18138c-6.3333,-1.19893 -0.12321,-10.30502 2.32222,-23.22295z" data-paper-data="{&quot;index&quot;:null}" fill="#344e5f"/><path d="M141.46152,45.62021c0.60882,0.63092 5.31689,4.66614 3.72339,6.96176c-1.39846,2.01466 -8.89123,2.16728 -11.4097,4.59751c-5.38816,5.19938 -10.68281,8.45397 -11.82593,7.26934c-1.14312,-1.18463 2.29816,-6.35989 7.68631,-11.55927c1.77625,-1.71401 -1.67042,-8.34177 -0.05987,-9.54373c3.27496,-2.44411 11.11953,1.48028 11.88581,2.27438z" data-paper-data="{&quot;index&quot;:null}" fill="#344e5f"/><path d="M112.17756,42.85429c0.06821,0.0509 0.07937,-2.73709 0.62147,-5.25921c0.39885,-1.85565 1.34687,-3.59482 1.48228,-3.8137c1.49426,-2.41517 5.77793,-0.3804 6.40733,0.36734c0.47026,0.55868 -5.27141,4.26038 -5.50741,7.3287c-0.28595,3.7176 2.38876,5.65836 2.44768,6.46997c0.09899,1.36348 -1.42558,2.98008 -1.9997,3.74955c-0.5143,0.68931 -1.89615,0.26583 -3.28778,-0.33334c-1.35539,-0.58358 -2.70242,-1.34354 -4.56963,-0.68708c-2.19147,0.77047 -2.92484,2.12904 -4.88299,3.10968c-0.7643,0.38276 -1.51039,1.12081 -3.09388,0.89186c-1.41192,-0.20413 -3.62442,-1.34561 -4.99633,-1.55123c-1.03138,-0.15459 -3.27195,0.10809 -3.2923,0.0929c-0.36529,-0.27256 -1.93614,-0.10074 -1.25763,-0.96955c0.41753,-0.53465 0.11788,-0.56796 1.2083,-1.25895c0.48039,-0.30441 1.94585,-0.54319 3.29199,-0.20965c1.01331,0.25106 2.50857,1.67353 3.42316,1.03319c0.09913,-0.06941 -0.86861,-0.90851 -1.52817,-1.52206c-0.75638,-0.7036 -1.54273,-1.76025 -0.86154,-2.01413c0.62929,-0.23454 2.48254,0.92919 3.7915,1.54806c1.4734,0.69662 2.66889,0.46162 4.06038,-0.38687c0.75218,-0.45865 1.33695,-1.6999 1.54547,-1.93122c0.41404,-0.45934 -4.80355,-3.21079 -8.36003,-3.27319c-3.5565,-0.06239 -8.05511,3.18203 -8.40702,2.97904c-1.83678,-1.05947 1.44614,-4.30256 2.35031,-6.48107c0.61515,-1.48213 6.62145,2.36761 7.44041,0.9876c0.23854,-0.40194 -0.39189,-1.70247 -0.55818,-2.6321c-0.31931,-1.78509 -2.58123,-2.65175 -3.35803,-4.37904c-0.78474,-1.74494 0.89489,-4.65198 1.34331,-4.36124c1.3727,0.89005 3.05802,4.09556 4.83595,5.27215c1.64982,1.0918 2.61821,-0.61744 3.56026,0.21225c1.17905,1.03843 -2.88134,4.67833 -2.47588,5.55268c0.73301,1.58076 5.93334,2.16742 6.10458,1.77309c0.71894,-1.65544 -0.52483,-1.8145 -0.84248,-3.42818c-0.34395,-1.74726 0.34533,-5.40242 -1.49367,-6.06353c-0.98832,-0.35529 -1.55702,-0.76115 -2.28139,-1.2804c-0.747,-0.53549 -1.64101,-1.18544 -2.08787,-1.61381c-0.67299,-0.64512 -0.48635,-3.48207 -0.44766,-3.52482c0.8721,-0.9634 4.09795,3.84022 4.50448,3.11035c0.71659,-1.28652 -4.65675,-7.36242 -4.12804,-9.51032c0.2966,-1.20495 3.54934,2.7145 4.93248,2.46795c2.25766,-0.40244 3.03746,-4.35573 3.87144,-3.74189c0.56156,0.41334 -2.03008,4.63626 -2.05102,8.29759c-0.02137,3.73454 3.64015,6.70462 3.65323,6.83547c0.05321,0.53247 -0.78241,2.66357 -0.4644,4.72795c0.26175,1.69921 1.00345,3.15537 1.35708,3.41922z" data-paper-data="{&quot;index&quot;:null}" fill="#344e5f"/><path d="M165.2585,59.03614c0,2.69172 -1.57162,0.39561 -17.57515,1.55241c-13.37662,0.96692 -18.08426,5.0054 -29.70866,5.0054c-25.53159,0 -22.96539,-2.21645 -22.96539,-7.15804c0,-4.9416 -10.32075,-16.7021 15.21085,-16.7021c5.28826,0 8.9567,11.78211 20.01062,9.16577c1.12557,-0.26641 12.95346,-6.5853 13.99637,-7.04164c10.79472,-4.72339 9.38748,5.98877 16.67515,7.47284c8.91233,1.81492 4.30704,-4.4453 7.06293,3.1135z" data-paper-data="{&quot;index&quot;:null}" fill="#344e5f"/><path d="M118.24686,126.07233c-0.01092,0.06782 1.9878,-0.96606 3.99473,-1.52075c1.4766,-0.40812 3.07509,-0.37982 3.28229,-0.36474c2.28624,0.16646 2.43136,3.99143 2.13162,4.72114c-0.22395,0.54521 -5.01783,-2.17912 -7.30114,-1.20134c-2.76647,1.18469 -3.15537,3.82346 -3.71399,4.16891c-0.93846,0.58035 -2.66471,0.09378 -3.42974,-0.0294c-0.68533,-0.11035 -0.89878,-1.25718 -0.99017,-2.47668c-0.08901,-1.18774 -0.0487,-2.43542 -1.21611,-3.52591c-1.37015,-1.27987 -2.61615,-1.29684 -4.04946,-2.33125c-0.55945,-0.40375 -1.36626,-0.6617 -1.79423,-1.88011c-0.38159,-1.08639 -0.39178,-3.09581 -0.75736,-4.15412c-0.27484,-0.79563 -1.30005,-2.30039 -1.29679,-2.32062c0.05848,-0.36318 -0.65146,-1.42278 0.22366,-1.26205c0.53853,0.09891 0.45037,-0.12791 1.35221,0.39397c0.3973,0.22991 1.11576,1.18909 1.3802,2.27678c0.19906,0.81875 -0.2598,2.42005 0.54007,2.83506c0.0867,0.04499 0.32536,-0.96092 0.51782,-1.66206c0.22071,-0.80406 0.68278,-1.76149 1.11897,-1.36903c0.40296,0.36255 0.26297,2.12327 0.30938,3.29098c0.05224,1.31441 0.6671,2.08185 1.79412,2.76026c0.60921,0.36672 1.71574,0.32121 1.95916,0.38395c0.48334,0.12455 0.50195,-4.63637 -0.78247,-7.20404c-1.28442,-2.56767 -5.28663,-4.57358 -5.27292,-4.90121c0.07155,-1.70997 3.61851,-0.57327 5.51493,-0.74053c1.29021,-0.11379 0.78062,5.62181 2.07393,5.69201c0.3767,0.02045 1.07152,-0.91658 1.67444,-1.38294c1.15775,-0.89552 0.93248,-2.83759 1.87792,-4.0388c0.9551,-1.21349 3.66249,-1.09824 3.62206,-0.66878c-0.12378,1.31465 -1.78723,3.71825 -1.96456,5.42989c-0.16456,1.5883 1.42015,1.64236 1.17862,2.62636c-0.30229,1.23156 -4.42367,-0.31304 -4.89768,0.30375c-0.85697,1.11513 0.66669,5.05473 1.01279,5.02989c1.45299,-0.1043 1.10199,-1.05355 2.13772,-1.88382c1.12148,-0.89901 3.99399,-1.77182 3.77972,-3.33451c-0.11516,-0.83982 -0.03732,-1.39835 0.06346,-2.11061c0.10394,-0.73453 0.23484,-1.61699 0.3743,-2.09677c0.21003,-0.72254 2.30936,-1.64919 2.3544,-1.63748c1.01513,0.26389 -1.21593,4.36679 -0.54186,4.38488c1.18818,0.03189 3.52693,-6.08281 5.26113,-6.50724c0.97287,-0.2381 -0.6156,3.55365 0.07766,4.45102c1.1316,1.46476 4.25124,0.5453 4.12374,1.37133c-0.08586,0.55621 -4.07547,0.28022 -6.70265,1.63347c-2.67972,1.38031 -3.43624,5.10971 -3.52496,5.16796c-0.36105,0.23706 -2.19793,0.43563 -3.55596,1.43459c-1.11781,0.82225 -1.8824,1.89703 -1.93901,2.24862z" data-paper-data="{&quot;index&quot;:null}" fill="#344e5f"/><path d="M139.32692,141.43336c0.00983,0.87671 0.66491,7.04273 -2.06953,7.61884c-2.39977,0.50561 -7.9543,-4.52551 -11.45389,-4.48627c-7.48724,0.08394 -13.5718,-1.18247 -13.59025,-2.8286c-0.01845,-1.64613 6.03619,-3.04862 13.52343,-3.13257c2.46822,-0.02767 4.50981,-7.21367 6.50611,-6.98262c4.05935,0.46984 7.07179,8.70775 7.08416,9.81121z" data-paper-data="{&quot;index&quot;:null}" fill="#344e5f"/><path d="M110.87848,166.88702c0.06877,-0.05015 -2.5917,-0.88376 -4.84143,-2.14618c-1.65524,-0.92883 -3.03707,-2.34796 -3.20623,-2.54196c-1.86648,-2.14059 1.34207,-5.63276 2.24228,-6.0134c0.6726,-0.2844 2.51455,6.2941 5.37649,7.42529c3.46755,1.37056 6.11135,-0.6121 6.90418,-0.42883c1.33195,0.3079 2.42649,2.24171 2.99222,3.01738c0.50679,0.69486 -0.30572,1.89012 -1.28897,3.04289c-0.95766,1.12274 -2.08136,2.18542 -2.00532,4.16321c0.08927,2.32125 1.17083,3.42296 1.52976,5.58333c0.1401,0.84322 0.62503,1.77393 -0.06113,3.21928c-0.6118,1.28876 -2.3555,3.06572 -2.95691,4.31582c-0.45214,0.93979 -0.86253,3.15807 -0.88305,3.17303c-0.36824,0.26856 -0.66776,1.82013 -1.29757,0.9154c-0.38758,-0.55674 -0.50785,-0.28028 -0.84619,-1.52607c-0.14904,-0.54884 0.05539,-2.01948 0.77142,-3.20719c0.53898,-0.89405 2.33944,-1.90281 1.99759,-2.96566c-0.03705,-0.1152 -1.12442,0.56174 -1.90533,1.0108c-0.89552,0.51499 -2.1372,0.95441 -2.1787,0.22863c-0.03834,-0.67048 1.62058,-2.09765 2.59825,-3.16561c1.1005,-1.20213 1.22885,-2.41371 0.82891,-3.99365c-0.21619,-0.85405 -1.22952,-1.77915 -1.38898,-2.04666c-0.31666,-0.53117 -4.48562,3.64176 -5.59504,7.02136c-1.10941,3.37962 0.66256,8.63546 0.36474,8.91177c-1.55444,1.44221 -3.68398,-2.65172 -5.49853,-4.15865c-1.23451,-1.02523 4.21662,-5.62755 3.13984,-6.81737c-0.31362,-0.34655 -1.74229,-0.1281 -2.67958,-0.24362c-1.7998,-0.22184 -3.29551,1.68348 -5.17513,1.91581c-1.89883,0.2347 -4.18055,-2.22818 -3.7704,-2.5708c1.25558,-1.04881 4.81574,-1.71284 6.4647,-3.06425c1.53014,-1.25403 0.18291,-2.6838 1.2537,-3.33897c1.34019,-0.82 3.61937,4.13389 4.57444,4.00459c1.72669,-0.23374 3.82223,-5.02919 3.49602,-5.3092c-1.36946,-1.17556 -1.88857,-0.03416 -3.52411,-0.20698c-1.77093,-0.18712 -5.05977,-1.92461 -6.23425,-0.3627c-0.63119,0.83941 -1.18683,1.26297 -1.89676,1.80179c-0.73212,0.55565 -1.61701,1.21797 -2.15819,1.51848c-0.81503,0.45257 -3.47048,-0.56315 -3.4999,-0.61273c-0.66305,-1.11762 4.87873,-2.78181 4.30138,-3.38566c-1.01768,-1.06441 -8.40894,2.27604 -10.30507,1.13686c-1.06371,-0.63906 3.64124,-2.58993 3.81394,-3.98422c0.2819,-2.27585 -3.26506,-4.18783 -2.4324,-4.80347c0.56068,-0.41453 3.83044,3.30815 7.32245,4.4089c3.56183,1.12277 7.48037,-1.4989 7.60925,-1.47277c0.52445,0.10633 2.31394,1.53377 4.38021,1.83929c1.70076,0.25149 3.31096,-0.02734 3.66745,-0.28733z" data-paper-data="{&quot;index&quot;:null}" fill="#344e5f"/><path d="M139.62141,172.21964c-0.50715,0.7152 -3.59985,6.08961 -6.15104,4.94918c-2.23895,-1.00083 -3.77765,-8.3355 -6.63255,-10.3599c-6.10795,-4.33114 -10.28747,-8.93084 -9.33523,-10.27372c0.95224,-1.34288 6.67565,1.07959 12.7836,5.41072c2.01353,1.42779 7.88764,-3.18756 9.36728,-1.82769c3.00875,2.76522 0.60628,11.20123 -0.03203,12.10142z" data-paper-data="{&quot;index&quot;:null}" fill="#344e5f"/><path d="M28.13759,-103.32569c-11.24115,-6.81832 -23.11511,-8.865 -19.77228,-14.37623c1.19333,-1.96742 7.24397,1.92018 11.59401,-0.41909c1.33618,-0.71854 -4.21636,-2.64319 -2.9841,-3.76101c2.18806,-1.98488 0.69761,-4.67101 3.14351,-3.01423c0.79872,0.54103 4.17232,6.36322 3.38006,10.22022c-0.13729,0.66843 6.78571,-0.4789 7.59221,-3.18921c0.55436,-1.86296 -5.49882,-5.11914 -3.76684,-6.398c4.11313,-3.03702 7.4509,4.09198 8.3978,4.68382c0.89452,0.55911 -0.18079,0.63509 -1.43494,3.40698c-2.44371,5.401 -1.48577,9.17539 -1.04964,9.43992c0.71378,0.43294 5.05946,-11.79271 9.04067,-14.54212c1.24773,-0.86168 -1.72598,7.50126 -0.68311,8.66805c1.47687,1.65238 6.78714,-3.44828 7.08036,-3.2869c4.44923,2.44868 -9.00803,9.02092 -9.55444,13.32572c-0.13871,1.09283 5.46068,-0.98464 10.7593,-2.75664c1.05345,-0.3523 3.47117,-9.39131 4.45337,-9.69214c1.51185,-0.46306 1.14564,2.81774 1.83546,4.96562c0.59355,1.84813 2.31682,2.56219 2.65209,2.75921c1.56205,0.91792 -8.25761,5.26949 -10.94161,8.39432c-2.73427,3.18336 1.64719,5.13906 1.19366,5.88678c-3.34283,5.51123 -9.6944,-3.49675 -20.93556,-10.31506z" data-paper-data="{&quot;index&quot;:null}" fill="#344e5f"/><path d="M25.46806,-103.19674c0.64546,-1.26014 10.48839,5.28107 16.819,-0.59066c5.89882,-5.47123 4.31443,-1.9467 13.07413,0.50099c7.16286,2.00149 7.78386,-2.29767 15.23821,6.82751c0.72019,0.88161 8.36673,11.89786 9.24707,12.64811c8.64563,7.368 17.28201,-1.4461 21.98876,0.96476c22.72405,11.63958 8.17672,17.40174 5.9239,21.79994c-2.25282,4.3982 -0.97926,7.54082 -23.70331,-4.09876c-10.34614,-5.29944 -12.69501,-11.04 -24.15988,-17.99885c-13.71635,-8.32543 -35.65499,-17.65732 -34.42787,-20.05305z" data-paper-data="{&quot;index&quot;:null}" fill="#344e5f"/><path d="M127.76724,-63.28389c-1.19117,0.41424 -4.57686,-3.63775 -8.96274,-6.07628c-2.68829,-1.49469 -6.98814,-1.95343 -7.75386,-1.67c-5.75029,2.12842 -10.11646,6.86209 -11.70327,2.29913c-0.82249,-2.36514 7.31121,-5.54171 8.4671,-7.86059c1.57599,-3.16167 3.56661,2.46549 6.90329,1.30513c7.4042,-2.57486 12.5859,-11.08219 14.72874,-4.92031c1.16548,3.35142 -8.45887,2.42638 -6.49672,7.73799c1.64544,4.45426 8.19455,8.01053 4.81745,9.18493z" data-paper-data="{&quot;index&quot;:null}" fill="#344e5f"/><path d="M97.26497,-82.41149c0.06821,0.0509 0.07937,-2.73709 0.62147,-5.25921c0.39885,-1.85565 1.34687,-3.59482 1.48228,-3.8137c1.49426,-2.41517 5.77793,-0.3804 6.40733,0.36734c0.47026,0.55868 -5.27141,4.26038 -5.50741,7.3287c-0.28595,3.7176 2.38876,5.65836 2.44768,6.46997c0.09899,1.36348 -1.42558,2.98008 -1.9997,3.74955c-0.5143,0.68931 -1.89615,0.26583 -3.28778,-0.33334c-1.35539,-0.58358 -2.70242,-1.34354 -4.56963,-0.68708c-2.19147,0.77047 -2.92484,2.12904 -4.88299,3.10968c-0.7643,0.38276 -1.51039,1.12081 -3.09388,0.89186c-1.41192,-0.20413 -3.62442,-1.34561 -4.99633,-1.55123c-1.03138,-0.15459 -3.27195,0.10809 -3.2923,0.0929c-0.36529,-0.27256 -1.93614,-0.10074 -1.25763,-0.96955c0.41753,-0.53465 0.11788,-0.56796 1.2083,-1.25895c0.48039,-0.30441 1.94585,-0.54319 3.29199,-0.20965c1.01331,0.25106 2.50857,1.67353 3.42316,1.03319c0.09913,-0.06941 -0.86861,-0.90851 -1.52817,-1.52206c-0.75638,-0.7036 -1.54273,-1.76025 -0.86154,-2.01413c0.62929,-0.23454 2.48254,0.92919 3.7915,1.54806c1.4734,0.69662 2.66889,0.46162 4.06038,-0.38687c0.75218,-0.45865 1.33695,-1.6999 1.54547,-1.93122c0.41404,-0.45934 -4.80355,-3.21079 -8.36003,-3.27319c-3.5565,-0.06239 -8.05511,3.18203 -8.40702,2.97904c-1.83678,-1.05947 1.44614,-4.30256 2.35031,-6.48107c0.61515,-1.48213 6.62145,2.36761 7.44041,0.9876c0.23854,-0.40194 -0.39189,-1.70247 -0.55818,-2.6321c-0.31931,-1.78509 -2.58123,-2.65175 -3.35803,-4.37904c-0.78474,-1.74494 0.89489,-4.65198 1.34331,-4.36124c1.3727,0.89005 3.05802,4.09556 4.83595,5.27215c1.64982,1.0918 2.61821,-0.61744 3.56026,0.21225c1.17905,1.03843 -2.88134,4.67833 -2.47588,5.55268c0.73301,1.58076 5.93334,2.16742 6.10458,1.77309c0.71894,-1.65544 -0.52483,-1.8145 -0.84248,-3.42818c-0.34395,-1.74726 0.34533,-5.40242 -1.49367,-6.06353c-0.98832,-0.35529 -1.55702,-0.76115 -2.28139,-1.2804c-0.747,-0.53549 -1.64101,-1.18544 -2.08787,-1.61381c-0.67299,-0.64512 -0.48635,-3.48207 -0.44766,-3.52482c0.8721,-0.9634 4.09795,3.84022 4.50448,3.11035c0.71659,-1.28652 -4.65675,-7.36242 -4.12804,-9.51032c0.2966,-1.20495 3.54934,2.7145 4.93248,2.46795c2.25766,-0.40244 3.03746,-4.35573 3.87144,-3.74189c0.56156,0.41334 -2.03008,4.63626 -2.05102,8.29759c-0.02137,3.73454 3.64015,6.70462 3.65323,6.83547c0.05321,0.53247 -0.78241,2.66357 -0.4644,4.72795c0.26175,1.69921 1.00345,3.15537 1.35708,3.41922z" data-paper-data="{&quot;index&quot;:null}" fill="#344e5f"/><path d="M-31.5518,249.65937c0,-29.81162 -26.46162,-182.30947 2.76339,-188.67474c1.80523,-0.39318 13.74848,-7.21366 28.93124,-3.94581c4.13685,0.89039 33.08251,19.64756 36.99926,19.9393c19.3122,1.43846 35.29721,9.25517 37.12525,11.90955c0.78459,1.13927 3.23411,-0.69678 4.95002,0.20409c1.83522,0.96351 2.93814,4.67221 3.67653,6.19917c1.97654,4.08737 -0.34305,10.60225 0.67665,15.80612c1.23178,6.28616 5.80178,11.39755 8.70497,17.62752c1.52986,3.28292 9.79737,9.80993 11.37493,13.14027c5.00454,10.56491 4.25842,23.22864 5.21362,32.90838c0.54388,5.51147 3.64669,7.88254 3.64669,13.79291c0,5.71437 -3.29777,10.97153 -3.50995,18.30022c-0.08847,3.05596 -3.81866,11.60304 -10.47382,13.58462c-6.90952,2.05731 9.9904,8.29848 6.99639,13.32129c-6.43496,10.7954 -9.05522,23.55798 -11.57795,33.38476c-1.43314,5.5825 0.43178,10.94344 -6.50157,12.6473c-5.3091,1.3047 -14.867,6.21623 -15.35558,7.11757c-1.50017,2.76755 24.6254,11.22139 22.68375,12.67808c-4.02314,3.01829 -15.96539,10.04492 -28.46124,6.2865c-15.01343,-4.51564 -31.0637,-20.32141 -38.30701,-20.32141c-9.57702,0 -4.12588,-20.09827 -13.90969,-20.36334c-23.31459,-0.63164 -45.6459,9.94928 -45.6459,-15.54233z" data-paper-data="{&quot;index&quot;:null}" fill="#344e5f"/><path d="M98.22354,157.88292c0.51379,-18.68264 -12.94215,-28.50613 -6.59605,-28.14255c1.60226,0.0918 4.84813,-7.74752 9.09545,-5.26851c1.75801,1.0261 5.15455,11.93262 6.35255,13.04544c1.257,1.16766 0.26664,-7.06659 1.81827,-6.30323c2.75514,1.35543 4.35955,-2.34907 4.09843,1.83529c-0.08526,1.36642 -3.49454,9.57386 -7.19752,11.2445c-0.64173,0.28952 3.6508,8.11322 6.37208,7.25005c1.8705,-0.5933 1.78909,-10.36754 3.718,-9.0933c4.58076,3.02604 0.02784,12.08896 -0.03052,13.67474c-0.05515,1.49808 -0.63374,0.21247 -3.62172,0.56107c-5.82204,0.67924 -8.61867,4.47065 -8.6386,5.1955c-0.03261,1.18629 12.58022,-1.82676 16.85008,1.23324c1.3382,0.95902 -7.29009,3.01878 -7.79829,5.11994c-0.71973,2.97563 6.21126,6.06991 6.21206,6.5459c0.01215,7.22237 -12.07493,-4.99523 -16.04665,-2.71027c-1.00827,0.58007 3.45451,6.11624 7.51043,11.4886c0.80638,1.06809 9.75218,-2.14905 10.48019,-1.13414c1.1206,1.56218 -1.88238,3.3661 -3.40481,5.70369c-1.30996,2.01138 -1.10323,4.64731 -1.11308,5.20016c-0.04593,2.57577 -8.48291,-6.64522 -12.45742,-7.83262c-4.04896,-1.20963 -3.64415,5.58891 -4.50514,5.53957c-6.34609,-0.36355 -1.61153,-14.47045 -1.09774,-33.15309z" data-paper-data="{&quot;index&quot;:null}" fill="#344e5f"/><path d="M159.10764,124.43491c0.52384,0.44391 4.41753,3.06408 3.78198,5.70371c-0.55776,2.31656 -5.52928,4.47891 -6.75698,7.49698c-2.62661,6.45704 -5.55325,11.01581 -6.53682,10.1823c-0.98357,-0.83351 0.34838,-6.74365 2.97499,-13.20069c0.86589,-2.12861 -2.66919,-7.58506 -1.81846,-9.17592c1.72993,-3.23491 7.69598,-1.56512 8.3553,-1.00639z" data-paper-data="{&quot;index&quot;:null}" fill="#344e5f"/><path d="M150.80112,141.58476c1.08865,8.49028 9.26507,9.12162 9.10238,10.51784c-0.30929,2.65443 -16.36226,-2.96188 -27.42948,-4.47523c-9.25058,-1.26495 -12.93108,1.93686 -20.87336,0.00898c-17.44426,-4.23434 -15.31259,14.67684 -14.74478,9.80367c0.34066,-2.92375 -19.81291,-35.08182 -17.66824,-44.42139c1.42996,-6.22717 22.87819,8.10807 29.85643,9.80193c3.61317,0.87704 4.76578,13.10439 12.61891,12.35754c0.79965,-0.07604 9.60703,-4.34581 10.37203,-4.62287c7.91814,-2.86771 6.48445,0.95153 11.29317,3.62368c5.88074,3.26788 6.45853,-0.50534 7.47293,7.40585z" data-paper-data="{&quot;index&quot;:null}" fill="#344e5f"/><path d="M129.5513,111.36612c0.59537,-0.174 4.70661,-1.97339 5.45383,0.60459c0.65579,2.26244 -2.04673,8.66165 -1.56549,12.09185c1.02958,7.33877 0.958,13.55286 -0.15989,13.87958c-1.11788,0.32672 -2.85874,-5.35768 -3.88833,-12.69644c-0.33941,-2.41927 -5.49504,-3.07755 -5.59708,-5.08177c-0.20748,-4.07546 5.00761,-8.57881 5.75696,-8.79783z" data-paper-data="{&quot;index&quot;:null}" fill="#344e5f"/><path d="M153.89933,150.41434c-0.05516,0.28202 0.08209,1.34917 0.46262,2.35028c0.46231,1.21625 1.36444,2.00114 1.4942,2.30321c0.03189,0.07422 -0.47254,3.11977 0.58161,5.07876c1.03349,1.92058 3.16271,3.09746 3.07353,3.54233c-0.13244,0.66067 -1.52473,-1.10685 -2.46162,-0.4059c-0.57398,0.42943 -0.66319,3.80988 -1.10906,3.29497c-0.79479,-0.91786 -0.53568,-6.29204 -1.15772,-6.68008c-0.35289,-0.22014 -0.18456,3.61526 -0.77283,3.46035c-0.0261,-0.00688 -0.88908,-1.42611 -0.82417,-2.03816c0.0431,-0.40641 0.18734,-1.11038 0.30999,-1.6946c0.11894,-0.56651 0.21282,-1.01033 0.47405,-1.59719c0.48607,-1.092 -0.78964,-2.73905 -1.15364,-3.79872c-0.33617,-0.97865 0.07329,-1.56543 -0.65298,-2.1469c-0.173,-0.1385 -1.90693,2.27359 -1.73161,3.40287c0.09698,0.62462 2.59899,0.90038 2.45954,1.9243c-0.11142,0.8181 -0.94383,0.30916 -1.24016,1.55158c-0.31935,1.3389 -0.03643,3.70933 -0.28814,4.73339c-0.08222,0.33452 -1.50983,-0.51788 -1.71228,-1.75459c-0.20039,-1.22419 0.38247,-2.59552 -0.00112,-3.66516c-0.19976,-0.55703 -0.33401,-1.49719 -0.53371,-1.6125c-0.6856,-0.39589 -1.7995,4.06134 -2.43931,3.52921c-0.94043,-0.78216 -3.04747,-1.16324 -2.67382,-2.46423c0.07159,-0.24927 2.62277,-0.3591 3.90353,-1.83021c1.28076,-1.4711 2.41447,-5.03073 2.13463,-5.10531c-0.14094,-0.03754 -0.70217,-0.45505 -1.10525,-0.39252c-0.74568,0.11567 -1.24791,0.4753 -1.59057,1.43817c-0.30442,0.8554 -0.65487,2.21798 -0.9503,2.34889c-0.3198,0.14171 -0.3288,-0.733 -0.24983,-1.40959c0.06885,-0.58999 0.18701,-1.42345 0.13138,-1.41992c-0.51326,0.03248 -0.66054,1.38662 -0.96009,1.92867c-0.39795,0.72011 -0.99979,1.18693 -1.26044,1.22081c-0.59165,0.0769 -0.49159,-0.06183 -0.79381,-0.17467c-0.49111,-0.18337 0.13045,-0.7281 0.18743,-1.01942c0.00317,-0.01623 0.89464,-0.78391 1.22783,-1.28244c0.44318,-0.66313 0.931,-2.15927 1.38921,-2.8378c0.5139,-0.76099 0.99303,-0.67385 1.37927,-0.78126c0.98954,-0.2752 1.6379,0.14402 2.65373,-0.33626c0.86552,-0.40921 1.1443,-1.35436 1.47556,-2.20994c0.34012,-0.87846 0.7259,-1.66038 1.10677,-1.50519c0.42517,0.17324 1.43462,0.40845 1.78051,1.16686c0.20589,0.45144 -0.22671,2.55561 0.91927,4.39867c0.94584,1.52117 4.0789,1.14957 4.06377,1.6341c-0.02025,0.6485 -1.01385,3.45285 -2.23599,2.78464c-0.11076,-0.06056 -0.9441,-0.5935 -1.60961,-1.4099c-0.90454,-1.10961 -1.68975,-2.574 -1.70039,-2.5196z" data-paper-data="{&quot;index&quot;:null}" fill="#344e5f"/><path d="M101.74105,120.98383c0.09281,-0.34821 0.00541,-1.72428 -0.39577,-3.05776c-0.4874,-1.62006 -1.56738,-2.7676 -1.70737,-3.17248c-0.03441,-0.09948 0.85222,-3.8752 -0.32521,-6.53689c-1.15433,-2.60951 -3.75814,-4.46143 -3.60899,-5.01034c0.22152,-0.81518 1.84316,1.66095 3.08777,0.9307c0.76248,-0.44738 1.1499,-4.71785 1.67337,-3.9897c0.93311,1.29797 0.16853,8.06725 0.92563,8.66434c0.42951,0.33873 0.52734,-4.55202 1.26055,-4.25619c0.03253,0.01312 1.01141,1.95824 0.87945,2.72318c-0.08763,0.50793 -0.32761,1.37601 -0.53051,2.09592c-0.19676,0.69808 -0.35179,1.24486 -0.73058,1.94469c-0.70482,1.30221 0.7788,3.60591 1.15427,5.01083c0.34675,1.2975 -0.21994,1.97217 0.65359,2.8321c0.20807,0.20483 2.60199,-2.55996 2.47136,-4.02124c-0.07226,-0.80825 -3.22179,-1.5808 -2.96192,-2.8553c0.20763,-1.0183 1.2216,-0.23238 1.6981,-1.75736c0.51351,-1.6434 0.34719,-4.69633 0.74939,-5.95202c0.13139,-0.4102 1.87206,0.91177 2.02836,2.51382c0.15471,1.58584 -0.69549,3.2258 -0.29599,4.64668c0.20804,0.73995 0.30194,1.95453 0.54575,2.13447c0.83704,0.61778 2.61086,-4.84455 3.3788,-4.06179c1.12876,1.15055 3.76902,1.98985 3.18976,3.57601c-0.11098,0.3039 -3.35413,0.01187 -5.09719,1.66035c-1.74306,1.64848 -3.46915,5.96953 -3.12044,6.11138c0.17562,0.07143 0.85325,0.69558 1.36932,0.68445c0.95471,-0.02058 1.6206,-0.39161 2.13314,-1.55435c0.45534,-1.03296 1.01018,-2.70114 1.39533,-2.81715c0.41692,-0.12559 0.35736,0.98484 0.20234,1.82923c-0.13517,0.73631 -0.35259,1.77294 -0.28178,1.77788c0.65331,0.04558 0.94991,-1.64621 1.37365,-2.28276c0.56292,-0.84564 1.36378,-1.33572 1.69697,-1.3346c0.7563,0.00253 0.61821,0.16147 0.99218,0.35562c0.60771,0.31549 -0.22446,0.90099 -0.32033,1.26068c-0.00534,0.02003 -1.19781,0.84255 -1.66065,1.41824c-0.61566,0.76575 -1.3555,2.58002 -1.99145,3.36276c-0.71324,0.87786 -1.31358,0.6864 -1.81195,0.75728c-1.27681,0.1816 -2.06475,-0.45947 -3.39154,-0.02232c-1.13047,0.37247 -1.56059,1.52354 -2.04997,2.5522c-0.50247,1.05617 -1.05499,1.98224 -1.52524,1.72111c-0.52494,-0.2915 -1.78558,-0.76033 -2.16254,-1.78027c-0.22439,-0.60712 0.49478,-3.20154 -0.80847,-5.73179c-1.07565,-2.08835 -5.07772,-2.14689 -5.01922,-2.75859c0.07829,-0.8187 1.56548,-4.20594 3.06062,-3.15222c0.13551,0.09551 1.14872,0.91201 1.92617,2.0595c1.05667,1.55961 1.9333,3.54882 1.9512,3.48165z" data-paper-data="{&quot;index&quot;:null}" fill="#344e5f"/><path d="M60.89856,81.32678c0.09281,-0.3482 0.00542,-1.72428 -0.39577,-3.05776c-0.4874,-1.62006 -1.56738,-2.76759 -1.70737,-3.17247c-0.0344,-0.09949 0.85222,-3.87521 -0.32521,-6.5369c-1.15434,-2.60951 -3.75815,-4.46144 -3.609,-5.01034c0.22152,-0.81518 1.84316,1.66095 3.08777,0.9307c0.7625,-0.44738 1.14991,-4.71784 1.67338,-3.9897c0.93311,1.29797 0.16853,8.06725 0.92563,8.66434c0.42951,0.33873 0.52734,-4.55202 1.26055,-4.25619c0.03253,0.01313 1.01141,1.95824 0.87945,2.72319c-0.08762,0.50793 -0.3276,1.376 -0.5305,2.09592c-0.19676,0.69808 -0.35179,1.24485 -0.73058,1.94468c-0.70482,1.30221 0.7788,3.60591 1.15427,5.01083c0.34676,1.29751 -0.21995,1.97218 0.65359,2.83211c0.20807,0.20483 2.602,-2.55996 2.47137,-4.02124c-0.07226,-0.80826 -3.22179,-1.5808 -2.96192,-2.8553c0.20763,-1.01831 1.2216,-0.2324 1.6981,-1.75737c0.51351,-1.6434 0.34719,-4.69632 0.74939,-5.95201c0.13139,-0.4102 1.87206,0.91177 2.02836,2.51382c0.15471,1.58583 -0.69549,3.22579 -0.29599,4.64667c0.20804,0.73995 0.30194,1.95453 0.54575,2.13447c0.83705,0.61778 2.61087,-4.84455 3.37881,-4.06179c1.12876,1.15055 3.76902,1.98986 3.18976,3.57602c-0.11098,0.30391 -3.35413,0.01187 -5.09719,1.66035c-1.74306,1.64848 -3.46916,5.96953 -3.12045,6.11139c0.17562,0.07143 0.85325,0.69559 1.36932,0.68445c0.95471,-0.02058 1.62059,-0.39161 2.13314,-1.55435c0.45534,-1.03296 1.01018,-2.70113 1.39533,-2.81715c0.41692,-0.12559 0.35736,0.98483 0.20234,1.82923c-0.13517,0.73631 -0.3526,1.77295 -0.28178,1.77788c0.65331,0.04558 0.94991,-1.64621 1.37365,-2.28276c0.56292,-0.84564 1.36378,-1.33572 1.69697,-1.3346c0.75631,0.00253 0.6182,0.16148 0.99218,0.35562c0.60772,0.31549 -0.22446,0.90099 -0.32033,1.26068c-0.00534,0.02004 -1.19781,0.84255 -1.66065,1.41824c-0.61566,0.76576 -1.3555,2.58003 -1.99145,3.36277c-0.71324,0.87787 -1.31359,0.6864 -1.81195,0.75728c-1.27681,0.1816 -2.06475,-0.45947 -3.39154,-0.02232c-1.13047,0.37246 -1.56059,1.52353 -2.04997,2.5522c-0.50247,1.05616 -1.05498,1.98222 -1.52524,1.7211c-0.52494,-0.2915 -1.78558,-0.76033 -2.16254,-1.78027c-0.22439,-0.60712 0.49478,-3.20154 -0.80847,-5.73179c-1.07565,-2.08835 -5.07772,-2.1469 -5.01922,-2.75859c0.07829,-0.81871 1.56548,-4.20594 3.06062,-3.15222c0.13551,0.09551 1.14872,0.91201 1.92617,2.0595c1.05667,1.55962 1.93329,3.54883 1.9512,3.48166z" data-paper-data="{&quot;index&quot;:null}" fill="#344e5f"/><path d="M93.13633,107.69669c-0.1818,0.47136 -0.25002,2.46706 0.13699,4.49363c0.47018,2.4621 1.85514,4.42113 1.99868,5.04178c0.03527,0.15251 -1.76461,5.29867 -0.45288,9.45404c1.28601,4.07391 4.75367,7.48746 4.463,8.22967c-0.43168,1.10225 -2.40547,-2.91749 -4.28998,-2.2363c-1.15452,0.41733 -2.30921,6.41794 -2.95635,5.22223c-1.15356,-2.13143 0.89223,-11.59919 -0.10782,-12.67565c-0.56734,-0.61068 -1.39459,6.36276 -2.40276,5.7246c-0.04474,-0.02831 -1.17289,-3.09966 -0.87648,-4.1562c0.19682,-0.70156 0.66237,-1.87414 1.05401,-2.84545c0.37976,-0.94185 0.67855,-1.67928 1.3192,-2.57035c1.19206,-1.65806 -0.60835,-5.39052 -0.94851,-7.51185c-0.31415,-1.95914 0.59199,-2.75918 -0.53782,-4.24603c-0.26912,-0.35416 -4.08496,2.90345 -4.10326,5.0338c-0.01012,1.17833 4.39051,3.20629 3.83938,4.95491c-0.44034,1.39712 -1.78162,-0.02487 -2.67809,2.01896c-0.96609,2.20255 -1.15694,6.62209 -1.9092,8.30213c-0.24575,0.54882 -2.55211,-1.85335 -2.55078,-4.19275c0.00131,-2.31572 1.44897,-4.41479 1.07665,-6.56599c-0.19389,-1.12027 -0.15767,-2.88667 -0.48145,-3.21565c-1.11158,-1.12949 -4.41865,6.17171 -5.40813,4.82624c-1.45438,-1.97764 -5.1165,-3.9521 -4.06431,-6.05344c0.20159,-0.40262 4.80376,0.96479 7.53092,-0.88512c2.72715,-1.84992 5.80553,-7.53111 5.32622,-7.83627c-0.2414,-0.15367 -1.12385,-1.24562 -1.86427,-1.38074c-1.36975,-0.24999 -2.37523,0.08631 -3.27241,1.60097c-0.79705,1.34561 -1.82581,3.57152 -2.39353,3.62488c-0.61454,0.05778 -0.37324,-1.51459 -0.03266,-2.67813c0.29698,-1.0146 0.75394,-2.43511 0.65324,-2.4629c-0.92895,-0.25649 -1.59129,2.07883 -2.2874,2.86614c-0.92475,1.04593 -2.1402,1.51315 -2.61707,1.41403c-1.08244,-0.22499 -0.86238,-0.41214 -1.37052,-0.79956c-0.82573,-0.62957 0.44795,-1.22425 0.63575,-1.71115c0.01045,-0.02713 1.83327,-0.85568 2.57681,-1.54441c0.98902,-0.91612 2.30317,-3.29704 3.32364,-4.23154c1.14448,-1.04806 1.97709,-0.59822 2.70056,-0.55382c1.85354,0.11374 2.89155,1.26219 4.85253,1.02469c1.67082,-0.20236 2.44835,-1.72444 3.29353,-3.05393c0.86777,-1.36503 1.78893,-2.52915 2.4255,-2.01765c0.7106,0.57098 2.44958,1.61121 2.84596,3.18179c0.23594,0.93489 -1.15823,4.4388 0.35212,8.44283c1.24657,3.30472 6.96809,4.55999 6.79839,5.41863c-0.22713,1.14922 -2.83226,5.5634 -4.82479,3.61715c-0.18057,-0.1764 -1.51647,-1.64197 -2.46831,-3.51239c-1.2937,-2.54219 -2.26926,-5.64673 -2.30433,-5.55581z" data-paper-data="{&quot;index&quot;:null}" fill="#344e5f"/><path d="M41.27096,57.25928c0.76455,0.00724 6.48174,2.9813 6.82035,7.03841c0.16652,1.99519 -4.80558,4.07021 -4.81678,6.53854c-0.034,7.48755 -0.98617,13.54866 -2.12671,13.53787c-1.14054,-0.01079 -2.03757,-6.08939 -2.00357,-13.57694c0.01589,-3.49974 -3.48773,-9.03078 -3.14517,-11.43288c0.39032,-2.7371 4.66444,-2.11073 5.27188,-2.10498z" data-paper-data="{&quot;index&quot;:null}" fill="#344e5f"/><path d="M-19.76446,250.26393c0.51379,18.68264 5.24835,32.78954 -1.09774,33.15309c-0.86099,0.04934 -0.45618,-6.7492 -4.50514,-5.53957c-3.97451,1.1874 -12.41149,10.40839 -12.45742,7.83262c-0.00985,-0.55285 0.19688,-3.18878 -1.11308,-5.20016c-1.52243,-2.33759 -4.52541,-4.14151 -3.40481,-5.70369c0.72801,-1.01491 9.67381,2.20223 10.48019,1.13414c4.05592,-5.37236 8.5187,-10.90853 7.51043,-11.4886c-3.97172,-2.28496 -16.0588,9.93264 -16.04665,2.71027c0.0008,-0.47599 6.93179,-3.57027 6.21206,-6.5459c-0.5082,-2.10116 -9.13649,-4.16092 -7.79829,-5.11994c4.26986,-3.06 16.88269,-0.04695 16.85008,-1.23324c-0.01993,-0.72485 -2.81656,-4.51626 -8.6386,-5.1955c-2.98798,-0.3486 -3.56657,0.93701 -3.62172,-0.56107c-0.05836,-1.58578 -4.61128,-10.6487 -0.03052,-13.67474c1.92891,-1.27424 1.8475,8.5 3.718,9.0933c2.72128,0.86317 7.01381,-6.96053 6.37208,-7.25005c-3.70298,-1.67064 -7.11226,-9.87808 -7.19752,-11.2445c-0.26112,-4.18436 1.34329,-0.47986 4.09843,-1.83529c1.55163,-0.76336 0.56127,7.47089 1.81827,6.30323c1.198,-1.11282 4.59454,-12.01934 6.35255,-13.04544c4.24732,-2.47901 7.49319,5.36031 9.09545,5.26851c6.3461,-0.36358 -7.10984,9.45991 -6.59605,28.14255z" data-paper-data="{&quot;index&quot;:null}" fill="#344e5f"/><path d="M-37.97823,188.36904c0.65932,-0.55873 6.62537,-2.22852 8.3553,1.00639c0.85073,1.59086 -2.68435,7.04731 -1.81846,9.17592c2.62661,6.45704 3.95856,12.36718 2.97499,13.20069c-0.98357,0.83351 -3.91021,-3.72526 -6.53682,-10.1823c-1.2277,-3.01807 -6.19922,-5.18042 -6.75698,-7.49698c-0.63555,-2.63963 3.25814,-5.2598 3.78198,-5.70371z" data-paper-data="{&quot;index&quot;:null}" fill="#344e5f"/><path d="M-72.34203,233.96579c1.0144,-7.91119 1.59219,-4.13797 7.47293,-7.40585c4.80872,-2.67215 3.37503,-6.49139 11.29317,-3.62368c0.765,0.27706 9.57238,4.54683 10.37203,4.62287c7.85313,0.74685 9.00574,-11.4805 12.61891,-12.35754c6.97824,-1.69386 28.42647,-16.0291 29.85643,-9.80193c2.14467,9.33957 -18.0089,41.49764 -17.66824,44.42139c0.56781,4.87317 2.69948,-14.03801 -14.74478,-9.80367c-7.94228,1.92788 -11.62278,-1.27393 -20.87336,-0.00898c-11.06722,1.51335 -27.12019,7.12966 -27.42948,4.47523c-0.16269,-1.39622 8.01373,-2.02756 9.10238,-10.51784z" data-paper-data="{&quot;index&quot;:null}" fill="#344e5f"/><path d="M-51.09222,203.74713c0.74935,0.21902 5.96444,4.72237 5.75696,8.79783c-0.10204,2.00422 -5.25767,2.6625 -5.59708,5.08177c-1.02959,7.33876 -2.77045,13.02316 -3.88833,12.69644c-1.11789,-0.32672 -1.18947,-6.54081 -0.15989,-13.87958c0.48124,-3.4302 -2.22128,-9.82941 -1.56549,-12.09185c0.74722,-2.57798 4.85846,-0.77859 5.45383,-0.60459z" data-paper-data="{&quot;index&quot;:null}" fill="#344e5f"/><path d="M-32.76989,214.34848c-0.01064,-0.0544 -0.79585,1.40999 -1.70039,2.5196c-0.66551,0.8164 -1.49885,1.34934 -1.60961,1.4099c-1.22214,0.66821 -2.21574,-2.13614 -2.23599,-2.78464c-0.01513,-0.48453 3.11793,-0.11293 4.06377,-1.6341c1.14598,-1.84306 0.71338,-3.94723 0.91927,-4.39867c0.34589,-0.75841 1.35534,-0.99362 1.78051,-1.16686c0.38087,-0.15519 0.76665,0.62673 1.10677,1.50519c0.33126,0.85558 0.61004,1.80073 1.47556,2.20994c1.01583,0.48028 1.66419,0.06106 2.65373,0.33626c0.38624,0.10741 0.86537,0.02027 1.37927,0.78126c0.45821,0.67853 0.94603,2.17467 1.38921,2.8378c0.33319,0.49853 1.22466,1.26621 1.22783,1.28244c0.05698,0.29132 0.67854,0.83605 0.18743,1.01942c-0.30222,0.11284 -0.20216,0.25157 -0.79381,0.17467c-0.26065,-0.03388 -0.86249,-0.5007 -1.26044,-1.22081c-0.29955,-0.54205 -0.44683,-1.89619 -0.96009,-1.92867c-0.05563,-0.00353 0.06253,0.82993 0.13138,1.41992c0.07897,0.67659 0.06997,1.5513 -0.24983,1.40959c-0.29543,-0.13091 -0.64588,-1.49349 -0.9503,-2.34889c-0.34266,-0.96287 -0.84489,-1.3225 -1.59057,-1.43817c-0.40308,-0.06253 -0.96431,0.35498 -1.10525,0.39252c-0.27984,0.07458 0.85387,3.63421 2.13463,5.10531c1.28076,1.47111 3.83194,1.58094 3.90353,1.83021c0.37365,1.30099 -1.73339,1.68207 -2.67382,2.46423c-0.63981,0.53213 -1.75371,-3.9251 -2.43931,-3.52921c-0.1997,0.11531 -0.33395,1.05547 -0.53371,1.6125c-0.38359,1.06964 0.19927,2.44097 -0.00112,3.66516c-0.20245,1.23671 -1.63006,2.08911 -1.71228,1.75459c-0.25171,-1.02406 0.03121,-3.39449 -0.28814,-4.73339c-0.29633,-1.24242 -1.12874,-0.73348 -1.24016,-1.55158c-0.13945,-1.02392 2.36256,-1.29968 2.45954,-1.9243c0.17532,-1.12928 -1.55861,-3.54137 -1.73161,-3.40287c-0.72627,0.58147 -0.31681,1.16825 -0.65298,2.1469c-0.364,1.05967 -1.63971,2.70672 -1.15364,3.79872c0.26123,0.58686 0.35511,1.03068 0.47405,1.59719c0.12265,0.58422 0.26689,1.28819 0.30999,1.6946c0.06491,0.61205 -0.79807,2.03128 -0.82417,2.03816c-0.58827,0.15491 -0.41994,-3.68049 -0.77283,-3.46035c-0.62204,0.38804 -0.36293,5.76222 -1.15772,6.68008c-0.44587,0.51491 -0.53508,-2.86554 -1.10906,-3.29497c-0.93689,-0.70095 -2.32918,1.06657 -2.46162,0.4059c-0.08918,-0.44487 2.04004,-1.62175 3.07353,-3.54233c1.05415,-1.95899 0.54972,-5.00454 0.58161,-5.07876c0.12976,-0.30207 1.03189,-1.08696 1.4942,-2.30321c0.38053,-1.00111 0.51778,-2.06826 0.46262,-2.35028z" data-paper-data="{&quot;index&quot;:null}" fill="#344e5f"/><path d="M-27.42641,205.73815c0.06107,0.0332 -0.78003,-1.97129 -1.18544,-3.81101c-0.29829,-1.35358 -0.19415,-2.65066 -0.17028,-2.81472c0.26339,-1.81009 3.74513,-0.56003 4.39329,-0.05378c0.48428,0.37825 -2.22574,3.32372 -1.44955,5.54087c0.94043,2.6863 3.31841,3.94861 3.60481,4.52906c0.48114,0.97514 -0.04556,2.21272 -0.19499,2.79427c-0.13387,0.52096 -1.18613,0.28513 -2.29842,-0.07652c-1.08331,-0.35222 -2.21473,-0.83166 -3.26262,-0.2672c-1.22986,0.66249 -1.30642,1.67539 -2.3164,2.47736c-0.39422,0.31303 -0.66813,0.88052 -1.79594,0.79451c-1.0056,-0.0767 -2.83147,-0.78743 -3.81078,-0.86717c-0.73624,-0.05996 -2.15348,0.23998 -2.17169,0.23008c-0.32705,-0.17779 -1.32442,0.02362 -1.13548,-0.63452c0.11627,-0.40501 -0.09409,-0.41408 0.42424,-0.96484c0.22835,-0.24264 1.13492,-0.48694 2.13595,-0.31397c0.75352,0.1302 2.18563,1.07845 2.60187,0.57285c0.04512,-0.05481 -0.85694,-0.60994 -1.48441,-1.01823c-0.71958,-0.46822 -1.56664,-1.1887 -1.18872,-1.40498c0.34911,-0.1998 1.94169,0.54475 3.00471,0.92465c1.19658,0.42764 1.9239,0.19943 2.59546,-0.47946c0.36302,-0.36697 0.37599,-1.28816 0.44492,-1.46477c0.13687,-0.3507 -4.18706,-2.06958 -6.58256,-1.93803c-2.39551,0.13155 -4.41406,2.68669 -4.711,2.55824c-1.54983,-0.67041 -0.34321,-3.1643 -0.40209,-4.77501c-0.04005,-1.09582 5.14518,1.37335 5.27241,0.34083c0.03706,-0.30074 -0.78005,-1.20426 -1.17412,-1.8642c-0.75669,-1.26725 -2.53192,-1.77799 -3.57672,-2.98099c-1.05547,-1.21531 -0.81794,-3.38812 -0.4298,-3.20138c1.18816,0.57166 3.28997,2.79212 4.83614,3.54963c1.43475,0.70294 1.56161,-0.57366 2.44362,-0.02403c1.10392,0.68792 -0.50142,3.50558 0.03561,4.11393c0.97094,1.09985 4.62445,1.26359 4.61886,0.97167c-0.02346,-1.22556 -0.90298,-1.2782 -1.60638,-2.4223c-0.76163,-1.23883 -1.41356,-3.90025 -2.84362,-4.28423c-0.76854,-0.20635 -1.27209,-0.46987 -1.91417,-0.80716c-0.66215,-0.34784 -1.45736,-0.77067 -1.88635,-1.0564c-0.64605,-0.43031 -1.38482,-2.4787 -1.37197,-2.51134c0.28953,-0.73572 3.90714,2.55698 3.95665,2.01222c0.08727,-0.96026 -5.35259,-5.06095 -5.65305,-6.63103c-0.16855,-0.8808 3.19795,1.77507 4.04713,1.52926c1.38611,-0.40125 0.70394,-3.28145 1.44806,-2.8816c0.50105,0.26925 0.05458,3.43312 1.15498,6.06583c1.12239,2.68536 4.47308,4.63857 4.52163,4.73197c0.19764,0.38009 0.28789,1.95332 1.12871,3.42137c0.69209,1.20836 1.6309,2.21822 1.94751,2.39034z" data-paper-data="{&quot;index&quot;:null}" fill="#344e5f"/><path d="M-35.99096,58.14502c0.21627,0.28825 1.35178,1.07045 2.64784,1.57971c1.5746,0.6187 3.14426,0.47951 3.54902,0.61985c0.09946,0.03447 2.51858,3.06597 5.33848,3.78646c2.76461,0.70638 5.83009,-0.19485 6.16926,0.26178c0.50368,0.67816 -2.44506,0.42152 -2.64075,1.85121c-0.11987,0.87587 2.99676,3.82097 2.10082,3.78212c-1.59707,-0.06925 -6.44432,-4.85588 -7.38173,-4.63008c-0.53179,0.12811 3.25139,3.22916 2.56552,3.62247c-0.03043,0.01745 -2.16439,-0.416 -2.68397,-0.9927c-0.345,-0.38294 -0.87884,-1.10832 -1.31916,-1.71293c-0.42696,-0.58629 -0.76082,-1.04623 -1.0766,-1.77666c-0.58759,-1.35914 -3.31547,-1.61763 -4.65178,-2.19127c-1.23412,-0.52979 -1.41394,-1.39233 -2.62991,-1.23755c-0.28964,0.03687 0.40296,3.62786 1.63217,4.42877c0.67989,0.44298 3.23454,-1.55455 4.07549,-0.56224c0.6719,0.79284 -0.57274,1.10375 0.33111,2.4212c0.97404,1.41976 3.4762,3.17681 4.21436,4.26935c0.24114,0.35691 -1.87414,0.90748 -3.22985,0.0397c-1.34199,-0.85901 -2.10513,-2.54125 -3.46884,-3.10587c-0.71018,-0.29405 -1.72279,-0.97128 -2.01496,-0.89093c-1.0031,0.27584 2.19296,5.0475 1.10293,5.16701c-1.60219,0.17566 -3.89439,1.73169 -4.78278,0.29565c-0.17021,-0.27514 2.06468,-2.64338 1.84694,-5.03259c-0.21774,-2.38921 -2.54637,-6.41765 -2.87347,-6.23131c-0.16474,0.09385 -1.07427,0.24046 -1.38463,0.65293c-0.57417,0.76304 -0.69432,1.51579 -0.09744,2.63757c0.53026,0.99658 1.49821,2.46414 1.35123,2.83857c-0.1591,0.40532 -0.99496,-0.32812 -1.56272,-0.97207c-0.49509,-0.56152 -1.17534,-1.37339 -1.22301,-1.32079c-0.43979,0.48525 0.7064,1.76446 0.94465,2.49109c0.31652,0.9653 0.20647,1.89774 -0.00044,2.1589c-0.46964,0.59282 -0.50916,0.38602 -0.89299,0.55987c-0.62372,0.28253 -0.5693,-0.73352 -0.7927,-1.03128c-0.01244,-0.01658 0.07849,-1.46236 -0.08775,-2.18208c-0.22112,-0.95735 -1.18949,-2.66064 -1.41142,-3.64444c-0.24889,-1.10336 0.2728,-1.45678 0.52526,-1.89228c0.64679,-1.11575 1.63783,-1.3386 2.11468,-2.65164c0.40629,-1.11875 -0.23238,-2.16855 -0.73821,-3.18922c-0.51935,-1.04798 -0.90551,-2.05484 -0.40951,-2.26294c0.55368,-0.23231 1.70165,-0.93316 2.73632,-0.59874c0.61589,0.19906 2.21017,2.36851 5.00457,2.90884c2.30637,0.44596 4.82703,-2.6631 5.2716,-2.23888c0.59502,0.56777 2.33748,3.83104 0.58484,4.35452c-0.15885,0.04744 -1.42706,0.33885 -2.80961,0.24031c-1.8791,-0.13394 -3.98449,-0.675 -3.94277,-0.6194z" data-paper-data="{&quot;index&quot;:null}" fill="#344e5f"/><path d="M-20.22781,59.5985c-0.25803,-0.43434 -1.78428,-1.72199 -3.61628,-2.67095c-2.22571,-1.15291 -4.62171,-1.27581 -5.19824,-1.54678c-0.14166,-0.06658 -3.07312,-4.66322 -7.14996,-6.20177c-3.99691,-1.50839 -8.82386,-0.89388 -9.22743,-1.58126c-0.59934,-1.02083 3.78029,-0.08646 4.41021,-1.98872c0.38591,-1.1654 -3.61602,-5.78332 -2.27615,-5.55255c2.38841,0.41137 8.56419,7.8735 10.02856,7.75318c0.83075,-0.06827 -4.1382,-5.03039 -3.01327,-5.42812c0.04991,-0.01766 3.16129,0.99487 3.80835,1.88113c0.42966,0.58849 1.06333,1.67942 1.58452,2.58782c0.50539,0.88084 0.90018,1.57165 1.20434,2.62613c0.56597,1.9621 4.61262,2.85509 6.49012,3.89947c1.73395,0.96453 1.8024,2.17137 3.66954,2.20283c0.44475,0.00749 0.24407,-5.00573 -1.41887,-6.3374c-0.9198,-0.73656 -5.23469,1.46795 -6.26816,-0.04644c-0.82572,-1.20996 1.1212,-1.38481 0.06927,-3.35314c-1.13362,-2.12119 -4.48896,-5.00398 -5.34416,-6.63403c-0.27937,-0.53249 3.03464,-0.85971 4.87237,0.58789c1.81913,1.43294 2.57365,3.86862 4.49452,4.90619c1.00032,0.54033 2.36615,1.66104 2.82491,1.61c1.57502,-0.17519 -2.11814,-7.28889 -0.44889,-7.23457c2.45355,0.07986 6.26975,-1.57734 7.27059,0.54894c0.19177,0.40738 -3.72861,3.17873 -3.96108,6.46591c-0.23245,3.28718 2.32894,9.21943 2.86515,9.03143c0.27003,-0.0947 1.67386,-0.11302 2.23789,-0.61137c1.04344,-0.92192 1.40088,-1.92008 0.76526,-3.56176c-0.56467,-1.45846 -1.6779,-3.64335 -1.36879,-4.12252c0.33459,-0.5187 1.42112,0.64321 2.12496,1.63034c0.61374,0.86077 1.44757,2.09827 1.53168,2.03631c0.77599,-0.57147 -0.6498,-2.53604 -0.83812,-3.56995c-0.25019,-1.37351 0.13418,-2.61764 0.50695,-2.93113c0.84614,-0.71158 0.85715,-0.42291 1.47583,-0.5827c1.00537,-0.25966 0.68516,1.10905 0.95169,1.55772c0.01486,0.02499 -0.4611,1.96988 -0.37959,2.98011c0.10844,1.34375 1.16702,3.84878 1.27045,5.22862c0.116,1.54752 -0.75237,1.92371 -1.23462,2.46484c-1.23552,1.38638 -2.77994,1.49202 -3.80585,3.18003c-0.87411,1.43824 -0.15867,2.99047 0.36357,4.47679c0.5362,1.52604 0.8815,2.96982 0.08589,3.15382c-0.88814,0.2054 -2.78095,0.92886 -4.26038,0.26922c-0.88062,-0.39266 -2.7723,-3.65497 -6.85301,-4.94384c-3.36802,-1.06376 -7.89241,2.65663 -8.46229,1.99233c-0.76273,-0.88911 -2.621,-5.66599 0.14064,-6.02848c0.25029,-0.03284 2.22814,-0.17651 4.28668,0.232c2.79788,0.55522 5.84099,1.70819 5.79122,1.62441z" data-paper-data="{&quot;index&quot;:null}" fill="#344e5f"/><path d="M-47.2094,89.0881c0.73344,-0.216 7.06937,0.96179 8.57625,4.74387c0.74104,1.85994 -3.40996,5.29456 -2.70095,7.6589c2.15072,7.17209 3.00723,13.24746 1.91311,13.5697c-1.09413,0.32224 -3.72459,-5.23066 -5.8753,-12.40276c-1.00526,-3.3523 -5.96938,-7.6214 -6.34212,-10.019c-0.42473,-2.73198 3.8463,-3.37908 4.42902,-3.5507z" data-paper-data="{&quot;index&quot;:null}" fill="#344e5f"/><path d="M-36.44573,139.53661c-0.28106,-0.34011 -1.7722,-1.0087 -3.4823,-1.18587c-2.07761,-0.21526 -4.16466,0.725 -4.69911,0.69826c-0.13134,-0.00657 -3.27932,-3.51632 -7.00821,-3.3098c-3.65578,0.20246 -7.745,3.0003 -8.18568,2.45993c-0.65444,-0.80252 3.25532,-1.77738 3.54532,-4.05222c0.17766,-1.39366 -3.89825,-4.44806 -2.70949,-4.80404c2.11904,-0.63456 8.4539,4.4309 9.70331,3.6514c0.70881,-0.44222 -4.24885,-3.42591 -3.32988,-4.34471c0.04078,-0.04077 2.86498,-0.36784 3.54268,0.27233c0.45,0.42507 1.14348,1.28575 1.71535,2.00528c0.55453,0.69774 0.98809,1.24561 1.39195,2.2151c0.75148,1.80396 4.36796,0.93429 6.13013,1.19118c1.62745,0.23725 1.84798,1.4716 3.46574,0.67146c0.38536,-0.19058 -0.45844,-5.35542 -2.0736,-6.00915c-0.89337,-0.36161 -4.32746,3.87427 -5.42308,2.74816c-0.87538,-0.89976 0.78374,-1.95171 -0.38852,-3.54536c-1.2633,-1.7174 -4.54843,-3.2417 -5.50545,-4.56858c-0.31262,-0.43345 2.50757,-2.25516 4.28927,-1.55791c1.76368,0.6902 2.74143,2.90637 4.54016,3.13677c0.93673,0.11999 2.26692,0.68516 2.65654,0.42698c1.33771,-0.88638 -2.80511,-6.69441 -1.35531,-7.38229c2.131,-1.01108 5.20732,-4.45077 6.35656,-2.66878c0.22019,0.34141 -2.79718,4.99536 -2.55852,8.54439c0.23867,3.54901 3.24544,8.62376 3.68369,8.18745c0.22069,-0.21974 1.43142,-0.86533 1.85221,-1.63933c0.77845,-1.43185 0.95388,-2.63752 0.18506,-4.07457c-0.68302,-1.27667 -1.93721,-3.06993 -1.73416,-3.71008c0.21979,-0.69294 1.31413,0.04005 2.05437,0.76061c0.6455,0.62833 1.53155,1.55327 1.59596,1.45082c0.59421,-0.94522 -0.90065,-2.36811 -1.20165,-3.36772c-0.39988,-1.32795 -0.23406,-2.80345 0.04616,-3.29834c0.63607,-1.12334 0.6842,-0.82571 1.19749,-1.26924c0.8341,-0.72075 0.74038,0.85668 1.03072,1.20801c0.01618,0.01958 -0.13508,2.27041 0.07046,3.29286c0.27339,1.36003 1.52317,3.51321 1.79706,4.91327c0.30719,1.57019 -0.39296,2.35196 -0.73735,3.1343c-0.88234,2.00437 -2.20287,2.8042 -2.86373,5.03118c-0.56307,1.89746 0.26275,3.20515 0.91282,4.52994c0.66743,1.36021 1.15891,2.71936 0.49595,3.26721c-0.74005,0.61157 -2.27907,2.21442 -3.64578,2.18316c-0.81353,-0.01861 -2.88453,-2.59379 -6.58338,-2.12386c-3.05284,0.38786 -6.46529,6.30601 -7.0466,5.86403c-0.77803,-0.59155 -3.0227,-4.76905 -0.68459,-6.38123c0.2119,-0.1461 1.90192,-1.17919 3.73551,-1.66956c2.49214,-0.66649 5.27615,-0.81588 5.22193,-0.88148z" data-paper-data="{&quot;index&quot;:null}" fill="#344e5f"/><path d="M-33.75858,173.23222c-0.38781,0.21043 -1.33061,1.54521 -1.83327,3.18934c-0.61069,1.99747 -0.08923,4.22635 -0.21823,4.74569c-0.03171,0.12763 -4.08122,2.54208 -4.59548,6.2411c-0.50419,3.62651 1.45525,8.17736 0.84023,8.50592c-0.91337,0.48793 -1.11834,-3.53632 -3.29498,-4.25828c-1.33351,-0.4423 -5.11457,2.97032 -5.23535,1.7353c-0.21531,-2.20151 5.97361,-7.44429 5.44887,-8.82025c-0.29769,-0.78062 -4.1789,3.5109 -4.90387,2.43242c-0.03216,-0.04786 0.18985,-2.88226 0.94838,-3.42423c0.50366,-0.35987 1.48161,-0.87494 2.29767,-1.2978c0.79133,-0.41003 1.41234,-0.73016 2.44139,-0.94009c1.91478,-0.39063 1.75665,-4.10685 2.34755,-5.78675c0.54572,-1.55147 1.79945,-1.53057 1.32527,-3.27198c-0.11293,-0.41481 -5.34365,-0.57977 -6.29572,0.87957c-0.52662,0.80719 2.96998,4.99162 1.65423,5.85028c-1.05126,0.68606 -1.7646,-1.14436 -3.55391,-0.30037c-1.92824,0.90954 -4.05571,3.84032 -5.54184,4.52437c-0.48546,0.22344 -1.73097,-2.89437 -0.70417,-4.50878c1.01641,-1.59808 3.37921,-2.1315 3.95115,-3.85237c0.29785,-0.89618 1.10822,-2.09289 0.92977,-2.52488c-0.61265,-1.48316 -7.10883,1.46569 -7.50514,-0.08932c-0.5825,-2.28563 -3.36655,-5.96588 -1.39685,-6.75107c0.37737,-0.15044 4.36437,3.70542 7.89307,4.15356c3.52868,0.44812 9.08684,-1.52687 8.74293,-2.04082c-0.17321,-0.25882 -0.57398,-1.57109 -1.25263,-2.13284c-1.25547,-1.03922 -2.40492,-1.44318 -3.96297,-0.965c-1.38416,0.42482 -3.38511,1.31083 -3.97427,0.98849c-0.63776,-0.34892 0.29196,-1.28192 1.1414,-1.86981c0.74071,-0.51265 1.81875,-1.20433 1.7306,-1.28724c-0.81333,-0.76485 -2.49708,0.42856 -3.53592,0.53175c-1.38005,0.1371 -2.79613,-0.30931 -3.22792,-0.67945c-0.98009,-0.84018 -0.67877,-0.83019 -1.01533,-1.41918c-0.54694,-0.95711 0.98305,-0.56186 1.38364,-0.77923c0.02232,-0.01212 2.20208,0.56908 3.24497,0.56395c1.38722,-0.00681 3.74052,-0.81929 5.16712,-0.81889c1.59995,0.00044 2.23252,0.83783 2.93405,1.32621c1.79733,1.25125 2.32835,2.70092 4.38672,3.77762c1.75381,0.91738 3.19588,0.35839 4.62093,-0.02484c1.46316,-0.39347 2.89145,-0.61446 3.30161,0.14146c0.45788,0.84383 1.73493,2.66231 1.44148,3.99751c-0.17467,0.79478 -3.09999,2.33202 -3.34998,6.05221c-0.20634,3.07046 4.94531,7.55709 4.39981,8.04258c-0.7301,0.64978 -5.26124,2.04939 -6.3938,-0.55506c-0.10263,-0.23603 -0.79151,-2.09316 -0.9202,-3.98682c-0.17491,-2.57379 0.21375,-5.33458 0.13895,-5.29398z" data-paper-data="{&quot;index&quot;:null}" fill="#344e5f"/></g></g></svg>