<svg version="1.1" xmlns="http://www.w3.org/2000/svg" xmlns:xlink="http://www.w3.org/1999/xlink" width="599.63833" height="441.08829" viewBox="0,0,599.63833,441.08829"><g transform="translate(62.41037,56.54439)"><g data-paper-data="{&quot;isPaintingLayer&quot;:true}" fill-rule="nonzero" stroke="none" stroke-linecap="butt" stroke-linejoin="miter" stroke-miterlimit="10" stroke-dasharray="" stroke-dashoffset="0" style="mix-blend-mode: normal"><path d="M224.02535,184.67774c0,0.0851 2.24121,-1.57319 4.58684,-2.64696c1.7258,-0.79003 3.68664,-1.07024 3.94306,-1.0926c2.82932,-0.24667 3.76015,4.40346 3.53723,5.35507c-0.16655,0.71101 -6.56699,-1.67723 -9.16736,-0.0315c-3.15061,1.99398 -3.10661,5.29832 -3.72187,5.8309c-1.03363,0.89471 -3.24101,0.63953 -4.20106,0.63953c-0.86003,0 -1.34698,-1.36077 -1.69896,-2.83446c-0.34281,-1.43532 -0.53923,-2.96941 -2.182,-4.07338c-1.92804,-1.29568 -3.45549,-1.07104 -5.41244,-2.05403c-0.76385,-0.38369 -1.80154,-0.5403 -2.56499,-1.94637c-0.68073,-1.25371 -1.08895,-3.70963 -1.74456,-4.93216c-0.49288,-0.91908 -2.04328,-2.5578 -2.04328,-2.58319c0,-0.45577 -1.07709,-1.61203 0.02501,-1.58778c0.67821,0.01492 0.5257,-0.24516 1.73161,0.21558c0.53126,0.20298 1.59899,1.23475 2.13668,2.51312c0.40475,0.96229 0.15884,3.01138 1.21899,3.36148c0.11491,0.03795 0.20873,-1.23949 0.30605,-2.13503c0.11161,-1.02699 0.48825,-2.28912 1.09909,-1.89498c0.5643,0.36411 0.73985,2.5454 1.02661,3.9646c0.32278,1.5975 1.22603,2.41513 2.73822,3.02299c0.81741,0.32858 2.16196,0.055 2.47207,0.08379c0.61576,0.05716 -0.29915,-5.77006 -2.37597,-8.65787c-2.07681,-2.88781 -7.36739,-4.55319 -7.41515,-4.95664c-0.24926,-2.10573 4.31326,-1.4139 6.60001,-1.992c1.55578,-0.3933 2.06208,6.72286 3.65789,6.55401c0.46481,-0.04918 1.13016,-1.33219 1.7758,-2.0214c1.23979,-1.32342 0.58175,-3.6546 1.50162,-5.31013c0.92927,-1.67245 4.26367,-2.0647 4.29879,-1.53142c0.10752,1.63246 -1.45382,4.90016 -1.33362,7.02876c0.11154,1.97521 2.06059,1.72923 1.95895,2.98043c-0.12721,1.56599 -5.47269,0.48834 -5.93101,1.33616c-0.82862,1.53281 1.81104,6.05164 2.2295,5.95308c1.75675,-0.41375 1.14044,-1.50573 2.24383,-2.72532c1.19473,-1.32055 4.53649,-2.95392 3.96662,-4.82321c-0.30626,-1.00459 -0.32107,-1.7031 -0.33807,-2.5942c-0.01753,-0.91895 -0.03122,-2.02416 0.04488,-2.63849c0.11461,-0.92518 2.49999,-2.47212 2.55739,-2.46667c1.29368,0.12285 -0.62727,5.58094 0.20081,5.47031c1.45967,-0.19502 3.11611,-8.13513 5.1538,-8.99585c1.14312,-0.48286 -0.0531,4.46806 0.97164,5.42918c1.67266,1.56883 5.30751,-0.17028 5.31424,0.86523c0.00453,0.69727 -4.92991,1.14544 -7.87695,3.31816c-3.00598,2.21617 -3.19684,6.92697 -3.29389,7.0157c-0.39495,0.36107 -2.60271,0.96575 -4.06711,2.45514c-1.20536,1.22593 -1.92892,2.69119 -1.92892,3.13241z" fill="#344e5f" stroke-width="0"/><path d="M122.66375,205.4484c-1.7256,-0.50015 -3.27617,0.00582 -3.71555,-0.09789c-0.10797,-0.02548 -3.226,-3.55913 -6.22937,-3.93986c-2.94449,-0.37328 -5.83147,1.45121 -6.27572,0.91377c-0.65974,-0.79814 2.36939,-1.06014 2.2458,-3c-0.07572,-1.18844 -3.87727,-4.46462 -2.96569,-4.59622c1.62497,-0.23458 7.58373,5.13481 8.47773,4.64305c0.50717,-0.27898 -4.0011,-3.62612 -3.39818,-4.28902c0.02676,-0.02941 2.27448,0.11016 2.92748,0.77025c0.4336,0.43831 1.13432,1.29304 1.71371,2.00643c0.56183,0.69176 1.00146,1.23467 1.48358,2.14072c0.89709,1.68592 3.70409,1.47154 5.17944,1.96054c1.36257,0.45162 1.7373,1.56103 2.92794,1.10668c0.28361,-0.10823 -1.22008,-4.73845 -2.63851,-5.55135c-0.78456,-0.44964 -2.91076,2.72722 -3.98086,1.58057c-0.85499,-0.91616 0.3295,-1.58385 -0.87694,-3.14968c-1.30013,-1.68742 -4.21589,-3.51056 -5.2049,-4.81142c-0.32309,-0.42495 1.68503,-1.58917 3.24594,-0.71328c1.54511,0.86704 2.69162,2.94641 4.19257,3.41782c0.78166,0.2455 1.95403,0.93833 2.23045,0.77182c0.94898,-0.57169 -3.34247,-6.25885 -2.27083,-6.64059c1.57516,-0.56108 3.53596,-3.09755 4.75344,-1.37097c0.23326,0.33081 -1.48754,3.93487 -0.73203,7.06522c0.75552,3.13035 4.00605,8.0073 4.29387,7.69279c0.14495,-0.1584 1.02862,-0.53922 1.24884,-1.1508c0.4074,-1.13139 0.35958,-2.15625 -0.49362,-3.52485c-0.75797,-1.21587 -2.06268,-2.96806 -1.99859,-3.49568c0.06938,-0.57113 1.07628,0.23257 1.79293,0.97216c0.62491,0.64493 1.49259,1.58467 1.52883,1.50502c0.33433,-0.73478 -1.10777,-2.20024 -1.5109,-3.11709c-0.53554,-1.21799 -0.63386,-2.47958 -0.48396,-2.86893c0.34026,-0.8838 0.4265,-0.61705 0.77428,-0.92657c0.56516,-0.50298 0.73828,0.85831 1.03022,1.20829c0.01626,0.01949 0.24903,1.9593 0.57806,2.8817c0.43764,1.22695 1.79568,3.2923 2.24008,4.55423c0.49839,1.41529 0.05197,1.9916 -0.10473,2.62195c-0.40144,1.61494 -1.35015,2.11373 -1.53607,3.95607c-0.15842,1.56974 0.72076,2.83414 1.45952,4.08702c0.75851,1.28637 1.37357,2.54535 0.92043,2.92332c-0.50584,0.42193 -1.50543,1.58802 -2.62314,1.35522c-0.66531,-0.13857 -2.75872,-2.69539 -5.69597,-2.84193c-2.42427,-0.12095 -4.26682,4.52597 -4.81001,4.05318c-0.727,-0.63279 -3.21517,-4.61282 -1.56642,-5.66687c0.14942,-0.09553 1.36207,-0.74213 2.77742,-0.89391c1.92368,-0.20632 4.16676,0.08212 4.11225,0.01677c-0.28261,-0.33881 -1.60241,-1.14603 -3.02278,-1.5577z" data-paper-data="{&quot;index&quot;:null}" fill="#344e5f" stroke-width="0"/><path d="M136.98131,196.57774c0.01157,-1.79658 -0.89735,-3.1509 -0.91716,-3.60191c-0.00486,-0.11083 2.54665,-4.07297 2.09551,-7.06657c-0.44229,-2.93492 -2.9837,-5.21629 -2.58748,-5.79004c0.58843,-0.85208 1.66504,1.99137 3.49802,1.34443c1.12294,-0.39634 3.24068,-4.94611 3.61543,-4.10477c0.66803,1.49976 -2.87669,8.69504 -2.16017,9.42144c0.40649,0.41209 2.40013,-4.83703 3.20213,-4.43731c0.03559,0.01773 0.5131,2.21857 0.05567,3.02659c-0.30374,0.53654 -0.93546,1.44345 -1.46421,2.19514c-0.51272,0.7289 -0.91546,1.29971 -1.65607,2.01025c-1.37808,1.32212 -0.40776,3.96477 -0.47673,5.51753c-0.06368,1.43405 -1.02921,2.09662 -0.26793,3.11862c0.18134,0.24345 4.22743,-2.46379 4.62356,-4.04992c0.21911,-0.87732 -3.41653,-2.05853 -2.60445,-3.40033c0.64884,-1.07209 1.61374,-0.11405 2.79206,-1.70115c1.26983,-1.71035 1.96842,-6.23449 2.95096,-7.54024c0.32097,-0.42655 2.24987,2.41107 1.83192,4.15145c-0.41373,1.72278 -2.10251,3.39198 -2.14758,4.96457c-0.02347,0.81896 -0.37103,2.13566 -0.13557,2.35631c0.8084,0.75754 5.11274,-4.91989 5.77175,-3.99261c0.96865,1.36296 3.94305,2.55933 2.61304,4.2008c-0.25482,0.3145 -4.19119,-0.36033 -6.99771,1.21872c-2.80652,1.57905 -6.61455,6.03432 -6.23357,6.22567c0.19188,0.09637 0.79885,0.84301 1.44727,0.88845c1.19956,0.08405 2.17271,-0.24091 3.2574,-1.43442c0.96364,-1.0603 2.29456,-2.79269 2.8197,-2.87463c0.56845,-0.0887 0.06917,1.09894 -0.44743,1.98984c-0.45049,0.77686 -1.11857,1.86758 -1.03206,1.88076c0.79803,0.12171 1.81565,-1.66484 2.58815,-2.3023c1.02624,-0.84686 2.21342,-1.28484 2.62887,-1.24659c0.94305,0.08684 0.70984,0.24244 1.10235,0.49285c0.63783,0.40692 -0.62494,0.94403 -0.88225,1.32021c-0.01434,0.02095 -1.81754,0.77294 -2.61556,1.34061c-1.0615,0.75508 -2.67922,2.62402 -3.77255,3.39512c-1.22619,0.86481 -1.90227,0.5921 -2.55147,0.61289c-1.66323,0.05328 -2.40142,-0.72382 -4.22481,-0.40125c-1.55358,0.27484 -2.53094,1.46497 -3.53543,2.51686c-1.03134,1.08001 -2.07537,2.01454 -2.56241,1.68139c-0.54369,-0.3719 -1.93783,-1.01635 -2.01806,-2.15522c-0.04775,-0.67791 1.84272,-3.38821 1.18423,-6.25446c-0.54349,-2.36565 -5.51649,-2.87379 -5.2094,-3.52515c0.41102,-0.87181 3.56351,-4.34934 5.02653,-3.04976c0.1326,0.11778 1.08484,1.10864 1.61616,2.42923c0.72214,1.7949 1.05513,4.03179 1.10319,3.96155c0.2491,-0.36416 0.66658,-1.85385 0.67611,-3.33263z" data-paper-data="{&quot;index&quot;:null}" fill="#344e5f" stroke-width="0"/><path d="M203.03858,190.32933c1.73403,0.47009 3.27558,-0.06273 3.71669,0.03333c0.1084,0.02361 3.28735,3.50255 6.29688,3.83106c2.95053,0.32207 5.80539,-1.55229 6.2589,-1.02265c0.67351,0.78656 -2.35063,1.10114 -2.19335,3.03855c0.09635,1.18694 3.95424,4.39659 3.04508,4.54401c-1.62065,0.26278 -7.67178,-5.00229 -8.5571,-4.49508c-0.50225,0.28775 4.06349,3.55606 3.47216,4.22934c-0.02624,0.02987 -2.27604,-0.07062 -2.94042,-0.71927c-0.44115,-0.43071 -1.15662,-1.27314 -1.74831,-1.97636c-0.57376,-0.68189 -1.02276,-1.21708 -1.52054,-2.11462c-0.92625,-1.67008 -3.72909,-1.40698 -5.21272,-1.87028c-1.37021,-0.42788 -1.76416,-1.53062 -2.94672,-1.05565c-0.28169,0.11314 1.30221,4.71653 2.73455,5.50468c0.79225,0.43594 2.86295,-2.77737 3.9528,-1.64948c0.87078,0.90117 -0.30194,1.58934 0.93152,3.13397c1.32925,1.66458 4.27624,3.43679 5.2877,4.72028c0.33041,0.41927 -1.65717,1.61821 -3.23306,0.76956c-1.55994,-0.84007 -2.74239,-2.8992 -4.2513,-3.34446c-0.7858,-0.23188 -1.97004,-0.90424 -2.24351,-0.73296c-0.9389,0.58808 3.45069,6.19985 2.38584,6.60013c-1.56517,0.58836 -3.48162,3.1585 -4.72891,1.45333c-0.23898,-0.32671 1.41896,-3.96011 0.60918,-7.07687c-0.80978,-3.11676 -4.14454,-7.9365 -4.42686,-7.61703c-0.14218,0.16089 -1.01911,0.55701 -1.22866,1.17232c-0.38768,1.13829 -0.32207,2.16216 0.55478,3.51574c0.77898,1.20251 2.11393,2.93179 2.05901,3.46044c-0.05945,0.57225 -1.08016,-0.21384 -1.80954,-0.94087c-0.63602,-0.63398 -1.5199,-1.5585 -1.55475,-1.47824c-0.32152,0.74047 1.14583,2.18067 1.56482,3.09037c0.55662,1.20851 0.67684,2.46819 0.53373,2.86009c-0.32485,0.88958 -0.41572,0.62436 -0.75807,0.93989c-0.55634,0.51272 -0.75308,-0.84535 -1.05106,-1.19022c-0.0166,-0.01921 -0.28303,-1.95468 -0.62803,-2.87122c-0.45889,-1.21916 -1.8526,-3.26061 -2.31885,-4.51463c-0.5229,-1.40641 -0.08655,-1.99041 0.05917,-2.62338c0.37334,-1.62166 1.31322,-2.13686 1.46711,-3.98216c0.13112,-1.57226 -0.76988,-2.82119 -1.53029,-4.06104c-0.78074,-1.273 -1.41758,-2.5211 -0.97107,-2.90689c0.49843,-0.43066 1.47762,-1.61394 2.59921,-1.40059c0.66762,0.12699 2.80512,2.64706 5.74448,2.74256c2.426,0.07881 4.18756,-4.59942 4.73888,-4.13613c0.73789,0.62007 3.29481,4.55627 1.66463,5.6388c-0.14774,0.09811 -1.34896,0.76567 -2.76147,0.94203c-1.91981,0.2397 -4.16756,-0.00973 -4.11192,0.05467c0.28846,0.33385 1.62208,1.11801 3.04937,1.50495z" data-paper-data="{&quot;index&quot;:null}" fill="#344e5f" stroke-width="0"/><path d="M286.79938,187.16492c0,7.34288 -8.54729,13.29545 -19.09091,13.29545c-10.54362,0 -19.09091,-5.95258 -19.09091,-13.29545c0,-4.48268 0.91272,-14.3563 5.79317,-16.76469c3.114,-1.53669 9.19079,3.46924 13.29774,3.46924c1.59446,0 1.55235,4.68158 3.03284,4.93806c8.30952,1.43954 16.05807,2.12494 16.05807,8.35739z" fill="#344e5f" stroke-width="0"/><path d="M291.6892,192.7959c-1.5824,-0.85078 -3.20459,-0.68114 -3.61246,-0.87464c-0.10023,-0.04755 -2.40818,-4.15634 -5.26499,-5.15825c-2.80081,-0.98226 -6.00612,0.19646 -6.32783,-0.42217c-0.47776,-0.91871 2.539,-0.53986 2.82482,-2.46252c0.17511,-1.1779 -2.85515,-5.17824 -1.93623,-5.11581c1.63804,0.11129 6.33874,6.61056 7.31597,6.31715c0.55439,-0.16645 -3.15201,-4.38433 -2.4235,-4.90611c0.03232,-0.02315 2.20084,0.58453 2.70095,1.36685c0.33207,0.51947 0.83804,1.50211 1.255,2.32111c0.40432,0.79417 0.72037,1.41717 1.00183,2.40416c0.52373,1.83653 3.31328,2.21537 4.65334,3.00281c1.23761,0.72723 1.37144,1.89056 2.63087,1.6959c0.3,-0.04636 -0.19961,-4.88893 -1.41609,-5.98113c-0.67286,-0.60411 -3.41782,2.05641 -4.22376,0.7109c-0.64393,-1.07504 0.65422,-1.47958 -0.19715,-3.26354c-0.91749,-1.92248 -3.38626,-4.31637 -4.08058,-5.79566c-0.22682,-0.48324 1.98074,-1.20061 3.32333,-0.01695c1.32902,1.17169 2.01412,3.4452 3.38289,4.22079c0.71281,0.40391 1.7139,1.32713 2.01907,1.22226c1.04773,-0.36003 -1.95609,-6.82049 -0.82823,-6.96907c1.65778,-0.2184 4.10676,-2.28744 4.93522,-0.34398c0.15873,0.37236 -2.27939,3.53558 -2.19691,6.75476c0.08247,3.21918 2.23837,8.6692 2.58573,8.42201c0.17494,-0.12449 1.11882,-0.3116 1.46235,-0.86342c0.63552,-1.02084 0.80363,-2.03295 0.2563,-3.55001c-0.48624,-1.34775 -1.39462,-3.33453 -1.22134,-3.83699c0.18757,-0.54389 1.00361,0.45303 1.54927,1.32643c0.47582,0.7616 1.12722,1.86237 1.17935,1.79208c0.48094,-0.64836 -0.62189,-2.38358 -0.82386,-3.36457c-0.2683,-1.30321 -0.09996,-2.55736 0.12824,-2.90664c0.51797,-0.79283 0.54638,-0.51392 0.95132,-0.74366c0.65805,-0.37333 0.54194,0.99401 0.75402,1.39742c0.01182,0.02247 -0.16724,1.96796 -0.03891,2.93885c0.1707,1.29143 1.06558,3.59559 1.23555,4.92264c0.19061,1.48832 -0.36671,1.95824 -0.65207,2.54174c-0.73109,1.49488 -1.76327,1.78371 -2.33128,3.54614c-0.48398,1.50165 0.11059,2.92226 0.57027,4.30217c0.47198,1.4168 0.80944,2.77674 0.28713,3.05132c-0.58305,0.30651 -1.80489,1.23713 -2.84897,0.77519c-0.62148,-0.27497 -2.13234,-3.21383 -4.97361,-3.97289c-2.34504,-0.62649 -5.12083,3.53091 -5.55284,2.95474c-0.57819,-0.77114 -2.17668,-5.18435 -0.34361,-5.86933c0.16613,-0.06208 1.48738,-0.44009 2.9031,-0.29179c1.92419,0.20155 4.05696,0.95383 4.01736,0.8785c-0.2053,-0.39053 -1.32655,-1.45649 -2.62905,-2.15678z" data-paper-data="{&quot;index&quot;:null}" fill="#344e5f" stroke-width="0"/><path d="M332.74056,214.4316c0.38795,-1.75423 -0.21685,-3.26899 -0.14166,-3.71414c0.01848,-0.10939 3.34392,-3.44858 3.53039,-6.47024c0.18282,-2.96242 -1.82385,-5.72588 -1.31615,-6.20382c0.75398,-0.70979 1.21057,2.29618 3.13843,2.04789c1.18109,-0.15211 4.20558,-4.15683 4.39562,-3.25561c0.33877,1.60648 -4.6356,7.89875 -4.08728,8.75921c0.31107,0.48815 3.36083,-4.22638 4.0612,-3.66741c0.03107,0.02481 0.0366,2.27685 -0.58006,2.97102c-0.40947,0.46094 -1.21728,1.21526 -1.89187,1.8394c-0.65413,0.60522 -1.16758,1.07891 -2.0407,1.6184c-1.62463,1.00384 -1.22987,3.79118 -1.62282,5.29498c-0.3629,1.38883 -1.44588,1.83425 -0.91577,2.99315c0.12627,0.27606 4.65001,-1.52279 5.36985,-2.99064c0.39816,-0.81189 -2.90906,-2.72903 -1.83373,-3.87077c0.85917,-0.91224 1.60179,0.22679 3.08665,-1.07802c1.60017,-1.40614 3.23168,-4.43329 4.46613,-5.50404c0.40325,-0.34978 1.69442,1.57916 0.92089,3.19324c-0.76571,1.59776 -2.76689,2.87583 -3.14063,4.40403c-0.19464,0.79584 -0.8105,2.01042 -0.62653,2.27553c0.63162,0.91017 6.03053,-3.73872 6.4805,-2.69389c0.66139,1.53574 3.31889,3.32907 1.67432,4.65525c-0.31509,0.25409 -4.02251,-1.23097 -7.0977,-0.27537c-3.07518,0.9556 -7.7326,4.51355 -7.4002,4.78052c0.16741,0.13445 0.60437,0.99175 1.22885,1.17211c1.15528,0.33366 2.17493,0.21993 3.48573,-0.71966c1.16451,-0.83472 2.82903,-2.2496 3.35968,-2.21963c0.57441,0.03245 -0.16275,1.08902 -0.85465,1.85182c-0.60334,0.66516 -1.48522,1.59158 -1.40341,1.62261c0.75478,0.2863 2.12431,-1.24721 3.01328,-1.70857c1.18097,-0.6129 2.43359,-0.79228 2.83179,-0.66777c0.90389,0.28261 0.64324,0.38586 0.97453,0.71299c0.53835,0.53158 -0.80896,0.79204 -1.13942,1.10592c-0.01841,0.01748 -1.93918,0.37473 -2.83847,0.76249c-1.1962,0.51577 -3.16979,2.00404 -4.40047,2.5288c-1.38024,0.58853 -1.98413,0.18015 -2.62326,0.06439c-1.63744,-0.29659 -2.19631,-1.21118 -4.0468,-1.27803c-1.57668,-0.05696 -2.78183,0.90183 -3.98451,1.71977c-1.23483,0.8398 -2.45157,1.53468 -2.85796,1.10683c-0.45364,-0.47761 -1.6817,-1.40001 -1.52139,-2.53039c0.09542,-0.67286 2.51208,-2.92662 2.46911,-5.86721c-0.03548,-2.42702 -4.79145,-3.9664 -4.35462,-4.53892c0.58465,-0.76626 4.39612,-3.50563 5.55418,-1.92822c0.10496,0.14296 0.82833,1.31142 1.07098,2.71406c0.32981,1.9064 0.18646,4.1634 0.24817,4.10479c0.31991,-0.30385 1.04041,-1.67291 1.35974,-3.11684z" data-paper-data="{&quot;index&quot;:null}" fill="#344e5f" stroke-width="0"/><path d="M305.86876,224.05464c-0.01092,0.06782 1.9878,-0.96606 3.99473,-1.52075c1.4766,-0.40812 3.07509,-0.37982 3.28229,-0.36474c2.28624,0.16646 2.43136,3.99143 2.13162,4.72114c-0.22395,0.54521 -5.01783,-2.17912 -7.30114,-1.20134c-2.76647,1.18469 -3.15537,3.82346 -3.71399,4.16891c-0.93846,0.58035 -2.66471,0.09378 -3.42974,-0.0294c-0.68533,-0.11035 -0.89878,-1.25718 -0.99017,-2.47668c-0.08901,-1.18774 -0.0487,-2.43542 -1.21611,-3.52591c-1.37015,-1.27987 -2.61615,-1.29684 -4.04946,-2.33125c-0.55945,-0.40375 -1.36626,-0.6617 -1.79423,-1.88011c-0.38159,-1.08639 -0.39178,-3.09581 -0.75736,-4.15412c-0.27484,-0.79563 -1.30005,-2.30039 -1.29679,-2.32062c0.05848,-0.36318 -0.65146,-1.42278 0.22366,-1.26205c0.53853,0.09891 0.45037,-0.12791 1.35221,0.39397c0.3973,0.22991 1.11576,1.18909 1.3802,2.27678c0.19906,0.81875 -0.2598,2.42005 0.54007,2.83506c0.0867,0.04499 0.32536,-0.96092 0.51782,-1.66206c0.22071,-0.80406 0.68278,-1.76149 1.11897,-1.36903c0.40296,0.36255 0.26297,2.12327 0.30938,3.29098c0.05224,1.31441 0.6671,2.08185 1.79412,2.76026c0.60921,0.36672 1.71574,0.32121 1.95916,0.38395c0.48334,0.12455 0.50195,-4.63637 -0.78247,-7.20404c-1.28442,-2.56767 -5.28663,-4.57358 -5.27292,-4.90121c0.07155,-1.70997 3.61851,-0.57327 5.51493,-0.74053c1.29021,-0.11379 0.78062,5.62181 2.07393,5.69201c0.3767,0.02045 1.07152,-0.91658 1.67444,-1.38294c1.15775,-0.89552 0.93248,-2.83759 1.87792,-4.0388c0.9551,-1.21349 3.66249,-1.09824 3.62206,-0.66878c-0.12378,1.31465 -1.78723,3.71825 -1.96456,5.42989c-0.16456,1.5883 1.42015,1.64236 1.17862,2.62636c-0.30229,1.23156 -4.42367,-0.31304 -4.89768,0.30375c-0.85697,1.11513 0.66669,5.05473 1.01279,5.02989c1.45299,-0.1043 1.10199,-1.05355 2.13772,-1.88382c1.12148,-0.89901 3.99399,-1.77182 3.77972,-3.33451c-0.11516,-0.83982 -0.03732,-1.39835 0.06346,-2.11061c0.10394,-0.73453 0.23484,-1.61699 0.3743,-2.09677c0.21003,-0.72254 2.30936,-1.64919 2.3544,-1.63748c1.01513,0.26389 -1.21593,4.36679 -0.54186,4.38488c1.18818,0.03189 3.52693,-6.08281 5.26113,-6.50724c0.97287,-0.2381 -0.6156,3.55365 0.07766,4.45102c1.1316,1.46476 4.25124,0.5453 4.12374,1.37133c-0.08586,0.55621 -4.07547,0.28022 -6.70265,1.63347c-2.67972,1.38031 -3.43624,5.10971 -3.52496,5.16796c-0.36105,0.23706 -2.19793,0.43563 -3.55596,1.43459c-1.11781,0.82225 -1.8824,1.89703 -1.93901,2.24862z" fill="#344e5f" stroke-width="0"/><path d="M291.89648,185.36389c-0.01092,0.06782 1.9878,-0.96606 3.99473,-1.52075c1.4766,-0.40812 3.07509,-0.37982 3.28229,-0.36474c2.28624,0.16646 2.43136,3.99143 2.13162,4.72114c-0.22395,0.54521 -5.01783,-2.17912 -7.30114,-1.20134c-2.76647,1.18469 -3.15537,3.82346 -3.71399,4.16891c-0.93846,0.58035 -2.66471,0.09378 -3.42974,-0.0294c-0.68533,-0.11035 -0.89878,-1.25718 -0.99017,-2.47668c-0.08901,-1.18774 -0.0487,-2.43542 -1.21611,-3.52591c-1.37015,-1.27987 -2.61615,-1.29684 -4.04946,-2.33125c-0.55945,-0.40375 -1.36626,-0.6617 -1.79423,-1.88011c-0.38159,-1.08639 -0.39178,-3.09581 -0.75736,-4.15412c-0.27484,-0.79563 -1.30005,-2.30039 -1.29679,-2.32062c0.05848,-0.36318 -0.65146,-1.42278 0.22366,-1.26205c0.53853,0.09891 0.45037,-0.12791 1.35221,0.39397c0.3973,0.22991 1.11576,1.18909 1.3802,2.27678c0.19906,0.81875 -0.2598,2.42005 0.54007,2.83506c0.0867,0.04499 0.32536,-0.96092 0.51782,-1.66206c0.22071,-0.80406 0.68278,-1.76149 1.11897,-1.36903c0.40296,0.36255 0.26297,2.12327 0.30938,3.29098c0.05224,1.31441 0.6671,2.08185 1.79412,2.76026c0.60921,0.36672 1.71574,0.32121 1.95916,0.38395c0.48334,0.12455 0.50195,-4.63637 -0.78247,-7.20404c-1.28442,-2.56767 -5.28663,-4.57358 -5.27292,-4.90121c0.07155,-1.70997 3.61851,-0.57327 5.51493,-0.74053c1.29021,-0.11379 0.78062,5.62181 2.07393,5.69201c0.3767,0.02045 1.07152,-0.91658 1.67444,-1.38294c1.15775,-0.89552 0.93248,-2.83759 1.87792,-4.0388c0.9551,-1.21349 3.66249,-1.09824 3.62206,-0.66878c-0.12378,1.31465 -1.78723,3.71825 -1.96456,5.42989c-0.16456,1.5883 1.42015,1.64236 1.17862,2.62636c-0.30229,1.23156 -4.42367,-0.31304 -4.89768,0.30375c-0.85697,1.11513 0.66669,5.05473 1.01279,5.02989c1.45299,-0.1043 1.10199,-1.05355 2.13772,-1.88382c1.12148,-0.89901 3.99399,-1.77182 3.77972,-3.33451c-0.11516,-0.83982 -0.03732,-1.39835 0.06346,-2.11061c0.10394,-0.73453 0.23484,-1.61699 0.3743,-2.09677c0.21003,-0.72254 2.30936,-1.64919 2.3544,-1.63748c1.01513,0.26389 -1.21593,4.36679 -0.54186,4.38488c1.18818,0.03189 3.52693,-6.08281 5.26113,-6.50724c0.97287,-0.2381 -0.6156,3.55365 0.07766,4.45102c1.1316,1.46476 4.25124,0.5453 4.12374,1.37133c-0.08586,0.55621 -4.07547,0.28022 -6.70265,1.63347c-2.67972,1.38031 -3.43624,5.10971 -3.52496,5.16796c-0.36105,0.23706 -2.19793,0.43563 -3.55596,1.43459c-1.11781,0.82225 -1.8824,1.89703 -1.93901,2.24862z" fill="#344e5f" stroke-width="0"/><path d="M274.32405,173.15779c0,0.87677 0.58592,7.04974 -2.15481,7.59516c-2.40529,0.47867 -7.90307,-4.61439 -11.40288,-4.61439c-7.48771,0 -13.55769,-1.33454 -13.55769,-2.98077c0,-1.64623 6.06999,-2.98077 13.55769,-2.98077c2.46838,0 4.59039,-7.16266 6.58397,-6.90925c4.05382,0.51531 6.97373,8.78648 6.97373,9.89001z" fill="#344e5f" stroke-width="0"/><path d="" data-paper-data="{&quot;index&quot;:null}" fill="#344e5f" stroke-width="0"/><path d="" data-paper-data="{&quot;index&quot;:null}" fill="#344e5f" stroke-width="0"/><path d="M74.86723,196.88757c-0.08448,0.01029 1.83267,2.03452 3.18221,4.23308c0.99293,1.6176 1.5082,3.53018 1.56141,3.782c0.587,2.77872 -3.91644,4.26505 -4.88803,4.15884c-0.72593,-0.07935 0.87078,-6.72163 -1.07733,-9.10389c-2.36034,-2.88637 -5.63511,-2.4431 -6.23818,-2.98944c-1.01314,-0.91784 -1.02677,-3.13989 -1.14286,-4.09289c-0.104,-0.85372 1.1879,-1.50165 2.60821,-2.02925c1.38332,-0.51386 2.88241,-0.89436 3.77962,-2.65857c1.05302,-2.07058 0.64531,-3.55964 1.38445,-5.62112c0.2885,-0.80463 0.31849,-1.85366 1.62191,-2.78154c1.16219,-0.82735 3.55072,-1.52955 4.68499,-2.32819c0.85274,-0.6004 2.29193,-2.33761 2.31714,-2.34067c0.45242,-0.05511 1.46995,-1.26412 1.57915,-0.16718c0.06721,0.67503 0.30694,0.4922 -0.0046,1.74497c-0.13725,0.55191 -1.03232,1.73658 -2.2363,2.4249c-0.90628,0.51815 -2.97007,0.52183 -3.1894,1.61654c-0.02377,0.11866 1.25562,0.0573 2.15636,0.04562c1.03295,-0.01341 2.33137,0.20785 2.01399,0.86187c-0.2932,0.60419 -2.43725,1.04223 -3.81136,1.49849c-1.54674,0.51359 -2.24915,1.5091 -2.66969,3.08369c-0.22733,0.85115 0.20685,2.15274 0.21577,2.46405c0.01772,0.61815 5.69155,-0.99472 8.30701,-3.4055c2.61547,-2.41079 3.62886,-7.86393 4.02356,-7.96013c2.06013,-0.50207 1.92512,4.11063 2.7755,6.31068c0.57855,1.49679 -6.42417,2.85993 -6.06356,4.42361c0.10502,0.45544 1.45908,0.96077 2.2213,1.51832c1.46363,1.07064 3.69813,0.13553 5.45275,0.84846c1.77255,0.7202 2.56514,3.98269 2.04003,4.08206c-1.60748,0.30414 -5.04,-0.85058 -7.13845,-0.47386c-1.94723,0.34958 -1.46736,2.25458 -2.72167,2.30499c-1.56988,0.0631 -1.14655,-5.37348 -2.04359,-5.72591c-1.62177,-0.63717 -5.78822,2.52956 -5.63978,2.93302c0.62315,1.69382 1.6326,0.94999 2.97666,1.8978c1.45534,1.02627 3.48084,4.14599 5.26749,3.35425c0.96018,-0.4255 1.65179,-0.52466 2.53429,-0.6493c0.91008,-0.12853 2.00552,-0.27577 2.62454,-0.27451c0.93225,0.00188 2.75629,2.1827 2.75783,2.24034c0.03449,1.29905 -5.61585,0.05222 -5.40588,0.86085c0.3701,1.42537 8.45225,2.10948 9.55306,4.02813c0.61755,1.07634 -4.44169,0.4876 -5.27184,1.62104c-1.35505,1.85009 0.81085,5.24796 -0.21624,5.37987c-0.6916,0.08881 -1.7332,-4.75522 -4.24636,-7.41789c-2.56341,-2.71592 -7.26272,-2.33571 -7.36253,-2.42132c-0.40618,-0.34839 -1.2734,-2.46682 -2.92896,-3.74037c-1.3627,-1.04827 -2.9047,-1.58932 -3.34268,-1.53597z" data-paper-data="{&quot;index&quot;:null}" fill="#344e5f" stroke-width="0"/><path d="M441.23994,220.60122c-1.71228,-0.54402 -3.27525,-0.07778 -3.71184,-0.19267c-0.10729,-0.02823 -3.13414,-3.64028 -6.12682,-4.09753c-2.93401,-0.44829 -5.86661,1.30194 -6.297,0.75334c-0.63916,-0.81471 2.39568,-0.99933 2.32162,-2.94171c-0.04537,-1.18998 -3.76209,-4.5621 -2.84744,-4.6704c1.63043,-0.19304 7.45023,5.32664 8.35649,4.85786c0.51413,-0.26594 -3.90727,-3.72703 -3.28762,-4.37433c0.0275,-0.02872 2.27093,0.16815 2.90687,0.84469c0.42228,0.44923 1.10096,1.32156 1.66195,2.0495c0.54399,0.70587 0.96963,1.25982 1.42847,2.17788c0.85379,1.70827 3.66533,1.56558 5.12773,2.09207c1.3506,0.48624 1.6969,1.60486 2.89874,1.18104c0.28629,-0.10095 -1.09877,-4.76803 -2.496,-5.61687c-0.77283,-0.46951 -2.9794,2.65205 -4.0199,1.47848c-0.83134,-0.93767 0.36982,-1.57493 -0.79629,-3.17103c-1.25665,-1.72005 -4.12495,-3.61699 -5.08044,-4.94266c-0.31213,-0.43306 1.72504,-1.54566 3.26308,-0.63022c1.52249,0.90618 2.61556,3.01412 4.10399,3.52367c0.77513,0.26536 1.92946,0.98789 2.21002,0.82848c0.96325,-0.54728 -3.18167,-6.3421 -2.10064,-6.69636c1.58896,-0.52071 3.61385,-3.00632 4.78687,-1.24923c0.22474,0.33665 -1.58746,3.89563 -0.91207,7.04424c0.67539,3.14862 3.80043,8.10692 4.09618,7.79985c0.14895,-0.15464 1.04205,-0.5128 1.2778,-1.11855c0.43613,-1.12062 0.41448,-2.14636 -0.40352,-3.5363c-0.7267,-1.23481 -1.98628,-3.01974 -1.90874,-3.54555c0.08393,-0.56917 1.07,0.25996 1.76753,1.0176c0.60825,0.66067 1.45168,1.62224 1.48993,1.54354c0.35297,-0.72601 -1.05127,-2.2278 -1.43088,-3.15463c-0.50429,-1.23127 -0.57038,-2.49494 -0.4106,-2.88035c0.3627,-0.87483 0.44211,-0.60596 0.79767,-0.90652c0.57781,-0.4884 0.71614,0.87687 0.99906,1.23419c0.01576,0.01991 0.19896,1.96501 0.50433,2.89551c0.40619,1.23771 1.71109,3.33705 2.12314,4.60991c0.46212,1.42754 0.00112,1.99229 -0.17161,2.61843c-0.44253,1.60416 -1.40364,2.07858 -1.63651,3.91558c-0.19842,1.56519 0.6482,2.85161 1.35475,4.12293c0.72544,1.30531 1.30818,2.57957 0.84554,2.94586c-0.51644,0.40889 -1.54547,1.54909 -2.65687,1.28785c-0.66156,-0.1555 -2.68904,-2.76491 -5.6216,-2.98635c-2.42039,-0.18277 -4.38092,4.41563 -4.91187,3.92913c-0.71063,-0.65114 -3.09641,-4.69335 -1.42131,-5.70499c0.15181,-0.09169 1.38055,-0.70713 2.79932,-0.82276c1.92832,-0.15716 4.16332,0.18842 4.11049,0.1217c-0.27388,-0.34592 -1.57265,-1.18654 -2.98204,-1.63432z" data-paper-data="{&quot;index&quot;:null}" fill="#344e5f" stroke-width="0"/><path d="M383.21482,218.02079c-13.14002,0.43921 -24.20032,5.21934 -24.41565,-1.22285c-0.07687,-2.29974 7.11483,-2.35399 9.47744,-6.69141c0.72571,-1.3323 -4.97548,0.09294 -4.55514,-1.51682c0.74638,-2.85837 -1.97045,-4.29213 0.98335,-4.24267c0.96457,0.01615 6.97303,3.0456 8.41906,6.70799c0.2506,0.63469 5.41916,-4.11191 4.61216,-6.82207c-0.5547,-1.86286 -7.40323,-1.2786 -6.65257,-3.29646c1.78266,-4.79202 8.47579,-0.6489 9.59221,-0.67125c1.05467,-0.02111 0.19597,0.63057 0.66188,3.6371c0.90781,5.85818 3.77394,8.49427 4.28374,8.47723c0.83436,-0.02789 -2.21337,-12.6399 -0.38386,-17.11898c0.57338,-1.40377 2.65729,7.22404 4.16848,7.63056c2.14012,0.57572 3.79646,-6.5987 4.13021,-6.62395c5.06408,-0.38313 -2.60825,12.47872 -0.71149,16.38158c0.48152,0.9908 4.03325,-3.81068 7.50025,-8.19193c0.68929,-0.87106 -2.22983,-9.76082 -1.57203,-10.54983c1.0125,-1.21448 2.50012,1.73251 4.25227,3.15349c1.50763,1.22267 3.34087,0.87807 3.72931,0.85966c1.80976,-0.08577 -4.03158,8.92759 -4.56974,13.01156c-0.54824,4.16047 4.1895,3.40167 4.21871,4.27569c0.21533,6.44219 -10.02856,2.37416 -23.16858,2.81338z" fill="#344e5f" stroke-width="0"/><path d="M170.22633,203.74162c-9.66627,3.01207 -16.90107,8.822 -18.3778,4.08289c-0.52717,-1.69178 4.80136,-3.20212 5.6689,-6.90546c0.26647,-1.13753 -3.67514,1.08605 -3.69209,-0.19507c-0.03011,-2.27482 -2.34034,-2.78399 -0.13714,-3.35104c0.71946,-0.18518 5.7998,0.8359 7.62207,3.25952c0.31581,0.42001 3.18303,-4.1607 2.02987,-6.00795c-0.79264,-1.26972 -5.75802,0.56399 -5.61316,-1.08766c0.34403,-3.92231 6.16036,-2.21433 6.9847,-2.45913c0.77875,-0.23127 0.2744,0.42811 1.23488,2.56513c1.8715,4.16396 4.53834,5.53529 4.91337,5.41844c0.61379,-0.19126 -4.22709,-8.93228 -3.78431,-12.63183c0.13877,-1.15945 3.44962,4.82043 4.65473,4.81336c1.70665,-0.01001 1.46991,-5.67536 1.71254,-5.76233c3.6816,-1.31962 0.61425,9.79821 2.82032,12.30822c0.56004,0.63721 2.21562,-3.65375 3.89416,-7.61538c0.33373,-0.78763 -3.65079,-6.79129 -3.32368,-7.51157c0.50349,-1.10868 2.2104,0.77528 3.80177,1.47215c1.3693,0.59961 2.65996,-0.03097 2.94462,-0.12404c1.32616,-0.43362 -1.16842,7.45254 -0.73318,10.59477c0.44339,3.20107 3.8059,1.66925 4.00626,2.31221c1.47672,4.7391 -6.96058,3.81269 -16.62684,6.82475z" fill="#344e5f" stroke-width="0"/><path d="" fill="#344e5f" stroke-width="0"/><path d="M286.40024,160.9434c0,1.26114 -4.93925,3.12806 -8.68307,6.46963c-2.29476,2.04819 -4.14039,5.95879 -4.1242,6.77512c0.12158,6.13035 3.15848,11.80911 -1.67252,11.80911c-2.50407,0 -2.83278,-8.72581 -4.64333,-10.57923c-2.4686,-2.52704 3.50019,-2.5589 3.50019,-6.09159c0,-7.83914 -6.33332,-15.52768 0.19052,-15.52768c3.54829,0 -0.48666,8.78652 5.17473,8.6779c4.74759,-0.09109 10.25768,-5.10873 10.25768,-1.53326z" fill="#344e5f" stroke-width="0"/><path d="M482.17988,197.9246c0,1.26113 -4.93924,3.12806 -8.68307,6.46962c-2.29476,2.04819 -4.1404,5.95879 -4.12421,6.77512c0.12158,6.13035 3.15848,11.80911 -1.67252,11.80911c-2.50408,0 -2.83278,-8.72581 -4.64333,-10.57923c-2.4686,-2.52704 3.50019,-2.55889 3.50019,-6.09159c0,-7.83913 -6.33332,-15.52767 0.19052,-15.52767c3.54828,0 -0.48666,8.78652 5.17473,8.67789c4.74759,-0.09109 10.25768,-5.10873 10.25768,-1.53326z" fill="#344e5f" stroke-width="0"/><path d="M286.79938,187.16492c0,7.34288 -8.54729,13.29545 -19.09091,13.29545c-10.54362,0 -19.09091,-5.95258 -19.09091,-13.29545c0,-4.48268 0.91272,-14.3563 5.79317,-16.76469c3.114,-1.53669 9.19079,3.46924 13.29774,3.46924c1.59446,0 1.55235,4.68158 3.03284,4.93806c8.30952,1.43954 16.05807,2.12494 16.05807,8.35739z" fill="#344e5f" stroke-width="0"/><path d="M291.89648,185.36389c-0.01092,0.06782 1.9878,-0.96606 3.99473,-1.52075c1.4766,-0.40812 3.07509,-0.37982 3.28229,-0.36474c2.28624,0.16646 2.43136,3.99143 2.13162,4.72114c-0.22395,0.54521 -5.01783,-2.17912 -7.30114,-1.20134c-2.76647,1.18469 -3.15537,3.82346 -3.71399,4.16891c-0.93846,0.58035 -2.66471,0.09378 -3.42974,-0.0294c-0.68533,-0.11035 -0.89878,-1.25718 -0.99017,-2.47668c-0.08901,-1.18774 -0.0487,-2.43542 -1.21611,-3.52591c-1.37015,-1.27987 -2.61615,-1.29684 -4.04946,-2.33125c-0.55945,-0.40375 -1.36626,-0.6617 -1.79423,-1.88011c-0.38159,-1.08639 -0.39178,-3.09581 -0.75736,-4.15412c-0.27484,-0.79563 -1.30005,-2.30039 -1.29679,-2.32062c0.05848,-0.36318 -0.65146,-1.42278 0.22366,-1.26205c0.53853,0.09891 0.45037,-0.12791 1.35221,0.39397c0.3973,0.22991 1.11576,1.18909 1.3802,2.27678c0.19906,0.81875 -0.2598,2.42005 0.54007,2.83506c0.0867,0.04499 0.32536,-0.96092 0.51782,-1.66206c0.22071,-0.80406 0.68278,-1.76149 1.11897,-1.36903c0.40296,0.36255 0.26297,2.12327 0.30938,3.29098c0.05224,1.31441 0.6671,2.08185 1.79412,2.76026c0.60921,0.36672 1.71574,0.32121 1.95916,0.38395c0.48334,0.12455 0.50195,-4.63637 -0.78247,-7.20404c-1.28442,-2.56767 -5.28663,-4.57358 -5.27292,-4.90121c0.07155,-1.70997 3.61851,-0.57327 5.51493,-0.74053c1.29021,-0.11379 0.78062,5.62181 2.07393,5.69201c0.3767,0.02045 1.07152,-0.91658 1.67444,-1.38294c1.15775,-0.89552 0.93248,-2.83759 1.87792,-4.0388c0.9551,-1.21349 3.66249,-1.09824 3.62206,-0.66878c-0.12378,1.31465 -1.78723,3.71825 -1.96456,5.42989c-0.16456,1.5883 1.42015,1.64236 1.17862,2.62636c-0.30229,1.23156 -4.42367,-0.31304 -4.89768,0.30375c-0.85697,1.11513 0.66669,5.05473 1.01279,5.02989c1.45299,-0.1043 1.10199,-1.05355 2.13772,-1.88382c1.12148,-0.89901 3.99399,-1.77182 3.77972,-3.33451c-0.11516,-0.83982 -0.03732,-1.39835 0.06346,-2.11061c0.10394,-0.73453 0.23484,-1.61699 0.3743,-2.09677c0.21003,-0.72254 2.30936,-1.64919 2.3544,-1.63748c1.01513,0.26389 -1.21593,4.36679 -0.54186,4.38488c1.18818,0.03189 3.52693,-6.08281 5.26113,-6.50724c0.97287,-0.2381 -0.6156,3.55365 0.07766,4.45102c1.1316,1.46476 4.25124,0.5453 4.12374,1.37133c-0.08586,0.55621 -4.07547,0.28022 -6.70265,1.63347c-2.67972,1.38031 -3.43624,5.10971 -3.52496,5.16796c-0.36105,0.23706 -2.19793,0.43563 -3.55596,1.43459c-1.11781,0.82225 -1.8824,1.89703 -1.93901,2.24862z" fill="#344e5f" stroke-width="0"/><path d="M286.40024,160.9434c0,1.26114 -4.93925,3.12806 -8.68307,6.46963c-2.29476,2.04819 -4.14039,5.95879 -4.1242,6.77512c0.12158,6.13035 3.15848,11.80911 -1.67252,11.80911c-2.50407,0 -2.83278,-8.72581 -4.64333,-10.57923c-2.4686,-2.52704 3.50019,-2.5589 3.50019,-6.09159c0,-7.83914 -6.33332,-15.52768 0.19052,-15.52768c3.54829,0 -0.48666,8.78652 5.17473,8.6779c4.74759,-0.09109 10.25768,-5.10873 10.25768,-1.53326z" fill="#344e5f" stroke-width="0"/><path d="M52.82832,204.96014c5.51375,4.84937 4.33873,15.1987 -2.62447,23.11588c-6.9632,7.91718 -17.07778,10.40412 -22.59151,5.55476c-3.36603,-2.96045 -10.17733,-10.16653 -8.76264,-15.42179c0.90265,-3.35315 8.67481,-4.61019 11.38713,-7.69409c1.05301,-1.19728 4.54059,1.92615 5.71092,0.98383c6.56871,-5.2889 12.20067,-10.65462 16.8806,-6.53859z" fill="#344e5f" stroke-width="0"/><path d="M54.84215,199.94331c0.04371,0.05299 0.58736,-2.13064 1.49627,-4.00396c0.66872,-1.37831 1.74564,-2.55991 1.8938,-2.70554c1.63487,-1.6068 4.60287,0.81032 4.95286,1.5173c0.2615,0.52823 -4.95016,2.32874 -5.72389,4.68902c-0.93745,2.85972 0.78716,4.89444 0.67764,5.54205c-0.184,1.08796 -1.6894,2.06286 -2.28714,2.55596c-0.53546,0.44173 -1.53758,-0.15537 -2.51366,-0.89213c-0.95066,-0.71757 -1.86091,-1.57183 -3.45074,-1.41541c-1.86592,0.18359 -2.70155,1.10801 -4.42487,1.50113c-0.67265,0.15344 -1.39917,0.58892 -2.59671,0.10562c-1.06778,-0.43094 -2.58337,-1.75035 -3.61949,-2.17476c-0.77895,-0.31907 -2.58593,-0.54302 -2.59898,-0.55883c-0.23409,-0.28376 -1.49859,-0.45045 -0.79996,-1.00143c0.42992,-0.33905 0.20139,-0.42266 1.18886,-0.75518c0.43503,-0.14649 1.62976,-0.05252 2.62114,0.46724c0.74626,0.39125 1.64563,1.79333 2.48551,1.46679c0.09104,-0.03539 -0.50668,-0.87892 -0.90606,-1.48648c-0.458,-0.69675 -0.87178,-1.67602 -0.28901,-1.74436c0.53837,-0.06315 1.76803,1.20478 2.67551,1.94111c1.02149,0.82883 2.00382,0.87397 3.25754,0.47573c0.6777,-0.21527 1.3743,-1.07621 1.58218,-1.21756c0.41273,-0.28068 -3.14994,-3.43886 -5.92625,-4.17013c-2.77631,-0.73127 -6.92568,0.94924 -7.16265,0.72257c-1.23676,-1.18302 1.95927,-3.09572 3.0861,-4.6302c0.76664,-1.04397 4.73694,3.12658 5.64378,2.2018c0.26413,-0.26936 0.01939,-1.40993 0.06739,-2.17065c0.09216,-1.46077 -1.51491,-2.5742 -1.79251,-4.07742c-0.28044,-1.51859 1.59411,-3.47545 1.88989,-3.16147c0.90542,0.96117 1.6117,3.79763 2.77986,5.06118c1.08397,1.17251 2.17113,0.01826 2.75051,0.84948c0.72514,1.04033 -3.15653,3.11499 -3.00644,3.87826c0.27139,1.37995 4.23588,2.83762 4.4458,2.56134c0.88127,-1.15992 -0.06333,-1.52326 -0.00276,-2.84932c0.06559,-1.43584 1.30725,-4.16922 -0.00767,-5.04036c-0.70667,-0.46816 -1.07467,-0.89547 -1.54294,-1.44154c-0.48291,-0.56315 -1.0591,-1.24423 -1.32726,-1.66581c-0.40384,-0.63489 0.28678,-2.82325 0.32531,-2.84934c0.86857,-0.58798 2.47598,3.79695 2.93474,3.30274c0.80864,-0.87114 -2.23831,-6.66557 -1.41172,-8.24807c0.46371,-0.88777 2.26187,2.80915 3.39355,2.88122c1.84721,0.11764 3.21706,-2.83212 3.75313,-2.19085c0.36095,0.4318 -2.4811,3.24533 -3.19999,6.11178c-0.73326,2.92377 1.56751,5.95481 1.55265,6.0599c-0.06044,0.42767 -1.12444,1.93812 -1.27119,3.61759c-0.1208,1.38239 0.1813,2.66632 0.40792,2.94103z" fill="#344e5f" stroke-width="0"/><path d="M32.87504,187.94267c0.94699,0.83288 -0.91312,5.7747 -0.87643,10.79276c0.02248,3.0758 1.74005,7.04431 2.36372,7.57127c4.68356,3.9573 10.95336,5.42726 7.76287,9.05485c-1.65373,1.8803 -8.42301,-3.63556 -11.01046,-3.50006c-3.52786,0.18476 0.39012,-4.31823 -2.26257,-6.65129c-5.88639,-5.17712 -15.84234,-5.4991 -11.53387,-10.39784c2.34336,-2.6644 6.27638,6.16821 9.9337,1.84536c3.067,-3.62511 2.93823,-11.07637 5.62304,-8.71506z" fill="#344e5f" stroke-width="0"/><path d="M52.82832,204.96014c5.51375,4.84937 4.33873,15.1987 -2.62447,23.11588c-6.9632,7.91718 -17.07778,10.40412 -22.59151,5.55476c-3.36603,-2.96045 -10.17733,-10.16653 -8.76264,-15.42179c0.90265,-3.35315 8.67481,-4.61019 11.38713,-7.69409c1.05301,-1.19728 4.54059,1.92615 5.71092,0.98383c6.56871,-5.2889 12.20067,-10.65462 16.8806,-6.53859z" fill="#344e5f" stroke-width="0"/><path d="M54.84215,199.94331c0.04371,0.05299 0.58736,-2.13064 1.49627,-4.00396c0.66872,-1.37831 1.74564,-2.55991 1.8938,-2.70554c1.63487,-1.6068 4.60287,0.81032 4.95286,1.5173c0.2615,0.52823 -4.95016,2.32874 -5.72389,4.68902c-0.93745,2.85972 0.78716,4.89444 0.67764,5.54205c-0.184,1.08796 -1.6894,2.06286 -2.28714,2.55596c-0.53546,0.44173 -1.53758,-0.15537 -2.51366,-0.89213c-0.95066,-0.71757 -1.86091,-1.57183 -3.45074,-1.41541c-1.86592,0.18359 -2.70155,1.10801 -4.42487,1.50113c-0.67265,0.15344 -1.39917,0.58892 -2.59671,0.10562c-1.06778,-0.43094 -2.58337,-1.75035 -3.61949,-2.17476c-0.77895,-0.31907 -2.58593,-0.54302 -2.59898,-0.55883c-0.23409,-0.28376 -1.49859,-0.45045 -0.79996,-1.00143c0.42992,-0.33905 0.20139,-0.42266 1.18886,-0.75518c0.43503,-0.14649 1.62976,-0.05252 2.62114,0.46724c0.74626,0.39125 1.64563,1.79333 2.48551,1.46679c0.09104,-0.03539 -0.50668,-0.87892 -0.90606,-1.48648c-0.458,-0.69675 -0.87178,-1.67602 -0.28901,-1.74436c0.53837,-0.06315 1.76803,1.20478 2.67551,1.94111c1.02149,0.82883 2.00382,0.87397 3.25754,0.47573c0.6777,-0.21527 1.3743,-1.07621 1.58218,-1.21756c0.41273,-0.28068 -3.14994,-3.43886 -5.92625,-4.17013c-2.77631,-0.73127 -6.92568,0.94924 -7.16265,0.72257c-1.23676,-1.18302 1.95927,-3.09572 3.0861,-4.6302c0.76664,-1.04397 4.73694,3.12658 5.64378,2.2018c0.26413,-0.26936 0.01939,-1.40993 0.06739,-2.17065c0.09216,-1.46077 -1.51491,-2.5742 -1.79251,-4.07742c-0.28044,-1.51859 1.59411,-3.47545 1.88989,-3.16147c0.90542,0.96117 1.6117,3.79763 2.77986,5.06118c1.08397,1.17251 2.17113,0.01826 2.75051,0.84948c0.72514,1.04033 -3.15653,3.11499 -3.00644,3.87826c0.27139,1.37995 4.23588,2.83762 4.4458,2.56134c0.88127,-1.15992 -0.06333,-1.52326 -0.00276,-2.84932c0.06559,-1.43584 1.30725,-4.16922 -0.00767,-5.04036c-0.70667,-0.46816 -1.07467,-0.89547 -1.54294,-1.44154c-0.48291,-0.56315 -1.0591,-1.24423 -1.32726,-1.66581c-0.40384,-0.63489 0.28678,-2.82325 0.32531,-2.84934c0.86857,-0.58798 2.47598,3.79695 2.93474,3.30274c0.80864,-0.87114 -2.23831,-6.66557 -1.41172,-8.24807c0.46371,-0.88777 2.26187,2.80915 3.39355,2.88122c1.84721,0.11764 3.21706,-2.83212 3.75313,-2.19085c0.36095,0.4318 -2.4811,3.24533 -3.19999,6.11178c-0.73326,2.92377 1.56751,5.95481 1.55265,6.0599c-0.06044,0.42767 -1.12444,1.93812 -1.27119,3.61759c-0.1208,1.38239 0.1813,2.66632 0.40792,2.94103z" fill="#344e5f" stroke-width="0"/><path d="M3.24373,239.13926c-2.68481,2.36131 -2.55604,-5.08995 -5.62304,-8.71506c-3.65732,-4.32285 -7.59034,4.50976 -9.9337,1.84536c-4.30847,-4.89874 5.64748,-5.22072 11.53387,-10.39784c2.65269,-2.33306 -1.26529,-6.83605 2.26257,-6.65129c2.58745,0.1355 9.35673,-5.38036 11.01046,-3.50006c3.19049,3.62759 -3.07931,5.09755 -7.76287,9.05485c-0.62367,0.52696 -2.34124,4.49547 -2.36372,7.57127c-0.03669,5.01806 1.82342,9.95988 0.87643,10.79276z" data-paper-data="{&quot;index&quot;:null}" fill="#344e5f" stroke-width="0"/><path d="M475.04057,327.41622c-2.62633,-12.88237 -9.18555,-22.98962 -2.86968,-24.27724c2.25465,-0.45966 3.50855,6.6221 8.17948,8.22758c1.43474,0.49315 -0.92213,-4.89017 0.73521,-4.74442c2.94285,0.2588 3.90302,-2.65923 4.34729,0.26138c0.14508,0.95373 -1.83896,7.38357 -5.20861,9.42062c-0.58396,0.35302 4.95877,4.65679 7.49621,3.40874c1.74414,-0.85786 0.02494,-7.51279 2.13979,-7.10947c5.02235,0.95778 2.05454,8.24857 2.26293,9.3456c0.19686,1.03635 -0.58901,0.29847 -3.4756,1.25969c-5.62447,1.8729 -7.74517,5.13883 -7.64328,5.63863c0.16677,0.818 12.09313,-4.29212 16.81475,-3.23591c1.47978,0.33102 -6.67915,3.82582 -6.82772,5.38367c-0.21042,2.20619 7.13982,2.64177 7.22042,2.96662c1.22303,4.92909 -12.73902,-0.48876 -16.27052,2.03284c-0.89653,0.64015 4.43044,3.3406 9.32892,6.02766c0.97389,0.53423 9.25169,-3.82779 10.13943,-3.31092c1.36644,0.79558 -1.29089,2.75423 -2.39948,4.71898c-0.95387,1.69056 -0.30811,3.44057 -0.22512,3.82048c0.38665,1.77005 -9.47528,-2.48486 -13.59179,-2.33379c-4.19361,0.1539 -2.65465,4.69852 -3.51154,4.87321c-6.31587,1.28762 -4.01478,-9.49158 -6.64113,-22.37395z" fill="#344e5f" stroke-width="0"/><path d="M-32.00208,-56.29439c0,-0.13807 0.11193,-0.25 0.25,-0.25c0.13807,0 0.25,0.11193 0.25,0.25c0,0.13807 -0.11193,0.25 -0.25,0.25c-0.13807,0 -0.25,-0.11193 -0.25,-0.25z" fill-opacity="0.06275" fill="#5e5e5e" stroke-width="0.5"/><path d="M-9.67709,352.90015c-6.41894,-20.87279 -63.17172,-59.12222 -51.03781,-107.83091c1.45604,-5.84495 35.8304,-4.65917 46.86783,-12.65107c9.11326,-6.59866 33.43049,1.44645 39.98169,-6.66625c5.81169,-7.19693 41.41817,-8.17704 43.80201,-12.11404c9.91691,-16.37811 54.32611,-12.05683 54.81809,-11.84518c24.56098,10.5665 28.56033,-7.19593 53.06887,3.48104c2.79715,1.21856 21.06938,-8.42 22.79652,-8.42c4.27429,0 6.64732,-0.72702 10.79068,-1.72959c10.20407,-2.46918 22.84565,-8.84009 41.26332,-11.63558c2.60808,-0.39586 7.00004,3.70781 9.92359,3.47932c3.99937,-0.31256 6.63209,-4.88946 10.85883,-4.94062c15.8426,-0.19177 31.80911,1.24245 36.85634,2.72646c25.28745,7.43516 53.93255,17.80316 74.8096,21.57765c17.29998,3.12778 38.79201,9.01676 58.70927,8.39402c26.08358,-0.81554 41.16245,-6.58609 68.91804,0.4373c9.41071,2.38133 1.75392,16.65359 2.40837,34.06961c0.54688,14.55357 -12.78531,29.69296 -10.74297,43.53287c1.34753,9.13155 18.4283,18.60622 18.4283,23.73893c0,0 19.10687,48.06204 13.27859,62.27914c-5.4859,13.38193 -34.21651,-7.35116 -85.83217,2.32091c-46.41652,8.69783 -221.19742,-2.29121 -266.87133,1.36993c-107.57476,8.62301 -190.47928,-21.06603 -193.09568,-29.57395z" fill="#344e5f" stroke-width="0"/></g></g></svg>