<svg version="1.1" xmlns="http://www.w3.org/2000/svg" xmlns:xlink="http://www.w3.org/1999/xlink" width="516.37108" height="177.19081" viewBox="0,0,516.37108,177.19081"><g transform="translate(-0.30014,-189.98518)"><g data-paper-data="{&quot;isPaintingLayer&quot;:true}" fill-rule="nonzero" stroke="none" stroke-linecap="butt" stroke-linejoin="miter" stroke-miterlimit="10" stroke-dasharray="" stroke-dashoffset="0" style="mix-blend-mode: normal"><g><path d="M17.26468,333.86111v-139.01439h170.21421v139.01441z" fill="#617a8d" stroke-width="0"/><path d="M157.28491,323.89761l3.66259,-3.21133l5.45762,2.75837l7.85537,0.81205c0,0 5.5051,6.63076 5.5051,7.59289c0,1.27545 -5.92498,1.90827 -9.772,1.48346c-2.00725,-0.22165 -3.21958,-1.48346 -3.21958,-1.48346h-15.51115z" data-paper-data="{&quot;index&quot;:null}" fill="#bec3c5" stroke-width="0"/><path d="M36.37342,335.51801h-8.5962c0,0 -0.67187,1.26182 -1.78427,1.48346c-2.132,0.4248 -5.41559,-0.20801 -5.41559,-1.48346c0,-0.96214 3.0509,-7.59289 3.0509,-7.59289l4.35341,-0.81205l3.02458,-2.75837l2.02979,3.21133z" fill="#bec3c5" stroke-width="0"/><path d="M16.27726,349.57803v-18.83417h172.18905v18.83417z" fill="#254966" stroke-width="0"/><g stroke-width="0"><path d="M57.83569,337.12622l6.89187,-9.18916l29.39905,-2.3274l21.69076,1.44917l24.26136,9.60793l-33.99991,7.35133l-23.49475,-0.66728z" fill="#bec3c5"/><path d="M55.33822,349.69271l2.37924,-12.20191l7.47484,-0.24128c0,0 12.58721,2.00231 15.17984,2.06845c13.03632,0.33253 48.10335,-2.75773 48.10335,-2.75773l11.17818,0.63893l5.25705,9.00726l-23.19379,3.32008z" fill="#4c616a"/></g><path d="M96.86969,309.54589c0.34022,-0.27116 0.29348,-1.85972 1.91495,-2.88701c1.29782,-0.82223 4.28219,-1.17583 4.80584,-1.01572c0.65558,0.20048 3.12159,0.98834 2.82447,2.11549c-0.07353,0.27902 4.08095,1.01159 3.8742,1.33635c-0.48847,0.76729 -2.91857,0.15417 -4.67262,0.60784c-1.20385,0.31137 -2.00515,1.80978 -1.97827,1.86149c2.10417,4.04814 1.04569,5.64018 0.61071,8.93411c-0.25324,1.91765 -1.40677,4.08803 -2.37661,6.04432c-0.57213,1.15403 2.41207,1.06941 2.19029,1.97858c-0.02762,0.11324 -3.46567,1.09502 -4.56543,1.07055c-1.15794,-0.02577 -0.36598,-1.19763 -1.48764,-0.90885c-0.66431,0.17106 -1.70044,1.83747 -3.31593,0.57999c-3.03262,-2.36051 -1.6797,-5.1193 -1.23731,-8.46926c0.32289,-2.44485 1.3188,-5.00402 1.94984,-6.89624c0.16209,-0.48607 0.8214,-3.83998 1.46351,-4.35169z" data-paper-data="{&quot;index&quot;:null}" fill="#0e0e0f" stroke-width="0"/><path d="M97.81822,321.95028c-2.91784,3.14926 -6.2492,4.80722 -7.44081,3.70318c-1.19161,-1.10404 0.20778,-4.55202 3.12562,-7.70129c2.91784,-3.14926 6.24921,-4.80722 7.44083,-3.70318c1.19162,1.10404 -0.20778,4.55202 -3.12562,7.70129z" fill="#0e0e0f" stroke-width="0"/><path d="M186.19502,353.2356v-162.96043h9.57879v162.96043z" fill="#0f1417" stroke-width="0"/><path d="M8.21042,353.78765v-162.96043h9.57879v162.96043z" fill="#0f1417" stroke-width="0"/><g fill="#6e9ab7" stroke-width="0"><path d="M21.75277,339.79882l8.12825,-3.19902l9.83092,1.38353l-8.12825,1.29667z"/><path d="M142.70151,339.83329l8.69739,-0.81079l9.05763,4.06456l-8.16802,-1.01642z"/><path d="M167.87938,338.58164l7.43309,-0.85032l7.67833,-0.01121l-6.0833,2.42565z"/><path d="M40.55242,343.7221l7.33414,-4.74473l9.91026,-0.58992l-7.71071,2.88002z"/></g><text transform="translate(99.06027,299.85144) scale(0.44498,0.44498)" font-size="40" xml:space="preserve" fill="#ecf3f6" fill-rule="nonzero" stroke="none" stroke-width="1" stroke-linecap="butt" stroke-linejoin="miter" stroke-miterlimit="10" stroke-dasharray="" stroke-dashoffset="0" font-family="Sans Serif" font-weight="normal" text-anchor="start" style="mix-blend-mode: normal"><tspan x="0" dy="0">?</tspan></text></g><path d="M10.46534,207.37249v-17.38731h478.63248v17.38731z" fill="#0f1417" stroke-width="0"/><path d="M0.30014,367.17599v-22.61048h516.37108v22.61048z" fill="#0f1417" stroke-width="0"/><path d="M194.68408,361.54873v-160.85253h17.34684v160.85253z" fill="#0f1417" stroke-width="0"/></g></g></svg>