<svg version="1.1" xmlns="http://www.w3.org/2000/svg" xmlns:xlink="http://www.w3.org/1999/xlink" width="695.53558" height="529.55283" viewBox="0,0,695.53558,529.55283"><g transform="translate(110.89528,86.93791)"><g data-paper-data="{&quot;isPaintingLayer&quot;:true}" fill-rule="nonzero" stroke="none" stroke-width="0" stroke-linecap="butt" stroke-linejoin="miter" stroke-miterlimit="10" stroke-dasharray="" stroke-dashoffset="0" style="mix-blend-mode: normal"><path d="M423.91016,373.72258c-17.49538,-3.44537 -12.27587,-8.1801 -23.46445,3.48494c-9.36067,9.75929 -15.44544,5.07101 -17.63099,-6.08499c-0.70836,-3.61576 2.72978,-8.44477 1.70027,-12.98173c-2.50036,-11.01885 -12.89496,-23.06209 -11.85447,-34.54306c0.52655,-5.80998 2.75118,-12.42354 3.14258,-18.5957c1.33912,-21.11737 0.37687,-43.45391 2.60232,-66.12175c0.82287,-8.38157 4.02758,-16.17921 4.82687,-24.50868c1.68882,-17.5993 3.291,-34.90988 4.66294,-51.20309c1.71055,-20.31459 2.60241,-40.01226 3.12135,-57.32547c0.20945,-6.98773 -3.22088,-9.41151 -3.10362,-15.50618c0.0772,-4.01253 3.71979,-11.98186 3.7781,-15.52376c0.30567,-18.5681 0.46666,-30.21337 1.68796,-30.15778c2.22985,0.10149 -3.24978,-17.33079 2.4096,-24.61061c3.29332,-4.23629 -24.99585,-29.59114 -10.87644,-32.1009c32.98828,-5.86374 134.46307,-17.04401 146.05148,-11.34936c27.98093,1.62274 -4.50642,71.2529 -5.3468,100.56172c-2.71212,94.58679 11.90411,286.17097 11.90411,307.82038z" data-paper-data="{&quot;index&quot;:null}" fill="#344e5f"/><path d="M-102.94497,442.61492v-528.64939h687.58527v528.64939z" fill="none"/><path d="M-110.89528,435.59936v-522.53727h694.92685v522.53727z" fill="none"/></g></g></svg>