<svg version="1.1" xmlns="http://www.w3.org/2000/svg" xmlns:xlink="http://www.w3.org/1999/xlink" width="51.81665" height="51.81832" viewBox="0,0,51.81665,51.81832"><g transform="translate(-214.04461,-154.09084)"><g data-paper-data="{&quot;isPaintingLayer&quot;:true}" fill-rule="nonzero" stroke-linecap="butt" stroke-linejoin="miter" stroke-miterlimit="10" stroke-dasharray="" stroke-dashoffset="0" style="mix-blend-mode: normal"><path d="M215.04462,184.40968h49.90893v7.51064v6.40715c0,0 -3.32733,6.7608 -7.44421,6.75793c-10.74522,-0.0075 -29.94667,-0.0209 -35.71439,-0.02493c-3.40644,-0.00238 -6.75032,-1.11445 -6.75032,-4.52089c0,-3.72103 0,-16.1299 0,-16.1299" fill="#ffffff" stroke="none" stroke-width="1"/><path d="M225.5073,198.22296l5.41417,-6.18765v5.41417l-0.77338,0.77348z" fill="#99d9f4" stroke="none" stroke-width="1"/><path d="M215.45234,184.10809v-6.70935h49.5012v6.70935z" fill="#ffffff" stroke="none" stroke-width="1"/><path d="M264.95355,184.45959h-49.90893c0,0 0,-17.75911 0,-23.02715c0,-3.36152 1.95849,-6.10585 5.31997,-6.12186c4.68683,-0.02232 26.14777,-0.22443 37.49998,-0.33296c4.82516,-0.04613 7.08897,3.95088 7.08897,8.77625c0,5.45592 0,20.70572 0,20.70572z" fill="#36a9e1" stroke="none" stroke-width="1"/><path d="M215.04462,184.45959v-4.0261h49.90893v4.0261z" fill="#5ebae7" stroke="none" stroke-width="1"/><path d="M215.04462,184.45959v-2.47923h49.90893v2.47923z" fill="#86cbed" stroke="none" stroke-width="1"/><path d="M230.14809,183.52732l0.77338,0.77348h-2.32034h-10.05496l-0.77338,-0.77348l5.80091,-5.80091l2.70708,1.9336l6.18765,-6.18765l3.86731,3.09382l-0.77348,1.54696z" fill="#ffffff" stroke="none" stroke-width="1"/><path d="M226.35076,180.71013l-3.1638,3.59067l0.77348,-6.96113z" fill="#99d9f4" stroke="none" stroke-width="1"/><path d="M230.14809,184.3008v-0.77348l15.08239,-15.08238l8.89473,15.85587z" fill="#99d9f4" stroke="none" stroke-width="1"/><path d="M261.85972,184.3008h-17.01599l3.86731,-6.96113h-3.48057v-8.89473z" fill="#ffffff" stroke="none" stroke-width="1"/><path d="M264.95355,183.52732v1.54697h-49.90893v-1.54697h1.63436l6.89472,-6.89472l2.32034,2.32034l6.57439,-6.57439l3.86731,3.86731l8.89474,-8.89484l16.1762,16.1763zM245.23048,169.53875l-13.98868,13.98857h27.97725zM218.8666,183.52732h10.18767l6.18765,-6.18765l-2.77349,-2.77349l-6.57439,6.57439l-2.32034,-2.32034z" fill="#1d1d1b" stroke="none" stroke-width="1"/><path d="M264.95538,197.5441l-0.00367,1.54696l-40.98853,-0.09829l4.64568,-6.19427l-13.56425,-0.08872v-1.54696l15.10816,0.099h1.54218v6.20252zM227.05151,197.45315l3.09657,0.00744v-4.1362z" fill="#1d1d1b" stroke="none" stroke-width="1"/><path d="M226.28078,188.16811v-1.54697h6.18765v1.54697z" fill="#1d1d1b" stroke="none" stroke-width="1"/><path d="M234.78878,190.48845v-1.54697h2.32034v1.54697z" fill="#1d1d1b" stroke="none" stroke-width="1"/><path d="M218.54617,189.71497v-1.54696h2.32034v1.54696z" fill="#1d1d1b" stroke="none" stroke-width="1"/><path d="M238.65608,194.35576v-1.54697h14.69565v1.54697z" fill="#1d1d1b" stroke="none" stroke-width="1"/><path d="M251.80487,190.48845v-1.54697h5.41417v1.54697z" fill="#1d1d1b" stroke="none" stroke-width="1"/><path d="M258.76589,193.58228v-1.54697h2.32034v1.54697z" fill="#1d1d1b" stroke="none" stroke-width="1"/><path d="M215.04462,200.58996v-1.54697h4.27503v1.54697z" fill="#1d1d1b" stroke="none" stroke-width="1"/><path d="M218.54617,197.44958v-1.54696h3.09382v1.54696z" fill="#1d1d1b" stroke="none" stroke-width="1"/><path d="M228.60113,202.86375v-1.54696h7.73461v1.54696z" fill="#1d1d1b" stroke="none" stroke-width="1"/><path d="M215.04463,198.7261c0,-11.25908 0,-34.36061 0,-38.83371c0,-1.96596 2.20029,-4.88183 5.04715,-4.79986c6.01019,0.17305 28.98107,0 38.72378,0c3.13463,0 5.92554,1.84509 6.0457,4.68375c0.21175,5.00233 0,27.097 0,38.60767c0,3.94876 -2.69927,6.52521 -6.79115,6.52521c-11.1123,0 -32.49513,0 -37.97835,0c-2.51898,0 -5.04715,-2.43555 -5.04715,-6.18307z" fill="none" stroke="#0f2e3d" stroke-width="2"/></g></g></svg>