<svg version="1.1" xmlns="http://www.w3.org/2000/svg" xmlns:xlink="http://www.w3.org/1999/xlink" width="695.53558" height="529.55283" viewBox="0,0,695.53558,529.55283"><g transform="translate(110.89528,86.93791)"><g data-paper-data="{&quot;isPaintingLayer&quot;:true}" fill-rule="nonzero" stroke="none" stroke-width="0" stroke-linecap="butt" stroke-linejoin="miter" stroke-miterlimit="10" stroke-dasharray="" stroke-dashoffset="0" style="mix-blend-mode: normal"><path d="M105.31782,81.31729c2.44545,-12.91792 0.20018,-24.75594 6.53348,-23.55701c2.26088,0.42799 0.74083,7.45744 4.45647,10.71152c1.14131,0.99954 0.99756,-4.87535 2.4764,-4.11309c2.62591,1.35349 4.61918,-0.98395 3.92486,1.88751c-0.22673,0.93769 -4.49701,6.13806 -8.387,6.74803c-0.67414,0.10572 2.82706,6.18732 5.64811,5.99263c1.93908,-0.13382 2.86689,-6.94432 4.67171,-5.77049c4.28608,2.78762 -1.22065,8.4125 -1.44303,9.50678c-0.21009,1.03375 -0.65817,0.0533 -3.6938,-0.14967c-5.9149,-0.39549 -9.11405,1.82468 -9.20892,2.32586c-0.15527,0.82025 12.81797,0.60484 16.78844,3.36973c1.24437,0.86653 -7.63033,1.01289 -8.35754,2.39858c-1.02987,1.96237 5.60855,5.14782 5.56019,5.47901c-0.73377,5.02526 -11.6061,-5.27447 -15.82931,-4.27728c-1.07212,0.25315 2.83626,4.76908 6.35312,9.1104c0.69921,0.86312 10.01219,-0.04093 10.63822,0.77351c0.96362,1.25362 -2.23739,2.06064 -4.0072,3.45957c-1.52282,1.2037 -1.58753,3.06793 -1.65453,3.45099c-0.31215,1.7847 -7.82964,-5.88662 -11.69702,-7.30501c-3.93981,-1.44495 -4.23563,3.34404 -5.09488,3.18138c-6.3333,-1.19893 -0.12321,-10.30502 2.32222,-23.22295z" data-paper-data="{&quot;index&quot;:null}" fill="#344e5f"/><path d="M-36.94792,420.34611c0,-21.64941 14.61623,-213.23359 11.90411,-307.82038c-0.84038,-29.30882 -33.32773,-98.93898 -5.3468,-100.56172c11.58841,-5.69465 113.0632,5.48562 146.05148,11.34936c14.11941,2.50976 -14.16976,27.86461 -10.87644,32.1009c5.65938,7.27982 0.17975,24.7121 2.4096,24.61061c1.2213,-0.05559 1.38229,11.58968 1.68796,30.15778c0.05831,3.5419 3.7009,11.51123 3.7781,15.52376c0.11726,6.09467 -3.31307,8.51845 -3.10362,15.50618c0.51894,17.31321 1.4108,37.01088 3.12135,57.32547c1.37194,16.29321 2.97412,33.60379 4.66294,51.20309c0.79929,8.32947 4.004,16.12711 4.82687,24.50868c2.22545,22.66784 1.2632,45.00438 2.60232,66.12175c0.3914,6.17216 2.61603,12.78572 3.14258,18.5957c1.04049,11.48097 -9.35411,23.52421 -11.85447,34.54306c-1.02951,4.53696 2.40863,9.36597 1.70027,12.98173c-2.18555,11.156 -8.27032,15.84428 -17.63099,6.08499c-11.18858,-11.66504 -5.96907,-6.93031 -23.46445,-3.48494z" data-paper-data="{&quot;index&quot;:null}" fill="#344e5f"/><path d="M168.96274,163.50818c-0.01092,0.06782 1.9878,-0.96606 3.99473,-1.52075c1.4766,-0.40812 3.07509,-0.37982 3.28229,-0.36474c2.28624,0.16646 2.43136,3.99143 2.13162,4.72114c-0.22395,0.54521 -5.01783,-2.17912 -7.30114,-1.20134c-2.76647,1.18469 -3.15537,3.82346 -3.71399,4.16891c-0.93846,0.58035 -2.66471,0.09378 -3.42974,-0.0294c-0.68533,-0.11035 -0.89878,-1.25718 -0.99017,-2.47668c-0.08901,-1.18774 -0.0487,-2.43542 -1.21611,-3.52591c-1.37015,-1.27987 -2.61615,-1.29684 -4.04946,-2.33125c-0.55945,-0.40375 -1.36626,-0.6617 -1.79423,-1.88011c-0.38159,-1.08639 -0.39178,-3.09581 -0.75736,-4.15412c-0.27484,-0.79563 -1.30005,-2.30039 -1.29679,-2.32062c0.05848,-0.36318 -0.65146,-1.42278 0.22366,-1.26205c0.53853,0.09891 0.45037,-0.12791 1.35221,0.39397c0.3973,0.22991 1.11576,1.18909 1.3802,2.27678c0.19906,0.81875 -0.2598,2.42005 0.54007,2.83506c0.0867,0.04499 0.32536,-0.96092 0.51782,-1.66206c0.22071,-0.80406 0.68278,-1.76149 1.11897,-1.36903c0.40296,0.36255 0.26297,2.12327 0.30938,3.29098c0.05224,1.31441 0.6671,2.08185 1.79412,2.76026c0.60921,0.36672 1.71574,0.32121 1.95916,0.38395c0.48334,0.12455 0.50195,-4.63637 -0.78247,-7.20404c-1.28442,-2.56767 -5.28663,-4.57358 -5.27292,-4.90121c0.07155,-1.70997 3.61851,-0.57327 5.51493,-0.74053c1.29021,-0.11379 0.78062,5.62181 2.07393,5.69201c0.3767,0.02045 1.07152,-0.91658 1.67444,-1.38294c1.15775,-0.89552 0.93248,-2.83759 1.87792,-4.0388c0.9551,-1.21349 3.66249,-1.09824 3.62206,-0.66878c-0.12378,1.31465 -1.78723,3.71825 -1.96456,5.42989c-0.16456,1.5883 1.42015,1.64236 1.17862,2.62636c-0.30229,1.23156 -4.42367,-0.31304 -4.89768,0.30375c-0.85697,1.11513 0.66669,5.05473 1.01279,5.02989c1.45299,-0.1043 1.10199,-1.05355 2.13772,-1.88382c1.12148,-0.89901 3.99399,-1.77182 3.77972,-3.33451c-0.11516,-0.83982 -0.03732,-1.39835 0.06346,-2.11061c0.10394,-0.73453 0.23484,-1.61699 0.3743,-2.09677c0.21003,-0.72254 2.30936,-1.64919 2.3544,-1.63748c1.01513,0.26389 -1.21593,4.36679 -0.54186,4.38488c1.18818,0.03189 3.52693,-6.08281 5.26113,-6.50724c0.97287,-0.2381 -0.6156,3.55365 0.07766,4.45102c1.1316,1.46476 4.25124,0.5453 4.12374,1.37133c-0.08586,0.55621 -4.07547,0.28022 -6.70265,1.63347c-2.67972,1.38031 -3.43624,5.10971 -3.52496,5.16796c-0.36105,0.23706 -2.19793,0.43563 -3.55596,1.43459c-1.11781,0.82225 -1.8824,1.89703 -1.93901,2.24862z" data-paper-data="{&quot;index&quot;:null}" fill="#344e5f"/><path d="M105.53986,208.35791c2.44545,-12.91792 -10.04837,-21.75652 -3.71506,-20.55759c1.59903,0.3027 5.66725,-4.66597 9.67509,-2.30854c1.65888,0.97577 3.9422,9.06804 5.02992,10.02064c1.14131,0.99954 0.99756,-4.87535 2.4764,-4.11309c2.62591,1.35349 4.61918,-0.98395 3.92486,1.88751c-0.22673,0.93769 -4.49701,6.13806 -8.387,6.74803c-0.67414,0.10572 2.82706,6.18732 5.64811,5.99263c1.93908,-0.13382 2.86689,-6.94432 4.67171,-5.77049c4.28608,2.78762 -1.22065,8.4125 -1.44303,9.50678c-0.21009,1.03375 -0.65817,0.0533 -3.6938,-0.14967c-5.9149,-0.39549 -9.11405,1.82468 -9.20892,2.32586c-0.15527,0.82025 12.81797,0.60484 16.78844,3.36973c1.24437,0.86653 -7.63033,1.01289 -8.35754,2.39858c-1.02987,1.96237 5.60855,5.14782 5.56019,5.47901c-0.73377,5.02526 -11.6061,-5.27447 -15.82931,-4.27728c-1.07212,0.25315 2.83626,4.76908 6.35312,9.1104c0.69921,0.86312 10.01219,-0.04093 10.63822,0.77351c0.96362,1.25362 -2.23739,2.06064 -4.0072,3.45957c-1.52282,1.2037 -1.58753,3.06793 -1.65453,3.45099c-0.31215,1.7847 -7.82964,-5.88662 -11.69702,-7.30501c-3.93981,-1.44495 -4.23563,3.34404 -5.09488,3.18138c-6.3333,-1.19893 -0.12321,-10.30502 2.32222,-23.22295z" data-paper-data="{&quot;index&quot;:null}" fill="#344e5f"/><path d="M150.89105,166.64841c0.60882,0.63092 5.31689,4.66614 3.72339,6.96176c-1.39846,2.01466 -8.89123,2.16728 -11.4097,4.59751c-5.38816,5.19938 -10.68281,8.45397 -11.82593,7.26934c-1.14312,-1.18463 2.29816,-6.35989 7.68631,-11.55927c1.77625,-1.71401 -1.67042,-8.34177 -0.05987,-9.54373c3.27496,-2.44411 11.11953,1.48028 11.88581,2.27438z" data-paper-data="{&quot;index&quot;:null}" fill="#344e5f"/><path d="M121.60709,163.88249c0.06821,0.0509 0.07937,-2.73709 0.62147,-5.25921c0.39885,-1.85565 1.34687,-3.59482 1.48228,-3.8137c1.49426,-2.41517 5.77793,-0.3804 6.40733,0.36734c0.47026,0.55868 -5.27141,4.26038 -5.50741,7.3287c-0.28595,3.7176 2.38876,5.65836 2.44768,6.46997c0.09899,1.36348 -1.42558,2.98008 -1.9997,3.74955c-0.5143,0.68931 -1.89615,0.26583 -3.28778,-0.33334c-1.35539,-0.58358 -2.70242,-1.34354 -4.56963,-0.68708c-2.19147,0.77047 -2.92484,2.12904 -4.88299,3.10968c-0.7643,0.38276 -1.51039,1.12081 -3.09388,0.89186c-1.41192,-0.20413 -3.62442,-1.34561 -4.99633,-1.55123c-1.03138,-0.15459 -3.27195,0.10809 -3.2923,0.0929c-0.36529,-0.27256 -1.93614,-0.10074 -1.25763,-0.96955c0.41753,-0.53465 0.11788,-0.56796 1.2083,-1.25895c0.48039,-0.30441 1.94585,-0.54319 3.29199,-0.20965c1.01331,0.25106 2.50857,1.67353 3.42316,1.03319c0.09913,-0.06941 -0.86861,-0.90851 -1.52817,-1.52206c-0.75638,-0.7036 -1.54273,-1.76025 -0.86154,-2.01413c0.62929,-0.23454 2.48254,0.92919 3.7915,1.54806c1.4734,0.69662 2.66889,0.46162 4.06038,-0.38687c0.75218,-0.45865 1.33695,-1.6999 1.54547,-1.93122c0.41404,-0.45934 -4.80355,-3.21079 -8.36003,-3.27319c-3.5565,-0.06239 -8.05511,3.18203 -8.40702,2.97904c-1.83678,-1.05947 1.44614,-4.30256 2.35031,-6.48107c0.61515,-1.48213 6.62145,2.36761 7.44041,0.9876c0.23854,-0.40194 -0.39189,-1.70247 -0.55818,-2.6321c-0.31931,-1.78509 -2.58123,-2.65175 -3.35803,-4.37904c-0.78474,-1.74494 0.89489,-4.65198 1.34331,-4.36124c1.3727,0.89005 3.05802,4.09556 4.83595,5.27215c1.64982,1.0918 2.61821,-0.61744 3.56026,0.21225c1.17905,1.03843 -2.88134,4.67833 -2.47588,5.55268c0.73301,1.58076 5.93334,2.16742 6.10458,1.77309c0.71894,-1.65544 -0.52483,-1.8145 -0.84248,-3.42818c-0.34395,-1.74726 0.34533,-5.40242 -1.49367,-6.06353c-0.98832,-0.35529 -1.55702,-0.76115 -2.28139,-1.2804c-0.747,-0.53549 -1.64101,-1.18544 -2.08787,-1.61381c-0.67299,-0.64512 -0.48635,-3.48207 -0.44766,-3.52482c0.8721,-0.9634 4.09795,3.84022 4.50448,3.11035c0.71659,-1.28652 -4.65675,-7.36242 -4.12804,-9.51032c0.2966,-1.20495 3.54934,2.7145 4.93248,2.46795c2.25766,-0.40244 3.03746,-4.35573 3.87144,-3.74189c0.56156,0.41334 -2.03008,4.63626 -2.05102,8.29759c-0.02137,3.73454 3.64015,6.70462 3.65323,6.83547c0.05321,0.53247 -0.78241,2.66357 -0.4644,4.72795c0.26175,1.69921 1.00345,3.15537 1.35708,3.41922z" data-paper-data="{&quot;index&quot;:null}" fill="#344e5f"/><path d="M174.68803,180.06434c0,2.69172 -1.57162,0.39561 -17.57515,1.55241c-13.37662,0.96692 -18.08426,5.0054 -29.70866,5.0054c-25.53159,0 -22.96539,-2.21645 -22.96539,-7.15804c0,-4.9416 -10.32075,-16.7021 15.21085,-16.7021c5.28826,0 8.9567,11.78211 20.01062,9.16577c1.12557,-0.26641 12.95346,-6.5853 13.99637,-7.04164c10.79472,-4.72339 9.38748,5.98877 16.67515,7.47284c8.91233,1.81492 4.30704,-4.4453 7.06293,3.1135z" fill="#344e5f"/><path d="M128.17436,357.66534c-0.05881,-0.0355 0.15223,2.20487 -0.08419,4.27358c-0.17394,1.52206 -0.79821,2.99388 -0.88971,3.18039c-1.0097,2.05794 -4.61119,0.76153 -5.17577,0.21056c-0.42183,-0.41166 3.89814,-3.83819 3.84559,-6.32149c-0.06367,-3.00879 -2.36532,-4.35666 -2.47669,-5.00395c-0.18711,-1.08743 0.90995,-2.50629 1.3104,-3.16968c0.35873,-0.59428 1.50214,-0.36318 2.66727,0.00831c1.13479,0.36181 2.27678,0.86597 3.72483,0.19131c1.69953,-0.79183 2.18142,-1.941 3.67694,-2.88323c0.58373,-0.36777 1.12479,-1.01949 2.41483,-0.96055c1.15026,0.05256 3.01757,0.79487 4.13579,0.85177c0.84067,0.04278 2.61971,-0.34502 2.63725,-0.33443c0.31493,0.19011 1.56318,-0.07186 1.08673,0.67957c-0.2932,0.46242 -0.04987,0.46552 -0.87125,1.10662c-0.36185,0.28243 -1.52017,0.58987 -2.6278,0.42818c-0.83377,-0.12171 -2.14711,-1.14632 -2.83123,-0.5598c-0.07416,0.06357 0.76942,0.66123 1.34764,1.10202c0.6631,0.5055 1.37813,1.2922 0.85098,1.54989c-0.48698,0.23806 -2.06746,-0.55048 -3.16774,-0.9443c-1.2385,-0.4433 -2.18024,-0.1602 -3.23103,0.63117c-0.56801,0.42777 -0.93977,1.47097 -1.08903,1.67324c-0.29633,0.40164 4.11189,2.20005 6.97363,1.96952c2.86173,-0.23053 6.21928,-3.19166 6.51799,-3.05637c1.55903,0.70609 -0.82211,3.57021 -1.37649,5.39149c-0.37717,1.23909 -5.5056,-1.37929 -6.05456,-0.20617c-0.1599,0.34169 0.44914,1.33662 0.65607,2.07023c0.39735,1.40871 2.28267,1.92636 3.04294,3.25254c0.76805,1.33973 -0.35172,3.8074 -0.73487,3.60923c-1.17287,-0.60663 -2.7796,-3.04851 -4.3006,-3.85332c-1.41139,-0.74682 -2.0544,0.70258 -2.87658,0.11046c-1.02903,-0.74109 1.94529,-3.98531 1.55062,-4.65565c-0.71354,-1.21193 -4.93708,-1.27279 -5.04353,-0.94253c-0.44687,1.3865 0.56477,1.41612 0.94726,2.68725c0.41416,1.37638 0.14893,4.36682 1.6783,4.75274c0.82192,0.2074 1.31077,0.48854 1.9336,0.84847c0.6423,0.37119 1.41171,0.82273 1.80447,1.13156c0.59149,0.46509 0.66545,2.75865 0.63774,2.79604c-0.62451,0.84269 -3.59477,-2.76133 -3.86373,-2.14298c-0.47409,1.08996 4.32159,5.5465 4.0664,7.31355c-0.14316,0.9913 -3.06528,-1.90038 -4.15684,-1.59319c-1.78174,0.50143 -2.09617,3.73851 -2.81451,3.31124c-0.4837,-0.28771 1.26484,-3.88435 0.99274,-6.82702c-0.27754,-3.00152 -3.45308,-5.09834 -3.47391,-5.20241c-0.08477,-0.42352 0.41829,-2.2013 -0.00006,-3.83444c-0.34435,-1.34425 -1.05503,-2.45542 -1.35991,-2.63945z" data-paper-data="{&quot;index&quot;:null}" fill="#344e5f"/><path d="M136.47441,261.86506c0.00983,0.87671 0.66491,7.04273 -2.06953,7.61884c-2.39977,0.50561 -7.9543,-4.52551 -11.45389,-4.48627c-7.48724,0.08394 -13.5718,-1.18247 -13.59025,-2.8286c-0.01845,-1.64613 6.03619,-3.04862 13.52343,-3.13257c2.46822,-0.02767 4.50981,-7.21367 6.50611,-6.98262c4.05935,0.46984 7.07179,8.70775 7.08416,9.81121z" data-paper-data="{&quot;index&quot;:null}" fill="#344e5f"/><path d="M120.30801,287.91522c0.06877,-0.05015 -2.5917,-0.88376 -4.84143,-2.14618c-1.65524,-0.92883 -3.03707,-2.34796 -3.20623,-2.54196c-1.86648,-2.14059 1.34207,-5.63276 2.24228,-6.0134c0.6726,-0.2844 2.51455,6.2941 5.37649,7.42529c3.46755,1.37056 6.11135,-0.6121 6.90418,-0.42883c1.33195,0.3079 2.42649,2.24171 2.99222,3.01738c0.50679,0.69486 -0.30572,1.89012 -1.28897,3.04289c-0.95766,1.12274 -2.08136,2.18542 -2.00532,4.16321c0.08927,2.32125 1.17083,3.42296 1.52976,5.58333c0.1401,0.84322 0.62503,1.77393 -0.06113,3.21928c-0.6118,1.28876 -2.3555,3.06572 -2.95691,4.31582c-0.45214,0.93979 -0.86253,3.15807 -0.88305,3.17303c-0.36824,0.26856 -0.66776,1.82013 -1.29757,0.9154c-0.38758,-0.55674 -0.50785,-0.28028 -0.84619,-1.52607c-0.14904,-0.54884 0.05539,-2.01948 0.77142,-3.20719c0.53898,-0.89405 2.33944,-1.90281 1.99759,-2.96566c-0.03705,-0.1152 -1.12442,0.56174 -1.90533,1.0108c-0.89552,0.51499 -2.1372,0.95441 -2.1787,0.22863c-0.03834,-0.67048 1.62058,-2.09765 2.59825,-3.16561c1.1005,-1.20213 1.22885,-2.41371 0.82891,-3.99365c-0.21619,-0.85405 -1.22952,-1.77915 -1.38898,-2.04666c-0.31666,-0.53117 -4.48562,3.64176 -5.59504,7.02136c-1.10941,3.37962 0.66256,8.63546 0.36474,8.91177c-1.55444,1.44221 -3.68398,-2.65172 -5.49853,-4.15865c-1.23451,-1.02523 4.21662,-5.62755 3.13984,-6.81737c-0.31362,-0.34655 -1.74229,-0.1281 -2.67958,-0.24362c-1.7998,-0.22184 -3.29551,1.68348 -5.17513,1.91581c-1.89883,0.2347 -4.18055,-2.22818 -3.7704,-2.5708c1.25558,-1.04881 4.81574,-1.71284 6.4647,-3.06425c1.53014,-1.25403 0.18291,-2.6838 1.2537,-3.33897c1.34019,-0.82 3.61937,4.13389 4.57444,4.00459c1.72669,-0.23374 3.82223,-5.02919 3.49602,-5.3092c-1.36946,-1.17556 -1.88857,-0.03416 -3.52411,-0.20698c-1.77093,-0.18712 -5.05977,-1.92461 -6.23425,-0.3627c-0.63119,0.83941 -1.18683,1.26297 -1.89676,1.80179c-0.73212,0.55565 -1.61701,1.21797 -2.15819,1.51848c-0.81503,0.45257 -3.47048,-0.56315 -3.4999,-0.61273c-0.66305,-1.11762 4.87873,-2.78181 4.30138,-3.38566c-1.01768,-1.06441 -8.40894,2.27604 -10.30507,1.13686c-1.06371,-0.63906 3.64124,-2.58993 3.81394,-3.98422c0.2819,-2.27585 -3.26506,-4.18783 -2.4324,-4.80347c0.56068,-0.41453 3.83044,3.30815 7.32245,4.4089c3.56183,1.12277 7.48037,-1.4989 7.60925,-1.47277c0.52445,0.10633 2.31394,1.53377 4.38021,1.83929c1.70076,0.25149 3.31096,-0.02734 3.66745,-0.28733z" data-paper-data="{&quot;index&quot;:null}" fill="#344e5f"/><path d="M138.23167,336.19611c-0.50715,0.7152 -3.59985,6.08961 -6.15104,4.94918c-2.23895,-1.00083 -3.77765,-8.3355 -6.63255,-10.3599c-6.10795,-4.33114 -10.28747,-8.93084 -9.33523,-10.27372c0.95224,-1.34288 6.67565,1.07959 12.7836,5.41072c2.01353,1.42779 7.88764,-3.18756 9.36728,-1.82769c3.00875,2.76522 0.60628,11.20123 -0.03203,12.10142z" data-paper-data="{&quot;index&quot;:null}" fill="#344e5f"/><path d="M-102.94497,442.61492v-528.64939h687.58527v528.64939z" fill="none"/><path d="M-110.89528,435.59936v-522.53727h694.92685v522.53727z" fill="none"/></g></g></svg>