<svg version="1.1" xmlns="http://www.w3.org/2000/svg" xmlns:xlink="http://www.w3.org/1999/xlink" width="496.47935" height="315.83752" viewBox="0,0,496.47935,315.83752"><g transform="translate(94.2814,118.27716)"><g data-paper-data="{&quot;isPaintingLayer&quot;:true}" fill="#000000" fill-rule="nonzero" stroke="none" stroke-width="1" stroke-linecap="square" stroke-linejoin="miter" stroke-miterlimit="10" stroke-dasharray="" stroke-dashoffset="0" style="mix-blend-mode: normal"><path d="M-84.87517,-118.13657c0.29167,0 0.55208,0.10938 0.78125,0.32813c0.22917,0.20833 0.34375,0.48438 0.34375,0.82813c0,0.10417 -0.01562,0.21875 -0.04687,0.34375c-0.03125,0.11458 -0.08333,0.22917 -0.15625,0.34375l-4.23437,6.0625l0.32813,-1.29687v5.35938c0,0.32292 -0.10937,0.59375 -0.32812,0.8125c-0.21875,0.21875 -0.46875,0.32813 -0.75,0.32813c-0.3125,0 -0.57813,-0.10937 -0.79689,-0.32812c-0.21875,-0.21875 -0.32812,-0.48958 -0.32812,-0.8125v-5.20312l0.15625,0.59375l-4.03125,-5.34375c-0.125,-0.16667 -0.21354,-0.32292 -0.26562,-0.46875c-0.05208,-0.15625 -0.07812,-0.29687 -0.07812,-0.42187c0,-0.33333 0.13021,-0.60417 0.39063,-0.8125c0.26042,-0.20833 0.53125,-0.3125 0.8125,-0.3125c0.34375,0 0.64583,0.17188 0.90625,0.51563l3.57814,4.9375l-0.51562,-0.0625l3.29688,-4.84375c0.26042,-0.36458 0.57292,-0.54687 0.9375,-0.54687zM-70.55388,-111.55844c0,0.9375 -0.15625,1.8125 -0.46875,2.625c-0.30208,0.80208 -0.73958,1.51042 -1.3125,2.125c-0.5625,0.61458 -1.23437,1.09896 -2.01562,1.45313c-0.77083,0.34375 -1.61458,0.51563 -2.53125,0.51563c-0.92708,0 -1.77604,-0.17187 -2.54687,-0.51562c-0.77083,-0.35417 -1.44271,-0.83854 -2.01562,-1.45312c-0.5625,-0.61458 -1,-1.32292 -1.3125,-2.125c-0.30208,-0.8125 -0.45312,-1.6875 -0.45312,-2.625c0,-0.92708 0.15104,-1.79687 0.45313,-2.60937c0.3125,-0.8125 0.75,-1.52604 1.3125,-2.14062c0.57292,-0.61458 1.24479,-1.09375 2.01563,-1.4375c0.77083,-0.35417 1.61979,-0.53125 2.54688,-0.53125c0.91667,0 1.76042,0.17708 2.53125,0.53125c0.78125,0.34375 1.45313,0.82292 2.01563,1.4375c0.57292,0.61458 1.01042,1.32813 1.3125,2.14063c0.3125,0.8125 0.46875,1.68229 0.46875,2.60938zM-72.97576,-111.55844c0,-0.83333 -0.16667,-1.58854 -0.5,-2.26562c-0.33333,-0.67708 -0.79167,-1.21354 -1.375,-1.60937c-0.58333,-0.39583 -1.26042,-0.59375 -2.03125,-0.59375c-0.78125,0 -1.46354,0.19792 -2.04687,0.59375c-0.58333,0.39583 -1.04167,0.93229 -1.375,1.60938c-0.32292,0.66667 -0.48437,1.42188 -0.48437,2.26563c0,0.83333 0.16146,1.58854 0.48438,2.26563c0.33333,0.67708 0.79167,1.21875 1.375,1.625c0.58333,0.39583 1.26563,0.59375 2.04688,0.59375c0.77083,0 1.44792,-0.19792 2.03125,-0.59375c0.58333,-0.40625 1.04167,-0.94792 1.375,-1.625c0.33333,-0.67708 0.5,-1.43229 0.5,-2.26562zM-59.12816,-118.10532c0.32292,0 0.58333,0.10938 0.78125,0.32813c0.19792,0.21875 0.29688,0.48958 0.29688,0.8125v6.75c0,1.03125 -0.22396,1.94792 -0.67187,2.75c-0.4375,0.79167 -1.04167,1.41146 -1.8125,1.85938c-0.77083,0.44792 -1.66667,0.67188 -2.6875,0.67188c-1.01042,0 -1.90625,-0.22396 -2.6875,-0.67187c-0.78125,-0.44792 -1.39062,-1.06771 -1.82812,-1.85937c-0.4375,-0.80208 -0.65625,-1.71875 -0.65625,-2.75v-6.75c0,-0.32292 0.10938,-0.59375 0.32813,-0.8125c0.22917,-0.21875 0.51563,-0.32812 0.85938,-0.32812c0.28125,0 0.53646,0.10938 0.76563,0.32813c0.23958,0.21875 0.35938,0.48958 0.35938,0.8125v6.75c0,0.625 0.13021,1.16667 0.39063,1.625c0.27083,0.44792 0.625,0.79688 1.0625,1.04688c0.44792,0.25 0.91667,0.375 1.40625,0.375c0.54167,0 1.04167,-0.125 1.5,-0.375c0.45833,-0.25 0.82813,-0.59896 1.10938,-1.04687c0.29167,-0.45833 0.4375,-1 0.4375,-1.625v-6.75c0,-0.32292 0.09375,-0.59375 0.28125,-0.8125c0.1875,-0.21875 0.44271,-0.32812 0.76563,-0.32812zM-53.89739,-105.02719c-0.35417,0 -0.66667,-0.10937 -0.9375,-0.32812c-0.27083,-0.21875 -0.40625,-0.48958 -0.40625,-0.8125v-10.78125c0,-0.32292 0.10417,-0.59375 0.3125,-0.8125c0.21875,-0.21875 0.48958,-0.32812 0.8125,-0.32812h5.375c0.64583,0 1.25,0.17188 1.8125,0.51563c0.57292,0.34375 1.03125,0.81771 1.375,1.42188c0.35417,0.60417 0.53125,1.29688 0.53125,2.07813c0,0.46875 -0.09896,0.92708 -0.29687,1.375c-0.1875,0.44792 -0.44792,0.85417 -0.78125,1.21875c-0.32292,0.36458 -0.69271,0.64583 -1.10937,0.84375l0.01563,-0.4375c0.35417,0.1875 0.64583,0.41146 0.875,0.67188c0.22917,0.25 0.40625,0.52083 0.53125,0.8125c0.13542,0.29167 0.21354,0.60417 0.23438,0.9375c0.05208,0.3125 0.08854,0.58854 0.10938,0.82813c0.02083,0.23958 0.05729,0.44271 0.10938,0.60938c0.0625,0.15625 0.17188,0.27604 0.32813,0.35938c0.27083,0.16667 0.4375,0.40104 0.5,0.70313c0.07292,0.30208 0.00521,0.57292 -0.20312,0.8125c-0.13542,0.15625 -0.3125,0.26042 -0.53125,0.3125c-0.20833,0.04167 -0.41667,0.04167 -0.625,0c-0.20833,-0.05208 -0.38021,-0.11458 -0.51562,-0.1875c-0.21875,-0.125 -0.43229,-0.30729 -0.64062,-0.54687c-0.20833,-0.23958 -0.38021,-0.5625 -0.51562,-0.96875c-0.125,-0.41667 -0.1875,-0.94792 -0.1875,-1.59375c0,-0.21875 -0.04167,-0.41667 -0.125,-0.59375c-0.07292,-0.17708 -0.17708,-0.32812 -0.3125,-0.45312c-0.13542,-0.13542 -0.30729,-0.23437 -0.51562,-0.29687c-0.20833,-0.07292 -0.45833,-0.10937 -0.75,-0.10937h-3.76562l0.28125,-0.4375v4.04688c0,0.32292 -0.08854,0.59375 -0.26562,0.8125c-0.17708,0.21875 -0.41667,0.32813 -0.71875,0.32813zM-53.17864,-111.69907h4.34375c0.22917,0 0.44792,-0.10417 0.65625,-0.3125c0.20833,-0.20833 0.38021,-0.48958 0.51563,-0.84375c0.14583,-0.35417 0.21875,-0.74479 0.21875,-1.17187c0,-0.54167 -0.14583,-0.99479 -0.4375,-1.35937c-0.29167,-0.36458 -0.60937,-0.54687 -0.95312,-0.54687h-4.3125l0.23438,-0.60937v5.28125zM-34.16927,-104.83969c-0.70833,0 -1.36979,-0.14062 -1.98437,-0.42187c-0.60417,-0.29167 -1.09896,-0.70312 -1.48437,-1.23437c-0.14583,-0.22917 -0.21875,-0.44792 -0.21875,-0.65625c0,-0.3125 0.11979,-0.57292 0.35938,-0.78125c0.23958,-0.21875 0.47917,-0.32812 0.71875,-0.32812c0.1875,0 0.36979,0.05729 0.54688,0.17188c0.1875,0.11458 0.35417,0.24479 0.5,0.39063c0.25,0.22917 0.49479,0.39063 0.73438,0.48438c0.23958,0.09375 0.51563,0.14063 0.82813,0.14063c0.375,0 0.72396,-0.09375 1.04688,-0.28125c0.32292,-0.1875 0.58333,-0.4375 0.78125,-0.75c0.19792,-0.3125 0.29688,-0.64583 0.29688,-1v-7.84375c0,-0.32292 0.11979,-0.59375 0.35938,-0.8125c0.23958,-0.21875 0.51563,-0.32812 0.82813,-0.32812c0.34375,0 0.61979,0.10938 0.82813,0.32813c0.21875,0.21875 0.32813,0.48958 0.32813,0.8125v7.84375c0,0.75 -0.20312,1.45313 -0.60937,2.10938c-0.39583,0.64583 -0.93229,1.16667 -1.60937,1.5625c-0.66667,0.39583 -1.41667,0.59375 -2.25,0.59375zM-14.90227,-111.55844c0,0.9375 -0.15625,1.8125 -0.46875,2.625c-0.30208,0.80208 -0.73958,1.51042 -1.3125,2.125c-0.5625,0.61458 -1.23437,1.09896 -2.01562,1.45313c-0.77083,0.34375 -1.61458,0.51563 -2.53125,0.51563c-0.92708,0 -1.77604,-0.17187 -2.54687,-0.51562c-0.77083,-0.35417 -1.44271,-0.83854 -2.01562,-1.45312c-0.5625,-0.61458 -1,-1.32292 -1.3125,-2.125c-0.30208,-0.8125 -0.45312,-1.6875 -0.45312,-2.625c0,-0.92708 0.15104,-1.79687 0.45313,-2.60937c0.3125,-0.8125 0.75,-1.52604 1.3125,-2.14062c0.57292,-0.61458 1.24479,-1.09375 2.01563,-1.4375c0.77083,-0.35417 1.61979,-0.53125 2.54688,-0.53125c0.91667,0 1.76042,0.17708 2.53125,0.53125c0.78125,0.34375 1.45313,0.82292 2.01563,1.4375c0.57292,0.61458 1.01042,1.32813 1.3125,2.14063c0.3125,0.8125 0.46875,1.68229 0.46875,2.60938zM-17.32415,-111.55844c0,-0.83333 -0.16667,-1.58854 -0.5,-2.26562c-0.33333,-0.67708 -0.79167,-1.21354 -1.375,-1.60937c-0.58333,-0.39583 -1.26042,-0.59375 -2.03125,-0.59375c-0.78125,0 -1.46354,0.19792 -2.04687,0.59375c-0.58333,0.39583 -1.04167,0.93229 -1.375,1.60938c-0.32292,0.66667 -0.48437,1.42188 -0.48437,2.26563c0,0.83333 0.16146,1.58854 0.48438,2.26563c0.33333,0.67708 0.79167,1.21875 1.375,1.625c0.58333,0.39583 1.26563,0.59375 2.04688,0.59375c0.77083,0 1.44792,-0.19792 2.03125,-0.59375c0.58333,-0.40625 1.04167,-0.94792 1.375,-1.625c0.33333,-0.67708 0.5,-1.43229 0.5,-2.26562zM-3.47655,-118.10532c0.32292,0 0.58333,0.10938 0.78125,0.32813c0.19792,0.21875 0.29688,0.48958 0.29688,0.8125v6.75c0,1.03125 -0.22396,1.94792 -0.67187,2.75c-0.4375,0.79167 -1.04167,1.41146 -1.8125,1.85938c-0.77083,0.44792 -1.66667,0.67188 -2.6875,0.67188c-1.01042,0 -1.90625,-0.22396 -2.6875,-0.67187c-0.78125,-0.44792 -1.39062,-1.06771 -1.82812,-1.85937c-0.4375,-0.80208 -0.65625,-1.71875 -0.65625,-2.75v-6.75c0,-0.32292 0.10938,-0.59375 0.32813,-0.8125c0.22917,-0.21875 0.51563,-0.32812 0.85938,-0.32812c0.28125,0 0.53646,0.10938 0.76563,0.32813c0.23958,0.21875 0.35938,0.48958 0.35938,0.8125v6.75c0,0.625 0.13021,1.16667 0.39063,1.625c0.27083,0.44792 0.625,0.79688 1.0625,1.04688c0.44792,0.25 0.91667,0.375 1.40625,0.375c0.54167,0 1.04167,-0.125 1.5,-0.375c0.45833,-0.25 0.82813,-0.59896 1.10938,-1.04687c0.29167,-0.45833 0.4375,-1 0.4375,-1.625v-6.75c0,-0.32292 0.09375,-0.59375 0.28125,-0.8125c0.1875,-0.21875 0.44271,-0.32812 0.76563,-0.32812zM1.75422,-105.02719c-0.35417,0 -0.66667,-0.10937 -0.9375,-0.32812c-0.27083,-0.21875 -0.40625,-0.48958 -0.40625,-0.8125v-10.78125c0,-0.32292 0.10417,-0.59375 0.3125,-0.8125c0.21875,-0.21875 0.48958,-0.32812 0.8125,-0.32812h5.375c0.64583,0 1.25,0.17188 1.8125,0.51563c0.57292,0.34375 1.03125,0.81771 1.375,1.42188c0.35417,0.60417 0.53125,1.29688 0.53125,2.07813c0,0.46875 -0.09896,0.92708 -0.29687,1.375c-0.1875,0.44792 -0.44792,0.85417 -0.78125,1.21875c-0.32292,0.36458 -0.69271,0.64583 -1.10937,0.84375l0.01563,-0.4375c0.35417,0.1875 0.64583,0.41146 0.875,0.67188c0.22917,0.25 0.40625,0.52083 0.53125,0.8125c0.13542,0.29167 0.21354,0.60417 0.23438,0.9375c0.05208,0.3125 0.08854,0.58854 0.10938,0.82813c0.02083,0.23958 0.05729,0.44271 0.10938,0.60938c0.0625,0.15625 0.17188,0.27604 0.32813,0.35938c0.27083,0.16667 0.4375,0.40104 0.5,0.70313c0.07292,0.30208 0.00521,0.57292 -0.20312,0.8125c-0.13542,0.15625 -0.3125,0.26042 -0.53125,0.3125c-0.20833,0.04167 -0.41667,0.04167 -0.625,0c-0.20833,-0.05208 -0.38021,-0.11458 -0.51562,-0.1875c-0.21875,-0.125 -0.43229,-0.30729 -0.64062,-0.54687c-0.20833,-0.23958 -0.38021,-0.5625 -0.51562,-0.96875c-0.125,-0.41667 -0.1875,-0.94792 -0.1875,-1.59375c0,-0.21875 -0.04167,-0.41667 -0.125,-0.59375c-0.07292,-0.17708 -0.17708,-0.32812 -0.3125,-0.45312c-0.13542,-0.13542 -0.30729,-0.23437 -0.51562,-0.29687c-0.20833,-0.07292 -0.45833,-0.10937 -0.75,-0.10937h-3.76562l0.28125,-0.4375v4.04688c0,0.32292 -0.08854,0.59375 -0.26562,0.8125c-0.17708,0.21875 -0.41667,0.32813 -0.71875,0.32813zM2.47297,-111.69907h4.34375c0.22917,0 0.44792,-0.10417 0.65625,-0.3125c0.20833,-0.20833 0.38021,-0.48958 0.51563,-0.84375c0.14583,-0.35417 0.21875,-0.74479 0.21875,-1.17187c0,-0.54167 -0.14583,-0.99479 -0.4375,-1.35937c-0.29167,-0.36458 -0.60937,-0.54687 -0.95312,-0.54687h-4.3125l0.23438,-0.60937v5.28125zM23.13359,-118.08969c0.29167,0 0.53125,0.09896 0.71875,0.29688c0.1875,0.19792 0.28125,0.44792 0.28125,0.75v10.875c0,0.32292 -0.10937,0.59375 -0.32812,0.8125c-0.21875,0.21875 -0.48958,0.32813 -0.8125,0.32813c-0.15625,0 -0.32292,-0.02604 -0.5,-0.07812c-0.16667,-0.0625 -0.29167,-0.14062 -0.375,-0.23437l-7.32812,-9.3125l0.48438,-0.29687v8.875c0,0.30208 -0.09896,0.55208 -0.29687,0.75c-0.1875,0.19792 -0.4375,0.29688 -0.75,0.29688c-0.30208,0 -0.54687,-0.09896 -0.73437,-0.29687c-0.17708,-0.19792 -0.26562,-0.44792 -0.26562,-0.75v-10.875c0,-0.32292 0.10417,-0.59375 0.3125,-0.8125c0.21875,-0.21875 0.48958,-0.32812 0.8125,-0.32812c0.17708,0 0.35938,0.03646 0.54688,0.10938c0.1875,0.0625 0.32292,0.16146 0.40625,0.29688l7.10938,9.07813l-0.3125,0.21875v-8.65625c0,-0.30208 0.09375,-0.55208 0.28125,-0.75c0.1875,-0.19792 0.4375,-0.29687 0.75,-0.29687zM28.06468,-118.08969h6.25c0.32292,0 0.59375,0.10417 0.8125,0.3125c0.21875,0.20833 0.32813,0.47396 0.32813,0.79688c0,0.30208 -0.10937,0.55208 -0.32812,0.75c-0.21875,0.19792 -0.48958,0.29688 -0.8125,0.29688h-5.21875l0.17188,-0.32812v3.64063l-0.15625,-0.15625h4.375c0.32292,0 0.58854,0.10417 0.79688,0.3125c0.21875,0.20833 0.32813,0.47396 0.32813,0.79688c0,0.3125 -0.10937,0.56771 -0.32812,0.76563c-0.20833,0.1875 -0.47396,0.28125 -0.79687,0.28125h-4.3125l0.09375,-0.15625v3.76563l-0.15625,-0.15625h5.20313c0.32292,0 0.59375,0.10938 0.8125,0.32813c0.21875,0.20833 0.32813,0.45833 0.32813,0.75c0,0.3125 -0.10937,0.56771 -0.32812,0.76563c-0.21875,0.19792 -0.48958,0.29688 -0.8125,0.29688h-6.25c-0.32292,0 -0.59375,-0.10937 -0.8125,-0.32812c-0.20833,-0.21875 -0.3125,-0.48958 -0.3125,-0.8125v-10.78125c0,-0.32292 0.10417,-0.59375 0.3125,-0.8125c0.21875,-0.21875 0.48958,-0.32812 0.8125,-0.32812zM45.92354,-118.13657c0.29167,0 0.55208,0.10938 0.78125,0.32813c0.22917,0.20833 0.34375,0.48438 0.34375,0.82813c0,0.10417 -0.01562,0.21875 -0.04687,0.34375c-0.03125,0.11458 -0.08333,0.22917 -0.15625,0.34375l-4.23437,6.0625l0.32813,-1.29687v5.35938c0,0.32292 -0.10937,0.59375 -0.32812,0.8125c-0.21875,0.21875 -0.46875,0.32813 -0.75,0.32813c-0.3125,0 -0.57812,-0.10937 -0.79687,-0.32812c-0.21875,-0.21875 -0.32812,-0.48958 -0.32812,-0.8125v-5.20312l0.15625,0.59375l-4.03125,-5.34375c-0.125,-0.16667 -0.21354,-0.32292 -0.26562,-0.46875c-0.05208,-0.15625 -0.07812,-0.29687 -0.07812,-0.42187c0,-0.33333 0.13021,-0.60417 0.39063,-0.8125c0.26042,-0.20833 0.53125,-0.3125 0.8125,-0.3125c0.34375,0 0.64583,0.17188 0.90625,0.51563l3.57813,4.9375l-0.51562,-0.0625l3.29688,-4.84375c0.26042,-0.36458 0.57292,-0.54687 0.9375,-0.54687zM49.82393,-109.15219c-0.42708,0 -0.65625,-0.23437 -0.6875,-0.70312l-0.54687,-6.875c-0.02083,-0.38542 0.08333,-0.70833 0.3125,-0.96875c0.22917,-0.26042 0.53125,-0.39062 0.90625,-0.39062c0.375,0 0.67708,0.13021 0.90625,0.39063c0.23958,0.26042 0.33854,0.58333 0.29688,0.96875l-0.51562,6.875c-0.04167,0.46875 -0.26562,0.70313 -0.67187,0.70313zM49.69893,-105.02719c-0.36458,0 -0.64583,-0.09375 -0.84375,-0.28125c-0.1875,-0.19792 -0.28125,-0.47917 -0.28125,-0.84375v-0.3125c0,-0.36458 0.09375,-0.64062 0.28125,-0.82812c0.19792,-0.19792 0.47917,-0.29687 0.84375,-0.29687h0.23438c0.36458,0 0.64063,0.09896 0.82813,0.29688c0.19792,0.1875 0.29688,0.46354 0.29688,0.82813v0.3125c0,0.36458 -0.09896,0.64583 -0.29687,0.84375c-0.1875,0.1875 -0.46354,0.28125 -0.82812,0.28125z"/><path d="M152.30507,197.56026c-0.94792,0 -1.83334,-0.17187 -2.65627,-0.51562c-0.82292,-0.35417 -1.54687,-0.83854 -2.17187,-1.45312c-0.61458,-0.61458 -1.09896,-1.32292 -1.45312,-2.125c-0.35417,-0.8125 -0.53125,-1.6875 -0.53125,-2.625c0,-0.92708 0.17708,-1.79687 0.53125,-2.60937c0.35417,-0.8125 0.83854,-1.52604 1.45313,-2.14062c0.625,-0.61458 1.34896,-1.09375 2.17188,-1.4375c0.82293,-0.35417 1.70835,-0.53125 2.65627,-0.53125c0.58333,0 1.14583,0.0625 1.6875,0.1875c0.55208,0.125 1.05729,0.3125 1.51563,0.5625c0.1875,0.10417 0.32813,0.23958 0.42188,0.40625c0.09375,0.16667 0.14063,0.33854 0.14063,0.51563c0,0.29167 -0.09896,0.55729 -0.29687,0.79688c-0.19792,0.23958 -0.45312,0.35938 -0.76562,0.35938c-0.10417,0 -0.20833,-0.01042 -0.3125,-0.03125c-0.10417,-0.03125 -0.20833,-0.07292 -0.3125,-0.125c-0.3125,-0.13542 -0.64062,-0.23958 -0.98437,-0.3125c-0.34375,-0.07292 -0.70833,-0.10937 -1.09375,-0.10937c-0.8125,0 -1.55208,0.20313 -2.21875,0.60938c-0.66668,0.39583 -1.19793,0.93229 -1.59377,1.60938c-0.38542,0.67708 -0.57812,1.42708 -0.57812,2.25c0,0.8125 0.19271,1.5625 0.57813,2.25c0.39583,0.67708 0.92709,1.21875 1.59377,1.625c0.66667,0.40625 1.40625,0.60938 2.21875,0.60938c0.36458,0 0.77083,-0.03646 1.21875,-0.10937c0.44792,-0.08333 0.81771,-0.1875 1.10938,-0.3125l-0.17187,0.5625v-3.1875l0.3125,0.28125h-2.0625c-0.32292,0 -0.59375,-0.10417 -0.8125,-0.3125c-0.21875,-0.21875 -0.32812,-0.48958 -0.32812,-0.8125c0,-0.32292 0.10938,-0.58854 0.32813,-0.79688c0.21875,-0.20833 0.48958,-0.3125 0.8125,-0.3125h3.0625c0.32292,0 0.58854,0.10938 0.79688,0.32813c0.20833,0.20833 0.3125,0.47917 0.3125,0.8125v3.95312c0,0.25 -0.05729,0.45833 -0.17187,0.625c-0.11458,0.15625 -0.25,0.28125 -0.40625,0.375c-0.57292,0.35417 -1.19792,0.63542 -1.875,0.84375c-0.67708,0.19792 -1.38542,0.29688 -2.125,0.29688zM160.25856,184.31026h6.25c0.32292,0 0.59375,0.10417 0.8125,0.3125c0.21875,0.20833 0.32813,0.47396 0.32813,0.79688c0,0.30208 -0.10937,0.55208 -0.32812,0.75c-0.21875,0.19792 -0.48958,0.29688 -0.8125,0.29688h-5.21875l0.17188,-0.32812v3.64063l-0.15625,-0.15625h4.375c0.32292,0 0.58854,0.10417 0.79688,0.3125c0.21875,0.20833 0.32813,0.47396 0.32813,0.79688c0,0.3125 -0.10937,0.56771 -0.32812,0.76563c-0.20833,0.1875 -0.47396,0.28125 -0.79687,0.28125h-4.3125l0.09375,-0.15625v3.76562l-0.15625,-0.15625h5.20313c0.32292,0 0.59375,0.10938 0.8125,0.32813c0.21875,0.20833 0.32813,0.45833 0.32813,0.75c0,0.3125 -0.10937,0.56771 -0.32812,0.76563c-0.21875,0.19792 -0.48958,0.29688 -0.8125,0.29688h-6.25c-0.32292,0 -0.59375,-0.10937 -0.8125,-0.32812c-0.20833,-0.21875 -0.3125,-0.48958 -0.3125,-0.8125v-10.78125c0,-0.32292 0.10417,-0.59375 0.3125,-0.8125c0.21875,-0.21875 0.48958,-0.32812 0.8125,-0.32812zM174.22683,197.37276c-0.35417,0 -0.64583,-0.10937 -0.875,-0.32812c-0.21875,-0.21875 -0.32812,-0.48958 -0.32812,-0.8125v-10.8125h2.42188v10.8125c0,0.32292 -0.11458,0.59375 -0.34375,0.8125c-0.22917,0.21875 -0.52083,0.32813 -0.875,0.32813zM170.10183,186.46651c-0.32292,0 -0.59375,-0.09896 -0.8125,-0.29687c-0.21875,-0.20833 -0.32812,-0.47396 -0.32812,-0.79687c0,-0.32292 0.10938,-0.57812 0.32813,-0.76562c0.21875,-0.19792 0.48958,-0.29687 0.8125,-0.29687h8.28125c0.32292,0 0.59375,0.09896 0.8125,0.29688c0.21875,0.19792 0.32813,0.45833 0.32813,0.78125c0,0.32292 -0.10937,0.58333 -0.32812,0.78125c-0.21875,0.19792 -0.48958,0.29688 -0.8125,0.29688zM191.48876,187.24776l-4.01562,9.46875c-0.09375,0.23958 -0.22917,0.42708 -0.40625,0.5625c-0.17708,0.125 -0.375,0.1875 -0.59375,0.1875c-0.33333,0 -0.58333,-0.09375 -0.75,-0.28125c-0.15625,-0.1875 -0.23437,-0.41667 -0.23437,-0.6875c0,-0.11458 0.02083,-0.23437 0.0625,-0.35937l4.64063,-11.15625c0.09375,-0.25 0.24479,-0.44271 0.45313,-0.57812c0.20833,-0.13542 0.42708,-0.19271 0.65625,-0.17187c0.22917,0 0.4375,0.06771 0.625,0.20313c0.19792,0.125 0.33854,0.30729 0.42188,0.54688l4.59375,10.9375c0.0625,0.15625 0.09375,0.30729 0.09375,0.45313c0,0.33333 -0.10937,0.59896 -0.32812,0.79688c-0.21875,0.19792 -0.45833,0.29688 -0.71875,0.29688c-0.21875,0 -0.42187,-0.06771 -0.60937,-0.20312c-0.17708,-0.13542 -0.31771,-0.32292 -0.42187,-0.5625l-4,-9.34375zM188.05126,194.45088l1.01563,-2.15625h5.04688l0.34375,2.15625zM205.81636,195.18526c0.32292,0 0.59375,0.10417 0.8125,0.3125c0.21875,0.20833 0.32813,0.47396 0.32813,0.79688c0,0.3125 -0.10937,0.57292 -0.32812,0.78125c-0.21875,0.19792 -0.48958,0.29688 -0.8125,0.29688h-6.0625c-0.32292,0 -0.59375,-0.10937 -0.8125,-0.32812c-0.20833,-0.21875 -0.3125,-0.48958 -0.3125,-0.8125v-10.78125c0,-0.32292 0.10938,-0.59375 0.32813,-0.8125c0.22917,-0.21875 0.51563,-0.32812 0.85938,-0.32812c0.30208,0 0.56771,0.10938 0.79688,0.32813c0.22917,0.21875 0.34375,0.48958 0.34375,0.8125v10.0625l-0.40625,-0.32812zM216.30117,195.18526c0.32292,0 0.59375,0.10417 0.8125,0.3125c0.21875,0.20833 0.32813,0.47396 0.32813,0.79688c0,0.3125 -0.10937,0.57292 -0.32812,0.78125c-0.21875,0.19792 -0.48958,0.29688 -0.8125,0.29688h-6.0625c-0.32292,0 -0.59375,-0.10937 -0.8125,-0.32812c-0.20833,-0.21875 -0.3125,-0.48958 -0.3125,-0.8125v-10.78125c0,-0.32292 0.10938,-0.59375 0.32813,-0.8125c0.22917,-0.21875 0.51563,-0.32812 0.85938,-0.32812c0.30208,0 0.56771,0.10938 0.79688,0.32813c0.22917,0.21875 0.34375,0.48958 0.34375,0.8125v10.0625l-0.40625,-0.32812zM229.24413,197.37276c-0.35417,0 -0.64583,-0.10937 -0.875,-0.32812c-0.21875,-0.21875 -0.32812,-0.48958 -0.32812,-0.8125v-10.8125h2.42188v10.8125c0,0.32292 -0.11458,0.59375 -0.34375,0.8125c-0.22917,0.21875 -0.52083,0.32813 -0.875,0.32813zM225.11913,186.46651c-0.32292,0 -0.59375,-0.09896 -0.8125,-0.29687c-0.21875,-0.20833 -0.32812,-0.47396 -0.32812,-0.79687c0,-0.32292 0.10938,-0.57812 0.32813,-0.76562c0.21875,-0.19792 0.48958,-0.29687 0.8125,-0.29687h8.28125c0.32292,0 0.59375,0.09896 0.8125,0.29688c0.21875,0.19792 0.32813,0.45833 0.32813,0.78125c0,0.32292 -0.10937,0.58333 -0.32812,0.78125c-0.21875,0.19792 -0.48958,0.29688 -0.8125,0.29688zM237.68856,184.31026c0.30208,0 0.56771,0.10938 0.79688,0.32813c0.22917,0.21875 0.34375,0.48958 0.34375,0.8125v10.78125c0,0.32292 -0.11979,0.59375 -0.35937,0.8125c-0.23958,0.21875 -0.51042,0.32813 -0.8125,0.32813c-0.35417,0 -0.63542,-0.10937 -0.84375,-0.32812c-0.20833,-0.21875 -0.3125,-0.48958 -0.3125,-0.8125v-10.78125c0,-0.32292 0.10938,-0.59375 0.32813,-0.8125c0.22917,-0.21875 0.51563,-0.32812 0.85938,-0.32812zM245.95418,184.31026c0.34375,0 0.61979,0.10938 0.82813,0.32813c0.21875,0.21875 0.32813,0.48958 0.32813,0.8125v10.78125c0,0.32292 -0.10937,0.59375 -0.32812,0.8125c-0.21875,0.21875 -0.50521,0.32813 -0.85937,0.32813c-0.30208,0 -0.56771,-0.10937 -0.79687,-0.32812c-0.22917,-0.21875 -0.34375,-0.48958 -0.34375,-0.8125v-10.78125c0,-0.32292 0.11458,-0.59375 0.34375,-0.8125c0.23958,-0.21875 0.51563,-0.32812 0.82813,-0.32812zM237.62606,189.74776h8.32813v2.14063h-8.32812zM251.03991,184.31026h6.25c0.32292,0 0.59375,0.10417 0.8125,0.3125c0.21875,0.20833 0.32813,0.47396 0.32813,0.79688c0,0.30208 -0.10937,0.55208 -0.32812,0.75c-0.21875,0.19792 -0.48958,0.29688 -0.8125,0.29688h-5.21875l0.17188,-0.32812v3.64063l-0.15625,-0.15625h4.375c0.32292,0 0.58854,0.10417 0.79688,0.3125c0.21875,0.20833 0.32813,0.47396 0.32813,0.79688c0,0.3125 -0.10937,0.56771 -0.32812,0.76563c-0.20833,0.1875 -0.47396,0.28125 -0.79687,0.28125h-4.3125l0.09375,-0.15625v3.76562l-0.15625,-0.15625h5.20313c0.32292,0 0.59375,0.10938 0.8125,0.32813c0.21875,0.20833 0.32813,0.45833 0.32813,0.75c0,0.3125 -0.10937,0.56771 -0.32812,0.76563c-0.21875,0.19792 -0.48958,0.29688 -0.8125,0.29688h-6.25c-0.32292,0 -0.59375,-0.10937 -0.8125,-0.32812c-0.20833,-0.21875 -0.3125,-0.48958 -0.3125,-0.8125v-10.78125c0,-0.32292 0.10417,-0.59375 0.3125,-0.8125c0.21875,-0.21875 0.48958,-0.32812 0.8125,-0.32812zM270.5913,187.24776l-4.01562,9.46875c-0.09375,0.23958 -0.22917,0.42708 -0.40625,0.5625c-0.17708,0.125 -0.375,0.1875 -0.59375,0.1875c-0.33333,0 -0.58333,-0.09375 -0.75,-0.28125c-0.15625,-0.1875 -0.23437,-0.41667 -0.23437,-0.6875c0,-0.11458 0.02083,-0.23437 0.0625,-0.35937l4.64063,-11.15625c0.09375,-0.25 0.24479,-0.44271 0.45313,-0.57812c0.20833,-0.13542 0.42708,-0.19271 0.65625,-0.17187c0.22917,0 0.4375,0.06771 0.625,0.20313c0.19792,0.125 0.33854,0.30729 0.42188,0.54688l4.59375,10.9375c0.0625,0.15625 0.09375,0.30729 0.09375,0.45313c0,0.33333 -0.10937,0.59896 -0.32812,0.79688c-0.21875,0.19792 -0.45833,0.29688 -0.71875,0.29688c-0.21875,0 -0.42187,-0.06771 -0.60937,-0.20312c-0.17708,-0.13542 -0.31771,-0.32292 -0.42187,-0.5625l-4,-9.34375zM267.1538,194.45088l1.01563,-2.15625h5.04688l0.34375,2.15625zM286.77868,184.95089c0.32292,0.15625 0.51042,0.41146 0.5625,0.76563c0.05208,0.34375 -0.03646,0.66146 -0.26562,0.95313c-0.16667,0.21875 -0.38021,0.34375 -0.64062,0.375c-0.25,0.02083 -0.50521,-0.03125 -0.76562,-0.15625c-0.29167,-0.13542 -0.60417,-0.23958 -0.9375,-0.3125c-0.33333,-0.07292 -0.67708,-0.10937 -1.03125,-0.10937c-0.67708,0 -1.28125,0.10417 -1.8125,0.3125c-0.52083,0.20833 -0.96875,0.51042 -1.34375,0.90625c-0.375,0.38542 -0.66146,0.84896 -0.85937,1.39063c-0.1875,0.53125 -0.28125,1.11979 -0.28125,1.76563c0,0.76042 0.10938,1.42188 0.32813,1.98438c0.21875,0.55208 0.52083,1.01562 0.90625,1.39062c0.38542,0.375 0.83854,0.65625 1.35938,0.84375c0.52083,0.17708 1.08854,0.26563 1.70313,0.26563c0.33333,0 0.66667,-0.03125 1,-0.09375c0.33333,-0.0625 0.65625,-0.17708 0.96875,-0.34375c0.26042,-0.125 0.51563,-0.16667 0.76563,-0.125c0.26042,0.03125 0.47917,0.16146 0.65625,0.39063c0.25,0.3125 0.33854,0.63542 0.26563,0.96875c-0.0625,0.32292 -0.25,0.55729 -0.5625,0.70313c-0.32292,0.16667 -0.65625,0.30208 -1,0.40625c-0.34375,0.10417 -0.69271,0.18229 -1.04687,0.23438c-0.34375,0.0625 -0.69271,0.09375 -1.04687,0.09375c-0.89583,0 -1.74479,-0.14062 -2.54687,-0.42187c-0.80208,-0.29167 -1.52083,-0.71354 -2.15625,-1.26562c-0.625,-0.5625 -1.11979,-1.26562 -1.48437,-2.10937c-0.35417,-0.84375 -0.53125,-1.81771 -0.53125,-2.92187c0,-0.95833 0.16146,-1.83854 0.48438,-2.64062c0.33333,-0.8125 0.80208,-1.51042 1.40625,-2.09375c0.60417,-0.59375 1.3125,-1.05729 2.125,-1.39062c0.82292,-0.33333 1.72396,-0.5 2.70313,-0.5c0.54167,0 1.07292,0.0625 1.59375,0.1875c0.52083,0.125 1.01563,0.30729 1.48438,0.54688zM290.523,184.31026c0.30208,0 0.56771,0.10938 0.79688,0.32813c0.22917,0.21875 0.34375,0.48958 0.34375,0.8125v10.78125c0,0.32292 -0.11979,0.59375 -0.35937,0.8125c-0.23958,0.21875 -0.51042,0.32813 -0.8125,0.32813c-0.35417,0 -0.63542,-0.10937 -0.84375,-0.32812c-0.20833,-0.21875 -0.3125,-0.48958 -0.3125,-0.8125v-10.78125c0,-0.32292 0.10938,-0.59375 0.32813,-0.8125c0.22917,-0.21875 0.51563,-0.32812 0.85938,-0.32812zM298.78862,184.31026c0.34375,0 0.61979,0.10938 0.82813,0.32813c0.21875,0.21875 0.32813,0.48958 0.32813,0.8125v10.78125c0,0.32292 -0.10937,0.59375 -0.32812,0.8125c-0.21875,0.21875 -0.50521,0.32813 -0.85937,0.32813c-0.30208,0 -0.56771,-0.10937 -0.79687,-0.32812c-0.22917,-0.21875 -0.34375,-0.48958 -0.34375,-0.8125v-10.78125c0,-0.32292 0.11458,-0.59375 0.34375,-0.8125c0.23958,-0.21875 0.51563,-0.32812 0.82813,-0.32812zM290.4605,189.74776h8.32813v2.14063h-8.32812zM305.07747,196.23213c0,0.32292 -0.11979,0.59375 -0.35937,0.8125c-0.23958,0.21875 -0.51042,0.32813 -0.8125,0.32813c-0.35417,0 -0.63542,-0.10937 -0.84375,-0.32812c-0.20833,-0.21875 -0.3125,-0.48958 -0.3125,-0.8125v-10.78125c0,-0.32292 0.10938,-0.59375 0.32813,-0.8125c0.22917,-0.21875 0.51563,-0.32812 0.85938,-0.32812c0.30208,0 0.56771,0.10938 0.79688,0.32813c0.22917,0.21875 0.34375,0.48958 0.34375,0.8125zM309.00481,184.31026h6.25c0.32292,0 0.59375,0.10417 0.8125,0.3125c0.21875,0.20833 0.32813,0.47396 0.32813,0.79688c0,0.30208 -0.10937,0.55208 -0.32812,0.75c-0.21875,0.19792 -0.48958,0.29688 -0.8125,0.29688h-5.21875l0.17188,-0.32812v3.64063l-0.15625,-0.15625h4.375c0.32292,0 0.58854,0.10417 0.79688,0.3125c0.21875,0.20833 0.32813,0.47396 0.32813,0.79688c0,0.3125 -0.10937,0.56771 -0.32812,0.76563c-0.20833,0.1875 -0.47396,0.28125 -0.79687,0.28125h-4.3125l0.09375,-0.15625v3.76562l-0.15625,-0.15625h5.20313c0.32292,0 0.59375,0.10938 0.8125,0.32813c0.21875,0.20833 0.32813,0.45833 0.32813,0.75c0,0.3125 -0.10937,0.56771 -0.32812,0.76563c-0.21875,0.19792 -0.48958,0.29688 -0.8125,0.29688h-6.25c-0.32292,0 -0.59375,-0.10937 -0.8125,-0.32812c-0.20833,-0.21875 -0.3125,-0.48958 -0.3125,-0.8125v-10.78125c0,-0.32292 0.10417,-0.59375 0.3125,-0.8125c0.21875,-0.21875 0.48958,-0.32812 0.8125,-0.32812zM328.08245,184.27901c0.3125,0 0.58333,0.10417 0.8125,0.3125c0.22917,0.19792 0.34375,0.45313 0.34375,0.76563c0,0.16667 -0.03646,0.33333 -0.10937,0.5l-4.60937,10.78125c-0.11458,0.25 -0.27604,0.4375 -0.48437,0.5625c-0.20833,0.11458 -0.41667,0.17188 -0.625,0.17188c-0.19792,-0.01042 -0.39062,-0.07292 -0.57812,-0.1875c-0.1875,-0.125 -0.32812,-0.29687 -0.42187,-0.51562l-4.60937,-10.82812c-0.04167,-0.07292 -0.06771,-0.15104 -0.07812,-0.23437c-0.01042,-0.08333 -0.01562,-0.16146 -0.01562,-0.23437c0,-0.35417 0.13021,-0.625 0.39063,-0.8125c0.26042,-0.19792 0.51042,-0.29687 0.75,-0.29687c0.46875,0 0.80729,0.23958 1.01563,0.71875l4.09375,9.60937l-0.65625,0.01563l3.75,-9.625c0.20833,-0.46875 0.55208,-0.70312 1.03125,-0.70312zM332.32512,184.31026h6.25c0.32292,0 0.59375,0.10417 0.8125,0.3125c0.21875,0.20833 0.32813,0.47396 0.32813,0.79688c0,0.30208 -0.10937,0.55208 -0.32812,0.75c-0.21875,0.19792 -0.48958,0.29688 -0.8125,0.29688h-5.21875l0.17188,-0.32812v3.64063l-0.15625,-0.15625h4.375c0.32292,0 0.58854,0.10417 0.79688,0.3125c0.21875,0.20833 0.32813,0.47396 0.32813,0.79688c0,0.3125 -0.10937,0.56771 -0.32812,0.76563c-0.20833,0.1875 -0.47396,0.28125 -0.79687,0.28125h-4.3125l0.09375,-0.15625v3.76562l-0.15625,-0.15625h5.20313c0.32292,0 0.59375,0.10938 0.8125,0.32813c0.21875,0.20833 0.32813,0.45833 0.32813,0.75c0,0.3125 -0.10937,0.56771 -0.32812,0.76563c-0.21875,0.19792 -0.48958,0.29688 -0.8125,0.29688h-6.25c-0.32292,0 -0.59375,-0.10937 -0.8125,-0.32812c-0.20833,-0.21875 -0.3125,-0.48958 -0.3125,-0.8125v-10.78125c0,-0.32292 0.10417,-0.59375 0.3125,-0.8125c0.21875,-0.21875 0.48958,-0.32812 0.8125,-0.32812zM343.04339,184.29464c0.16667,0 0.34896,0.04688 0.54688,0.14063c0.19792,0.09375 0.34375,0.21354 0.4375,0.35938l4.53125,6.98438l-0.9375,-0.04687l4.65625,-6.9375c0.22917,-0.33333 0.53125,-0.5 0.90625,-0.5c0.30208,0 0.56771,0.10938 0.79688,0.32813c0.23958,0.20833 0.35938,0.47917 0.35938,0.8125v10.79687c0,0.32292 -0.10417,0.59375 -0.3125,0.8125c-0.20833,0.21875 -0.48958,0.32813 -0.84375,0.32813c-0.34375,0 -0.625,-0.10937 -0.84375,-0.32812c-0.21875,-0.21875 -0.32812,-0.48958 -0.32812,-0.8125v-8.78125l0.73438,0.17188l-3.8125,5.79688c-0.11458,0.13542 -0.25521,0.25521 -0.42187,0.35937c-0.16667,0.09375 -0.33854,0.13542 -0.51562,0.125c-0.15625,0.01042 -0.31771,-0.03125 -0.48437,-0.125c-0.16667,-0.10417 -0.30729,-0.22396 -0.42187,-0.35937l-3.5625,-5.64063l0.48438,-0.98437v9.4375c0,0.32292 -0.09896,0.59375 -0.29687,0.8125c-0.19792,0.21875 -0.45833,0.32813 -0.78125,0.32813c-0.3125,0 -0.56771,-0.10937 -0.76562,-0.32812c-0.19792,-0.21875 -0.29687,-0.48958 -0.29687,-0.8125v-10.79687c0,-0.3125 0.11458,-0.57812 0.34375,-0.79687c0.22917,-0.22917 0.50521,-0.34375 0.82813,-0.34375zM358.27596,184.31026h6.25c0.32292,0 0.59375,0.10417 0.8125,0.3125c0.21875,0.20833 0.32813,0.47396 0.32813,0.79688c0,0.30208 -0.10937,0.55208 -0.32812,0.75c-0.21875,0.19792 -0.48958,0.29688 -0.8125,0.29688h-5.21875l0.17188,-0.32812v3.64063l-0.15625,-0.15625h4.375c0.32292,0 0.58854,0.10417 0.79688,0.3125c0.21875,0.20833 0.32813,0.47396 0.32813,0.79688c0,0.3125 -0.10937,0.56771 -0.32812,0.76563c-0.20833,0.1875 -0.47396,0.28125 -0.79687,0.28125h-4.3125l0.09375,-0.15625v3.76562l-0.15625,-0.15625h5.20313c0.32292,0 0.59375,0.10938 0.8125,0.32813c0.21875,0.20833 0.32813,0.45833 0.32813,0.75c0,0.3125 -0.10937,0.56771 -0.32812,0.76563c-0.21875,0.19792 -0.48958,0.29688 -0.8125,0.29688h-6.25c-0.32292,0 -0.59375,-0.10937 -0.8125,-0.32812c-0.20833,-0.21875 -0.3125,-0.48958 -0.3125,-0.8125v-10.78125c0,-0.32292 0.10417,-0.59375 0.3125,-0.8125c0.21875,-0.21875 0.48958,-0.32812 0.8125,-0.32812zM377.7286,184.31026c0.29167,0 0.53125,0.09896 0.71875,0.29688c0.1875,0.19792 0.28125,0.44792 0.28125,0.75v10.875c0,0.32292 -0.10937,0.59375 -0.32812,0.8125c-0.21875,0.21875 -0.48958,0.32813 -0.8125,0.32813c-0.15625,0 -0.32292,-0.02604 -0.5,-0.07812c-0.16667,-0.0625 -0.29167,-0.14062 -0.375,-0.23437l-7.32812,-9.3125l0.48438,-0.29687v8.875c0,0.30208 -0.09896,0.55208 -0.29687,0.75c-0.1875,0.19792 -0.4375,0.29688 -0.75,0.29688c-0.30208,0 -0.54687,-0.09896 -0.73437,-0.29687c-0.17708,-0.19792 -0.26562,-0.44792 -0.26562,-0.75v-10.875c0,-0.32292 0.10417,-0.59375 0.3125,-0.8125c0.21875,-0.21875 0.48958,-0.32812 0.8125,-0.32812c0.17708,0 0.35938,0.03646 0.54688,0.10938c0.1875,0.0625 0.32292,0.16146 0.40625,0.29688l7.10938,9.07813l-0.3125,0.21875v-8.65625c0,-0.30208 0.09375,-0.55208 0.28125,-0.75c0.1875,-0.19792 0.4375,-0.29687 0.75,-0.29687zM385.95656,197.37276c-0.35417,0 -0.64583,-0.10937 -0.875,-0.32812c-0.21875,-0.21875 -0.32812,-0.48958 -0.32812,-0.8125v-10.8125h2.42188v10.8125c0,0.32292 -0.11458,0.59375 -0.34375,0.8125c-0.22917,0.21875 -0.52083,0.32813 -0.875,0.32813zM381.83156,186.46651c-0.32292,0 -0.59375,-0.09896 -0.8125,-0.29687c-0.21875,-0.20833 -0.32812,-0.47396 -0.32812,-0.79687c0,-0.32292 0.10938,-0.57812 0.32813,-0.76562c0.21875,-0.19792 0.48958,-0.29687 0.8125,-0.29687h8.28125c0.32292,0 0.59375,0.09896 0.8125,0.29688c0.21875,0.19792 0.32813,0.45833 0.32813,0.78125c0,0.32292 -0.10937,0.58333 -0.32812,0.78125c-0.21875,0.19792 -0.48958,0.29688 -0.8125,0.29688zM397.40102,197.56026c-0.86458,0 -1.64583,-0.10937 -2.34375,-0.32812c-0.69792,-0.21875 -1.36458,-0.59896 -2,-1.14062c-0.16667,-0.14583 -0.29167,-0.30208 -0.375,-0.46875c-0.08333,-0.17708 -0.125,-0.35417 -0.125,-0.53125c0,-0.28125 0.09896,-0.53125 0.29688,-0.75c0.20833,-0.21875 0.46875,-0.32812 0.78125,-0.32812c0.23958,0 0.45313,0.07292 0.64063,0.21875c0.46875,0.38542 0.9375,0.68229 1.40625,0.89062c0.46875,0.19792 1.04167,0.29688 1.71875,0.29688c0.45833,0 0.88021,-0.07292 1.26563,-0.21875c0.38542,-0.14583 0.69792,-0.33854 0.9375,-0.57812c0.23958,-0.23958 0.35938,-0.51562 0.35938,-0.82812c0,-0.375 -0.11458,-0.69271 -0.34375,-0.95312c-0.21875,-0.26042 -0.5625,-0.47917 -1.03125,-0.65625c-0.45833,-0.1875 -1.04167,-0.32812 -1.75,-0.42187c-0.66667,-0.10417 -1.25521,-0.25521 -1.76562,-0.45312c-0.51042,-0.20833 -0.9375,-0.46875 -1.28125,-0.78125c-0.34375,-0.32292 -0.60417,-0.69792 -0.78125,-1.125c-0.16667,-0.4375 -0.25,-0.92187 -0.25,-1.45312c0,-0.8125 0.20833,-1.5 0.625,-2.0625c0.41667,-0.57292 0.97917,-1.01042 1.6875,-1.3125c0.70833,-0.30208 1.48958,-0.45312 2.34375,-0.45312c0.8125,0 1.5625,0.125 2.25,0.375c0.69792,0.23958 1.26042,0.54688 1.6875,0.92188c0.36458,0.28125 0.54688,0.60938 0.54688,0.98438c0,0.27083 -0.10937,0.52083 -0.32812,0.75c-0.20833,0.21875 -0.45312,0.32813 -0.73437,0.32813c-0.1875,0 -0.35417,-0.05729 -0.5,-0.17187c-0.19792,-0.16667 -0.46875,-0.32812 -0.8125,-0.48437c-0.33333,-0.15625 -0.6875,-0.28646 -1.0625,-0.39062c-0.375,-0.10417 -0.72396,-0.15625 -1.04687,-0.15625c-0.53125,0 -0.97917,0.06771 -1.34375,0.20313c-0.36458,0.13542 -0.64062,0.32292 -0.82812,0.5625c-0.1875,0.22917 -0.28125,0.5 -0.28125,0.8125c0,0.375 0.10938,0.68229 0.32813,0.92188c0.21875,0.23958 0.53125,0.43229 0.9375,0.57813c0.40625,0.14583 0.89583,0.27604 1.46875,0.39063c0.75,0.13542 1.40625,0.29688 1.96875,0.48438c0.57292,0.1875 1.04167,0.42708 1.40625,0.71875c0.375,0.29167 0.65625,0.65625 0.84375,1.09375c0.1875,0.4375 0.28125,0.97396 0.28125,1.60937c0,0.8125 -0.22396,1.51042 -0.67187,2.09375c-0.44792,0.58333 -1.03646,1.03125 -1.76562,1.34375c-0.72917,0.3125 -1.51562,0.46875 -2.35937,0.46875z"/></g></g></svg>