<svg version="1.1" xmlns="http://www.w3.org/2000/svg" xmlns:xlink="http://www.w3.org/1999/xlink" width="718.22836" height="536.0106" viewBox="0,0,718.22836,536.0106"><g transform="translate(117.65903,87.44823)"><g data-paper-data="{&quot;isPaintingLayer&quot;:true}" fill-rule="nonzero" stroke="none" stroke-width="0" stroke-linecap="butt" stroke-linejoin="miter" stroke-miterlimit="10" stroke-dasharray="" stroke-dashoffset="0" style="mix-blend-mode: normal"><path d="M25.43608,342.53341l50.54393,-295.33509l49.96527,-28.18153l328.61863,-1.55019v325.06681z" fill="#98bbd6"/><path d="" data-paper-data="{&quot;index&quot;:null}" fill="#ffffff"/><path d="" data-paper-data="{&quot;index&quot;:null}" fill="#ffffff"/><path d="" data-paper-data="{&quot;index&quot;:null}" fill="#ffffff"/><path d="" data-paper-data="{&quot;index&quot;:null}" fill="#ffffff"/><path d="M-117.65903,448.56237v-536.0106h718.22836v536.0106z" fill="none"/><path d="M199.10795,124.67649l-34.64178,1.20622l-56.96627,-37.30635l80.1029,25.18168l100.75748,41.54964z" fill="#375267"/><path d="M205.71497,171.51747l-25.31291,50.73335l-103.75484,92.46255l59.21535,-64.4128l5.08933,-10.15368c0,0 25.74568,-18.93173 27.73776,-21.04273c8.06223,-8.54355 37.02527,-47.58669 37.02527,-47.58669z" data-paper-data="{&quot;index&quot;:null}" fill="#375267"/><path d="M327.90456,307.65624l-0.38436,-56.69628l50.68406,-129.40446l-23.65838,84.23626l0.0562,11.35762c0,0 -14.39215,28.53272 -15.21335,31.31668c-3.32352,11.26702 -11.48416,59.19018 -11.48416,59.19018z" data-paper-data="{&quot;index&quot;:null}" fill="#375267"/></g></g></svg>