<svg version="1.1" xmlns="http://www.w3.org/2000/svg" xmlns:xlink="http://www.w3.org/1999/xlink" width="465.46704" height="154.28629" viewBox="0,0,465.46704,154.28629"><defs><linearGradient x1="336.54146" y1="199.00794" x2="336.54146" y2="314.61759" gradientUnits="userSpaceOnUse" id="color-1"><stop offset="0" stop-color="#10181e" stop-opacity="0"/><stop offset="1" stop-color="#10181e"/></linearGradient></defs><g transform="translate(-140.69975,-199.00789)"><g data-paper-data="{&quot;isPaintingLayer&quot;:true}" fill-rule="nonzero" stroke="none" stroke-width="0" stroke-linecap="butt" stroke-linejoin="miter" stroke-miterlimit="10" stroke-dasharray="" stroke-dashoffset="0" style="mix-blend-mode: normal"><path d="M403.40863,330.31264c8.92191,-2.13958 -34.42295,8.19758 -61.98275,4.37014c-18.58312,-2.58078 -30.42544,-4.54537 -39.23824,-4.54537c-6.84822,0 -21.67929,-1.24607 -32.23214,-4.92198c-14.89644,-5.18893 -84.2057,13.45324 -99.49621,10.32104c-15.16485,-3.10646 4.55351,-20.83915 -2.04974,-22.39218c-5.94142,-1.39738 4.48199,-14.64894 7.89185,-22.13944c2.88625,-6.34026 16.79966,-13.98082 23.91232,-17.5747c0.94021,-0.47508 5.19869,-6.48959 5.8789,-7.17482c3.51009,-3.53601 0.74023,-3.77679 5.39255,-4.47191c0.34069,-0.0509 18.83565,-5.15172 32.83207,-17.16042c15.23187,-13.06869 26.06711,-33.13468 26.43331,-33.19096c16.10559,-2.47529 35.12089,1.04836 51.92208,-0.32371c2.21515,-0.1809 30.74585,7.84295 32.89635,7.60438c11.66913,-1.29456 18.38198,-16.16367 30.75185,-15.80977c11.44774,0.32752 26.19833,-3.89505 29.91872,-3.89505c1.91597,0 15.64334,16.53711 32.34737,24.87985c15.64573,7.81417 34.19849,7.25693 39.62039,13.1188c21.1165,22.83008 103.59825,11.81273 102.96371,27.08041c-0.12727,3.06222 9.29594,3.52566 9.4402,9.20398c0.26086,10.26774 10.51282,32.86918 2.5011,35.74138c-9.3907,3.36656 6.85115,15.74896 -17.35017,19.22519c-21.18671,3.04322 -58.75413,1.51718 -84.92614,0.27034c-6.60852,-0.31483 -9.41393,5.10174 -14.12218,4.90056c-3.21321,-0.1373 -16.86745,-1.54847 -18.84518,-1.57167c-2.5105,-0.02944 -18.85439,-0.82599 -18.85439,-0.58085z" data-paper-data="{&quot;index&quot;:null}" fill="url(#color-1)"/><path d="M163.42637,320.48618c0.04063,-0.07477 -2.72038,0.31219 -5.29406,0.1357c-1.89359,-0.12985 -3.75027,-0.81987 -3.98625,-0.92266c-2.60376,-1.13416 -1.20137,-5.66444 -0.55114,-6.39414c0.48582,-0.54521 4.96928,4.6092 8.03987,4.40476c3.72034,-0.24771 5.25938,-3.17208 6.05427,-3.34627c1.33539,-0.29262 3.15307,0.98554 3.99662,1.44393c0.75567,0.41063 0.53381,1.83878 0.13944,3.30169c-0.3841,1.42483 -0.94399,2.86654 -0.02768,4.62091c1.07543,2.05902 2.52479,2.59094 3.77492,4.38902c0.48796,0.70184 1.32495,1.33491 1.32441,2.93487c-0.00048,1.4266 -0.81441,3.77941 -0.82207,5.16661c-0.00576,1.04288 0.57407,3.22301 0.56195,3.24532c-0.21761,0.40046 0.1767,1.93068 -0.78008,1.38316c-0.58879,-0.33693 -0.57896,-0.03559 -1.41855,-1.0162c-0.36988,-0.43201 -0.81541,-1.84838 -0.67747,-3.22834c0.10383,-1.03877 1.29826,-2.72179 0.53392,-3.53559c-0.08285,-0.08821 -0.77521,0.98942 -1.28831,1.72982c-0.58842,0.84908 -1.52197,1.77822 -1.8705,1.14025c-0.32197,-0.58936 0.56527,-2.58977 0.99092,-3.97367c0.47914,-1.55776 0.07589,-2.70744 -0.96257,-3.96356c-0.56133,-0.67899 -1.87335,-1.08058 -2.13208,-1.25395c-0.51375,-0.34423 -2.49215,5.2127 -2.04617,8.74169c0.44597,3.52898 4.29938,7.51833 4.14871,7.89563c-0.7864,1.96921 -4.46494,-0.8171 -6.75022,-1.401c-1.55477,-0.39726 1.39808,-6.89162 -0.0847,-7.5052c-0.43189,-0.17872 -1.62909,0.63092 -2.52546,0.92822c-1.72123,0.57087 -2.2561,2.93335 -3.8548,3.94878c-1.61504,1.02581 -4.7321,-0.2216 -4.50834,-0.70693c0.68497,-1.4857 3.61705,-3.61138 4.52777,-5.53907c0.84509,-1.78878 -0.98489,-2.50325 -0.29818,-3.55409c0.85948,-1.31522 5.04175,2.18393 5.84926,1.65783c1.45993,-0.95117 1.29817,-6.18199 0.88343,-6.29519c-1.74112,-0.47524 -1.72098,0.77849 -3.27279,1.32326c-1.68027,0.58986 -5.39638,0.42945 -5.78819,2.344c-0.21056,1.02891 -0.53106,1.64973 -0.94159,2.44081c-0.42336,0.81581 -0.93903,1.79344 -1.29922,2.29688c-0.54244,0.75819 -3.37697,0.97848 -3.4248,0.94628c-1.07804,-0.72563 3.21585,-4.6042 2.43544,-4.90237c-1.37566,-0.52559 -6.62221,5.66011 -8.82359,5.44346c-1.23495,-0.12153 2.18,-3.90051 1.73851,-5.23428c-0.72062,-2.17709 -4.74475,-2.38453 -4.25625,-3.2976c0.32894,-0.61482 4.87858,1.34741 8.50539,0.84546c3.69935,-0.51199 6.11629,-4.56001 6.24393,-4.59164c0.51942,-0.12868 2.74799,0.39414 4.74581,-0.21531c1.64443,-0.50165 2.97979,-1.44363 3.19046,-1.83131z" data-paper-data="{&quot;index&quot;:null}" fill="#10181e"/><path d="M509.57567,323.52727c1.5824,0.85079 3.20459,0.68113 3.61246,0.87464c0.10023,0.04755 2.40818,4.15634 5.26499,5.15824c2.8008,0.98227 6.00612,-0.19645 6.32783,0.42218c0.47776,0.91871 -2.53899,0.53986 -2.82482,2.46252c-0.17511,1.1779 2.85515,5.17824 1.93623,5.11581c-1.63804,-0.11129 -6.33874,-6.61056 -7.31597,-6.31715c-0.55439,0.16646 3.15201,4.38434 2.42351,4.90611c-0.03233,0.02315 -2.20084,-0.58453 -2.70095,-1.36685c-0.33208,-0.51947 -0.83804,-1.50211 -1.255,-2.32111c-0.40432,-0.79417 -0.72037,-1.41718 -1.00183,-2.40417c-0.52372,-1.83652 -3.31328,-2.21537 -4.65334,-3.0028c-1.23761,-0.72723 -1.37144,-1.89055 -2.63087,-1.6959c-0.3,0.04637 0.1996,4.88893 1.41609,5.98113c0.67286,0.60412 3.41781,-2.0564 4.22375,-0.7109c0.64393,1.07504 -0.65422,1.47958 0.19715,3.26353c0.91749,1.92248 3.38625,4.31637 4.08057,5.79566c0.22682,0.48324 -1.98074,1.20061 -3.32334,0.01695c-1.32901,-1.17169 -2.01412,-3.44521 -3.38289,-4.2208c-0.71282,-0.40391 -1.7139,-1.32712 -2.01908,-1.22226c-1.04774,0.36004 1.95609,6.82049 0.82823,6.96908c-1.65778,0.2184 -4.10676,2.28744 -4.93522,0.34399c-0.15873,-0.37236 2.27939,-3.53558 2.19692,-6.75476c-0.08248,-3.21918 -2.23837,-8.6692 -2.58573,-8.42201c-0.17494,0.12449 -1.11881,0.3116 -1.46234,0.86342c-0.63553,1.02084 -0.80363,2.03295 -0.2563,3.55001c0.48623,1.34775 1.39462,3.33453 1.22134,3.83699c-0.18757,0.54389 -1.00361,-0.45303 -1.54928,-1.32643c-0.47582,-0.76161 -1.12721,-1.86236 -1.17934,-1.79208c-0.48094,0.64836 0.62189,2.38358 0.82386,3.36457c0.2683,1.3032 0.09995,2.55736 -0.12824,2.90664c-0.51798,0.79283 -0.54638,0.51393 -0.95132,0.74366c-0.65805,0.37332 -0.54194,-0.99401 -0.75402,-1.39742c-0.01181,-0.02247 0.16725,-1.96797 0.03891,-2.93885c-0.1707,-1.29143 -1.06558,-3.59559 -1.23555,-4.92264c-0.19061,-1.48832 0.36671,-1.95824 0.65207,-2.54173c0.73108,-1.49489 1.76327,-1.78371 2.33129,-3.54614c0.48398,-1.50165 -0.11059,-2.92226 -0.57028,-4.30217c-0.47198,-1.4168 -0.80944,-2.77674 -0.28713,-3.05132c0.58305,-0.30651 1.80489,-1.23713 2.84896,-0.77519c0.62148,0.27497 2.13235,3.21383 4.97361,3.97288c2.34504,0.62649 5.12083,-3.5309 5.55284,-2.95474c0.57819,0.77114 2.17669,5.18435 0.34361,5.86933c-0.16613,0.06208 -1.48738,0.44009 -2.9031,0.29179c-1.92419,-0.20155 -4.05695,-0.95382 -4.01735,-0.87849c0.2053,0.39053 1.32655,1.45649 2.62905,2.15678z" data-paper-data="{&quot;index&quot;:null}" fill="#10181e"/><path d="M303.09271,324.799c1.08276,1.43369 2.62768,1.9567 2.91753,2.30281c0.07123,0.08506 0.45325,4.78216 2.63099,6.88517c2.13504,2.06178 5.53978,2.32875 5.57386,3.02518c0.05062,1.03429 -2.53255,-0.56933 -3.5949,1.05848c-0.65083,0.99725 0.43282,5.89734 -0.37614,5.45701c-1.44203,-0.78493 -3.00044,-8.65312 -4.01093,-8.79444c-0.57326,-0.08017 1.034,5.29984 0.15418,5.46988c-0.03904,0.00755 -1.75589,-1.44989 -1.88376,-2.36956c-0.08491,-0.61068 -0.13448,-1.7148 -0.17147,-2.63308c-0.03588,-0.89044 -0.063,-1.5885 0.09325,-2.60288c0.29075,-1.88748 -2.08596,-3.39624 -2.97496,-4.67119c-0.82104,-1.17747 -0.45702,-2.29046 -1.68272,-2.63933c-0.29197,-0.08311 -1.85949,4.52589 -1.21002,6.0262c0.35924,0.82984 3.96421,-0.44189 4.13488,1.11721c0.13637,1.2457 -1.21214,1.07139 -1.18321,3.04788c0.03118,2.12998 2.22618,6.14716 2.23958,7.78124c0.00437,0.5338 -3.25205,-0.54715 -3.97794,-2.1832c-0.71855,-1.61951 -0.39204,-3.97145 -1.31207,-5.24762c-0.47912,-0.6646 -1.00341,-1.92143 -1.3245,-1.95354c-1.10237,-0.11022 -1.06972,7.01436 -2.15663,6.67855c-1.5976,-0.49358 -4.68669,0.36422 -4.62822,-1.74763c0.0112,-0.40462 3.5472,-2.26125 4.8161,-5.22095c1.26891,-2.9597 1.58494,-8.8121 1.1661,-8.7325c-0.21094,0.0401 -1.14674,-0.18389 -1.68926,0.17413c-1.00365,0.66234 -1.57891,1.51187 -1.71485,3.1189c-0.12077,1.42768 -0.12471,3.61228 -0.49192,3.99653c-0.39749,0.41593 -0.72285,-0.83062 -0.85411,-1.85207c-0.11444,-0.89071 -0.24686,-2.16289 -0.32357,-2.12079c-0.70768,0.38839 -0.42991,2.42559 -0.6559,3.40131c-0.30021,1.29623 -0.97674,2.36559 -1.3299,2.58772c-0.80165,0.50423 -0.71103,0.23892 -1.17491,0.27864c-0.75382,0.06454 -0.07752,-1.12948 -0.10183,-1.5846c-0.00135,-0.02535 0.97351,-1.71848 1.26218,-2.65429c0.384,-1.24478 0.53268,-3.71214 0.93221,-4.98898c0.44808,-1.43201 1.15071,-1.62637 1.65359,-2.03746c1.28837,-1.05322 2.34688,-0.88479 3.59878,-2.24919c1.06664,-1.16251 1.1194,-2.70162 1.27773,-4.14744c0.16256,-1.48447 0.42361,-2.86113 1.01286,-2.8926c0.65778,-0.03513 2.15655,-0.37073 2.91246,0.48488c0.44995,0.5093 0.59605,3.81056 2.86104,5.6864c1.86942,1.54822 6.12728,-1.07083 6.27932,-0.36694c0.20349,0.94211 -0.18626,5.61966 -2.13792,5.47689c-0.17688,-0.01294 -1.53529,-0.221 -2.75985,-0.94674c-1.66438,-0.9864 -3.28837,-2.56032 -3.28384,-2.47533c0.02353,0.44058 0.59743,1.87727 1.48866,3.05735z" data-paper-data="{&quot;index&quot;:null}" fill="#10181e"/><path d="M293.10906,331.86994c0.63153,1.68197 1.96456,2.62181 2.1443,3.03593c0.04417,0.10177 -0.92214,4.71425 0.56946,7.3487c1.46236,2.5828 4.65144,3.80477 4.48653,4.48226c-0.24489,1.00614 -2.26696,-1.26446 -3.74747,-0.00495c-0.90703,0.77163 -1.25813,5.77781 -1.90892,5.12607c-1.16008,-1.1618 -0.42213,-9.14882 -1.351,-9.57102c-0.52696,-0.23952 -0.51213,5.37543 -1.40403,5.28885c-0.03957,-0.00385 -1.27239,-1.88849 -1.13408,-2.80665c0.09184,-0.60966 0.35756,-1.6825 0.58262,-2.57355c0.21822,-0.86403 0.39027,-1.54111 0.8279,-2.46946c0.8143,-1.72743 -1.03669,-3.8485 -1.52744,-5.32328c-0.45323,-1.36203 0.2116,-2.326 -0.86476,-3.00828c-0.25639,-0.16252 -3.06715,3.81235 -2.87002,5.43528c0.10904,0.89767 3.92669,0.70098 3.64801,2.24443c-0.22266,1.2332 -1.4663,0.68347 -1.99931,2.58694c-0.5744,2.05129 -0.29104,5.47842 -0.74181,7.04915c-0.14725,0.5131 -2.28148,-0.39957 -2.51338,-2.17435c-0.22954,-1.75683 0.75083,-3.91948 0.23068,-5.40423c-0.27088,-0.77322 -0.41705,-2.12715 -0.71583,-2.24904c-1.02581,-0.41844 -3.01583,6.42263 -3.9628,5.79225c-1.39191,-0.92656 -4.59745,-0.98043 -3.94223,-2.98891c0.12554,-0.38483 4.043,-1.16194 6.09946,-3.64002c2.05647,-2.47808 4.01994,-8.00033 3.59572,-8.04283c-0.21364,-0.0214 -1.04745,-0.50169 -1.66926,-0.31229c-1.15032,0.35037 -1.94296,1.00178 -2.52925,2.50421c-0.52086,1.33474 -1.14444,3.42846 -1.60558,3.69273c-0.49917,0.28607 -0.4575,-1.00158 -0.29356,-2.01829c0.14296,-0.88657 0.37692,-2.14405 0.29143,-2.12544c-0.7888,0.17165 -1.10041,2.20394 -1.59394,3.07545c-0.65564,1.15778 -1.60776,1.99128 -2.00943,2.10409c-0.91176,0.25606 -0.7496,0.02736 -1.20569,-0.06615c-0.74115,-0.15198 0.24612,-1.10507 0.35193,-1.54838c0.00589,-0.0247 1.42106,-1.37166 1.96337,-2.18712c0.72138,-1.08469 1.56398,-3.40847 2.30935,-4.5195c0.83595,-1.24603 1.56485,-1.23307 2.1637,-1.4846c1.53425,-0.6444 2.50148,-0.18258 4.08902,-1.13574c1.35265,-0.81212 1.83989,-2.27302 2.40191,-3.61451c0.57704,-1.37735 1.21795,-2.62337 1.79191,-2.48637c0.64071,0.15293 2.17312,0.25634 2.65522,1.29127c0.28697,0.61603 -0.50955,3.82309 1.13017,6.26446c1.35335,2.01498 6.17932,0.71156 6.12541,1.42967c-0.07216,0.96113 -1.77298,5.33591 -3.60393,4.64529c-0.16594,-0.06259 -1.4095,-0.6475 -2.37785,-1.69085c-1.31612,-1.41808 -2.42686,-3.38807 -2.44662,-3.30529c-0.10243,0.42915 0.04027,1.96964 0.56008,3.35408z" data-paper-data="{&quot;index&quot;:null}" fill="#10181e"/><path d="M212.49354,338.05111c-8.30952,-1.43954 -16.05807,-2.12494 -16.05807,-8.35739c0,-7.34288 8.54729,-13.29545 19.09091,-13.29545c10.54362,0 68.03818,-1.21043 68.03818,6.13244c0,4.48268 -31.35553,5.40253 -36.23598,7.81092c-3.114,1.53669 -27.69525,12.64755 -31.8022,12.64755c-1.59446,0 -1.55235,-4.68158 -3.03284,-4.93806z" data-paper-data="{&quot;index&quot;:null}" fill="#10181e"/><path d="M215.43082,341.94293c0.05944,-0.35112 -0.31897,-1.61467 -1.11304,-2.75267c-0.96472,-1.38256 -2.64021,-2.1612 -2.90587,-2.50176c-0.06528,-0.08368 0.41749,-3.85829 -1.67612,-6.02692c-2.05256,-2.12611 -5.91906,-3.14756 -5.82152,-3.70184c0.14487,-0.82316 2.80321,1.05054 4.34569,0.0274c0.94498,-0.62681 0.66003,-4.72796 1.50468,-4.1897c1.50564,0.95949 1.75414,7.50148 2.88948,7.85332c0.64409,0.19961 -0.14928,-4.40278 0.89679,-4.32626c0.04641,0.00339 1.73632,1.55584 1.70288,2.30754c-0.02221,0.49914 -0.182,1.37683 -0.31975,2.10578c-0.13359,0.70684 -0.23946,1.26074 -0.61854,2.01894c-0.70535,1.41081 1.73399,3.16088 2.50686,4.37274c0.71377,1.1192 0.0762,1.90519 1.4185,2.47113c0.31973,0.1348 3.02919,-3.1057 2.57628,-4.43715c-0.25052,-0.73645 -4.64969,-0.59902 -4.53994,-1.86238c0.08768,-1.00941 1.60562,-0.55106 1.96049,-2.10793c0.38243,-1.67777 -0.41985,-4.48858 -0.11436,-5.77322c0.0998,-0.41965 2.70048,0.34173 3.21469,1.79787c0.50901,1.44141 -0.32874,3.20793 0.4796,4.42815c0.42095,0.63545 0.77759,1.74613 1.14087,1.84789c1.24721,0.34937 2.60885,-5.24551 3.79396,-4.72292c1.74194,0.76814 5.46604,0.83226 4.98398,2.47443c-0.09236,0.31464 -4.52701,0.9272 -6.56882,2.94554c-2.0418,2.01834 -3.55497,6.53244 -3.05725,6.56991c0.25067,0.01886 1.28381,0.41774 1.97858,0.26637c1.2853,-0.28001 2.11427,-0.809 2.58636,-2.03682c0.4194,-1.09078 0.85297,-2.80302 1.35111,-3.01675c0.53922,-0.23137 0.66891,0.82379 0.61937,1.65612c-0.0432,0.72579 -0.14064,1.75502 -0.04408,1.7403c0.89083,-0.13579 0.97121,-1.7996 1.42295,-2.51087c0.60012,-0.94491 1.58884,-1.62215 2.03897,-1.7121c1.02175,-0.2042 0.86534,-0.01777 1.40708,0.06173c0.88033,0.12918 -0.13261,0.90425 -0.19401,1.26695c-0.00342,0.0202 -1.45802,1.11542 -1.97408,1.78043c-0.68645,0.88457 -1.34219,2.78401 -2.05282,3.69002c-0.797,1.01611 -1.64391,1.00094 -2.30347,1.20337c-1.6898,0.51863 -2.87509,0.13407 -4.584,0.90543c-1.45605,0.65722 -1.81905,1.85161 -2.28522,2.94766c-0.47864,1.12536 -1.0495,2.14266 -1.73392,2.02679c-0.76401,-0.12934 -2.55504,-0.22365 -3.25707,-1.07493c-0.41788,-0.50672 0.06232,-3.13041 -2.17634,-5.1417c-1.84768,-1.66001 -7.26295,-0.62173 -7.29971,-1.21c-0.0492,-0.78734 1.31806,-4.36254 3.53642,-3.78506c0.20105,0.05234 1.72375,0.53951 2.99072,1.40073c1.72201,1.17053 3.28217,2.79216 3.29364,2.72443z" data-paper-data="{&quot;index&quot;:null}" fill="#10181e"/><path d="" data-paper-data="{&quot;index&quot;:null}" fill="#344e5f"/><path d="" data-paper-data="{&quot;index&quot;:null}" fill="#344e5f"/><path d="" data-paper-data="{&quot;index&quot;:null}" fill="#344e5f"/><path d="M461.43492,328.82025c0.06547,-0.05437 -2.64216,-0.71899 -4.96683,-1.83741c-1.71038,-0.82288 -3.17874,-2.1523 -3.35977,-2.33527c-1.99742,-2.01894 0.98512,-5.70602 1.85961,-6.14252c0.65337,-0.32614 2.90544,6.12348 5.83287,7.07243c3.54688,1.14975 6.06075,-0.99527 6.86354,-0.86223c1.34868,0.22351 2.56269,2.08466 3.17607,2.82321c0.54948,0.66161 -0.18623,1.90562 -1.09503,3.11793c-0.88514,1.18075 -1.9398,2.312 -1.73949,4.28109c0.23509,2.31104 1.3838,3.34254 1.87791,5.47604c0.19286,0.83274 0.73537,1.7311 0.14148,3.21676c-0.52954,1.32468 -2.15801,3.20781 -2.67961,4.49325c-0.39214,0.96637 -0.66219,3.20607 -0.68174,3.22228c-0.35062,0.29119 -0.55196,1.85852 -1.23744,0.9952c-0.42183,-0.53126 -0.52447,-0.24778 -0.94049,-1.46983c-0.18327,-0.53837 -0.07174,-2.01896 0.56816,-3.24936c0.48167,-0.92618 2.21512,-2.04619 1.80711,-3.08543c-0.04423,-0.11264 -1.08686,0.63135 -1.83797,1.12864c-0.86136,0.5703 -2.07294,1.08693 -2.16,0.36521c-0.08043,-0.66674 1.48544,-2.19542 2.394,-3.32275c1.0227,-1.26896 1.0746,-2.48622 0.57608,-4.03789c-0.26947,-0.83876 -1.33899,-1.69829 -1.51497,-1.95524c-0.34944,-0.51021 -4.24768,3.91668 -5.14234,7.35936c-0.89465,3.4427 1.20439,8.57668 0.92454,8.87119c-1.46065,1.53712 -3.84348,-2.41477 -5.74921,-3.80458c-1.29655,-0.94555 3.85431,-5.88161 2.70484,-7.00136c-0.33479,-0.32614 -1.7469,-0.01827 -2.6896,-0.07461c-1.8102,-0.1082 -3.18311,1.88743 -5.04439,2.23751c-1.88031,0.35367 -4.31242,-1.96082 -3.92463,-2.32855c1.18713,-1.1257 4.69846,-2.01234 6.25916,-3.46479c1.44824,-1.34778 0.01374,-2.69 1.04121,-3.41122c1.28596,-0.90267 3.87221,3.89807 4.81726,3.70895c1.70857,-0.34188 3.49834,-5.25964 3.15516,-5.51858c-1.44069,-1.08709 -1.88698,0.08469 -3.53015,0.01508c-1.7792,-0.07538 -5.1708,-1.60256 -6.24471,0.03013c-0.57714,0.87745 -1.10505,1.33512 -1.77969,1.91753c-0.69573,0.6006 -1.53719,1.31726 -2.05841,1.65121c-0.78495,0.50294 -3.49903,-0.34375 -3.53151,-0.39139c-0.73203,-1.07371 4.6941,-3.08315 4.07992,-3.6495c-1.08261,-0.99829 -8.24913,2.80042 -10.21316,1.78278c-1.10181,-0.57088 3.47113,-2.81383 3.5558,-4.21621c0.13821,-2.28908 -3.522,-3.97418 -2.72971,-4.64095c0.5335,-0.44897 4.03093,3.06066 7.58526,3.9396c3.6254,0.89652 7.37129,-1.96641 7.50155,-1.94844c0.5301,0.07314 2.40582,1.38519 4.48721,1.56014c1.71321,0.144 3.30269,-0.23553 3.64211,-0.51743z" data-paper-data="{&quot;index&quot;:null}" fill="#10181e"/><path d="M407.75281,325.169c12.94896,-2.27537 23.23068,-8.55759 24.34623,-2.20907c0.39824,2.26631 -6.71497,3.32736 -8.44675,7.95294c-0.53195,1.42081 4.91342,-0.78893 4.7227,0.86383c-0.33866,2.93473 2.55221,3.97382 -0.37939,4.33858c-0.95733,0.11912 -7.33088,-2.03887 -9.27564,-5.46261c-0.33704,-0.59334 -4.78979,4.83042 -3.61114,7.40083c0.81016,1.7668 7.50934,0.22904 7.04872,2.33215c-1.09388,4.99447 -8.30135,1.8297 -9.40363,2.0082c-1.04132,0.16862 -0.28236,-0.59691 -1.16479,-3.50854c-1.7194,-5.67328 -4.92652,-7.88192 -5.4289,-7.79364c-0.82222,0.14448 3.96201,12.20526 2.77791,16.89645c-0.3711,1.47024 -3.64295,-6.78061 -5.19618,-6.97146c-2.19966,-0.27029 -2.83477,7.06541 -3.16169,7.13716c-4.96049,1.08867 0.83466,-12.72104 -1.59006,-16.31975c-0.61555,-0.91359 -3.45974,4.33805 -6.27888,9.16172c-0.56049,0.95902 3.57503,9.35227 3.03424,10.22563c-0.83241,1.34433 -2.71814,-1.36525 -4.65206,-2.52679c-1.66403,-0.99944 -3.43093,-0.40146 -3.81296,-0.32882c-1.77991,0.33841 2.74136,-9.40429 2.70218,-13.52338c-0.03992,-4.19624 -4.62467,-2.78131 -4.77602,-3.64262c-1.11556,-6.34852 9.59715,-3.75545 22.54612,-6.03083z" data-paper-data="{&quot;index&quot;:null}" fill="#10181e"/><path d="M368.58823,329.72211c9.47434,-3.57019 16.35831,-9.79182 18.10867,-5.14681c0.62485,1.65818 -4.60661,3.47644 -5.25689,7.22404c-0.19974,1.15113 3.60561,-1.29836 3.69719,-0.0204c0.16261,2.26919 2.49859,2.64289 0.33217,3.33737c-0.70745,0.22678 -5.83865,-0.49653 -7.79904,-2.80986c-0.33974,-0.4009 -2.93519,4.3391 -1.67635,6.11602c0.86528,1.22138 5.71538,-0.89854 5.667,0.75874c-0.11489,3.93569 -6.02087,2.56953 -6.82954,2.86194c-0.76394,0.27625 -0.29888,-0.4114 -1.38225,-2.48882c-2.11095,-4.04783 -4.85317,-5.26144 -5.22075,-5.12293c-0.6016,0.2267 4.74038,8.6708 4.51392,12.38986c-0.07097,1.16557 -3.72464,-4.61124 -4.92729,-4.53396c-1.70317,0.10944 -1.13671,5.75137 -1.37386,5.85233c-3.59845,1.5319 -1.18413,-9.74577 -3.53271,-12.12298c-0.59622,-0.6035 -1.99895,3.77664 -3.44381,7.82935c-0.28726,0.80574 4.04031,6.56703 3.75573,7.30514c-0.43804,1.13613 -2.25182,-0.64517 -3.8811,-1.24813c-1.40191,-0.51881 -2.65364,0.18591 -2.93238,0.29541c-1.29864,0.51016 0.73219,-7.50797 0.11459,-10.61949c-0.62916,-3.1698 -3.8967,-1.44466 -4.13418,-2.07485c-1.75036,-4.645 6.72659,-4.21179 16.20091,-7.78198z" data-paper-data="{&quot;index&quot;:null}" fill="#10181e"/><path d="" data-paper-data="{&quot;index&quot;:null}" fill="#344e5f"/><path d="M184.30281,333.26151c0.01092,-0.06782 -1.9878,0.96606 -3.99473,1.52075c-1.4766,0.40812 -3.07509,0.37982 -3.28229,0.36474c-2.28624,-0.16646 -2.43136,-3.99143 -2.13162,-4.72114c0.22395,-0.54521 5.01783,2.17912 7.30114,1.20134c2.76647,-1.18469 3.15537,-3.82346 3.71399,-4.16891c0.93846,-0.58035 2.66471,-0.09378 3.42974,0.0294c0.68533,0.11035 0.89878,1.25718 0.99017,2.47668c0.08901,1.18774 0.0487,2.43542 1.21611,3.52591c1.37015,1.27987 2.61615,1.29684 4.04946,2.33125c0.55945,0.40375 1.36626,0.6617 1.79423,1.88011c0.38159,1.08639 0.39178,3.09581 0.75736,4.15412c0.27484,0.79563 1.30005,2.30039 1.29679,2.32062c-0.05848,0.36318 0.65146,1.42278 -0.22366,1.26205c-0.53853,-0.09891 -0.45037,0.12791 -1.35221,-0.39397c-0.3973,-0.22991 -1.11576,-1.18909 -1.3802,-2.27678c-0.19906,-0.81875 0.2598,-2.42005 -0.54007,-2.83506c-0.0867,-0.04499 -0.32536,0.96092 -0.51782,1.66206c-0.22071,0.80406 -0.68278,1.76149 -1.11897,1.36903c-0.40296,-0.36255 -0.26297,-2.12327 -0.30938,-3.29098c-0.05224,-1.31441 -0.6671,-2.08185 -1.79412,-2.76026c-0.60921,-0.36672 -1.71574,-0.32121 -1.95916,-0.38395c-0.48334,-0.12455 -0.50195,4.63637 0.78247,7.20404c1.28442,2.56767 5.28663,4.57358 5.27292,4.90121c-0.07155,1.70997 -3.61851,0.57327 -5.51493,0.74053c-1.29021,0.11379 -0.78062,-5.62181 -2.07393,-5.69201c-0.3767,-0.02045 -1.07152,0.91658 -1.67444,1.38294c-1.15775,0.89552 -0.93248,2.83759 -1.87792,4.0388c-0.9551,1.21349 -3.66249,1.09824 -3.62206,0.66878c0.12378,-1.31465 1.78723,-3.71825 1.96456,-5.42989c0.16456,-1.5883 -1.42015,-1.64236 -1.17862,-2.62636c0.30229,-1.23156 4.42367,0.31304 4.89768,-0.30375c0.85697,-1.11513 -0.66669,-5.05473 -1.01279,-5.02989c-1.45299,0.1043 -1.10199,1.05355 -2.13772,1.88382c-1.12148,0.89901 -3.99399,1.77182 -3.77972,3.33451c0.11516,0.83982 0.03732,1.39835 -0.06346,2.11061c-0.10394,0.73453 -0.23484,1.61699 -0.3743,2.09677c-0.21003,0.72254 -2.30936,1.64919 -2.3544,1.63748c-1.01513,-0.26389 1.21593,-4.36679 0.54186,-4.38488c-1.18818,-0.03189 -3.52693,6.08281 -5.26113,6.50724c-0.97287,0.2381 0.6156,-3.55365 -0.07766,-4.45102c-1.1316,-1.46476 -4.25124,-0.5453 -4.12374,-1.37133c0.08586,-0.55621 4.07547,-0.28022 6.70265,-1.63347c2.67972,-1.38031 3.43624,-5.10971 3.52496,-5.16796c0.36105,-0.23706 2.19793,-0.43563 3.55596,-1.43459c1.11781,-0.82225 1.8824,-1.89703 1.93901,-2.24862z" data-paper-data="{&quot;index&quot;:null}" fill="#10181e"/><path d="M564.5353,330.65296c1.79659,-0.01072 3.13952,-0.93636 3.59025,-0.96176c0.11076,-0.00624 4.10424,2.49593 7.09202,2.0077c2.9292,-0.47865 5.17887,-3.04817 5.75751,-2.65909c0.85931,0.57781 -1.97056,1.68961 -1.30094,3.51442c0.41024,1.11795 4.98593,3.17908 4.14929,3.56425c-1.49136,0.68658 -8.73005,-2.76862 -9.44751,-2.04314c-0.40701,0.41158 4.86644,2.33996 4.47669,3.14684c-0.0173,0.0358 -2.21205,0.54058 -3.02568,0.09321c-0.54026,-0.29706 -1.45494,-0.91749 -2.21313,-1.43688c-0.73521,-0.50364 -1.31097,-0.89927 -2.03064,-1.63101c-1.33911,-1.36157 -3.96953,-0.35855 -5.52302,-0.40824c-1.43473,-0.04589 -2.10921,-1.00312 -3.1217,-0.22923c-0.24118,0.18435 2.51603,4.19655 4.10696,4.57297c0.87997,0.20821 2.01599,-3.4418 3.36777,-2.64643c1.08005,0.6355 0.13406,1.6122 1.73565,2.77074c1.72596,1.24851 5.03954,2.16813 6.35738,3.1344c0.4305,0.31565 -1.1641,2.00242 -2.90953,1.60608c-1.72777,-0.39233 -3.4178,-2.06029 -4.99083,-2.08584c-0.81919,-0.01331 -2.1401,-0.34451 -2.35782,-0.10633c-0.74745,0.81774 4.98292,5.05132 4.06389,5.72179c-1.35084,0.98548 -2.51022,3.9745 -4.16806,2.66496c-0.31764,-0.25091 0.30832,-4.19534 -1.30542,-6.98206c-1.61374,-2.78671 -6.1159,-6.5392 -6.3025,-6.15587c-0.09398,0.19305 -0.83304,0.80924 -0.87043,1.45818c-0.06917,1.20051 0.26784,2.16955 1.47472,3.23936c1.07217,0.95042 2.82093,2.25973 2.90938,2.78382c0.09574,0.5673 -1.098,0.0828 -1.99524,-0.42272c-0.78239,-0.44082 -1.8813,-1.09531 -1.89341,-1.00865c-0.1118,0.79948 1.68722,1.79485 2.33423,2.55938c0.85951,1.01565 1.3122,2.19732 1.2791,2.61322c-0.07514,0.94405 -0.23361,0.7128 -0.47913,1.10837c-0.39898,0.64282 -0.95171,-0.61319 -1.33105,-0.86581c-0.02113,-0.01407 -0.79542,-1.80781 -1.37295,-2.59872c-0.76819,-1.05205 -2.65705,-2.64647 -3.44166,-3.73014c-0.87994,-1.21537 -0.61565,-1.89477 -0.6445,-2.54366c-0.07391,-1.66244 0.69399,-2.41021 0.34882,-4.22946c-0.29408,-1.55007 -1.49626,-2.51258 -2.56052,-3.50394c-1.09272,-1.01786 -2.04012,-2.05022 -1.71304,-2.54136c0.36512,-0.54826 0.99223,-1.95028 2.13002,-2.04463c0.67727,-0.05616 3.41081,1.80055 6.26866,1.10655c2.35873,-0.57278 2.80513,-5.5517 3.46027,-5.25272c0.87683,0.40017 4.39322,3.50929 3.11187,4.98832c-0.11613,0.13404 -1.0951,1.09852 -2.409,1.64616c-1.7858,0.74435 -4.01839,1.10507 -3.94755,1.15224c0.36722,0.24456 1.86197,0.64354 3.34077,0.63472z" data-paper-data="{&quot;index&quot;:null}" fill="#10181e"/><path d="M528.06756,329.13753c0.03145,-0.07908 -2.66387,0.63383 -5.24026,0.76499c-1.89558,0.09649 -3.82121,-0.36759 -4.06775,-0.44155c-2.72025,-0.81612 -1.86715,-5.48114 -1.30841,-6.28305c0.41746,-0.59916 5.48266,3.98485 8.50708,3.41632c3.66439,-0.68883 4.84436,-3.77563 5.61285,-4.04321c1.29106,-0.44952 3.24798,0.60317 4.1401,0.95788c0.79918,0.31776 0.74891,1.76216 0.5315,3.26161c-0.21175,1.46041 -0.59603,2.95853 0.52262,4.59134c1.31291,1.91636 2.81527,2.27195 4.27057,3.90842c0.56803,0.63874 1.47444,1.16769 1.66438,2.75634c0.16935,1.41651 -0.35869,3.84947 -0.20115,5.22773c0.11842,1.03616 0.9537,3.13175 0.9443,3.15534c-0.1684,0.42352 0.40527,1.89592 -0.60988,1.46619c-0.6247,-0.26444 -0.57908,0.03358 -1.52943,-0.8401c-0.41867,-0.3849 -1.02965,-1.73815 -1.05698,-3.12473c-0.02058,-1.04374 0.96501,-2.85699 0.10922,-3.57402c-0.09276,-0.07771 -0.6519,1.07466 -1.07321,1.87087c-0.48315,0.9131 -1.29947,1.94676 -1.72146,1.35483c-0.38984,-0.54684 0.25295,-2.63864 0.51084,-4.06337c0.29028,-1.60372 -0.24697,-2.69723 -1.42757,-3.82079c-0.63817,-0.60735 -1.98867,-0.84987 -2.26619,-0.9912c-0.55107,-0.28062 -1.85386,5.47233 -0.99097,8.92311c0.86291,3.45079 5.16384,6.95304 5.05916,7.34559c-0.54638,2.04883 -4.53047,-0.27975 -6.869,-0.58744c-1.591,-0.20934 0.56771,-7.00905 -0.97757,-7.44174c-0.45008,-0.12603 -1.5424,0.82037 -2.39699,1.22227c-1.64103,0.77172 -1.89084,3.18108 -3.35729,4.3796c-1.48144,1.21078 -4.72482,0.34331 -4.56044,-0.1652c0.50323,-1.55667 3.1614,-4.01629 3.83616,-6.03869c0.62614,-1.87666 -1.2759,-2.3682 -0.71917,-3.49333c0.69678,-1.40819 5.26589,1.56822 6.00503,0.9497c1.33631,-1.1182 0.55299,-6.29257 0.12773,-6.35558c-1.78531,-0.26459 -1.61608,0.97783 -3.09199,1.70346c-1.5981,0.7857 -5.30688,1.06883 -5.46797,3.01639c-0.08657,1.04667 -0.3309,1.70123 -0.64433,2.53556c-0.32324,0.8604 -0.71884,1.89246 -1.01654,2.4352c-0.44832,0.81737 -3.23648,1.37353 -3.2878,1.34726c-1.15676,-0.59215 2.64488,-4.95429 1.8345,-5.15744c-1.42843,-0.35808 -5.9013,6.40821 -8.11282,6.45517c-1.24064,0.02635 1.70015,-4.1323 1.10303,-5.40402c-0.97466,-2.07582 -4.99488,-1.80272 -4.61855,-2.76744c0.25341,-0.6496 5.00429,0.75704 8.54556,-0.17311c3.61208,-0.94875 5.52994,-5.2557 5.6529,-5.3023c0.50041,-0.1896 2.77536,0.0642 4.68643,-0.77877c1.57302,-0.69386 2.78675,-1.78809 2.94976,-2.19809z" data-paper-data="{&quot;index&quot;:null}" fill="#10181e"/><path d="M348.3387,331.49857c0,1.30893 -4.75115,9.47904 -9.87845,11.59041c-3.43017,1.41251 -9.86245,-5.87681 -12.97596,-5.87681c-7.76747,0 -15.38278,-4.40802 -15.38278,-6.59262c0,-2.1846 17.72399,1.31852 25.49146,1.31852c7.76747,0 12.74573,-2.62411 12.74573,-0.43951z" fill="#10181e"/><path d="M259.28685,325.15052c0.60812,0.50659 -3.27225,2.26266 -5.67085,4.47857c-1.60467,1.48245 -1.2292,3.46959 -3.28139,4.31897c-5.11974,2.119 -11.84011,-3.00011 -12.85506,-3.84562c-1.01495,-0.84551 5.57972,-0.52706 10.69946,-2.64606c5.11974,-2.119 10.0929,-3.15136 11.10785,-2.30585z" fill="#10181e"/></g></g></svg>