<svg version="1.1" xmlns="http://www.w3.org/2000/svg" xmlns:xlink="http://www.w3.org/1999/xlink" width="581.93192" height="435.88067" viewBox="0,0,581.93192,435.88067"><g transform="translate(8.42508,37.94033)"><g data-paper-data="{&quot;isPaintingLayer&quot;:true}" fill="#344e5f" fill-rule="nonzero" stroke="none" stroke-width="0" stroke-linecap="butt" stroke-linejoin="miter" stroke-miterlimit="10" stroke-dasharray="" stroke-dashoffset="0" style="mix-blend-mode: normal"><path d="M-6.4596,313.54013c0,-20.67043 -9.01595,-48.80397 11.57215,-54.29127c0.97832,-0.26075 32.9837,-3.50078 33.93325,-3.75203c26.74784,-7.07762 43.7997,-8.08673 83.35847,-11.49771c8.07114,-0.69594 17.83575,0.14917 24.75435,2.87097c5.06646,1.99316 7.34991,6.24951 12.61653,5.35205c14.60419,-2.48863 17.6689,-7.55918 27.14038,-13.34983c10.20557,-6.23946 31.3635,-13.24224 35.31714,-16.64569c32.33694,-27.83693 37.67361,-61.25415 53.36722,-66.07929c4.70321,-1.44604 19.58144,-2.84356 34.34421,-2.6567c3.93864,0.04985 6.39191,4.50965 10.11869,4.81421c2.72428,0.22264 6.81689,-3.77603 9.2472,-3.3903c17.16232,2.72397 28.94225,8.93187 38.45081,11.33787c1.11332,0.2817 2.72528,-2.27006 3.76487,-2.01791c2.29297,0.55614 4.28741,3.70325 6.29032,3.70325c1.60942,0 6.07324,-5.50684 8.67973,-6.69422c1.77238,-0.8074 10.43464,-0.73367 12.51632,-1.88646c5.59023,-3.09575 8.37122,-13.28613 14.29469,-17.91118c2.39129,-1.86712 21.63991,-5.51499 24.11435,-7.17848c12.79408,-8.60102 9.1127,-12.53126 14.24256,-14.83903c2.09712,-0.94344 4.12508,-9.12312 9.75272,-21.97005c9.88845,-22.57365 26.17634,-57.67155 39.74584,-79.74805c8.35824,-13.59819 20.08053,-19.15998 24.49443,-19.75991c0.90722,-0.12331 7.59912,-13.60874 16.7725,-25.59529c3.71259,-4.85112 10.27645,-4.52643 14.34094,-8.99051c5.72549,-6.28838 6.98657,11.74373 7.97387,20.19064c12.78885,109.41582 10.40297,345.54545 0.39835,379.56433c-5.84726,19.88257 -61.60068,26.3022 -112.56958,27.58308c-109.46394,2.75089 -263.70408,-0.35654 -289.39996,-0.35654c-41.64104,0 -122.85214,16.70132 -157.0179,0.5688c-18.63121,-8.79735 -5.38738,-44.6049 -5.38738,-58.40377z" data-paper-data="{&quot;index&quot;:null}"/><path d="M334.85529,150.95944c0,-0.44122 -0.72356,-1.90648 -1.92892,-3.13241c-1.4644,-1.48939 -3.67216,-2.09407 -4.06711,-2.45514c-0.09705,-0.08873 -0.28791,-4.79953 -3.29389,-7.0157c-2.94704,-2.17272 -7.88148,-2.62089 -7.87695,-3.31816c0.00673,-1.03551 3.64158,0.7036 5.31424,-0.86523c1.02474,-0.96112 -0.17148,-5.91204 0.97164,-5.42918c2.03769,0.86072 3.69413,8.80083 5.1538,8.99585c0.82808,0.11063 -1.09287,-5.34746 0.20081,-5.47031c0.0574,-0.00545 2.44278,1.54149 2.55739,2.46667c0.0761,0.61433 0.06241,1.71954 0.04488,2.63849c-0.017,0.8911 -0.03181,1.58961 -0.33807,2.5942c-0.56987,1.86929 2.77189,3.50266 3.96662,4.82321c1.10339,1.21959 0.48708,2.31157 2.24383,2.72532c0.41846,0.09856 3.05812,-4.42027 2.2295,-5.95308c-0.45832,-0.84782 -5.8038,0.22983 -5.93101,-1.33616c-0.10164,-1.2512 1.84741,-1.00522 1.95895,-2.98043c0.1202,-2.1286 -1.44114,-5.3963 -1.33362,-7.02876c0.03512,-0.53328 3.36952,-0.14103 4.29879,1.53142c0.91987,1.65553 0.26183,3.98671 1.50162,5.31013c0.64564,0.68921 1.31099,1.97222 1.7758,2.0214c1.59581,0.16885 2.10211,-6.94731 3.65789,-6.55401c2.28675,0.5781 6.84927,-0.11373 6.60001,1.992c-0.04776,0.40345 -5.33834,2.06883 -7.41515,4.95664c-2.07682,2.88781 -2.99173,8.71503 -2.37597,8.65787c0.31011,-0.02879 1.65466,0.24479 2.47207,-0.08379c1.51219,-0.60786 2.41544,-1.42549 2.73822,-3.02299c0.28676,-1.4192 0.46231,-3.60049 1.02661,-3.9646c0.61084,-0.39414 0.98748,0.86799 1.09909,1.89498c0.09732,0.89554 0.19114,2.17298 0.30605,2.13503c1.06015,-0.3501 0.81424,-2.39919 1.21899,-3.36148c0.53769,-1.27837 1.60542,-2.31014 2.13668,-2.51312c1.20591,-0.46074 1.0534,-0.20066 1.73161,-0.21558c1.1021,-0.02425 0.02501,1.13201 0.02501,1.58778c0,0.02539 -1.5504,1.66411 -2.04328,2.58319c-0.65561,1.22253 -1.06383,3.67845 -1.74456,4.93216c-0.76345,1.40607 -1.80114,1.56268 -2.56499,1.94637c-1.95695,0.98299 -3.4844,0.75835 -5.41244,2.05403c-1.64277,1.10397 -1.83919,2.63806 -2.182,4.07338c-0.35198,1.47369 -0.83893,2.83446 -1.69896,2.83446c-0.96005,0 -3.16743,0.25518 -4.20106,-0.63953c-0.61526,-0.53258 -0.57126,-3.83692 -3.72187,-5.8309c-2.60037,-1.64573 -9.00081,0.74251 -9.16736,0.0315c-0.22292,-0.95161 0.70791,-5.60174 3.53723,-5.35507c0.25642,0.02236 2.21726,0.30257 3.94306,1.0926c2.34563,1.07377 4.58684,2.73206 4.58684,2.64696z" data-paper-data="{&quot;index&quot;:null}"/><path d="M399.82381,157.90952c-1.3025,0.70029 -2.42375,1.76625 -2.62905,2.15678c-0.0396,0.07533 2.09316,-0.67694 4.01735,-0.87849c1.41572,-0.1483 2.73697,0.22971 2.9031,0.29179c1.83308,0.68498 0.23458,5.09819 -0.34361,5.86933c-0.43201,0.57616 -3.2078,-3.58123 -5.55284,-2.95474c-2.84126,0.75905 -4.35213,3.69791 -4.97361,3.97288c-1.04407,0.46194 -2.26591,-0.46868 -2.84896,-0.77519c-0.52231,-0.27458 -0.18485,-1.63452 0.28713,-3.05132c0.45969,-1.37991 1.05426,-2.80052 0.57028,-4.30217c-0.56802,-1.76243 -1.60021,-2.05125 -2.33129,-3.54614c-0.28536,-0.58349 -0.84268,-1.05341 -0.65207,-2.54173c0.16997,-1.32705 1.06485,-3.63121 1.23555,-4.92264c0.12834,-0.97088 -0.05072,-2.91638 -0.03891,-2.93885c0.21208,-0.40341 0.09597,-1.77074 0.75402,-1.39742c0.40494,0.22973 0.43334,-0.04917 0.95132,0.74366c0.22819,0.34928 0.39654,1.60344 0.12824,2.90664c-0.20197,0.98099 -1.3048,2.71621 -0.82386,3.36457c0.05213,0.07028 0.70352,-1.03047 1.17934,-1.79208c0.54567,-0.8734 1.36171,-1.87032 1.54928,-1.32643c0.17328,0.50246 -0.73511,2.48924 -1.22134,3.83699c-0.54733,1.51706 -0.37923,2.52917 0.2563,3.55001c0.34353,0.55182 1.2874,0.73893 1.46234,0.86342c0.34736,0.24719 2.50325,-5.20283 2.58573,-8.42201c0.08247,-3.21918 -2.35565,-6.3824 -2.19692,-6.75476c0.82846,-1.94345 3.27744,0.12559 4.93522,0.34399c1.12786,0.14859 -1.87597,6.60904 -0.82823,6.96908c0.30518,0.10486 1.30626,-0.81835 2.01908,-1.22226c1.36877,-0.77559 2.05388,-3.04911 3.38289,-4.2208c1.3426,-1.18366 3.55016,-0.46629 3.32334,0.01695c-0.69432,1.47929 -3.16308,3.87318 -4.08057,5.79566c-0.85137,1.78395 0.44678,2.18849 -0.19715,3.26353c-0.80594,1.3455 -3.55089,-1.31502 -4.22375,-0.7109c-1.21649,1.0922 -1.71609,5.93476 -1.41609,5.98113c1.25943,0.19465 1.39326,-0.96867 2.63087,-1.6959c1.34006,-0.78743 4.12962,-1.16628 4.65334,-3.0028c0.28146,-0.98699 0.59751,-1.61 1.00183,-2.40417c0.41696,-0.819 0.92292,-1.80164 1.255,-2.32111c0.50011,-0.78232 2.66862,-1.39 2.70095,-1.36685c0.7285,0.52177 -2.9779,4.73965 -2.42351,4.90611c0.97723,0.29341 5.67793,-6.20586 7.31597,-6.31715c0.91892,-0.06243 -2.11134,3.93791 -1.93623,5.11581c0.28583,1.92266 3.30258,1.54381 2.82482,2.46252c-0.32171,0.61863 -3.52703,-0.56009 -6.32783,0.42218c-2.85681,1.0019 -5.16476,5.11069 -5.26499,5.15824c-0.40787,0.19351 -2.03006,0.02385 -3.61246,0.87464z" data-paper-data="{&quot;index&quot;:null}"/><path d="M383.96479,152.23753c0.31933,1.44392 1.03983,2.81298 1.35974,3.11683c0.06171,0.05861 -0.08164,-2.19839 0.24817,-4.10479c0.24266,-1.40263 0.96602,-2.5711 1.07098,-2.71406c1.15807,-1.57741 4.96954,1.16195 5.55419,1.92822c0.43682,0.57251 -4.31914,2.1119 -4.35462,4.53892c-0.04298,2.9406 2.37367,5.19435 2.4691,5.86721c0.16031,1.13038 -1.06775,2.05278 -1.52139,2.53039c-0.40638,0.42785 -1.62312,-0.26704 -2.85796,-1.10684c-1.20268,-0.81793 -2.40782,-1.77672 -3.9845,-1.71976c-1.8505,0.06686 -2.40937,0.98145 -4.04681,1.27803c-0.63913,0.11577 -1.24302,0.52415 -2.62326,-0.06438c-1.23068,-0.52476 -3.20426,-2.01303 -4.40047,-2.5288c-0.89929,-0.38776 -2.82007,-0.74501 -2.83848,-0.76249c-0.33046,-0.31388 -1.67777,-0.57433 -1.13942,-1.10592c0.33129,-0.32713 0.07064,-0.43038 0.97453,-0.71299c0.3982,-0.1245 1.65082,0.05487 2.83179,0.66777c0.88897,0.46135 2.25851,1.99486 3.01329,1.70856c0.08182,-0.03103 -0.80007,-0.95745 -1.40341,-1.62261c-0.69189,-0.7628 -1.42905,-1.81938 -0.85464,-1.85182c0.53065,-0.02997 2.19517,1.38491 3.35968,2.21963c1.3108,0.93959 2.33045,1.05332 3.48573,0.71966c0.62448,-0.18036 1.06144,-1.03766 1.22885,-1.17211c0.3324,-0.26697 -4.32501,-3.82492 -7.4002,-4.78052c-3.07519,-0.9556 -6.78261,0.52946 -7.0977,0.27537c-1.64457,-1.32617 1.01293,-3.11951 1.67432,-4.65525c0.44997,-1.04483 5.84889,3.60407 6.48051,2.69389c0.18397,-0.26511 -0.4319,-1.47969 -0.62654,-2.27553c-0.37374,-1.5282 -2.37493,-2.80627 -3.14063,-4.40403c-0.77352,-1.61408 0.51764,-4.79302 0.9209,-4.44324c1.23445,1.07075 2.86596,5.3479 4.46613,6.75404c1.48486,1.30481 2.22748,0.16578 3.08665,1.07802c1.07533,1.14174 -2.23189,3.05888 -1.83373,3.87077c0.71985,1.46784 5.24358,3.2667 5.36985,2.99064c0.53011,-1.15889 -0.55287,-1.60432 -0.91577,-2.99315c-0.39295,-1.5038 0.0018,-4.29114 -1.62283,-5.29498c-0.87311,-0.53949 -1.38657,-1.01318 -2.0407,-1.6184c-0.67458,-0.62414 -1.48239,-1.37846 -1.89186,-1.8394c-0.61666,-0.69417 -0.61114,-2.94621 -0.58006,-2.97101c0.70038,-0.55897 3.75014,4.15556 4.06121,3.66741c0.54832,-0.86047 -4.42605,-7.15274 -4.08728,-8.75922c0.19005,-0.90121 3.21454,3.10349 4.39562,3.25561c1.92787,0.2483 2.38445,-2.75767 3.13844,-2.04788c0.5077,0.47794 -1.49897,3.2414 -1.31615,6.20382c0.18647,3.02166 3.51191,6.36085 3.53039,6.47024c0.07518,0.44514 -0.52962,1.95991 -0.14167,3.71414z" data-paper-data="{&quot;index&quot;:null}"/><path d="M355.8421,156.61106c1.42729,-0.38694 2.76091,-1.1711 3.04937,-1.50495c0.05564,-0.0644 -2.19211,0.18503 -4.11192,-0.05467c-1.41251,-0.17636 -2.61373,-0.84392 -2.76147,-0.94203c-1.63018,-1.08253 0.92674,-5.01873 1.66463,-5.6388c0.55132,-0.46329 2.31288,4.21494 4.73888,4.13613c2.93936,-0.0955 5.07686,-2.61557 5.74448,-2.74256c1.12159,-0.21335 2.10078,0.96993 2.59921,1.40059c0.44651,0.38579 -0.19033,1.63389 -0.97107,2.90689c-0.76041,1.23985 -1.66141,2.48878 -1.53029,4.06104c0.15389,1.8453 1.09377,2.3605 1.46711,3.98216c0.14572,0.63297 0.58207,1.21697 0.05917,2.62338c-0.46625,1.25402 -1.85996,3.29547 -2.31885,4.51463c-0.345,0.91654 -0.61143,2.85201 -0.62803,2.87122c-0.29798,0.34487 -0.49472,1.70294 -1.05106,1.19022c-0.34235,-0.31553 -0.43322,-0.05031 -0.75807,-0.93989c-0.14311,-0.3919 -0.02289,-1.65158 0.53373,-2.86009c0.41899,-0.9097 1.88634,-2.3499 1.56482,-3.09037c-0.03485,-0.08026 -0.91873,0.84426 -1.55475,1.47824c-0.72938,0.72703 -1.75009,1.51312 -1.80954,0.94087c-0.05492,-0.52865 1.28003,-2.25793 2.05901,-3.46044c0.87685,-1.35358 0.94246,-2.37745 0.55478,-3.51574c-0.20955,-0.61531 -1.08648,-1.01143 -1.22866,-1.17232c-0.28232,-0.31947 -3.61708,4.50027 -4.42686,7.61703c-0.80978,3.11676 0.84816,6.75016 0.60918,7.07687c-1.24729,1.70517 -3.16374,-0.86497 -4.72891,-1.45333c-1.06485,-0.40028 3.32474,-6.01205 2.38584,-6.60013c-0.27347,-0.17128 -1.45771,0.50108 -2.24351,0.73296c-1.50891,0.44526 -2.69136,2.50439 -4.2513,3.34446c-1.57589,0.84865 -3.56347,-0.35029 -3.23306,-0.76956c1.01146,-1.28349 3.95845,-3.0557 5.2877,-4.72028c1.23346,-1.54463 0.06074,-2.2328 0.93152,-3.13397c1.08985,-1.12789 3.16055,2.08542 3.9528,1.64948c1.43234,-0.78815 3.01624,-5.39154 2.73455,-5.50468c-1.18256,-0.47497 -1.57651,0.62777 -2.94672,1.05565c-1.48363,0.4633 -4.28647,0.2002 -5.21272,1.87028c-0.49778,0.89754 -0.94678,1.43273 -1.52054,2.11462c-0.59169,0.70322 -1.30716,1.54565 -1.74831,1.97636c-0.66438,0.64865 -2.91418,0.74914 -2.94042,0.71927c-0.59133,-0.67328 3.97441,-3.94159 3.47216,-4.22934c-0.88532,-0.50721 -6.93645,4.75786 -8.5571,4.49508c-0.90916,-0.14742 2.94873,-3.35707 3.04508,-4.54401c0.15728,-1.93741 -2.86686,-2.25199 -2.19335,-3.03855c0.45351,-0.52964 3.30837,1.34472 6.2589,1.02265c3.00953,-0.32851 6.18848,-3.80745 6.29688,-3.83106c0.44111,-0.09606 1.98266,0.43676 3.71669,-0.03333z" data-paper-data="{&quot;index&quot;:null}"/><path d="M210.73291,226.45848c-1.3025,0.70029 -2.42375,1.76625 -2.62905,2.15678c-0.0396,0.07533 2.09317,-0.67695 4.01736,-0.8785c1.41572,-0.1483 2.73697,0.22971 2.9031,0.29179c1.83307,0.68498 0.23458,5.09819 -0.34361,5.86933c-0.43201,0.57617 -3.2078,-3.58123 -5.55284,-2.95474c-2.84127,0.75906 -4.35213,3.69792 -4.97361,3.97289c-1.04408,0.46194 -2.26592,-0.46868 -2.84897,-0.77519c-0.52231,-0.27458 -0.18485,-1.63452 0.28713,-3.05132c0.45968,-1.37991 1.05425,-2.80052 0.57027,-4.30217c-0.56801,-1.76243 -1.60019,-2.05126 -2.33128,-3.54614c-0.28536,-0.5835 -0.84268,-1.05342 -0.65207,-2.54174c0.16997,-1.32705 1.06485,-3.63121 1.23555,-4.92264c0.12833,-0.97089 -0.05073,-2.91638 -0.03891,-2.93885c0.21208,-0.40341 0.09597,-1.77075 0.75402,-1.39742c0.40494,0.22974 0.43335,-0.04917 0.95132,0.74366c0.2282,0.34928 0.39654,1.60343 0.12824,2.90664c-0.20197,0.98099 -1.3048,2.71621 -0.82386,3.36457c0.05213,0.07029 0.70353,-1.03048 1.17935,-1.79208c0.54566,-0.8734 1.3617,-1.87032 1.54927,-1.32643c0.17328,0.50246 -0.7351,2.48924 -1.22134,3.83699c-0.54733,1.51706 -0.37922,2.52917 0.2563,3.55001c0.34353,0.55182 1.28741,0.73893 1.46235,0.86342c0.34736,0.24719 2.50326,-5.20283 2.58573,-8.42201c0.08248,-3.21918 -2.35564,-6.3824 -2.19691,-6.75476c0.82846,-1.94346 3.27744,0.12558 4.93522,0.34398c1.12786,0.14858 -1.87596,6.60904 -0.82823,6.96907c0.30517,0.10487 1.30626,-0.81835 2.01907,-1.22226c1.36877,-0.77559 2.05387,-3.0491 3.38289,-4.22079c1.34259,-1.18366 3.55015,-0.46629 3.32333,0.01695c-0.69432,1.47929 -3.16309,3.87318 -4.08058,5.79566c-0.85137,1.78396 0.44678,2.1885 -0.19715,3.26354c-0.80594,1.34551 -3.5509,-1.31501 -4.22376,-0.7109c-1.21648,1.0922 -1.71609,5.93477 -1.41609,5.98113c1.25943,0.19466 1.39326,-0.96867 2.63087,-1.6959c1.34006,-0.78744 4.12961,-1.16628 4.65334,-3.00281c0.28146,-0.98699 0.59751,-1.60999 1.00183,-2.40416c0.41696,-0.819 0.92293,-1.80164 1.255,-2.32111c0.50011,-0.78232 2.66863,-1.39 2.70095,-1.36685c0.72851,0.52178 -2.97789,4.73966 -2.4235,4.90611c0.97723,0.29341 5.67793,-6.20586 7.31597,-6.31715c0.91892,-0.06243 -2.11134,3.93791 -1.93623,5.11581c0.28582,1.92266 3.30258,1.54381 2.82482,2.46252c-0.32171,0.61863 -3.52702,-0.56009 -6.32783,0.42217c-2.85681,1.00191 -5.16476,5.1107 -5.26499,5.15825c-0.40787,0.1935 -2.03006,0.02386 -3.61246,0.87464z" data-paper-data="{&quot;index&quot;:null}"/><path d="M169.6816,248.09418c0.31933,1.44393 1.03983,2.81299 1.35974,3.11684c0.06171,0.05861 -0.08164,-2.19839 0.24817,-4.10479c0.24265,-1.40264 0.96602,-2.5711 1.07098,-2.71406c1.15806,-1.57741 4.96953,1.16196 5.55418,1.92822c0.43683,0.57252 -4.31914,2.1119 -4.35462,4.53892c-0.04297,2.94059 2.37369,5.19435 2.46911,5.86721c0.16031,1.13038 -1.06775,2.05278 -1.52139,2.53039c-0.40639,0.42785 -1.62313,-0.26703 -2.85796,-1.10683c-1.20268,-0.81794 -2.40783,-1.77673 -3.98451,-1.71977c-1.85049,0.06685 -2.40936,0.98144 -4.0468,1.27803c-0.63913,0.11576 -1.24302,0.52414 -2.62326,-0.06439c-1.23068,-0.52476 -3.20427,-2.01303 -4.40047,-2.5288c-0.89929,-0.38776 -2.82006,-0.74501 -2.83847,-0.76249c-0.33046,-0.31388 -1.67777,-0.57434 -1.13942,-1.10592c0.33129,-0.32713 0.07064,-0.43038 0.97453,-0.71299c0.3982,-0.12451 1.65082,0.05487 2.83179,0.66777c0.88897,0.46136 2.2585,1.99487 3.01328,1.70857c0.08181,-0.03103 -0.80007,-0.95745 -1.40341,-1.62261c-0.6919,-0.7628 -1.42906,-1.81937 -0.85465,-1.85182c0.53065,-0.02997 2.19517,1.38491 3.35968,2.21963c1.3108,0.93959 2.33045,1.05332 3.48573,0.71966c0.62448,-0.18036 1.06144,-1.03766 1.22885,-1.17211c0.3324,-0.26697 -4.32502,-3.82492 -7.4002,-4.78052c-3.07519,-0.9556 -6.78261,0.52946 -7.0977,0.27537c-1.64457,-1.32618 1.01293,-3.11951 1.67432,-4.65525c0.44997,-1.04483 5.84888,3.60406 6.4805,2.69389c0.18397,-0.26511 -0.43189,-1.47969 -0.62653,-2.27553c-0.37374,-1.5282 -2.37492,-2.80627 -3.14063,-4.40403c-0.77353,-1.61408 0.51764,-3.54302 0.92089,-3.19324c1.23445,1.07075 2.86596,4.0979 4.46613,5.50404c1.48486,1.30481 2.22748,0.16578 3.08665,1.07802c1.07533,1.14174 -2.23189,3.05888 -1.83373,3.87077c0.71984,1.46785 5.24358,3.2667 5.36985,2.99064c0.53011,-1.1589 -0.55287,-1.60432 -0.91577,-2.99315c-0.39295,-1.5038 0.00181,-4.29114 -1.62282,-5.29498c-0.87312,-0.53949 -1.38657,-1.01318 -2.0407,-1.6184c-0.67459,-0.62414 -1.4824,-1.37846 -1.89187,-1.8394c-0.61666,-0.69417 -0.61113,-2.94621 -0.58006,-2.97102c0.70037,-0.55897 3.75013,4.15556 4.0612,3.66741c0.54832,-0.86046 -4.42605,-7.15273 -4.08728,-8.75921c0.19004,-0.90122 3.21453,3.1035 4.39562,3.25561c1.92786,0.24829 2.38445,-2.75768 3.13843,-2.04789c0.5077,0.47794 -1.49897,3.2414 -1.31615,6.20382c0.18647,3.02166 3.51191,6.36085 3.53039,6.47024c0.07519,0.44515 -0.52961,1.95991 -0.14166,3.71414z" data-paper-data="{&quot;index&quot;:null}"/><path d="M253.01191,190.33638c-0.05661,-0.35159 -0.8212,-1.42637 -1.93901,-2.24862c-1.35803,-0.99896 -3.19491,-1.19753 -3.55596,-1.43459c-0.08872,-0.05825 -0.84524,-3.78765 -3.52496,-5.16796c-2.62718,-1.35325 -6.61679,-1.07726 -6.70265,-1.63347c-0.1275,-0.82603 2.99214,0.09343 4.12374,-1.37133c0.69326,-0.89737 -0.89521,-4.68912 0.07766,-4.45102c1.7342,0.42443 4.07295,6.53913 5.26113,6.50724c0.67407,-0.01809 -1.55699,-4.12099 -0.54186,-4.38488c0.04504,-0.01171 2.14437,0.91494 2.3544,1.63748c0.13946,0.47978 0.27036,1.36224 0.3743,2.09677c0.10078,0.71226 0.17862,1.27079 0.06346,2.11061c-0.21427,1.56269 2.65824,2.4355 3.77972,3.33451c1.03573,0.83027 0.68473,1.77952 2.13772,1.88382c0.3461,0.02484 1.86976,-3.91476 1.01279,-5.02989c-0.47401,-0.61679 -4.59539,0.92781 -4.89768,-0.30375c-0.24153,-0.984 1.34318,-1.03806 1.17862,-2.62636c-0.17733,-1.71164 -1.84078,-4.11524 -1.96456,-5.42989c-0.04043,-0.42946 2.66696,-0.54471 3.62206,0.66878c0.94544,1.20121 0.72017,3.14328 1.87792,4.0388c0.60292,0.46636 1.29774,1.40339 1.67444,1.38294c1.29331,-0.0702 0.78372,-5.8058 2.07393,-5.69201c1.89642,0.16726 5.44338,-0.96944 5.51493,0.74053c0.01371,0.32763 -3.9885,2.33354 -5.27292,4.90121c-1.28442,2.56767 -1.26581,7.32859 -0.78247,7.20404c0.24342,-0.06274 1.34995,-0.01723 1.95916,-0.38395c1.12702,-0.67841 1.74188,-1.44585 1.79412,-2.76026c0.04641,-1.16771 -0.09358,-2.92843 0.30938,-3.29098c0.43619,-0.39246 0.89826,0.56497 1.11897,1.36903c0.19246,0.70114 0.43112,1.70705 0.51782,1.66206c0.79987,-0.41501 0.34101,-2.01631 0.54007,-2.83506c0.26444,-1.08769 0.9829,-2.04687 1.3802,-2.27678c0.90184,-0.52188 0.81368,-0.29506 1.35221,-0.39397c0.87512,-0.16073 0.16518,0.89887 0.22366,1.26205c0.00326,0.02023 -1.02195,1.52499 -1.29679,2.32062c-0.36558,1.05831 -0.37577,3.06773 -0.75736,4.15412c-0.42797,1.21841 -1.23478,1.47636 -1.79423,1.88011c-1.43331,1.03441 -2.67931,1.05138 -4.04946,2.33125c-1.16741,1.09049 -1.1271,2.33817 -1.21611,3.52591c-0.09139,1.2195 -0.30484,2.36633 -0.99017,2.47668c-0.76503,0.12318 -2.49128,0.60975 -3.42974,0.0294c-0.55862,-0.34545 -0.94752,-2.98422 -3.71399,-4.16891c-2.28331,-0.97778 -7.07719,1.74655 -7.30114,1.20134c-0.29974,-0.72971 -0.15462,-4.55468 2.13162,-4.72114c0.2072,-0.01508 1.80569,-0.04338 3.28229,0.36474c2.00693,0.55469 4.00565,1.58857 3.99473,1.52075z" data-paper-data="{&quot;index&quot;:null}"/><path d="M269.96878,161.76161c-0.05661,-0.35159 -0.8212,-1.42637 -1.93901,-2.24862c-1.35803,-0.99896 -3.19491,-1.19753 -3.55596,-1.43459c-0.08872,-0.05825 -0.84524,-3.78765 -3.52496,-5.16796c-2.62718,-1.35325 -6.61679,-1.07726 -6.70265,-1.63347c-0.1275,-0.82603 2.99214,0.09343 4.12374,-1.37133c0.69326,-0.89737 -0.89521,-4.68912 0.07766,-4.45102c1.7342,0.42443 4.07295,6.53913 5.26113,6.50724c0.67407,-0.01809 -1.55699,-4.12099 -0.54186,-4.38488c0.04504,-0.01171 2.14437,0.91494 2.3544,1.63748c0.13946,0.47978 0.27036,1.36224 0.3743,2.09677c0.10078,0.71226 0.17862,1.27079 0.06346,2.11061c-0.21427,1.56269 2.65824,2.4355 3.77972,3.33451c1.03573,0.83027 0.68473,1.77952 2.13772,1.88382c0.3461,0.02484 1.86976,-3.91476 1.01279,-5.02989c-0.47401,-0.61679 -4.59539,0.92781 -4.89768,-0.30375c-0.24153,-0.984 1.34318,-1.03806 1.17862,-2.62636c-0.17733,-1.71164 -1.84078,-4.11524 -1.96456,-5.42989c-0.04043,-0.42946 2.66696,-0.54471 3.62206,0.66878c0.94544,1.20121 0.72017,3.14328 1.87792,4.0388c0.60292,0.46636 1.29774,1.40339 1.67444,1.38294c1.29331,-0.0702 0.78372,-5.8058 2.07393,-5.69201c1.89642,0.16726 5.44338,-0.96944 5.51493,0.74053c0.01371,0.32763 -3.9885,2.33354 -5.27292,4.90121c-1.28442,2.56767 -1.26581,7.32859 -0.78247,7.20404c0.24342,-0.06274 1.34995,-0.01723 1.95916,-0.38395c1.12702,-0.67841 1.74188,-1.44585 1.79412,-2.76026c0.04641,-1.16771 -0.09358,-2.92843 0.30938,-3.29098c0.43619,-0.39246 0.89826,0.56497 1.11897,1.36903c0.19246,0.70114 0.43112,1.70705 0.51782,1.66206c0.79987,-0.41501 0.34101,-2.01631 0.54007,-2.83506c0.26444,-1.08769 0.9829,-2.04687 1.3802,-2.27678c0.90184,-0.52188 0.81368,-0.29506 1.35221,-0.39397c0.87512,-0.16073 0.16518,0.89887 0.22366,1.26205c0.00326,0.02023 -1.02195,1.52499 -1.29679,2.32062c-0.36558,1.05831 -0.37577,3.06773 -0.75736,4.15412c-0.42797,1.21841 -1.23478,1.47636 -1.79423,1.88011c-1.43331,1.03441 -2.67931,1.05138 -4.04946,2.33125c-1.16741,1.09049 -1.1271,2.33817 -1.21611,3.52591c-0.09139,1.2195 -0.30484,2.36633 -0.99017,2.47668c-0.76503,0.12318 -2.49128,0.60975 -3.42974,0.0294c-0.55862,-0.34545 -0.94752,-2.98422 -3.71399,-4.16891c-2.28331,-0.97778 -7.07719,1.74655 -7.30114,1.20134c-0.29974,-0.72971 -0.15462,-4.55468 2.13162,-4.72114c0.2072,-0.01508 1.80569,-0.04338 3.28229,0.36474c2.00693,0.55469 4.00565,1.58857 3.99473,1.52075z" data-paper-data="{&quot;index&quot;:null}"/><path d="M228.09806,206.82035c0,-1.10353 2.91991,-9.3747 6.97373,-9.89001c1.99358,-0.25341 4.11559,6.90925 6.58397,6.90925c7.4877,0 13.55769,1.33454 13.55769,2.98077c0,1.64623 -6.06998,2.98077 -13.55769,2.98077c-3.49981,0 -8.99759,5.09306 -11.40288,4.61439c-2.74073,-0.54542 -2.15481,-6.71839 -2.15481,-7.59516z" data-paper-data="{&quot;index&quot;:null}"/><path d="M460.48987,86.58165c0.34726,0.27217 1.94686,0.60655 3.6553,0.41408c2.0756,-0.23383 3.91341,-1.5985 4.44123,-1.68661c0.1297,-0.02165 3.95516,2.73405 7.55372,1.73522c3.52801,-0.97925 6.92463,-4.58654 7.47064,-4.15285c0.81087,0.64406 -2.80014,2.43215 -2.59717,4.7164c0.12435,1.39942 4.75897,3.51196 3.67378,4.11382c-1.93442,1.07285 -9.20564,-2.52139 -10.25955,-1.49283c-0.59789,0.58351 4.88297,2.43849 4.18164,3.53249c-0.03112,0.04854 -2.72013,0.97176 -3.51901,0.49125c-0.53046,-0.31906 -1.3919,-1.0116 -2.10436,-1.59226c-0.69086,-0.56306 -1.23151,-1.0056 -1.83327,-1.86635c-1.11972,-1.60163 -4.46671,0.021 -6.24306,0.14673c-1.64054,0.11612 -2.11982,-1.04256 -3.52915,0.0849c-0.3357,0.26856 1.59262,5.13366 3.31019,5.42702c0.95002,0.16226 3.39927,-4.70977 4.71028,-3.84389c1.04748,0.69182 -0.34843,2.07412 1.1374,3.38035c1.60121,1.40766 5.13626,2.19451 6.35479,3.28614c0.39805,0.3566 -1.96754,2.73904 -3.85711,2.43877c-1.87046,-0.29723 -3.29933,-2.25317 -5.10574,-2.09375c-0.94073,0.08302 -2.36098,-0.18475 -2.68641,0.15075c-1.1173,1.15186 4.17129,5.94006 2.90203,6.92195c-1.86561,1.44322 -4.13555,5.46101 -5.63915,3.96587c-0.28809,-0.28646 1.66471,-5.47783 0.67292,-8.89381c-0.99179,-3.41599 -5.01384,-7.7307 -5.34869,-7.21079c-0.16863,0.26184 -1.21336,1.15132 -1.45898,1.99737c-0.45438,1.56516 -0.36803,2.78046 0.6902,4.01995c0.94011,1.10115 2.54865,2.58488 2.48713,3.25363c-0.06659,0.7239 -1.29231,0.24178 -2.16947,-0.30389c-0.76488,-0.47583 -1.82818,-1.19 -1.8692,-1.07614c-0.37841,1.05037 1.38605,2.12085 1.89377,3.03301c0.67449,1.21178 0.82792,2.68862 0.65996,3.23197c-0.38125,1.23335 -0.49188,0.95288 -0.8985,1.49588c-0.66076,0.88239 -0.9064,-0.67861 -1.26512,-0.95976c-0.01999,-0.01566 -0.35338,-2.2468 -0.77272,-3.20168c-0.55779,-1.27014 -2.23895,-3.10641 -2.80579,-4.41556c-0.63573,-1.46825 -0.11888,-2.38159 0.05032,-3.21947c0.43349,-2.14663 1.55253,-3.21027 1.72208,-5.52703c0.14446,-1.97397 -0.94181,-3.0749 -1.86004,-4.23011c-0.94278,-1.1861 -1.71341,-2.40878 -1.18289,-3.08568c0.59222,-0.75563 1.75303,-2.6504 3.09484,-2.91202c0.79871,-0.15573 3.37231,1.91724 6.88521,0.6675c2.89937,-1.03148 4.96787,-7.54228 5.63022,-7.23478c0.8865,0.41157 3.97227,4.01269 2.03282,6.0874c-0.17577,0.18803 -1.6059,1.5585 -3.29229,2.42948c-2.29207,1.1838 -4.97978,1.92484 -4.9128,1.97734z" data-paper-data="{&quot;index&quot;:null}"/><path d="M494.29787,67.64116c-0.25228,1.45714 -0.10496,2.99718 0.07577,3.39968c0.03486,0.07764 0.7584,-2.06505 1.78673,-3.70385c0.75659,-1.20575 1.86914,-2.01248 2.02048,-2.10494c1.66988,-1.02021 4.15732,2.96026 4.4076,3.89103c0.187,0.69543 -4.79744,0.31562 -5.75093,2.54779c-1.15525,2.70451 0.22584,5.70654 0.05889,6.36531c-0.28046,1.10672 -1.76664,1.49433 -2.36755,1.76415c-0.53831,0.24172 -1.40051,-0.86279 -2.22448,-2.10824c-0.80251,-1.21302 -1.55387,-2.55731 -3.03432,-3.1027c-1.73755,-0.64011 -2.60159,-0.00588 -4.22915,-0.35261c-0.63527,-0.13534 -1.34893,0.01344 -2.40276,-1.05468c-0.93964,-0.95238 -2.20116,-3.07807 -3.1123,-4.00906c-0.68499,-0.69991 -2.32668,-1.75908 -2.33708,-1.78224c-0.18669,-0.41578 -1.3345,-1.16785 -0.63474,-1.45549c0.43061,-0.177 0.22862,-0.37141 1.17215,-0.29002c0.41567,0.03585 1.50663,0.67699 2.36683,1.69207c0.64752,0.7641 1.33296,2.70251 2.13994,2.72392c0.08747,0.00232 -0.37708,-1.18939 -0.683,-2.0337c-0.35083,-0.96824 -0.63208,-2.22549 -0.0883,-2.03761c0.50236,0.17356 1.50575,2.1141 2.26658,3.32818c0.85641,1.36661 1.75671,1.85864 2.95221,1.98815c0.64623,0.07001 1.37574,-0.55746 1.58164,-0.61836c0.40883,-0.12092 -2.55082,-5.17968 -5.03366,-7.23039c-2.48284,-2.05071 -6.4765,-2.08302 -6.67166,-2.43765c-1.01858,-1.85091 2.12058,-2.50211 3.3151,-3.67217c0.81268,-0.79604 4.04456,5.5534 4.97424,4.95085c0.27078,-0.1755 0.16168,-1.53293 0.28349,-2.34312c0.2339,-1.55574 -1.1329,-3.49742 -1.23528,-5.26622c-0.10343,-1.78688 1.82296,-3.08185 2.06339,-2.60524c0.73599,1.45899 1.09726,4.87879 2.04442,6.78683c0.87891,1.77055 1.9981,0.99835 2.44701,2.16833c0.56185,1.46433 -3.22543,1.98362 -3.16501,2.88586c0.10923,1.6312 3.61248,5.01163 3.83403,4.80411c0.93011,-0.87119 0.09704,-1.69413 0.2881,-3.11682c0.20686,-1.54047 1.62947,-3.96973 0.50706,-5.51483c-0.60321,-0.83036 -0.89859,-1.46343 -1.27425,-2.27155c-0.3874,-0.83339 -0.8487,-1.83777 -1.05271,-2.41958c-0.30725,-0.87621 0.55215,-2.95784 0.59031,-2.969c0.86006,-0.25152 1.89347,5.26753 2.36647,4.93387c0.83375,-0.58815 -1.38193,-8.2971 -0.45908,-9.655c0.51772,-0.76176 1.79701,4.09093 2.83211,4.67971c1.68959,0.96105 3.25233,-1.64704 3.68071,-0.70429c0.28846,0.63482 -2.61652,2.43052 -3.57113,5.24087c-0.9737,2.86655 0.83651,7.21763 0.81211,7.32585c-0.0993,0.4404 -1.2335,1.61252 -1.54,3.3828z" data-paper-data="{&quot;index&quot;:null}"/><path d="M480.05069,76.62448c1.33345,0.63938 2.85545,0.91681 3.29194,0.85246c0.08419,-0.01242 -1.78065,-1.29186 -3.07767,-2.72743c-0.95428,-1.05622 -1.42772,-2.34635 -1.4755,-2.51714c-0.52716,-1.88453 3.98008,-3.1946 4.94383,-3.18208c0.72007,0.00936 -1.00212,4.70222 0.88623,6.22729c2.28794,1.84778 5.55255,1.33596 6.141,1.67592c0.98858,0.57112 0.95703,2.10668 1.0531,2.75835c0.08606,0.58377 -1.21142,1.11278 -2.63413,1.56664c-1.38566,0.44204 -2.8837,0.79912 -3.81147,2.07522c-1.08888,1.49771 -0.71378,2.50176 -1.49043,3.97349c-0.30314,0.57445 -0.35423,1.30167 -1.66887,2.02497c-1.17218,0.64493 -3.56098,1.28022 -4.70483,1.90355c-0.85993,0.46861 -2.32597,1.76002 -2.35109,1.76372c-0.45089,0.06647 -1.48699,0.96623 -1.5733,0.2146c-0.05311,-0.46254 -0.29516,-0.32108 0.03998,-1.20684c0.14765,-0.39022 1.06153,-1.26547 2.27242,-1.8169c0.91149,-0.41509 2.96329,-0.54703 3.20355,-1.31771c0.02605,-0.08354 -1.24712,0.0391 -2.14282,0.10365c-1.02717,0.07402 -2.31351,0.00245 -1.98471,-0.46966c0.30375,-0.43615 2.44414,-0.87345 3.81947,-1.27509c1.54812,-0.4521 2.26662,-1.18447 2.71665,-2.29958c0.24327,-0.60277 -0.16194,-1.47553 -0.1645,-1.69023c-0.00507,-0.42631 -5.67842,1.04463 -8.32752,2.87554c-2.64909,1.83091 -3.76722,5.66499 -4.16158,5.75625c-2.05827,0.47632 -1.83042,-2.72157 -2.63117,-4.18947c-0.54478,-0.99867 6.44461,-2.38025 6.11787,-3.43884c-0.09517,-0.30833 -1.43105,-0.57284 -2.17749,-0.91057c-1.43335,-0.64853 -3.67374,0.13815 -5.40362,-0.24479c-1.74756,-0.38685 -2.4693,-2.59299 -1.94524,-2.69461c1.60425,-0.31109 4.99325,0.27214 7.08706,-0.11991c1.94293,-0.3638 1.50453,-1.65092 2.75252,-1.76442c1.56197,-0.14205 1.03079,3.64357 1.91541,3.83102c1.59934,0.3389 5.80569,-2.11195 5.66631,-2.38162c-0.58512,-1.13211 -1.60375,-0.5545 -2.92072,-1.12559c-1.42599,-0.61836 -3.37631,-2.64847 -5.16858,-1.98901c-0.96321,0.35441 -1.65277,0.46633 -2.53263,0.60784c-0.90736,0.14594 -1.99938,0.31642 -2.61476,0.35437c-0.92675,0.05714 -2.69586,-1.33641 -2.69621,-1.37617c-0.00791,-0.89605 5.58404,-0.3882 5.39172,-0.93416c-0.33901,-0.96236 -8.35998,-0.92866 -9.41541,-2.18628c-0.59208,-0.70551 4.42561,-0.61563 5.2739,-1.45139c1.38466,-1.36419 -0.6996,-3.57783 0.32416,-3.73343c0.68936,-0.10477 1.62654,3.1793 4.07095,4.86282c2.49328,1.71719 7.1728,1.15967 7.2703,1.2126c0.39674,0.21542 1.21589,1.62583 2.8359,2.40262z" data-paper-data="{&quot;index&quot;:null}"/><path d="M444.76357,139.51883c-0.43943,0.03965 -1.83374,0.89195 -2.9464,2.2026c-1.35178,1.59232 -1.75562,3.84548 -2.07974,4.27128c-0.07965,0.10463 -4.75424,0.71804 -6.69132,3.911c-1.89911,3.13036 -1.90206,8.08511 -2.59691,8.14326c-1.03192,0.08634 0.37352,-3.69008 -1.33927,-5.21499c-1.04932,-0.93422 -5.87271,0.70206 -5.49453,-0.47983c0.67412,-2.10679 8.43326,-4.47005 8.49632,-5.94133c0.03578,-0.83468 -5.22761,1.56898 -5.46622,0.29157c-0.01058,-0.05668 1.31574,-2.57143 2.22688,-2.76871c0.605,-0.131 1.70697,-0.21668 2.62377,-0.2818c0.88902,-0.06314 1.58604,-0.11117 2.61409,0.10358c1.91293,0.39959 3.2394,-3.07543 4.44725,-4.38399c1.1155,-1.20852 2.25845,-0.69284 2.51266,-2.47966c0.06056,-0.42562 -4.67719,-2.64852 -6.12934,-1.68552c-0.80322,0.53265 0.75043,5.75968 -0.79779,6.02709c-1.23701,0.21366 -1.16716,-1.74961 -3.14441,-1.6832c-2.13079,0.07157 -5.24496,1.92023 -6.88048,1.95984c-0.53427,0.01293 -0.44325,-3.34322 1.13893,-4.41902c1.56617,-1.06492 3.94705,-0.61903 5.15371,-1.97272c0.6284,-0.70496 1.84643,-1.48292 1.85364,-1.95026c0.02478,-1.60453 -7.10809,-1.46932 -6.85619,-3.05414c0.37026,-2.32944 -0.72876,-6.81134 1.39085,-6.75231c0.4061,0.01131 2.54017,5.13083 5.60292,6.93974c3.06274,1.8089 8.94861,2.19647 8.83635,1.58834c-0.05654,-0.30626 0.09512,-1.66995 -0.30559,-2.45453c-0.74129,-1.45144 -1.63679,-2.27757 -3.25683,-2.45549c-1.43923,-0.15806 -3.62746,-0.13688 -4.04081,-0.66618c-0.44744,-0.57295 0.77574,-1.06149 1.78855,-1.26493c0.88317,-0.17741 2.147,-0.38563 2.09888,-0.49667c-0.44395,-1.0244 -2.46265,-0.59535 -3.45742,-0.91199c-1.32152,-0.42063 -2.44506,-1.39133 -2.69496,-1.9022c-0.56724,-1.15962 -0.29451,-1.03111 -0.37031,-1.70523c-0.12319,-1.09546 1.12519,-0.12663 1.57911,-0.16759c0.02529,-0.00229 1.79669,1.3946 2.75635,1.80289c1.2765,0.5431 3.75916,0.72897 5.06897,1.29429c1.46898,0.63401 1.71822,1.65344 2.16899,2.37971c1.15488,1.86071 1.0684,3.40216 2.5321,5.20597c1.24713,1.53691 2.79267,1.59469 4.25298,1.80713c1.49935,0.21812 2.89838,0.58082 2.97566,1.43737c0.08627,0.95616 0.53878,3.13169 -0.25943,4.24153c-0.47513,0.66063 -3.77006,0.91374 -5.47285,4.23079c-1.4054,2.73773 1.54832,8.89767 0.85516,9.12744c-0.92773,0.30753 -5.64269,-0.20167 -5.65127,-3.0417c-0.00077,-0.25738 0.1021,-2.23548 0.73385,-4.02529c0.85864,-2.43263 2.30883,-4.81379 2.22407,-4.80614z" data-paper-data="{&quot;index&quot;:null}"/><path d="M61.18222,254.26379c-1.40939,0.44778 -2.70816,1.2884 -2.98204,1.63432c-0.05283,0.06672 2.18217,-0.27886 4.11049,-0.1217c1.41877,0.11563 2.64751,0.73107 2.79932,0.82276c1.6751,1.01164 -0.71068,5.05385 -1.42131,5.70499c-0.53095,0.4865 -2.49148,-4.1119 -4.91187,-3.92913c-2.93256,0.22144 -4.96004,2.83085 -5.6216,2.98635c-1.1114,0.26124 -2.14043,-0.87896 -2.65687,-1.28785c-0.46264,-0.36629 0.1201,-1.64055 0.84554,-2.94586c0.70655,-1.27132 1.55317,-2.55774 1.35475,-4.12293c-0.23287,-1.837 -1.19398,-2.31142 -1.63651,-3.91558c-0.17273,-0.62614 -0.63373,-1.19089 -0.17161,-2.61843c0.41205,-1.27286 1.71695,-3.3722 2.12314,-4.60991c0.30537,-0.9305 0.48857,-2.8756 0.50433,-2.89551c0.28292,-0.35732 0.42125,-1.72259 0.99906,-1.23419c0.35556,0.30056 0.43497,0.03169 0.79767,0.90652c0.15978,0.38541 0.09369,1.64908 -0.4106,2.88035c-0.37961,0.92683 -1.78385,2.42862 -1.43088,3.15463c0.03825,0.0787 0.88168,-0.88287 1.48993,-1.54354c0.69753,-0.75764 1.6836,-1.58677 1.76753,-1.0176c0.07754,0.52581 -1.18204,2.31074 -1.90874,3.54555c-0.818,1.38994 -0.83965,2.41568 -0.40352,3.5363c0.23575,0.60575 1.12885,0.96391 1.2778,1.11855c0.29575,0.30707 3.42079,-4.65123 4.09618,-7.79985c0.67539,-3.14861 -1.13681,-6.70759 -0.91207,-7.04424c1.17302,-1.75709 3.19791,0.72852 4.78687,1.24923c1.08103,0.35426 -3.06389,6.14908 -2.10064,6.69636c0.28056,0.15941 1.43489,-0.56312 2.21002,-0.82848c1.48843,-0.50955 2.5815,-2.61749 4.10399,-3.52367c1.53804,-0.91544 3.57521,0.19716 3.26308,0.63022c-0.95549,1.32567 -3.82379,3.22261 -5.08044,4.94266c-1.16611,1.5961 0.03505,2.23336 -0.79629,3.17103c-1.0405,1.17357 -3.24707,-1.94799 -4.0199,-1.47848c-1.39723,0.84884 -2.78229,5.51592 -2.496,5.61687c1.20184,0.42382 1.54814,-0.6948 2.89874,-1.18104c1.4624,-0.52649 4.27394,-0.3838 5.12773,-2.09207c0.45884,-0.91806 0.88448,-1.47201 1.42847,-2.17788c0.56099,-0.72794 1.23967,-1.60027 1.66195,-2.0495c0.63594,-0.67654 2.87937,-0.87341 2.90687,-0.84469c0.61965,0.6473 -3.80175,4.10839 -3.28762,4.37433c0.90626,0.46878 6.72606,-5.0509 8.35649,-4.85786c0.91465,0.1083 -2.80207,3.48042 -2.84744,4.6704c-0.07406,1.94238 2.96078,2.127 2.32162,2.94171c-0.43039,0.5486 -3.36299,-1.20163 -6.297,-0.75334c-2.99268,0.45725 -6.01953,4.0693 -6.12682,4.09753c-0.43659,0.11489 -1.99956,-0.35135 -3.71184,0.19267z" data-paper-data="{&quot;index&quot;:null}"/><path d="M119.20729,251.68338c-13.14002,-0.43922 -23.38391,3.62881 -23.16858,-2.81338c0.02921,-0.87402 4.76695,-0.11522 4.21871,-4.27569c-0.53816,-4.08397 -6.3795,-13.09733 -4.56974,-13.01156c0.38844,0.01841 2.22168,0.36301 3.72931,-0.85966c1.75215,-1.42098 3.23977,-4.36797 4.25227,-3.15349c0.6578,0.78901 -2.26132,9.67877 -1.57203,10.54983c3.467,4.38125 7.01873,9.18273 7.50025,8.19193c1.89676,-3.90286 -5.77557,-16.76471 -0.71149,-16.38158c0.33375,0.02525 1.99009,7.19967 4.13021,6.62395c1.51119,-0.40652 3.5951,-9.03433 4.16848,-7.63056c1.82951,4.47908 -1.21822,17.09109 -0.38386,17.11898c0.5098,0.01704 3.37593,-2.61905 4.28374,-8.47723c0.46591,-3.00653 -0.39279,-3.65821 0.66188,-3.6371c1.11642,0.02235 7.80955,-4.12077 9.59221,0.67125c0.75066,2.01786 -6.09787,1.4336 -6.65257,3.29646c-0.807,2.71016 4.36156,7.45676 4.61216,6.82207c1.44603,-3.66239 7.45449,-6.69184 8.41906,-6.70799c2.9538,-0.04946 0.23697,1.3843 0.98335,4.24267c0.42034,1.60976 -5.28085,0.18452 -4.55514,1.51682c2.36261,4.33742 9.55431,4.39167 9.47744,6.69141c-0.21533,6.44219 -11.27563,1.66206 -24.41565,1.22285z" data-paper-data="{&quot;index&quot;:null}"/><path d="M424.59222,140.48765c-8.59351,5.35356 -13.40175,12.34836 -16.02646,8.1352c-0.35609,-0.57161 2.99983,-2.11781 0.86511,-4.54401c-2.09547,-2.3816 -9.69694,-5.64231 -8.50252,-6.36348c0.25637,-0.15479 1.57678,-0.72046 2.01687,-2.14904c0.51146,-1.66027 0.19935,-4.18325 1.36778,-3.84056c0.7591,0.22264 2.70383,7.16082 3.51826,7.42243c4.09641,1.31586 8.42722,2.86419 8.31037,2.02393c-0.46027,-3.30985 -10.88321,-8.24716 -7.47962,-10.17359c0.22431,-0.12696 4.36025,3.752 5.48233,2.46604c0.79233,-0.90805 -1.57432,-7.32052 -0.60561,-6.66845c3.09093,2.0806 6.54951,11.45491 7.09518,11.11497c0.33341,-0.20771 1.03639,-3.12292 -0.89494,-7.25946c-0.9912,-2.12294 -1.81992,-2.17159 -1.13623,-2.61033c0.72371,-0.46443 3.22847,-5.98468 6.42361,-3.68382c1.34544,0.96887 -3.28584,3.53183 -2.84186,4.96129c0.64592,2.07964 5.98743,2.89956 5.87557,2.38611c-0.64548,-2.96276 1.89886,-7.47705 2.50893,-7.90099c1.86822,-1.29824 0.74517,0.78388 2.44829,2.29221c0.95916,0.84946 -3.29883,2.38248 -2.26333,2.92352c3.37118,1.76139 7.99471,-1.28775 8.93168,0.21627c2.62471,4.21316 -6.49989,5.89821 -15.09341,11.25178z" data-paper-data="{&quot;index&quot;:null}"/><path d="M504.31129,18.67483c-7.32387,10.91852 -9.29073,21.76369 -14.64378,18.173c-0.72625,-0.48716 2.42396,-4.10629 -1.39671,-5.84194c-3.75043,-1.70374 -14.48943,-1.51479 -13.45927,-3.00521c0.22111,-0.3199 1.48334,-1.69333 1.2433,-3.61953c-0.27897,-2.23861 -1.99289,-5.05999 -0.42664,-5.27676c1.01755,-0.14082 7.01735,7.03912 8.12118,6.91497c5.55207,-0.62446 11.50558,-1.09852 10.91949,-2.03128c-2.30863,-3.67425 -17.28215,-3.96736 -14.27809,-8.06215c0.19799,-0.26987 7.16255,2.11983 7.80612,-0.00087c0.45443,-1.49747 -5.76489,-7.83007 -4.2703,-7.57405c4.76886,0.8169 13.85938,10.07507 14.32443,9.38177c0.28415,-0.42362 -0.43669,-4.25036 -4.92782,-8.11976c-2.30493,-1.98584 -3.31221,-1.60189 -2.73637,-2.48573c0.60955,-0.93559 0.63433,-8.80723 5.64396,-7.78503c2.10949,0.43044 -2.00923,5.93315 -0.72181,7.38934c1.87299,2.11852 8.63524,0.24336 8.2292,-0.30506c-2.34301,-3.16455 -1.73535,-9.86604 -1.2388,-10.69313c1.5206,-2.53281 1.30009,0.5312 4.1206,1.4099c1.58844,0.49486 -2.63701,4.57904 -1.12249,4.66798c4.93065,0.28956 8.78113,-5.78475 10.69207,-4.50294c5.35305,3.59068 -4.5544,10.44794 -11.87826,21.36647z" data-paper-data="{&quot;index&quot;:null}"/><path d="M285.72269,138.87435c5.66139,0.10862 1.62644,-8.6779 5.17473,-8.6779c6.52384,0 0.19052,7.68854 0.19052,15.52768c0,3.53269 5.96879,3.56455 3.50019,6.09159c-1.81055,1.85342 -2.13926,10.57923 -4.64333,10.57923c-4.831,0 -1.7941,-5.67876 -1.67252,-11.80911c0.01619,-0.81633 -1.82944,-4.72693 -4.1242,-6.77512c-3.74382,-3.34157 -8.68307,-5.20849 -8.68307,-6.46963c0,-3.57547 5.51009,1.44217 10.25768,1.53326z" data-paper-data="{&quot;index&quot;:null}"/><path d="M20.24225,231.58716c0,-3.57547 5.51009,1.44217 10.25768,1.53326c5.66139,0.10863 1.62645,-8.67789 5.17473,-8.67789c6.52384,0 0.19052,7.68854 0.19052,15.52767c0,3.5327 5.96879,3.56455 3.50019,6.09159c-1.81055,1.85342 -2.13925,10.57923 -4.64333,10.57923c-4.831,0 -1.7941,-5.67876 -1.67252,-11.80911c0.01619,-0.81633 -1.82945,-4.72693 -4.12421,-6.77512c-3.74383,-3.34156 -8.68307,-5.20849 -8.68307,-6.46962z" data-paper-data="{&quot;index&quot;:null}"/><path d="M269.96878,161.76161c-0.05661,-0.35159 -0.8212,-1.42637 -1.93901,-2.24862c-1.35803,-0.99896 -3.19491,-1.19753 -3.55596,-1.43459c-0.08872,-0.05825 -0.84524,-3.78765 -3.52496,-5.16796c-2.62718,-1.35325 -6.61679,-1.07726 -6.70265,-1.63347c-0.1275,-0.82603 2.99214,0.09343 4.12374,-1.37133c0.69326,-0.89737 -0.89521,-4.68912 0.07766,-4.45102c1.7342,0.42443 4.07295,6.53913 5.26113,6.50724c0.67407,-0.01809 -1.55699,-4.12099 -0.54186,-4.38488c0.04504,-0.01171 2.14437,0.91494 2.3544,1.63748c0.13946,0.47978 0.27036,1.36224 0.3743,2.09677c0.10078,0.71226 0.17862,1.27079 0.06346,2.11061c-0.21427,1.56269 2.65824,2.4355 3.77972,3.33451c1.03573,0.83027 0.68473,1.77952 2.13772,1.88382c0.3461,0.02484 1.86976,-3.91476 1.01279,-5.02989c-0.47401,-0.61679 -4.59539,0.92781 -4.89768,-0.30375c-0.24153,-0.984 1.34318,-1.03806 1.17862,-2.62636c-0.17733,-1.71164 -1.84078,-4.11524 -1.96456,-5.42989c-0.04043,-0.42946 2.66696,-0.54471 3.62206,0.66878c0.94544,1.20121 0.72017,3.14328 1.87792,4.0388c0.60292,0.46636 1.29774,1.40339 1.67444,1.38294c1.29331,-0.0702 0.78372,-5.8058 2.07393,-5.69201c1.89642,0.16726 5.44338,-0.96944 5.51493,0.74053c0.01371,0.32763 -3.9885,2.33354 -5.27292,4.90121c-1.28442,2.56767 -1.26581,7.32859 -0.78247,7.20404c0.24342,-0.06274 1.34995,-0.01723 1.95916,-0.38395c1.12702,-0.67841 1.74188,-1.44585 1.79412,-2.76026c0.04641,-1.16771 -0.09358,-2.92843 0.30938,-3.29098c0.43619,-0.39246 0.89826,0.56497 1.11897,1.36903c0.19246,0.70114 0.43112,1.70705 0.51782,1.66206c0.79987,-0.41501 0.34101,-2.01631 0.54007,-2.83506c0.26444,-1.08769 0.9829,-2.04687 1.3802,-2.27678c0.90184,-0.52188 0.81368,-0.29506 1.35221,-0.39397c0.87512,-0.16073 0.16518,0.89887 0.22366,1.26205c0.00326,0.02023 -1.02195,1.52499 -1.29679,2.32062c-0.36558,1.05831 -0.37577,3.06773 -0.75736,4.15412c-0.42797,1.21841 -1.23478,1.47636 -1.79423,1.88011c-1.43331,1.03441 -2.67931,1.05138 -4.04946,2.33125c-1.16741,1.09049 -1.1271,2.33817 -1.21611,3.52591c-0.09139,1.2195 -0.30484,2.36633 -0.99017,2.47668c-0.76503,0.12318 -2.49128,0.60975 -3.42974,0.0294c-0.55862,-0.34545 -0.94752,-2.98422 -3.71399,-4.16891c-2.28331,-0.97778 -7.07719,1.74655 -7.30114,1.20134c-0.29974,-0.72971 -0.15462,-4.55468 2.13162,-4.72114c0.2072,-0.01508 1.80569,-0.04338 3.28229,0.36474c2.00693,0.55469 4.00565,1.58857 3.99473,1.52075z" data-paper-data="{&quot;index&quot;:null}"/><path d="M285.72269,138.87435c5.66139,0.10862 1.62644,-8.6779 5.17473,-8.6779c6.52384,0 0.19052,7.68854 0.19052,15.52768c0,3.53269 5.96879,3.56455 3.50019,6.09159c-1.81055,1.85342 -2.13926,10.57923 -4.64333,10.57923c-4.831,0 -1.7941,-5.67876 -1.67252,-11.80911c0.01619,-0.81633 -1.82944,-4.72693 -4.1242,-6.77512c-3.74382,-3.34157 -8.68307,-5.20849 -8.68307,-6.46963c0,-3.57547 5.51009,1.44217 10.25768,1.53326z" data-paper-data="{&quot;index&quot;:null}"/></g></g></svg>