<svg version="1.1" xmlns="http://www.w3.org/2000/svg" xmlns:xlink="http://www.w3.org/1999/xlink" width="720.55422" height="538.69255" viewBox="0,0,720.55422,538.69255"><g transform="translate(119.98489,90.13021)"><g data-paper-data="{&quot;isPaintingLayer&quot;:true}" fill-rule="nonzero" stroke="none" stroke-width="0" stroke-linecap="butt" stroke-linejoin="miter" stroke-miterlimit="10" stroke-dasharray="" stroke-dashoffset="0" style="mix-blend-mode: normal"><path d="M-102.94492,-86.03445v528.64939z" fill="none"/><path d="M-110.89523,435.59939v-522.53727z" fill="none"/><path d="M-19.65232,380.55439c0,0 -30.82222,-232.07728 -14.19072,-344.36717c6.22398,-42.02206 16.81321,-90.16965 56.53403,-70.95469c2.39113,1.15671 25.66383,6.39087 32.71342,6.83499c14.44949,0.91032 79.70425,54.3627 85.12261,55.8329c30.54843,8.28892 35.51914,37.92936 46.42555,39.72537c10.38331,1.70986 67.68362,35.83345 101.44728,61.78515c17.27359,13.27696 10.89162,6.37031 19.54676,17.01514c2.53787,0.32217 0.91666,16.20093 -12.17949,14.92196c-7.24497,-0.70754 -54.24063,-9.01227 -63.1601,-11.99961c-5.06425,-1.69614 27.71647,-0.22598 23.30361,1.70387c-4.67531,2.04463 -8.3853,-3.91349 -14.14004,-3.67967c-2.76601,0.11239 -11.75249,6.96722 -13.78908,7.5534c-5.88683,1.69438 -11.61786,4.42867 -17.22312,4.63755c-6.05739,0.22574 -11.8765,-2.04077 -15.03145,1.01982c-2.24308,2.176 17.54931,-6.12027 16.93236,-1.81825c-0.32609,2.27389 -20.82475,12.78973 -23.25162,15.54192c-1.27281,1.44343 -4.12778,6.22011 -9.59846,6.96641c-10.92852,1.49086 -18.15116,1.02171 -19.10703,2.84922c-0.76656,1.46558 17.22908,-9.4201 23.58155,-5.23565c5.23103,3.44575 -71.43043,32.49217 -71.80622,33.78115c-0.4759,1.63242 -6.40305,9.33527 -4.55077,11.00943c1.66526,1.50512 -19.8729,48.11087 -20.0003,49.63066c-1.06631,12.71971 17.90915,48.07163 47.20043,36.89338c13.41669,-5.12013 37.90402,-22.12005 40.02113,-21.18012c6.21714,2.76022 36.0914,-15.13472 63.82368,-24.15234c17.23246,-5.60342 30.78432,-3.49881 45.99293,-3.89141c88.24072,-2.27787 93.90649,4.44655 103.34525,4.39943c24.48637,-0.12226 117.06076,-56.26226 123.48363,-30.89149c15.78545,62.35359 44.61666,121.72141 44.61666,121.72141z" data-paper-data="{&quot;index&quot;:null}" fill="#344e5f"/><path d="M-117.27963,441.90182v-532.03203z" fill="none"/><path d="M-119.98488,445.50883v-534.73728z" fill="none"/><path d="M-117.65903,448.56235v-536.0106h718.22837v536.0106z" fill="none"/></g></g></svg>