<svg version="1.1" xmlns="http://www.w3.org/2000/svg" xmlns:xlink="http://www.w3.org/1999/xlink" width="678.82125" height="526.11629" viewBox="0,0,678.82125,526.11629"><defs><linearGradient x1="45.93079" y1="193.71959" x2="45.93079" y2="364.69502" gradientUnits="userSpaceOnUse" id="color-1"><stop offset="0" stop-color="#344e5f" stop-opacity="0"/><stop offset="1" stop-color="#344e5f"/></linearGradient></defs><g transform="translate(104.48091,86.63717)"><g data-paper-data="{&quot;isPaintingLayer&quot;:true}" fill-rule="nonzero" stroke="none" stroke-width="0" stroke-linecap="butt" stroke-linejoin="miter" stroke-miterlimit="10" stroke-dasharray="" stroke-dashoffset="0" style="mix-blend-mode: normal"><path d="M-65.16808,328.30829c0,-11.82463 42.65191,-80.07878 39.93979,-131.7409c-0.84038,-16.00811 53.26633,-68.04123 53.47578,-64.22462c0.51894,9.45626 58.07867,6.10958 59.78922,17.20515c1.37194,8.89915 14.30769,42.74109 15.99651,52.35361c0.79929,4.54945 17.72359,78.41962 18.54646,82.99753c2.22545,12.38089 1.2632,24.58083 2.60232,36.11487c0.3914,3.37116 2.61603,6.9834 3.14258,10.15674c1.04049,6.27076 -9.35411,12.84863 -11.85447,18.86699c-1.02951,2.47803 0.61912,18.39373 -0.08924,20.36861c-6.52196,18.18309 15.96765,6.27267 0.70215,18.11012c-14.46377,11.21577 -62.10905,5.35816 -74.22517,5.27844c-36.72851,-0.24166 -74.21063,-12.03893 -85.08366,-10.86942z" data-paper-data="{&quot;index&quot;:null}" fill="url(#color-1)"/><path d="M-104.48091,439.47912v-526.11629h678.82125v526.11629z" fill="none"/><path d="M-6.85977,209.22868v-124.07278c0,0 -14.29488,-53.10785 3.85809,-71.16288c10.60814,-10.5509 52.72268,9.72299 61.25525,9.72299c11.80656,0 64.32797,61.43988 64.32797,61.43988l-1.19301,100.21263c0,0 -9.8751,42.87114 -23.57169,45.41934c-5.62713,1.04691 -55.72013,0.35627 -66.05502,-1.29981c-32.82528,-5.25998 -38.62159,-20.25938 -38.62159,-20.25938z" fill="#344e5f"/></g></g></svg>