<svg version="1.1" xmlns="http://www.w3.org/2000/svg" xmlns:xlink="http://www.w3.org/1999/xlink" width="19.05556" height="17.61039" viewBox="0,0,19.05556,17.61039"><g transform="translate(-230.47222,-171.1948)"><g data-paper-data="{&quot;isPaintingLayer&quot;:true}" fill="#0e0e0f" fill-rule="nonzero" stroke="none" stroke-width="0" stroke-linecap="butt" stroke-linejoin="miter" stroke-miterlimit="10" stroke-dasharray="" stroke-dashoffset="0" style="mix-blend-mode: normal"><path d="M249.52778,175.8595c-0.52063,0.45449 -1.6915,3.44449 -2.28419,3.94732c-3.14749,2.67033 -5.86228,5.42004 -7.80638,7.10939c-1.8763,1.63043 -3.23081,0.36558 -5.74336,1.72045c-1.28155,0.69106 -2.5938,-0.9446 -2.36741,-1.28134c0.24896,-0.3703 -0.85422,-3.15446 -0.85422,-3.38028c0,-0.5547 0.64145,-4.26303 1.02095,-4.75058c1.00966,-1.29711 4.20581,-5.03843 7.96667,-5.03843c1.91165,0 3.91717,0.66583 5.39926,1.05154c1.19555,0.31113 0.10953,-2.56982 0.85287,-3.50302c0.82949,-1.04135 3.47373,-0.37208 3.47373,0.30315z"/><path d="M239.97386,179.55592c0.91033,-4.35903 2.66622,-3.6475 3.10902,-3.34806c0.44281,0.29944 1.72129,-1.74476 0.81096,2.61428c-0.30011,1.43707 -3.42298,4.31774 -3.73353,5.43226c-0.63144,2.26613 -1.74687,0.06583 -2.04369,-0.13489c-0.44281,-0.29944 0.94692,-0.20456 1.85725,-4.5636z"/><path d="M245.5178,183.21727c0,2.97153 -0.42822,3.6413 -1.3587,3.6413c-0.93048,0 -1.57609,-1.53934 -1.57609,-4.51087c0,-2.97153 0.31952,-4.51087 1.25,-4.51087c0.93048,0 1.68478,2.4089 1.68478,5.38043z"/></g></g></svg>