<svg version="1.1" xmlns="http://www.w3.org/2000/svg" xmlns:xlink="http://www.w3.org/1999/xlink" width="17.12162" height="17.19621" viewBox="0,0,17.12162,17.19621"><g transform="translate(-231.43919,-171.40189)"><g data-paper-data="{&quot;isPaintingLayer&quot;:true}" fill-rule="nonzero" stroke="none" stroke-width="1" stroke-linecap="butt" stroke-linejoin="miter" stroke-miterlimit="10" stroke-dasharray="" stroke-dashoffset="0" style="mix-blend-mode: normal"><path d="" data-paper-data="{&quot;index&quot;:null}" fill="#81b5df"/><g fill="#81a9c9"><path d="M244.86761,178.1161c0,3.70675 -3.0075,6.71421 -6.71421,6.71421c-3.70675,0 -6.71421,-3.0075 -6.71421,-6.71421c0,-3.70675 3.0075,-6.71421 6.71421,-6.71421c3.70675,0 6.71421,3.0075 6.71421,6.71421zM242.48469,178.1161c0,-2.38969 -1.94163,-4.33134 -4.33134,-4.33134c-2.38969,0 -4.33134,1.94163 -4.33134,4.33134c0,2.38969 1.94163,4.33134 4.33134,4.33134c2.39647,0 4.33134,-1.94163 4.33134,-4.33134z" data-paper-data="{&quot;index&quot;:null}"/><path d="M246.26617,187.43044h2.29464v1.16766h-4.10049v-0.96403l1.70402,-1.74475c0.33944,-0.34624 0.58386,-0.62459 0.73322,-0.83503c0.14936,-0.21044 0.22405,-0.40731 0.22405,-0.60422c0,-0.19688 -0.06109,-0.35983 -0.19009,-0.48878c-0.12223,-0.12898 -0.29191,-0.19688 -0.48878,-0.19688c-0.36659,0 -0.71284,0.25798 -1.0387,0.78075l-1.0387,-0.61779c0.27156,-0.42092 0.57027,-0.73999 0.89613,-0.95725c0.32588,-0.21725 0.73999,-0.32588 1.24236,-0.32588c0.50239,0 0.94365,0.15613 1.32383,0.47522c0.38018,0.31909 0.57027,0.75357 0.57027,1.30347c0,0.29871 -0.0815,0.59062 -0.23083,0.86222c-0.14936,0.27156 -0.42769,0.62459 -0.84184,1.05226z" data-paper-data="{&quot;index&quot;:null}"/></g></g></g></svg>