<svg version="1.1" xmlns="http://www.w3.org/2000/svg" xmlns:xlink="http://www.w3.org/1999/xlink" width="51.81665" height="51.81832" viewBox="0,0,51.81665,51.81832"><defs><linearGradient x1="239.99999" y1="155.09084" x2="239.99999" y2="204.90916" gradientUnits="userSpaceOnUse" id="color-1"><stop offset="0" stop-color="#bf7811"/><stop offset="1" stop-color="#1136bf"/></linearGradient><linearGradient x1="239.99998" y1="166.56845" x2="239.99998" y2="193.43158" gradientUnits="userSpaceOnUse" id="color-2"><stop offset="0" stop-color="#dcbe3a"/><stop offset="1" stop-color="#dc3a78"/></linearGradient></defs><g transform="translate(-214.04461,-154.09084)"><g data-paper-data="{&quot;isPaintingLayer&quot;:true}" fill-rule="nonzero" stroke-linecap="butt" stroke-linejoin="miter" stroke-miterlimit="10" stroke-dasharray="" stroke-dashoffset="0" style="mix-blend-mode: normal"><path d="M215.04463,198.7261c0,-11.25908 0,-34.36061 0,-38.83371c0,-1.96596 2.20029,-4.88183 5.04715,-4.79986c6.01019,0.17305 28.98107,0 38.72378,0c3.13463,0 5.92554,1.84509 6.0457,4.68375c0.21175,5.00233 0,27.097 0,38.60767c0,3.94876 -2.69927,6.52521 -6.79115,6.52521c-11.1123,0 -32.49513,0 -37.97835,0c-2.51898,0 -5.04715,-2.43555 -5.04715,-6.18307z" fill="#0a0d10" stroke="url(#color-1)" stroke-width="2"/><path d="M253.43151,169.92635v3.35788c0,3.70879 -3.007,6.71578 -6.71578,6.71578c-0.07891,0 -0.15237,-0.02142 -0.22959,-0.02435c-0.60316,2.36269 -2.4479,4.21037 -4.80723,4.82193v5.27608h3.35789c0.92803,0 1.67895,0.74923 1.67895,1.67895v1.67895h-13.43156v-1.67895c0,-0.92971 0.75091,-1.67895 1.67894,-1.67895h3.35789v-5.27608c-2.35933,-0.61156 -4.20407,-2.45965 -4.80723,-4.82235c-0.07723,0.00336 -0.15069,0.02476 -0.22959,0.02476c-3.70879,0 -6.71578,-3.007 -6.71578,-6.71578v-3.35788c0,-0.92971 0.75091,-1.67895 1.67895,-1.67895h5.03683c0,-0.92971 0.75091,-1.67895 1.67895,-1.67895h10.07367c0.92803,0 1.67895,0.74923 1.67895,1.67895h5.03683c0.92803,0 1.67895,0.74923 1.67895,1.67895zM233.28418,176.64212v-5.03683h-3.35789v1.67894c0,1.85272 1.50349,3.35789 3.35789,3.35789zM250.07362,171.60528h-3.35789v5.03683c1.85439,0 3.35789,-1.50518 3.35789,-3.3579z" fill="url(#color-2)" stroke="none" stroke-width="1"/><path d="M228.7488,192.28309c0,0 -2.55177,-0.87271 -3.41266,-0.49338c-0.96647,0.42584 -2.10616,2.92505 -2.10616,2.92505c0,0 0.8728,-2.55155 0.4639,-3.47956c-0.40153,-0.91129 -2.89557,-2.03927 -2.89557,-2.03927c0,0 2.65323,0.70974 3.62384,0.28208c0.85403,-0.3763 1.89499,-2.71374 1.89499,-2.71374c0,0 -0.61817,2.49491 -0.2003,3.4433c0.39088,0.88714 2.63197,2.07554 2.63197,2.07554z" fill="#ffffff" stroke="none" stroke-width="0"/><path d="M259.30681,182.31672c0,0 -2.59599,0.73074 -3.08919,1.53185c-0.55369,0.89935 -0.07256,3.60369 -0.07256,3.60369c0,0 -0.73054,-2.59585 -1.59411,-3.12752c-0.848,-0.52208 -3.54144,-0.03424 -3.54144,-0.03424c0,0 2.58696,-0.92251 3.14303,-1.82571c0.48928,-0.79472 0.01873,-3.30984 0.01873,-3.30984c0,0 0.90797,2.40464 1.79049,2.94797c0.82552,0.50824 3.34506,0.21378 3.34506,0.21378z" fill="#ffffff" stroke="none" stroke-width="0"/><path d="M250.66786,160.13861c0,0 -1.62979,1.49045 -1.69555,2.25805c-0.07383,0.86173 1.27394,2.66269 1.27394,2.66269c0,0 -1.49025,-1.62976 -2.3177,-1.70065c-0.81253,-0.06962 -2.60304,1.27905 -2.60304,1.27905c0,0 1.55257,-1.6274 1.62672,-2.49282c0.06524,-0.76147 -1.20511,-2.42792 -1.20511,-2.42792c0,0 1.54962,1.42455 2.39523,1.49701c0.79099,0.06778 2.52551,-1.0754 2.52551,-1.0754z" fill="#ffffff" stroke="none" stroke-width="0"/></g></g></svg>