<svg version="1.1" xmlns="http://www.w3.org/2000/svg" xmlns:xlink="http://www.w3.org/1999/xlink" width="718.22836" height="536.0106" viewBox="0,0,718.22836,536.0106"><g transform="translate(117.65903,87.44823)"><g data-paper-data="{&quot;isPaintingLayer&quot;:true}" fill-rule="nonzero" stroke="none" stroke-width="0" stroke-linecap="butt" stroke-linejoin="miter" stroke-miterlimit="10" stroke-dasharray="" stroke-dashoffset="0" style="mix-blend-mode: normal"><path d="" data-paper-data="{&quot;index&quot;:null}" fill="#ffffff"/><path d="" data-paper-data="{&quot;index&quot;:null}" fill="#ffffff"/><path d="" data-paper-data="{&quot;index&quot;:null}" fill="#ffffff"/><path d="" data-paper-data="{&quot;index&quot;:null}" fill="#ffffff"/><path d="M-117.65903,448.56237v-536.0106h718.22836v536.0106z" fill="none"/><path d="M-3.44749,393.24786l-15.20304,-41.20085l-50.9275,-83.89928l11.17514,-77.1861l108.11048,3.96414l70.20738,33.33617l162.41687,-24.8063l80.08002,17.32845l131.00006,-46.47913l8.14889,131.76567l-16.97687,87.17721z" fill="#98bbd6"/><path d="M105.8458,309.81787l-34.64178,1.20622l-56.96627,-37.30635l80.1029,25.18168l100.75748,41.54964z" fill="#375267"/><path d="M336.36337,265.53995l-54.96875,13.89433l-137.75799,-18.36097l87.44789,2.88688l11.01651,-2.76316c0,0 31.14174,7.17233 34.0412,7.30592c11.73454,0.54064 60.22113,-2.96302 60.22113,-2.96302z" data-paper-data="{&quot;index&quot;:null}" fill="#375267"/><path d="M456.90383,266.86929l-43.32369,36.57422l-131.87575,43.85401l79.87194,-35.7203l8.69208,-7.31071c0,0 31.13592,-7.19754 33.80079,-8.34787c10.78507,-4.65551 52.83462,-29.04937 52.83462,-29.04937z" data-paper-data="{&quot;index&quot;:null}" fill="#375267"/></g></g></svg>