<svg version="1.1" xmlns="http://www.w3.org/2000/svg" xmlns:xlink="http://www.w3.org/1999/xlink" width="528.06789" height="441.04177" viewBox="0,0,528.06789,441.04177"><defs><linearGradient x1="99.17255" y1="-31.75893" x2="99.17255" y2="289.69537" gradientUnits="userSpaceOnUse" id="color-1"><stop offset="0" stop-color="#344e5f"/><stop offset="1" stop-color="#070b0d"/></linearGradient></defs><g transform="translate(25.70563,68.37955)"><g data-paper-data="{&quot;isPaintingLayer&quot;:true}" fill="url(#color-1)" fill-rule="nonzero" stroke="none" stroke-width="0" stroke-linecap="butt" stroke-linejoin="miter" stroke-miterlimit="10" stroke-dasharray="" stroke-dashoffset="0" style="mix-blend-mode: normal"><path d="M-20.18451,365.57456c0,-6.12723 -2.79306,-265.18111 -5.50518,-291.95113c-0.84038,-8.29501 31.79288,-78.70902 41.58021,-78.70902c3.23661,0 51.06782,-30.18025 102.46815,-38.07723c26.45539,-4.06452 65.9883,11.5604 75.49623,11.40434c2.4666,-0.04048 56.1424,-32.68305 143.55977,-36.56275c21.88348,-0.97122 110.73968,10.48337 125.73471,12.3037c19.99142,2.42687 16.17596,48.8704 16.79926,50.80766c42.74538,132.85628 11.21058,366.05724 11.21058,366.05724l-305.80732,11.81485c0,0 -89.53152,-0.60056 -106.43282,-3.70668z" data-paper-data="{&quot;index&quot;:null}"/></g></g></svg>