<svg version="1.1" xmlns="http://www.w3.org/2000/svg" xmlns:xlink="http://www.w3.org/1999/xlink" width="51.81665" height="51.81832" viewBox="0,0,51.81665,51.81832"><g transform="translate(-214.04462,-154.09085)"><g data-paper-data="{&quot;isPaintingLayer&quot;:true}" fill-rule="nonzero" stroke-linejoin="miter" stroke-miterlimit="10" stroke-dasharray="" stroke-dashoffset="0" style="mix-blend-mode: normal"><path d="M215.04464,198.72611c0,-11.25908 0,-34.36061 0,-38.83371c0,-1.96596 2.20029,-4.88183 5.04715,-4.79986c6.01019,0.17305 28.98107,0 38.72378,0c3.13463,0 5.92554,1.84509 6.0457,4.68375c0.21175,5.00233 0,27.097 0,38.60767c0,3.94876 -2.69927,6.52521 -6.79115,6.52521c-11.1123,0 -32.49513,0 -37.97835,0c-2.51898,0 -5.04715,-2.43555 -5.04715,-6.18307z" fill="#0a0d10" stroke="#0fa6a8" stroke-width="2" stroke-linecap="butt"/><g fill="#ccc7b3" stroke="none" stroke-width="1" stroke-linecap="butt"><path d="M246.00361,177.67645c0,4.57183 -3.70939,8.28117 -8.28117,8.28117c-4.57183,0 -8.28117,-3.70939 -8.28117,-8.28117c0,-4.57183 3.70939,-8.28117 8.28117,-8.28117c4.57183,0 8.28117,3.70939 8.28117,8.28117zM243.06457,177.67645c0,-2.94739 -2.39477,-5.34219 -5.34218,-5.34219c-2.94739,0 -5.34218,2.39477 -5.34218,5.34219c0,2.94739 2.39477,5.34218 5.34218,5.34218c2.95576,0 5.34218,-2.39477 5.34218,-5.34218z" data-paper-data="{&quot;index&quot;:null}"/><path d="M247.72857,189.16456h2.83016v1.44017h-5.05746v-1.18902l2.1017,-2.15194c0.41866,-0.42704 0.72012,-0.77036 0.90434,-1.02991c0.18422,-0.25955 0.27634,-0.50237 0.27634,-0.74523c0,-0.24283 -0.07535,-0.44381 -0.23445,-0.60285c-0.15075,-0.15908 -0.36003,-0.24283 -0.60285,-0.24283c-0.45214,0 -0.8792,0.31819 -1.28111,0.96296l-1.28111,-0.76197c0.33494,-0.51915 0.70336,-0.91269 1.10527,-1.18065c0.40193,-0.26795 0.91269,-0.40193 1.5323,-0.40193c0.61964,0 1.16388,0.19257 1.63278,0.58613c0.4689,0.39356 0.70336,0.92944 0.70336,1.60768c0,0.36842 -0.10052,0.72846 -0.2847,1.06344c-0.18422,0.33494 -0.5275,0.77036 -1.03831,1.29784z" data-paper-data="{&quot;index&quot;:null}"/></g><path d="M227.92117,192.07884l24.15768,-24.15768" data-paper-data="{&quot;index&quot;:null}" fill="none" stroke="#0fa6a8" stroke-width="2.5" stroke-linecap="round"/></g></g></svg>