<svg version="1.1" xmlns="http://www.w3.org/2000/svg" xmlns:xlink="http://www.w3.org/1999/xlink" width="614.33788" height="551.65899" viewBox="0,0,614.33788,551.65899"><defs><radialGradient cx="258.5621" cy="181.15729" r="251.48263" gradientUnits="userSpaceOnUse" id="color-1"><stop offset="0" stop-color="#000000" stop-opacity="0"/><stop offset="1" stop-color="#000000" stop-opacity="0.43057"/></radialGradient><radialGradient cx="258.5621" cy="181.1573" r="251.48263" gradientUnits="userSpaceOnUse" id="color-2"><stop offset="0" stop-color="#000000" stop-opacity="0"/><stop offset="1" stop-color="#000000" stop-opacity="0.43057"/></radialGradient><radialGradient cx="258.5621" cy="181.1573" r="251.48263" gradientUnits="userSpaceOnUse" id="color-3"><stop offset="0" stop-color="#000000" stop-opacity="0"/><stop offset="1" stop-color="#000000" stop-opacity="0.43057"/></radialGradient><radialGradient cx="258.5621" cy="181.1573" r="251.48263" gradientUnits="userSpaceOnUse" id="color-4"><stop offset="0" stop-color="#000000" stop-opacity="0"/><stop offset="1" stop-color="#000000" stop-opacity="0.43057"/></radialGradient><radialGradient cx="258.5621" cy="181.1573" r="251.48263" gradientUnits="userSpaceOnUse" id="color-5"><stop offset="0" stop-color="#000000" stop-opacity="0"/><stop offset="1" stop-color="#000000" stop-opacity="0.43057"/></radialGradient><radialGradient cx="258.5621" cy="181.1573" r="251.48263" gradientUnits="userSpaceOnUse" id="color-6"><stop offset="0" stop-color="#000000" stop-opacity="0"/><stop offset="1" stop-color="#000000" stop-opacity="0.43057"/></radialGradient></defs><g transform="translate(67.16894,95.82949)"><g data-paper-data="{&quot;isPaintingLayer&quot;:true}" fill-rule="nonzero" stroke="none" stroke-width="0" stroke-linecap="butt" stroke-linejoin="miter" stroke-miterlimit="10" stroke-dasharray="" stroke-dashoffset="0" style="mix-blend-mode: normal"><path d="M-59.90005,367.18664c0,-58.16861 -7.26888,-354.41703 -7.26888,-354.41703c0,0 34.49267,-76.06901 77.32931,-95.02641c51.98707,-23.00694 191.24342,-9.80011 231.15565,-9.80011c45.40332,0 216.19881,-6.67571 272.01761,14.49771c55.8503,21.18537 -3.2889,70.21986 -3.2889,70.21986c0,0 33.88703,133.35019 33.88703,196.96837c0,62.00478 3.23718,172.29065 3.23718,172.29065l-35.55011,84.38302l-253.96441,1.41239l-280.88321,8.1144z" fill="url(#color-1)"/><path d="M-59.90005,367.18665c0,-58.16861 -7.26888,-354.41702 -7.26888,-354.41702c0,0 34.49267,-76.06901 77.32931,-95.02641c51.98707,-23.00694 191.24343,-9.80011 231.15566,-9.80011c45.40332,0 216.19881,-6.67571 272.01761,14.49771c55.8503,21.18537 -3.2889,70.21987 -3.2889,70.21987c0,0 33.88703,133.35019 33.88703,196.96837c0,62.00477 3.23717,172.29065 3.23717,172.29065l-35.55011,84.38302l-253.96441,1.41239l-280.8832,8.1144z" fill="url(#color-2)"/><path d="M-59.90005,367.18665c0,-58.16861 -7.26888,-354.41702 -7.26888,-354.41702c0,0 34.49267,-76.06901 77.32931,-95.02641c51.98707,-23.00694 191.24343,-9.80011 231.15566,-9.80011c45.40332,0 216.19881,-6.67571 272.01761,14.49771c55.8503,21.18537 -3.2889,70.21987 -3.2889,70.21987c0,0 33.88703,133.35019 33.88703,196.96837c0,62.00477 3.23717,172.29065 3.23717,172.29065l-35.55011,84.38302l-253.96441,1.41239l-280.8832,8.1144z" fill="url(#color-3)"/><path d="M-59.90005,367.18665c0,-58.16861 -7.26888,-354.41702 -7.26888,-354.41702c0,0 34.49267,-76.06901 77.32931,-95.02641c51.98707,-23.00694 191.24343,-9.80011 231.15566,-9.80011c45.40332,0 216.19881,-6.67571 272.01761,14.49771c55.8503,21.18537 -3.2889,70.21987 -3.2889,70.21987c0,0 33.88703,133.35019 33.88703,196.96837c0,62.00477 3.23717,172.29065 3.23717,172.29065l-35.55011,84.38302l-253.96441,1.41239l-280.8832,8.1144z" fill="url(#color-4)"/><path d="M-59.90005,367.18665c0,-58.16861 -7.26888,-354.41702 -7.26888,-354.41702c0,0 34.49267,-76.06901 77.32931,-95.02641c51.98707,-23.00694 191.24343,-9.80011 231.15566,-9.80011c45.40332,0 216.19881,-6.67571 272.01761,14.49771c55.8503,21.18537 -3.2889,70.21987 -3.2889,70.21987c0,0 33.88703,133.35019 33.88703,196.96837c0,62.00477 3.23717,172.29065 3.23717,172.29065l-35.55011,84.38302l-253.96441,1.41239l-280.8832,8.1144z" fill="url(#color-5)"/><path d="M-59.90005,367.18665c0,-58.16861 -7.26888,-354.41702 -7.26888,-354.41702c0,0 34.49267,-76.06901 77.32931,-95.02641c51.98707,-23.00694 191.24343,-9.80011 231.15566,-9.80011c45.40332,0 216.19881,-6.67571 272.01761,14.49771c55.8503,21.18537 -3.2889,70.21987 -3.2889,70.21987c0,0 33.88703,133.35019 33.88703,196.96837c0,62.00477 3.23717,172.29065 3.23717,172.29065l-35.55011,84.38302l-253.96441,1.41239l-280.8832,8.1144z" fill="url(#color-6)"/></g></g></svg>