<svg version="1.1" xmlns="http://www.w3.org/2000/svg" xmlns:xlink="http://www.w3.org/1999/xlink" width="503" height="350.09529" viewBox="0,0,503,350.09529"><defs><linearGradient x1="247.75" y1="-0.78566" x2="247.75" y2="56.21437" gradientUnits="userSpaceOnUse" id="color-1"><stop offset="0" stop-color="#0a0d10"/><stop offset="1" stop-color="#0a0d10" stop-opacity="0"/></linearGradient></defs><g transform="translate(3.75,0.78563)"><g data-paper-data="{&quot;isPaintingLayer&quot;:true}" fill-rule="nonzero" stroke-linejoin="miter" stroke-miterlimit="10" stroke-dasharray="" stroke-dashoffset="0" style="mix-blend-mode: normal"><path d="M25.17857,336.45757c0,-10.82538 0,-26.43947 0,-38.55634c0,-6.65168 0,-9.67903 0,-12.85211c0,-8.08964 6.65171,-13.95373 14.30345,-13.95373c37.65105,0 323.32588,0 397.68882,0c11.23853,0 17.65059,9.26501 17.65059,16.52415c0,7.69349 0,25.50772 0,40.02514c0,11.94926 -6.41187,21.66499 -17.65059,21.66499c-74.45439,0 -360.74987,0 -398.03614,0c-7.86328,0 -13.95612,-5.24314 -13.95612,-12.85211z" fill="#0a0d10" stroke="none" stroke-width="0" stroke-linecap="butt"/><path d="M-3.75,56.21437v-57h503v57z" fill="url(#color-1)" stroke="none" stroke-width="0" stroke-linecap="butt"/><path d="M142.88218,24.30314c-0.40565,0 -0.74157,-0.12676 -1.00777,-0.38029c-0.25353,-0.2662 -0.38029,-0.59579 -0.38029,-0.98876c0,-0.39297 0.12676,-0.70988 0.38029,-0.95073c0.2662,-0.25353 0.60213,-0.38029 1.00777,-0.38029h3.93601c0.39297,0 0.72255,0.1331 0.98876,0.39931c0.2662,0.2662 0.39931,0.59579 0.39931,0.98876c0,0.38029 -0.1331,0.6972 -0.39931,0.95073c-0.2662,0.24085 -0.59579,0.36128 -0.98876,0.36128zM163.2305,17.591l-4.88674,11.52282c-0.11409,0.29156 -0.27888,0.51973 -0.49438,0.68452c-0.2155,0.15212 -0.45635,0.22817 -0.72255,0.22817c-0.40565,0 -0.70988,-0.11409 -0.9127,-0.34226c-0.19015,-0.22817 -0.28522,-0.50705 -0.28522,-0.83664c0,-0.13944 0.02535,-0.28522 0.07606,-0.43733l5.64732,-13.57639c0.11409,-0.30423 0.29789,-0.53875 0.55142,-0.70354c0.25353,-0.16479 0.51973,-0.23451 0.79861,-0.20916c0.27888,0 0.53241,0.0824 0.76058,0.24719c0.24085,0.15212 0.41198,0.37395 0.51339,0.66551l5.59028,13.31019c0.07606,0.19015 0.11409,0.37395 0.11409,0.55142c0,0.40565 -0.1331,0.72889 -0.39931,0.96974c-0.2662,0.24085 -0.55776,0.36128 -0.87467,0.36128c-0.2662,0 -0.51339,-0.0824 -0.74157,-0.24719c-0.2155,-0.16479 -0.38663,-0.39297 -0.51339,-0.68452l-4.86772,-11.3707zM159.0473,26.35672l1.23595,-2.62401h6.1417l0.41832,2.62401zM182.92942,14.79587c0.39297,0.19015 0.62114,0.50072 0.68452,0.93171c0.06338,0.41832 -0.04437,0.80495 -0.32325,1.15989c-0.20282,0.2662 -0.46269,0.41832 -0.7796,0.45635c-0.30423,0.02535 -0.61481,-0.03803 -0.93171,-0.19015c-0.35494,-0.16479 -0.73523,-0.29156 -1.14087,-0.38029c-0.40565,-0.08873 -0.82397,-0.1331 -1.25496,-0.1331c-0.82397,0 -1.55919,0.12676 -2.20569,0.38029c-0.63382,0.25353 -1.1789,0.62114 -1.63525,1.10284c-0.45635,0.46902 -0.80495,1.03313 -1.0458,1.6923c-0.22817,0.64649 -0.34226,1.36271 -0.34226,2.14864c0,0.92537 0.1331,1.73032 0.39931,2.41485c0.2662,0.67185 0.63382,1.23595 1.10284,1.6923c0.46902,0.45635 1.02045,0.79861 1.65427,1.02679c0.63382,0.2155 1.32468,0.32325 2.07259,0.32325c0.40565,0 0.81129,-0.03803 1.21693,-0.11409c0.40565,-0.07606 0.79861,-0.2155 1.1789,-0.41832c0.31691,-0.15212 0.62748,-0.20282 0.93171,-0.15212c0.31691,0.03803 0.58311,0.19649 0.79861,0.47536c0.30423,0.38029 0.41198,0.77326 0.32325,1.1789c-0.07606,0.39297 -0.30423,0.67818 -0.68452,0.85565c-0.39297,0.20282 -0.79861,0.36762 -1.21693,0.49438c-0.41832,0.12676 -0.84298,0.22183 -1.27397,0.28522c-0.41832,0.07606 -0.84298,0.11409 -1.27397,0.11409c-1.09017,0 -2.12329,-0.17113 -3.09937,-0.51339c-0.97608,-0.35494 -1.85075,-0.86833 -2.62401,-1.54018c-0.76058,-0.68452 -1.36271,-1.54018 -1.80638,-2.56696c-0.43099,-1.02679 -0.64649,-2.21203 -0.64649,-3.55572c0,-1.16623 0.19649,-2.23738 0.58945,-3.21346c0.40565,-0.98876 0.97608,-1.83807 1.71131,-2.54795c0.73523,-0.72255 1.59722,-1.28665 2.58598,-1.6923c1.00143,-0.40565 2.09794,-0.60847 3.28952,-0.60847c0.65917,0 1.30566,0.07606 1.93948,0.22817c0.63382,0.15212 1.23595,0.37395 1.80638,0.66551zM187.48605,14.01627c0.36762,0 0.69086,0.1331 0.96974,0.39931c0.27888,0.2662 0.41832,0.59579 0.41832,0.98876v13.12004c0,0.39297 -0.14578,0.72255 -0.43733,0.98876c-0.29156,0.2662 -0.62114,0.39931 -0.98876,0.39931c-0.43099,0 -0.77326,-0.1331 -1.02679,-0.39931c-0.25353,-0.2662 -0.38029,-0.59579 -0.38029,-0.98876v-13.12004c0,-0.39297 0.1331,-0.72255 0.39931,-0.98876c0.27888,-0.2662 0.62748,-0.39931 1.0458,-0.39931zM197.54474,14.01627c0.41832,0 0.75424,0.1331 1.00777,0.39931c0.2662,0.2662 0.39931,0.59579 0.39931,0.98876v13.12004c0,0.39297 -0.1331,0.72255 -0.39931,0.98876c-0.2662,0.2662 -0.61481,0.39931 -1.0458,0.39931c-0.36762,0 -0.69086,-0.1331 -0.96974,-0.39931c-0.27888,-0.2662 -0.41832,-0.59579 -0.41832,-0.98876v-13.12004c0,-0.39297 0.13944,-0.72255 0.41832,-0.98876c0.29156,-0.2662 0.62748,-0.39931 1.00777,-0.39931zM187.40999,20.63333h10.13476v2.60499h-10.13476zM205.19784,28.52437c0,0.39297 -0.14578,0.72255 -0.43733,0.98876c-0.29156,0.2662 -0.62114,0.39931 -0.98876,0.39931c-0.43099,0 -0.77326,-0.1331 -1.02679,-0.39931c-0.25353,-0.2662 -0.38029,-0.59579 -0.38029,-0.98876v-13.12004c0,-0.39297 0.1331,-0.72255 0.39931,-0.98876c0.27888,-0.2662 0.62748,-0.39931 1.0458,-0.39931c0.36762,0 0.69086,0.1331 0.96974,0.39931c0.27888,0.2662 0.41832,0.59579 0.41832,0.98876zM209.97714,14.01627h7.60582c0.39297,0 0.72255,0.12676 0.98876,0.38029c0.2662,0.25353 0.39931,0.57678 0.39931,0.96974c0,0.36762 -0.1331,0.67185 -0.39931,0.9127c-0.2662,0.24085 -0.59579,0.36128 -0.98876,0.36128h-6.35086l0.20916,-0.39931v4.43039l-0.19015,-0.19015h5.32407c0.39297,0 0.71621,0.12676 0.96974,0.38029c0.2662,0.25353 0.39931,0.57678 0.39931,0.96974c0,0.38029 -0.1331,0.69086 -0.39931,0.93171c-0.25353,0.22817 -0.57678,0.34226 -0.96974,0.34226h-5.24802l0.11409,-0.19015v4.58251l-0.19015,-0.19015h6.33185c0.39297,0 0.72255,0.1331 0.98876,0.39931c0.2662,0.25353 0.39931,0.55776 0.39931,0.9127c0,0.38029 -0.1331,0.69086 -0.39931,0.93171c-0.2662,0.24085 -0.59579,0.36128 -0.98876,0.36128h-7.60582c-0.39297,0 -0.72255,-0.1331 -0.98876,-0.39931c-0.25353,-0.2662 -0.38029,-0.59579 -0.38029,-0.98876v-13.12004c0,-0.39297 0.12676,-0.72255 0.38029,-0.98876c0.2662,-0.2662 0.59579,-0.39931 0.98876,-0.39931zM233.19328,13.97824c0.38029,0 0.70988,0.12676 0.98876,0.38029c0.27888,0.24085 0.41832,0.55142 0.41832,0.93171c0,0.20282 -0.04437,0.40565 -0.1331,0.60847l-5.60929,13.12004c-0.13944,0.30423 -0.33592,0.53241 -0.58945,0.68452c-0.25353,0.13944 -0.50705,0.20916 -0.76058,0.20916c-0.24085,-0.01267 -0.47536,-0.08873 -0.70354,-0.22817c-0.22817,-0.15212 -0.39931,-0.36128 -0.51339,-0.62748l-5.60929,-13.17708c-0.0507,-0.08873 -0.0824,-0.18381 -0.09507,-0.28522c-0.01267,-0.10141 -0.01901,-0.19649 -0.01901,-0.28522c0,-0.43099 0.15846,-0.76058 0.47536,-0.98876c0.31691,-0.24085 0.62114,-0.36128 0.9127,-0.36128c0.57044,0 0.98242,0.29156 1.23595,0.87467l4.98181,11.69395l-0.79861,0.01901l4.56349,-11.71296c0.25353,-0.57044 0.67185,-0.85565 1.25496,-0.85565zM238.35636,14.01627h7.60582c0.39297,0 0.72255,0.12676 0.98876,0.38029c0.2662,0.25353 0.39931,0.57678 0.39931,0.96974c0,0.36762 -0.1331,0.67185 -0.39931,0.9127c-0.2662,0.24085 -0.59579,0.36128 -0.98876,0.36128h-6.35086l0.20916,-0.39931v4.43039l-0.19015,-0.19015h5.32407c0.39297,0 0.71621,0.12676 0.96974,0.38029c0.2662,0.25353 0.39931,0.57678 0.39931,0.96974c0,0.38029 -0.1331,0.69086 -0.39931,0.93171c-0.25353,0.22817 -0.57678,0.34226 -0.96974,0.34226h-5.24802l0.11409,-0.19015v4.58251l-0.19015,-0.19015h6.33185c0.39297,0 0.72255,0.1331 0.98876,0.39931c0.2662,0.25353 0.39931,0.55776 0.39931,0.9127c0,0.38029 -0.1331,0.69086 -0.39931,0.93171c-0.2662,0.24085 -0.59579,0.36128 -0.98876,0.36128h-7.60582c-0.39297,0 -0.72255,-0.1331 -0.98876,-0.39931c-0.25353,-0.2662 -0.38029,-0.59579 -0.38029,-0.98876v-13.12004c0,-0.39297 0.12676,-0.72255 0.38029,-0.98876c0.2662,-0.2662 0.59579,-0.39931 0.98876,-0.39931zM251.39971,13.99726c0.20282,0 0.42466,0.05704 0.66551,0.17113c0.24085,0.11409 0.41832,0.25986 0.53241,0.43733l5.51422,8.4995l-1.14087,-0.05704l5.66634,-8.44246c0.27888,-0.40565 0.64649,-0.60847 1.10284,-0.60847c0.36762,0 0.69086,0.1331 0.96974,0.39931c0.29156,0.25353 0.43733,0.58311 0.43733,0.98876v13.13905c0,0.39297 -0.12676,0.72255 -0.38029,0.98876c-0.25353,0.2662 -0.59579,0.39931 -1.02679,0.39931c-0.41832,0 -0.76058,-0.1331 -1.02679,-0.39931c-0.2662,-0.2662 -0.39931,-0.59579 -0.39931,-0.98876v-10.68618l0.89368,0.20916l-4.63955,7.0544c-0.13944,0.16479 -0.31057,0.31057 -0.51339,0.43733c-0.20282,0.11409 -0.41198,0.16479 -0.62748,0.15212c-0.19015,0.01267 -0.38663,-0.03803 -0.58945,-0.15212c-0.20282,-0.12676 -0.37395,-0.27254 -0.51339,-0.43733l-4.33532,-6.86425l0.58945,-1.19792v11.48479c0,0.39297 -0.12043,0.72255 -0.36128,0.98876c-0.24085,0.2662 -0.55776,0.39931 -0.95073,0.39931c-0.38029,0 -0.69086,-0.1331 -0.93171,-0.39931c-0.24085,-0.2662 -0.36128,-0.59579 -0.36128,-0.98876v-13.13905c0,-0.38029 0.13944,-0.70354 0.41832,-0.96974c0.27888,-0.27888 0.61481,-0.41832 1.00777,-0.41832zM269.93674,14.01627h7.60582c0.39297,0 0.72255,0.12676 0.98876,0.38029c0.2662,0.25353 0.39931,0.57678 0.39931,0.96974c0,0.36762 -0.1331,0.67185 -0.39931,0.9127c-0.2662,0.24085 -0.59579,0.36128 -0.98876,0.36128h-6.35086l0.20916,-0.39931v4.43039l-0.19015,-0.19015h5.32407c0.39297,0 0.71621,0.12676 0.96974,0.38029c0.2662,0.25353 0.39931,0.57678 0.39931,0.96974c0,0.38029 -0.1331,0.69086 -0.39931,0.93171c-0.25353,0.22817 -0.57678,0.34226 -0.96974,0.34226h-5.24802l0.11409,-0.19015v4.58251l-0.19015,-0.19015h6.33185c0.39297,0 0.72255,0.1331 0.98876,0.39931c0.2662,0.25353 0.39931,0.55776 0.39931,0.9127c0,0.38029 -0.1331,0.69086 -0.39931,0.93171c-0.2662,0.24085 -0.59579,0.36128 -0.98876,0.36128h-7.60582c-0.39297,0 -0.72255,-0.1331 -0.98876,-0.39931c-0.25353,-0.2662 -0.38029,-0.59579 -0.38029,-0.98876v-13.12004c0,-0.39297 0.12676,-0.72255 0.38029,-0.98876c0.2662,-0.2662 0.59579,-0.39931 0.98876,-0.39931zM293.60922,14.01627c0.35494,0 0.64649,0.12043 0.87467,0.36128c0.22817,0.24085 0.34226,0.54508 0.34226,0.9127v13.23413c0,0.39297 -0.1331,0.72255 -0.39931,0.98876c-0.2662,0.2662 -0.59579,0.39931 -0.98876,0.39931c-0.19015,0 -0.39297,-0.03169 -0.60847,-0.09507c-0.20282,-0.07606 -0.35494,-0.17113 -0.45635,-0.28522l-8.91782,-11.33267l0.58945,-0.36128v10.80026c0,0.36762 -0.12043,0.67185 -0.36128,0.9127c-0.22817,0.24085 -0.53241,0.36128 -0.9127,0.36128c-0.36762,0 -0.66551,-0.12043 -0.89368,-0.36128c-0.2155,-0.24085 -0.32325,-0.54508 -0.32325,-0.9127v-13.23413c0,-0.39297 0.12676,-0.72255 0.38029,-0.98876c0.2662,-0.2662 0.59579,-0.39931 0.98876,-0.39931c0.2155,0 0.43733,0.04437 0.66551,0.1331c0.22817,0.07606 0.39297,0.19649 0.49438,0.36128l8.65162,11.04745l-0.38029,0.2662v-10.53406c0,-0.36762 0.11409,-0.67185 0.34226,-0.9127c0.22817,-0.24085 0.53241,-0.36128 0.9127,-0.36128zM303.62209,29.91243c-0.43099,0 -0.78594,-0.1331 -1.06481,-0.39931c-0.2662,-0.2662 -0.39931,-0.59579 -0.39931,-0.98876v-13.15807h2.94726v13.15807c0,0.39297 -0.13944,0.72255 -0.41832,0.98876c-0.27888,0.2662 -0.63382,0.39931 -1.06481,0.39931zM298.60225,16.64027c-0.39297,0 -0.72255,-0.12043 -0.98876,-0.36128c-0.2662,-0.25353 -0.39931,-0.57678 -0.39931,-0.96974c0,-0.39297 0.1331,-0.70354 0.39931,-0.93171c0.2662,-0.24085 0.59579,-0.36128 0.98876,-0.36128h10.07771c0.39297,0 0.72255,0.12043 0.98876,0.36128c0.2662,0.24085 0.39931,0.55776 0.39931,0.95073c0,0.39297 -0.1331,0.70988 -0.39931,0.95073c-0.2662,0.24085 -0.59579,0.36128 -0.98876,0.36128zM317.54921,30.14061c-1.05214,0 -2.00287,-0.1331 -2.85218,-0.39931c-0.84931,-0.2662 -1.66061,-0.72889 -2.43386,-1.38806c-0.20282,-0.17747 -0.35494,-0.36762 -0.45635,-0.57044c-0.10141,-0.2155 -0.15212,-0.43099 -0.15212,-0.64649c0,-0.34226 0.12043,-0.64649 0.36128,-0.9127c0.25353,-0.2662 0.57044,-0.39931 0.95073,-0.39931c0.29156,0 0.55142,0.08873 0.7796,0.2662c0.57044,0.46902 1.14087,0.8303 1.71131,1.08383c0.57044,0.24085 1.26763,0.36128 2.0916,0.36128c0.55776,0 1.07116,-0.08873 1.54018,-0.2662c0.46902,-0.17747 0.84931,-0.41198 1.14087,-0.70354c0.29156,-0.29156 0.43733,-0.62748 0.43733,-1.00777c0,-0.45635 -0.13944,-0.84298 -0.41832,-1.15989c-0.2662,-0.31691 -0.68452,-0.58311 -1.25496,-0.79861c-0.55776,-0.22817 -1.26763,-0.39931 -2.12963,-0.51339c-0.81129,-0.12676 -1.5275,-0.31057 -2.14864,-0.55142c-0.62114,-0.25353 -1.14087,-0.57044 -1.55919,-0.95073c-0.41832,-0.39297 -0.73523,-0.84931 -0.95073,-1.36905c-0.20282,-0.53241 -0.30423,-1.12186 -0.30423,-1.76835c0,-0.98876 0.25353,-1.8254 0.76058,-2.50992c0.50705,-0.6972 1.19158,-1.22961 2.05357,-1.59722c0.86199,-0.36762 1.81272,-0.55142 2.85218,-0.55142c0.98876,0 1.90146,0.15212 2.7381,0.45635c0.84931,0.29156 1.53384,0.66551 2.05357,1.12186c0.44367,0.34226 0.66551,0.74157 0.66551,1.19792c0,0.32959 -0.1331,0.63382 -0.39931,0.9127c-0.25353,0.2662 -0.55142,0.39931 -0.89368,0.39931c-0.22817,0 -0.43099,-0.06972 -0.60847,-0.20916c-0.24085,-0.20282 -0.57044,-0.39931 -0.98876,-0.58945c-0.40565,-0.19015 -0.83664,-0.3486 -1.29299,-0.47536c-0.45635,-0.12676 -0.88101,-0.19015 -1.27397,-0.19015c-0.64649,0 -1.19158,0.0824 -1.63525,0.24719c-0.44367,0.16479 -0.7796,0.39297 -1.00777,0.68452c-0.22817,0.27888 -0.34226,0.60847 -0.34226,0.98876c0,0.45635 0.1331,0.8303 0.39931,1.12186c0.2662,0.29156 0.64649,0.52607 1.14087,0.70354c0.49438,0.17747 1.09017,0.33592 1.78737,0.47536c0.9127,0.16479 1.71131,0.36128 2.39583,0.58945c0.6972,0.22817 1.26763,0.51973 1.71131,0.87467c0.45635,0.35494 0.79861,0.79861 1.02679,1.33102c0.22817,0.53241 0.34226,1.18524 0.34226,1.9585c0,0.98876 -0.27254,1.83807 -0.81763,2.54795c-0.54508,0.70988 -1.2613,1.25496 -2.14864,1.63525c-0.88734,0.38029 -1.84441,0.57044 -2.8712,0.57044zM333.18181,24.30314c-0.40565,0 -0.74157,-0.12676 -1.00777,-0.38029c-0.25353,-0.2662 -0.38029,-0.59579 -0.38029,-0.98876c0,-0.39297 0.12676,-0.70988 0.38029,-0.95073c0.2662,-0.25353 0.60213,-0.38029 1.00777,-0.38029h3.93601c0.39297,0 0.72255,0.1331 0.98876,0.39931c0.2662,0.2662 0.39931,0.59579 0.39931,0.98876c0,0.38029 -0.1331,0.6972 -0.39931,0.95073c-0.2662,0.24085 -0.59579,0.36128 -0.98876,0.36128z" fill="#e4e4e4" stroke="none" stroke-width="1" stroke-linecap="square"/><path d="M396.75,39.21435h-313.5" fill="none" stroke="#e4e4e4" stroke-width="3" stroke-linecap="round"/></g></g></svg>