<svg version="1.1" xmlns="http://www.w3.org/2000/svg" xmlns:xlink="http://www.w3.org/1999/xlink" width="695.53558" height="529.55283" viewBox="0,0,695.53558,529.55283"><g transform="translate(110.89528,86.93791)"><g data-paper-data="{&quot;isPaintingLayer&quot;:true}" fill-rule="nonzero" stroke="none" stroke-linecap="butt" stroke-linejoin="miter" stroke-miterlimit="10" stroke-dasharray="" stroke-dashoffset="0" style="mix-blend-mode: normal"><path d="M-102.94497,442.61492v-528.64939h687.58527v528.64939z" fill="none" stroke-width="0"/><path d="M-110.89528,435.59936v-522.53727h694.92685v522.53727z" fill="none" stroke-width="0"/><g><path d="M430.67214,338.03912l-44.40162,5.34159l-3.44438,-28.6312l44.40162,-5.34159z" fill="#e3e3e3" stroke-width="0"/><g fill="#0d131c" stroke-width="1"><path d="M428.02876,340.34111l-38.64432,4.64898l0.12233,1.0169c0.06752,0.56131 -0.66581,1.11172 -1.40313,1.20042c-0.73731,0.0887 -1.58026,-0.27197 -1.64779,-0.83339l-0.12233,-1.0169l-3.91493,-32.54258l-0.12233,-1.0169c-0.06752,-0.56131 0.66581,-1.11172 1.40313,-1.20042c0.73731,-0.0887 1.58027,0.27208 1.6478,0.83339l0.12233,1.0169l38.64432,-4.64898l-0.12234,-1.0169c-0.06752,-0.56131 0.65465,-1.11037 1.40313,-1.20042c0.74848,-0.09004 1.58027,0.27208 1.64779,0.83339l0.12234,1.0169l3.91492,32.54258l0.12234,1.0169c0.06752,0.56131 -0.65465,1.11037 -1.40313,1.20042c-0.74848,0.09004 -1.58026,-0.27197 -1.64779,-0.83339zM410.37071,329.80266l5.62347,2.41641c1.03267,-1.94721 1.50675,-4.21507 1.22364,-6.56834c-0.26389,-2.19354 -1.15387,-4.155 -2.45733,-5.74477l-4.86214,3.6376c0.6932,0.76158 1.17181,1.73034 1.3042,2.83083c0.1512,1.25682 -0.18412,2.44864 -0.83184,3.42829zM408.78236,326.75421c-0.15097,-1.25491 -1.29032,-2.14947 -2.54512,-1.99851c-1.25502,0.15098 -2.14958,1.29022 -1.99861,2.54512c0.15098,1.25502 1.29021,2.14959 2.54523,1.99861c1.2547,-0.15094 2.14948,-1.2902 1.9985,-2.54522zM406.20477,321.86887l-0.72733,-6.0459c-4.85429,0.06094 -8.23964,3.08448 -8.75199,6.14624l5.9253,2.35334c0.6835,-1.1871 1.54031,-2.04021 3.55403,-2.45368zM402.96966,330.35263l-4.53195,3.60317c1.27271,2.59058 5.11284,5.36522 9.70556,4.02675l-0.72732,-6.0458c-2.05495,0.07071 -3.49643,-0.54098 -4.4463,-1.58412z"/><path d="M383.93269,342.55087l-3.05092,0.36704l-0.6117,-5.08473l3.05093,-0.36703z"/></g></g><g><path d="M435.70441,340.66219l-0.94422,-44.7118l28.83121,-0.60886l0.94422,44.71179z" fill="#e3e3e3" stroke-width="0"/><g fill="#0d131c" stroke-width="1"><path d="M433.67384,337.80502l-0.82179,-38.91427l-1.02401,0.02162c-0.56523,0.01193 -1.04076,-0.77203 -1.05645,-1.51449c-0.01568,-0.74246 0.42623,-1.5458 0.99157,-1.55774l1.02401,-0.02162l32.76991,-0.69203l1.02401,-0.02162c0.56523,-0.01193 1.04076,0.77203 1.05645,1.51449c0.01568,0.74246 -0.42634,1.54581 -0.99157,1.55775l-1.02401,0.02162l0.82179,38.91427l1.02401,-0.02163c0.56523,-0.01193 1.04052,0.76079 1.05645,1.5145c0.01591,0.75371 -0.42634,1.54581 -0.99157,1.55774l-1.02401,0.02163l-32.76991,0.69203l-1.02401,0.02163c-0.56523,0.01193 -1.04052,-0.76079 -1.05645,-1.5145c-0.01591,-0.75371 0.42623,-1.5458 0.99157,-1.55774zM445.89957,321.27029l-2.95831,5.35825c1.83608,1.21936 4.04625,1.91441 6.41596,1.86436c2.20887,-0.04665 4.24841,-0.7392 5.95879,-1.87981l-3.14124,-5.19665c-0.82613,0.61485 -1.8373,0.99577 -2.94548,1.01917c-1.2656,0.02673 -2.41862,-0.4243 -3.32973,-1.16532zM449.08959,319.98979c1.26367,-0.02669 2.26606,-1.07243 2.23937,-2.336c-0.02669,-1.26378 -1.07232,-2.26616 -2.33599,-2.23948c-1.26378,0.02669 -2.26617,1.07231 -2.23948,2.3361c0.02668,1.26346 1.07231,2.26606 2.3361,2.23937zM454.20496,317.90569l6.08813,-0.12857c0.41727,-4.8367 -2.25828,-8.50329 -5.25473,-9.31458l-2.92526,5.66482c1.11404,0.79705 1.87865,1.73369 2.09186,3.77833zM446.08091,313.85105l-3.13949,-4.86467c-2.70329,1.01148 -5.84252,4.55979 -4.96272,9.26196l6.08803,-0.12857c0.13195,-2.05193 0.88258,-3.42619 2.01417,-4.26874z"/><path d="M435.81616,293.70562l-0.06488,-3.07223l5.12025,-0.10813l0.06488,3.07224z"/></g></g></g></g></svg>