<svg version="1.1" xmlns="http://www.w3.org/2000/svg" xmlns:xlink="http://www.w3.org/1999/xlink" width="192" height="52" viewBox="0,0,192,52"><defs><linearGradient x1="169.96192" y1="165.16931" x2="169.96192" y2="194.83069" gradientUnits="userSpaceOnUse" id="color-1"><stop offset="0" stop-color="#edd246"/><stop offset="1" stop-color="#b5a426"/></linearGradient><linearGradient x1="261.32713" y1="173.30306" x2="261.32713" y2="186.69695" gradientUnits="userSpaceOnUse" id="color-2"><stop offset="0" stop-color="#ecd146"/><stop offset="1" stop-color="#b5a426"/></linearGradient></defs><g transform="translate(-144,-154.14706)"><g data-paper-data="{&quot;isPaintingLayer&quot;:true}" fill-rule="nonzero" stroke-linejoin="miter" stroke-miterlimit="10" stroke-dasharray="" stroke-dashoffset="0" style="mix-blend-mode: normal"><path d="M144,200.43473c0,-10.92171 0,-34.22737 0,-40.37037c0,-3.53261 2.14349,-5.9173 5.67611,-5.9173c15.91527,0 142.90023,0 177.59259,0c5.5442,0 8.7313,4.46151 8.7313,8.3247c0,5.82275 0,22.89413 0,33.88889c0,5.71375 -3.3299,9.78641 -9.10167,9.78641c-34.95274,0 -159.45596,0 -176.2963,0c-3.70264,0 -6.60203,-2.22479 -6.60203,-5.71233z" fill-opacity="0.80154" fill="#181a1e" stroke="none" stroke-width="0" stroke-linecap="butt"/><g stroke-linecap="butt"><path d="M155.10372,191.14935c0,-6.70355 0,-20.458 0,-23.12124c0,-1.17051 1.31003,-2.9066 3.00503,-2.85779c3.57841,0.10303 17.25507,0 23.05579,0c1.86633,0 3.52801,1.09855 3.59956,2.78866c0.12607,2.97834 0,16.13331 0,22.98666c0,2.35106 -1.60712,3.88505 -4.04339,3.88505c-6.61616,0 -19.34731,0 -22.61197,0c-1.49978,0 -3.00503,-1.4501 -3.00503,-3.68134z" fill="#0a0d10" stroke="url(#color-1)" stroke-width="2"/><path d="M174.0286,187.60914v1.72066h-6.8266v-1.72058h0.72648c0.14483,-0.19119 0.46321,-0.50261 0.48544,-0.65659c0.02784,-0.1944 -0.67532,-1.87784 -0.70291,-2.07223c-0.02784,-0.1941 -0.02785,-1.77605 -0.02785,-1.9145c0,-0.13896 -0.03696,-0.68468 -0.03696,-0.68468l-0.47181,0.05569c0,0 -0.58293,-0.49962 -0.83246,-0.77703c-0.24983,-0.27771 -0.27767,-0.55534 -0.27767,-0.77707c0,-0.22228 -0.19414,-1.83152 -0.1663,-2.02591c0.02755,-0.19414 0.24957,-2.19246 0.30497,-2.80295c0.05572,-0.61026 0.24986,-0.86009 0.55509,-1.08233c0.30522,-0.22173 1.38755,-0.83246 1.38755,-0.83246v-0.66599c0,0 -0.49936,-0.24953 -0.41638,-0.58264c-0.22169,-0.3885 -0.36065,-0.91574 -0.0554,-1.19312c-0.13871,-0.3331 0.3885,-0.91578 1.02686,-0.88819c0.66591,-0.16651 1.47082,0.22202 1.44298,0.74919c0.11086,0.4994 -0.11112,0.4994 -0.22199,0.55512l-0.01847,0.18503l0.07391,0.42545c0,0 0.01847,0.07391 -0.16655,0.07391v0.51813c0,0.07387 -0.12934,0.14804 -0.33285,0.0554v0.37006c0,0 0.40701,0.1296 0.68443,0.1296c0.27742,0 0.9621,0 1.40603,0.40701c0.44397,0.40672 1.14713,1.77605 1.40603,2.09042c0.25923,0.31466 0.2035,0.75859 -0.01844,0.98057c-0.22199,0.22199 -0.72138,0.11112 -0.99905,-0.2035c-0.27738,-0.31466 -0.94358,-1.27672 -0.94358,-1.27672c0,0 0.01847,3.81111 0.01847,3.95918c0,0.14807 0.49054,2.85838 0.56445,3.15452c0.27738,0.38824 0.61048,1.25766 0.70287,1.90539c0.09261,0.64748 0.21287,1.43362 0.30522,1.6556c0.09264,0.22194 0.49965,0.83272 0.72164,1.01775c0.04767,0.03962 0.09268,0.09104 0.13149,0.14782zM167.72925,178.2018l-0.41609,-1.08233l-0.44397,1.41539l-0.05569,1.88695l0.55505,0.58267c0,0 -0.08299,-0.55483 -0.02759,-0.88789c0.05543,-0.33314 0.38824,-1.9148 0.38828,-1.9148zM172.07769,187.60914c-0.13842,-0.14541 -0.24042,-0.25438 -0.25059,-0.31437c-0.01847,-0.11112 -0.2035,-0.85119 -0.2035,-0.85119c0,0 -0.91574,-2.11826 -1.08229,-2.48832c-0.16655,-0.3698 -1.16531,-2.71941 -1.23948,-2.90444c0,0 -0.06454,3.46886 -0.00911,3.63541c0.05543,0.16655 0.23135,2.1828 0.23135,2.26634c0,0.04927 -0.01472,0.37786 -0.04687,0.65659z" fill="#c0ad2c" stroke="none" stroke-width="1"/><path d="M175.69476,171.31718c0,0 -1.06954,-0.36578 -1.43037,-0.20679c-0.40508,0.17849 -0.88276,1.22599 -0.88276,1.22599c0,0 0.36582,-1.06944 0.19444,-1.4584c-0.16829,-0.38196 -1.21363,-0.85473 -1.21363,-0.85473c0,0 1.11206,0.29748 1.51888,0.11823c0.35795,-0.15772 0.79426,-1.13743 0.79426,-1.13743c0,0 -0.2591,1.0457 -0.08395,1.44321c0.16383,0.37183 1.10315,0.86993 1.10315,0.86993z" fill="#ffffff" stroke="none" stroke-width="0"/><path d="M165.81918,168.58122c0,0 -1.09363,0.28578 -1.30662,0.61762c-0.23911,0.37252 -0.05878,1.5096 -0.05878,1.5096c0,0 -0.2857,-1.09357 -0.6434,-1.32317c-0.35126,-0.22546 -1.48381,-0.04223 -1.48381,-0.04223c0,0 1.09136,-0.36621 1.3315,-0.74033c0.21129,-0.32919 0.03391,-1.38688 0.03391,-1.38688c0,0 0.36156,1.01484 0.72712,1.24948c0.34194,0.21948 1.4001,0.11592 1.4001,0.11592z" fill="#ffffff" stroke="none" stroke-width="0"/><path d="M165.08714,185.77576c0,0 -1.88826,0.49343 -2.25601,1.06637c-0.41285,0.64319 -0.10148,2.60647 -0.10148,2.60647c0,0 -0.4933,-1.88816 -1.1109,-2.28459c-0.60648,-0.38928 -2.56194,-0.07292 -2.56194,-0.07292c0,0 1.88434,-0.63231 2.29896,-1.27826c0.36482,-0.56837 0.05854,-2.39458 0.05854,-2.39458c0,0 0.62427,1.75221 1.25544,2.15735c0.5904,0.37897 2.41741,0.20016 2.41741,0.20016z" fill="#ffffff" stroke="none" stroke-width="0"/></g><path d="M203.78051,176.34561l-4.03072,9.50435c-0.0941,0.24049 -0.23003,0.4287 -0.40778,0.56461c-0.17776,0.12547 -0.37641,0.1882 -0.59598,0.1882c-0.33459,0 -0.58553,-0.0941 -0.75282,-0.28231c-0.15684,-0.1882 -0.23525,-0.41823 -0.23525,-0.69008c0,-0.11502 0.02091,-0.23525 0.06273,-0.36072l4.65808,-11.19819c0.0941,-0.25094 0.24571,-0.44437 0.45483,-0.58029c0.20911,-0.13592 0.42869,-0.19343 0.65872,-0.17252c0.23002,0 0.43914,0.06796 0.62735,0.20389c0.19865,0.12547 0.33981,0.30845 0.42347,0.54894l4.61102,10.97862c0.06273,0.15684 0.0941,0.30845 0.0941,0.45483c0,0.33459 -0.10978,0.60121 -0.32935,0.79988c-0.21957,0.19865 -0.46006,0.298 -0.72145,0.298c-0.21957,0 -0.42346,-0.06796 -0.61166,-0.20388c-0.17776,-0.13592 -0.3189,-0.32412 -0.42346,-0.56461l-4.01504,-9.37888zM200.33008,183.57582l1.01945,-2.16436h5.06585l0.34504,2.16436zM220.02874,174.04011c0.32412,0.15684 0.51233,0.41301 0.56461,0.76851c0.05228,0.34504 -0.0366,0.66395 -0.26662,0.95671c-0.1673,0.21957 -0.38164,0.34504 -0.64303,0.37641c-0.25094,0.02091 -0.50711,-0.03137 -0.7685,-0.15684c-0.29277,-0.13593 -0.60644,-0.24048 -0.94102,-0.31367c-0.33459,-0.07319 -0.67964,-0.10978 -1.03513,-0.10978c-0.67964,0 -1.28607,0.10456 -1.81931,0.31367c-0.5228,0.20911 -0.97239,0.51234 -1.3488,0.90966c-0.37641,0.38687 -0.66395,0.85215 -0.8626,1.39586c-0.1882,0.53325 -0.28231,1.124 -0.28231,1.77227c0,0.76328 0.10979,1.42723 0.32936,1.99184c0.21957,0.55416 0.5228,1.01945 0.90966,1.39586c0.38686,0.37641 0.84169,0.65872 1.36449,0.84692c0.52279,0.17775 1.09263,0.26663 1.70953,0.26663c0.33458,0 0.66917,-0.03137 1.00376,-0.0941c0.33458,-0.06273 0.65872,-0.17775 0.97239,-0.34504c0.26139,-0.12547 0.51757,-0.1673 0.76851,-0.12547c0.26139,0.03137 0.48096,0.16207 0.65872,0.3921c0.25094,0.31367 0.33981,0.63781 0.26663,0.97239c-0.06273,0.32412 -0.25094,0.55939 -0.56461,0.70577c-0.32413,0.16729 -0.65872,0.30323 -1.00376,0.40778c-0.34504,0.10455 -0.69531,0.18298 -1.05081,0.23526c-0.34504,0.06273 -0.69531,0.0941 -1.05081,0.0941c-0.89921,0 -1.75135,-0.14115 -2.55645,-0.42346c-0.80511,-0.29276 -1.52656,-0.71622 -2.16436,-1.27038c-0.62735,-0.56461 -1.124,-1.27038 -1.48995,-2.1173c-0.35549,-0.84692 -0.53325,-1.82454 -0.53325,-2.93285c0,-0.96193 0.16207,-1.84545 0.4862,-2.65055c0.33459,-0.81555 0.80511,-1.5161 1.41154,-2.10162c0.60643,-0.59598 1.31743,-1.06126 2.13299,-1.39585c0.826,-0.33459 1.73044,-0.50188 2.71329,-0.50188c0.5437,0 1.07694,0.06273 1.59974,0.1882c0.52279,0.12547 1.01945,0.30845 1.48996,0.54894zM223.78714,173.39707c0.30322,0 0.56984,0.10979 0.79988,0.32936c0.23002,0.21957 0.34504,0.49142 0.34504,0.81555v10.82178c0,0.32412 -0.12024,0.59598 -0.36072,0.81555c-0.24049,0.21957 -0.51234,0.32936 -0.81555,0.32936c-0.3555,0 -0.63781,-0.10978 -0.84692,-0.32935c-0.20912,-0.21957 -0.31367,-0.49143 -0.31367,-0.81555v-10.82178c0,-0.32413 0.10979,-0.59598 0.32936,-0.81555c0.23002,-0.21957 0.51757,-0.32935 0.86261,-0.32935zM232.08385,173.39707c0.34504,0 0.62212,0.10979 0.83124,0.32936c0.21957,0.21957 0.32936,0.49142 0.32936,0.81555v10.82178c0,0.32412 -0.10978,0.59598 -0.32935,0.81555c-0.21957,0.21957 -0.50711,0.32936 -0.8626,0.32936c-0.30322,0 -0.56984,-0.10978 -0.79987,-0.32935c-0.23002,-0.21957 -0.34504,-0.49143 -0.34504,-0.81555v-10.82178c0,-0.32413 0.11502,-0.59598 0.34504,-0.81555c0.24049,-0.21957 0.51757,-0.32935 0.83124,-0.32935zM223.72441,178.85501h8.35943v2.14868h-8.35943zM238.39634,185.36377c0,0.32412 -0.12024,0.59598 -0.36072,0.81555c-0.24049,0.21957 -0.51234,0.32936 -0.81555,0.32936c-0.3555,0 -0.63781,-0.10978 -0.84692,-0.32935c-0.20912,-0.21957 -0.31367,-0.49143 -0.31367,-0.81555v-10.82178c0,-0.32413 0.10979,-0.59598 0.32936,-0.81555c0.23002,-0.21957 0.51757,-0.32935 0.86261,-0.32935c0.30322,0 0.56984,0.10979 0.79988,0.32936c0.23002,0.21957 0.34504,0.49142 0.34504,0.81555zM242.33843,173.39707h6.2735c0.32413,0 0.59598,0.10455 0.81555,0.31367c0.21957,0.20911 0.32936,0.47574 0.32936,0.79988c0,0.30322 -0.10978,0.55416 -0.32935,0.75282c-0.21957,0.19866 -0.49142,0.298 -0.81555,0.298h-5.23837l0.17253,-0.32935v3.65432l-0.15684,-0.15684h4.39145c0.32413,0 0.59075,0.10456 0.79988,0.31367c0.21957,0.20911 0.32936,0.47574 0.32936,0.79988c0,0.31367 -0.10978,0.56984 -0.32935,0.76851c-0.20911,0.1882 -0.47574,0.28231 -0.79987,0.28231h-4.32871l0.0941,-0.15684v3.77979l-0.15684,-0.15684h5.22269c0.32413,0 0.59598,0.10979 0.81555,0.32936c0.21957,0.20911 0.32936,0.46006 0.32936,0.75282c0,0.31367 -0.10978,0.56984 -0.32935,0.76851c-0.21957,0.19865 -0.49142,0.298 -0.81555,0.298h-6.2735c-0.32412,0 -0.59598,-0.10978 -0.81555,-0.32935c-0.20911,-0.21957 -0.31367,-0.49143 -0.31367,-0.81555v-10.82178c0,-0.32413 0.10456,-0.59598 0.31367,-0.81555c0.21957,-0.21957 0.49143,-0.32935 0.81555,-0.32935zM261.4878,173.3657c0.31367,0 0.58552,0.10455 0.81555,0.31367c0.23002,0.19866 0.34504,0.45483 0.34504,0.76851c0,0.1673 -0.0366,0.33458 -0.10978,0.50188l-4.6267,10.82178c-0.11502,0.25094 -0.27708,0.43914 -0.48619,0.56461c-0.20912,0.11502 -0.41824,0.17253 -0.62735,0.17253c-0.19866,-0.01045 -0.39209,-0.07318 -0.58029,-0.1882c-0.1882,-0.12547 -0.32935,-0.29799 -0.42346,-0.51756l-4.6267,-10.86883c-0.04183,-0.07319 -0.06796,-0.15161 -0.07841,-0.23525c-0.01046,-0.08364 -0.01568,-0.16207 -0.01568,-0.23525c0,-0.3555 0.1307,-0.62735 0.3921,-0.81555c0.26139,-0.19865 0.51233,-0.29799 0.75282,-0.29799c0.47051,0 0.81033,0.24048 1.01945,0.72145l4.10914,9.64551l-0.65872,0.01569l3.7641,-9.66119c0.20911,-0.47051 0.55416,-0.70576 1.03513,-0.70576zM265.74643,173.39707h6.2735c0.32412,0 0.59598,0.10455 0.81555,0.31367c0.21957,0.20911 0.32936,0.47574 0.32936,0.79988c0,0.30322 -0.10978,0.55416 -0.32935,0.75282c-0.21957,0.19866 -0.49143,0.298 -0.81555,0.298h-5.23837l0.17253,-0.32935v3.65432l-0.15684,-0.15684h4.39145c0.32412,0 0.59075,0.10456 0.79988,0.31367c0.21957,0.20911 0.32935,0.47574 0.32935,0.79988c0,0.31367 -0.10978,0.56984 -0.32935,0.76851c-0.20912,0.1882 -0.47574,0.28231 -0.79988,0.28231h-4.32871l0.0941,-0.15684v3.77979l-0.15684,-0.15684h5.22269c0.32412,0 0.59598,0.10979 0.81555,0.32936c0.21957,0.20911 0.32936,0.46006 0.32936,0.75282c0,0.31367 -0.10978,0.56984 -0.32935,0.76851c-0.21957,0.19865 -0.49143,0.298 -0.81555,0.298h-6.2735c-0.32413,0 -0.59598,-0.10978 -0.81555,-0.32935c-0.20912,-0.21957 -0.31367,-0.49143 -0.31367,-0.81555v-10.82178c0,-0.32413 0.10455,-0.59598 0.31367,-0.81555c0.21957,-0.21957 0.49142,-0.32935 0.81555,-0.32935zM276.50497,173.38139c0.16729,0 0.35027,0.04706 0.54894,0.14116c0.19865,0.0941 0.34504,0.21434 0.43914,0.36073l4.54829,7.01064l-0.94102,-0.04705l4.67376,-6.96358c0.23002,-0.33459 0.53325,-0.50188 0.90966,-0.50188c0.30322,0 0.56984,0.10979 0.79988,0.32936c0.24048,0.20911 0.36073,0.48097 0.36073,0.81555v10.83747c0,0.32412 -0.10456,0.59598 -0.31367,0.81555c-0.20912,0.21957 -0.49143,0.32936 -0.84692,0.32936c-0.34504,0 -0.62735,-0.10978 -0.84692,-0.32935c-0.21957,-0.21957 -0.32935,-0.49143 -0.32935,-0.81555v-8.81426l0.73714,0.17253l-3.82683,5.81867c-0.11502,0.13593 -0.25617,0.25617 -0.42346,0.36073c-0.1673,0.0941 -0.33981,0.13593 -0.51756,0.12547c-0.15684,0.01046 -0.3189,-0.03137 -0.48619,-0.12547c-0.1673,-0.10456 -0.30845,-0.2248 -0.42347,-0.36072l-3.57589,-5.66183l0.4862,-0.98807v9.47298c0,0.32412 -0.09933,0.59598 -0.298,0.81555c-0.19865,0.21957 -0.46006,0.32936 -0.78419,0.32936c-0.31367,0 -0.56984,-0.10978 -0.7685,-0.32935c-0.19865,-0.21957 -0.29799,-0.49143 -0.29799,-0.81555v-10.83746c0,-0.31367 0.11502,-0.58029 0.34504,-0.79987c0.23002,-0.23002 0.50711,-0.34504 0.83123,-0.34504zM291.79482,173.39707h6.2735c0.32412,0 0.59598,0.10455 0.81555,0.31367c0.21957,0.20911 0.32936,0.47574 0.32936,0.79988c0,0.30322 -0.10978,0.55416 -0.32935,0.75282c-0.21957,0.19866 -0.49143,0.298 -0.81555,0.298h-5.23837l0.17253,-0.32935v3.65432l-0.15684,-0.15684h4.39145c0.32412,0 0.59075,0.10456 0.79988,0.31367c0.21957,0.20911 0.32936,0.47574 0.32936,0.79988c0,0.31367 -0.10978,0.56984 -0.32935,0.76851c-0.20912,0.1882 -0.47574,0.28231 -0.79987,0.28231h-4.32871l0.0941,-0.15684v3.77979l-0.15684,-0.15684h5.22269c0.32412,0 0.59598,0.10979 0.81555,0.32936c0.21957,0.20911 0.32936,0.46006 0.32936,0.75282c0,0.31367 -0.10978,0.56984 -0.32935,0.76851c-0.21957,0.19865 -0.49143,0.298 -0.81555,0.298h-6.2735c-0.32413,0 -0.59598,-0.10978 -0.81555,-0.32935c-0.20912,-0.21957 -0.31367,-0.49143 -0.31367,-0.81555v-10.82178c0,-0.32413 0.10455,-0.59598 0.31367,-0.81555c0.21957,-0.21957 0.49142,-0.32935 0.81555,-0.32935zM311.32059,173.39707c0.29276,0 0.53325,0.09933 0.72145,0.298c0.1882,0.19866 0.28231,0.4496 0.28231,0.75282v10.91588c0,0.32412 -0.10978,0.59598 -0.32935,0.81555c-0.21957,0.21957 -0.49143,0.32936 -0.81555,0.32936c-0.15684,0 -0.32412,-0.02614 -0.50188,-0.07841c-0.16729,-0.06273 -0.29276,-0.14115 -0.37641,-0.23525l-7.35567,-9.34751l0.4862,-0.29799v8.90837c0,0.30323 -0.09933,0.55417 -0.29799,0.75282c-0.1882,0.19865 -0.43914,0.298 -0.75282,0.298c-0.30323,0 -0.54893,-0.09933 -0.73713,-0.29799c-0.17776,-0.19865 -0.26662,-0.44959 -0.26662,-0.75282v-10.91588c0,-0.32413 0.10455,-0.59598 0.31367,-0.81555c0.21957,-0.21957 0.49142,-0.32935 0.81555,-0.32935c0.17775,0 0.36073,0.0366 0.54894,0.10979c0.1882,0.06273 0.32412,0.16207 0.40778,0.298l7.13611,9.11226l-0.31367,0.21957v-8.68879c0,-0.30322 0.0941,-0.55416 0.28231,-0.75282c0.1882,-0.19865 0.43914,-0.29799 0.75282,-0.29799zM319.57949,186.50868c-0.35549,0 -0.64826,-0.10978 -0.87829,-0.32935c-0.21957,-0.21957 -0.32935,-0.49143 -0.32935,-0.81555v-10.85315h2.43098v10.85315c0,0.32412 -0.11501,0.59598 -0.34504,0.81555c-0.23002,0.21957 -0.52279,0.32936 -0.87829,0.32936zM315.43899,175.56143c-0.32413,0 -0.59598,-0.09933 -0.81555,-0.29799c-0.21957,-0.20911 -0.32935,-0.47574 -0.32935,-0.79987c0,-0.32413 0.10979,-0.58029 0.32936,-0.7685c0.21957,-0.19865 0.49142,-0.29799 0.81555,-0.29799h8.31238c0.32413,0 0.59598,0.09933 0.81555,0.298c0.21957,0.19866 0.32936,0.46005 0.32936,0.78419c0,0.32413 -0.10978,0.58552 -0.32935,0.78419c-0.21957,0.19866 -0.49142,0.298 -0.81555,0.298z" fill="url(#color-2)" stroke="none" stroke-width="1" stroke-linecap="square"/></g></g></svg>