<svg version="1.1" xmlns="http://www.w3.org/2000/svg" xmlns:xlink="http://www.w3.org/1999/xlink" width="719.48181" height="545.36069" viewBox="0,0,719.48181,545.36069"><defs><linearGradient x1="425.91329" y1="218.83056" x2="425.91329" y2="440.38585" gradientUnits="userSpaceOnUse" id="color-1"><stop offset="0" stop-color="#344e5f" stop-opacity="0"/><stop offset="1" stop-color="#344e5f"/></linearGradient><linearGradient x1="425.91329" y1="218.83056" x2="425.91329" y2="440.38585" gradientUnits="userSpaceOnUse" id="color-2"><stop offset="0" stop-color="#344e5f" stop-opacity="0"/><stop offset="1" stop-color="#344e5f"/></linearGradient><linearGradient x1="425.91329" y1="266.8558" x2="425.91329" y2="441.04622" gradientUnits="userSpaceOnUse" id="color-3"><stop offset="0" stop-color="#344e5f" stop-opacity="0"/><stop offset="1" stop-color="#344e5f"/></linearGradient></defs><g transform="translate(121.32624,90.67765)"><g data-paper-data="{&quot;isPaintingLayer&quot;:true}" fill-rule="nonzero" stroke="none" stroke-width="0" stroke-linecap="butt" stroke-linejoin="miter" stroke-miterlimit="10" stroke-dasharray="" stroke-dashoffset="0" style="mix-blend-mode: normal"><path d="M531.55371,399.98233c0,59.20258 -78.88254,35.09145 -130.36785,37.19389c-5.24506,0.21419 -362.15457,13.23369 -370.97582,-3.31807c-2.6895,-5.04644 14.01916,-6.21829 9.91749,-10.2028c-6.46778,-6.28303 -16.81828,-31.44052 -17.01382,-33.07571c-0.82357,-6.88692 -0.26292,-66.69986 1.62874,-84.76927c-11.88523,-22.74531 36.44761,-101.2135 36.07452,-111.85369c-0.40265,-11.48329 231.02125,-11.71762 225.33215,-17.26892c-2.8233,-2.75491 100.71605,0.16136 120.98873,4.52787c41.92418,9.03001 79.58703,5.99559 108.0279,25.59358c50.17402,34.57382 16.38797,193.17313 16.38797,193.17313z" data-paper-data="{&quot;index&quot;:null}" fill="url(#color-1)"/><path d="" data-paper-data="{&quot;index&quot;:null}" fill="#344e5f"/><path d="" data-paper-data="{&quot;index&quot;:null}" fill="#344e5f"/><path d="" data-paper-data="{&quot;index&quot;:null}" fill="#344e5f"/><path d="" data-paper-data="{&quot;index&quot;:null}" fill="#344e5f"/><path d="" data-paper-data="{&quot;index&quot;:null}" fill="#344e5f"/><path d="" data-paper-data="{&quot;index&quot;:null}" fill="#344e5f"/><path d="" data-paper-data="{&quot;index&quot;:null}" fill="#344e5f"/><path d="" data-paper-data="{&quot;index&quot;:null}" fill="#344e5f"/><path d="" data-paper-data="{&quot;index&quot;:null}" fill="#344e5f"/><path d="" data-paper-data="{&quot;index&quot;:null}" fill="#344e5f"/><path d="" data-paper-data="{&quot;index&quot;:null}" fill="#344e5f"/><path d="" data-paper-data="{&quot;index&quot;:null}" fill="#344e5f"/><path d="" data-paper-data="{&quot;index&quot;:null}" fill="#344e5f"/><path d="" data-paper-data="{&quot;index&quot;:null}" fill="#344e5f"/><path d="" data-paper-data="{&quot;index&quot;:null}" fill="#344e5f"/><path d="" data-paper-data="{&quot;index&quot;:null}" fill="#344e5f"/><path d="" data-paper-data="{&quot;index&quot;:null}" fill="#344e5f"/><path d="" data-paper-data="{&quot;index&quot;:null}" fill="#344e5f"/><path d="" data-paper-data="{&quot;index&quot;:null}" fill="#344e5f"/><path d="" data-paper-data="{&quot;index&quot;:null}" fill="#344e5f"/><path d="" data-paper-data="{&quot;index&quot;:null}" fill="#344e5f"/><path d="M-108.95685,434.25526v-515.00682c0,0 99.25964,0 171.94458,0c125.95366,0 -171.94458,515.00682 -171.94458,515.00682z" fill="none"/><path d="" data-paper-data="{&quot;index&quot;:null}" fill="#344e5f"/><path d="" data-paper-data="{&quot;index&quot;:null}" fill="#344e5f"/><path d="M-117.125,454.68305l-4.20123,-539.55909l715.28058,-5.8016l4.20123,539.55909z" fill="none"/><path d="M-86.43863,440.31079v-521.94077h673.45271v521.94077z" fill="none"/><path d="M531.55371,399.98233c0,59.20258 -78.88254,35.09145 -130.36785,37.19389c-5.24506,0.21419 -334.11889,15.0232 -342.94014,-1.52856c-7.12394,-13.36701 -14.32551,4.14253 -15.23977,-14.10057c-0.11396,-2.27405 -2.9628,-42.78598 -3.19013,-44.68705c-0.82357,-6.88692 23.00072,-71.4719 13.55881,-89.54131c-11.88523,-22.74531 7.81543,-82.72188 7.44234,-93.36207c-0.40265,-11.48329 231.02125,-11.71763 225.33215,-17.26893c-2.8233,-2.75491 100.71605,0.16136 120.98873,4.52787c41.92418,9.03001 79.58703,5.99559 108.0279,25.59358c50.17402,34.57382 16.38797,193.17313 16.38797,193.17313z" data-paper-data="{&quot;index&quot;:null}" fill="url(#color-2)"/><path d="M531.55371,409.28031c0,46.54604 -78.88254,27.58948 -130.36785,29.24245c-5.24506,0.1684 -281.03005,-29.94377 -289.85131,-42.95704c-7.12394,-10.50936 -54.88776,41.26034 -55.80202,26.91732c-0.11396,-1.7879 -22.05092,-28.31581 -22.27825,-29.81046c-0.82357,-5.41461 29.56226,-57.76376 20.12035,-71.97023c-11.88523,-17.88274 7.81543,-65.0373 7.44234,-73.4028c-0.40265,-9.02835 231.02125,-9.21259 225.33215,-13.57711c-2.8233,-2.16596 100.71605,0.12686 120.98873,3.55988c41.92418,7.09954 79.58703,4.71383 108.0279,20.12209c50.17402,27.18251 16.38797,151.87589 16.38797,151.87589z" data-paper-data="{&quot;index&quot;:null}" fill="url(#color-3)"/></g></g></svg>