<svg version="1.1" xmlns="http://www.w3.org/2000/svg" xmlns:xlink="http://www.w3.org/1999/xlink" width="209.76879" height="192.39431" viewBox="0,0,209.76879,192.39431"><defs><radialGradient cx="239.18075" cy="175.08251" r="82.42819" gradientUnits="userSpaceOnUse" id="color-1"><stop offset="0" stop-color="#f2fdff" stop-opacity="0.37473"/><stop offset="1" stop-color="#f2fdff" stop-opacity="0"/></radialGradient></defs><g transform="translate(-135.11561,-83.80284)"><g data-paper-data="{&quot;isPaintingLayer&quot;:true}" fill-rule="nonzero" stroke="none" stroke-width="0" stroke-linecap="butt" stroke-linejoin="miter" stroke-miterlimit="10" stroke-dasharray="" stroke-dashoffset="0" style="mix-blend-mode: normal"><path d="M135.11561,176.06601c0,-45.52383 47.72283,-92.26317 93.24666,-92.26317c56.30274,0 117.21407,40.96071 116.51618,97.25913c-0.56181,45.32159 -60.19944,95.13519 -105.36987,95.13519c-45.52383,0 -104.39297,-54.60732 -104.39297,-100.13115z" fill="url(#color-1)"/><path d="M226.79776,154.0094l-11.56135,-2.07158l1.8963,-2.3757l6.15439,-0.79063l2.26378,-5.6512l2.63949,-0.94601z" fill="#a5dee6"/><path d="M269.52518,206.30992l-4.21112,3.14292l-46.35656,-11.07974c0,0 -1.34296,-1.79868 -2.90912,-3.89628c-0.38887,-0.52081 -0.25494,-3.90014 -0.25494,-3.90014c0,0 6.75152,-2.02292 7.64576,-2.99984c0.56044,-0.61226 -8.16756,1.93854 -8.16756,1.93854c0,0 -2.36689,0.75107 -3.1025,-0.23416c-1.71751,-2.30032 -4.72582,-6.32945 -4.72582,-6.32945c0,0 12.73612,-9.72558 19.34669,-14.31517c0.72881,-0.506 2.30238,0.60494 2.94409,0.11308c4.614,-3.53654 11.85989,-11.70056 18.73352,-17.70333c1.08431,-0.94693 8.33362,-1.64962 8.33362,-1.64962l-1.96852,-2.1846l7.20653,-6.18605l11.57004,16.08699c0,0 -1.16422,14.02414 -1.962,23.63413c-0.09005,1.08472 -6.33543,-1.55347 -6.41394,-0.60775c-0.04885,0.58841 6.06496,4.81146 6.02197,5.32942c-0.62102,7.48072 -1.73013,20.84103 -1.73013,20.84103z" fill="#a5dee6"/><path d="M269.26211,206.75208l-3.61828,2.72714c0,0 -22.53554,-29.89945 -32.72648,-43.42046c-0.93734,-1.24363 -0.1249,-4.1592 -0.1249,-4.1592c0,0 -2.93912,0.09395 -3.19472,-0.24517c-3.02117,-4.00839 -6.4485,-8.55567 -6.4485,-8.55567l3.48263,0.54677l0.13565,-3.2739z" fill="#506b6f"/><path d="M221.56287,139.30086c0,0 1.88497,-3.7437 1.61364,-5.13778c-0.30654,-1.57494 -3.36018,-3.83566 -3.36018,-3.83566c0,0 2.682,2.14961 4.32821,1.63994c1.47242,-0.45586 3.01143,-3.10991 3.01143,-3.10991c0,0 -1.74225,2.97262 -1.22443,4.37581c0.40119,1.08716 3.37189,3.17561 3.37189,3.17561c0,0 -2.71961,-1.45015 -4.14583,-1.02735c-1.4768,0.43779 -3.59473,3.91934 -3.59473,3.91934z" fill="#feffff"/><path d="M211.65909,194.39279c0,0 -2.99854,-0.57288 -3.92083,-0.1045c-1.04194,0.52914 -2.01577,3.11935 -2.01577,3.11935c0,0 0.85117,-2.19874 0.16552,-3.25005c-0.61327,-0.94032 -2.66047,-1.59741 -2.66047,-1.59741c0,0 2.42995,0.62686 3.30941,-0.01598c0.68139,-0.49806 1.89818,-3.09471 1.89818,-3.09471c0,0 -0.81983,2.29334 -0.23895,3.20791c0.60148,0.947 3.46291,1.73538 3.46291,1.73538z" fill="#feffff"/><path d="M214.28399,163.08895c0,0 -4.13701,1.26266 -5.06186,2.64316c-1.04484,1.5596 -0.37608,5.95428 -0.37608,5.95428c0,0 -0.53331,-3.74973 -2.31961,-4.68483c-1.59772,-0.83637 -4.98271,-0.15003 -4.98271,-0.15003c0,0 3.89768,-1.0292 4.62554,-2.62058c0.56393,-1.23296 -0.13618,-5.7573 -0.13618,-5.7573c0,0 1.01832,3.7876 2.55043,4.6133c1.58645,0.85497 5.70048,0.002 5.70048,0.002z" fill="#feffff"/><path d="M247.46677,145.62287c0,0 -2.80643,-0.2847 -3.72872,0.18368c-1.04195,0.52914 -2.20788,2.83117 -2.20788,2.83117c0,0 0.85117,-2.19874 0.16552,-3.25005c-0.61327,-0.94032 -2.66047,-1.59741 -2.66047,-1.59741c0,0 2.42995,0.62686 3.30941,-0.01598c0.68139,-0.49806 1.70606,-3.09471 1.70606,-3.09471c0,0 -0.72377,2.48546 -0.14289,3.40002c0.60149,0.947 3.55897,1.54327 3.55897,1.54327z" fill="#feffff"/></g></g></svg>