<svg version="1.1" xmlns="http://www.w3.org/2000/svg" xmlns:xlink="http://www.w3.org/1999/xlink" width="719.48181" height="545.36069" viewBox="0,0,719.48181,545.36069"><defs><linearGradient x1="321.80699" y1="266.02756" x2="321.80699" y2="440.21798" gradientUnits="userSpaceOnUse" id="color-1"><stop offset="0" stop-color="#344e5f" stop-opacity="0"/><stop offset="1" stop-color="#344e5f"/></linearGradient><linearGradient x1="321.80698" y1="266.02756" x2="321.80698" y2="440.21798" gradientUnits="userSpaceOnUse" id="color-2"><stop offset="0" stop-color="#344e5f" stop-opacity="0"/><stop offset="1" stop-color="#344e5f"/></linearGradient><linearGradient x1="321.80698" y1="266.02756" x2="321.80698" y2="440.21798" gradientUnits="userSpaceOnUse" id="color-3"><stop offset="0" stop-color="#344e5f" stop-opacity="0"/><stop offset="1" stop-color="#344e5f"/></linearGradient><linearGradient x1="321.80698" y1="266.02756" x2="321.80698" y2="440.21798" gradientUnits="userSpaceOnUse" id="color-4"><stop offset="0" stop-color="#344e5f" stop-opacity="0"/><stop offset="1" stop-color="#344e5f"/></linearGradient><linearGradient x1="321.80698" y1="266.02756" x2="321.80698" y2="440.21798" gradientUnits="userSpaceOnUse" id="color-5"><stop offset="0" stop-color="#344e5f" stop-opacity="0"/><stop offset="1" stop-color="#344e5f"/></linearGradient><linearGradient x1="321.80699" y1="266.02756" x2="321.80699" y2="440.21798" gradientUnits="userSpaceOnUse" id="color-6"><stop offset="0" stop-color="#344e5f" stop-opacity="0"/><stop offset="1" stop-color="#344e5f"/></linearGradient></defs><g transform="translate(121.32622,90.67763)"><g data-paper-data="{&quot;isPaintingLayer&quot;:true}" fill-rule="nonzero" stroke="none" stroke-width="0" stroke-linecap="butt" stroke-linejoin="miter" stroke-miterlimit="10" stroke-dasharray="" stroke-dashoffset="0" style="mix-blend-mode: normal"><path d="M444.15882,414.41711c0,46.54604 -96.34704,21.62445 -146.38331,23.27742c-5.09744,0.1684 -273.12054,-29.94377 -281.69353,-42.95704c-6.92344,-10.50936 -53.34296,41.26034 -54.23149,26.91732c-0.11075,-1.7879 -21.4303,-28.31581 -21.65123,-29.81046c-0.80039,-5.41461 28.73024,-57.76376 19.55407,-71.97023c-11.55072,-17.88274 7.59547,-65.0373 7.23288,-73.4028c-0.39132,-9.02835 224.51922,-9.21259 218.99024,-13.57711c-2.74384,-2.16596 97.88143,0.12686 117.58354,3.55988c40.74424,7.09954 100.07349,11.27537 127.7139,26.68364c16.03555,8.93908 0.06182,32.35709 -13.10688,54.64676c-3.91144,6.62059 -12.44179,2.12382 -12.44443,8.95542c-0.00617,15.95144 -13.03412,11.30162 -9.49446,22.89266c2.73992,9.54245 11.97361,14.15385 25.26333,22.66641c15.39328,9.85998 22.66741,42.11813 22.66741,42.11813z" data-paper-data="{&quot;index&quot;:null}" fill="url(#color-1)"/><path d="M404.70624,363.19426c-7.272,-5.00886 -15.15389,-6.84295 -12.69819,-10.40822c0.87664,-1.27274 4.7824,1.5692 7.79008,0.16991c0.92385,-0.42982 -2.72427,-1.93623 -1.85457,-2.63781c1.54429,-1.24576 0.64941,-3.10478 2.22495,-1.89878c0.5145,0.39382 2.55007,4.42881 1.86885,6.9841c-0.11805,0.44284 4.56844,-0.05719 5.21461,-1.84309c0.44415,-1.22755 -3.48787,-3.64623 -2.27683,-4.43635c2.87596,-1.87636 4.83668,3.03344 5.44856,3.4671c0.57803,0.40967 -0.14591,0.4188 -1.09462,2.22857c-1.84856,3.52632 -1.35305,6.09431 -1.07091,6.28864c0.46175,0.31805 3.85099,-7.71023 6.62732,-9.39887c0.87012,-0.52923 -1.449,4.96246 -0.79514,5.78535c0.92598,1.16536 4.68488,-2.04811 4.87521,-1.9285c2.88797,1.81488 -6.39072,5.69819 -6.9245,8.56331c-0.13551,0.72735 3.69968,-0.44782 7.32131,-1.42988c0.72004,-0.19525 2.69265,-6.16187 3.36292,-6.32538c1.03171,-0.25168 0.65857,1.93385 1.03756,3.40083c0.3261,1.26225 1.45377,1.80805 1.67091,1.95319c1.01165,0.67622 -5.74166,3.21204 -7.66281,5.20285c-1.95713,2.02809 0.90458,3.50979 0.57141,3.9935c-2.4557,3.56527 -6.36409,-2.7216 -13.63611,-7.73045z" data-paper-data="{&quot;index&quot;:null}" fill-opacity="0.79839" fill="#2c4250"/><path d="" data-paper-data="{&quot;index&quot;:null}" fill="#344e5f"/><path d="" data-paper-data="{&quot;index&quot;:null}" fill="#344e5f"/><path d="" data-paper-data="{&quot;index&quot;:null}" fill="#344e5f"/><path d="" data-paper-data="{&quot;index&quot;:null}" fill="#344e5f"/><path d="" data-paper-data="{&quot;index&quot;:null}" fill="#344e5f"/><path d="" data-paper-data="{&quot;index&quot;:null}" fill="#344e5f"/><path d="" data-paper-data="{&quot;index&quot;:null}" fill="#344e5f"/><path d="" data-paper-data="{&quot;index&quot;:null}" fill="#344e5f"/><path d="" data-paper-data="{&quot;index&quot;:null}" fill="#344e5f"/><path d="" data-paper-data="{&quot;index&quot;:null}" fill="#344e5f"/><path d="" data-paper-data="{&quot;index&quot;:null}" fill="#344e5f"/><path d="" data-paper-data="{&quot;index&quot;:null}" fill="#344e5f"/><path d="" data-paper-data="{&quot;index&quot;:null}" fill="#344e5f"/><path d="" data-paper-data="{&quot;index&quot;:null}" fill="#344e5f"/><path d="" data-paper-data="{&quot;index&quot;:null}" fill="#344e5f"/><path d="" data-paper-data="{&quot;index&quot;:null}" fill="#344e5f"/><path d="" data-paper-data="{&quot;index&quot;:null}" fill="#344e5f"/><path d="" data-paper-data="{&quot;index&quot;:null}" fill="#344e5f"/><path d="" data-paper-data="{&quot;index&quot;:null}" fill="#344e5f"/><path d="" data-paper-data="{&quot;index&quot;:null}" fill="#344e5f"/><path d="" data-paper-data="{&quot;index&quot;:null}" fill="#344e5f"/><path d="" data-paper-data="{&quot;index&quot;:null}" fill="#344e5f"/><path d="" data-paper-data="{&quot;index&quot;:null}" fill="#344e5f"/><path d="M-117.12499,454.68306l-4.20123,-539.55909l715.28058,-5.8016l4.20123,539.55909z" fill="none"/><path d="M444.15882,414.41711c0,46.54604 -96.34704,21.62444 -146.38331,23.27741c-5.09744,0.1684 -273.12054,-29.94377 -281.69353,-42.95704c-6.92344,-10.50936 -53.34296,41.26034 -54.23149,26.91732c-0.11075,-1.7879 -21.4303,-28.31581 -21.65124,-29.81046c-0.80039,-5.41461 28.73024,-57.76376 19.55407,-71.97023c-11.55072,-17.88274 7.59547,-65.0373 7.23288,-73.4028c-0.39132,-9.02835 224.51922,-9.21259 218.99024,-13.57711c-2.74384,-2.16596 97.88143,0.12686 117.58354,3.55988c40.74424,7.09954 100.07349,11.27537 127.7139,26.68363c16.03555,8.93909 0.06183,32.3571 -13.10688,54.64676c-3.91144,6.62059 -12.4418,2.12382 -12.44443,8.95542c-0.00616,15.95144 -17.28251,3.4129 -13.37765,17.01255c5.91353,20.59534 60.16497,45.61149 60.16497,45.61149z" data-paper-data="{&quot;index&quot;:null}" fill="url(#color-2)"/><path d="M444.15882,414.41711c0,46.54604 -96.34704,21.62444 -146.38331,23.27741c-5.09744,0.1684 -273.12054,-29.94377 -281.69353,-42.95704c-6.92344,-10.50936 -53.34296,41.26034 -54.23149,26.91732c-0.11075,-1.7879 -21.4303,-28.31581 -21.65124,-29.81046c-0.80039,-5.41461 28.73024,-57.76376 19.55407,-71.97023c-11.55072,-17.88274 7.59547,-65.0373 7.23288,-73.4028c-0.39132,-9.02835 224.51922,-9.21259 218.99024,-13.57711c-2.74384,-2.16596 97.88143,0.12686 117.58354,3.55988c40.74424,7.09954 100.07349,11.27538 127.7139,26.68364c16.03555,8.93909 0.06183,32.35709 -13.10688,54.64676c-3.91144,6.62059 -12.4418,2.12382 -12.44443,8.95542c-0.00617,15.95144 -17.28251,3.41291 -13.37765,17.01256c5.91353,20.59533 60.16497,45.61149 60.16497,45.61149z" data-paper-data="{&quot;index&quot;:null}" fill="url(#color-3)"/><path d="M444.15882,414.41711c0,46.54604 -96.34704,21.62444 -146.38331,23.27741c-5.09744,0.1684 -273.12054,-29.94377 -281.69353,-42.95704c-6.92344,-10.50936 -53.34296,41.26034 -54.23149,26.91732c-0.11075,-1.7879 -21.4303,-28.31581 -21.65124,-29.81046c-0.80039,-5.41461 28.73024,-57.76376 19.55407,-71.97023c-11.55072,-17.88274 7.59547,-65.0373 7.23288,-73.4028c-0.39132,-9.02835 224.51922,-9.21259 218.99024,-13.57711c-2.74384,-2.16596 97.88143,0.12686 117.58354,3.55988c40.74424,7.09954 100.07349,11.27538 127.7139,26.68364c16.03555,8.93909 0.06183,32.35709 -13.10688,54.64676c-3.91144,6.62059 -12.4418,2.12382 -12.44443,8.95542c-0.00617,15.95144 -17.28251,3.41291 -13.37765,17.01256c5.91353,20.59533 60.16497,45.61149 60.16497,45.61149z" data-paper-data="{&quot;index&quot;:null}" fill="url(#color-4)"/><path d="M444.15882,414.41711c0,46.54604 -96.34704,21.62444 -146.38331,23.27741c-5.09744,0.1684 -273.12054,-29.94377 -281.69353,-42.95704c-6.92344,-10.50936 -53.34296,41.26034 -54.23149,26.91732c-0.11075,-1.7879 -21.4303,-28.31581 -21.65124,-29.81046c-0.80039,-5.41461 28.73024,-57.76376 19.55407,-71.97023c-11.55072,-17.88274 7.59547,-65.0373 7.23288,-73.4028c-0.39132,-9.02835 224.51922,-9.21259 218.99024,-13.57711c-2.74384,-2.16596 97.88143,0.12686 117.58354,3.55988c40.74424,7.09954 100.07349,11.27538 127.7139,26.68364c16.03555,8.93909 0.06183,32.35709 -13.10688,54.64676c-3.91144,6.62059 -12.4418,2.12382 -12.44443,8.95542c-0.00617,15.95144 -25.63357,28.46606 -21.7287,42.06571c2.73992,9.54245 24.20785,-5.01921 37.49757,3.49335c15.39329,9.85998 22.66741,42.11814 22.66741,42.11814z" data-paper-data="{&quot;index&quot;:null}" fill="url(#color-5)"/><path d="M444.15882,414.41711c0,46.54604 -96.34704,21.62445 -146.38331,23.27742c-5.09744,0.1684 -273.12054,-29.94377 -281.69353,-42.95704c-6.92344,-10.50936 -53.34296,41.26034 -54.23149,26.91732c-0.11075,-1.7879 -21.4303,-28.31581 -21.65123,-29.81046c-0.80039,-5.41461 28.73024,-57.76376 19.55407,-71.97023c-11.55072,-17.88274 7.59547,-65.0373 7.23288,-73.4028c-0.39132,-9.02835 224.51922,-9.21259 218.99024,-13.57711c-2.74384,-2.16596 97.88143,0.12686 117.58354,3.55988c40.74424,7.09954 100.07349,11.27537 127.7139,26.68364c16.03555,8.93908 0.06182,32.35709 -13.10688,54.64676c-3.91144,6.62059 -12.44179,2.12382 -12.44443,8.95542c-0.00617,15.95144 -14.49493,6.91921 -10.59007,20.51886c2.73992,9.54245 13.06922,16.52765 26.35894,25.04021c15.39328,9.85998 22.66741,42.11813 22.66741,42.11813z" data-paper-data="{&quot;index&quot;:null}" fill="url(#color-6)"/></g></g></svg>