<svg version="1.1" xmlns="http://www.w3.org/2000/svg" xmlns:xlink="http://www.w3.org/1999/xlink" width="27.70194" height="9.37391" viewBox="0,0,27.70194,9.37391"><g transform="translate(-225.80446,-175.75062)"><g data-paper-data="{&quot;isPaintingLayer&quot;:true}" fill-opacity="0.16734" fill="#06090b" fill-rule="nonzero" stroke="none" stroke-width="0" stroke-linecap="butt" stroke-linejoin="miter" stroke-miterlimit="10" stroke-dasharray="" stroke-dashoffset="0" style="mix-blend-mode: normal"><path d="M240.21893,176.0499c1.59402,0 1.70439,0.76021 3.11304,1.36517c1.32719,0.56997 4.78567,0.67055 5.51705,1.07049c0.14901,0.08148 1.3869,-1.78101 3.51911,-2.51745c2.78178,-0.96078 -0.36244,1.43525 -0.74103,3.78413c-0.39161,2.42963 2.19612,5.26683 -0.26968,4.02686c-0.99278,-0.49923 -2.17966,-2.48444 -2.34367,-2.38661c-1.2977,0.77412 -6.34335,0.87965 -9.08462,0.97859c-0.40804,0.01472 -2.44036,-0.07483 -2.32368,0.52031c0.12295,0.62714 2.3986,1.94027 2.06087,1.94131c-0.27508,0.00085 -2.17521,0.63772 -3.7077,0.02712c-1.52746,-0.60859 -2.68716,-2.46466 -3.03686,-2.45775c-5.8622,0.11596 -4.82649,-1.23526 -7.1173,-2.38804c3.83307,-1.56073 3.94989,-1.73693 7.84624,-2.17362c1.89312,-0.21217 0.43296,-1.45582 2.42383,-1.7199c0.20595,-0.02732 0.86389,-0.12527 2.10831,-0.16399c1.19908,-0.03731 2.03609,0.09336 2.03609,0.09336z"/></g></g></svg>