<svg version="1.1" xmlns="http://www.w3.org/2000/svg" xmlns:xlink="http://www.w3.org/1999/xlink" width="701.78269" height="532.74216" viewBox="0,0,701.78269,532.74216"><g transform="translate(108.95685,84.81643)"><g data-paper-data="{&quot;isPaintingLayer&quot;:true}" fill-rule="nonzero" stroke="none" stroke-width="0" stroke-linecap="butt" stroke-linejoin="miter" stroke-miterlimit="10" stroke-dasharray="" stroke-dashoffset="0" style="mix-blend-mode: normal"><path d="" data-paper-data="{&quot;index&quot;:null}" fill="#344e5f"/><path d="" data-paper-data="{&quot;index&quot;:null}" fill="#344e5f"/><path d="" data-paper-data="{&quot;index&quot;:null}" fill="#344e5f"/><path d="" data-paper-data="{&quot;index&quot;:null}" fill="#344e5f"/><path d="" data-paper-data="{&quot;index&quot;:null}" fill="#344e5f"/><path d="" data-paper-data="{&quot;index&quot;:null}" fill="#344e5f"/><path d="" data-paper-data="{&quot;index&quot;:null}" fill="#344e5f"/><path d="" data-paper-data="{&quot;index&quot;:null}" fill="#344e5f"/><path d="" data-paper-data="{&quot;index&quot;:null}" fill="#344e5f"/><path d="" data-paper-data="{&quot;index&quot;:null}" fill="#344e5f"/><path d="" data-paper-data="{&quot;index&quot;:null}" fill="#344e5f"/><path d="" data-paper-data="{&quot;index&quot;:null}" fill="#344e5f"/><path d="" data-paper-data="{&quot;index&quot;:null}" fill="#344e5f"/><path d="" data-paper-data="{&quot;index&quot;:null}" fill="#344e5f"/><path d="" data-paper-data="{&quot;index&quot;:null}" fill="#344e5f"/><path d="" data-paper-data="{&quot;index&quot;:null}" fill="#344e5f"/><path d="" data-paper-data="{&quot;index&quot;:null}" fill="#344e5f"/><path d="" data-paper-data="{&quot;index&quot;:null}" fill="#344e5f"/><path d="" data-paper-data="{&quot;index&quot;:null}" fill="#344e5f"/><path d="" data-paper-data="{&quot;index&quot;:null}" fill="#344e5f"/><path d="" data-paper-data="{&quot;index&quot;:null}" fill="#344e5f"/><path d="M543.89048,190.06588c0,13.26529 0.00882,177.35096 2.72094,235.3073c0.84038,17.95845 -130.45363,-9.60014 -137.01274,-9.41721c-2.68485,0.07487 4.52942,-5.16701 -0.70889,-43.2853c-8.15416,-59.33646 -23.87658,-133.87483 -21.44674,-150.63786c1.24353,-8.57888 11.15421,-27.20423 13.83673,-34.03036c2.50247,-6.36796 -6.57362,-42.18808 -4.08895,-46.97048c3.1442,-6.05182 0.05041,-17.37295 -10.38445,-23.98905c-6.30108,-3.99513 -4.38326,-8.73364 -5.56051,-13.38265c-1.09137,-4.3099 -5.70569,-8.54289 -0.79629,-12.03538c3.73907,-2.65992 -15.36733,-32.67809 -5.30398,-38.65652c7.16982,-4.25945 48.02807,5.48197 53.81535,3.91996c38.35099,-10.35109 93.45424,-1.29074 93.45424,2.48537z" data-paper-data="{&quot;index&quot;:null}" fill="#344e5f"/><path d="M418.52442,398.66628c-0.60882,-0.49143 -5.31689,-3.63449 -3.72339,-5.42257c1.39846,-1.56923 8.89123,-1.68811 11.4097,-3.58103c5.38816,-4.04983 10.68281,-6.58486 11.82593,-5.66214c1.14312,0.92272 -2.29816,4.95376 -7.68631,9.0036c-1.77625,1.33505 1.67042,6.49747 0.05987,7.43368c-3.27496,1.90374 -11.11953,-1.153 -11.88581,-1.77153z" data-paper-data="{&quot;index&quot;:null}" fill="#344e5f"/><path d="M-108.95685,434.25525v-515.00682h688.26739v515.00682z" fill="none"/><path d="M-102.94497,447.92572v-529.33151h695.77081v529.33152z" fill="none"/><path d="M-102.26284,444.51508v-529.33151h688.26739v529.33151z" fill="none"/></g></g></svg>