<svg version="1.1" xmlns="http://www.w3.org/2000/svg" xmlns:xlink="http://www.w3.org/1999/xlink" width="255.69576" height="13.43759" viewBox="0,0,255.69576,13.43759"><g transform="translate(-112.15212,-173.28121)"><g data-paper-data="{&quot;isPaintingLayer&quot;:true}" fill="#ffffff" fill-rule="nonzero" stroke="none" stroke-width="1" stroke-linecap="square" stroke-linejoin="miter" stroke-miterlimit="10" stroke-dasharray="" stroke-dashoffset="0" style="mix-blend-mode: normal"><path d="M113.29274,181.9218c-0.33333,0 -0.60937,-0.10416 -0.82812,-0.3125c-0.20833,-0.21875 -0.3125,-0.48959 -0.3125,-0.8125c0,-0.32291 0.10417,-0.58334 0.3125,-0.78125c0.21875,-0.20834 0.49479,-0.3125 0.82813,-0.3125h3.23438c0.32292,0 0.59375,0.10938 0.8125,0.32813c0.21875,0.21875 0.32813,0.48959 0.32813,0.8125c0,0.3125 -0.10937,0.57291 -0.32812,0.78125c-0.21875,0.19791 -0.48958,0.29688 -0.8125,0.29688zM130.6231,173.46868c0.64583,0 1.25,0.1875 1.8125,0.5625c0.5625,0.375 1.01563,0.88021 1.35938,1.51563c0.35416,0.63541 0.53125,1.34375 0.53125,2.125c0,0.77084 -0.17709,1.47396 -0.53125,2.10938c-0.34375,0.63541 -0.79687,1.14063 -1.35937,1.51563c-0.5625,0.375 -1.16667,0.5625 -1.8125,0.5625h-3.4375l0.1875,-0.32812v3.85938c0,0.32291 -0.09896,0.59375 -0.29687,0.8125c-0.19792,0.21875 -0.45834,0.32813 -0.78125,0.32813c-0.3125,0 -0.56771,-0.10937 -0.76562,-0.32812c-0.19792,-0.21875 -0.29687,-0.48959 -0.29687,-0.8125v-10.78125c0,-0.32291 0.10416,-0.59375 0.3125,-0.8125c0.21875,-0.21875 0.48958,-0.32812 0.8125,-0.32812zM130.6231,179.7343c0.22916,0 0.45313,-0.09896 0.67188,-0.29687c0.22916,-0.19791 0.41666,-0.45312 0.5625,-0.76562c0.15625,-0.32291 0.23438,-0.65625 0.23438,-1c0,-0.36459 -0.07812,-0.69791 -0.23437,-1c-0.14584,-0.3125 -0.33334,-0.5625 -0.5625,-0.75c-0.21875,-0.19791 -0.44271,-0.29687 -0.67187,-0.29687h-3.46875l0.21875,-0.34375v4.75l-0.20312,-0.29687zM137.82597,186.53118c-0.35416,0 -0.66666,-0.10937 -0.9375,-0.32812c-0.27083,-0.21875 -0.40625,-0.48959 -0.40625,-0.8125v-10.78125c0,-0.32291 0.10417,-0.59375 0.3125,-0.8125c0.21875,-0.21875 0.48959,-0.32812 0.8125,-0.32812h5.375c0.64584,0 1.25,0.17188 1.8125,0.51563c0.57291,0.34375 1.03125,0.81771 1.375,1.42188c0.35416,0.60416 0.53125,1.29688 0.53125,2.07813c0,0.46875 -0.09896,0.92709 -0.29687,1.375c-0.1875,0.44791 -0.44792,0.85416 -0.78125,1.21875c-0.32292,0.36459 -0.69271,0.64584 -1.10938,0.84375l0.01563,-0.4375c0.35417,0.1875 0.64584,0.41146 0.875,0.67188c0.22916,0.25 0.40625,0.52084 0.53125,0.8125c0.13541,0.29166 0.21354,0.60416 0.23438,0.9375c0.05208,0.3125 0.08854,0.58854 0.10938,0.82813c0.02083,0.23959 0.05729,0.44271 0.10938,0.60938c0.0625,0.15625 0.17188,0.27604 0.32813,0.35938c0.27083,0.16666 0.4375,0.40104 0.5,0.70313c0.07291,0.30209 0.00521,0.57291 -0.20312,0.8125c-0.13542,0.15625 -0.3125,0.26041 -0.53125,0.3125c-0.20834,0.04166 -0.41667,0.04166 -0.625,0c-0.20834,-0.05209 -0.38021,-0.11459 -0.51562,-0.1875c-0.21875,-0.125 -0.43229,-0.30729 -0.64063,-0.54687c-0.20833,-0.23959 -0.38021,-0.5625 -0.51562,-0.96875c-0.125,-0.41666 -0.1875,-0.94791 -0.1875,-1.59375c0,-0.21875 -0.04166,-0.41666 -0.125,-0.59375c-0.07291,-0.17709 -0.17708,-0.32812 -0.3125,-0.45312c-0.13541,-0.13541 -0.30729,-0.23437 -0.51562,-0.29687c-0.20833,-0.07291 -0.45833,-0.10937 -0.75,-0.10937h-3.76562l0.28125,-0.4375v4.04688c0,0.32291 -0.08854,0.59375 -0.26562,0.8125c-0.17708,0.21875 -0.41666,0.32813 -0.71875,0.32813zM138.54472,179.8593h4.34375c0.22917,0 0.44792,-0.10416 0.65625,-0.3125c0.20834,-0.20834 0.38021,-0.48959 0.51563,-0.84375c0.14584,-0.35416 0.21875,-0.74479 0.21875,-1.17187c0,-0.54166 -0.14583,-0.99479 -0.4375,-1.35937c-0.29166,-0.36459 -0.60937,-0.54687 -0.95312,-0.54687h-4.3125l0.23438,-0.60937v5.28125zM150.42405,173.46868h6.25c0.32291,0 0.59375,0.10416 0.8125,0.3125c0.21875,0.20834 0.32813,0.47396 0.32813,0.79688c0,0.30209 -0.10937,0.55209 -0.32812,0.75c-0.21875,0.19791 -0.48959,0.29688 -0.8125,0.29688h-5.21875l0.17188,-0.32812v3.64063l-0.15625,-0.15625h4.375c0.32291,0 0.58854,0.10416 0.79688,0.3125c0.21875,0.20834 0.32813,0.47396 0.32813,0.79688c0,0.3125 -0.10937,0.56771 -0.32812,0.76563c-0.20834,0.1875 -0.47396,0.28125 -0.79687,0.28125h-4.3125l0.09375,-0.15625v3.76563l-0.15625,-0.15625h5.20313c0.32291,0 0.59375,0.10938 0.8125,0.32813c0.21875,0.20834 0.32813,0.45834 0.32813,0.75c0,0.3125 -0.10937,0.56771 -0.32812,0.76563c-0.21875,0.19791 -0.48959,0.29688 -0.8125,0.29688h-6.25c-0.32291,0 -0.59375,-0.10937 -0.8125,-0.32812c-0.20833,-0.21875 -0.3125,-0.48959 -0.3125,-0.8125v-10.78125c0,-0.32291 0.10417,-0.59375 0.3125,-0.8125c0.21875,-0.21875 0.48959,-0.32812 0.8125,-0.32812zM164.15793,186.71868c-0.86459,0 -1.64584,-0.10937 -2.34375,-0.32812c-0.69791,-0.21875 -1.36459,-0.59896 -2,-1.14062c-0.16666,-0.14584 -0.29166,-0.30209 -0.375,-0.46875c-0.08334,-0.17709 -0.125,-0.35416 -0.125,-0.53125c0,-0.28125 0.09896,-0.53125 0.29688,-0.75c0.20834,-0.21875 0.46875,-0.32812 0.78125,-0.32812c0.23959,0 0.45313,0.07291 0.64063,0.21875c0.46875,0.38541 0.9375,0.68229 1.40625,0.89063c0.46875,0.19791 1.04166,0.29688 1.71875,0.29688c0.45834,0 0.88021,-0.07291 1.26563,-0.21875c0.38541,-0.14584 0.69791,-0.33854 0.9375,-0.57812c0.23959,-0.23959 0.35938,-0.51562 0.35938,-0.82812c0,-0.375 -0.11459,-0.69271 -0.34375,-0.95312c-0.21875,-0.26041 -0.5625,-0.47916 -1.03125,-0.65625c-0.45834,-0.1875 -1.04166,-0.32812 -1.75,-0.42187c-0.66666,-0.10416 -1.25521,-0.25521 -1.76562,-0.45312c-0.51041,-0.20834 -0.9375,-0.46875 -1.28125,-0.78125c-0.34375,-0.32291 -0.60416,-0.69791 -0.78125,-1.125c-0.16666,-0.4375 -0.25,-0.92187 -0.25,-1.45312c0,-0.8125 0.20834,-1.5 0.625,-2.0625c0.41666,-0.57291 0.97916,-1.01041 1.6875,-1.3125c0.70834,-0.30209 1.48959,-0.45312 2.34375,-0.45312c0.8125,0 1.5625,0.125 2.25,0.375c0.69791,0.23959 1.26041,0.54688 1.6875,0.92188c0.36459,0.28125 0.54688,0.60938 0.54688,0.98438c0,0.27084 -0.10937,0.52084 -0.32812,0.75c-0.20834,0.21875 -0.45312,0.32813 -0.73437,0.32813c-0.1875,0 -0.35416,-0.05729 -0.5,-0.17187c-0.19791,-0.16666 -0.46875,-0.32812 -0.8125,-0.48437c-0.33334,-0.15625 -0.6875,-0.28646 -1.0625,-0.39062c-0.375,-0.10416 -0.72396,-0.15625 -1.04687,-0.15625c-0.53125,0 -0.97916,0.06771 -1.34375,0.20313c-0.36459,0.13541 -0.64062,0.32291 -0.82812,0.5625c-0.1875,0.22916 -0.28125,0.5 -0.28125,0.8125c0,0.375 0.10938,0.68229 0.32813,0.92188c0.21875,0.23959 0.53125,0.43229 0.9375,0.57813c0.40625,0.14584 0.89584,0.27604 1.46875,0.39063c0.75,0.13541 1.40625,0.29688 1.96875,0.48438c0.57291,0.1875 1.04166,0.42709 1.40625,0.71875c0.375,0.29166 0.65625,0.65625 0.84375,1.09375c0.1875,0.4375 0.28125,0.97396 0.28125,1.60938c0,0.8125 -0.22396,1.51041 -0.67187,2.09375c-0.44791,0.58334 -1.03646,1.03125 -1.76562,1.34375c-0.72916,0.3125 -1.51562,0.46875 -2.35937,0.46875zM175.29574,186.71868c-0.86459,0 -1.64584,-0.10937 -2.34375,-0.32812c-0.69791,-0.21875 -1.36459,-0.59896 -2,-1.14062c-0.16666,-0.14584 -0.29166,-0.30209 -0.375,-0.46875c-0.08334,-0.17709 -0.125,-0.35416 -0.125,-0.53125c0,-0.28125 0.09896,-0.53125 0.29688,-0.75c0.20834,-0.21875 0.46875,-0.32812 0.78125,-0.32812c0.23959,0 0.45313,0.07291 0.64063,0.21875c0.46875,0.38541 0.9375,0.68229 1.40625,0.89063c0.46875,0.19791 1.04166,0.29688 1.71875,0.29688c0.45834,0 0.88021,-0.07291 1.26563,-0.21875c0.38541,-0.14584 0.69791,-0.33854 0.9375,-0.57812c0.23959,-0.23959 0.35938,-0.51562 0.35938,-0.82812c0,-0.375 -0.11459,-0.69271 -0.34375,-0.95312c-0.21875,-0.26041 -0.5625,-0.47916 -1.03125,-0.65625c-0.45834,-0.1875 -1.04166,-0.32812 -1.75,-0.42187c-0.66666,-0.10416 -1.25521,-0.25521 -1.76562,-0.45312c-0.51041,-0.20834 -0.9375,-0.46875 -1.28125,-0.78125c-0.34375,-0.32291 -0.60416,-0.69791 -0.78125,-1.125c-0.16666,-0.4375 -0.25,-0.92187 -0.25,-1.45312c0,-0.8125 0.20834,-1.5 0.625,-2.0625c0.41666,-0.57291 0.97916,-1.01041 1.6875,-1.3125c0.70834,-0.30209 1.48959,-0.45312 2.34375,-0.45312c0.8125,0 1.5625,0.125 2.25,0.375c0.69791,0.23959 1.26041,0.54688 1.6875,0.92188c0.36459,0.28125 0.54688,0.60938 0.54688,0.98438c0,0.27084 -0.10937,0.52084 -0.32812,0.75c-0.20834,0.21875 -0.45312,0.32813 -0.73437,0.32813c-0.1875,0 -0.35416,-0.05729 -0.5,-0.17187c-0.19791,-0.16666 -0.46875,-0.32812 -0.8125,-0.48437c-0.33334,-0.15625 -0.6875,-0.28646 -1.0625,-0.39062c-0.375,-0.10416 -0.72396,-0.15625 -1.04687,-0.15625c-0.53125,0 -0.97916,0.06771 -1.34375,0.20313c-0.36459,0.13541 -0.64062,0.32291 -0.82812,0.5625c-0.1875,0.22916 -0.28125,0.5 -0.28125,0.8125c0,0.375 0.10938,0.68229 0.32813,0.92188c0.21875,0.23959 0.53125,0.43229 0.9375,0.57813c0.40625,0.14584 0.89584,0.27604 1.46875,0.39063c0.75,0.13541 1.40625,0.29688 1.96875,0.48438c0.57291,0.1875 1.04166,0.42709 1.40625,0.71875c0.375,0.29166 0.65625,0.65625 0.84375,1.09375c0.1875,0.4375 0.28125,0.97396 0.28125,1.60938c0,0.8125 -0.22396,1.51041 -0.67187,2.09375c-0.44791,0.58334 -1.03646,1.03125 -1.76562,1.34375c-0.72916,0.3125 -1.51562,0.46875 -2.35937,0.46875zM207.78675,186.53118c-0.35416,0 -0.64584,-0.10937 -0.875,-0.32812c-0.21875,-0.21875 -0.32812,-0.48959 -0.32812,-0.8125v-10.8125h2.42188v10.8125c0,0.32291 -0.11459,0.59375 -0.34375,0.8125c-0.22916,0.21875 -0.52084,0.32813 -0.875,0.32813zM203.66175,175.62493c-0.32291,0 -0.59375,-0.09896 -0.8125,-0.29687c-0.21875,-0.20834 -0.32812,-0.47396 -0.32812,-0.79687c0,-0.32291 0.10938,-0.57812 0.32813,-0.76562c0.21875,-0.19791 0.48959,-0.29687 0.8125,-0.29687h8.28125c0.32291,0 0.59375,0.09896 0.8125,0.29688c0.21875,0.19791 0.32813,0.45834 0.32813,0.78125c0,0.32291 -0.10937,0.58334 -0.32812,0.78125c-0.21875,0.19791 -0.48959,0.29688 -0.8125,0.29688zM226.67036,179.99993c0,0.9375 -0.15625,1.8125 -0.46875,2.625c-0.30209,0.80209 -0.73959,1.51041 -1.3125,2.125c-0.5625,0.61459 -1.23437,1.09896 -2.01562,1.45313c-0.77084,0.34375 -1.61459,0.51563 -2.53125,0.51563c-0.92709,0 -1.77604,-0.17187 -2.54687,-0.51562c-0.77084,-0.35416 -1.44271,-0.83854 -2.01562,-1.45312c-0.5625,-0.61459 -1,-1.32291 -1.3125,-2.125c-0.30209,-0.8125 -0.45312,-1.6875 -0.45312,-2.625c0,-0.92709 0.15104,-1.79687 0.45313,-2.60937c0.3125,-0.8125 0.75,-1.52604 1.3125,-2.14062c0.57291,-0.61459 1.24479,-1.09375 2.01563,-1.4375c0.77084,-0.35416 1.61979,-0.53125 2.54688,-0.53125c0.91666,0 1.76041,0.17709 2.53125,0.53125c0.78125,0.34375 1.45313,0.82291 2.01563,1.4375c0.57291,0.61459 1.01041,1.32813 1.3125,2.14063c0.3125,0.8125 0.46875,1.68229 0.46875,2.60938zM224.2485,179.99993c0,-0.83334 -0.16666,-1.58854 -0.5,-2.26562c-0.33334,-0.67709 -0.79166,-1.21354 -1.375,-1.60937c-0.58334,-0.39584 -1.26041,-0.59375 -2.03125,-0.59375c-0.78125,0 -1.46354,0.19791 -2.04687,0.59375c-0.58334,0.39584 -1.04166,0.93229 -1.375,1.60938c-0.32291,0.66666 -0.48437,1.42188 -0.48437,2.26563c0,0.83334 0.16146,1.58854 0.48438,2.26563c0.33334,0.67709 0.79166,1.21875 1.375,1.625c0.58334,0.39584 1.26563,0.59375 2.04688,0.59375c0.77084,0 1.44791,-0.19791 2.03125,-0.59375c0.58334,-0.40625 1.04166,-0.94791 1.375,-1.625c0.33334,-0.67709 0.5,-1.43229 0.5,-2.26562zM235.17921,173.46868h6.25c0.32291,0 0.59375,0.10416 0.8125,0.3125c0.21875,0.20834 0.32813,0.47396 0.32813,0.79688c0,0.30209 -0.10937,0.55209 -0.32812,0.75c-0.21875,0.19791 -0.48959,0.29688 -0.8125,0.29688h-5.21875l0.17188,-0.32812v3.64063l-0.15625,-0.15625h4.375c0.32291,0 0.58854,0.10416 0.79688,0.3125c0.21875,0.20834 0.32812,0.47396 0.32812,0.79688c0,0.3125 -0.10937,0.56771 -0.32812,0.76563c-0.20834,0.1875 -0.47396,0.28125 -0.79688,0.28125h-4.3125l0.09375,-0.15625v3.76563l-0.15625,-0.15625h5.20313c0.32291,0 0.59375,0.10938 0.8125,0.32813c0.21875,0.20834 0.32813,0.45834 0.32813,0.75c0,0.3125 -0.10937,0.56771 -0.32812,0.76563c-0.21875,0.19791 -0.48959,0.29688 -0.8125,0.29688h-6.25c-0.32291,0 -0.59375,-0.10937 -0.8125,-0.32812c-0.20834,-0.21875 -0.3125,-0.48959 -0.3125,-0.8125v-10.78125c0,-0.32291 0.10416,-0.59375 0.3125,-0.8125c0.21875,-0.21875 0.48959,-0.32812 0.8125,-0.32812zM254.63184,173.46868c0.29166,0 0.53125,0.09896 0.71875,0.29688c0.1875,0.19791 0.28125,0.44791 0.28125,0.75v10.875c0,0.32291 -0.10937,0.59375 -0.32812,0.8125c-0.21875,0.21875 -0.48959,0.32813 -0.8125,0.32813c-0.15625,0 -0.32291,-0.02604 -0.5,-0.07812c-0.16666,-0.0625 -0.29166,-0.14062 -0.375,-0.23437l-7.32812,-9.3125l0.48438,-0.29687v8.875c0,0.30209 -0.09896,0.55209 -0.29687,0.75c-0.1875,0.19791 -0.4375,0.29688 -0.75,0.29688c-0.30209,0 -0.54688,-0.09896 -0.73438,-0.29687c-0.17709,-0.19791 -0.26562,-0.44791 -0.26562,-0.75v-10.875c0,-0.32291 0.10416,-0.59375 0.3125,-0.8125c0.21875,-0.21875 0.48959,-0.32812 0.8125,-0.32812c0.17709,0 0.35937,0.03646 0.54687,0.10938c0.1875,0.0625 0.32291,0.16146 0.40625,0.29688l7.10937,9.07813l-0.3125,0.21875v-8.65625c0,-0.30209 0.09375,-0.55209 0.28125,-0.75c0.1875,-0.19791 0.4375,-0.29687 0.75,-0.29687zM264.0317,173.46868c0.89583,0 1.6875,0.17188 2.375,0.51563c0.69792,0.33334 1.28646,0.80209 1.76563,1.40625c0.47917,0.59375 0.83854,1.28646 1.07813,2.07813c0.25,0.79166 0.375,1.63541 0.375,2.53125c0,1.20834 -0.21875,2.30729 -0.65625,3.29688c-0.4375,0.98959 -1.06771,1.77604 -1.89062,2.35938c-0.82291,0.58334 -1.83854,0.875 -3.04687,0.875h-4.46875c-0.32292,0 -0.59375,-0.10937 -0.8125,-0.32812c-0.20834,-0.21875 -0.3125,-0.48959 -0.3125,-0.8125v-10.78125c0,-0.32291 0.10416,-0.59375 0.3125,-0.8125c0.21875,-0.21875 0.48958,-0.32812 0.8125,-0.32812zM263.8442,184.39055c0.78125,0 1.42187,-0.20312 1.92187,-0.60937c0.5,-0.40625 0.86459,-0.94271 1.09375,-1.60937c0.22917,-0.66666 0.34375,-1.39062 0.34375,-2.17187c0,-0.58334 -0.06771,-1.14062 -0.20312,-1.67187c-0.125,-0.53125 -0.32812,-0.99479 -0.60937,-1.39062c-0.27083,-0.40625 -0.61979,-0.72396 -1.04687,-0.95312c-0.41666,-0.23959 -0.91666,-0.35937 -1.5,-0.35937h-3.26562l0.1875,-0.17187v9.14063l-0.10937,-0.20312zM281.42277,186.53118c-0.35416,0 -0.64584,-0.10937 -0.875,-0.32812c-0.21875,-0.21875 -0.32812,-0.48959 -0.32812,-0.8125v-10.8125h2.42188v10.8125c0,0.32291 -0.11459,0.59375 -0.34375,0.8125c-0.22916,0.21875 -0.52084,0.32813 -0.875,0.32813zM277.29777,175.62493c-0.32291,0 -0.59375,-0.09896 -0.8125,-0.29687c-0.21875,-0.20834 -0.32812,-0.47396 -0.32812,-0.79687c0,-0.32291 0.10938,-0.57812 0.32813,-0.76562c0.21875,-0.19791 0.48959,-0.29687 0.8125,-0.29687h8.28125c0.32291,0 0.59375,0.09896 0.8125,0.29688c0.21875,0.19791 0.32813,0.45834 0.32813,0.78125c0,0.32291 -0.10937,0.58334 -0.32812,0.78125c-0.21875,0.19791 -0.48959,0.29688 -0.8125,0.29688zM289.86721,173.46868c0.30209,0 0.56771,0.10938 0.79688,0.32813c0.22916,0.21875 0.34375,0.48959 0.34375,0.8125v10.78125c0,0.32291 -0.11979,0.59375 -0.35937,0.8125c-0.23959,0.21875 -0.51041,0.32813 -0.8125,0.32813c-0.35416,0 -0.63541,-0.10937 -0.84375,-0.32812c-0.20834,-0.21875 -0.3125,-0.48959 -0.3125,-0.8125v-10.78125c0,-0.32291 0.10938,-0.59375 0.32813,-0.8125c0.22916,-0.21875 0.51563,-0.32812 0.85938,-0.32812zM298.13285,173.46868c0.34375,0 0.61979,0.10938 0.82813,0.32813c0.21875,0.21875 0.32813,0.48959 0.32813,0.8125v10.78125c0,0.32291 -0.10937,0.59375 -0.32812,0.8125c-0.21875,0.21875 -0.50521,0.32813 -0.85937,0.32813c-0.30209,0 -0.56771,-0.10937 -0.79687,-0.32812c-0.22916,-0.21875 -0.34375,-0.48959 -0.34375,-0.8125v-10.78125c0,-0.32291 0.11459,-0.59375 0.34375,-0.8125c0.23959,-0.21875 0.51563,-0.32812 0.82813,-0.32812zM289.80471,178.90618h8.32813v2.14063h-8.32812zM303.21857,173.46868h6.25c0.32291,0 0.59375,0.10416 0.8125,0.3125c0.21875,0.20834 0.32813,0.47396 0.32813,0.79688c0,0.30209 -0.10937,0.55209 -0.32812,0.75c-0.21875,0.19791 -0.48959,0.29688 -0.8125,0.29688h-5.21875l0.17188,-0.32812v3.64063l-0.15625,-0.15625h4.375c0.32291,0 0.58854,0.10416 0.79688,0.3125c0.21875,0.20834 0.32813,0.47396 0.32813,0.79688c0,0.3125 -0.10937,0.56771 -0.32812,0.76563c-0.20834,0.1875 -0.47396,0.28125 -0.79687,0.28125h-4.3125l0.09375,-0.15625v3.76563l-0.15625,-0.15625h5.20313c0.32291,0 0.59375,0.10938 0.8125,0.32813c0.21875,0.20834 0.32813,0.45834 0.32813,0.75c0,0.3125 -0.10937,0.56771 -0.32812,0.76563c-0.21875,0.19791 -0.48959,0.29688 -0.8125,0.29688h-6.25c-0.32291,0 -0.59375,-0.10937 -0.8125,-0.32812c-0.20834,-0.21875 -0.3125,-0.48959 -0.3125,-0.8125v-10.78125c0,-0.32291 0.10416,-0.59375 0.3125,-0.8125c0.21875,-0.21875 0.48959,-0.32812 0.8125,-0.32812zM319.33242,186.53118c-0.35416,0 -0.66666,-0.10937 -0.9375,-0.32812c-0.27083,-0.21875 -0.40625,-0.48959 -0.40625,-0.8125v-10.78125c0,-0.32291 0.10417,-0.59375 0.3125,-0.8125c0.21875,-0.21875 0.48959,-0.32812 0.8125,-0.32812h5.375c0.64584,0 1.25,0.17188 1.8125,0.51563c0.57292,0.34375 1.03125,0.81771 1.375,1.42188c0.35417,0.60416 0.53125,1.29688 0.53125,2.07813c0,0.46875 -0.09896,0.92709 -0.29687,1.375c-0.1875,0.44791 -0.44791,0.85416 -0.78125,1.21875c-0.32291,0.36459 -0.69271,0.64584 -1.10937,0.84375l0.01563,-0.4375c0.35417,0.1875 0.64584,0.41146 0.875,0.67188c0.22917,0.25 0.40625,0.52084 0.53125,0.8125c0.13542,0.29166 0.21354,0.60416 0.23438,0.9375c0.05209,0.3125 0.08854,0.58854 0.10938,0.82813c0.02084,0.23959 0.05729,0.44271 0.10938,0.60938c0.0625,0.15625 0.17188,0.27604 0.32813,0.35938c0.27084,0.16666 0.4375,0.40104 0.5,0.70313c0.07292,0.30209 0.00521,0.57291 -0.20312,0.8125c-0.13541,0.15625 -0.3125,0.26041 -0.53125,0.3125c-0.20833,0.04166 -0.41666,0.04166 -0.625,0c-0.20833,-0.05209 -0.38021,-0.11459 -0.51562,-0.1875c-0.21875,-0.125 -0.43229,-0.30729 -0.64062,-0.54687c-0.20833,-0.23959 -0.38021,-0.5625 -0.51562,-0.96875c-0.125,-0.41666 -0.1875,-0.94791 -0.1875,-1.59375c0,-0.21875 -0.04166,-0.41666 -0.125,-0.59375c-0.07291,-0.17709 -0.17708,-0.32812 -0.3125,-0.45312c-0.13541,-0.13541 -0.30729,-0.23437 -0.51562,-0.29687c-0.20833,-0.07291 -0.45833,-0.10937 -0.75,-0.10937h-3.76562l0.28125,-0.4375v4.04688c0,0.32291 -0.08854,0.59375 -0.26562,0.8125c-0.17708,0.21875 -0.41666,0.32813 -0.71875,0.32813zM320.05117,179.8593h4.34375c0.22917,0 0.44792,-0.10416 0.65625,-0.3125c0.20834,-0.20834 0.38021,-0.48959 0.51563,-0.84375c0.14584,-0.35416 0.21875,-0.74479 0.21875,-1.17187c0,-0.54166 -0.14583,-0.99479 -0.4375,-1.35937c-0.29166,-0.36459 -0.60937,-0.54687 -0.95312,-0.54687h-4.3125l0.23438,-0.60937v5.28125zM339.97783,173.45305c0.32292,0 0.58334,0.10938 0.78125,0.32813c0.19792,0.21875 0.29688,0.48959 0.29688,0.8125v6.75c0,1.03125 -0.22396,1.94791 -0.67187,2.75c-0.4375,0.79166 -1.04166,1.41146 -1.8125,1.85938c-0.77083,0.44791 -1.66666,0.67188 -2.6875,0.67188c-1.01041,0 -1.90625,-0.22396 -2.6875,-0.67187c-0.78125,-0.44791 -1.39062,-1.06771 -1.82812,-1.85937c-0.4375,-0.80209 -0.65625,-1.71875 -0.65625,-2.75v-6.75c0,-0.32291 0.10938,-0.59375 0.32813,-0.8125c0.22917,-0.21875 0.51563,-0.32812 0.85938,-0.32812c0.28125,0 0.53646,0.10938 0.76563,0.32813c0.23959,0.21875 0.35938,0.48959 0.35938,0.8125v6.75c0,0.625 0.13021,1.16666 0.39063,1.625c0.27084,0.44791 0.625,0.79688 1.0625,1.04688c0.44792,0.25 0.91667,0.375 1.40625,0.375c0.54167,0 1.04167,-0.125 1.5,-0.375c0.45834,-0.25 0.82813,-0.59896 1.10938,-1.04687c0.29167,-0.45834 0.4375,-1 0.4375,-1.625v-6.75c0,-0.32291 0.09375,-0.59375 0.28125,-0.8125c0.1875,-0.21875 0.44271,-0.32812 0.76563,-0.32812zM353.77113,173.46868c0.29166,0 0.53125,0.09896 0.71875,0.29688c0.1875,0.19791 0.28125,0.44791 0.28125,0.75v10.875c0,0.32291 -0.10937,0.59375 -0.32812,0.8125c-0.21875,0.21875 -0.48959,0.32813 -0.8125,0.32813c-0.15625,0 -0.32292,-0.02604 -0.5,-0.07812c-0.16667,-0.0625 -0.29167,-0.14062 -0.375,-0.23437l-7.32812,-9.3125l0.48438,-0.29687v8.875c0,0.30209 -0.09896,0.55209 -0.29687,0.75c-0.1875,0.19791 -0.4375,0.29688 -0.75,0.29688c-0.30209,0 -0.54687,-0.09896 -0.73437,-0.29687c-0.17709,-0.19791 -0.26562,-0.44791 -0.26562,-0.75v-10.875c0,-0.32291 0.10416,-0.59375 0.3125,-0.8125c0.21875,-0.21875 0.48958,-0.32812 0.8125,-0.32812c0.17708,0 0.35938,0.03646 0.54688,0.10938c0.1875,0.0625 0.32291,0.16146 0.40625,0.29688l7.10938,9.07813l-0.3125,0.21875v-8.65625c0,-0.30209 0.09375,-0.55209 0.28125,-0.75c0.1875,-0.19791 0.4375,-0.29687 0.75,-0.29687zM363.47286,181.9218c-0.33334,0 -0.60937,-0.10416 -0.82812,-0.3125c-0.20834,-0.21875 -0.3125,-0.48959 -0.3125,-0.8125c0,-0.32291 0.10416,-0.58334 0.3125,-0.78125c0.21875,-0.20834 0.49479,-0.3125 0.82813,-0.3125h3.23438c0.32291,0 0.59375,0.10938 0.8125,0.32813c0.21875,0.21875 0.32813,0.48959 0.32813,0.8125c0,0.3125 -0.10937,0.57291 -0.32812,0.78125c-0.21875,0.19791 -0.48959,0.29688 -0.8125,0.29688z"/><path d="M197.00209,174.06245c0.32292,0.15625 0.51042,0.41146 0.5625,0.76563c0.05208,0.34375 -0.03646,0.66146 -0.26562,0.95313c-0.16667,0.21875 -0.38021,0.34375 -0.64062,0.375c-0.25,0.02083 -0.50521,-0.03125 -0.76562,-0.15625c-0.29167,-0.13542 -0.60417,-0.23958 -0.9375,-0.3125c-0.33333,-0.07292 -0.67708,-0.10937 -1.03125,-0.10937c-0.67708,0 -1.28125,0.10417 -1.8125,0.3125c-0.52083,0.20833 -0.96875,0.51042 -1.34375,0.90625c-0.375,0.38542 -0.66146,0.84896 -0.85937,1.39063c-0.1875,0.53125 -0.28125,1.11979 -0.28125,1.76563c0,0.76042 0.10938,1.42188 0.32813,1.98438c0.21875,0.55208 0.52083,1.01563 0.90625,1.39063c0.38542,0.375 0.83854,0.65625 1.35938,0.84375c0.52083,0.17708 1.08854,0.26563 1.70313,0.26563c0.33333,0 0.66667,-0.03125 1,-0.09375c0.33333,-0.0625 0.65625,-0.17708 0.96875,-0.34375c0.26042,-0.125 0.51563,-0.16667 0.76563,-0.125c0.26042,0.03125 0.47917,0.16146 0.65625,0.39063c0.25,0.3125 0.33854,0.63542 0.26563,0.96875c-0.0625,0.32292 -0.25,0.55729 -0.5625,0.70313c-0.32292,0.16667 -0.65625,0.30208 -1,0.40625c-0.34375,0.10417 -0.69271,0.18229 -1.04687,0.23438c-0.34375,0.0625 -0.69271,0.09375 -1.04687,0.09375c-0.89583,0 -1.74479,-0.14062 -2.54687,-0.42187c-0.80208,-0.29167 -1.52083,-0.71354 -2.15625,-1.26562c-0.625,-0.5625 -1.11979,-1.26562 -1.48437,-2.10937c-0.35417,-0.84375 -0.36979,-4.76041 -0.04687,-5.56249c0.33333,-0.8125 0.80208,-1.51042 1.40625,-2.09375c0.60417,-0.59375 1.3125,-1.05729 2.125,-1.39062c0.82292,-0.33333 1.72396,-0.5 2.70313,-0.5c0.54167,0 1.07292,0.0625 1.59375,0.1875c0.52083,0.125 1.01563,0.30729 1.48438,0.54688z"/></g></g></svg>