<svg version="1.1" xmlns="http://www.w3.org/2000/svg" xmlns:xlink="http://www.w3.org/1999/xlink" width="47.76198" height="13.99997" viewBox="0,0,47.76198,13.99997"><g transform="translate(-196.55083,-172.7688)"><g data-paper-data="{&quot;isPaintingLayer&quot;:true}" fill="#f0f0f0" fill-rule="nonzero" stroke="none" stroke-linejoin="miter" stroke-miterlimit="10" stroke-dasharray="" stroke-dashoffset="0" style="mix-blend-mode: normal"><path d="M228.01473,183.03033v-6.0606h16.29808v6.0606z" stroke-width="0" stroke-linecap="butt"/><path d="M220.45948,182.95626c0,0.57292 -0.08333,1.09375 -0.25,1.5625c-0.16667,0.46875 -0.45833,0.86979 -0.875,1.20313c-0.41667,0.33333 -1,0.58854 -1.75,0.76563c-0.73958,0.1875 -1.67708,0.28125 -2.8125,0.28125c-1.14583,0 -2.09375,-0.09375 -2.84375,-0.28125c-0.75,-0.17708 -1.33333,-0.43229 -1.75,-0.76562c-0.41667,-0.33333 -0.70833,-0.73437 -0.875,-1.20312c-0.16667,-0.46875 -0.25,-0.98958 -0.25,-1.5625v-6.35937c0,-0.57292 0.08333,-1.08854 0.25,-1.54687c0.16667,-0.46875 0.45833,-0.86979 0.875,-1.20312c0.41667,-0.34375 1,-0.60937 1.75,-0.79687c0.75,-0.1875 1.69792,-0.28125 2.84375,-0.28125c1.13542,0 2.07292,0.09375 2.8125,0.28125c0.75,0.1875 1.33333,0.45313 1.75,0.79688c0.41667,0.33333 0.70833,0.73438 0.875,1.20313c0.16667,0.45833 0.25,0.97396 0.25,1.54688zM213.27198,182.28439c0,0.25 0.08854,0.45833 0.26563,0.625c0.1875,0.16667 0.59896,0.25 1.23438,0.25c0.64583,0 1.05208,-0.08333 1.21875,-0.25c0.17708,-0.16667 0.26563,-0.375 0.26563,-0.625v-5.01562c0,-0.25 -0.08854,-0.45312 -0.26562,-0.60937c-0.16667,-0.16667 -0.57292,-0.25 -1.21875,-0.25c-0.63542,0 -1.04687,0.08333 -1.23437,0.25c-0.17708,0.15625 -0.26562,0.35938 -0.26562,0.60938z" stroke-width="1" stroke-linecap="square"/><path d="M200.76955,177.98751c0.625,-0.1875 1.41667,-0.28125 2.375,-0.28125c1.125,0 2.00521,0.125 2.64063,0.375c0.63542,0.25 1.08333,0.625 1.34375,1.125c0.26042,0.48958 0.39063,1.10938 0.39063,1.85938v1.79688c0,0.76042 -0.15104,1.42188 -0.45312,1.98438c-0.29167,0.5625 -0.82812,1 -1.60937,1.3125c-0.77083,0.3125 -1.875,0.46875 -3.3125,0.46875c-1.13542,0 -2.07292,-0.09375 -2.8125,-0.28125c-0.72917,-0.17708 -1.29687,-0.42708 -1.70312,-0.75c-0.40625,-0.33333 -0.6875,-0.72917 -0.84375,-1.1875c-0.15625,-0.45833 -0.23437,-0.97396 -0.23437,-1.54687v-6.125c0,-0.76042 0.13542,-1.42708 0.40625,-2c0.28125,-0.57292 0.75521,-1.02083 1.42188,-1.34375c0.67708,-0.32292 1.59896,-0.48437 2.76563,-0.48437h4.29688c0.44792,0 0.67188,0.22396 0.67188,0.67188v2.20313c0,0.44792 -0.22396,0.67188 -0.67187,0.67188h-3.5c-0.45833,0 -0.77083,0.07292 -0.9375,0.21875c-0.15625,0.14583 -0.23437,0.44792 -0.23437,0.90625zM200.76955,181.45626v1.10938c0,0.19792 0.07292,0.36458 0.21875,0.5c0.15625,0.125 0.5,0.1875 1.03125,0.1875c0.5625,0 0.91667,-0.0625 1.0625,-0.1875c0.14583,-0.13542 0.21875,-0.30208 0.21875,-0.5v-1.10937c0,-0.1875 -0.07292,-0.34375 -0.21875,-0.46875c-0.14583,-0.13542 -0.5,-0.20312 -1.0625,-0.20312c-0.53125,0 -0.875,0.06771 -1.03125,0.20313c-0.14583,0.125 -0.21875,0.28125 -0.21875,0.46875z" stroke-width="1" stroke-linecap="square"/></g></g></svg>