<svg version="1.1" xmlns="http://www.w3.org/2000/svg" xmlns:xlink="http://www.w3.org/1999/xlink" width="695.53558" height="529.55283" viewBox="0,0,695.53558,529.55283"><g transform="translate(110.89528,86.93791)"><g data-paper-data="{&quot;isPaintingLayer&quot;:true}" fill-rule="nonzero" stroke="none" stroke-width="0" stroke-linecap="butt" stroke-linejoin="miter" stroke-miterlimit="10" stroke-dasharray="" stroke-dashoffset="0" style="mix-blend-mode: normal"><path d="M388.32933,26.45543c2.44543,12.91793 8.65552,22.02402 2.32222,23.22295c-0.85925,0.16266 -1.15507,-4.62633 -5.09488,-3.18138c-3.86738,1.41839 -11.38487,9.08971 -11.69702,7.30501c-0.067,-0.38306 -0.13171,-2.24729 -1.65453,-3.45099c-1.76981,-1.39893 -4.97082,-2.20595 -4.0072,-3.45957c0.62603,-0.81444 9.93901,0.08961 10.63822,-0.77351c3.51686,-4.34132 7.42524,-8.85725 6.35312,-9.1104c-4.22321,-0.99719 -15.09554,9.30254 -15.82931,4.27728c-0.04836,-0.33119 6.59006,-3.51664 5.56019,-5.47901c-0.72721,-1.38569 -9.60191,-1.53205 -8.35754,-2.39858c3.97047,-2.76489 16.94371,-2.54948 16.78844,-3.36973c-0.09487,-0.50118 -3.29402,-2.72135 -9.20892,-2.32586c-3.03563,0.20297 -3.48371,1.18342 -3.6938,0.14967c-0.22238,-1.09428 -5.72911,-6.71916 -1.44303,-9.50678c1.80482,-1.17383 2.73263,5.63667 4.67171,5.77049c2.82105,0.19469 6.32225,-5.88691 5.64811,-5.99263c-3.88999,-0.60997 -8.16027,-5.81034 -8.387,-6.74803c-0.69432,-2.87146 1.29895,-0.53402 3.92486,-1.88751c1.47884,-0.76226 1.33509,5.11263 2.4764,4.11309c3.71564,-3.25408 2.19559,-10.28353 4.45647,-10.71152c6.3333,-1.19893 4.08803,10.63909 6.53348,23.55701z" data-paper-data="{&quot;index&quot;:null}" fill="#344e5f"/><path d="M416.98425,261.78714c-17.49538,-2.71032 -36.13602,-21.91994 -47.3246,-12.74357c-19.76289,16.20864 -6.71577,-2.46352 -3.92504,-26.68741c4.40161,-38.20653 10.94412,-86.11834 15.23471,-126.20256c5.2383,-48.93815 2.79894,-93.3252 5.48379,-93.22907c6.55911,0.23484 34.15323,-37.67202 46.31956,-37.11697c27.98093,1.27654 58.53319,-44.88208 63.43566,-44.88208c9.78733,0 23.323,84.51008 22.48262,107.56603c-2.71212,74.40724 11.90411,225.11802 11.90411,242.14865z" data-paper-data="{&quot;index&quot;:null}" fill="#344e5f"/><path d="M324.68441,108.64635c-0.05661,-0.35159 -0.8212,-1.42637 -1.93901,-2.24862c-1.35803,-0.99896 -3.19491,-1.19753 -3.55596,-1.43459c-0.08872,-0.05825 -0.84524,-3.78765 -3.52496,-5.16796c-2.62718,-1.35325 -6.61679,-1.07726 -6.70265,-1.63347c-0.1275,-0.82603 2.99214,0.09343 4.12374,-1.37133c0.69326,-0.89737 -0.89521,-4.68912 0.07766,-4.45102c1.7342,0.42443 4.07295,6.53913 5.26113,6.50724c0.67407,-0.01809 -1.55699,-4.12099 -0.54186,-4.38488c0.04504,-0.01171 2.14437,0.91494 2.3544,1.63748c0.13946,0.47978 0.27036,1.36224 0.3743,2.09677c0.10078,0.71226 0.17862,1.27079 0.06346,2.11061c-0.21427,1.56269 2.65824,2.4355 3.77972,3.33451c1.03573,0.83027 0.68473,1.77952 2.13772,1.88382c0.3461,0.02484 1.86976,-3.91476 1.01279,-5.02989c-0.47401,-0.61679 -4.59539,0.92781 -4.89768,-0.30375c-0.24153,-0.984 1.34318,-1.03806 1.17862,-2.62636c-0.17733,-1.71164 -1.84078,-4.11524 -1.96456,-5.42989c-0.04043,-0.42946 2.66696,-0.54471 3.62206,0.66878c0.94544,1.20121 0.72017,3.14328 1.87792,4.0388c0.60292,0.46636 1.29774,1.40339 1.67444,1.38294c1.29331,-0.0702 0.78372,-5.8058 2.07393,-5.69201c1.89642,0.16726 5.44338,-0.96944 5.51493,0.74053c0.01371,0.32763 -3.9885,2.33354 -5.27292,4.90121c-1.28442,2.56767 -1.26581,7.32859 -0.78247,7.20404c0.24342,-0.06274 1.34995,-0.01723 1.95916,-0.38395c1.12702,-0.67841 1.74188,-1.44585 1.79412,-2.76026c0.04641,-1.16771 -0.09358,-2.92843 0.30938,-3.29098c0.43619,-0.39246 0.89826,0.56497 1.11897,1.36903c0.19246,0.70114 0.43112,1.70705 0.51782,1.66206c0.79987,-0.41501 0.34101,-2.01631 0.54007,-2.83506c0.26444,-1.08769 0.9829,-2.04687 1.3802,-2.27678c0.90184,-0.52188 0.81368,-0.29506 1.35221,-0.39397c0.87512,-0.16073 0.16518,0.89887 0.22366,1.26205c0.00326,0.02023 -1.02195,1.52499 -1.29679,2.32062c-0.36558,1.05831 -0.37577,3.06773 -0.75736,4.15412c-0.42797,1.21841 -1.23478,1.47636 -1.79423,1.88011c-1.43331,1.03441 -2.67931,1.05138 -4.04946,2.33125c-1.16741,1.09049 -1.1271,2.33817 -1.21611,3.52591c-0.09139,1.2195 -0.30484,2.36633 -0.99017,2.47668c-0.76503,0.12318 -2.49128,0.60975 -3.42974,0.0294c-0.55862,-0.34545 -0.94752,-2.98422 -3.71399,-4.16891c-2.28331,-0.97778 -7.07719,1.74655 -7.30114,1.20134c-0.29974,-0.72971 -0.15462,-4.55468 2.13162,-4.72114c0.2072,-0.01508 1.80569,-0.04338 3.28229,0.36474c2.00693,0.55469 4.00565,1.58857 3.99473,1.52075z" data-paper-data="{&quot;index&quot;:null}" fill="#344e5f"/><path d="M378.87119,149.91703c2.44543,12.91793 8.65552,22.02402 2.32222,23.22295c-0.85925,0.16266 -1.15507,-4.62633 -5.09488,-3.18138c-3.86738,1.41839 -11.38487,9.08971 -11.69702,7.30501c-0.067,-0.38306 -0.13171,-2.24729 -1.65453,-3.45099c-1.76981,-1.39893 -4.97082,-2.20595 -4.0072,-3.45957c0.62603,-0.81444 9.93901,0.08961 10.63822,-0.77351c3.51686,-4.34132 7.42524,-8.85725 6.35312,-9.1104c-4.22321,-0.99719 -15.09554,9.30254 -15.82931,4.27728c-0.04836,-0.33119 6.59006,-3.51664 5.56019,-5.47901c-0.72721,-1.38569 -9.60191,-1.53205 -8.35754,-2.39858c3.97047,-2.76489 16.94371,-2.54948 16.78844,-3.36973c-0.09487,-0.50118 -3.29402,-2.72135 -9.20892,-2.32586c-3.03563,0.20297 -3.48371,1.18342 -3.6938,0.14967c-0.22238,-1.09428 -5.72911,-6.71916 -1.44303,-9.50678c1.80482,-1.17383 2.73263,5.63667 4.67171,5.77049c2.82105,0.19469 6.32225,-5.88691 5.64811,-5.99263c-3.88999,-0.60997 -8.16027,-5.81034 -8.387,-6.74803c-0.69432,-2.87146 1.29895,-0.53402 3.92486,-1.88751c1.47884,-0.76226 1.33509,5.11263 2.4764,4.11309c1.08772,-0.9526 3.37104,-9.04487 5.02992,-10.02064c4.00784,-2.35743 8.07606,2.61124 9.67509,2.30854c6.33331,-1.19893 -6.16051,7.63967 -3.71506,20.55759z" data-paper-data="{&quot;index&quot;:null}" fill="#344e5f"/><path d="M342.75608,111.78654c0.76628,-0.7941 8.61085,-4.71849 11.88581,-2.27438c1.61055,1.20196 -1.83612,7.82972 -0.05987,9.54373c5.38815,5.19938 8.82943,10.37464 7.68631,11.55927c-1.14312,1.18463 -6.43777,-2.06996 -11.82593,-7.26934c-2.51847,-2.43023 -10.01124,-2.58285 -11.4097,-4.59751c-1.5935,-2.29562 3.11457,-6.33084 3.72339,-6.96176z" data-paper-data="{&quot;index&quot;:null}" fill="#344e5f"/><path d="M372.03999,109.02064c0.35363,-0.26385 1.09533,-1.72001 1.35708,-3.41922c0.31801,-2.06438 -0.51761,-4.19548 -0.4644,-4.72795c0.01308,-0.13085 3.6746,-3.10093 3.65323,-6.83547c-0.02094,-3.66133 -2.61258,-7.88425 -2.05102,-8.29759c0.83398,-0.61384 1.61378,3.33945 3.87144,3.74189c1.38314,0.24655 4.63588,-3.6729 4.93248,-2.46795c0.52871,2.1479 -4.84463,8.2238 -4.12804,9.51032c0.40653,0.72987 3.63238,-4.07375 4.50448,-3.11035c0.03869,0.04275 0.22533,2.8797 -0.44766,3.52482c-0.44686,0.42837 -1.34087,1.07832 -2.08787,1.61381c-0.72437,0.51925 -1.29307,0.92511 -2.28139,1.2804c-1.839,0.66111 -1.14972,4.31627 -1.49367,6.06353c-0.31765,1.61368 -1.56142,1.77274 -0.84248,3.42818c0.17124,0.39433 5.37157,-0.19233 6.10458,-1.77309c0.40546,-0.87435 -3.65493,-4.51425 -2.47588,-5.55268c0.94205,-0.82969 1.91044,0.87955 3.56026,-0.21225c1.77793,-1.17659 3.46325,-4.3821 4.83595,-5.27215c0.44842,-0.29074 2.12805,2.6163 1.34331,4.36124c-0.7768,1.72729 -3.03872,2.59395 -3.35803,4.37904c-0.16629,0.92963 -0.79672,2.23016 -0.55818,2.6321c0.81896,1.38001 6.82526,-2.46973 7.44041,-0.9876c0.90417,2.17851 4.18709,5.4216 2.35031,6.48107c-0.35191,0.20299 -4.85052,-3.04143 -8.40702,-2.97904c-3.55648,0.0624 -8.77407,2.81385 -8.36003,3.27319c0.20852,0.23132 0.79329,1.47257 1.54547,1.93122c1.39149,0.84849 2.58698,1.08349 4.06038,0.38687c1.30896,-0.61887 3.16221,-1.7826 3.7915,-1.54806c0.68119,0.25388 -0.10516,1.31053 -0.86154,2.01413c-0.65956,0.61355 -1.6273,1.45265 -1.52817,1.52206c0.91459,0.64034 2.40985,-0.78213 3.42316,-1.03319c1.34614,-0.33354 2.8116,-0.09476 3.29199,0.20965c1.09042,0.69099 0.79077,0.7243 1.2083,1.25895c0.67851,0.86881 -0.89234,0.69699 -1.25763,0.96955c-0.02035,0.01519 -2.26092,-0.24749 -3.2923,-0.0929c-1.37191,0.20562 -3.58441,1.3471 -4.99633,1.55123c-1.58349,0.22895 -2.32958,-0.5091 -3.09388,-0.89186c-1.95815,-0.98064 -2.69152,-2.33921 -4.88299,-3.10968c-1.86721,-0.65646 -3.21424,0.1035 -4.56963,0.68708c-1.39163,0.59917 -2.77348,1.02265 -3.28778,0.33334c-0.57412,-0.76947 -2.09869,-2.38607 -1.9997,-3.74955c0.05892,-0.81161 2.73363,-2.75237 2.44768,-6.46997c-0.236,-3.06832 -5.97767,-6.77002 -5.50741,-7.3287c0.6294,-0.74774 4.91307,-2.78251 6.40733,-0.36734c0.13541,0.21888 1.08343,1.95805 1.48228,3.8137c0.5421,2.52212 0.55326,5.31011 0.62147,5.25921z" data-paper-data="{&quot;index&quot;:null}" fill="#344e5f"/><path d="M316.25239,120.61062c2.75589,-7.5588 -1.8494,-1.29858 7.06293,-3.1135c7.28767,-1.48407 5.88043,-12.19623 16.67515,-7.47284c1.04291,0.45634 12.8708,6.77523 13.99637,7.04164c11.05392,2.61634 14.72236,-9.16577 20.01062,-9.16577c25.5316,0 15.21085,11.7605 15.21085,16.7021c0,4.94159 2.5662,7.15804 -22.96539,7.15804c-11.6244,0 -16.33204,-4.03848 -29.70866,-5.0054c-16.00353,-1.1568 -17.57515,1.13931 -17.57515,-1.55241z" data-paper-data="{&quot;index&quot;:null}" fill="#344e5f"/><path d="M365.97076,192.2387c-0.05661,-0.35159 -0.8212,-1.42637 -1.93901,-2.24862c-1.35803,-0.99896 -3.19491,-1.19753 -3.55596,-1.43459c-0.08872,-0.05825 -0.84524,-3.78765 -3.52496,-5.16796c-2.62718,-1.35325 -6.61679,-1.07726 -6.70265,-1.63347c-0.1275,-0.82603 2.99214,0.09343 4.12374,-1.37133c0.69326,-0.89737 -0.89521,-4.68912 0.07766,-4.45102c1.7342,0.42443 4.07295,6.53913 5.26113,6.50724c0.67407,-0.01809 -1.55699,-4.12099 -0.54186,-4.38488c0.04504,-0.01171 2.14437,0.91494 2.3544,1.63748c0.13946,0.47978 0.27036,1.36224 0.3743,2.09677c0.10078,0.71226 0.17862,1.27079 0.06346,2.11061c-0.21427,1.56269 2.65824,2.4355 3.77972,3.33451c1.03573,0.83027 0.68473,1.77952 2.13772,1.88382c0.3461,0.02484 1.86976,-3.91476 1.01279,-5.02989c-0.47401,-0.61679 -4.59539,0.92781 -4.89768,-0.30375c-0.24153,-0.984 1.34318,-1.03806 1.17862,-2.62636c-0.17733,-1.71164 -1.84078,-4.11524 -1.96456,-5.42989c-0.04043,-0.42946 2.66696,-0.54471 3.62206,0.66878c0.94544,1.20121 0.72017,3.14328 1.87792,4.0388c0.60292,0.46636 1.29774,1.40339 1.67444,1.38294c1.29331,-0.0702 0.78372,-5.8058 2.07393,-5.69201c1.89642,0.16726 5.44338,-0.96944 5.51493,0.74053c0.01371,0.32763 -3.9885,2.33354 -5.27292,4.90121c-1.28442,2.56767 -1.26581,7.32859 -0.78247,7.20404c0.24342,-0.06274 1.34995,-0.01723 1.95916,-0.38395c1.12702,-0.67841 1.74188,-1.44585 1.79412,-2.76026c0.04641,-1.16771 -0.09358,-2.92843 0.30938,-3.29098c0.43619,-0.39246 0.89826,0.56497 1.11897,1.36903c0.19246,0.70114 0.43112,1.70705 0.51782,1.66206c0.79987,-0.41501 0.34101,-2.01631 0.54007,-2.83506c0.26444,-1.08769 0.9829,-2.04687 1.3802,-2.27678c0.90184,-0.52188 0.81368,-0.29506 1.35221,-0.39397c0.87512,-0.16073 0.16518,0.89887 0.22366,1.26205c0.00326,0.02023 -1.02195,1.52499 -1.29679,2.32062c-0.36558,1.05831 -0.37577,3.06773 -0.75736,4.15412c-0.42797,1.21841 -1.23478,1.47636 -1.79423,1.88011c-1.43331,1.03441 -2.67931,1.05138 -4.04946,2.33125c-1.16741,1.09049 -1.1271,2.33817 -1.21611,3.52591c-0.09139,1.2195 -0.30484,2.36633 -0.99017,2.47668c-0.76503,0.12318 -2.49128,0.60975 -3.42974,0.0294c-0.55862,-0.34545 -0.94752,-2.98422 -3.71399,-4.16891c-2.28331,-0.97778 -7.07719,1.74655 -7.30114,1.20134c-0.29974,-0.72971 -0.15462,-4.55468 2.13162,-4.72114c0.2072,-0.01508 1.80569,-0.04338 3.28229,0.36474c2.00693,0.55469 4.00565,1.58857 3.99473,1.52075z" data-paper-data="{&quot;index&quot;:null}" fill="#344e5f"/><path d="M344.89066,207.59969c0.01237,-1.10346 3.02481,-9.34137 7.08416,-9.81121c1.9963,-0.23105 4.03789,6.95495 6.50611,6.98262c7.48724,0.08395 13.54188,1.48644 13.52343,3.13257c-0.01845,1.64613 -6.10301,2.91254 -13.59025,2.8286c-3.49959,-0.03924 -9.05412,4.99188 -11.45389,4.48627c-2.73444,-0.57611 -2.07936,-6.74213 -2.06953,-7.61884z" data-paper-data="{&quot;index&quot;:null}" fill="#344e5f"/><path d="M373.33908,233.05334c0.35649,0.25999 1.96669,0.53882 3.66745,0.28733c2.06627,-0.30552 3.85576,-1.73296 4.38021,-1.83929c0.12888,-0.02613 4.04742,2.59554 7.60925,1.47277c3.49201,-1.10075 6.76177,-4.82343 7.32245,-4.4089c0.83266,0.61564 -2.7143,2.52762 -2.4324,4.80347c0.1727,1.39429 4.87765,3.34516 3.81394,3.98422c-1.89613,1.13918 -9.28739,-2.20127 -10.30507,-1.13686c-0.57735,0.60385 4.96443,2.26804 4.30138,3.38566c-0.02942,0.04958 -2.68487,1.0653 -3.4999,0.61273c-0.54118,-0.30051 -1.42607,-0.96283 -2.15819,-1.51848c-0.70993,-0.53882 -1.26557,-0.96238 -1.89676,-1.80179c-1.17448,-1.56191 -4.46332,0.17558 -6.23425,0.3627c-1.63554,0.17282 -2.15465,-0.96858 -3.52411,0.20698c-0.32621,0.28001 1.76933,5.07546 3.49602,5.3092c0.95507,0.1293 3.23425,-4.82459 4.57444,-4.00459c1.07079,0.65517 -0.27644,2.08494 1.2537,3.33897c1.64896,1.35141 5.20912,2.01544 6.4647,3.06425c0.41015,0.34262 -1.87157,2.8055 -3.7704,2.5708c-1.87962,-0.23233 -3.37533,-2.13765 -5.17513,-1.91581c-0.93729,0.11552 -2.36596,-0.10293 -2.67958,0.24362c-1.07678,1.18982 4.37435,5.79214 3.13984,6.81737c-1.81455,1.50693 -3.94409,5.60086 -5.49853,4.15865c-0.29782,-0.27631 1.47415,-5.53215 0.36474,-8.91177c-1.10942,-3.3796 -5.27838,-7.55253 -5.59504,-7.02136c-0.15946,0.26751 -1.17279,1.19261 -1.38898,2.04666c-0.39994,1.57994 -0.27159,2.79152 0.82891,3.99365c0.97767,1.06796 2.63659,2.49513 2.59825,3.16561c-0.0415,0.72578 -1.28318,0.28636 -2.1787,-0.22863c-0.78091,-0.44906 -1.86828,-1.126 -1.90533,-1.0108c-0.34185,1.06285 1.45861,2.07161 1.99759,2.96566c0.71603,1.18771 0.92046,2.65835 0.77142,3.20719c-0.33834,1.24579 -0.45861,0.96933 -0.84619,1.52607c-0.62981,0.90473 -0.92933,-0.64684 -1.29757,-0.9154c-0.02052,-0.01496 -0.43091,-2.23324 -0.88305,-3.17303c-0.60141,-1.2501 -2.34511,-3.02706 -2.95691,-4.31582c-0.68616,-1.44535 -0.20123,-2.37606 -0.06113,-3.21928c0.35893,-2.16037 1.44049,-3.26208 1.52976,-5.58333c0.07604,-1.97779 -1.04766,-3.04047 -2.00532,-4.16321c-0.98325,-1.15277 -1.79576,-2.34803 -1.28897,-3.04289c0.56573,-0.77567 1.66027,-2.70948 2.99222,-3.01738c0.79283,-0.18327 3.43663,1.79939 6.90418,0.42883c2.86194,-1.13119 4.70389,-7.70969 5.37649,-7.42529c0.90021,0.38064 4.10876,3.87281 2.24228,6.0134c-0.16916,0.194 -1.55099,1.61313 -3.20623,2.54196c-2.24973,1.26242 -4.9102,2.09603 -4.84143,2.14618z" data-paper-data="{&quot;index&quot;:null}" fill="#344e5f"/><path d="M344.59617,238.38599c-0.63831,-0.90019 -3.04078,-9.3362 -0.03203,-12.10142c1.47964,-1.35987 7.35375,3.25548 9.36728,1.82769c6.10795,-4.33113 11.83136,-6.7536 12.7836,-5.41072c0.95224,1.34288 -3.22728,5.94258 -9.33523,10.27372c-2.8549,2.0244 -4.3936,9.35907 -6.63255,10.3599c-2.55119,1.14043 -5.64389,-4.23398 -6.15104,-4.94918z" data-paper-data="{&quot;index&quot;:null}" fill="#344e5f"/><path d="M456.08004,-37.15934c-11.24116,6.81831 -17.59273,15.82629 -20.93556,10.31506c-0.45353,-0.74772 3.92793,-2.70342 1.19366,-5.88678c-2.684,-3.12483 -12.50366,-7.4764 -10.94161,-8.39432c0.33527,-0.19702 2.05854,-0.91108 2.65209,-2.75921c0.68982,-2.14788 0.32361,-5.42868 1.83546,-4.96562c0.9822,0.30083 3.39992,9.33984 4.45337,9.69214c5.29862,1.772 10.89801,3.84947 10.7593,2.75664c-0.54641,-4.3048 -14.00367,-10.87704 -9.55444,-13.32572c0.29322,-0.16138 5.60349,4.93928 7.08036,3.2869c1.04287,-1.16679 -1.93084,-9.52973 -0.68311,-8.66805c3.98121,2.74941 8.32689,14.97506 9.04067,14.54212c0.43613,-0.26453 1.39407,-4.03892 -1.04964,-9.43992c-1.25415,-2.77189 -2.32946,-2.84787 -1.43494,-3.40698c0.9469,-0.59184 4.28467,-7.72084 8.3978,-4.68382c1.73198,1.27886 -4.3212,4.53504 -3.76684,6.398c0.8065,2.71031 7.7295,3.85764 7.59221,3.18921c-0.79226,-3.857 2.58134,-9.67919 3.38006,-10.22022c2.4459,-1.65678 0.95545,1.02935 3.14351,3.01423c1.23226,1.11782 -4.32028,3.04247 -2.9841,3.76101c4.35004,2.33927 10.40068,-1.54833 11.59401,0.41909c3.34283,5.51123 -8.53113,7.55791 -19.77228,14.37623z" data-paper-data="{&quot;index&quot;:null}" fill="#344e5f"/><path d="M458.74954,-37.03041c1.22712,2.39573 -20.71152,11.72762 -34.42787,20.05305c-11.46487,6.95885 -13.81374,12.69941 -24.15988,17.99885c-22.72405,11.63958 -21.45049,8.49696 -23.70331,4.09876c-2.25282,-4.3982 -16.80015,-10.16036 5.9239,-21.79994c4.70675,-2.41086 13.34313,6.40324 21.98876,-0.96476c0.88034,-0.75025 8.52688,-11.7665 9.24707,-12.64811c7.45435,-9.12518 8.07535,-4.82602 15.23821,-6.82751c8.7597,-2.44769 7.17531,-5.97222 13.07413,-0.50099c6.33061,5.87173 16.17354,-0.66948 16.819,0.59066z" data-paper-data="{&quot;index&quot;:null}" fill="#344e5f"/><path d="M356.45038,2.88245c-3.3771,-1.1744 3.17201,-4.73067 4.81745,-9.18493c1.96215,-5.31161 -7.6622,-4.38657 -6.49672,-7.73799c2.14284,-6.16188 7.32454,2.34545 14.72874,4.92031c3.33668,1.16036 5.3273,-4.4668 6.90329,-1.30513c1.15589,2.31888 9.28959,5.49545 8.4671,7.86059c-1.58681,4.56296 -5.95298,-0.17071 -11.70327,-2.29913c-0.76572,-0.28343 -5.06557,0.17531 -7.75386,1.67c-4.38588,2.43853 -7.77157,6.49052 -8.96274,6.07628z" data-paper-data="{&quot;index&quot;:null}" fill="#344e5f"/><path d="M386.95258,-16.24514c0.35363,-0.26385 1.09533,-1.72001 1.35708,-3.41922c0.31801,-2.06438 -0.51761,-4.19548 -0.4644,-4.72795c0.01308,-0.13085 3.6746,-3.10093 3.65323,-6.83547c-0.02094,-3.66133 -2.61258,-7.88425 -2.05102,-8.29759c0.83398,-0.61384 1.61378,3.33945 3.87144,3.74189c1.38314,0.24655 4.63588,-3.6729 4.93248,-2.46795c0.52871,2.1479 -4.84463,8.2238 -4.12804,9.51032c0.40653,0.72987 3.63238,-4.07375 4.50448,-3.11035c0.03869,0.04275 0.22533,2.8797 -0.44766,3.52482c-0.44686,0.42837 -1.34087,1.07832 -2.08787,1.61381c-0.72437,0.51925 -1.29307,0.92511 -2.28139,1.2804c-1.839,0.66111 -1.14972,4.31627 -1.49367,6.06353c-0.31765,1.61368 -1.56142,1.77274 -0.84248,3.42818c0.17124,0.39433 5.37157,-0.19233 6.10458,-1.77309c0.40546,-0.87435 -3.65493,-4.51425 -2.47588,-5.55268c0.94205,-0.82969 1.91044,0.87955 3.56026,-0.21225c1.77793,-1.17659 3.46325,-4.3821 4.83595,-5.27215c0.44842,-0.29074 2.12805,2.6163 1.34331,4.36124c-0.7768,1.72729 -3.03872,2.59395 -3.35803,4.37904c-0.16629,0.92963 -0.79672,2.23016 -0.55818,2.6321c0.81896,1.38001 6.82526,-2.46973 7.44041,-0.9876c0.90417,2.17851 4.18709,5.4216 2.35031,6.48107c-0.35191,0.20299 -4.85052,-3.04143 -8.40702,-2.97904c-3.55648,0.0624 -8.77407,2.81385 -8.36003,3.27319c0.20852,0.23132 0.79329,1.47257 1.54547,1.93122c1.39149,0.84849 2.58698,1.08349 4.06038,0.38687c1.30896,-0.61887 3.16221,-1.7826 3.7915,-1.54806c0.68119,0.25388 -0.10516,1.31053 -0.86154,2.01413c-0.65956,0.61355 -1.6273,1.45265 -1.52817,1.52206c0.91459,0.64034 2.40985,-0.78213 3.42316,-1.03319c1.34614,-0.33354 2.8116,-0.09476 3.29199,0.20965c1.09042,0.69099 0.79077,0.7243 1.2083,1.25895c0.67851,0.86881 -0.89234,0.69699 -1.25763,0.96955c-0.02035,0.01519 -2.26092,-0.24749 -3.2923,-0.0929c-1.37191,0.20562 -3.58441,1.3471 -4.99633,1.55123c-1.58349,0.22895 -2.32958,-0.5091 -3.09388,-0.89186c-1.95815,-0.98064 -2.69152,-2.33921 -4.88299,-3.10968c-1.86721,-0.65646 -3.21424,0.1035 -4.56963,0.68708c-1.39163,0.59917 -2.77348,1.02265 -3.28778,0.33334c-0.57412,-0.76947 -2.09869,-2.38607 -1.9997,-3.74955c0.05892,-0.81161 2.73363,-2.75237 2.44768,-6.46997c-0.236,-3.06832 -5.97767,-6.77002 -5.50741,-7.3287c0.6294,-0.74774 4.91307,-2.78251 6.40733,-0.36734c0.13541,0.21888 1.08343,1.95805 1.48228,3.8137c0.5421,2.52212 0.55326,5.31011 0.62147,5.25921z" data-paper-data="{&quot;index&quot;:null}" fill="#344e5f"/><path d="M-102.94497,442.61492v-528.64939h687.58527v528.64939z" fill="none"/><path d="M-110.89528,435.59936v-522.53727h694.92685v522.53727z" fill="none"/><path d="M515.76943,315.82573c0,25.49161 -22.33131,14.91069 -45.6459,15.54233c-9.78381,0.26507 -4.33267,20.36334 -13.90969,20.36334c-7.24331,0 -23.29358,15.80577 -38.30701,20.32141c-12.49585,3.75842 -24.4381,-3.26821 -28.46124,-6.2865c-1.94165,-1.45669 24.18392,-9.91053 22.68375,-12.67808c-0.48858,-0.90134 -10.04648,-5.81287 -15.35558,-7.11757c-6.93335,-1.70386 -5.06843,-7.0648 -6.50157,-12.6473c-2.52273,-9.82678 -5.14299,-22.58936 -11.57795,-33.38476c-2.99401,-5.02281 13.90591,-11.26398 6.99639,-13.32129c-6.65516,-1.98158 -10.38535,-10.52866 -10.47382,-13.58462c-0.21218,-7.32869 -3.50995,-12.58585 -3.50995,-18.30022c0,-5.91037 3.10281,-8.28144 3.64669,-13.79291c0.9552,-9.67974 0.20908,-22.34347 5.21362,-32.90838c1.57756,-3.33034 9.84507,-9.85735 11.37493,-13.14027c2.90319,-6.22997 7.47319,-11.34136 8.70497,-17.62752c1.0197,-5.20387 -1.29989,-11.71875 0.67665,-15.80612c0.73839,-1.52696 1.84131,-5.23566 3.67653,-6.19917c1.71591,-0.90087 4.16543,0.93518 4.95002,-0.20409c1.82804,-2.65438 17.81305,-10.47109 37.12525,-11.90955c3.91675,-0.29174 32.86241,-19.04891 36.99926,-19.9393c15.18276,-3.26785 27.12601,3.55263 28.93124,3.94581c29.22501,6.36527 2.76339,158.86312 2.76339,188.67474z" fill="#344e5f"/><path d="M385.99407,224.04924c0.51379,18.68264 5.24835,32.78954 -1.09774,33.15309c-0.86099,0.04934 -0.45618,-6.7492 -4.50514,-5.53957c-3.97451,1.1874 -12.41149,10.40839 -12.45742,7.83262c-0.00985,-0.55285 0.19688,-3.18878 -1.11308,-5.20016c-1.52243,-2.33759 -4.52541,-4.14151 -3.40481,-5.70369c0.72801,-1.01491 9.67381,2.20223 10.48019,1.13414c4.05592,-5.37236 8.5187,-10.90853 7.51043,-11.4886c-3.97172,-2.28496 -16.0588,9.93264 -16.04665,2.71027c0.0008,-0.47599 6.93179,-3.57027 6.21206,-6.5459c-0.5082,-2.10116 -9.13649,-4.16092 -7.79829,-5.11994c4.26986,-3.06 16.88269,-0.04695 16.85008,-1.23324c-0.01993,-0.72485 -2.81656,-4.51626 -8.6386,-5.1955c-2.98798,-0.3486 -3.56657,0.93701 -3.62172,-0.56107c-0.05836,-1.58578 -4.61128,-10.6487 -0.03052,-13.67474c1.92891,-1.27424 1.8475,8.5 3.718,9.0933c2.72128,0.86317 7.01381,-6.96053 6.37208,-7.25005c-3.70298,-1.67064 -7.11226,-9.87808 -7.19752,-11.2445c-0.26112,-4.18436 1.34329,-0.47986 4.09843,-1.83529c1.55163,-0.76336 0.56127,7.47089 1.81827,6.30323c1.198,-1.11282 4.59454,-12.01934 6.35255,-13.04544c4.24732,-2.47901 7.49319,5.36031 9.09545,5.26851c6.3461,-0.36358 -7.10984,9.45991 -6.59605,28.14255z" data-paper-data="{&quot;index&quot;:null}" fill="#344e5f"/><path d="M325.10996,190.60124c0.65932,-0.55873 6.62537,-2.22852 8.3553,1.00639c0.85073,1.59086 -2.68435,7.04731 -1.81846,9.17592c2.62661,6.45704 3.95856,12.36718 2.97499,13.20069c-0.98357,0.83351 -3.91021,-3.72526 -6.53682,-10.1823c-1.2277,-3.01807 -6.19922,-5.18042 -6.75698,-7.49698c-0.63555,-2.63963 3.25814,-5.2598 3.78198,-5.70371z" data-paper-data="{&quot;index&quot;:null}" fill="#344e5f"/><path d="M333.4165,207.7511c1.0144,-7.91119 1.59219,-4.13797 7.47293,-7.40585c4.80872,-2.67215 3.37503,-6.49139 11.29317,-3.62368c0.765,0.27706 9.57238,4.54683 10.37203,4.62287c7.85313,0.74685 9.00574,-11.4805 12.61891,-12.35754c6.97824,-1.69386 28.42647,-16.0291 29.85643,-9.80193c2.14467,9.33957 -18.0089,41.49764 -17.66824,44.42139c0.56781,4.87317 2.69948,-14.03801 -14.74478,-9.80367c-7.94228,1.92788 -11.62278,-1.27393 -20.87336,-0.00898c-11.06722,1.51335 -27.12019,7.12966 -27.42948,4.47523c-0.16269,-1.39622 8.01373,-2.02756 9.10238,-10.51784z" data-paper-data="{&quot;index&quot;:null}" fill="#344e5f"/><path d="M354.66631,177.53244c0.74935,0.21902 5.96444,4.72237 5.75696,8.79783c-0.10204,2.00422 -5.25767,2.6625 -5.59708,5.08177c-1.02959,7.33876 -2.77045,13.02316 -3.88833,12.69644c-1.11789,-0.32672 -1.18947,-6.54081 -0.15989,-13.87958c0.48124,-3.4302 -2.22128,-9.82941 -1.56549,-12.09185c0.74722,-2.57798 4.85846,-0.77859 5.45383,-0.60459z" data-paper-data="{&quot;index&quot;:null}" fill="#344e5f"/><path d="M330.3183,216.58068c-0.01064,-0.0544 -0.79585,1.40999 -1.70039,2.5196c-0.66551,0.8164 -1.49885,1.34934 -1.60961,1.4099c-1.22214,0.66821 -2.21574,-2.13614 -2.23599,-2.78464c-0.01513,-0.48453 3.11793,-0.11293 4.06377,-1.6341c1.14598,-1.84306 0.71338,-3.94723 0.91927,-4.39867c0.34589,-0.75841 1.35534,-0.99362 1.78051,-1.16686c0.38087,-0.15519 0.76665,0.62673 1.10677,1.50519c0.33126,0.85558 0.61004,1.80073 1.47556,2.20994c1.01583,0.48028 1.66419,0.06106 2.65373,0.33626c0.38624,0.10741 0.86537,0.02027 1.37927,0.78126c0.45821,0.67853 0.94603,2.17467 1.38921,2.8378c0.33319,0.49853 1.22466,1.26621 1.22783,1.28244c0.05698,0.29132 0.67854,0.83605 0.18743,1.01942c-0.30222,0.11284 -0.20216,0.25157 -0.79381,0.17467c-0.26065,-0.03388 -0.86249,-0.5007 -1.26044,-1.22081c-0.29955,-0.54205 -0.44683,-1.89619 -0.96009,-1.92867c-0.05563,-0.00353 0.06253,0.82993 0.13138,1.41992c0.07897,0.67659 0.06997,1.5513 -0.24983,1.40959c-0.29543,-0.13091 -0.64588,-1.49349 -0.9503,-2.34889c-0.34266,-0.96287 -0.84489,-1.3225 -1.59057,-1.43817c-0.40308,-0.06253 -0.96431,0.35498 -1.10525,0.39252c-0.27984,0.07458 0.85387,3.63421 2.13463,5.10531c1.28076,1.47111 3.83194,1.58094 3.90353,1.83021c0.37365,1.30099 -1.73339,1.68207 -2.67382,2.46423c-0.63981,0.53213 -1.75371,-3.9251 -2.43931,-3.52921c-0.1997,0.11531 -0.33395,1.05547 -0.53371,1.6125c-0.38359,1.06964 0.19927,2.44097 -0.00112,3.66516c-0.20245,1.23671 -1.63006,2.08911 -1.71228,1.75459c-0.25171,-1.02406 0.03121,-3.39449 -0.28814,-4.73339c-0.29633,-1.24242 -1.12874,-0.73348 -1.24016,-1.55158c-0.13945,-1.02392 2.36256,-1.29968 2.45954,-1.9243c0.17532,-1.12928 -1.55861,-3.54137 -1.73161,-3.40287c-0.72627,0.58147 -0.31681,1.16825 -0.65298,2.1469c-0.364,1.05967 -1.63971,2.70672 -1.15364,3.79872c0.26123,0.58686 0.35511,1.03068 0.47405,1.59719c0.12265,0.58422 0.26689,1.28819 0.30999,1.6946c0.06491,0.61205 -0.79807,2.03128 -0.82417,2.03816c-0.58827,0.15491 -0.41994,-3.68049 -0.77283,-3.46035c-0.62204,0.38804 -0.36293,5.76222 -1.15772,6.68008c-0.44587,0.51491 -0.53508,-2.86554 -1.10906,-3.29497c-0.93689,-0.70095 -2.32918,1.06657 -2.46162,0.4059c-0.08918,-0.44487 2.04004,-1.62175 3.07353,-3.54233c1.05415,-1.95899 0.54972,-5.00454 0.58161,-5.07876c0.12976,-0.30207 1.03189,-1.08696 1.4942,-2.30321c0.38053,-1.00111 0.51778,-2.06826 0.46262,-2.35028z" data-paper-data="{&quot;index&quot;:null}" fill="#344e5f"/><path d="M382.4766,187.15012c0.0179,0.06717 0.89453,-1.92204 1.9512,-3.48165c0.77745,-1.14749 1.79066,-1.96399 1.92617,-2.0595c1.49514,-1.05372 2.98233,2.33352 3.06062,3.15222c0.0585,0.6117 -3.94357,0.67024 -5.01922,2.75859c-1.30325,2.53025 -0.58408,5.12467 -0.80847,5.73179c-0.37696,1.01994 -1.6376,1.48877 -2.16254,1.78027c-0.47025,0.26113 -1.02277,-0.66494 -1.52524,-1.72111c-0.48938,-1.02866 -0.9195,-2.17973 -2.04997,-2.5522c-1.32679,-0.43715 -2.11473,0.20392 -3.39154,0.02232c-0.49837,-0.07088 -1.09871,0.12058 -1.81195,-0.75728c-0.63595,-0.78274 -1.37579,-2.59701 -1.99145,-3.36276c-0.46284,-0.57569 -1.65531,-1.39821 -1.66065,-1.41824c-0.09587,-0.35969 -0.92804,-0.94519 -0.32033,-1.26068c0.37397,-0.19415 0.23588,-0.35309 0.99218,-0.35562c0.33319,-0.00112 1.13405,0.48896 1.69697,1.3346c0.42374,0.63655 0.72034,2.32834 1.37365,2.28276c0.07081,-0.00494 -0.14661,-1.04157 -0.28178,-1.77788c-0.15502,-0.84439 -0.21458,-1.95482 0.20234,-1.82923c0.38515,0.11601 0.93999,1.78419 1.39533,2.81715c0.51254,1.16274 1.17843,1.53377 2.13314,1.55435c0.51607,0.01113 1.1937,-0.61302 1.36932,-0.68445c0.34871,-0.14185 -1.37738,-4.4629 -3.12044,-6.11138c-1.74306,-1.64848 -4.98621,-1.35645 -5.09719,-1.66035c-0.57926,-1.58616 2.061,-2.42546 3.18976,-3.57601c0.76794,-0.78276 2.54176,4.67957 3.3788,4.06179c0.24381,-0.17994 0.33771,-1.39452 0.54575,-2.13447c0.3995,-1.42088 -0.4507,-3.06084 -0.29599,-4.64668c0.1563,-1.60205 1.89697,-2.92402 2.02836,-2.51382c0.4022,1.25569 0.23588,4.30862 0.74939,5.95202c0.4765,1.52498 1.49047,0.73906 1.6981,1.75736c0.25987,1.2745 -2.88966,2.04705 -2.96192,2.8553c-0.13063,1.46128 2.26329,4.22607 2.47136,4.02124c0.87353,-0.85993 0.30684,-1.5346 0.65359,-2.8321c0.37547,-1.40492 1.85909,-3.70862 1.15427,-5.01083c-0.37879,-0.69983 -0.53382,-1.24661 -0.73058,-1.94469c-0.2029,-0.71991 -0.44288,-1.58799 -0.53051,-2.09592c-0.13196,-0.76494 0.84692,-2.71006 0.87945,-2.72318c0.73321,-0.29583 0.83104,4.59492 1.26055,4.25619c0.7571,-0.59709 -0.00748,-7.36637 0.92563,-8.66434c0.52347,-0.72815 0.91089,3.54232 1.67337,3.9897c1.24461,0.73025 2.86625,-1.74588 3.08777,-0.9307c0.14915,0.54891 -2.45466,2.40083 -3.60899,5.01034c-1.17743,2.66169 -0.2908,6.43741 -0.32521,6.53689c-0.13999,0.40488 -1.21997,1.55242 -1.70737,3.17248c-0.40118,1.33348 -0.48858,2.70955 -0.39577,3.05776z" data-paper-data="{&quot;index&quot;:null}" fill="#344e5f"/><path d="M423.31907,147.4931c0.01791,0.06717 0.89453,-1.92204 1.9512,-3.48166c0.77745,-1.14749 1.79066,-1.96399 1.92617,-2.0595c1.49514,-1.05372 2.98233,2.33351 3.06062,3.15222c0.0585,0.61169 -3.94357,0.67024 -5.01922,2.75859c-1.30325,2.53025 -0.58408,5.12467 -0.80847,5.73179c-0.37696,1.01994 -1.6376,1.48877 -2.16254,1.78027c-0.47026,0.26112 -1.02277,-0.66494 -1.52524,-1.7211c-0.48938,-1.02867 -0.9195,-2.17974 -2.04997,-2.5522c-1.32679,-0.43715 -2.11473,0.20392 -3.39154,0.02232c-0.49836,-0.07088 -1.09871,0.12059 -1.81195,-0.75728c-0.63595,-0.78274 -1.37579,-2.59701 -1.99145,-3.36277c-0.46284,-0.57569 -1.65531,-1.3982 -1.66065,-1.41824c-0.09587,-0.35969 -0.92805,-0.94519 -0.32033,-1.26068c0.37398,-0.19414 0.23587,-0.35309 0.99218,-0.35562c0.33319,-0.00112 1.13405,0.48896 1.69697,1.3346c0.42374,0.63655 0.72034,2.32834 1.37365,2.28276c0.07082,-0.00493 -0.14661,-1.04157 -0.28178,-1.77788c-0.15502,-0.8444 -0.21458,-1.95482 0.20234,-1.82923c0.38515,0.11602 0.93999,1.78419 1.39533,2.81715c0.51255,1.16274 1.17843,1.53377 2.13314,1.55435c0.51607,0.01114 1.1937,-0.61302 1.36932,-0.68445c0.34871,-0.14186 -1.37739,-4.46291 -3.12045,-6.11139c-1.74306,-1.64848 -4.98621,-1.35644 -5.09719,-1.66035c-0.57926,-1.58616 2.061,-2.42547 3.18976,-3.57602c0.76794,-0.78276 2.54176,4.67957 3.37881,4.06179c0.24381,-0.17994 0.33771,-1.39452 0.54575,-2.13447c0.3995,-1.42088 -0.4507,-3.06084 -0.29599,-4.64667c0.1563,-1.60205 1.89697,-2.92402 2.02836,-2.51382c0.4022,1.25569 0.23588,4.30861 0.74939,5.95201c0.4765,1.52497 1.49047,0.73906 1.6981,1.75737c0.25987,1.2745 -2.88966,2.04704 -2.96192,2.8553c-0.13063,1.46128 2.2633,4.22607 2.47137,4.02124c0.87354,-0.85993 0.30683,-1.5346 0.65359,-2.83211c0.37547,-1.40492 1.85909,-3.70862 1.15427,-5.01083c-0.37879,-0.69983 -0.53382,-1.2466 -0.73058,-1.94468c-0.2029,-0.71992 -0.44288,-1.58799 -0.5305,-2.09592c-0.13196,-0.76495 0.84692,-2.71006 0.87945,-2.72319c0.73321,-0.29583 0.83104,4.59492 1.26055,4.25619c0.7571,-0.59709 -0.00748,-7.36637 0.92563,-8.66434c0.52347,-0.72814 0.91088,3.54232 1.67338,3.9897c1.24461,0.73025 2.86625,-1.74588 3.08777,-0.9307c0.14915,0.5489 -2.45466,2.40083 -3.609,5.01034c-1.17743,2.66169 -0.29081,6.43741 -0.32521,6.5369c-0.13999,0.40488 -1.21997,1.55241 -1.70737,3.17247c-0.40119,1.33348 -0.48858,2.70956 -0.39577,3.05776z" data-paper-data="{&quot;index&quot;:null}" fill="#344e5f"/><path d="M391.08131,173.86305c-0.03507,-0.09092 -1.01063,3.01362 -2.30433,5.55581c-0.95184,1.87042 -2.28774,3.33599 -2.46831,3.51239c-1.99253,1.94625 -4.59766,-2.46793 -4.82479,-3.61715c-0.1697,-0.85864 5.55182,-2.11391 6.79839,-5.41863c1.51035,-4.00403 0.11618,-7.50794 0.35212,-8.44283c0.39638,-1.57058 2.13536,-2.61081 2.84596,-3.18179c0.63657,-0.5115 1.55773,0.65262 2.4255,2.01765c0.84518,1.32949 1.62271,2.85157 3.29353,3.05393c1.96098,0.2375 2.99899,-0.91095 4.85253,-1.02469c0.72347,-0.0444 1.55608,-0.49424 2.70056,0.55382c1.02047,0.9345 2.33462,3.31542 3.32364,4.23154c0.74354,0.68873 2.56636,1.51728 2.57681,1.54441c0.1878,0.4869 1.46148,1.08158 0.63575,1.71115c-0.50814,0.38742 -0.28808,0.57457 -1.37052,0.79956c-0.47687,0.09912 -1.69232,-0.3681 -2.61707,-1.41403c-0.69611,-0.78731 -1.35845,-3.12263 -2.2874,-2.86614c-0.1007,0.02779 0.35626,1.4483 0.65324,2.4629c0.34058,1.16354 0.58188,2.73591 -0.03266,2.67813c-0.56772,-0.05336 -1.59648,-2.27927 -2.39353,-3.62488c-0.89718,-1.51466 -1.90266,-1.85096 -3.27241,-1.60097c-0.74042,0.13512 -1.62287,1.22707 -1.86427,1.38074c-0.47931,0.30516 2.59907,5.98635 5.32622,7.83627c2.72716,1.84991 7.32933,0.4825 7.53092,0.88512c1.05219,2.10134 -2.60993,4.0758 -4.06431,6.05344c-0.98948,1.34547 -4.29655,-5.95573 -5.40813,-4.82624c-0.32378,0.32898 -0.28756,2.09538 -0.48145,3.21565c-0.37232,2.1512 1.07534,4.25027 1.07665,6.56599c0.00133,2.3394 -2.30503,4.74157 -2.55078,4.19275c-0.75226,-1.68004 -0.94311,-6.09958 -1.9092,-8.30213c-0.89647,-2.04383 -2.23775,-0.62184 -2.67809,-2.01896c-0.55113,-1.74862 3.8495,-3.77658 3.83938,-4.95491c-0.0183,-2.13035 -3.83414,-5.38796 -4.10326,-5.0338c-1.12981,1.48685 -0.22367,2.28689 -0.53782,4.24603c-0.34016,2.12133 -2.14057,5.85379 -0.94851,7.51185c0.64065,0.89107 0.93944,1.6285 1.3192,2.57035c0.39164,0.97131 0.85719,2.14389 1.05401,2.84545c0.29641,1.05654 -0.83174,4.12789 -0.87648,4.1562c-1.00817,0.63816 -1.83542,-6.33528 -2.40276,-5.7246c-1.00005,1.07646 1.04574,10.54422 -0.10782,12.67565c-0.64714,1.19571 -1.80183,-4.8049 -2.95635,-5.22223c-1.88451,-0.68119 -3.8583,3.33855 -4.28998,2.2363c-0.29067,-0.74221 3.17699,-4.15576 4.463,-8.22967c1.31173,-4.15537 -0.48815,-9.30153 -0.45288,-9.45404c0.14354,-0.62065 1.5285,-2.57968 1.99868,-5.04178c0.38701,-2.02657 0.31879,-4.02227 0.13699,-4.49363z" data-paper-data="{&quot;index&quot;:null}" fill="#344e5f"/><path d="M442.94665,123.42564c0.60744,-0.00575 4.88156,-0.63212 5.27188,2.10498c0.34256,2.4021 -3.16106,7.93314 -3.14517,11.43288c0.034,7.48755 -0.86303,13.56615 -2.00357,13.57694c-1.14054,0.01079 -2.09271,-6.05032 -2.12671,-13.53787c-0.0112,-2.46833 -4.9833,-4.54335 -4.81678,-6.53854c0.33861,-4.05711 6.0558,-7.03117 6.82035,-7.03841z" data-paper-data="{&quot;index&quot;:null}" fill="#344e5f"/></g></g></svg>