<svg version="1.1" xmlns="http://www.w3.org/2000/svg" xmlns:xlink="http://www.w3.org/1999/xlink" width="490.28116" height="368.47037" viewBox="0,0,490.28116,368.47037"><defs><linearGradient x1="13.17471" y1="136.50221" x2="221.95415" y2="136.50221" gradientUnits="userSpaceOnUse" id="color-1"><stop offset="0" stop-color="#8e9ba2"/><stop offset="1" stop-color="#747f84"/></linearGradient></defs><g transform="translate(-5.85867,6.92164)"><g data-paper-data="{&quot;isPaintingLayer&quot;:true}" fill-rule="nonzero" stroke="none" stroke-width="0" stroke-linecap="butt" stroke-linejoin="miter" stroke-miterlimit="10" stroke-dasharray="" stroke-dashoffset="0" style="mix-blend-mode: normal"><g><path d="M16.28827,177.2565v-141.00005h206.38493v141.00006z" fill="#475159"/><path d="M16.73307,151.12498v-38.69718l19.1262,-8.4511c0,0 8.30276,8.27846 13.61673,12.89551c1.21774,1.05805 17.27083,4.55372 34.71918,11.47462c27.97305,11.09555 66.77392,29.72653 70.34687,32.73844c0.47008,0.39626 4.42014,-3.02823 8.26899,-6.26579c2.40736,-2.02501 2.87964,-4.51847 8.2914,-4.28514c2.13824,0.09219 8.88121,-3.23683 11.27294,-2.89966c8.18351,1.15367 18.55639,10.81938 25.73632,14.0133c10.63997,4.7331 15.06164,5.45777 13.5563,5.73293c-26.35378,4.8172 -208.49327,-2.46728 -208.49327,-2.46728z" fill="url(#color-1)"/><g fill="#0e0e0f"><g data-paper-data="{&quot;index&quot;:null}"><path d="M95.98254,159.05455c0.41037,1.18275 1.04576,2.77468 1.29807,4.32987c0.34574,2.13098 0.96375,3.72815 -0.67977,5.41296c-0.8755,0.89751 -1.46552,0.1438 -1.8453,0.07015c-0.08403,-0.0163 -1.18689,0.80591 -1.23407,0.62719c-0.40758,-1.54374 -2.0247,-3.7695 -2.33937,-5.70896c-0.33995,-2.09532 -0.98288,-3.06155 0.08831,-5.78122c0.0137,-0.03477 -0.48145,-0.95485 -1.16968,-1.08922c-1.00277,-0.19576 -2.35644,0.33183 -2.65408,-0.13502c-0.12597,-0.1976 2.19729,-0.89657 2.14779,-1.07203c-0.19999,-0.70888 1.16889,-1.35089 1.53309,-1.51579c0.29087,-0.13171 1.98503,-0.06775 2.74095,0.39014c0.94443,0.57205 0.96362,1.59663 1.1634,1.75244c0.37699,0.29403 0.84526,2.41564 0.95067,2.7195z" data-paper-data="{&quot;index&quot;:null}"/><path d="M92.97207,162.76396c-1.15156,1.90647 -1.90672,4.66269 -2.33586,4.49176c-0.28767,-0.1146 -1.60435,-0.365 -1.11526,-1.45062c0.24054,-0.53394 0.65618,-4.9839 1.03581,-5.61241c1.15156,-1.90647 1.20138,-0.50367 1.63053,-0.33274c0.42914,0.17093 1.93631,0.99754 0.78476,2.90401z" data-paper-data="{&quot;index&quot;:null}"/></g><path d="M100.60091,156.46845c0.1906,-0.15191 0.16441,-1.04186 1.07281,-1.61738c0.72707,-0.46064 2.399,-0.65873 2.69236,-0.56904c0.36727,0.11231 1.7488,0.55369 1.58235,1.18516c-0.0412,0.15632 2.28626,0.56672 2.17043,0.74866c-0.27365,0.42986 -1.63506,0.08637 -2.61773,0.34053c-0.67443,0.17444 -1.12334,1.01388 -1.10828,1.04286c1.17881,2.26788 0.58583,3.15979 0.34214,5.00513c-0.22557,1.70807 -1.72606,3.77405 -2.06093,5.14683c-0.03877,0.15893 -1.16523,-0.4611 -1.24758,-0.4399c-0.37217,0.09583 -0.9222,0.799 -1.82725,0.09453c-1.69896,-1.32242 -1.15841,-2.75926 -0.91057,-4.63601c0.18089,-1.36966 0.73883,-2.8034 1.09235,-3.86347c0.09081,-0.27232 0.46018,-2.15126 0.8199,-2.43793z" data-paper-data="{&quot;index&quot;:null}"/><g data-paper-data="{&quot;index&quot;:null}"><path d="M182.22458,155.85126c0.58281,1.67983 1.48522,3.94073 1.84358,6.1495c0.49103,3.0265 1.36875,5.29489 -0.96544,7.68772c-1.24344,1.27466 -2.08139,0.20423 -2.62077,0.09963c-0.11935,-0.02313 -1.68569,1.14458 -1.75269,0.89076c-0.57886,-2.19248 -2.87558,-5.35362 -3.32247,-8.1081c-0.48282,-2.97586 -1.39593,-4.34817 0.12542,-8.21077c0.01944,-0.04937 -0.68376,-1.35611 -1.66122,-1.54695c-1.42419,-0.27804 -3.34671,0.4713 -3.76944,-0.19175c-0.17892,-0.28064 3.12068,-1.27335 3.05038,-1.52257c-0.28405,-1.0068 1.66013,-1.91859 2.17735,-2.15277c0.41312,-0.18706 2.81923,-0.09621 3.89281,0.5541c1.34133,0.81247 1.36858,2.2676 1.65231,2.48889c0.53544,0.41761 1.20046,3.43081 1.35018,3.86235z" data-paper-data="{&quot;index&quot;:null}"/><path d="M177.94898,161.11955c-1.63548,2.70766 -2.70799,6.62219 -3.31748,6.3794c-0.40854,-0.16273 -2.27857,-0.51837 -1.58394,-2.06023c0.34162,-0.7583 0.93193,-7.07836 1.47113,-7.97102c1.63548,-2.70766 1.70627,-0.71533 2.31577,-0.47255c0.6095,0.24278 2.75004,1.41674 1.11455,4.1244z" data-paper-data="{&quot;index&quot;:null}"/></g><path d="M188.78384,152.17839c0.27072,-0.21576 0.23349,-1.4797 1.52366,-2.29708c1.03264,-0.65422 3.40717,-0.93556 3.82381,-0.80816c0.52163,0.15951 2.48373,0.78637 2.24731,1.68322c-0.05852,0.22199 3.24706,0.8049 3.08254,1.0633c-0.38868,0.61048 -2.3222,0.12263 -3.71781,0.48362c-0.95785,0.24776 -1.59542,1.43995 -1.57401,1.48112c1.67418,3.22094 0.83202,4.48767 0.4859,7.10851c-0.32037,2.42589 -2.45142,5.3601 -2.92701,7.3098c-0.05506,0.2257 -1.65493,-0.65489 -1.77189,-0.62476c-0.52858,0.1361 -1.30973,1.13475 -2.59512,0.13425c-2.41294,-1.87815 -1.64526,-3.91884 -1.29326,-6.58428c0.25689,-1.94526 1.04932,-3.98153 1.5514,-5.48706c0.12898,-0.38676 0.65358,-3.05531 1.16447,-3.46246z" data-paper-data="{&quot;index&quot;:null}"/><path d="M186.52837,158.92299c1.50116,-2.48437 3.95463,-2.12017 4.56752,-1.96048c0.6129,0.15969 2.52348,-1.02384 1.02233,1.46051c-0.49489,0.81904 -6.04019,4.98562 -6.53425,5.62251c-1.00455,1.29498 -2.52051,0.56679 -2.93135,0.45974c-0.6129,-0.15969 2.37459,-3.09792 3.87576,-5.5823z" data-paper-data="{&quot;index&quot;:null}"/><g><path d="M74.98366,148.32162c0.2919,-0.36145 -0.21337,-2.28732 1.25356,-3.68786c1.17413,-1.12099 4.31376,-1.83094 4.92821,-1.68556c0.76929,0.18201 3.67255,0.90775 3.67237,2.30527c-0.00004,0.34592 4.72102,0.84594 4.58942,1.25997c-0.31094,0.9782 -3.12527,0.46141 -4.90021,1.17742c-1.21821,0.49144 -1.65968,2.38737 -1.61569,2.44772c3.44307,4.72127 2.74915,6.75519 3.21911,10.79847c0.43502,3.74253 -1.41846,8.47507 -1.36651,11.50872c0.00601,0.35119 -2.49413,-0.80475 -2.64292,-0.74497c-0.67247,0.27025 -1.37953,1.88757 -3.49358,0.51136c-3.96851,-2.58343 -3.65452,-5.79051 -4.13248,-9.9026c-0.34883,-3.00105 0.00051,-6.20428 0.14444,-8.56275c0.03698,-0.60586 -0.20656,-4.7431 0.34433,-5.42521z" data-paper-data="{&quot;index&quot;:null}"/><path d="M82.2378,159.64655c-3.16404,-3.17002 -0.77749,-5.24338 -0.06391,-5.71305c0.71358,-0.46969 0.06597,-3.11473 3.23002,0.0553c1.04311,1.04508 4.1722,9.23586 4.90479,10.1522c1.48957,1.86318 -0.84452,2.79089 -1.32287,3.10573c-0.71358,0.46969 -3.58397,-4.43015 -6.74802,-7.60018z" data-paper-data="{&quot;index&quot;:null}"/></g><g><path d="M35.47275,151.17171c0.07884,2.36049 0.33974,5.5693 -0.09177,8.56323c-0.59127,4.10237 -0.36583,7.31436 -4.40459,9.82493c-2.15148,1.3374 -2.81376,-0.29237 -3.47861,-0.57478c-0.1471,-0.06248 -2.67849,1.0477 -2.6628,0.6967c0.1356,-3.03193 -1.58687,-7.79701 -1.04873,-11.53068c0.58138,-4.03372 -0.05627,-6.07975 3.51616,-10.73719c0.04566,-0.05953 -0.3434,-1.96303 -1.54777,-2.47649c-1.75475,-0.74812 -4.58262,-0.28266 -4.8665,-1.26626c-0.12016,-0.41632 4.61351,-0.83031 4.62301,-1.17616c0.03835,-1.39718 2.96094,-2.06993 3.73504,-2.23791c0.61828,-0.13417 3.73757,0.6327 4.88048,1.77477c1.42794,1.42688 0.86968,3.34308 1.15154,3.70974c0.53192,0.69195 0.17434,4.82373 0.19458,5.43011z" data-paper-data="{&quot;index&quot;:null}"/><path d="M27.71347,156.93173c-3.2507,3.11169 -6.25553,7.95808 -6.95596,7.47553c-0.46951,-0.32346 -2.77744,-1.29339 -1.23686,-3.12902c0.75768,-0.90281 4.11191,-9.03461 5.18358,-10.06044c3.25071,-3.11168 2.53029,-0.47906 3.23073,0.00348c0.70043,0.48254 3.02921,2.59877 -0.22149,5.71047z" data-paper-data="{&quot;index&quot;:null}"/></g><path d="M67.44587,154.79245c1.22214,1.86251 3.02459,4.35382 4.08687,6.85642c1.45555,3.42912 3.22701,5.93229 0.74309,9.00122c-1.32321,1.63483 -2.7249,0.50929 -3.47267,0.45942c-0.16545,-0.01103 -1.94801,1.54275 -2.1046,1.25857c-1.35239,-2.45482 -5.25432,-5.80209 -6.57905,-8.92303c-1.43121,-3.37174 -3.01305,-4.83589 -2.00286,-9.49461c0.01292,-0.05954 -1.27138,-1.47558 -2.62683,-1.56741c-1.97493,-0.1338 -4.34364,0.98384 -5.08329,0.27398c-0.31307,-0.30045 3.82988,-1.87999 3.67013,-2.15842c-0.64536,-1.12487 1.70932,-2.43287 2.33797,-2.7712c0.50212,-0.27022 3.73855,-0.48154 5.3438,0.12804c2.00559,0.7616 2.42659,2.43777 2.86388,2.65593c0.82526,0.4117 2.5096,3.80262 2.82356,4.28108z" data-paper-data="{&quot;index&quot;:null}"/><g><path d="M40.78403,145.71c0.3757,-0.30619 0.35918,-2.27524 2.14387,-3.40672c1.42844,-0.90563 4.67988,-1.08667 5.24558,-0.84362c0.70826,0.30429 3.3716,1.49068 3.02426,2.85945c-0.08598,0.33882 4.41384,1.6019 4.18208,1.98585c-0.54753,0.90714 -3.17563,-0.06002 -5.09195,0.35053c-1.31525,0.28178 -2.2186,2.06642 -2.19049,2.13274c2.19955,5.18822 1.01466,7.06664 0.47064,11.10379c-0.50357,3.73685 -3.4945,8.0685 -4.19715,11.0483c-0.08134,0.34496 -2.24296,-1.19678 -2.40354,-1.16258c-0.7258,0.15453 -1.82005,1.6228 -3.5488,-0.07141c-3.24523,-3.1804 -2.14105,-6.27012 -1.58777,-10.37598c0.40379,-2.9965 1.54164,-6.07667 2.26843,-8.36308c0.1867,-0.58734 0.97586,-4.67944 1.68483,-5.25728z" data-paper-data="{&quot;index&quot;:null}"/><path d="M38.40459,154.92988c2.11821,-3.7003 5.45991,-2.86926 6.29285,-2.5548c0.83294,0.31443 3.47511,-1.31932 1.3569,2.38097c-0.69832,1.21989 -8.38681,7.09893 -9.07904,8.03574c-1.40747,1.90483 -3.45859,0.60907 -4.01693,0.39831c-0.83294,-0.31443 3.32804,-4.55989 5.44625,-8.26019z" data-paper-data="{&quot;index&quot;:null}"/></g></g><g><path d="M15.78548,198.41955l1.33438,-32.51818c0,0 3.24626,-1.51854 10.26287,-1.23925c2.01069,0.08003 6.9428,1.56613 9.38744,1.756c5.52412,0.42902 10.43338,-1.12531 16.24902,-1.06227c4.57115,0.04956 9.9713,1.7709 14.84771,1.68397c3.24347,-0.05781 7.28392,-4.07979 10.25423,-4.04771c7.92748,0.0856 28.21235,4.02939 40.53949,4.4081c1.56568,0.0481 4.55966,-0.27346 6.16237,-0.25855c19.40814,0.18062 41.58919,0.55588 58.71223,0.1758c23.7164,-0.52644 39.53792,0.80786 39.53792,0.80786l-2.22397,30.29421z" fill="#bec3c5"/><g fill="#909da6"><path d="M122.97175,193.55771c0,0 -23.07704,-1.09798 -25.44849,-4.20955c-0.9568,-1.25541 66.16941,-4.50945 63.9353,-5.48057c-3.95464,-1.71899 -30.02158,-2.45362 -30.02158,-2.45362c0,0 14.03384,-4.12711 20.93487,-4.47652c17.60524,-0.89136 80.91628,-3.8166 80.91628,-3.8166l-0.60862,21.34979z"/><path d="M16.00974,191.12203v-9.78551l0.88958,-5.78233c0,0 20.20883,0.32301 24.07453,2.10326c2.76757,1.27453 -15.9091,0.95997 -14.2866,3.67762c1.20104,2.01172 26.82335,3.86766 47.55056,5.77464c14.30774,1.31635 26.28299,3.12272 26.28299,3.12272z"/></g></g><path d="M223.5628,89.96566c0,2.58302 19.73528,24.82361 -5.42453,29.06262c-2.45073,0.41291 -23.8337,1.5257 -34.49733,-1.3583c-10.20915,-2.76108 -14.59542,-9.07469 -17.43899,-8.91986c-1.63261,0.08888 -6.71872,3.31949 -12.57855,2.88235c-9.29174,-0.69314 -15.63611,-5.66439 -18.13461,-5.68235c-0.60445,-0.00434 -8.31601,-2.22854 -12.02091,-5.34461c-3.71001,-3.12036 -3.41336,-7.13261 -3.99606,-7.13754c-8.02757,-0.0681 -17.05288,-1.44012 -21.77754,-1.40046c-2.2433,0.01883 -12.44015,-4.33699 -17.81734,-8.38224c-2.5652,-1.9298 -2.65929,-5.50679 -2.84014,-5.29141c-5.63432,6.70971 -12.99445,5.56707 -22.9409,5.56707c-3.88575,0 -14.56732,-3.42805 -21.66951,-7.34424c-8.12505,-4.48018 -12.66426,-9.59923 -15.85556,-10.95525c-7.77466,-3.30354 -2.06171,-23.8928 -2.06171,-29.51599c0,-9.94897 17.75703,-0.66719 36.91801,-0.66719c19.16098,0 172.13571,44.53843 172.13571,54.4874z" fill="#2e3b41"/><path d="M223.5628,62.83316c0,2.58303 19.73528,24.8236 -5.42453,29.06261c-2.45073,0.41291 -23.8337,1.5257 -34.49733,-1.3583c-10.20915,-2.76108 -14.59542,-9.07469 -17.43899,-8.91986c-1.63261,0.08888 -6.71872,3.31949 -12.57855,2.88236c-9.29174,-0.69314 -15.63611,-5.66439 -18.13461,-5.68235c-0.60445,-0.00434 -8.31601,-2.22854 -12.02091,-5.34461c-3.71001,-3.12036 -3.41336,-7.13262 -3.99606,-7.13754c-8.02757,-0.06811 -17.05288,-1.44012 -21.77754,-1.40046c-2.2433,0.01883 -12.44015,-4.33699 -17.81734,-8.38223c-2.5652,-1.92981 -2.65929,-5.50678 -2.84014,-5.29141c-5.63432,6.70972 -57.27468,-11.3764 -60.46598,-12.73241c-7.77466,-3.30354 -2.06171,-23.8928 -2.06171,-29.51599c0,-9.94897 17.75703,-0.66719 36.91801,-0.66719c19.16098,0 172.13571,44.53844 172.13571,54.4874z" fill="#232b31"/><path d="M74.69443,47.27988c-2.34619,9.38474 -16.35151,13.96673 -31.28179,10.23417c-14.93026,-3.73257 -25.13168,-14.36624 -22.7855,-23.75098c2.34619,-9.38474 16.35152,-13.96674 31.28179,-10.23417c14.93028,3.73257 25.13169,14.36625 22.7855,23.75099z" fill="#232b31"/><path d="M107.60926,55.19143c-2.34619,9.38474 -16.35151,13.96674 -31.28178,10.23417c-14.93026,-3.73257 -25.13168,-14.36624 -22.7855,-23.75098c2.34618,-9.38474 16.35152,-13.96674 31.28179,-10.23417c14.93026,3.73257 25.13168,14.36625 22.78549,23.75099z" fill="#232b31"/><path d="M153.86794,69.42487c-2.34618,9.38474 -16.3515,13.96674 -31.28177,10.23417c-14.93026,-3.73257 -25.13169,-14.36625 -22.7855,-23.75099c2.34619,-9.38474 16.35152,-13.96674 31.28179,-10.23416c14.93026,3.73257 25.13168,14.36625 22.78548,23.75099z" fill="#232b31"/><path d="M213.9153,87.66147c-2.34618,9.38474 -16.35152,13.96674 -31.28179,10.23417c-14.93026,-3.73257 -25.13168,-14.36625 -22.7855,-23.75098c2.34618,-9.38474 16.35152,-13.96674 31.28179,-10.23417c14.93026,3.73257 25.13168,14.36624 22.7855,23.75098z" fill="#232b31"/><path d="M68.4428,16.59143c-3.119,9.96397 -17.34157,14.38077 -31.76701,9.86521c-14.42545,-4.51555 -24.9255,-6.02323 -21.8065,-15.98719c3.119,-9.96397 56.69253,-3.84197 53.57353,6.122z" fill="#141b21"/><path d="M110.69834,24.07101c-3.119,9.96397 -17.34156,14.38077 -31.76702,9.86521c-14.42543,-4.51555 34.88601,-19.82917 31.76702,-9.8652z" fill="#141b21"/><path d="M140.98541,37.85967c-3.119,9.96397 -17.34156,14.38077 -31.76702,9.86521c-14.42543,-4.51555 -51.16841,-25.14942 -48.04942,-35.11339c3.119,-9.96397 45.80844,-6.37446 60.23389,-1.85889c14.42544,4.51555 22.70154,17.14313 19.58254,27.10709z" fill="#141b21"/><path d="M181.35748,37.91939c-0.39598,10.43322 -12.96183,18.42626 -28.06664,17.85299c-15.1048,-0.57328 -27.02865,-9.49578 -26.63268,-19.929c0.39598,-10.43321 12.96183,-18.42625 28.06663,-17.85299c15.1048,0.57329 27.02866,9.49579 26.63269,19.92901z" fill="#141b21"/><path d="M214.23131,51.70803c-0.39598,10.43321 -12.96183,18.42626 -28.06664,17.85299c-15.1048,-0.57328 -27.02864,-9.49579 -26.63267,-19.929c0.39598,-10.43321 12.96183,-18.42626 28.06664,-17.85299c15.1048,0.57328 27.02865,9.49579 26.63268,19.92901z" fill="#141b21"/><path d="M230.0293,7.85218c-0.45469,11.9801 7.75864,46.08728 -6.79718,52.75393c-5.73101,2.62483 -30.40124,-15.91711 -37.23015,-16.17628c-18.57762,-0.70507 -79.7692,-23.35055 -96.51922,-37.66896c-3.11416,-2.66208 45.90031,3.91994 87.81282,4.42261c25.98832,0.31169 52.97629,-9.72188 52.73375,-3.33129z" fill="#141b21"/><path d="M5.85867,200.5829v-197.58971h11.61429v197.58972z" fill="#0f1417"/><g fill-opacity="0.7127" fill="#97a3aa"><path d="M81.13001,119.58722l-13.19389,-11.53819l-12.41777,-13.27151l17.97991,15.88442z"/><path d="M51.5067,104.03924l-9.46175,-8.27439l-8.90518,-9.5174l12.89396,11.3912z"/><path d="M103.15124,116.07827l-9.46176,-8.27439l-8.90517,-9.51742l12.89396,11.3912z"/><path d="M159.7606,145.19438l-16.36825,-14.31418l-15.40539,-16.46453l22.30574,19.70607z"/><path d="M128.66421,134.69039l-9.46176,-8.27439l-8.90517,-9.51741l12.89396,11.3912z"/><path d="M176.0878,133.34607l-8.03192,-7.02399l-7.55947,-8.07917l10.94547,9.66981z"/><path d="M215.62609,144.05381l-8.03192,-7.024l-7.55947,-8.07917l10.94546,9.66981z"/><path d="M170.92868,100.00629l-18.91032,-16.53727l-17.79796,-19.02156l25.76996,22.76655z"/><path d="M156.27947,29.60805l13.19388,11.5382l12.41778,13.27149l-17.9799,-15.88441z"/><path d="M185.90275,45.15602l9.46176,8.27439l8.90517,9.51742l-12.89396,-11.39121z"/><path d="M134.25822,33.11699l9.46175,8.2744l8.90517,9.51741l-12.89396,-11.39121z"/><path d="M77.64887,4.00087l16.36824,14.31418l15.40539,16.46453l-22.30573,-19.70608z"/><path d="M108.74525,14.50488l9.46176,8.27439l8.90517,9.5174l-12.89397,-11.3912z"/><path d="M61.32166,15.84918l8.03192,7.024l7.55947,8.07917l-10.94547,-9.66981z"/><path d="M34.85211,48.94573l18.91032,16.53729l17.79796,19.02155l-25.76996,-22.76655z"/><path d="M76.69006,32.07168l13.19389,11.5382l12.41778,13.27149l-17.97991,-15.88441z"/><path d="M106.31335,47.61965l9.46176,8.27439l8.90518,9.51742l-12.89397,-11.3912z"/><path d="M54.66881,35.58063l9.46175,8.2744l8.90518,9.5174l-12.89397,-11.3912z"/><path d="M29.15585,16.9685l9.46176,8.2744l8.90517,9.5174l-12.89395,-11.3912z"/><path d="M207.43967,95.03932l-13.19389,-11.53819l-12.41778,-13.27151l17.97991,15.88442z"/><path d="M177.81638,79.49135l-9.46176,-8.27439l-8.90517,-9.51742l12.89396,11.39122z"/><path d="M229.46092,91.53038l-9.46176,-8.2744l-8.90517,-9.51741l12.89396,11.39121z"/><path d="M184.51973,23.50881l-16.36823,-14.31418l6.90034,3.24155z"/><path d="M203.8173,123.51653l-9.46175,-8.27439l-8.90517,-9.51741l12.89396,11.39121z"/><path d="M132.05457,100.00629l-8.03193,-7.02399l-7.55945,-8.07918l10.94546,9.66981z"/><path d="M228.25651,49.32324l-18.91032,-16.53727l-17.79796,-19.02156l25.76995,22.76656z"/></g><path d="M221.66522,199.91353v-197.58971h11.61429c0,0 1.95819,147.61179 1.95819,177.60304c0,10.21692 -1.95819,19.98668 -1.95819,19.98668z" fill="#0f1417"/><path d="M14.66878,14.65401v-11.90527h218.43744v11.90528z" fill="#0f1417"/></g><path d="M6.587,15.68884v-22.61048h489.55283v22.61048z" fill="#0f1417"/><path d="M10.46534,207.37249v-17.38731h478.63248v17.38731z" fill="#0f1417"/><path d="M194.68408,361.54873v-160.85253h17.34684v160.85253z" fill="#0f1417"/></g></g></svg>