<svg version="1.1" xmlns="http://www.w3.org/2000/svg" xmlns:xlink="http://www.w3.org/1999/xlink" width="700.75047" height="534.70919" viewBox="0,0,700.75047,534.70919"><defs><linearGradient x1="324.31363" y1="192.53266" x2="324.31363" y2="42.38682" gradientUnits="userSpaceOnUse" id="color-1"><stop offset="0" stop-color="#000000"/><stop offset="1" stop-color="#070b0d"/></linearGradient></defs><g transform="translate(116.00375,86.26441)"><g data-paper-data="{&quot;isPaintingLayer&quot;:true}" fill-rule="nonzero" stroke="none" stroke-linecap="butt" stroke-linejoin="miter" stroke-miterlimit="10" stroke-dasharray="" stroke-dashoffset="0" style="mix-blend-mode: normal"><path d="M280.18691,172.36469c1.44833,-5.04166 -3.83039,-12.60246 7.77234,-9.26931c11.60273,3.33315 1.06677,5.70281 -0.38157,10.74448c-1.44833,5.04166 0.29799,29.08385 -11.30474,25.75071c-11.60273,-3.33315 2.46563,-22.18421 3.91396,-27.22587z" fill="#000000" stroke-width="0"/><path d="M142.82043,188.36426c-1.04245,0.36204 -9.81377,0.31738 -11.63055,-3.34299c-0.89345,-1.80009 5.17656,-6.15459 4.36673,-8.48634c-2.45657,-7.07326 -3.18736,-13.2451 -1.63225,-13.78521c1.55511,-0.5401 4.80723,4.75606 7.26381,11.82932c1.14823,3.3061 7.76311,6.82862 8.10007,9.25783c0.38396,2.76797 -5.63957,4.23973 -6.46782,4.52738z" data-paper-data="{&quot;index&quot;:null}" fill="#010202" stroke-width="0"/><path d="M113.11456,182.15425c-0.68703,-0.04733 -4.66596,-2.95699 -3.36171,-6.52625c0.6414,-1.75528 5.95137,-3.30492 6.94088,-5.46479c3.00163,-6.55187 6.26577,-11.80597 7.29068,-11.73538c1.02491,0.0706 -0.57753,5.43916 -3.57916,11.99103c-1.40298,3.0624 -0.43607,8.09145 -1.6983,10.1756c-1.43825,2.3748 -5.04653,1.59739 -5.59238,1.55979z" data-paper-data="{&quot;index&quot;:null}" fill="#010202" stroke-width="0"/><path d="M346.74039,205.85047c-4.4774,2.73293 -5.70516,11.87203 -11.99463,1.56787c-6.28947,-10.30416 3.07252,-4.92134 7.54994,-7.65427c4.4774,-2.73293 19.4566,-21.61943 25.74608,-11.31528c6.28947,10.30416 -16.82397,14.66876 -21.30137,17.40168z" fill="#000000" stroke-width="0"/><path d="M520.01331,-26.83638c0,2.86192 1.75749,115.69001 9.78786,128.19384c2.4883,3.87446 13.95246,78.71653 -15.02707,78.71653c-4.8844,0 -15.36026,15.19264 -32.64735,29.1965c-7.48983,6.06734 8.35066,18.00643 -18.09755,18.25764c-1.51496,0.01439 -2.75375,-10.96164 -12.6422,-12.51158c-8.30311,-1.30145 -25.08755,7.06087 -29.91388,4.59507c-4.44464,-2.27078 2.75395,-7.59886 0.64711,-10.13415c-4.9056,-5.90322 -15.60937,-8.72948 -21.39892,-8.97411c-9.59802,-0.40555 -23.90442,-0.28948 -37.66934,-0.83428c-10.92282,-0.43231 -24.50543,-22.28602 -32.12312,-24.14148c-3.17835,-0.77416 -3.25032,10.95592 -5.80425,14.05772c-4.09692,4.97577 -10.44971,2.50178 -15.19828,1.51699c-26.85614,-5.5696 -49.96308,-8.50364 -67.22303,-8.08533c-7.58079,0.18373 -14.82587,0.15049 -21.75474,-0.05938c-9.91927,-0.30044 -15.43955,-13.71606 -24.1199,-14.62212c-6.52221,-0.68079 -16.46178,11.25406 -22.3411,10.34839c-37.30817,-5.74711 -62.16092,-15.01112 -80.7577,-14.96296c-8.84285,0.0229 -37.7714,14.73873 -55.57079,15.66024c-5.48773,0.28411 -11.34719,-8.60587 -13.41143,-9.61796c-5.77809,-2.83298 -22.41976,20.76291 -27.76769,19.7922c-11.78922,-2.13987 -19.2755,-27.68636 -28.34511,-27.66793c-7.94963,0.01616 9.87033,-28.79957 -5.63988,-37.02342c-24.14384,-12.80158 -33.7649,-162.91075 -26.57033,-166.52729c35.87897,-18.03554 28.52022,12.41842 64.61107,-5.18931c18.02243,-8.79266 71.62283,9.02816 96.22475,9.72426c28.45625,0.80515 41.53445,4.14506 65.36428,4.20132z" data-paper-data="{&quot;index&quot;:null}" fill="url(#color-1)" stroke-width="0"/><path d="" data-paper-data="{&quot;index&quot;:null}" fill="#344e5f" stroke-width="0"/><path d="" data-paper-data="{&quot;index&quot;:null}" fill="#344e5f" stroke-width="0"/><path d="" data-paper-data="{&quot;index&quot;:null}" fill="#344e5f" stroke-width="0"/><path d="" data-paper-data="{&quot;index&quot;:null}" fill="#344e5f" stroke-width="0"/><path d="" data-paper-data="{&quot;index&quot;:null}" fill="#344e5f" stroke-width="0"/><path d="" data-paper-data="{&quot;index&quot;:null}" fill="#344e5f" stroke-width="0"/><path d="" data-paper-data="{&quot;index&quot;:null}" fill="#344e5f" stroke-width="0"/><path d="" data-paper-data="{&quot;index&quot;:null}" fill="#344e5f" stroke-width="0"/><path d="" data-paper-data="{&quot;index&quot;:null}" fill="#344e5f" stroke-width="0"/><path d="" data-paper-data="{&quot;index&quot;:null}" fill="#344e5f" stroke-width="0"/><path d="" data-paper-data="{&quot;index&quot;:null}" fill="#344e5f" stroke-width="0"/><path d="" data-paper-data="{&quot;index&quot;:null}" fill="#344e5f" stroke-width="0"/><path d="" data-paper-data="{&quot;index&quot;:null}" fill="#344e5f" stroke-width="0"/><path d="" data-paper-data="{&quot;index&quot;:null}" fill="#344e5f" stroke-width="0"/><path d="" data-paper-data="{&quot;index&quot;:null}" fill="#344e5f" stroke-width="0"/><path d="" data-paper-data="{&quot;index&quot;:null}" fill="#344e5f" stroke-width="0"/><path d="" data-paper-data="{&quot;index&quot;:null}" fill="#344e5f" stroke-width="0"/><path d="" data-paper-data="{&quot;index&quot;:null}" fill="#344e5f" stroke-width="0"/><path d="" data-paper-data="{&quot;index&quot;:null}" fill="#344e5f" stroke-width="0"/><path d="" data-paper-data="{&quot;index&quot;:null}" fill="#344e5f" stroke-width="0"/><path d="" data-paper-data="{&quot;index&quot;:null}" fill="#344e5f" stroke-width="0"/><path d="M178.78401,267.80446c1.10111,-0.07297 9.54726,2.2936 10.32951,6.30448c0.38469,1.97246 -6.62198,4.56346 -6.45876,7.02644c0.49512,7.47131 -0.4351,13.61626 -2.07773,13.72513c-1.64263,0.10886 -3.37563,-5.85959 -3.87076,-13.33091c-0.23144,-3.49215 -5.67689,-8.64112 -5.35832,-11.0728c0.36299,-2.7708 6.5612,-2.59436 7.43605,-2.65233z" data-paper-data="{&quot;index&quot;:null}" fill="#000000" stroke-width="0"/><path d="" fill="#000000" stroke-width="0.5"/><path d="M-116.00375,448.44478v-534.70919h700.75047v534.70919z" fill="none" stroke-width="0"/><path d="M-54.6794,411.50068l-40.92769,-55.93452c0,0 7.7628,-19.51825 27.34977,-32.34494c12.11666,-7.93469 27.84283,-4.72443 42.19922,-7.8093c9.33027,-2.00487 18.53823,-11.68751 24.24364,-11.68751c4.42673,0 12.07435,9.74026 19.19005,9.06158c13.7118,-1.3078 29.73476,-13.44255 46.98338,-13.16291c5.0666,0.08214 6.28706,9.50759 20.692,6.06474c9.96258,-2.3811 31.33181,0.38304 35.25613,0.42101c7.55891,0.07314 54.18523,-18.18598 62.08233,-17.95057c8.9645,0.26722 7.82299,25.82791 16.99738,26.19764c28.23049,1.13769 40.99225,-10.40596 69.13559,-15.98165c5.20253,-1.03071 11.45389,10.764 19.56798,10.56178c5.71397,-0.1424 -0.02735,-21.97967 5.83134,-24.80629c3.16433,-1.52668 5.94928,17.03099 11.58985,20.38014c6.16746,3.66199 15.16215,-7.77789 17.36613,-7.75963c11.03299,0.09143 82.00076,16.02305 92.76617,16.3873c26.36541,0.89209 93.38791,-9.44488 110.51083,-9.07963c49.24707,1.05048 18.0745,11.26267 18.0745,11.26267v96.18008z" fill="#000000" stroke-width="0"/><path d="M202.5535,282.74158c0.63428,0.90303 2.99902,9.34969 -0.02208,12.10143c-1.4857,1.35324 -7.33912,-3.28833 -9.35901,-1.86956c-6.12725,4.30378 -11.86143,6.70063 -12.80766,5.35351c-0.94623,-1.34712 3.25383,-5.9281 9.38107,-10.23187c2.86392,-2.01163 4.43541,-9.33933 6.67881,-10.33015c2.55626,-1.129 5.6249,4.25917 6.12885,4.97664z" data-paper-data="{&quot;index&quot;:null}" fill="#000000" stroke-width="0"/><path d="M107.30941,304.76696c0,2.69306 -10.41198,4.87622 -23.25581,4.87622c-12.84383,0 -23.25581,-2.18316 -23.25581,-4.87622c0,-1.57099 5.41863,-14.22128 10.92079,-15.11308c3.92986,-0.63696 6.98363,10.23686 12.33502,10.23686c12.84383,0 23.25581,2.18316 23.25581,4.87622z" fill="#000000" stroke-width="0"/><path d="M363.91519,288.78233c1.44833,-5.04166 -3.83039,-12.60246 7.77234,-9.26931c11.60273,3.33315 1.06677,5.70281 -0.38157,10.74448c-1.44833,5.04166 0.29799,29.08385 -11.30474,25.75071c-11.60273,-3.33315 2.46563,-22.18421 3.91396,-27.22587z" fill="#000000" stroke-width="0"/><path d="M114.13058,284.96139c1.02849,-0.39997 9.79557,-0.6765 11.74515,2.9149c0.95876,1.76617 -4.94774,6.34 -4.05308,8.64054c2.71391,6.97857 3.67019,13.11951 2.1359,13.7162c-1.53429,0.59668 -4.97815,-4.57686 -7.69207,-11.55543c-1.26851,-3.26184 -8.00793,-6.5398 -8.43361,-8.95504c-0.48505,-2.75206 5.48055,-4.44338 6.29771,-4.76116z" data-paper-data="{&quot;index&quot;:null}" fill="#000000" stroke-width="0"/><path d="M142.36755,287.67651c0.64032,0.24901 5.31494,1.57432 4.93485,3.73082c-0.33356,1.89257 -5.61454,4.46116 -6.60854,7.01713c-2.12661,5.46837 -4.82521,9.52233 -6.02747,9.05478c-1.20226,-0.46756 -0.45293,-5.27957 1.67368,-10.74795c0.70105,-1.80269 -3.92725,-5.38672 -3.17597,-6.77069c1.52768,-2.8142 8.39752,-2.59752 9.20344,-2.2841z" data-paper-data="{&quot;index&quot;:null}" fill="#000000" stroke-width="0"/><path d="M346.69765,297.45759c-1.2879,-3.32995 -7.2602,-5.25962 0.40326,-8.22356c7.66345,-2.96394 2.92386,2.65418 4.21176,5.98414c1.2879,3.32995 12.12244,15.65093 4.45899,18.61488c-7.66345,2.96394 -7.78611,-13.0455 -9.07401,-16.37545z" fill="#000000" stroke-width="0"/></g></g></svg>