<svg version="1.1" xmlns="http://www.w3.org/2000/svg" xmlns:xlink="http://www.w3.org/1999/xlink" width="51.81665" height="51.81832" viewBox="0,0,51.81665,51.81832"><defs><linearGradient x1="240" y1="155.09085" x2="240" y2="204.90917" gradientUnits="userSpaceOnUse" id="color-1"><stop offset="0" stop-color="#f4abba"/><stop offset="1" stop-color="#dd2e44"/></linearGradient></defs><g transform="translate(-214.04462,-154.09085)"><g data-paper-data="{&quot;isPaintingLayer&quot;:true}" fill-rule="nonzero" stroke-linecap="butt" stroke-linejoin="miter" stroke-miterlimit="10" stroke-dasharray="" stroke-dashoffset="0" style="mix-blend-mode: normal"><path d="M215.04464,198.72611c0,-11.25908 0,-34.36061 0,-38.83371c0,-1.96596 2.20029,-4.88183 5.04715,-4.79986c6.01019,0.17305 28.98107,0 38.72378,0c3.13463,0 5.92554,1.84509 6.0457,4.68375c0.21175,5.00233 0,27.097 0,38.60767c0,3.94876 -2.69927,6.52521 -6.79115,6.52521c-11.1123,0 -32.49513,0 -37.97835,0c-2.51898,0 -5.04715,-2.43555 -5.04715,-6.18307z" fill="#0a0d10" stroke="url(#color-1)" stroke-width="2"/><g stroke="none" stroke-width="1"><path d="M250.30678,187.51237c0.00258,0.24361 -0.06025,0.5621 -0.12568,0.82465c-0.45709,1.84642 -2.48686,3.91838 -5.34387,3.72986c-2.58929,-0.17044 -4.69826,-1.41344 -4.69826,-3.15656c0,-1.74312 2.1038,-3.15656 4.69826,-3.15656c2.59446,0 5.45319,0.0155 5.46954,1.75862z" fill="#ea596e"/><path d="M250.1811,188.33874c0,0 -0.02841,0.20573 -0.16613,0.50185c-3.20563,-0.01808 -5.02967,-0.77128 -6.00324,-0.66368c-1.95488,0.2152 -3.06532,1.5701 -3.74793,1.75259c-1.55978,0.41663 -2.42574,-0.45192 -2.42574,-0.45192c-0.39425,-0.32366 -0.64044,-0.75751 -0.64044,-1.23784c0,-0.99853 1.04587,-1.80769 2.33536,-1.80769c0.72996,0 3.91063,-0.38564 5.30427,-0.38564c2.59446,0 5.34387,0.54747 5.34387,2.29232z" fill="#dd2e44"/><path d="M243.50988,187.04581c-1.00456,0 -2.72616,1.21976 -6.81498,1.93681c-3.31754,0.93225 -5.16482,-1.57871 -5.66667,-2.94136c-2.15201,-0.50185 -5.52377,-1.36265 -5.95331,-6.16851c-0.07747,-0.85994 0.34174,-6.14872 5.88187,-9.54028c1.75776,-1.076 4.16112,-1.57785 4.87817,-1.79305c4.33673,-1.30153 7.49587,-0.14375 7.49587,-0.14375c0,0 3.37177,-0.07145 5.27242,2.15201c0,0 2.42058,0.69897 3.51466,3.29946c0,0 1.68545,1.12937 1.86536,3.85554c0,0 1.81113,2.42144 0.4304,5.00385c0,0 0.17905,1.91873 -1.1836,3.71178c-1.16897,1.53739 -3.04897,1.91873 -3.04897,1.91873c-2.86906,-0.2152 -5.66667,-1.2912 -6.67123,-1.2912z" fill="#f4abba"/><g fill="#ea596e"><path d="M236.77754,181.26983c-1.17586,0.10932 -2.39045,0.22209 -3.22026,0.75665c-0.88491,0.57243 -1.88086,1.66307 -1.97382,2.70723c-0.01962,0.22214 -0.20567,0.3925 -0.42868,0.39252l-0.03874,-0.00172c-0.23674,-0.02094 -0.41169,-0.22981 -0.39081,-0.46656c0.03656,-0.35562 0.13288,-0.70252 0.28493,-1.02608c-1.16122,-0.27632 -2.80277,-1.18877 -3.21252,-3.26589c-0.03185,0.00172 -0.06198,0.01636 -0.09383,0.01636c-0.25996,0 -0.52165,-0.06887 -0.76612,-0.20487c-0.20775,-0.11552 -0.28252,-0.37759 -0.16699,-0.58535c0.11552,-0.20775 0.37759,-0.28252 0.58535,-0.16699c0.16697,0.09957 0.36901,0.12157 0.5535,0.06025c0.18209,-0.06867 0.32493,-0.21371 0.39081,-0.39683c0.08747,-0.22107 0.3376,-0.32936 0.55866,-0.24189c0.22107,0.08747 0.32936,0.3376 0.24189,0.55866c-0.1076,0.27201 -0.28148,0.49238 -0.49668,0.65938c0.34604,2.20021 2.32847,2.68829 2.86992,2.78126c0.44078,-0.6078 0.98858,-1.13022 1.61659,-1.5417c0.89351,-0.57588 2.03494,-0.73685 3.17464,-0.84875c-1.62003,-2.67796 -0.7687,-5.07271 -0.32022,-5.98344c-0.32452,-0.16097 -0.61203,-0.40114 -0.81604,-0.72049c-0.11482,-0.19913 -0.05291,-0.45333 0.14061,-0.57736c0.19352,-0.12403 0.45036,-0.07411 0.58332,0.11339c0.35168,0.53606 1.05667,0.71118 1.61831,0.40199c0.20579,-0.10779 0.45999,-0.03281 0.57434,0.1694c0.11436,0.20222 0.0476,0.45869 -0.15083,0.5795c-0.31333,0.17732 -0.65938,0.26169 -1.0037,0.26169c-0.03271,0 -0.0637,-0.01033 -0.09555,-0.01205c-0.32538,0.56641 -1.46337,2.94395 0.42782,5.67355c0.85047,-0.08608 1.63553,-0.20057 2.20796,-0.5096c2.2312,-1.20427 3.50863,-1.08719 4.53729,-0.99165c0.26857,0.02496 0.52767,0.05079 0.78591,0.04304c1.44098,-0.03271 2.60393,-0.6258 3.07565,-1.16294c0.15963,-0.1677 0.42319,-0.17943 0.59709,-0.02658c0.1739,0.15285 0.19607,0.41574 0.05023,0.59557c-0.61203,0.69639 -1.99534,1.41602 -3.70318,1.45476c-0.29181,0.00172 -0.58018,-0.0198 -0.88491,-0.04734c-0.95894,-0.08694 -2.04527,-0.18766 -4.04922,0.89265c-0.84445,0.45623 -1.92217,0.55608 -3.06274,0.66024zM249.8385,175.49814c-0.1973,-0.13264 -0.24971,-0.4001 -0.11707,-0.5974c0.13264,-0.1973 0.4001,-0.24971 0.5974,-0.11707c2.93792,1.97554 1.36868,4.91519 1.35232,4.94445c-0.1141,0.20871 -0.37578,0.2854 -0.58448,0.1713c-0.20871,-0.1141 -0.2854,-0.37578 -0.1713,-0.58448c0.04993,-0.09297 1.1991,-2.28629 -1.07686,-3.8168zM232.6911,172.13095c-0.07361,-0.14342 -0.06091,-0.31594 0.03291,-0.44703c1.311,-1.82318 3.2194,-1.72677 4.04578,-1.42033c0.21499,0.08739 0.32198,0.32949 0.24187,0.54729c-0.08011,0.2178 -0.31847,0.33288 -0.53885,0.26014c-0.07317,-0.02754 -1.80166,-0.6215 -3.04983,1.11474c-0.08061,0.11278 -0.21086,0.17951 -0.34948,0.17905c-0.1612,-0.00019 -0.30878,-0.09045 -0.3824,-0.23387zM243.86324,170.34408c-0.01854,-0.23699 0.15855,-0.44414 0.39554,-0.46268c2.48256,-0.18938 3.58955,1.64155 3.63603,1.71988c0.12052,0.20514 0.05192,0.46913 -0.15322,0.58965c-0.20514,0.12052 -0.46913,0.05192 -0.58965,-0.15322c-0.0396,-0.06542 -0.91073,-1.4539 -2.82602,-1.29809c-0.23699,0.01854 -0.44414,-0.15855 -0.46268,-0.39554zM252.59651,183.78165c-0.00689,0.0835 -0.1911,2.05129 -2.23292,2.721c-0.04333,0.01426 -0.08866,0.02152 -0.13429,0.02152c-0.21327,0.00317 -0.39656,-0.15063 -0.43047,-0.3612c-0.03391,-0.21058 0.09184,-0.41414 0.29533,-0.47808c1.50555,-0.49496 1.64241,-1.95919 1.64413,-1.97468c0.01894,-0.23758 0.25222,-0.40544 0.46397,-0.39339c0.23692,0.02009 0.4131,0.22781 0.39425,0.46483z"/><path d="M231.5077,178.14511c-1.15606,-1.97813 -0.92622,-3.88825 -0.91503,-3.97175c0.0338,-0.23408 0.24919,-0.39773 0.48377,-0.36756c0.23504,0.03252 0.39988,0.24848 0.36928,0.48377c-0.00258,0.01808 -0.19799,1.71041 0.80571,3.42686c0.34486,-0.12111 0.71607,-0.14669 1.07428,-0.07403c0.23271,0.04873 0.38186,0.27688 0.33313,0.5096c-0.04873,0.23271 -0.27688,0.38186 -0.5096,0.33313c-0.62953,-0.12679 -1.25011,0.25413 -1.42205,0.87285c-0.03569,0.15318 -0.1521,0.2747 -0.30361,0.31694c-0.15151,0.04223 -0.314,-0.00154 -0.42378,-0.11418c-0.10978,-0.11263 -0.14939,-0.27619 -0.10329,-0.42657c0.10375,-0.38187 0.31606,-0.72544 0.61117,-0.98906zM239.91835,176.98031c-0.15956,-0.17102 -0.15333,-0.43817 0.01403,-0.60157c0.24274,-0.22421 0.5443,-0.37469 0.86941,-0.43385c0.25996,-0.79194 0.1954,-1.01145 -0.01721,-1.66651c-0.04304,-0.1317 -0.08952,-0.27804 -0.14031,-0.44503l-0.02583,-0.08608c-0.34002,-1.12507 -0.63355,-2.09692 0.16528,-3.39501c0.12456,-0.20252 0.38971,-0.26573 0.59223,-0.14117c0.20252,0.12456 0.26573,0.38971 0.14117,0.59223c-0.59568,0.96841 -0.38822,1.65446 -0.07489,2.69432l0.02583,0.08608c0.04324,0.14346 0.08829,0.28636 0.13515,0.42868c0.23672,0.72738 0.33744,1.1156 0.08264,1.99018c0.25671,0.07824 0.49162,0.2153 0.68606,0.40027c0.17042,0.16569 0.17428,0.43815 0.00861,0.60859c-0.16585,0.16972 -0.43754,0.17395 -0.60859,0.00947c-0.3497,-0.33161 -0.89601,-0.33724 -1.25247,-0.01291c-0.1746,0.15564 -0.44154,0.14335 -0.6011,-0.02768zM245.90377,174.42558c-0.42352,0.92106 -0.14289,2.00395 0.00172,2.43263c0.05594,0.14739 0.02682,0.31357 -0.0759,0.43317c-0.10272,0.11959 -0.26261,0.17345 -0.41676,0.14038c-0.15415,-0.03306 -0.27788,-0.14775 -0.32252,-0.29896c-0.21434,-0.63269 -0.47689,-1.82576 -0.01463,-2.94911c-0.26857,-0.15839 -0.49927,-0.3865 -0.65421,-0.67573c-0.07865,-0.136 -0.07695,-0.30404 0.00443,-0.43842c0.08138,-0.13438 0.22952,-0.21374 0.38648,-0.20706c0.15696,0.00669 0.29781,0.09837 0.36746,0.23918c0.23318,0.42244 0.75246,0.59391 1.19135,0.39339c0.21512,-0.10126 0.4716,-0.00896 0.57286,0.20616c0.10126,0.21512 0.00896,0.4716 -0.20616,0.57286c-0.23121,0.10902 -0.4838,0.16518 -0.73943,0.16441c-0.03185,0 -0.06198,-0.01119 -0.09469,-0.01291zM250.02228,182.86647c-0.07507,0.08572 -0.18113,0.13811 -0.29483,0.14562c-0.50054,0.03233 -0.99874,-0.09192 -1.42549,-0.35551c-0.52943,0.61639 -1.23322,1.05787 -2.01858,1.26624c0.06514,0.2765 0.08231,0.56213 0.05079,0.84445c-0.02806,0.214 -0.21027,0.37412 -0.4261,0.37445c-0.12347,-0.00059 -0.24081,-0.05387 -0.32253,-0.14643c-0.08171,-0.09257 -0.12002,-0.21561 -0.10529,-0.3382c0.01205,-0.09727 0.01808,-0.38822 -0.06025,-0.60601c-0.44245,0.02583 -0.84359,-0.00517 -1.25161,-0.05251c-0.40544,-0.04734 -0.82551,-0.09641 -1.3351,-0.07833c-0.60859,0.0198 -1.07428,0.32366 -1.56666,0.64474c-0.32452,0.2109 -0.66971,0.43556 -1.06653,0.57932c0.05998,0.19186 0.09754,0.39001 0.11191,0.59051c0.01122,0.23651 -0.17071,0.43768 -0.40716,0.4502l-0.02324,0.00086c-0.2281,-0.00053 -0.41634,-0.17858 -0.42954,-0.4063c-0.0043,-0.08264 -0.03529,-0.30558 -0.11535,-0.49324c-0.16958,-0.00258 -0.34432,-0.01721 -0.53284,-0.06025c-0.67401,-0.15322 -1.36523,-0.16441 -1.84728,-0.03185c-0.93225,0.25566 -1.40483,0.88835 -1.40913,0.89524c-0.08164,0.11125 -0.2115,0.17682 -0.34948,0.17646c-0.16073,0.00007 -0.30806,-0.08961 -0.38182,-0.23242c-0.07376,-0.14281 -0.06162,-0.31486 0.03147,-0.44589c0.02238,-0.03185 0.4984,-0.6852 1.44787,-1.076c-0.04734,-0.10158 -0.10588,-0.20315 -0.17991,-0.27287c-0.17281,-0.1633 -0.18052,-0.43578 -0.01721,-0.60859c0.1633,-0.17281 0.43578,-0.18052 0.60859,-0.01721c0.21003,0.19885 0.34604,0.45709 0.43212,0.67315c0.55264,-0.07747 1.20427,-0.04734 1.85503,0.10158c0.71877,0.16183 1.19652,-0.14978 1.80252,-0.54403c0.33915,-0.22123 0.71447,-0.4502 1.14831,-0.60601c0,-0.14375 -0.02152,-0.43901 -0.13687,-0.62408c-0.10714,-0.19991 -0.04113,-0.44864 0.15104,-0.56911c0.19217,-0.12047 0.44481,-0.07151 0.57806,0.11203c0.18679,0.2987 0.24533,0.65765 0.26254,0.90384l0.0043,-0.00086c0.57932,-0.01721 1.0476,0.03701 1.46164,0.08436c0.45192,0.05337 0.84273,0.09899 1.28948,0.04562c0.50529,-0.0594 1.41172,-0.29095 2.1038,-1.10527c-0.2944,-0.37273 -0.48807,-0.83067 -0.52337,-1.33855c-0.01527,-0.23693 0.16346,-0.4418 0.40027,-0.45881c0.2358,-0.01199 0.4387,0.16502 0.45881,0.40027c0.02694,0.41699 0.2189,0.80607 0.53343,1.08118c0.31452,0.27511 0.72569,0.41357 1.14256,0.38477c0.11409,-0.00802 0.22664,0.02998 0.31252,0.10552c0.08588,0.07553 0.13795,0.1823 0.14457,0.29648c0.00755,0.1137 -0.03038,0.22574 -0.10545,0.31146z"/></g></g></g></g></svg>