<svg version="1.1" xmlns="http://www.w3.org/2000/svg" xmlns:xlink="http://www.w3.org/1999/xlink" width="51.81665" height="51.81832" viewBox="0,0,51.81665,51.81832"><defs><linearGradient x1="240" y1="155.09084" x2="240" y2="204.90916" gradientUnits="userSpaceOnUse" id="color-1"><stop offset="0" stop-color="#000000"/><stop offset="1" stop-color="#000000"/></linearGradient></defs><g transform="translate(-214.04462,-154.09084)"><g data-paper-data="{&quot;isPaintingLayer&quot;:true}" fill-rule="nonzero" stroke-width="2" stroke-linecap="butt" stroke-linejoin="miter" stroke-miterlimit="10" stroke-dasharray="" stroke-dashoffset="0" style="mix-blend-mode: normal"><path d="M215.04464,198.7261c0,-11.25908 0,-34.36061 0,-38.83371c0,-1.96596 2.20029,-4.88183 5.04715,-4.79986c6.01019,0.17305 28.98107,0 38.72378,0c3.13463,0 5.92554,1.84509 6.0457,4.68375c0.21175,5.00233 0,27.097 0,38.60767c0,3.94876 -2.69927,6.52521 -6.79115,6.52521c-11.1123,0 -32.49513,0 -37.97835,0c-2.51898,0 -5.04715,-2.43555 -5.04715,-6.18307z" fill="#000000" stroke="url(#color-1)"/><path d="M232.01958,174.51788c0,-0.68809 0.5578,-1.24589 1.24589,-1.24589c0.68809,0 1.24589,0.5578 1.24589,1.24589c0,0.68809 -0.5578,1.24589 -1.24589,1.24589c-0.68809,0 -1.24589,-0.5578 -1.24589,-1.24589z" fill="#ffffff" stroke="none"/><path d="M245.48865,174.51789c0,-0.68809 0.5578,-1.24589 1.24589,-1.24589c0.68809,0 1.24589,0.5578 1.24589,1.24589c0,0.68809 -0.5578,1.24589 -1.24589,1.24589c-0.68809,0 -1.24589,-0.5578 -1.24589,-1.24589z" fill="#ffffff" stroke="none"/></g></g></svg>