<svg version="1.1" xmlns="http://www.w3.org/2000/svg" xmlns:xlink="http://www.w3.org/1999/xlink" width="8.89128" height="8.93002" viewBox="0,0,8.89128,8.93002"><g transform="translate(-216.59784,-175.53499)"><g data-paper-data="{&quot;isPaintingLayer&quot;:true}" fill="#051116" fill-rule="nonzero" stroke="none" stroke-width="1" stroke-linecap="butt" stroke-linejoin="miter" stroke-miterlimit="10" stroke-dasharray="" stroke-dashoffset="0" style="mix-blend-mode: normal"><g data-paper-data="{&quot;index&quot;:null}"><path d="M223.57125,179.02169c0,1.92492 -1.5618,3.4867 -3.4867,3.4867c-1.92492,0 -3.4867,-1.5618 -3.4867,-3.4867c0,-1.92492 1.5618,-3.4867 3.4867,-3.4867c1.92492,0 3.4867,1.5618 3.4867,3.4867zM222.33379,179.02169c0,-1.24097 -1.00829,-2.24927 -2.24927,-2.24927c-1.24097,0 -2.24927,1.00829 -2.24927,2.24927c0,1.24097 1.00829,2.24927 2.24927,2.24927c1.24449,0 2.24927,-1.00829 2.24927,-2.24927z" data-paper-data="{&quot;index&quot;:null}"/><path d="" data-paper-data="{&quot;index&quot;:null}"/><path d="M224.29752,183.85864h1.19161v0.60637h-2.12939v-0.50062l0.8849,-0.90605c0.17627,-0.1798 0.3032,-0.32435 0.38076,-0.43363c0.07756,-0.10928 0.11635,-0.21152 0.11635,-0.31377c0,-0.10224 -0.03172,-0.18686 -0.09871,-0.25382c-0.06347,-0.06698 -0.15159,-0.10224 -0.25382,-0.10224c-0.19037,0 -0.37018,0.13397 -0.5394,0.40544l-0.5394,-0.32082c0.14102,-0.21858 0.29614,-0.38428 0.46536,-0.4971c0.16923,-0.11282 0.38428,-0.16923 0.64516,-0.16923c0.26089,0 0.49004,0.08108 0.68747,0.24678c0.19743,0.1657 0.29614,0.39133 0.29614,0.67689c0,0.15512 -0.04232,0.30671 -0.11987,0.44775c-0.07756,0.14102 -0.2221,0.32435 -0.43717,0.54644z" data-paper-data="{&quot;index&quot;:null}"/></g></g></g></svg>