<svg version="1.1" xmlns="http://www.w3.org/2000/svg" xmlns:xlink="http://www.w3.org/1999/xlink" width="51.81665" height="51.81832" viewBox="0,0,51.81665,51.81832"><defs><linearGradient x1="239.92199" y1="155.09001" x2="239.92199" y2="204.90833" gradientUnits="userSpaceOnUse" id="color-1"><stop offset="0" stop-color="#39edd7"/><stop offset="1" stop-color="#1861a3"/></linearGradient></defs><g transform="translate(-213.96661,-154.09001)"><g data-paper-data="{&quot;isPaintingLayer&quot;:true}" fill-rule="nonzero" stroke-linecap="butt" stroke-linejoin="miter" stroke-miterlimit="10" stroke-dasharray="" stroke-dashoffset="0" style="mix-blend-mode: normal"><path d="M214.96663,198.72527c0,-11.25908 0,-34.36061 0,-38.83371c0,-1.96596 2.20029,-4.88183 5.04715,-4.79986c6.01019,0.17305 28.98107,0 38.72378,0c3.13463,0 5.92554,1.84509 6.0457,4.68375c0.21175,5.00233 0,27.097 0,38.60767c0,3.94876 -2.69927,6.52521 -6.79115,6.52521c-11.1123,0 -32.49513,0 -37.97835,0c-2.51898,0 -5.04715,-2.43555 -5.04715,-6.18307z" fill="#0a0d10" stroke="url(#color-1)" stroke-width="2"/><g fill="#2ec0c6" stroke="none" stroke-width="0"><path d="M252.34735,186.18782c-0.24188,0.287 2.96107,2.76853 1.85833,2.87604c-0.85311,0.08317 -1.54656,-0.99208 -3.08644,-1.38301c-0.80995,-0.20562 -3.64926,0.53951 -4.56379,0.29648c-4.85665,-1.29058 -8.13723,-1.33587 -10.98126,-3.73281c-4.26602,-3.59539 -8.76224,-8.87909 -9.16799,-10.55236c-0.07727,-0.31863 -1.27404,-2.76627 -0.67779,-2.76057c0.46642,0.00446 1.44326,0.75765 1.56005,0.61908c0.28688,-0.34039 1.50465,1.35711 2.17586,1.41111c1.78576,0.14368 7.25004,0.82232 11.40294,4.32238c2.11093,1.77908 3.98116,4.05411 5.41828,5.67012c1.15927,1.30356 2.82652,-0.429 4.12998,-0.30987c1.45453,0.13294 2.28105,3.12907 1.93184,3.54342z" data-paper-data="{&quot;index&quot;:null}"/><path d="M238.19203,181.55794c3.67513,-0.67768 4.49355,1.78931 4.61742,2.46111c0.12388,0.6718 2.48155,1.40763 -1.19358,2.08531c-1.2116,0.22342 -8.91219,-1.3213 -9.90979,-1.24429c-2.02839,0.15658 -1.9441,-1.77425 -2.02714,-2.22456c-0.12388,-0.6718 4.83796,-0.39989 8.51309,-1.07757z" data-paper-data="{&quot;index&quot;:null}"/></g></g></g></svg>