<svg version="1.1" xmlns="http://www.w3.org/2000/svg" xmlns:xlink="http://www.w3.org/1999/xlink" width="384" height="384" viewBox="0,0,384,384"><defs><radialGradient cx="240" cy="180.00001" r="192" gradientUnits="userSpaceOnUse" id="color-1"><stop offset="0" stop-color="#ffffff" stop-opacity="0.01184"/><stop offset="1" stop-color="#ffffff" stop-opacity="0"/></radialGradient><radialGradient cx="240.00001" cy="180.00002" r="145.63637" gradientUnits="userSpaceOnUse" id="color-2"><stop offset="0" stop-color="#ffffff" stop-opacity="0.01184"/><stop offset="1" stop-color="#ffffff" stop-opacity="0"/></radialGradient><radialGradient cx="240.00001" cy="180.00002" r="159.27273" gradientUnits="userSpaceOnUse" id="color-3"><stop offset="0" stop-color="#ffffff" stop-opacity="0.02382"/><stop offset="1" stop-color="#ffffff" stop-opacity="0"/></radialGradient><radialGradient cx="240.00001" cy="180.00002" r="106.09091" gradientUnits="userSpaceOnUse" id="color-4"><stop offset="0" stop-color="#ffffff" stop-opacity="0.02382"/><stop offset="1" stop-color="#ffffff" stop-opacity="0"/></radialGradient><radialGradient cx="240.00001" cy="180.00002" r="47.90909" gradientUnits="userSpaceOnUse" id="color-5"><stop offset="0" stop-color="#ffffff" stop-opacity="0.06376"/><stop offset="1" stop-color="#ffffff" stop-opacity="0"/></radialGradient></defs><g transform="translate(-48,11.99999)"><g data-paper-data="{&quot;isPaintingLayer&quot;:true}" fill-rule="nonzero" stroke="none" stroke-width="0" stroke-linecap="butt" stroke-linejoin="miter" stroke-miterlimit="10" stroke-dasharray="" stroke-dashoffset="0" style="mix-blend-mode: normal"><path d="M48,180.00001c0,-106.03869 85.96132,-192 192,-192c106.03869,0 192,85.96132 192,192c0,106.03869 -85.96132,192 -192,192c-106.03869,0 -192,-85.96132 -192,-192z" fill="url(#color-1)"/><path d="M94.36364,180.00002c0,-80.43275 65.20362,-145.63637 145.63637,-145.63637c80.43275,0 145.63637,65.20362 145.63637,145.63637c0,80.43275 -65.20362,145.63637 -145.63637,145.63637c-80.43275,0 -145.63637,-65.20362 -145.63637,-145.63637z" fill="url(#color-2)"/><path d="M80.72728,180.00002c0,-87.96391 71.30882,-159.27273 159.27273,-159.27273c87.96391,0 159.27273,71.30882 159.27273,159.27273c0,87.96391 -71.30882,159.27273 -159.27273,159.27273c-87.96391,0 -159.27273,-71.30882 -159.27273,-159.27273z" fill="url(#color-3)"/><path d="M133.9091,180.00002c0,-58.5924 47.49851,-106.09091 106.09091,-106.09091c58.5924,0 106.09091,47.49851 106.09091,106.09091c0,58.5924 -47.49851,106.09091 -106.09091,106.09091c-58.5924,0 -106.09091,-47.49851 -106.09091,-106.09091z" fill="url(#color-4)"/><path d="M192.09092,180.00002c0,-26.45946 21.44963,-47.90909 47.90909,-47.90909c26.45946,0 47.90909,21.44963 47.90909,47.90909c0,26.45946 -21.44963,47.90909 -47.90909,47.90909c-26.45946,0 -47.90909,-21.44963 -47.90909,-47.90909z" fill="url(#color-5)"/></g></g></svg>