<svg version="1.1" xmlns="http://www.w3.org/2000/svg" xmlns:xlink="http://www.w3.org/1999/xlink" width="47.762" height="13.99997" viewBox="0,0,47.762,13.99997"><g transform="translate(-196.55082,-172.7688)"><g data-paper-data="{&quot;isPaintingLayer&quot;:true}" fill="#f0f0f0" fill-rule="nonzero" stroke="none" stroke-linejoin="miter" stroke-miterlimit="10" stroke-dasharray="" stroke-dashoffset="0" style="mix-blend-mode: normal"><path d="M203.30082,181.55004c-0.61459,0.1875 -1.40104,0.28125 -2.35937,0.28125c-1.125,0 -2.01041,-0.125 -2.65625,-0.375c-0.63541,-0.25 -1.08334,-0.625 -1.34375,-1.125c-0.26041,-0.5 -0.39062,-1.11979 -0.39062,-1.85937v-1.78125c0,-0.76041 0.14584,-1.42187 0.4375,-1.98437c0.30209,-0.57291 0.84375,-1.01562 1.625,-1.32812c0.78125,-0.3125 1.88541,-0.46875 3.3125,-0.46875c1.14584,0 2.08334,0.09375 2.8125,0.28125c0.73959,0.17709 1.30729,0.43229 1.70313,0.76563c0.40625,0.32291 0.6875,0.71875 0.84375,1.1875c0.15625,0.45834 0.23438,0.97396 0.23438,1.54688v6.10938c0,0.76041 -0.13541,1.42709 -0.40625,2c-0.27084,0.57291 -0.73959,1.02084 -1.40625,1.34375c-0.66666,0.32291 -1.59375,0.48438 -2.78125,0.48438h-4.28125c-0.44791,0 -0.67187,-0.22396 -0.67187,-0.67187v-2.20312c0,-0.44791 0.22396,-0.67187 0.67188,-0.67187h3.48438c0.45834,0 0.76563,-0.06771 0.92188,-0.20312c0.16666,-0.14584 0.25,-0.45312 0.25,-0.92187zM203.30082,178.08129v-1.09375c0,-0.19791 -0.07291,-0.35937 -0.21875,-0.48437c-0.13541,-0.13541 -0.47916,-0.20312 -1.03125,-0.20312c-0.55209,0 -0.90625,0.06771 -1.0625,0.20313c-0.14584,0.125 -0.21875,0.28646 -0.21875,0.48438v1.09375c0,0.1875 0.07291,0.34896 0.21875,0.48438c0.15625,0.125 0.51041,0.1875 1.0625,0.1875c0.55209,0 0.89584,-0.0625 1.03125,-0.1875c0.14584,-0.13541 0.21875,-0.29687 0.21875,-0.48437z" stroke-width="1" stroke-linecap="square"/><path d="M228.01473,183.03033v-6.0606h16.29808v6.0606z" stroke-width="0" stroke-linecap="butt"/><path d="M220.45948,182.95626c0,0.57292 -0.08333,1.09375 -0.25,1.5625c-0.16667,0.46875 -0.45833,0.86979 -0.875,1.20313c-0.41667,0.33333 -1,0.58854 -1.75,0.76563c-0.73958,0.1875 -1.67708,0.28125 -2.8125,0.28125c-1.14583,0 -2.09375,-0.09375 -2.84375,-0.28125c-0.75,-0.17708 -1.33333,-0.43229 -1.75,-0.76562c-0.41667,-0.33333 -0.70833,-0.73437 -0.875,-1.20312c-0.16667,-0.46875 -0.25,-0.98958 -0.25,-1.5625v-6.35937c0,-0.57292 0.08333,-1.08854 0.25,-1.54687c0.16667,-0.46875 0.45833,-0.86979 0.875,-1.20312c0.41667,-0.34375 1,-0.60937 1.75,-0.79687c0.75,-0.1875 1.69792,-0.28125 2.84375,-0.28125c1.13542,0 2.07292,0.09375 2.8125,0.28125c0.75,0.1875 1.33333,0.45313 1.75,0.79688c0.41667,0.33333 0.70833,0.73438 0.875,1.20313c0.16667,0.45833 0.25,0.97396 0.25,1.54688zM213.27198,182.28439c0,0.25 0.08854,0.45833 0.26563,0.625c0.1875,0.16667 0.59896,0.25 1.23438,0.25c0.64583,0 1.05208,-0.08333 1.21875,-0.25c0.17708,-0.16667 0.26563,-0.375 0.26563,-0.625v-5.01562c0,-0.25 -0.08854,-0.45312 -0.26562,-0.60937c-0.16667,-0.16667 -0.57292,-0.25 -1.21875,-0.25c-0.63542,0 -1.04687,0.08333 -1.23437,0.25c-0.17708,0.15625 -0.26562,0.35938 -0.26562,0.60938z" stroke-width="1" stroke-linecap="square"/></g></g></svg>